<!-- Generated by IcoMoon.io -->
<svg version="1.1" xmlns="http://www.w3.org/2000/svg" width="32" height="32" viewBox="0 0 32 32">
<title>alibaba</title>
<path d="M20.832 8.192c0.544 0.096 1.056 0.288 1.536 0.512 1.728 0.864 2.4 2.528 1.696 4.352-0.384 1.056-1.024 1.984-1.696 2.848-0.992 1.248-2.016 2.496-3.040 3.744-0.256 0.288-0.48 0.608-0.672 0.96-0.416 0.704-0.192 1.056 0.608 1.056 1.12-0.032 2.208-0.192 3.328-0.384 2.912-0.544 5.696-1.536 8.448-2.656 0.128-0.064 0.224-0.096 0.352-0.128 0 0 0 0 0 0 0.16-0.096 0.32-0.192 0.608-0.224-0.128 0.192-0.288 0.256-0.416 0.32-3.776 2.112-7.68 3.968-11.936 4.928-0.768 0.16-1.536 0.224-2.336 0.128-1.216-0.16-1.792-0.992-1.44-2.176 0.288-1.024 0.96-1.824 1.632-2.592 1.28-1.504 2.624-2.912 3.776-4.48 0.32-0.448 0.608-0.896 0.896-1.344 0.224-0.384 0.384-0.8 0.384-1.248 0 0 0 0 0 0s0 0 0 0c-0.032-0.096-0.032-0.16-0.064-0.256-0.16-0.48-0.512-0.768-0.928-1.024-0.992-0.544-2.112-0.832-3.2-1.152-0.224-0.064-0.384 0.096-0.544 0.192s0 0.16 0.064 0.224c0.256 0.224 0.512 0.416 0.8 0.672-0.96 0.192-1.856 0.352-2.752 0.544-2.56 0.544-5.024 1.28-7.488 2.144-0.224 0.096-0.352 0.16-0.192 0.416 0.416 0.608 0.256 1.088-0.32 1.536-0.352 0.256-0.64 0.608-0.992 0.96 2.208 0.576 4.192 0.224 6.016-0.96 0.192-0.128 0.128-0.192 0-0.32-0.096-0.096-0.192-0.16-0.288-0.256 0.608-0.128 1.312 0.608 1.312 1.376 0 0.16-0.096 0.192-0.224 0.192s-0.192 0-0.224-0.16c-0.128-0.544-0.128-0.544-0.576-0.256-2.016 1.248-4.128 1.568-6.4 0.928-0.288-0.064-0.448-0.128-0.416 0.288 0.032 0.512 0.16 1.056-0.032 1.472s-0.8 0.448-1.216 0.704c-0.544 0.352-1.056 0.704-1.472 1.248-0.288 0.384-0.416 0.768-0.32 1.248v0c0.096 0.096 0.16 0.224 0.16 0.352 0.8 0.608 1.728 0.736 2.656 0.768 2.24 0.096 4.416-0.352 6.56-0.864 0.064-0.032 0.128-0.032 0.224-0.032 0.032 0 0.032 0.032 0.128 0.032-1.216 0.608-2.4 1.152-3.648 1.504-1.632 0.48-3.296 0.768-4.992 0.736-0.736 0-1.44-0.16-2.144-0.416-1.568-0.64-2.272-1.952-1.92-3.616 0.192-1.152 0.736-2.080 1.344-2.976 2.528-3.744 6.048-6.176 10.24-7.712 1.664-0.608 3.36-1.056 5.088-1.28 0-0.032 2.016-0.224 4.032 0.128z"></path>
</svg>
