<!-- Generated by IcoMoon.io -->
<svg version="1.1" xmlns="http://www.w3.org/2000/svg" width="32" height="32" viewBox="0 0 32 32">
<title>aliexpress</title>
<path d="M16.352 21.504c0.64 0 1.6-0.096 2.528-0.256 7.424-1.216 13.184-8.096 13.12-15.648 0-0.896-0.608-1.536-1.408-1.568-0.8 0-1.408 0.64-1.44 1.536 0 0.64-0.064 1.312-0.16 1.92-1.024 5.92-5.504 10.272-11.456 10.976-4.864 0.576-8.832-1.184-11.904-4.992-1.856-2.304-2.72-4.992-2.784-7.936-0.032-0.928-0.64-1.536-1.44-1.536-0.832 0.032-1.44 0.672-1.408 1.632 0.032 0.864 0.096 1.728 0.224 2.56 1.376 7.776 8 13.344 16.128 13.312z"></path>
</svg>
