<!-- Generated by IcoMoon.io -->
<svg version="1.1" xmlns="http://www.w3.org/2000/svg" width="32" height="32" viewBox="0 0 32 32">
<title>appstore</title>
<path d="M31.136 24.512c-0.032-0.032-0.032-0.064-0.064-0.096 0 0 0 0 0-0.032-0.096-0.16-0.16-0.32-0.256-0.48 0 0 0 0 0 0-0.032-0.032-0.032-0.064-0.064-0.096 0 0 0 0 0 0-0.032-0.032-0.032-0.064-0.064-0.096 0 0 0 0 0 0-0.032-0.032-0.032-0.064-0.064-0.096 0 0 0 0 0 0-0.032-0.032-0.032-0.064-0.064-0.096 0 0 0 0 0 0-0.032-0.032-0.032-0.064-0.064-0.064 0 0 0 0 0 0-0.032-0.032-0.032-0.032-0.064-0.064 0 0 0 0 0 0-0.032-0.032-0.032-0.032-0.064-0.064 0 0 0 0 0 0-0.032-0.032-0.032-0.032-0.064-0.064 0 0 0 0 0 0-0.032-0.032-0.064-0.032-0.064-0.064 0 0 0 0 0 0-0.064-0.032-0.096-0.064-0.16-0.064-0.48-0.16-1.12 0.32-1.568 0.576s-1.152 0.544-1.248 1.056c-0.128 0.48 0.352 1.184 0.64 1.696 0.128 0.256 0.608 0.608 0.8 0.8 0.832 0.544 1.536 1.152 1.472 2.208 0 0 0 0 0 0 0 0.032 0 0.064 0 0.128s0 0.128-0.032 0.16c1.184-1.344 1.312-2.24 1.408-3.424 0.032-0.32-0.032-0.768-0.064-1.024-0.128-0.32-0.192-0.576-0.352-0.8zM18.24 2.688c-0.032-0.032-0.032-0.064-0.064-0.096 0 0 0 0 0-0.032-0.032-0.032-0.064-0.064-0.064-0.096 0 0 0 0 0 0-0.032-0.032-0.064-0.064-0.096-0.064 0 0 0 0 0 0-0.032-0.032-0.064-0.032-0.096-0.064 0 0 0 0 0 0s0 0 0 0c-0.288-0.096-0.544-0.096-0.8 0.064l-1.6 0.928c-0.384 0.224-0.512 0.704-0.288 1.088l9.44 16.256 2.976-1.728-9.408-16.256zM27.968 19.456c-0.032 0-0.064 0.032-0.064 0.032v0c-0.992 0.576-1.92 1.12-2.912 1.696l1.664 2.848 0.064 0.128 2.976-1.728-1.728-2.976zM14.112 9.632l-3.008-1.664-8 14.112 3.008 1.696 0.064-0.128zM15.36 7.424c0.224-0.384 0.096-0.864-0.288-1.088l-1.6-0.896c-0.288-0.16-0.608-0.128-0.832 0.032 0 0 0 0 0 0-0.032 0.032-0.064 0.032-0.096 0.064 0 0 0 0 0 0-0.032 0.032-0.064 0.064-0.064 0.096 0 0 0 0 0 0.032-0.032 0.032-0.032 0.064-0.064 0.096l-0.896 1.6 3.008 1.664 0.832-1.6zM1.088 28.992l4.704-4.704c-0.992-0.576-1.984-1.12-3.008-1.696l-1.696 6.4zM6.432 14.624v0l0.064-0.096h-6.432l-0.064 3.424h4.544zM20.288 14.624l-0.064-0.064-8.064-0.032-0.064 0.096-1.856 3.36h12l-1.952-3.36zM26.080 14.56l2.048 3.456h3.872v-3.456z"></path>
</svg>
