<!-- Generated by IcoMoon.io -->
<svg version="1.1" xmlns="http://www.w3.org/2000/svg" width="32" height="32" viewBox="0 0 32 32">
<title>beam</title>
<path d="M16 0c-8.813 0-15.938 7.188-15.938 16s7.125 16 15.938 16c8.813 0 15.938-7.188 15.938-16s-7.125-16-15.938-16zM23.688 13.688c0.25 2.313-0.375 4.75-2.813 7.188-2.438 2.5-4.938 3.125-7.25 2.813 2.188 4.125 4.313 7.563 2.313 7.563-8.313 0-15.125-6.875-15.125-15.25 0-3.125 5.813 6.75 12.875 7.688-2.5-4.563-5.125-10-2.563-12.625 2.563-2.5 8 0.188 12.563 2.625-0.875-7.063-10.813-12.875-7.688-12.875 8.375 0 15.188 6.75 15.188 15.25 0 1.938-3.438-0.125-7.5-2.375z"></path>
</svg>
