<!-- Generated by IcoMoon.io -->
<svg version="1.1" xmlns="http://www.w3.org/2000/svg" width="32" height="32" viewBox="0 0 32 32">
<title>beatport</title>
<path d="M27.613 17.683c0-6.404-5.209-11.613-11.613-11.613s-11.612 5.21-11.612 11.613c0 2.963 1.117 5.784 3.148 7.947l0-0.001c0.273 0.288 0.727 0.303 1.017 0.030l1.252-1.178c0.288-0.271 0.302-0.724 0.033-1.014l0.001-0.002c-1.477-1.573-2.291-3.628-2.291-5.783 0-4.66 3.791-8.453 8.452-8.453s8.452 3.792 8.452 8.453c0 2.155-0.813 4.21-2.291 5.783l0.003 0.003c-0.269 0.29-0.254 0.742 0.034 1.012l1.252 1.178c0.289 0.273 0.745 0.258 1.017-0.031l-0.001-0.001c2.030-2.162 3.147-4.983 3.147-7.945zM32 17.627c0-1.582-0.237-3.143-0.706-4.641h0.001c-0.001-0.001-0.002-0.003-0.002-0.004s-0.001-0.002-0.001-0.005c-0.122-0.373-0.521-0.582-0.898-0.465l-1.641 0.51c-0.38 0.117-0.591 0.52-0.474 0.899l-0.002 0.001c0.372 1.194 0.564 2.44 0.564 3.704 0 2.233-0.604 4.422-1.748 6.332l0.002 0.002c-0.201 0.34-0.090 0.78 0.25 0.983l1.474 0.884c0.34 0.204 0.781 0.094 0.987-0.247 1.436-2.401 2.195-5.151 2.195-7.955zM4.908 23.96c-1.143-1.91-1.747-4.1-1.747-6.332 0-1.264 0.19-2.51 0.563-3.703h0v-0.001c0.117-0.38-0.095-0.781-0.473-0.9l-1.642-0.512c-0.377-0.117-0.777 0.092-0.898 0.467l-0.003-0.002c-0.47 1.501-0.708 3.065-0.708 4.65 0 2.804 0.76 5.554 2.196 7.955l0.003-0.001c0.205 0.337 0.644 0.447 0.984 0.243l1.474-0.884c0.339-0.203 0.449-0.64 0.251-0.98l0.001-0z"></path>
</svg>
