<!-- Generated by IcoMoon.io -->
<svg version="1.1" xmlns="http://www.w3.org/2000/svg" width="32" height="32" viewBox="0 0 32 32">
<title>booking</title>
<path d="M17.152 15.104c0.352-0.32 0.736-0.608 1.088-0.928 2.944-2.816 3.104-8.064 0.256-11.040-1.856-1.92-4.64-2.688-7.264-2.752-2.656 0-5.312 0-8 0-1.728-0.064-3.328 1.536-3.232 3.296 0 9.312 0 18.624 0 27.936 3.84 0 7.68 0 11.488 0 3.296-0.064 6.88-1.28 8.8-4.128 1.76-2.592 1.92-6.176 0.544-8.96-0.768-1.568-2.144-2.656-3.68-3.424zM6.048 7.904c0.032-0.672 0.064-1.408 0.608-1.856 0.608-0.608 1.536-0.48 2.336-0.512 1.344 0.032 2.848-0.192 4 0.64 1.696 1.248 1.76 3.904 0.576 5.536-0.608 0.8-1.6 1.216-2.56 1.248-1.632 0.032-3.296 0-4.928 0-0.032-1.664-0.032-3.36-0.032-5.056zM14.944 24.384c-0.608 1.152-1.92 1.856-3.232 1.888-1.888 0.032-3.776 0-5.664 0 0-2.048 0-4.096 0-6.144 0.032-0.704 0.128-1.536 0.768-1.92 0.8-0.512 1.76-0.32 2.656-0.352 1.568 0 3.328-0.128 4.64 0.96 1.568 1.312 1.76 3.808 0.832 5.568zM31.968 27.712c-0.096-2.144-2.464-3.808-4.512-3.168-1.696 0.416-2.88 2.176-2.624 3.904 0.16 1.888 2.048 3.392 3.936 3.168 1.888-0.128 3.424-2.016 3.2-3.904z"></path>
</svg>
