<!-- Generated by IcoMoon.io -->
<svg version="1.1" xmlns="http://www.w3.org/2000/svg" width="32" height="32" viewBox="0 0 32 32">
<title>bookbub</title>
<path d="M0 26.528v-21.056h7.168c2.176 0 3.872 0.416 5.088 1.28s1.824 2.080 1.824 3.616c0 1.12-0.352 2.112-1.088 2.976-0.704 0.864-1.664 1.472-2.88 1.856v0.032c1.472 0.192 2.656 0.736 3.552 1.664 0.864 0.928 1.312 2.048 1.312 3.392 0 1.888-0.672 3.392-2.016 4.512s-3.168 1.696-5.44 1.696h-7.52zM4.064 8.608v5.536h2.208c1.088 0 1.952-0.256 2.56-0.768s0.928-1.248 0.928-2.208c0-1.696-1.216-2.56-3.648-2.56h-2.048zM4.064 17.28v6.112h2.816c1.216 0 2.144-0.288 2.816-0.832s0.992-1.312 0.992-2.304c0-1.984-1.312-2.976-3.936-2.976h-2.688zM17.024 26.528v-21.056h7.168c2.176 0 3.872 0.416 5.088 1.28s1.824 2.080 1.824 3.616c0 1.12-0.352 2.112-1.088 2.976-0.704 0.864-1.664 1.472-2.88 1.856v0.032c1.472 0.192 2.656 0.736 3.552 1.664 0.864 0.928 1.312 2.048 1.312 3.392 0 1.888-0.672 3.392-2.016 4.512s-3.168 1.696-5.44 1.696h-7.52zM21.088 8.608v5.536h2.208c1.088 0 1.952-0.256 2.56-0.768s0.928-1.248 0.928-2.208c0-1.696-1.216-2.56-3.648-2.56h-2.048zM21.088 17.28v6.112h2.816c1.216 0 2.144-0.288 2.816-0.832s0.992-1.312 0.992-2.304c0-1.984-1.312-2.976-3.936-2.976h-2.688z"></path>
</svg>
