<!-- Generated by IcoMoon.io -->
<svg version="1.1" xmlns="http://www.w3.org/2000/svg" width="32" height="32" viewBox="0 0 32 32">
<title>buffer</title>
<path d="M31.438 24.313c-0.063-0.063-0.188-0.125-0.25-0.188-0.813-0.375-1.688-0.75-2.5-1.125-0.688-0.375-1.438-0.375-2.188 0-3.125 1.438-6.25 2.938-9.375 4.375-0.75 0.313-1.5 0.375-2.188 0-3.125-1.438-6.313-2.938-9.438-4.375-0.75-0.375-1.5-0.375-2.25 0s-1.563 0.75-2.313 1.063c-0.25 0.125-0.625 0.25-0.625 0.625 0 0.313 0.375 0.375 0.625 0.5 4.625 2.188 9.25 4.375 13.938 6.5 0.75 0.375 1.5 0.375 2.188 0.063 4.688-2.188 9.375-4.375 14.063-6.563 0.125-0.063 0.25-0.125 0.313-0.188 0.313-0.188 0.313-0.5 0-0.688zM0.5 7.688c0.125 0.063 0.313 0.188 0.438 0.25 4.688 2.125 9.313 4.313 13.938 6.5 0.75 0.313 1.5 0.313 2.25 0 4.625-2.188 9.313-4.375 13.938-6.5 0.125-0.125 0.313-0.188 0.438-0.313 0.25-0.125 0.25-0.375 0-0.563-0.125-0.125-0.313-0.188-0.438-0.313-4.625-2.125-9.25-4.313-13.875-6.438-0.813-0.375-1.563-0.375-2.375 0-4.625 2.125-9.25 4.313-13.875 6.5-0.188 0.063-0.313 0.125-0.438 0.188-0.25 0.188-0.25 0.5 0 0.688zM31.438 15.688c-0.063-0.063-0.188-0.125-0.25-0.188-0.813-0.375-1.688-0.75-2.5-1.125-0.688-0.375-1.438-0.375-2.188 0-3.125 1.438-6.25 2.938-9.375 4.375-0.75 0.313-1.5 0.313-2.188 0-3.125-1.438-6.313-2.938-9.438-4.375-0.75-0.375-1.5-0.375-2.25 0s-1.563 0.75-2.313 1.063c-0.25 0.125-0.625 0.25-0.625 0.563 0 0.375 0.375 0.438 0.625 0.563 4.625 2.188 9.25 4.375 13.938 6.5 0.75 0.375 1.5 0.375 2.188 0.063 4.688-2.188 9.375-4.375 14.063-6.563 0.125-0.063 0.25-0.125 0.313-0.188 0.313-0.188 0.313-0.5 0-0.688z"></path>
</svg>
