<!-- Generated by IcoMoon.io -->
<svg version="1.1" xmlns="http://www.w3.org/2000/svg" width="32" height="32" viewBox="0 0 32 32">
<title>codered</title>
<path d="M32 22.496c-3.904-6.784-7.808-13.504-11.744-20.32-1.44 2.496-2.848 4.896-4.256 7.36-1.408-2.464-2.816-4.864-4.256-7.36-3.936 6.816-7.808 13.536-11.744 20.352 2.88 0 5.632 0 8.512 0-1.408 2.464-2.816 4.864-4.224 7.296 7.84 0 15.616 0 23.424 0-1.408-2.464-2.784-4.864-4.224-7.328 2.912 0 5.664 0 8.512 0zM8.544 22.496c2.496-4.32 4.96-8.608 7.456-12.96 2.496 4.32 4.96 8.576 7.456 12.928-4.992 0.032-9.92 0.032-14.912 0.032z"></path>
</svg>
