<!-- Generated by IcoMoon.io -->
<svg version="1.1" xmlns="http://www.w3.org/2000/svg" width="32" height="32" viewBox="0 0 32 32">
<title>collectorz</title>
<path d="M20.544 21.6c-0.128 0.096-0.224 0.192-0.352 0.256-1.216 0.896-2.688 1.344-4.192 1.344-3.968 0-7.232-3.232-7.232-7.232 0-3.424 2.432-6.4 5.76-7.072 0.192-0.032 0.384-0.064 0.64-0.096l0.128-0.032v-8.768h-0.256c-0.064 0-0.128 0-0.192 0-8.32 0.64-14.848 7.648-14.848 16 0 8.832 7.168 16 16 16 3.168 0 6.24-0.928 8.864-2.688 0.672-0.448 1.312-0.928 1.888-1.472l0.128-0.096-6.208-6.24-0.128 0.096zM16 30.72c-3.936 0-7.616-1.536-10.4-4.32s-4.32-6.464-4.32-10.4c0-3.744 1.408-7.328 3.968-10.048 2.304-2.464 5.408-4.096 8.768-4.544v6.304c-1.792 0.416-3.424 1.44-4.576 2.88-1.248 1.504-1.952 3.456-1.952 5.408 0 4.704 3.808 8.512 8.512 8.512 1.6 0 3.168-0.448 4.512-1.312l4.448 4.448c-0.256 0.192-0.544 0.416-0.832 0.608-2.4 1.6-5.216 2.464-8.128 2.464zM11.36 16c0 2.56 2.080 4.64 4.64 4.64s4.64-2.080 4.64-4.64-2.080-4.64-4.64-4.64-4.64 2.080-4.64 4.64zM16 12.672c1.824 0 3.328 1.504 3.328 3.328 0 1.856-1.504 3.328-3.328 3.328s-3.328-1.472-3.328-3.328c0-1.824 1.504-3.328 3.328-3.328zM27.584 4.96c-2.848-3.008-6.688-4.736-10.784-4.96h-0.16v8.8h0.128c3.68 0.416 6.464 3.488 6.464 7.2 0 1.632-0.544 3.168-1.536 4.448l-0.096 0.096 6.208 6.208 0.096-0.128c2.624-2.944 4.064-6.72 4.064-10.656 0.032-4.096-1.536-8.032-4.384-11.008zM17.92 1.408c3.072 0.416 5.888 1.728 8.128 3.872-1.504 1.44-3.008 2.88-4.512 4.288-1.024-0.928-2.272-1.568-3.616-1.856v-6.304zM23.264 20.416c0.672-1.088 1.088-2.304 1.184-3.584 0.768 0 1.568 0.032 2.24 0.032l2.048 0.032c0.64 0 1.28 0.032 1.952 0.032-0.192 2.88-1.216 5.632-2.944 7.936l-4.48-4.448zM26.72 15.584c-0.64 0-1.44-0.032-2.24-0.032-0.096-1.856-0.8-3.648-2.016-5.056 1.504-1.408 3.008-2.848 4.48-4.288 2.336 2.592 3.648 5.952 3.712 9.44-0.64-0.032-1.312-0.032-1.952-0.032l-1.024-0.032c-0.288 0-0.608 0-0.96 0z"></path>
</svg>
