<!-- Generated by IcoMoon.io -->
<svg version="1.1" xmlns="http://www.w3.org/2000/svg" width="32" height="32" viewBox="0 0 32 32">
<title>craigslist</title>
<path d="M0.128 17.824v0.032c0.032 0.224 0.064 0.448 0.096 0.672 0.064 0.352 0.128 0.672 0.192 1.056 0.16 0.736 0.384 1.472 0.672 2.176 0.192 0.512 0.416 1.024 0.672 1.504 0.256 0.512 0.544 1.024 0.864 1.504 0.512 0.768 1.088 1.504 1.728 2.176 0.8 0.864 1.728 1.632 2.688 2.304 0.64 0.416 1.28 0.8 1.952 1.152 0.928 0.448 1.92 0.832 2.944 1.088 0.416 0.096 0.832 0.192 1.248 0.288 0.288 0.064 0.576 0.096 0.928 0.128 0.32 0.032 0.64 0.064 0.896 0.096 0.064 0 0.128 0 0.224 0 0.064 0 0.128 0 0.192 0s0.096 0 0.16 0h0.864c0.064 0 0.096 0 0.16 0 0.096 0 0.16 0 0.256 0 0.128 0 0.256 0 0.384-0.032 0.224-0.032 0.448-0.032 0.64-0.064 0.224-0.032 0.48-0.064 0.704-0.096 0.288-0.032 0.608-0.096 0.928-0.192 0.448-0.096 0.896-0.224 1.344-0.352 0.672-0.224 1.312-0.48 1.92-0.768 0.704-0.32 1.408-0.736 2.080-1.184 0.736-0.512 1.44-1.056 2.112-1.664 0.864-0.8 1.632-1.696 2.272-2.688 0.768-1.12 1.376-2.368 1.856-3.648 0.224-0.672 0.416-1.376 0.576-2.048 0.064-0.384 0.128-0.736 0.192-1.12 0.064-0.416 0.096-0.768 0.096-1.088 0-0.16 0-0.352 0.032-0.512 0-0.256 0-0.544 0-0.8 0-0.224 0-0.448 0-0.672 0-0.192-0.032-0.352-0.032-0.544v-0.032c-0.032-0.16-0.032-0.352-0.064-0.512-0.032-0.224-0.064-0.48-0.128-0.8-0.096-0.544-0.224-1.088-0.384-1.632-0.256-0.832-0.576-1.664-0.928-2.464-0.32-0.64-0.672-1.28-1.056-1.856-0.48-0.736-1.056-1.472-1.664-2.112-0.832-0.896-1.76-1.696-2.784-2.368-0.928-0.64-1.952-1.184-3.008-1.6-0.672-0.256-1.376-0.48-2.080-0.672-0.448-0.096-0.832-0.192-1.216-0.256-0.32-0.064-0.608-0.096-0.928-0.128-0.192-0.032-0.384-0.032-0.576-0.032h-0.16c-0.448-0.064-0.864-0.064-1.312-0.064-0.288 0-0.576 0-0.864 0.032-0.352 0.032-0.672 0.064-0.96 0.096-1.056 0.128-2.112 0.384-3.104 0.736-0.704 0.256-1.376 0.544-2.048 0.864-1.12 0.576-2.176 1.28-3.136 2.112-0.352 0.32-0.704 0.64-1.024 0.96-0.864 0.864-1.6 1.856-2.24 2.88-0.544 0.96-1.024 1.952-1.376 2.976-0.256 0.704-0.448 1.44-0.576 2.144-0.096 0.416-0.16 0.832-0.192 1.216-0.032 0.352-0.064 0.672-0.096 0.96v0.192c0 0.064 0 0.16 0 0.224s0 0.128-0.032 0.192c0 0.032 0 0.064 0 0.064v0.736c0 0.096 0 0.192 0.032 0.288l0.032 0.256c0 0.16 0.032 0.352 0.032 0.512-0.032 0.128-0.032 0.256 0 0.384zM17.856 4.288v-0.256l0.192-0.096c0.16-0.064 0.288-0.032 0.32-0.032h0.064c0.128 0.032 0.288 0.064 0.416 0.096 0.736 0.192 1.472 0.416 2.144 0.736 0.768 0.352 1.504 0.8 2.208 1.28 0.48 0.352 0.928 0.736 1.344 1.152 0.896 0.896 1.664 1.92 2.272 3.040 0.512 0.96 0.896 1.984 1.12 3.040 0.096 0.384 0.16 0.768 0.192 1.152 0.032 0.352 0.064 0.704 0.096 1.024 0 0.224 0 0.416 0 0.608 0 0.32-0.032 0.608-0.032 0.896-0.032 0.384-0.064 0.768-0.128 1.12-0.192 1.088-0.544 2.176-0.992 3.168-0.16 0.352-0.352 0.704-0.544 1.024-0.032 0.032-0.064 0.128-0.16 0.192l-0.224 0.16-0.224-0.128c-0.032 0-0.032-0.032-0.064-0.032l-7.296-7.136c-0.16-0.16-0.352-0.32-0.512-0.512-0.128-0.096-0.16-0.256-0.16-0.416 0-0.768 0-1.504 0-2.272v-7.712c-0.032-0.032-0.032-0.064-0.032-0.096zM17.824 20.48l0.032-0.096 0.16-0.416 0.384 0.256c0.032 0 0.064 0.032 0.096 0.064 0.064 0.064 0.128 0.096 0.16 0.16l4.672 4.736c0 0 0.032 0.032 0.032 0.032l0.16 0.192-0.096 0.256c-0.064 0.128-0.16 0.16-0.192 0.192l-0.16 0.096c-0.128 0.096-0.288 0.192-0.416 0.288-0.736 0.48-1.504 0.864-2.4 1.184-0.64 0.224-1.312 0.416-1.984 0.576-0.032 0-0.064 0-0.096 0h-0.096l-0.16-0.064-0.096-0.192v-0.096c0-2.368 0-4.736 0-7.072v-0.096zM14.176 20.608c0 0.032 0 0.064 0 0.096l-0.064 6.976c0 0.032 0 0.032 0 0.064l-0.032 0.224-0.192 0.128c-0.064 0.032-0.128 0.032-0.192 0.032s-0.096 0-0.128 0c-0.48-0.096-0.928-0.192-1.344-0.352-0.544-0.16-1.056-0.384-1.568-0.608-0.704-0.352-1.408-0.736-2.048-1.216-0.032-0.032-0.032-0.032-0.064-0.064l-0.064-0.032-0.128-0.224 0.096-0.224 5.056-5.056 0.096-0.032 0.384-0.192 0.128 0.416c0.032-0.064 0.064 0 0.064 0.064zM3.744 14.272c0.16-1.248 0.544-2.432 1.056-3.584 0.512-1.056 1.152-2.048 1.92-2.912 0.8-0.896 1.696-1.664 2.688-2.272s2.048-1.088 3.136-1.376c0.256-0.064 0.896-0.256 1.152-0.256 0 0 0 0 0 0h0.288l0.064 0.288c0 0.032 0.032 0.064 0.032 0.128s0 0.096 0 0.128v2.496c0 1.056 0 2.080 0 3.136 0 0.8 0 1.6 0 2.368 0 0.608 0 1.248 0 1.856v0.032c0 0.16-0.032 0.256-0.16 0.384l-0.032 0.032c-0.32 0.32-0.608 0.608-0.928 0.896l-6.848 6.88c0 0-0.032 0.032-0.064 0.032l-0.288 0.224-0.256-0.256c-0.192-0.224-0.64-1.12-0.864-1.6-0.448-1.024-0.736-2.080-0.896-3.168-0.16-1.12-0.16-2.304 0-3.456zM23.072 25.568v0 0z"></path>
</svg>
