<!-- Generated by IcoMoon.io -->
<svg version="1.1" xmlns="http://www.w3.org/2000/svg" width="32" height="32" viewBox="0 0 32 32">
<title>curse</title>
<path d="M26.5 21.25c-1-3-2.625-3.813-2.625-3.813 0.813 1.125 1 2.813 0.438 4.125-0.5 1-2.188 2.375-3.063 1-0.313-0.438-0.313-0.938-0.25-1.5 0.125-0.438 0.188-0.938 0.438-1.438 0.25-0.438 0.563-0.938 0.875-1.313 0.375-0.563 0.625-1.188 0.75-1.875 0.125-0.563 0.063-1.75-0.5-2.125 0.188 0.688-0.313 1.375-0.875 1.688-0.125 0.063-0.188 0.063-0.25 0.125-0.188 0-0.375 0-0.5 0-0.438-0.063-0.938-0.438-1.125-0.875-0.313-0.688-0.125-1.5 0.438-2.063 0.438-0.438 1-0.563 1.625-0.313-0.313-1.75-1.5-2.875-2.375-4.188-1.188-1.688-1.75-3.688-1-5.563 0 0 0-0.063 0-0.125 0.75-1.625 2.688-2.75 4.5-3.063-0.125 0-0.188 0-0.313 0-3 0-5.5 1.625-5.5 1.625-4.313 2.938-1.438 7.188-1.063 7.813s0.125 1.875-1.125 1.938c-1.813 0.125-2.188-2.75-2.188-2.75-1.313 1.438-1 3.938 1.063 5.688 1.313 1.125 1.313 2.75 0.875 4.25-0.25 0.813-0.688 1.563-1.313 2.063-1.5 1.063-3.313 0.313-4.188-1.063-1.438-2.313 0.063-4.5 0.063-4.5-2.188 0.875-3.375 2.125-3.813 3.563 0 0 0 0.063-0.063 0.063 0 0.188-0.063 0.438-0.125 0.563s-0.063 0.25-0.063 0.375c0 0.063-0.063 0.125-0.063 0.25-0.125 1.438 0 3.938 2.188 6 3.188 3 5.625 2.813 6.938 3.125 1.313 0.375 2.563 1.125 3.438 3.125 0 0 0.563-1.125 1.375-1.688 1.25-0.875 3.25-0.875 5.063-2.063s3.313-4.25 2.313-7.063z"></path>
</svg>
