<!-- Generated by IcoMoon.io -->
<svg version="1.1" xmlns="http://www.w3.org/2000/svg" width="32" height="32" viewBox="0 0 32 32">
<title>debian</title>
<path d="M18.496 16.896c-0.544 0 0.096 0.288 0.8 0.384 0.192-0.16 0.352-0.288 0.512-0.448-0.416 0.128-0.864 0.128-1.312 0.064zM21.344 16.192c0.32-0.448 0.544-0.928 0.64-1.408-0.064 0.352-0.256 0.64-0.448 0.96-0.992 0.64-0.096-0.384 0-0.736-1.088 1.344-0.16 0.8-0.192 1.184zM22.4 13.472c0.064-0.96-0.192-0.64-0.288-0.288 0.096 0.032 0.192 0.672 0.288 0.288zM16.48 0.416c0.288 0.064 0.608 0.096 0.576 0.16 0.32-0.064 0.384-0.128-0.576-0.16zM17.056 0.576v0zM25.888 13.824c0.032 0.864-0.256 1.28-0.512 2.016l-0.448 0.224c-0.384 0.736 0.032 0.448-0.224 1.056-0.576 0.512-1.792 1.632-2.144 1.728-0.288 0 0.192-0.32 0.256-0.448-0.768 0.544-0.64 0.8-1.824 1.12l-0.032-0.064c-2.944 1.376-7.072-1.376-7.008-5.12-0.032 0.224-0.096 0.192-0.16 0.288-0.16-1.92 0.896-3.872 2.656-4.672 1.728-0.864 3.744-0.512 4.992 0.64-0.672-0.896-2.016-1.824-3.648-1.728-1.568 0.032-3.040 1.024-3.52 2.112-0.8 0.512-0.896 1.952-1.248 2.208-0.48 3.456 0.896 4.96 3.168 6.72 0.352 0.256 0.096 0.288 0.16 0.48-0.768-0.352-1.472-0.896-2.048-1.568 0.32 0.448 0.64 0.864 1.056 1.216-0.704-0.256-1.696-1.728-1.952-1.792 1.248 2.208 5.024 3.904 7.008 3.072-0.928 0.032-2.080 0.032-3.104-0.352-0.448-0.224-1.024-0.672-0.928-0.768 2.72 1.024 5.504 0.768 7.84-1.12 0.608-0.48 1.248-1.248 1.44-1.28-0.288 0.416 0.064 0.192-0.16 0.576 0.608-0.96-0.256-0.384 0.608-1.664l0.32 0.448c-0.128-0.832 0.96-1.792 0.864-3.072 0.256-0.384 0.288 0.416 0 1.312 0.384-0.992 0.096-1.152 0.192-1.952 0.096 0.288 0.256 0.576 0.32 0.864-0.256-0.96 0.256-1.6 0.384-2.144-0.128-0.064-0.384 0.416-0.448-0.704 0-0.48 0.128-0.256 0.192-0.384-0.096-0.064-0.352-0.416-0.512-1.152 0.096-0.16 0.288 0.448 0.448 0.448-0.096-0.576-0.256-0.992-0.256-1.44-0.448-0.928-0.16 0.128-0.512-0.384-0.48-1.472 0.384-0.352 0.448-0.992 0.704 1.024 1.12 2.624 1.312 3.296-0.128-0.8-0.384-1.568-0.64-2.336 0.224 0.096-0.352-1.664 0.288-0.512-0.672-2.464-2.88-4.768-4.896-5.856 0.256 0.224 0.544 0.512 0.448 0.544-0.992-0.608-0.832-0.64-0.96-0.896-0.832-0.32-0.864 0.032-1.408 0-1.536-0.832-1.856-0.736-3.264-1.248l0.064 0.288c-1.024-0.352-1.184 0.128-2.304 0-0.064-0.064 0.352-0.192 0.704-0.256-0.992 0.128-0.928-0.192-1.92 0.032 0.224-0.16 0.48-0.288 0.736-0.416-0.8 0.064-1.92 0.48-1.568 0.096-1.344 0.608-3.68 1.44-4.992 2.656l-0.032-0.288c-0.608 0.736-2.624 2.144-2.784 3.072l-0.16 0.032c-0.32 0.544-0.512 1.12-0.768 1.664-0.416 0.704-0.608 0.256-0.544 0.384-0.8 1.632-1.216 3.008-1.536 4.128 0.256 0.352 0 2.208 0.096 3.68-0.416 7.296 5.12 14.368 11.136 16 0.896 0.32 2.208 0.32 3.328 0.352-1.312-0.384-1.504-0.192-2.784-0.64-0.928-0.448-1.12-0.928-1.792-1.504l0.256 0.448c-1.28-0.448-0.736-0.576-1.792-0.896l0.288-0.352c-0.416-0.032-1.12-0.704-1.28-1.088l-0.448 0.032c-0.544-0.672-0.832-1.152-0.832-1.536l-0.16 0.256c-0.16-0.288-2.016-2.528-1.056-2.016-0.192-0.16-0.416-0.256-0.672-0.736l0.192-0.224c-0.448-0.608-0.864-1.344-0.832-1.6 0.256 0.32 0.416 0.384 0.576 0.448-1.152-2.912-1.248-0.16-2.112-2.944h0.192c-0.128-0.224-0.224-0.448-0.352-0.672l0.096-0.8c-0.832-0.96-0.224-4.128-0.128-5.856 0.096-0.704 0.704-1.44 1.184-2.624l-0.288-0.064c0.544-0.96 3.136-3.84 4.32-3.68 0.576-0.736-0.128 0-0.224-0.192 1.28-1.312 1.664-0.928 2.528-1.152 0.928-0.544-0.8 0.224-0.352-0.224 1.6-0.416 1.12-0.928 3.232-1.12 0.224 0.128-0.512 0.192-0.704 0.352 1.344-0.64 4.224-0.512 6.080 0.352 2.176 1.024 4.608 4 4.704 6.848l0.096 0.032c-0.064 1.12 0.16 2.432-0.224 3.616l0.288-0.608zM12.704 17.632l-0.064 0.384c0.352 0.48 0.64 0.992 1.056 1.344-0.32-0.608-0.544-0.896-0.992-1.728zM13.536 17.6c-0.192-0.192-0.288-0.448-0.416-0.704 0.128 0.416 0.352 0.8 0.576 1.184l-0.16-0.48zM28.096 14.432l-0.064 0.192c-0.128 1.024-0.448 2.016-0.928 2.944 0.512-0.96 0.864-2.048 0.992-3.136zM16.576 0.16c0.384-0.128 0.896-0.064 1.28-0.16-0.48 0.032-0.992 0.064-1.472 0.128l0.192 0.032zM4 6.848c0.096 0.768-0.576 1.056 0.16 0.544 0.384-0.864-0.16-0.224-0.16-0.544zM3.168 10.4c0.16-0.512 0.192-0.832 0.256-1.12-0.48 0.576-0.224 0.704-0.256 1.12z"></path>
</svg>
