<!-- Generated by IcoMoon.io -->
<svg version="1.1" xmlns="http://www.w3.org/2000/svg" width="32" height="32" viewBox="0 0 32 32">
<title>dlive</title>
<path d="M13.984 12.224c-0.576 0.128-1.056 0.576-1.28 1.12-0.128 0.288-0.16 0.64-0.096 0.928 0 1.024 0.832 1.824 1.856 1.824s1.856-0.832 1.856-1.856c0-0.128 0-0.224-0.032-0.352-0.064-1.088-1.248-1.952-2.304-1.664zM22.24 12.256c-0.576 0.192-1.024 0.704-1.152 1.28-0.096 0.352-0.064 0.704 0.032 1.024 0.16 0.864 0.928 1.504 1.824 1.504 1.024 0 1.856-0.832 1.856-1.856 0-0.224-0.032-0.448-0.128-0.672-0.256-0.96-1.44-1.664-2.432-1.28zM25.184 2.688h-12.992c-3.616 0-6.624 2.88-6.816 6.464 0 0.032 0 0.064 0 0.096-1.056-1.248-2.4-2.176-3.776-3.008 0 0.032 0 0.032-0.032 0.064 0 0-0.032 0-0.032 0-0.032 0-0.064 0.032-0.064 0.064-0.352 1.184-0.832 2.368-1.472 3.456 0 0.032 0 0.064 0 0.096 0 0 0 0 0 0s0 0 0 0c0 0.032 0.032 0.064 0.064 0.064 0.096 0 0.224 0.032 0.32 0.032 1.536 0.32 3.136 0.48 4.544 1.184-1.504 0.576-3.104 0.864-4.672 1.12-0.064 0-0.128 0.032-0.192 0.032-0.032 0-0.032 0-0.064 0.032 0 0-0.032 0-0.032 0s0 0 0 0.032c0 0 0 0 0 0 0 0.032 0 0.064 0 0.096 0.672 1.12 1.152 2.272 1.536 3.488 0 0.032 0.032 0.064 0.064 0.064 0 0 0.032 0 0.032 0s0 0.032 0 0.032c1.376-0.8 2.688-1.76 3.776-2.944v9.344c0 3.744 3.072 6.816 6.816 6.816h13.024c3.744 0 6.816-3.072 6.816-6.816v-13.024c-0.032-3.744-3.104-6.784-6.848-6.784zM11.584 7.776h14.016c2.336 0 4.256 1.824 4.384 4.128 0 0.064 0 0.128 0 0.192 0 1.376 0 2.784 0 4.16-0.064 1.664-1.152 3.2-2.688 3.84-1.984 0.8-4.256 0.032-5.888-1.216-0.672-0.64-1.376-1.312-2.336-1.44-1.056-0.224-2.048 0.352-2.752 1.056-1.312 1.216-3.072 1.984-4.864 1.888-1.696 0.032-3.328-1.184-3.904-2.784-0.448-1.152-0.224-2.4-0.288-3.584 0.032-1.152-0.128-2.336 0.256-3.456 0.032-0.064 0.064-0.128 0.064-0.192 0.704-1.536 2.208-2.592 4-2.592zM20.928 11.936c0.032 0 0.032 0 0.064 0l4.032-0.416c0.352-0.032 0.576-0.352 0.544-0.672 0-0.096-0.064-0.224-0.128-0.288-0.032-0.192-0.16-0.384-0.352-0.448-0.48-0.064-0.96 0.032-1.44 0.064-1.024 0.128-2.080 0.16-3.104 0.352-0.384 0.128-0.448 0.608-0.256 0.896 0.096 0.288 0.32 0.512 0.64 0.512zM11.936 11.296c0.096 0.128 0.256 0.224 0.416 0.224l4.032 0.416c0.032 0 0.032 0 0.064 0 0.128 0 0.288-0.064 0.384-0.128 0.128-0.096 0.192-0.256 0.224-0.416 0-0.096 0-0.192-0.032-0.288 0-0.256-0.128-0.512-0.448-0.576-1.184-0.16-2.368-0.224-3.552-0.384-0.32 0-0.672-0.096-0.96 0-0.256 0.128-0.352 0.448-0.288 0.704 0 0.16 0.064 0.32 0.16 0.448z"></path>
</svg>
