<!-- Generated by IcoMoon.io -->
<svg version="1.1" xmlns="http://www.w3.org/2000/svg" width="32" height="32" viewBox="0 0 32 32">
<title>etsy</title>
<path d="M3.5 1.25c-0.063-0.438 0.125-0.75 0.75-0.75 0.563 0 6.625 0.188 10.688 0.188 8.375 0 10.438-0.688 11.875-0.688 0.75 0.063 0.938 0.625 0.938 1s-0.375 1.125-0.375 2.125c0 1 0.25 2 0.25 2.938 0 0.875-0.75 1.125-1.188 1.125-0.375 0-0.625-0.125-0.625-0.875-0.063-1.438 1-3.5-9.25-3.5-5.188 0-5.313 0.625-5.313 2.25 0 1.688 0 7.125 0 7.938 0 0.875 0.25 1.125 0.938 1.125s6 0 7.438 0c1.438 0 2.938-0.75 3.125-2.813 0.063-1.063 0.313-1.125 0.875-1.125s1 0.438 0.938 1.438c-0.125 1.063-0.313 2.125-0.313 3.563 0 1.5 0.313 2.938 0.313 4s-1.438 1.313-1.688 0.125c-0.25-1.063-0.688-3-3.938-3s-5.875 0-6.625 0c-0.75 0-1.063 0.438-1.063 1.625s0 7 0 8.438c0 1.5 0.438 3.063 3.375 3.063 3 0 8.375 0.313 10.875-1.625 1-0.813 1.375-2.063 1.688-4.063 0.188-0.875 2.188-0.875 2.063 1.25-0.063 1-1 3.063-1 4.438 0 1.063 0.25 2.625-0.75 2.625-0.875 0-0.5-0.5-4.375-0.5s-17.188 0.125-19.438 0.125c-0.813 0-1-0.25-1-0.75s0.313-0.875 1-0.875c0.688 0 3.688 0 3.688-3.75 0-3.813 0-17.625 0-19.688 0-2-0.438-4.063-2.938-4.313-1-0.125-0.938-0.5-0.938-1.063z"></path>
</svg>
