<!-- Generated by IcoMoon.io -->
<svg version="1.1" xmlns="http://www.w3.org/2000/svg" width="32" height="32" viewBox="0 0 32 32">
<title>filmfreeway</title>
<path d="M13.056 8.352c0.352-0.352 0.8-0.544 1.312-0.544h10.848v-7.264c0-0.384-0.32-0.64-0.704-0.544l-17.024 3.68c-0.384 0.064-0.672 0.416-0.704 0.8v23.104c0.032 0.352 0.32 0.704 0.704 0.8l16.992 3.68c0.384 0.096 0.704-0.16 0.704-0.544v-20.736h-9.088v3.712h6.848v1.184c0 0.512-0.192 0.928-0.544 1.28s-0.8 0.544-1.312 0.544h-4.992v7.648h-3.584v-15.52c0-0.48 0.192-0.928 0.544-1.28z"></path>
</svg>
