<!-- Generated by IcoMoon.io -->
<svg version="1.1" xmlns="http://www.w3.org/2000/svg" width="32" height="32" viewBox="0 0 32 32">
<title>fiverr</title>
<path d="M27.808 18.144c0-2.656 0-5.28 0-7.936 0-0.416-0.096-0.512-0.512-0.512-4.896 0-9.792 0-14.688 0-0.416 0-0.992 0.192-1.248-0.096-0.224-0.256-0.064-0.8-0.064-1.216 0-1.376 0.896-2.272 2.272-2.272 0.704 0 1.44 0 2.144 0 0.288 0 0.416-0.064 0.416-0.384-0.032-1.568-0.032-3.168 0-4.736 0-0.352-0.128-0.416-0.416-0.416-1.312 0.032-2.624 0-3.936 0.032-1.6 0.032-3.072 0.448-4.416 1.28-2.112 1.344-3.392 3.168-3.264 5.792 0.032 0.544 0 1.088 0 1.664 0 0.288-0.096 0.384-0.384 0.384-0.768 0-1.536 0-2.304 0-0.352 0-0.448 0.128-0.448 0.448 0.032 1.44 0.032 2.848 0 4.288 0 0.352 0.128 0.448 0.48 0.448 0.736-0.032 1.504 0 2.24 0 0.32 0 0.416 0.096 0.416 0.416-0.032 3.616-0.032 7.264-0.032 10.88 0 0.384-0.128 0.448-0.48 0.448-0.736-0.032-1.472 0-2.208 0-0.352 0-0.448 0.128-0.448 0.448 0 1.504 0.032 3.008 0 4.48 0 0.352 0.096 0.448 0.448 0.448 4.192 0 8.352 0 12.544 0 0.32 0 0.448-0.064 0.448-0.416-0.032-1.504-0.032-3.008 0-4.48 0-0.352-0.128-0.448-0.448-0.448-0.736 0.032-1.504 0-2.24 0-0.288 0-0.416-0.096-0.416-0.384 0-3.68 0-7.36 0-11.040 0-0.288 0.096-0.352 0.384-0.352 2.848 0 5.728 0 8.576 0 0.32 0 0.384 0.128 0.384 0.416 0 3.648 0 7.328 0 10.976 0 0.288-0.096 0.416-0.416 0.416-0.736-0.032-1.504 0-2.24 0-0.32 0-0.416 0.096-0.384 0.416 0 1.504 0 3.040 0 4.544 0 0.32 0.096 0.384 0.384 0.384 4.224 0 8.416 0 12.64 0 0.288 0 0.352-0.096 0.352-0.384 0-1.536 0-3.072 0-4.608 0-0.288-0.064-0.384-0.352-0.384-0.704 0-1.408 0-2.112 0-0.864 0-0.736 0.064-0.736-0.704 0.064-2.624 0.064-5.216 0.064-7.84zM20.704 3.584c0 1.952 1.568 3.488 3.52 3.488s3.52-1.568 3.52-3.52c0.032-1.984-1.536-3.552-3.52-3.552s-3.52 1.568-3.52 3.584z"></path>
</svg>
