<!-- Generated by IcoMoon.io -->
<svg version="1.1" xmlns="http://www.w3.org/2000/svg" width="32" height="32" viewBox="0 0 32 32">
<title>gamewisp</title>
<path d="M25.344 25.408c-0.256-0.352-0.608-0.608-0.96-0.832-0.096-0.032-0.096-0.064-0.032-0.16 0.352-0.352 0.672-0.704 0.96-1.088 0.832-1.056 1.472-2.208 1.888-3.488 0.032-0.096 0.064-0.128 0.16-0.064 0.224 0.128 0.448 0.256 0.704 0.352 0.384 0.128 0.736 0.224 1.152 0.128 0.672-0.128 1.152-0.512 1.472-1.088 0.224-0.384 0.32-0.8 0.256-1.248-0.096-0.64-0.448-1.12-0.928-1.536-0.352-0.288-0.736-0.448-1.216-0.416-0.256 0.032-0.544 0.064-0.8 0.128-0.16 0.096-0.16 0.096-0.16-0.096 0-0.608-0.064-1.248-0.16-1.856-0.192-1.152-0.544-2.272-1.056-3.328-0.064-0.096-0.032-0.128 0.064-0.16 0.288-0.096 0.544-0.224 0.832-0.352 0.384-0.224 0.704-0.48 0.928-0.896 0.224-0.48 0.256-0.992 0.128-1.504-0.128-0.48-0.352-0.896-0.8-1.152-0.288-0.192-0.608-0.288-0.928-0.352-0.544-0.128-1.056-0.032-1.536 0.32-0.32 0.256-0.576 0.544-0.8 0.896-0.064 0.064-0.064 0.096-0.16 0.032-0.192-0.192-0.384-0.352-0.576-0.544-0.48-0.448-1.024-0.832-1.568-1.184-0.768-0.48-1.568-0.896-2.432-1.184-0.096-0.032-0.096-0.064-0.064-0.128 0.096-0.16 0.192-0.32 0.256-0.512 0.16-0.384 0.256-0.8 0.192-1.216-0.128-0.64-0.448-1.12-0.992-1.472-0.384-0.256-0.8-0.352-1.248-0.32-0.384 0.032-0.736 0.16-1.088 0.384-0.448 0.288-0.768 0.672-0.896 1.216-0.096 0.416-0.096 0.864 0 1.28 0.032 0.096 0 0.128-0.096 0.128-0.384 0-0.768 0.032-1.152 0.064-0.832 0.064-1.632 0.256-2.432 0.512-0.544 0.16-1.088 0.384-1.632 0.64-0.096 0.032-0.128 0.032-0.16-0.064-0.032-0.192-0.096-0.352-0.192-0.512-0.192-0.448-0.448-0.832-0.864-1.056-0.576-0.32-1.216-0.384-1.824-0.16-0.704 0.224-1.12 0.768-1.344 1.472-0.192 0.672-0.096 1.28 0.352 1.824 0.224 0.288 0.48 0.512 0.8 0.704 0.096 0.064 0.096 0.096 0.032 0.16-0.16 0.128-0.288 0.288-0.416 0.448-0.672 0.736-1.216 1.536-1.696 2.432-0.288 0.544-0.544 1.12-0.736 1.696-0.032 0.096-0.096 0.128-0.16 0.064-0.096-0.064-0.224-0.128-0.352-0.16-0.32-0.128-0.672-0.256-1.024-0.256-0.896-0.032-1.792 0.64-2.016 1.536-0.192 0.672-0.064 1.28 0.352 1.856 0.32 0.48 0.768 0.736 1.344 0.832 0.352 0.064 0.704 0.032 1.056-0.032 0.096-0.032 0.128 0 0.16 0.096 0.064 0.48 0.128 0.96 0.192 1.408 0.128 0.896 0.32 1.76 0.64 2.592 0.16 0.384 0.288 0.8 0.416 1.216 0.032 0.096 0 0.128-0.096 0.16-0.064 0-0.16 0.032-0.224 0.064-0.512 0.16-0.96 0.416-1.28 0.896-0.256 0.384-0.32 0.8-0.32 1.344 0 0.512 0.16 0.992 0.608 1.376 0.352 0.32 0.8 0.48 1.28 0.576s0.928 0 1.312-0.256c0.352-0.256 0.64-0.576 0.896-0.928 0.096-0.16 0.096-0.16 0.224-0.032 0.32 0.32 0.704 0.608 1.056 0.896 0.64 0.48 1.312 0.896 2.048 1.28 0.48 0.224 0.928 0.448 1.44 0.608 0.096 0.032 0.128 0.064 0.064 0.16s-0.128 0.224-0.192 0.352c-0.16 0.352-0.288 0.736-0.288 1.12 0 0.8 0.384 1.376 1.024 1.792 0.416 0.256 0.864 0.352 1.312 0.288 0.416-0.064 0.768-0.224 1.088-0.448 0.256-0.192 0.448-0.416 0.576-0.704 0.16-0.384 0.192-0.8 0.192-1.216 0-0.192-0.032-0.384-0.064-0.608 0-0.064 0.032-0.096 0.096-0.096 0.288-0.032 0.608-0.064 0.896-0.096 0.992-0.096 1.984-0.288 2.944-0.64 0.48-0.16 0.96-0.32 1.408-0.48 0.096-0.032 0.128-0.032 0.128 0.064 0 0.064 0.032 0.128 0.032 0.192 0.128 0.512 0.384 0.96 0.8 1.28 0.448 0.352 0.96 0.416 1.472 0.448 0.384 0.032 0.736-0.128 1.056-0.352 0.512-0.352 0.8-0.864 0.928-1.472 0.192-0.608 0.096-1.088-0.256-1.568zM15.904 25.344c-4.928 0-9.376-4.192-9.312-9.344-0.064-5.088 4.192-9.408 9.344-9.376 5.12 0.032 9.376 4.256 9.344 9.344-0.032 5.184-4.192 9.376-9.376 9.376zM27.968 21.888c-0.864-0.032-1.6 0.704-1.632 1.568 0 0.928 0.768 1.664 1.6 1.632 0.864 0 1.6-0.704 1.632-1.568 0-0.896-0.704-1.632-1.6-1.632zM8.48 26.4c-0.832-0.032-1.6 0.64-1.6 1.6s0.768 1.6 1.568 1.6c0.896 0 1.632-0.672 1.632-1.632 0.032-0.896-0.704-1.568-1.6-1.568zM23.424 5.696c0.864 0 1.6-0.736 1.6-1.6s-0.736-1.6-1.6-1.6c-0.864 0-1.6 0.672-1.6 1.6-0.032 0.864 0.704 1.6 1.6 1.6zM12.704 3.904c0.832 0 1.632-0.704 1.6-1.568 0-0.928-0.672-1.632-1.568-1.632s-1.632 0.704-1.632 1.6c0 0.896 0.704 1.568 1.6 1.6zM28.096 12.8c0 0.896 0.64 1.632 1.6 1.664 0.864 0 1.6-0.736 1.6-1.6 0-0.928-0.768-1.6-1.6-1.568-0.832-0.096-1.6 0.608-1.6 1.504zM3.872 19.296c0-0.928-0.672-1.6-1.6-1.6-0.896 0-1.6 0.704-1.6 1.6s0.704 1.6 1.568 1.6c0.896 0 1.632-0.736 1.632-1.6zM19.2 28.128c-0.896 0-1.632 0.736-1.6 1.6-0.032 0.832 0.672 1.632 1.6 1.6 0.864 0 1.6-0.736 1.6-1.6s-0.736-1.6-1.6-1.6zM4.032 10.176c0.896 0 1.6-0.704 1.6-1.6 0.032-0.8-0.64-1.6-1.568-1.6-0.96 0-1.632 0.768-1.632 1.6 0 0.864 0.736 1.6 1.6 1.6zM30.912 24.544c-0.576 0-1.088 0.48-1.088 1.088 0 0.576 0.512 1.088 1.088 1.088 0.608 0 1.088-0.48 1.088-1.088s-0.512-1.088-1.088-1.088zM3.104 4.608c0 0.768 0.48 1.184 1.056 1.184 0.608 0 1.056-0.48 1.088-1.088 0-0.576-0.48-1.088-1.088-1.088-0.544 0.032-1.056 0.48-1.056 0.992zM22.912 29.248c-0.608 0-1.12 0.48-1.088 1.056 0 0.544 0.448 1.056 1.12 1.088 0.544 0 1.024-0.48 1.024-1.056-0.032-0.576-0.48-1.088-1.056-1.088zM28.864 27.328c0-0.608-0.448-1.024-1.056-1.024-0.576-0.032-1.088 0.48-1.088 1.024 0 0.576 0.512 1.12 1.024 1.088 0.608 0 1.152-0.448 1.12-1.088zM2.144 6.528c0-0.576-0.512-1.12-1.056-1.12-0.576 0-1.056 0.48-1.056 1.056s0.48 1.088 1.056 1.088c0.544 0 1.056-0.48 1.056-1.024zM26.24 29.28c-0.64 0-1.088 0.48-1.088 1.024 0 0.608 0.48 1.12 1.056 1.12s1.088-0.48 1.088-1.056c0-0.576-0.48-1.088-1.056-1.088zM31.456 21.728c0-0.576-0.448-1.056-1.024-1.056-0.608 0-1.088 0.48-1.088 1.088s0.448 1.056 1.056 1.056c0.608-0.032 1.056-0.512 1.056-1.088zM1.44 11.456c0.576 0 1.056-0.544 1.056-1.12 0-0.544-0.512-1.024-1.024-1.024-0.608 0-1.088 0.48-1.088 1.024 0 0.608 0.48 1.12 1.056 1.12zM8.96 2.688c0.608 0 1.088-0.448 1.088-1.024s-0.48-1.056-1.056-1.056c-0.576 0-1.056 0.448-1.056 0.992 0 0.64 0.448 1.088 1.024 1.088zM5.728 2.816c0.576 0 1.024-0.448 1.024-1.056 0-0.576-0.448-1.056-1.056-1.056-0.576 0-1.088 0.48-1.056 1.056s0.512 1.056 1.088 1.056zM30.88 29.792c-0.288 0-0.544 0.256-0.544 0.544s0.256 0.544 0.576 0.544c0.288 0 0.512-0.224 0.512-0.544-0.032-0.32-0.256-0.544-0.544-0.544zM30.944 28.96c0.256 0 0.48-0.256 0.48-0.544 0-0.32-0.224-0.544-0.512-0.544s-0.544 0.224-0.544 0.512c-0.032 0.288 0.256 0.576 0.576 0.576zM28.864 29.824c-0.288 0-0.544 0.256-0.544 0.544s0.288 0.544 0.608 0.544c0.256 0 0.48-0.256 0.48-0.544 0-0.32-0.256-0.544-0.544-0.544zM1.056 4.224c0.288 0 0.512-0.224 0.512-0.512 0-0.256-0.224-0.544-0.512-0.512-0.288 0-0.544 0.224-0.544 0.512 0.032 0.256 0.256 0.512 0.544 0.512zM1.056 2.272c0.288 0 0.512-0.224 0.512-0.512s-0.224-0.512-0.512-0.512c-0.288 0-0.544 0.256-0.544 0.512 0.032 0.288 0.256 0.512 0.544 0.512zM3.104 2.272c0.288 0 0.512-0.224 0.512-0.512s-0.224-0.512-0.512-0.512c-0.256 0-0.512 0.256-0.512 0.512 0 0.288 0.224 0.512 0.512 0.512z"></path>
</svg>
