<!-- Generated by IcoMoon.io -->
<svg version="1.1" xmlns="http://www.w3.org/2000/svg" width="32" height="32" viewBox="0 0 32 32">
<title>gamefor</title>
<path d="M8.19 0c-4.795 0-7.327 2.856-7.327 7.866v16.269c0 5.010 2.478 7.812 7.327 7.865 4.795 0 7.327-2.855 7.327-7.865v-8.835c0-0.647-0.485-1.132-1.132-1.132h-4.634c-0.592 0-1.077 0.485-1.238 1.185v2.21c0 0.647 0.485 1.13 1.13 1.13 0.647 0 1.132 0.485 1.132 1.132v4.633c0 2.262-0.97 3.070-2.532 3.070s-2.532-0.861-2.532-3.070v-16.861c0-2.263 1.023-2.587 2.587-2.587 1.562 0 2.532 0.378 2.532 2.587v2.208c0 0.647 0.485 1.132 1.13 1.132h2.425c0.647 0 1.132-0.485 1.132-1.132v-1.939c0-5.011-2.478-7.866-7.326-7.866zM29.466 0.251h-10.020c-0.701 0-1.24 0.593-1.24 1.293v28.283c0 0.916 0.755 1.67 1.67 1.67h1.509c0.916 0 1.67-0.754 1.67-1.67v-9.535c0-0.917 0.754-1.67 1.67-1.67h2.909c0.916 0 1.67-0.755 1.67-1.672v-1.077c0-0.915-0.754-1.67-1.67-1.67h-2.909c-0.969 0-1.724-0.808-1.616-1.832v-6.033c0-0.916 0.755-1.67 1.67-1.67h4.687c0.915 0 1.67-0.754 1.67-1.67v-1.077c-0-0.916-0.756-1.67-1.67-1.67z"></path>
</svg>
