<!-- Generated by IcoMoon.io -->
<svg version="1.1" xmlns="http://www.w3.org/2000/svg" width="32" height="32" viewBox="0 0 32 32">
<title>ghost</title>
<path d="M1.6 25.6h9.632c0.832 0 1.504 0.672 1.504 1.504v3.392c0 0.832-0.672 1.504-1.504 1.504h-9.632c-0.832 0-1.504-0.672-1.504-1.504v-3.392c0-0.832 0.672-1.504 1.504-1.504zM20.608 25.6h9.632c0.832 0 1.504 0.672 1.504 1.504v3.392c0 0.832-0.672 1.504-1.504 1.504h-9.632c-0.832 0-1.504-0.672-1.504-1.504v-3.392c0-0.832 0.672-1.504 1.504-1.504zM1.6 12.8h28.64c0.832 0 1.504 0.672 1.504 1.504v3.392c0 0.832-0.672 1.504-1.504 1.504h-28.64c-0.832 0-1.504-0.672-1.504-1.504v-3.392c0-0.832 0.672-1.504 1.504-1.504zM1.6 0h16c0.832 0 1.504 0.672 1.504 1.504v3.392c0 0.832-0.672 1.504-1.504 1.504h-16c-0.832 0-1.504-0.672-1.504-1.504v-3.392c0-0.832 0.672-1.504 1.504-1.504zM26.912 0h3.328c0.832 0 1.504 0.672 1.504 1.504v3.392c0 0.832-0.672 1.504-1.504 1.504h-3.328c-0.832 0-1.504-0.672-1.504-1.504v-3.392c0-0.832 0.672-1.504 1.504-1.504z"></path>
</svg>
