<!-- Generated by IcoMoon.io -->
<svg version="1.1" xmlns="http://www.w3.org/2000/svg" width="32" height="32" viewBox="0 0 32 32">
<title>gnome</title>
<path d="M26.26 0.021c-6.661 0-7.872 9.486-4.138 9.486s10.798-9.486 4.138-9.486zM15.26 8.296c2.018 0.101 4.138-7.569 0.404-7.165-3.734 0.505-2.422 7.064-0.404 7.165zM6.076 13.14c1.413-0.605 0.202-6.761-2.22-5.046-2.422 1.615 0.807 5.651 2.22 5.046zM10.113 9.911c1.615-0.303 1.716-7.266-1.312-6.055-2.927 1.312-0.404 6.358 1.312 6.055v0zM18.893 25.452c0.303 2.321-1.716 3.431-3.633 1.917-6.156-4.743 10.193-7.064 9.083-13.422-0.807-5.349-17.156-3.734-19.073 4.642-1.211 5.651 5.147 13.422 11.908 13.422 3.33 0 7.165-3.028 7.872-6.761 0.505-2.927-6.358-1.716-6.156 0.202v0z"></path>
</svg>
