<!-- Generated by IcoMoon.io -->
<svg version="1.1" xmlns="http://www.w3.org/2000/svg" width="32" height="32" viewBox="0 0 32 32">
<title>googlecalendar</title>
<path d="M27.040 8.032c0.896 0 1.824 0 2.72 0 0.224-1.632 0.448-3.264 0.64-4.896 0-0.096 0-0.192 0-0.288-0.032-0.384-0.32-0.704-0.672-0.8 0-0.352 0-0.672 0-1.024 0-0.16-0.032-0.32-0.096-0.448-0.128-0.352-0.512-0.576-0.896-0.576-3.52 0-7.040 0-10.56 0-0.16 0-0.352 0-0.512 0.064-0.352 0.16-0.608 0.512-0.608 0.928 0 0.352 0 0.704 0 1.056-0.32 0.128-0.576 0.384-0.64 0.736-0.032 0.16-0.032 0.32 0 0.448 0.224 1.6 0.448 3.2 0.64 4.768 1.248 0 2.496 0 3.776 0 0-0.128 0-0.224 0-0.352v0c0.384 0 0.768 0.032 1.12-0.128 0.288-0.128 0.512-0.416 0.544-0.704s0-0.64-0.16-0.864c-0.128-0.192-0.384-0.32-0.608-0.352-0.32-0.032-0.672 0-0.928 0.192s-0.416 0.512-0.384 0.832c-0.256 0-0.48 0-0.736 0 0-0.128 0-0.256 0.064-0.384 0.096-0.352 0.288-0.64 0.576-0.832 0.32-0.224 0.704-0.352 1.088-0.384 0.384 0 0.8 0.064 1.12 0.256 0.256 0.16 0.48 0.416 0.608 0.704s0.16 0.608 0.128 0.928c-0.064 0.48-0.448 0.896-0.896 1.088 0.064 0.032 0.128 0.032 0.192 0.064s0.096 0 0.16 0c1.056 0 2.112 0 3.168 0-0.096 0-0.224 0-0.32 0-0.896 0-1.76 0-2.656 0-0.096 0-0.16 0-0.256 0 0.192 0.096 0.352 0.224 0.48 0.384 0.224 0.288 0.32 0.64 0.288 0.992-0.032 0.384-0.16 0.736-0.384 1.024-0.256 0.32-0.672 0.48-1.056 0.544-0.416 0.064-0.832 0.032-1.216-0.128-0.32-0.128-0.576-0.32-0.768-0.608-0.16-0.256-0.256-0.576-0.256-0.864 0.224 0 0.48 0 0.704 0 0 0.128 0.032 0.224 0.064 0.352 0.064 0.256 0.288 0.48 0.512 0.576 0.32 0.128 0.672 0.16 1.024 0.032 0.256-0.064 0.512-0.288 0.608-0.544 0.096-0.288 0.128-0.608 0.032-0.896-0.096-0.256-0.288-0.48-0.544-0.576-0.384-0.16-0.8-0.096-1.184-0.128 0-0.064 0-0.16 0-0.224-1.248 0-2.496 0-3.744 0-0.096 1.504-0.192 3.040-0.32 4.544 0 0.224-0.064 0.48 0 0.704v0c0.096 0.32 0.352 0.608 0.672 0.704 0.128 0.032 0.288 0.032 0.448 0.032 3.648 0 7.328 0 10.976 0 0.192 0 0.384 0 0.544-0.032 0.32-0.096 0.576-0.352 0.672-0.672v0c0.064-0.192 0.032-0.352 0.032-0.544-0.096-1.568-0.224-3.136-0.32-4.736-0.928 0-1.888 0-2.816 0-0.096 0-0.224 0-0.32 0-0.032 0.032 0.096 0.032 0.256 0.032zM26.592 8.032v0c0 1.024 0 2.016 0 3.008-0.256 0-0.512 0-0.736 0 0-0.992 0-1.984 0-3.008v0c0-0.704 0-1.376 0-2.080-0.512 0.16-0.992 0.352-1.504 0.512 0-0.224 0-0.448 0-0.672 0.704-0.256 1.376-0.48 2.080-0.736 0.064-0.032 0.128-0.032 0.192-0.032-0.032 0.992-0.032 1.984-0.032 3.008zM28.928 16.608h-11.104c-0.256 0-0.672-0.032-1.12-0.16-0.96-0.288-1.76-0.992-2.176-1.888l-0.128-0.128-0.128-0.448c-0.16-0.608-0.128-1.12-0.096-1.376 0-0.032 0-0.064 0-0.064v-0.064c0.032-0.672 0.096-1.344 0.128-1.984 0.064-0.768 0.096-1.536 0.16-2.272-0.128-0.896-0.224-1.76-0.352-2.656l-0.192-1.344h-9.152c-1.76 0-3.2 1.44-3.2 3.2v21.376c0 1.76 1.44 3.2 3.2 3.2h21.504c1.76 0 3.2-1.44 3.2-3.2v-12.224c-0.16 0.032-0.32 0.032-0.448 0.032h-0.096zM10.016 29.056c-3.328 0-6.016-2.656-6.016-5.984s2.688-6.016 6.016-6.016c1.568 0 2.944 0.608 4 1.568l-1.696 1.696c-0.64-0.544-1.44-0.864-2.336-0.864-1.984 0-3.616 1.632-3.616 3.616s1.632 3.616 3.616 3.616c1.664 0 2.816-0.992 3.232-2.4h-3.2v-2.304h5.632c0.48 2.368-0.384 7.072-5.632 7.072z"></path>
</svg>
