<!-- Generated by IcoMoon.io -->
<svg version="1.1" xmlns="http://www.w3.org/2000/svg" width="32" height="32" viewBox="0 0 32 32">
<title>googlemaps</title>
<path d="M23.68 22.848l-2.080-2.080c-1.792-1.792-7.648-8.064-7.648-13.952 0-0.928 0.128-1.824 0.384-2.688h-9.408c-1.888 0-3.392 1.504-3.392 3.392v21.12c0 1.888 1.504 3.392 3.392 3.392h21.12c1.888 0 3.392-1.504 3.392-3.392v-12.128c-1.024 1.344-2.24 2.752-3.68 4.224l-2.080 2.112zM10.496 29.056c-3.328 0-6.016-2.656-6.016-5.984s2.688-6.016 6.016-6.016c1.568 0 2.944 0.608 4 1.568l-1.696 1.696c-0.64-0.544-1.44-0.864-2.336-0.864-1.984 0-3.616 1.632-3.616 3.616s1.632 3.616 3.616 3.616c1.664 0 2.816-0.992 3.232-2.4h-3.2v-2.304h5.632c0.48 2.368-0.384 7.072-5.632 7.072zM30.464 6.784c0-3.744-3.040-6.784-6.816-6.784s-6.784 3.040-6.784 6.784 3.552 8.672 6.784 11.872c3.872-3.904 6.816-8.096 6.816-11.872zM20.8 6.464c0-1.568 1.28-2.848 2.848-2.848s2.848 1.28 2.848 2.848c0 1.568-1.28 2.848-2.848 2.848s-2.848-1.28-2.848-2.848z"></path>
</svg>
