<!-- Generated by IcoMoon.io -->
<svg version="1.1" xmlns="http://www.w3.org/2000/svg" width="32" height="32" viewBox="0 0 32 32">
<title>guru</title>
<path d="M20.352 19.072c4.928 1.312 8.64 4.224 11.296 8.512-0.096 0.096-0.16 0.064-0.192 0.064-1.408 0-2.784 0-4.192 0-0.128 0-0.224-0.032-0.288-0.128-2.176-2.496-4.864-4.192-8.096-4.928-3.168-0.704-6.24-0.352-9.152 1.024-1.952 0.928-3.616 2.208-4.992 3.84-0.096 0.128-0.224 0.192-0.384 0.192-1.376 0-2.72 0-4.096 0-0.064 0-0.128 0-0.256 0 2.624-4.448 6.464-7.2 11.36-8.576 0-0.032-0.064-0.032-0.096-0.032-2.784-0.736-5.216-2.112-7.328-4.064-0.896-0.864-1.696-1.824-2.432-2.816-0.064-0.096-0.064-0.16 0-0.256 0.512-0.768 1.088-1.472 1.728-2.112 0.832-0.864 1.76-1.632 2.72-2.304 0.096-0.064 0.128-0.128 0.16-0.256 0.224-1.184 0.928-1.984 2.048-2.432 1.056-0.416 2.048-0.16 2.88 0.576 1.024 0.864 1.376 2.144 0.96 3.296-0.448 1.248-1.6 2.048-2.912 2.048-0.352 0-0.704-0.032-1.024-0.224-0.064-0.032-0.128-0.064-0.192 0-0.512 0.448-1.056 0.8-1.568 1.28-0.256 0.224-0.224 0.256 0 0.448 1.184 1.056 2.432 1.984 3.872 2.624 2.176 0.928 4.416 1.344 6.784 1.152 3.040-0.256 5.728-1.376 8.032-3.424 0.224-0.192 0.416-0.384 0.64-0.544 0.064-0.064 0.032-0.128 0.032-0.192 0-0.416 0-0.864 0.128-1.28 0.416-1.376 1.632-2.24 3.168-2.208 1.76 0.064 2.688 1.344 2.944 2.528 0.288 1.344-0.448 2.784-1.728 3.424-0.544 0.256-1.12 0.352-1.696 0.32 0 0 0 0-0.032 0-0.288-0.16-0.448 0.064-0.608 0.224-2.144 1.984-4.576 3.424-7.424 4.128 0 0.064-0.032 0.064-0.064 0.096 0-0.032 0 0 0 0zM13.888 7.584c0-0.896-0.192-1.728-0.704-2.464-0.096-0.128-0.16-0.256-0.224-0.384-0.064-0.096-0.032-0.128 0.064-0.16 0.48-0.064 0.928-0.096 1.408-0.128 1.248-0.128 2.464-0.096 3.68 0.064 2.688 0.352 5.152 1.28 7.424 2.784 0.128 0.096 0.256 0.192 0.416 0.288 0.064 0.032 0.096 0.064 0 0.128-0.992 0.736-1.536 1.728-1.824 2.88-0.032 0.16-0.096 0.064-0.16 0.032-0.544-0.416-1.12-0.768-1.728-1.056-1.632-0.832-3.328-1.344-5.184-1.472-0.832-0.064-1.664-0.064-2.496-0.032-0.192 0-0.384 0.032-0.608 0.096-0.096 0.032-0.096 0-0.096-0.096 0.032-0.192 0.032-0.32 0.032-0.48zM19.136 12.288c0 1.728-1.344 3.072-3.104 3.072-1.568 0-3.072-1.504-3.040-3.104s1.472-3.040 3.104-3.040c1.696 0 3.040 1.344 3.040 3.072z"></path>
</svg>
