<!-- Generated by IcoMoon.io -->
<svg version="1.1" xmlns="http://www.w3.org/2000/svg" width="32" height="32" viewBox="0 0 32 32">
<title>gust</title>
<path d="M31.168 8.64c-0.096 0.096-4.928 5.632-12.096 9.696-0.064 0.064-0.096-0.064-0.064-0.096 2.4-1.696 4.448-3.712 6.208-5.472 0.384-0.384 0.384-1.088-0.064-1.472l-0.352-0.416c-2.88 2.976-6.784 6.848-11.648 9.28-0.064 0.064-0.096-0.064-0.064-0.096 2.144-1.472 4.352-3.36 6.272-5.28 0.384-0.384 0.448-1.088 0-1.472l-0.384-0.384c-3.264 3.232-6.848 6.528-10.4 8.192-0.064 0.064-0.096-0.064-0.064-0.096 2.144-1.376 4.448-3.488 5.632-4.608 0.448-0.384 0.448-1.088 0.064-1.472l-0.288-0.288c0 0-5.088 5.184-7.968 6.496-2.848 1.312-4.8 1.28-5.824 1.088-0.096 0-0.16 0.096-0.064 0.16 1.184 0.448 3.36 1.088 6.592 0.992 9.152-0.288 18.336-5.856 25.056-12.8 0.448-0.448 0.384-1.12-0.096-1.504l-0.448-0.448z"></path>
</svg>
