<!-- Generated by IcoMoon.io -->
<svg version="1.1" xmlns="http://www.w3.org/2000/svg" width="32" height="32" viewBox="0 0 32 32">
<title>hackerrank</title>
<path d="M20.563 18.063v9.25h-1.563c-0.313 0-0.625 0.25-0.625 0.625 0 0.188 0.125 0.375 0.313 0.438l3.5 3.375c0.125 0.125 0.313 0.25 0.5 0.25s0.375-0.125 0.438-0.25l3.75-3.375c0.188-0.063 0.25-0.25 0.25-0.438 0-0.375-0.25-0.625-0.563-0.625h-1.563v-22.313c0-0.313-0.25-0.563-0.563-0.563h-3.313c-0.313 0-0.563 0.25-0.563 0.563v8.625h-9.125v-8.938h1.563c0.313 0 0.625-0.25 0.625-0.625 0-0.188-0.125-0.375-0.313-0.438l-3.5-3.375c-0.125-0.125-0.313-0.25-0.5-0.25s-0.375 0.125-0.438 0.25l-3.75 3.375c-0.188 0.063-0.25 0.25-0.25 0.438 0 0.375 0.25 0.625 0.563 0.625h1.563v22.313c0 0.313 0.25 0.563 0.563 0.563h3.313c0.313 0 0.563-0.25 0.563-0.563v-8.938h9.125z"></path>
</svg>
