<!-- Generated by IcoMoon.io -->
<svg version="1.1" xmlns="http://www.w3.org/2000/svg" width="32" height="32" viewBox="0 0 32 32">
<title>heroes</title>
<path d="M16 0l-14.188 8v16l14.188 8 14.188-8v-16zM3.875 14.063c0.813-8.125 7.5-9.563 7.5-9.563-8.875 9.5 1.5 16.125 1.5 16.125l-7.125 1.563c-2.313-3.313-1.875-8.125-1.875-8.125zM12.875 16c0-1.75 1.375-3.188 3.125-3.188s3.125 1.438 3.125 3.188c0 1.75-1.375 3.188-3.125 3.188s-3.125-1.438-3.125-3.188zM20.625 27.063c-7.438 3.25-11.938-1.938-11.938-1.938 12.5 3.25 13.125-9.25 13.125-9.25l4.875 5.563c-1.75 3.688-6.063 5.625-6.063 5.625zM27.875 17.563c-3.813-12.5-14.625-6.563-14.625-6.563l2.125-7.125c4.063-0.438 7.875 2.313 7.875 2.313 6.625 4.75 4.625 11.375 4.625 11.375z"></path>
</svg>
