<!-- Generated by IcoMoon.io -->
<svg version="1.1" xmlns="http://www.w3.org/2000/svg" width="32" height="32" viewBox="0 0 32 32">
<title>homefy</title>
<path d="M27.186 14.076c0 0.032 0 0.064 0 0.064v0.064c-0.128 3.104-0.064 15.136-0.064 15.776 0 1.44-1.088 2.592-2.112 1.696l-9.312-7.36c-2.112 2.208-4.224 4.416-6.368 6.56-1.312 1.248-2.368-1.76-1.408-2.4 0.096-0.064 2.976-2.592 6.144-5.408l-6.88-5.44c-0.608-0.48-0.832-1.248-0.48-1.696 0.128-0.128 0.288-0.16 0.448-0.16 0.064 0 0.16 0.032 0.224 0.064 2.112 0.96 5.28 3.328 8.416 5.76 3.264-2.88 6.4-5.6 6.816-5.824 0.512-0.288 0.64 0.48 0.48 0.672-0.16 0.224-2.88 3.104-5.888 6.24 2.944 2.304 5.728 4.512 7.488 5.504l0.288-14.176c-0.224-0.224-7.104-9.504-7.84-10.304-1.184 1.056-7.424 8.16-7.744 8.448 1.408 0.16 7.456 0.512 11.264 0.928 0.96 0.096 1.6 0.8-0.448 0.8l-14.816-0.032c-0.224 0-0.448-0.16-0.512-0.352-0.096-0.224-0.032-0.448 0.128-0.608 0.064-0.064 10.688-11.904 11.584-12.64 0.16-0.16 0.416-0.256 0.64-0.256 0.256 0.032 0.48 0.128 0.64 0.288 0.128 0.128 5.728 7.936 8.48 11.744 0.64 0.896 0.832 1.504 0.832 1.984 0 0.032 0 0.064 0 0.064z"></path>
</svg>
