<!-- Generated by IcoMoon.io -->
<svg version="1.1" xmlns="http://www.w3.org/2000/svg" width="32" height="32" viewBox="0 0 32 32">
<title>indiedb</title>
<path d="M31.875 12.714c-0.206-1.033-0.652-2.023-1.342-2.821-0.678-0.823-1.679-1.31-2.674-1.546-1.7-0.426-3.496-0.14-5.039 0.606-0.039-0.068-0.073-0.132-0.089-0.191-0.053-0.193-0.58 0.027-1.035 0.258-0.532-0.302-1.201-1.371-4.898-1.459-3.975-0.095-8.424 2.84-10.128 4.449s-0.757 2.84 0.284 2.934c1.041 0.095 3.88-1.609 5.395-1.041 1.491 0.559 2.43 1.856 2.549 5.147-0.986-0.152-1.992-0.282-3.025-0.316-2.124-0.093-4.294 0.246-6.303 0.945-2.014 0.705-3.941 1.737-5.571 3.24l1.35 1.404c2.684-2.587 6.637-4.076 10.485-4.048 1.050-0.003 2.111 0.11 3.188 0.244 0.438 2.88 2.037 5.192 4.426 3.133 0.826-0.712 1.575-1.673 2.222-2.735 0.798-0.048 1.593-0.133 2.378-0.256 1.988-0.321 4.196-0.714 5.851-2.162 1.685-1.385 2.413-3.722 1.975-5.787zM29.304 17.782c-1.45 1.195-3.422 1.504-5.405 1.754-0.513 0.062-1.026 0.108-1.539 0.138 1.097-2.174 1.759-4.519 1.759-5.959 0-1.347-0.689-2.606-1.314-3.473 0.323-0.408 0.292-0.721 0.184-0.973 1.484-0.65 3.198-0.86 4.734-0.411 1.92 0.415 3.14 2.115 3.433 3.982 0.319 1.86-0.38 3.811-1.851 4.942z"></path>
</svg>
