<!-- Generated by IcoMoon.io -->
<svg version="1.1" xmlns="http://www.w3.org/2000/svg" width="32" height="32" viewBox="0 0 32 32">
<title>instructables</title>
<path d="M28.252 11.273c-2.693 0.242-6.352-1.291-8.36-1.153 3.162 4.227-2.1 9.461-5.189 5.189-0.198-3.081 1.163-4.603 3.172-5.478-0.998-0.444-2.629-0.254-4.036-0.288 4.316-1.227 10.502 0.635 14.414 1.73zM17.874 10.985c0.531 0.718 1.481 1.017 1.729 2.018-0.102 0.858-0.459 1.463-0.864 2.018-1.617-0.209-2.659-0.993-2.307-3.171-1.253-0.197-0.462 1.652-1.153 2.018 0.44 1.74 3.266 2.791 4.613 1.153 0.427-1.457 0.159-5.614-2.018-4.036zM17.009 12.426c-0.244 1.205 0.78 1.141 1.153 1.73 0.415-0.161 0.703-0.45 0.865-0.865 0.022-0.983-1.068-0.854-2.018-0.865zM25.369 17.038c-1.755 0.219-2.436-0.639-3.46-1.153-0.052-6.187 7.982-2.676 3.46 1.153zM24.215 12.715c0.846 0.5 1.078 1.614 2.019 2.018 0.168-1.514-0.757-1.934-2.019-2.018zM23.927 13.868c-0.26-0.781-1.061 0.243-1.153 0.577 0.165 0.796 0.305 1.617 1.441 1.442-0.315-0.288-1.081-1.572-0.288-2.018zM24.215 14.156c-0.133 0.902 0.251 1.287 1.153 1.153 0.134-0.902-0.25-1.287-1.153-1.153zM9.802 17.616c-0.338 0.046-0.243 0.525-0.288 0.864 6.459 0.772 11.739 2.753 17.298 2.307-0.902-1.477-3.003-0.732-4.324-0.865-3.993-0.403-8.008-1.926-12.108-2.018-0.335 0.046-0.513-0.064-0.577-0.288zM0.577 28.282c0.796-2.814 0.979-5.564 0.477-8.492-0.151-0.879-0.921-1.855-1.053-2.752v-0.865c1.551-3.677 1.927-3.174 2.362-4.132 1.619-3.566 3.048-7.42 6.863-8.264 2.203-0.487 5.969 0.305 8.36 0.577 4.006 0.454 7.946 1.58 11.531 2.306-0.17 2.196-0.205 4.427 0.384 5.862 1.009-0.745 1.941 2.294 2.5 3.94l-0.289 0.865c0.072 2.474-1.030 3.773-2.306 4.9 0.084 1.742-0.231 3.883 0.288 5.189zM9.513 4.642c-1.977 6.217-2.26 13.854-2.594 20.757 7.054-1.172 14.94 0.257 21.909 1.441-0.942-6.99 0.334-13.037-0.576-19.603-5.335-1.776-12.204-2.019-18.739-2.595zM7.784 5.795c-1.958 0.925-2.844 2.922-4.036 4.613 1.466 3.287 2.626 7.964 0.288 10.667-0.893 0.028-1.599-0.131-2.018-0.577-0.494 1.817-0.729 5.088-0.577 7.496 1.762-0.641 3.247-1.557 4.613-2.595 0.053-7.565 1.329-13.087 1.73-19.604zM3.748 12.426c-2.767 0.801-4.113 7.391 0.288 7.496 0.61-2.53 0.211-5.734-0.288-7.496zM29.982 13.291c-1.125 1.98-0.97 5.682-0.865 8.072 2.617-0.795 2.524-6.238 0.865-8.072z"></path>
</svg>
