<!-- Generated by IcoMoon.io -->
<svg version="1.1" xmlns="http://www.w3.org/2000/svg" width="32" height="32" viewBox="0 0 32 32">
<title>invision</title>
<path d="M29.088 0h-26.176c-1.6 0-2.912 1.312-2.912 2.912v26.208c0 1.6 1.312 2.912 2.912 2.912h26.208c1.6 0 2.912-1.312 2.912-2.912v-26.208c-0.032-1.6-1.344-2.912-2.944-2.912zM10.688 6.208c1.056 0 1.952 0.832 1.952 1.92s-0.896 1.92-1.952 1.92c-1.056 0-1.952-0.832-1.952-1.92s0.896-1.92 1.952-1.92zM23.776 24.64c-1.984 0-2.944-1.184-2.944-2.784 0-0.448 0.064-0.96 0.192-1.44l0.96-3.392c0.128-0.384 0.128-0.704 0.128-1.024 0-1.088-0.672-1.76-1.728-1.76-1.344 0-2.24 0.96-2.688 2.848l-1.856 7.392h-3.2l0.576-2.304c-0.96 1.568-2.272 2.528-3.872 2.528-1.952 0-2.88-1.12-2.88-2.816 0-0.416 0.064-0.96 0.16-1.44l1.472-6.048h-2.272l0.704-2.56h5.472l-2.144 8.544c-0.128 0.544-0.192 0.992-0.192 1.312 0 0.544 0.256 0.704 0.704 0.8 0.256 0.064 2.304 0.032 3.424-2.464l1.344-5.632h-2.304l0.704-2.56h4.928l-0.64 2.88c0.864-1.6 2.592-3.136 4.288-3.136 1.824 0 3.296 1.28 3.296 3.776 0 0.64-0.096 1.312-0.32 2.112l-0.928 3.296c-0.096 0.352-0.128 0.64-0.128 0.896 0 0.576 0.224 0.864 0.672 0.864 0.416 0 0.992-0.32 1.6-2.080l1.28 0.48c-0.768 2.624-2.112 3.712-3.808 3.712z"></path>
</svg>
