<!-- Generated by IcoMoon.io -->
<svg version="1.1" xmlns="http://www.w3.org/2000/svg" width="32" height="32" viewBox="0 0 32 32">
<title>issuu</title>
<path d="M16.063 7.875c-4.5-0.063-8.188 3.563-8.25 8.063 0 4.5 3.563 8.188 8.063 8.25 4.5 0 8.188-3.563 8.25-8.063 0.063-4.563-3.563-8.25-8.063-8.25zM15.938 20.125c-2.25 0-4.063-1.875-4.063-4.188 0-2.25 1.875-4.063 4.188-4.063 2.25 0 4.063 1.875 4.063 4.188 0 2.25-1.875 4.063-4.188 4.063zM16 0c-0.063 0-0.063 0-0.063 0h-14.563c-0.75 0-1.375 0.625-1.375 1.375v14.625c0 8.813 7.188 16 16 16s16-7.188 16-16c0-8.813-7.188-16-16-16zM16 27c-6.125-0.063-11.063-5.125-11-11.25s5.063-11.063 11.188-11c6.125 0.063 11.063 5.125 11 11.188 0 6.188-5.063 11.125-11.188 11.063z"></path>
</svg>
