<!-- Generated by IcoMoon.io -->
<svg version="1.1" xmlns="http://www.w3.org/2000/svg" width="32" height="32" viewBox="0 0 32 32">
<title>itchio</title>
<path d="M4.16 1.792c-1.376 0.832-4.128 3.968-4.16 4.8v1.376c0 1.728 1.632 3.264 3.104 3.264 1.76 0 3.232-1.472 3.232-3.2 0 1.728 1.44 3.2 3.2 3.2s3.136-1.472 3.136-3.2c0 1.728 1.504 3.2 3.296 3.2h0.032c1.76 0 3.296-1.472 3.296-3.2 0 1.728 1.376 3.2 3.136 3.2s3.2-1.472 3.2-3.2c0 1.728 1.472 3.2 3.232 3.2 1.472 0 3.104-1.536 3.104-3.264v-1.376c0-0.832-2.752-3.968-4.128-4.8-4.352-0.16-7.36-0.192-11.84-0.192s-10.592 0.064-11.84 0.192v0zM12.672 10.432c-0.16 0.288-0.384 0.576-0.608 0.8-0.672 0.64-1.6 1.056-2.592 1.056-1.024 0-1.92-0.416-2.592-1.056-0.256-0.224-0.416-0.48-0.608-0.8v0c-0.16 0.288-0.416 0.544-0.64 0.8-0.672 0.64-1.6 1.056-2.592 1.056-0.128 0-0.256-0.032-0.352-0.064-0.128 1.472-0.192 2.912-0.224 3.936v0c0 0.512 0 0.96 0 1.568 0.032 3.104-0.32 10.080 1.376 11.808 2.56 0.576 7.36 0.864 12.16 0.864v0c4.8 0 9.6-0.288 12.192-0.896 1.696-1.728 1.344-8.704 1.376-11.808 0-0.608 0-1.024 0-1.568v0c-0.032-1.024-0.096-2.464-0.224-3.936-0.096 0.032-0.224 0.064-0.352 0.064-1.024 0-1.92-0.416-2.592-1.056-0.256-0.224-0.48-0.48-0.64-0.8v0c-0.16 0.288-0.352 0.544-0.608 0.8-0.672 0.64-1.6 1.056-2.592 1.056-1.024 0-1.92-0.416-2.592-1.056-0.256-0.224-0.448-0.512-0.608-0.8-0.16 0.288-0.384 0.576-0.608 0.8-0.672 0.64-1.6 1.056-2.592 1.056-0.032 0-0.064 0-0.096 0v0c-0.032 0-0.064 0-0.096 0-1.024 0-1.92-0.416-2.592-1.056-0.32-0.224-0.544-0.48-0.704-0.768v0zM10.016 13.888v0 0c1.056 0 2.016 0 3.168 1.28 0.896-0.128 1.856-0.16 2.816-0.16v0c0.96 0 1.92 0.032 2.848 0.128 1.152-1.28 2.112-1.28 3.168-1.28v0 0c0.512 0 2.496 0 3.904 3.904l1.504 5.376c1.12 4-0.352 4.096-2.176 4.096-2.72-0.096-4.224-2.080-4.224-4.032-1.504 0.256-3.264 0.384-4.992 0.384v0c-1.76 0-3.488-0.128-4.992-0.384 0 1.952-1.504 3.936-4.224 4.032-1.824 0-3.296-0.096-2.176-4.096l1.504-5.376c1.376-3.872 3.36-3.872 3.872-3.872v0zM16 16.96v0c0 0-2.848 2.624-3.36 3.552l1.856-0.064v1.632c0 0.064 0.736 0.032 1.504 0v0c0.736 0.032 1.504 0.064 1.504 0v-1.632l1.856 0.064c-0.512-0.928-3.36-3.552-3.36-3.552v0 0 0z"></path>
</svg>
