<!-- Generated by IcoMoon.io -->
<svg version="1.1" xmlns="http://www.w3.org/2000/svg" width="32" height="32" viewBox="0 0 32 32">
<title>jamendo</title>
<path d="M10.752 14.624c-0.48-0.224-1.024-0.032-1.28 0.416l-1.888 3.776c-0.224 0.48-0.032 1.024 0.416 1.28 0.128 0.064 0.288 0.096 0.416 0.096 0.352 0 0.672-0.192 0.832-0.512l1.888-3.776c0.288-0.48 0.096-1.056-0.384-1.28zM23.968 10.848c-0.48-0.224-1.024-0.032-1.28 0.416l-3.744 7.552c-0.224 0.48-0.032 1.024 0.416 1.28 0.128 0.064 0.288 0.096 0.416 0.096 0.352 0 0.672-0.192 0.832-0.512l3.776-7.552c0.256-0.48 0.064-1.056-0.416-1.28zM20.192 10.848c-0.48-0.224-1.024-0.032-1.28 0.416l-1.856 3.776c-0.224 0.48-0.032 1.024 0.416 1.28 0.128 0.064 0.288 0.096 0.416 0.096 0.352 0 0.672-0.192 0.832-0.512l1.888-3.776c0.256-0.48 0.064-1.056-0.416-1.28zM16.416 10.848c-0.48-0.224-1.024-0.032-1.28 0.416l-3.776 7.552c-0.224 0.48-0.032 1.024 0.416 1.28 0.128 0.064 0.288 0.096 0.416 0.096 0.352 0 0.672-0.192 0.832-0.512l3.776-7.552c0.288-0.48 0.096-1.056-0.384-1.28zM29.408 7.552l-12.8-7.392c-0.352-0.224-0.832-0.224-1.184 0l-12.832 7.392c-0.352 0.224-0.608 0.608-0.608 1.024v14.816c0 0.416 0.224 0.8 0.608 1.024l12.832 7.392c0.192 0.096 0.384 0.16 0.576 0.16s0.416-0.064 0.608-0.16l12.832-7.392c0.352-0.224 0.608-0.608 0.608-1.024v-14.784c-0.032-0.448-0.256-0.832-0.64-1.056zM27.904 22.304c0 0.352-0.192 0.704-0.512 0.864l-10.88 6.304c-0.16 0.096-0.32 0.128-0.512 0.128-0.16 0-0.352-0.032-0.512-0.128l-10.912-6.304c-0.32-0.192-0.512-0.512-0.512-0.864v-12.608c0-0.352 0.192-0.704 0.512-0.864l10.912-6.304c0.32-0.192 0.704-0.192 0.992 0l10.912 6.304c0.32 0.192 0.512 0.512 0.512 0.864v12.608z"></path>
</svg>
