<!-- Generated by IcoMoon.io -->
<svg version="1.1" xmlns="http://www.w3.org/2000/svg" width="32" height="32" viewBox="0 0 32 32">
<title>keybase</title>
<path d="M26.592 14.88c-1.632-1.696-3.552-2.912-5.664-3.648-0.064-0.032-0.16-0.064-0.224-0.064 0.032-0.064 0.064-0.128 0.064-0.192 0.544-1.408 0.48-2.912-0.16-4.288-0.64-1.344-1.792-2.368-3.2-2.848-0.864-0.288-1.632-0.416-2.272-0.416 0 0-0.032 0-0.032 0s-0.32-0.512 0.64-2.592l-1.472-0.832c-0.128 0.192-0.256 0.352-0.384 0.544-0.48 0.672-0.928 1.312-1.376 1.92 0 0-0.032-0.032-0.032-0.032-0.416-0.48-0.992-0.736-1.6-0.768l-1.856-0.128c-0.032 0-0.096 0-0.128 0-1.216 0-2.24 0.96-2.336 2.176l-0.128 1.856c-0.064 1.28 0.896 2.368 2.176 2.464l1.44 0.096c-0.128 1.184 0.064 2.304 0.544 3.296-1.824 0.736-3.488 1.888-4.928 3.328-4.384 4.448-4.384 9.312-4.384 13.248v2.144l1.696-1.792c0.352 1.312 0.896 2.528 1.568 3.68h2.048c-1.12-1.504-1.888-3.264-2.24-5.152l2.848-3.008-1.344 4.224 2.112-1.536c4.128-3.008 9.056-3.68 14.656-2.048 2.368 0.704 4.672 0.064 5.888-1.632 0.096-0.128 0.192-0.256 0.256-0.416 0.16 0.736 0.224 1.504 0.224 2.24 0 2.080-0.352 4.928-1.824 7.36h1.952c1.056-2.080 1.6-4.576 1.6-7.36 0-3.584-1.504-7.136-4.128-9.824zM11.36 4l-0.032 0.32c-0.384 0.704-0.704 1.376-0.928 2.112l-1.696-0.096c-0.352-0.032-0.608-0.32-0.576-0.64l0.128-1.856c0.032-0.32 0.288-0.576 0.608-0.576 0 0 0.032 0 0.032 0l1.856 0.128c0.16 0 0.32 0.096 0.416 0.192 0.16 0.096 0.224 0.256 0.192 0.416zM20.192 17.568c-0.064 0.032-0.096 0.064-0.16 0.096-0.032 0-0.064 0-0.096 0-0.128 0-0.224-0.064-0.32-0.16l-0.416-0.48-1.408 1.152c-0.032 0.032-0.096 0.064-0.192 0.064s-0.192-0.032-0.256-0.128l-0.64-0.768c-0.096-0.128-0.096-0.352 0.032-0.448l1.408-1.152-0.544-0.704-0.704 0.576c-0.064 0.032-0.128 0.064-0.192 0.064-0.096 0-0.192-0.032-0.224-0.128l-0.16-0.16c-0.096-0.128-0.096-0.352 0.032-0.448l0.672-0.576-1.408-1.728c-0.16-0.192-0.128-0.448 0.064-0.576 0.064-0.064 0.16-0.096 0.256-0.096 0.128 0 0.224 0.064 0.32 0.16l3.968 4.864c0.16 0.16 0.128 0.448-0.032 0.576zM13.92 28.48c0 0.707-0.573 1.28-1.28 1.28s-1.28-0.573-1.28-1.28c0-0.707 0.573-1.28 1.28-1.28s1.28 0.573 1.28 1.28zM21.824 28.48c0 0.707-0.573 1.28-1.28 1.28s-1.28-0.573-1.28-1.28c0-0.707 0.573-1.28 1.28-1.28s1.28 0.573 1.28 1.28zM9.164 5.365l0.069-1.118 1.118 0.069-0.069 1.118-1.118-0.069z"></path>
</svg>
