<!-- Generated by IcoMoon.io -->
<svg version="1.1" xmlns="http://www.w3.org/2000/svg" width="32" height="32" viewBox="0 0 32 32">
<title>letterboxd</title>
<path d="M16 0c-8.836 0-16 7.164-16 16s7.164 16 16 16 16-7.164 16-16-7.164-16-16-16zM23.68 20.48c-1.631 0-3.053-0.874-3.837-2.176-0.001 0.002-0.002 0.004-0.003 0.005-0.001-0.002-0.002-0.004-0.003-0.005-0.784 1.302-2.206 2.176-3.837 2.176s-3.053-0.874-3.837-2.176c-0.001 0.002-0.002 0.004-0.003 0.005-0.001-0.002-0.002-0.004-0.003-0.005-0.784 1.302-2.206 2.176-3.837 2.176-2.474 0-4.48-2.006-4.48-4.48s2.006-4.48 4.48-4.48c1.631 0 3.053 0.874 3.837 2.176 0.001-0.002 0.002-0.004 0.003-0.005 0.001 0.002 0.002 0.004 0.003 0.005 0.784-1.302 2.206-2.176 3.837-2.176s3.053 0.874 3.837 2.176c0.001-0.002 0.002-0.004 0.003-0.005 0.001 0.002 0.002 0.004 0.003 0.005 0.784-1.302 2.206-2.176 3.837-2.176 2.474 0 4.48 2.006 4.48 4.48s-2.006 4.48-4.48 4.48z"></path>
</svg>
