<!-- Generated by IcoMoon.io -->
<svg version="1.1" xmlns="http://www.w3.org/2000/svg" width="32" height="32" viewBox="0 0 32 32">
<title>livemaster</title>
<path d="M16 11.040c-2.752 0-4.96 2.24-4.96 4.96s2.24 4.96 4.96 4.96 4.96-2.24 4.96-4.96-2.208-4.96-4.96-4.96zM16 19.936c-2.176 0-3.936-1.76-3.936-3.936s1.76-3.936 3.936-3.936 3.936 1.76 3.936 3.936-1.76 3.936-3.936 3.936zM23.968 14.464c-0.608-0.224-1.088-0.672-1.344-1.216-0.224-0.576-0.224-1.216 0.064-1.824 0.416-0.832 0.448-1.504 0.16-1.984-0.384-0.608-1.216-0.672-2.304-0.16-0.32 0.16-0.672 0.224-0.992 0.224-0.928 0-1.728-0.576-2.048-1.504-0.448-1.28-1.088-1.536-1.504-1.536-0.448 0-1.056 0.256-1.536 1.536-0.32 0.896-1.12 1.504-2.048 1.504-0.352 0-0.672-0.064-0.992-0.224-1.088-0.512-1.92-0.416-2.304 0.16-0.288 0.48-0.256 1.12 0.16 1.984 0.288 0.608 0.32 1.248 0.064 1.824-0.224 0.576-0.704 1.024-1.344 1.216-1.28 0.448-1.536 1.088-1.536 1.536s0.256 1.056 1.536 1.536c0.608 0.224 1.088 0.672 1.312 1.216 0.224 0.576 0.224 1.216-0.064 1.824-0.416 0.832-0.448 1.504-0.16 1.984 0.384 0.608 1.216 0.672 2.304 0.16 0.32-0.16 0.672-0.224 0.992-0.224 0.928 0 1.728 0.576 2.048 1.504 0.448 1.28 1.088 1.536 1.504 1.536s1.056-0.256 1.536-1.536c0.32-0.896 1.12-1.504 2.048-1.504 0.352 0 0.672 0.064 0.992 0.224 1.088 0.512 1.92 0.416 2.304-0.16 0.288-0.48 0.256-1.12-0.16-1.984-0.288-0.608-0.32-1.248-0.064-1.824 0.224-0.576 0.704-1.024 1.344-1.216 1.28-0.448 1.536-1.088 1.536-1.536s-0.224-1.056-1.504-1.536zM23.616 16.512c-0.896 0.32-1.6 0.96-1.952 1.824s-0.32 1.792 0.096 2.656c0.288 0.64 0.256 0.928 0.224 0.96 0 0-0.064 0.032-0.128 0.032-0.128 0-0.384-0.032-0.832-0.256-0.48-0.224-0.96-0.32-1.44-0.32-1.376 0-2.56 0.864-3.040 2.208-0.224 0.64-0.48 0.832-0.512 0.832-0.064 0-0.288-0.192-0.512-0.832-0.48-1.344-1.664-2.208-3.040-2.208-0.512 0-0.992 0.096-1.44 0.32s-0.704 0.256-0.832 0.256c-0.096 0-0.128-0.032-0.128-0.032-0.032-0.032-0.096-0.32 0.224-0.96 0.416-0.864 0.448-1.824 0.096-2.656-0.352-0.864-1.056-1.504-1.952-1.824-0.672-0.224-0.832-0.48-0.832-0.512s0.16-0.288 0.832-0.512c0.896-0.32 1.6-0.96 1.952-1.824s0.32-1.792-0.096-2.656c-0.288-0.64-0.256-0.928-0.224-0.96 0 0 0.064-0.032 0.128-0.032 0.128 0 0.384 0.032 0.832 0.256 0.48 0.224 0.96 0.32 1.44 0.32 1.376 0 2.56-0.864 3.040-2.208 0.224-0.672 0.48-0.832 0.512-0.832s0.288 0.16 0.512 0.832c0.48 1.344 1.664 2.208 3.040 2.208 0.512 0 0.992-0.128 1.44-0.32 0.448-0.224 0.704-0.256 0.832-0.256 0.096 0 0.128 0.032 0.128 0.032 0.032 0.032 0.064 0.32-0.224 0.96-0.416 0.864-0.448 1.824-0.096 2.656 0.352 0.864 1.056 1.504 1.952 1.824 0.672 0.224 0.832 0.48 0.832 0.512s-0.192 0.288-0.832 0.512zM26.816 18.912l5.184-2.912-5.184-2.912 3.040-5.088-5.952 0.096 0.096-5.952-5.088 3.040-2.912-5.184-2.912 5.184-5.088-3.040 0.096 5.92-5.952-0.064 3.040 5.088-5.184 2.912 5.184 2.912-3.040 5.088 5.952-0.096-0.096 5.952 5.088-3.040 2.912 5.184 2.912-5.184 5.088 3.040-0.096-5.952 5.952 0.096-3.040-5.088zM22.944 28.032l-4.448-2.624-2.496 4.48-2.528-4.512-4.416 2.656 0.064-5.152-5.152 0.064 2.624-4.416-4.48-2.528 4.512-2.528-2.624-4.448 5.152 0.064-0.064-5.152 4.448 2.624 2.464-4.448 2.528 4.512 4.448-2.624-0.064 5.152 5.152-0.064-2.656 4.448 4.48 2.464-4.512 2.528 2.624 4.416-5.152-0.064 0.096 5.152z"></path>
</svg>
