<!-- Generated by IcoMoon.io -->
<svg version="1.1" xmlns="http://www.w3.org/2000/svg" width="32" height="32" viewBox="0 0 32 32">
<title>logmein</title>
<path d="M11.072 20.224c0 0 0 0 0 0-0.032 0.512-0.032 0.992-0.032 1.504 0 2.816-0.032 5.664 0 8.48 0 1.088 0.288 1.376 1.376 1.408 1.024 0.032 2.048 0.032 3.040 0 1.44-0.032 1.728-0.32 1.728-1.792 0-2.72 0-5.472 0-8.192 0-1.696-0.032-3.424 0.352-5.12 0.544-2.272 2.4-3.488 4.864-3.264 1.92 0.16 3.072 1.568 3.296 3.872 0.224 2.528 0.096 5.056 0.128 7.584 0.032 1.856 0 3.712 0.032 5.6 0 0.96 0.32 1.28 1.312 1.312 1.12 0.032 2.24 0.032 3.36 0.032 1.216-0.032 1.472-0.288 1.472-1.504 0-2.464 0.032-4.928 0-7.36-0.032-2.592 0.16-5.216-0.128-7.808-0.416-3.36-2.112-5.6-5.056-6.304-3.264-0.768-6.368-0.512-8.896 2.080-0.48 0.512-0.736 0.416-0.992-0.256-0.064-0.16-0.128-0.32-0.128-0.512-0.032-0.832-0.576-1.088-1.312-1.12-1.024-0.032-2.048-0.032-3.040 0-1.088 0.032-1.376 0.352-1.376 1.472 0 3.328 0 6.624 0 9.888zM0 16c0 0 0.032 0 0.032 0 0 4.736 0 9.472 0 14.208 0 1.088 0.256 1.344 1.376 1.376 1.152 0.032 2.336 0.064 3.488 0.064 1.568 0 1.888-0.288 1.888-1.856 0-9.248 0-18.528-0.032-27.776 0-0.288-0.032-0.608-0.064-0.896-0.064-0.48-0.416-0.8-0.96-0.8-1.536 0-3.072 0-4.608 0-0.64 0-1.024 0.352-1.056 0.992-0.064 0.352-0.064 0.672-0.064 0.992 0 4.576 0 9.152 0 13.696z"></path>
</svg>
