<!-- Generated by IcoMoon.io -->
<svg version="1.1" xmlns="http://www.w3.org/2000/svg" width="32" height="32" viewBox="0 0 32 32">
<title>mastodon</title>
<path d="M30.912 10.496c0-6.944-4.544-8.992-4.544-8.992-2.272-1.024-6.208-1.472-10.304-1.504h-0.096c-4.096 0.032-8.032 0.48-10.336 1.536 0 0-4.544 2.048-4.544 8.992 0 1.6-0.032 3.488 0.032 5.504 0.16 6.784 1.216 13.472 7.52 15.136 2.88 0.768 5.376 0.928 7.392 0.832 3.616-0.192 5.664-1.28 5.664-1.28l-0.128-2.624c0 0-2.592 0.832-5.504 0.704-2.88-0.096-5.92-0.32-6.4-3.84-0.032-0.32-0.064-0.64-0.064-0.992 0 0 2.848 0.704 6.432 0.864 2.208 0.096 4.256-0.128 6.336-0.384 4-0.48 7.488-2.944 7.936-5.216 0.672-3.616 0.608-8.736 0.608-8.736zM25.568 19.456h-3.328v-8.16c0-1.728-0.736-2.592-2.176-2.592-1.6 0-2.4 1.024-2.4 3.072v4.48h-3.328v-4.48c0-2.048-0.8-3.072-2.4-3.072-1.44 0-2.176 0.864-2.176 2.592v8.16h-3.328v-8.416c0-1.728 0.448-3.072 1.312-4.096 0.896-1.024 2.080-1.536 3.552-1.536 1.696 0 3.008 0.64 3.84 1.952l0.832 1.376 0.832-1.376c0.864-1.312 2.144-1.952 3.84-1.952 1.472 0 2.656 0.512 3.552 1.536 0.864 1.024 1.312 2.368 1.312 4.096v8.416z"></path>
</svg>
