<!-- Generated by IcoMoon.io -->
<svg version="1.1" xmlns="http://www.w3.org/2000/svg" width="32" height="32" viewBox="0 0 32 32">
<title>medium</title>
<path d="M32 29.216h-12.192l2.432-2.688c0.096-0.096 0.096-0.416 0.096-0.896v-16.736l-8 20.32-8.672-18.944c-0.224-0.48-0.416-1.12-0.576-1.632v14.080c0 0.576-0.032 0.672 0.384 1.216l3.68 5.28h-9.152l3.712-5.28c0.416-0.544 0.352-0.64 0.352-1.216v-14.56c0-0.64 0.096-0.704-0.192-1.056l-2.848-4.32h8.64l7.456 16.544 6.496-16.544h8.384l-2.24 2.784c-0.32 0.32-0.32 0.608-0.32 1.12v18.912c0 0.48 0 0.768 0.128 0.896l2.432 2.72z"></path>
</svg>
