<!-- Generated by IcoMoon.io -->
<svg version="1.1" xmlns="http://www.w3.org/2000/svg" width="32" height="32" viewBox="0 0 32 32">
<title>metapop</title>
<path d="M32 16c0 8.837-7.163 16-16 16s-16-7.163-16-16 7.163-16 16-16 16 7.163 16 16zM9.125 23.467c0.326 0 0.593-0.317 0.593-0.704v-12.814c0-0.387-0.267-0.704-0.592-0.704s-0.593 0.317-0.593 0.704v12.813c0 0.387 0.267 0.704 0.592 0.704zM23.111 23.704c0.325 0 0.592-0.318 0.592-0.704v-12.815c0-0.387-0.267-0.704-0.592-0.704s-0.592 0.317-0.592 0.704v12.815c-0 0.387 0.265 0.704 0.592 0.704zM12.445 17.778c0.325 0 0.592-0.333 0.592-0.741v-5.629c0-0.407-0.267-0.741-0.592-0.741s-0.593 0.333-0.593 0.741v5.629c0 0.408 0.267 0.741 0.592 0.741l0.001-0.001zM19.555 17.778c0.326 0 0.593-0.333 0.593-0.741v-5.629c0-0.407-0.267-0.741-0.592-0.741s-0.593 0.333-0.593 0.741v5.629c0 0.408 0.267 0.741 0.592 0.741v-0.001zM16 20.148c0.325 0 0.592-0.322 0.592-0.715v-6.865c0-0.394-0.267-0.715-0.592-0.715s-0.592 0.322-0.592 0.715v6.866c0 0.394 0.267 0.715 0.592 0.715v-0.001z"></path>
</svg>
