<!-- Generated by IcoMoon.io -->
<svg version="1.1" xmlns="http://www.w3.org/2000/svg" width="32" height="32" viewBox="0 0 32 32">
<title>mix</title>
<path d="M31.808 0.128c-1.6 0-3.104 0.288-4.512 0.832 1.408-0.544 2.912-0.832 4.512-0.832h-31.808v28.352c0 1.728 1.44 3.136 3.2 3.136s3.2-1.408 3.2-3.136v-17.152c0 0.032 0 0.064 0 0.096v-2.944c0-0.096 0-0.16 0-0.256 0.128-1.632 1.504-2.912 3.2-2.912 1.76 0 3.2 1.408 3.2 3.136v12.288c0 1.728 1.44 3.136 3.2 3.136s3.2-1.408 3.2-3.136v-4.704c0.16-1.6 1.504-2.848 3.168-2.848 1.76 0 3.2 1.408 3.2 3.136v1.6c0 1.728 1.44 3.136 3.2 3.136s3.2-1.408 3.2-3.136v-17.792c-0.032 0-0.096 0-0.16 0z"></path>
</svg>
