<!-- Generated by IcoMoon.io -->
<svg version="1.1" xmlns="http://www.w3.org/2000/svg" width="32" height="32" viewBox="0 0 32 32">
<title>moddb</title>
<path d="M25.059 7.352c-0.209-1.706-0.859-3.229-1.97-4.527-1.203-1.406-2.609-2.53-4.519-2.825-0.525 0-1.050 0-1.575 0-0.169 0.2-0.131 0.443-0.132 0.673-0.003 2.095 0.004 4.191-0.004 6.286-0.005 1.279 0.15 1.101-1.129 1.113-0.669 0.007-0.675-0.004-0.675-0.659-0.001-2.247 0.001-4.494-0.002-6.741 0-0.231 0.038-0.474-0.131-0.673-0.498 0-0.995 0-1.492 0-0.34 0.101-0.698 0.094-1.039 0.227-0.835 0.326-1.56 0.828-2.255 1.372-1.119 0.876-1.929 2.003-2.516 3.287-0.444 0.972-0.658 2.008-0.74 3.072 0 0.498 0 0.995 0 1.492 0.1 0.194 0.038 0.406 0.060 0.609 0.238 2.123 1.168 3.916 2.727 5.332 0.606 0.551 0.759 1.1 0.753 1.859-0.029 3.807-0.021 7.616-0.009 11.423 0.004 1.228 0.411 2.26 1.516 2.945 0.446 0.276 0.943 0.267 1.419 0.381 1.796 0 3.592 0 5.388 0 0.109-0.081 0.242-0.052 0.36-0.061 0.862-0.067 1.495-0.505 1.989-1.186 0.46-0.634 0.583-1.366 0.585-2.117 0.009-4.028 0.007-8.057-0.001-12.085-0.001-0.374 0.114-0.635 0.403-0.891 1.197-1.062 2.088-2.338 2.604-3.866 0.258-0.763 0.365-1.548 0.443-2.342 0-0.497 0-0.995 0-1.492-0.103-0.193-0.036-0.404-0.061-0.606zM19.674 14.613c-0.101 0.067-0.23 0.1-0.29 0.222 0.001 0.417 0.001 0.834 0.002 1.251 0.004 2.346 0.010 4.692 0.013 7.038 0.002 1.891 0.001 3.782 0 5.673-0 0.692-0.338 1.042-1.037 1.045-1.546 0.007-3.092 0.007-4.637 0-0.698-0.003-1.039-0.355-1.040-1.045-0.001-4.127-0-8.254 0-12.381 0-0.11 0.008-0.22 0.013-0.33-0.004-0.416-0.009-0.831-0.014-1.247-1.732-1.013-2.919-2.451-3.428-4.414-0.897-3.456 1.076-7.178 4.424-8.265 0 0.129 0 0.244 0 0.36 0 1.947 0 3.894 0 5.841 0 0.786 0.113 0.897 0.913 0.897 0.98 0 1.96 0.002 2.941-0.001 0.587-0.002 0.705-0.12 0.705-0.696 0.001-2.030 0.007-4.060-0.007-6.089-0.003-0.344 0.094-0.354 0.365-0.233 2.574 1.149 4.108 3.108 4.33 5.921 0.218 2.759-0.936 4.922-3.253 6.453z"></path>
</svg>
