<!-- Generated by IcoMoon.io -->
<svg version="1.1" xmlns="http://www.w3.org/2000/svg" width="32" height="32" viewBox="0 0 32 32">
<title>myanimelist</title>
<path d="M11.298 9.053h-3.026l-2.653 3.578-2.593-3.578h-3.026v12.177h3.19v-7.362h0.030l2.399 3.279 2.46-3.279h0.031v7.362h3.189v-12.177zM22.659 12.172h-3.189v2.459h-3.175c0.118-0.363 0.304-0.762 0.559-1.197 0.257-0.435 0.679-0.812 1.269-1.132s1.446-0.486 2.568-0.503h2.504l-0.744-2.742h-1.566c-1.148-0.023-2.217 0.095-3.212 0.357-0.994 0.26-1.916 0.807-2.764 1.641-0.757 0.776-1.312 1.675-1.666 2.698-0.354 1.021-0.53 2.070-0.527 3.145 0.007 1.079 0.175 2.135 0.506 3.165s0.794 1.992 1.388 2.886l2.593-1.714c-0.356-0.584-0.646-1.201-0.868-1.852s-0.34-1.32-0.354-2.008h3.488v3.86h3.189v-9.062zM27.812 9.053h-3.19v12.177h6.633l0.744-2.742h-4.188v-9.435z"></path>
</svg>
