<!-- Generated by IcoMoon.io -->
<svg version="1.1" xmlns="http://www.w3.org/2000/svg" width="32" height="32" viewBox="0 0 32 32">
<title>napster</title>
<path d="M19.285 22.89c-0.913 0.882-2.038 1.551-3.254 1.978-1.217-0.396-2.313-1.096-3.224-1.978h6.478zM9.947 9.993c-1.278-1.065-2.799-1.887-4.471-2.343v10.433c0 5.839 4.715 10.526 10.585 10.526s10.585-4.687 10.585-10.526v-10.433c-1.673 0.456-3.192 1.247-4.472 2.343-1.732-1.218-3.801-1.949-6.082-1.949-2.312 0.031-4.441 0.731-6.145 1.949zM9.977 6.95c1.795-0.941 3.863-1.46 6.084-1.46 2.19 0 4.259 0.547 6.055 1.46 0.425-0.273 0.88-0.516 1.307-0.731-1.947-1.793-4.532-2.889-7.362-2.889-2.859 0-5.445 1.096-7.392 2.889 0.396 0.214 0.883 0.487 1.308 0.731zM6.114 5.247c2.434-2.707 5.962-4.441 9.917-4.441 3.954 0 7.483 1.703 9.917 4.441 1.033-0.274 2.129-0.456 3.223-0.456v4.472c1.703 1.065 2.829 2.951 2.829 5.108 0 2.16-1.125 4.047-2.86 5.112l-0.029 0.12c-0.7 6.572-6.359 11.591-13.172 11.591s-12.41-5.112-13.11-11.712c-1.703-1.065-2.829-2.981-2.829-5.112 0-2.158 1.125-4.043 2.829-5.108v-4.472c1.156 0.031 2.252 0.182 3.285 0.456zM19.316 18.084c1.764-0.213 4.716-0.182 4.716-0.182-0.062 0.516 0 2.098-1.705 3.042-0.273 0.182-0.972 0.394-1.642 0.425-1.642 0.060-3.954 0.093-3.954 0.093 0.425-1.826 1.125-3.196 2.585-3.378zM12.746 18.084c1.46 0.182 2.16 1.553 2.555 3.378 0 0-2.312-0.033-3.955-0.093-0.669-0.031-1.369-0.274-1.643-0.425-1.704-0.973-1.643-2.525-1.704-3.042 0 0 2.981 0 4.746 0.182zM19.134 26.45c-0.884 0.545-1.949 0.851-3.103 0.851-1.156 0-2.22-0.306-3.103-0.851 0 0 0.061-0.367 0.244-0.611 0.213-0.334 0.395-0.425 0.395-0.425 0.761 0.215 1.582 0.334 2.464 0.334 0.852 0 1.703-0.12 2.463-0.334 0 0 0.244 0.124 0.456 0.458 0.153 0.334 0.184 0.578 0.184 0.578z"></path>
</svg>
