<!-- Generated by IcoMoon.io -->
<svg version="1.1" xmlns="http://www.w3.org/2000/svg" width="32" height="32" viewBox="0 0 32 32">
<title>niconico</title>
<path d="M29.248 7.232h-10.688l5.536-5.536c0.16-0.16 0.16-0.448 0-0.64l-0.928-0.928c-0.16-0.16-0.448-0.16-0.64 0l-6.624 6.624-6.624-6.624c-0.16-0.16-0.448-0.16-0.64 0l-0.928 0.928c-0.16 0.16-0.16 0.448 0 0.64l5.536 5.536h-10.496c-1.216 0-2.208 0.992-2.208 2.208v16.992c0 1.216 0.992 2.208 2.208 2.208h2.848c0 0.032 0.032 0.064 0.064 0.064l2.624 3.104c0.096 0.096 0.192 0.16 0.32 0.16 0 0 0 0 0 0 0.128 0 0.224-0.064 0.32-0.128l2.944-3.104c0.032-0.032 0.064-0.064 0.064-0.096h7.904c0 0.032 0.032 0.064 0.064 0.064l2.624 3.104c0.096 0.096 0.192 0.16 0.32 0.16 0 0 0 0 0 0 0.128 0 0.224-0.064 0.32-0.128l2.944-3.104c0.032-0.032 0.064-0.064 0.064-0.096h3.008c1.216 0 2.208-0.992 2.208-2.208v-16.992c0.064-1.216-0.928-2.208-2.144-2.208zM11.968 12.288c0 0-5.984 0.608-6.112 6.592v0.896c0 1.216-1.184 2.176-2.4 2.176 0 0 0 0 0 0v0c0 0 0 0 0 0-1.216 0-1.76-0.992-1.76-2.208v-9.152c0-1.216 0.992-2.208 2.208-2.208h8.064c1.216 0 2.208 0.16 2.208 1.6 0.032 1.216-0.352 2.208-2.208 2.304z"></path>
</svg>
