<!-- Generated by IcoMoon.io -->
<svg version="1.1" xmlns="http://www.w3.org/2000/svg" width="32" height="32" viewBox="0 0 32 32">
<title>nintendo</title>
<path d="M13.5 8.438c-2.625 0-5.063 0.813-7.125 2.125-0.25 0.188-0.438 0.313-0.688 0.313h-3.125c-0.688 0-1.25 0.563-1.25 1.188h-0.063v18.75c0 0.625 0.563 1.125 1.25 1.125h4c0.688 0 1.25-0.5 1.25-1.125v-10.688c0-3.063 2.563-5.5 5.75-5.5 3.125 0 5.688 2.438 5.688 5.5v10.688c0 0.625 0.563 1.188 1.25 1.188h4c0.625 0 1.25-0.563 1.25-1.188v-10.688c-0.063-6.438-5.438-11.688-12.188-11.688zM30.5 8.5c-3.688-5.125-9.938-8.5-17-8.5-3.125 0-6.063 0.625-8.75 1.813-0.438 0.188-0.625 0.688-0.438 1.188 0.25 0.438 0.75 0.625 1.188 0.438 2.438-1.125 5.125-1.688 8-1.688 6.438 0 12.188 3.063 15.625 7.813 0.25 0.375 0.813 0.438 1.188 0.188 0.438-0.313 0.5-0.875 0.188-1.25zM13.5 3.938c-2.438 0-4.813 0.5-7 1.438-0.438 0.25-0.625 0.688-0.438 1.125 0.25 0.5 0.75 0.688 1.188 0.5 1.938-0.875 4.063-1.313 6.313-1.313 4.875 0 9.563 2.25 12.375 6.063 0.125 0.25 0.438 0.375 0.688 0.375 0.188 0 0.375-0.063 0.5-0.188 0.375-0.313 0.438-0.813 0.188-1.188-3.188-4.25-8.375-6.813-13.813-6.813z"></path>
</svg>
