<!-- Generated by IcoMoon.io -->
<svg version="1.1" xmlns="http://www.w3.org/2000/svg" width="32" height="32" viewBox="0 0 32 32">
<title>opera</title>
<path d="M26.625 4.063c-2.813-2.5-6.5-4.063-10.563-4.063 0 0 0 0-0.063 0-8.813 0-16 7.188-16 16 0 8.563 6.75 15.563 15.25 15.938 0.25 0 0.5 0.063 0.75 0.063 4.125 0 7.813-1.563 10.625-4.063 3.313-2.938 5.375-7.188 5.375-11.938s-2.063-9-5.375-11.938zM7.75 16.375c0 0 0-0.75 0-0.75 0.063-3.438 1.188-6.563 3-8.625 1.5-1.75 3.375-2.813 5.438-2.813 4.688 0 8.438 5.313 8.438 11.813s-3.75 11.813-8.438 11.813c-2.063 0-3.938-1.063-5.438-2.813-1.813-2.063-2.938-5.188-3-8.625z"></path>
</svg>
