<!-- Generated by IcoMoon.io -->
<svg version="1.1" xmlns="http://www.w3.org/2000/svg" width="32" height="32" viewBox="0 0 32 32">
<title>origin</title>
<path d="M3.808 15.936c0-0.736 0.064-1.472 0.16-2.208 0.224-1.696 0.736-3.328 1.536-4.864 0.608-1.152 1.344-2.208 2.208-3.2 1.408-1.6 3.072-2.88 4.864-4 0.864-0.512 1.76-0.992 2.624-1.472 0.096-0.064 0.192-0.128 0.288-0.16 0.16-0.064 0.288-0.064 0.384 0.064 0.096 0.096 0.096 0.256 0 0.384-0.48 0.736-0.896 1.536-1.152 2.4-0.096 0.288-0.16 0.608-0.192 0.896 0 0.096 0 0.128 0.128 0.128 0.48-0.064 0.96-0.096 1.44-0.096 1.664 0.032 3.264 0.352 4.768 1.024 2.816 1.248 4.864 3.264 6.176 6.016 0.48 0.992 0.8 2.016 0.96 3.104 0.096 0.576 0.128 1.152 0.16 1.728 0.032 0.448 0 0.864 0 1.312-0.032 0.576-0.096 1.152-0.192 1.696-0.192 1.184-0.512 2.368-0.992 3.456-0.576 1.344-1.344 2.592-2.272 3.712-1.472 1.824-3.264 3.232-5.248 4.448-0.896 0.544-1.856 1.024-2.784 1.536-0.064 0.032-0.128 0.064-0.192 0.096-0.128 0.064-0.288 0.032-0.384-0.064s-0.096-0.224 0-0.352c0.192-0.288 0.352-0.544 0.512-0.864 0.352-0.64 0.64-1.312 0.8-2.016 0.032-0.16 0.064-0.32 0.064-0.448 0-0.096 0-0.128-0.096-0.096-0.288 0.032-0.608 0.064-0.896 0.064-0.288 0.032-0.576 0.032-0.832 0-0.288 0-0.544-0.032-0.832-0.064-0.672-0.064-1.312-0.192-1.952-0.352-2.464-0.672-4.512-1.984-6.144-3.936-1.184-1.408-2.016-3.040-2.464-4.832-0.16-0.576-0.256-1.184-0.32-1.792-0.096-0.384-0.128-0.8-0.128-1.248zM16 20.608c2.496 0.032 4.576-2.048 4.608-4.544 0.032-2.56-2.080-4.608-4.576-4.64-2.528 0-4.608 2.080-4.608 4.576-0.032 2.528 2.048 4.608 4.576 4.608z"></path>
</svg>
