<!-- Generated by IcoMoon.io -->
<svg version="1.1" xmlns="http://www.w3.org/2000/svg" width="32" height="32" viewBox="0 0 32 32">
<title>overwatch</title>
<path d="M6.25 3.188c2.813-2.125 6.125-3.188 9.563-3.188h0.375c3.438 0 6.75 1.063 9.563 3.188l-2.5 2.938c-2.063-1.5-4.5-2.375-7.063-2.375h-0.313c-2.563 0-5 0.875-7.063 2.375zM16 32h-0.188c-0.188 0-0.375 0-0.563 0h-0.188c-0.125 0-0.625-0.063-0.625-0.063h-0.313c-0.125 0-0.25-0.063-0.375-0.063-0.063 0-0.188 0-0.313 0-0.125-0.063-0.438-0.063-0.438-0.063s-0.375-0.125-0.5-0.188h-0.125c-0.625-0.125-1.188-0.313-1.75-0.5-0.063 0-0.188-0.063-0.313-0.125l-0.125-0.063c-0.188-0.063-0.313-0.125-0.438-0.125-1.938-0.813-3.625-1.938-5.063-3.313l-0.188-0.188c-3-3-4.688-7.063-4.688-11.313 0-4.375 1.875-8.563 5-11.563l2.563 3.063c-2.25 2.25-3.563 5.313-3.563 8.5 0 2.125 0.563 4.188 1.625 6l0.188 0.375 6.75-6.688 2.125-5.25v8.563l-6.438 6.375 0.438 0.25c0.313 0.25 0.688 0.5 1.063 0.688l0.25 0.125v0.063c1.813 1.063 3.875 1.688 6 1.688h0.313c2.125 0 4.188-0.625 6-1.688v-0.063l0.188-0.125c0.375-0.188 0.688-0.438 1.063-0.688l0.125-0.25-6.813-6.438v-8.5l2.5 5.25 7.063 6.688 0.25-0.375c1.063-1.813 1.688-3.875 1.688-6 0-3.188-1.313-6.25-3.563-8.563l2.5-3.063c3.188 3 5.063 7.25 5.063 11.625 0 4.25-1.688 8.313-4.688 11.313l-0.313 0.25c-1.375 1.375-3.063 2.438-4.875 3.188-0.188 0.125-0.375 0.125-0.5 0.188l-0.125 0.125c-0.125 0-0.25 0.063-0.313 0.125-0.563 0.188-1.125 0.313-1.75 0.438 0 0-0.375 0.063-0.438 0.125h-0.188c-0.125 0.063-0.25 0.063-0.375 0.063-0.125 0.063-0.25 0.063-0.313 0.063-0.125 0-0.25 0-0.438 0.063h-0.313c0 0-0.5 0.063-0.625 0.063h-0.188c-0.188 0-0.375 0-0.563 0z"></path>
</svg>
