<!-- Generated by IcoMoon.io -->
<svg version="1.1" xmlns="http://www.w3.org/2000/svg" width="32" height="32" viewBox="0 0 32 32">
<title>pixiv</title>
<path d="M28.033 5.084c-2.514-2.181-6.033-3.44-10.122-3.44-10.661 0-17.911 8.172-17.911 8.172l2.043 3.221c0 0 1.131 0.094 0.532-1.803 0.517-0.97 1.528-2.276 3.503-3.781v21.454c-0.852 0.238-1.977 0.687-1.21 1.449h5.87c0.775-0.769-0.446-1.233-1.189-1.449v-5.062c0 0 4.024 1.569 8.362 1.569 3.811 0 7.279-1.127 9.858-3.161 2.579-2.023 4.242-5.043 4.231-8.495 0.008-3.39-1.453-6.501-3.968-8.674l0-0.001zM24.922 20.56c-1.783 1.749-4.378 2.855-7.369 2.852-3.339 0.002-6.148-0.64-8.004-1.548v-16.095c2.036-1.437 5.338-2.323 8.004-2.317 3.24 0.003 5.783 1.219 7.503 3.063 1.716 1.856 2.654 4.322 2.662 7.188-0.011 2.793-1.013 5.093-2.797 6.856v0.001z"></path>
</svg>
