<!-- Generated by IcoMoon.io -->
<svg version="1.1" xmlns="http://www.w3.org/2000/svg" width="32" height="32" viewBox="0 0 32 32">
<title>player</title>
<path d="M16 0c-6.563 0-11.938 5.375-11.938 11.938 0 0.063 0 0.125 0 0.188s0 0.063 0 0.063c0 0.063 0 0.063 0 0.125s0 0.063 0 0.125v0c0.313 8.688 9.375 19.563 9.375 19.563v-14.375c-3.125-1.438-4.5-5.125-3.125-8.188 1.438-3.188 5.125-4.563 8.188-3.125 3.125 1.375 4.563 5.063 3.125 8.188-0.688 1.625-2.063 2.75-3.688 3.375v5.875c6.5-1.063 10.875-7.188 9.813-13.75-0.875-5.75-5.875-10-11.75-10z"></path>
</svg>
