<!-- Generated by IcoMoon.io -->
<svg version="1.1" xmlns="http://www.w3.org/2000/svg" width="32" height="32" viewBox="0 0 32 32">
<title>portfolio</title>
<path d="M0 1.76c0-0.16 0.064-0.32 0.288-0.32 1.728-0.096 4.288-0.128 6.944-0.128 7.456 0 10.688 4.096 10.688 9.344 0 6.848-4.96 9.792-11.040 9.792-1.024 0-1.376-0.064-2.112-0.064v10.368c0 0.224-0.096 0.288-0.288 0.288h-4.16c-0.224 0-0.288-0.096-0.288-0.288l-0.032-28.992zM4.8 16.064c0.64 0.064 1.12 0.064 2.176 0.064 3.136 0 6.112-1.12 6.112-5.376 0-3.424-2.112-5.152-5.696-5.152-1.088 0-2.112 0.064-2.56 0.096l-0.032 10.368zM20.832 14.176c-0.16 0-0.224-0.096-0.224-0.288v-3.712c0-0.224 0.064-0.288 0.224-0.288h2.496v-1.376c0-1.664 0.288-3.072 0.896-4.288 1.088-2.24 3.008-3.264 5.664-3.264 0.8 0 1.376 0.064 1.824 0.224 0.224 0.096 0.288 0.16 0.288 0.384v3.552c0 0.224-0.096 0.288-0.288 0.288-0.352-0.096-0.864-0.128-1.184-0.128-1.536 0-2.336 1.12-2.336 3.264v1.376h3.52c0.224 0 0.288 0.064 0.288 0.224v3.712c0 0.224-0.064 0.288-0.288 0.288h-3.52v16.608c0 0.16-0.064 0.288-0.288 0.288h-4.256c-0.224 0-0.288-0.128-0.288-0.288v-16.608l-2.528 0.032z"></path>
</svg>
