<!-- Generated by IcoMoon.io -->
<svg version="1.1" xmlns="http://www.w3.org/2000/svg" width="32" height="32" viewBox="0 0 32 32">
<title>qobuz</title>
<path d="M27.904 26.688c2.56-2.848 4.096-6.592 4.096-10.688 0-8.832-7.168-16-16-16s-16 7.168-16 16 7.168 16 16 16c4.128 0 7.872-1.568 10.72-4.096l1.056 1.024c0.16 0.16 0.384 0.256 0.608 0.256s0.416-0.096 0.608-0.256c0.32-0.32 0.32-0.864 0-1.184l-1.088-1.056zM16 30.176c-7.84 0-14.176-6.336-14.176-14.176s6.336-14.176 14.176-14.176 14.176 6.336 14.176 14.176c0 3.616-1.344 6.912-3.584 9.408l-3.552-3.52c-0.32-0.32-0.864-0.32-1.184 0s-0.32 0.864 0 1.184l3.552 3.552c-2.496 2.208-5.792 3.552-9.408 3.552z"></path>
</svg>
