<!-- Generated by IcoMoon.io -->
<svg version="1.1" xmlns="http://www.w3.org/2000/svg" width="32" height="32" viewBox="0 0 32 32">
<title>realtor</title>
<path d="M0 16.096c0.896-0.864 1.792-1.76 2.656-2.624 3.744-3.712 7.456-7.456 11.2-11.168 0.608-0.608 1.216-1.184 1.792-1.792 0.224-0.224 0.352-0.224 0.576 0 2.4 2.432 4.8 4.832 7.2 7.232 2.784 2.784 5.568 5.568 8.352 8.352 0.064 0.064 0.16 0.16 0.224 0.256-0.096 0.096-0.192 0.064-0.288 0.064-1.536 0-3.072 0-4.64-0.032-0.256 0-0.32 0.064-0.32 0.32 0 4.864 0 9.728 0 14.592 0 0.288-0.096 0.384-0.384 0.384-7.2 0-14.4 0-21.6 0-0.32 0-0.352-0.128-0.352-0.384 0-4.896 0-9.824 0.032-14.72 0-0.288-0.096-0.352-0.384-0.352-1.248 0-2.496 0-3.744 0-0.096 0-0.192 0-0.288 0 0-0.064-0.032-0.096-0.032-0.128zM15.2 13.6c0-1.024 0-1.952 0-2.912 0-0.608-0.128-0.768-0.736-0.768-2.016 0-4.032 0-6.080 0-0.288 0-0.384 0.096-0.384 0.384 0 0.352 0.256 0.288 0.448 0.32 0.992 0.128 1.536 0.608 1.696 1.568 0.192 1.056 0.096 2.112 0.096 3.168 0 2.944 0 5.888 0 8.864 0 1.216 0.032 2.432-0.256 3.616-0.128 0.544-0.416 0.928-0.928 1.152-0.384 0.16-0.736 0.32-1.152 0.416-0.128 0.032-0.224 0.064-0.224 0.256-0.032 0.384 0 0.384 0.384 0.384 3.104 0 6.208 0 9.312 0 0.128 0 0.288 0.032 0.256-0.16 0-0.192 0.096-0.416-0.192-0.48-0.32-0.064-0.608-0.224-0.928-0.32-0.768-0.256-1.152-0.768-1.28-1.568-0.128-0.736-0.16-1.504-0.16-2.24 0-1.952 0.032-3.904 0.032-5.888 0-0.736 0-1.504 0.192-2.24 0.352-1.408 0.736-2.752 1.568-3.968 0.352-0.544 0.832-0.992 1.408-1.312 0.256-0.128 0.416-0.064 0.512 0.192 0.064 0.192 0.128 0.384 0.192 0.608 0.128 0.416 0.288 0.832 0.512 1.216 0.896 1.632 3.2 1.856 4.256 0.416 0.768-1.024 0.704-2.88-0.16-3.84-0.8-0.928-1.888-1.12-3.040-0.96-1.76 0.288-3.168 1.216-4.384 2.528-0.352 0.48-0.64 0.992-0.96 1.568z"></path>
</svg>
