<!-- Generated by IcoMoon.io -->
<svg version="1.1" xmlns="http://www.w3.org/2000/svg" width="32" height="32" viewBox="0 0 32 32">
<title>reverbnation</title>
<path d="M31.625 12.688c-3.063 2.188-6.063 4.375-9.188 6.625-0.313 0.188-0.313 0.375-0.25 0.75 1.188 3.563 2.375 7.188 3.563 10.813 0 0.063 0.063 0.188 0.125 0.375-0.188-0.125-0.313-0.25-0.438-0.313-3-2.188-6.063-4.375-9.063-6.563-0.25-0.188-0.5-0.25-0.75 0-3.125 2.25-6.188 4.5-9.375 6.75-0.063 0.063-0.125 0.063-0.25 0.188 0.438-1.375 0.875-2.688 1.25-4 0.813-2.5 1.625-4.938 2.438-7.438 0.063-0.25 0-0.375-0.25-0.563-3.063-2.188-6.063-4.375-9.125-6.625-0.125-0.063-0.188-0.188-0.313-0.313h0.813c3.625 0 7.25 0 10.813 0 0.375 0 0.563-0.063 0.688-0.438 1.125-3.625 2.313-7.25 3.5-10.938 0-0.063 0.063-0.125 0.125-0.313 0.063 0.188 0.125 0.25 0.125 0.375 1.188 3.625 2.375 7.25 3.563 10.875 0.125 0.375 0.25 0.438 0.688 0.438 3.75 0 7.5 0 11.25 0h0.438c-0.188 0.188-0.25 0.25-0.375 0.313z"></path>
</svg>
