<!-- Generated by IcoMoon.io -->
<svg version="1.1" xmlns="http://www.w3.org/2000/svg" width="32" height="32" viewBox="0 0 32 32">
<title>sharepoint</title>
<path d="M28.96 12.896c-0.224 0-0.416 0.032-0.608 0.064-0.768-1.984-2.272-3.584-4.192-4.48 0-0.128 0.032-0.256 0.032-0.384 0-1.664-1.344-3.040-3.040-3.040-0.704 0-1.376 0.256-1.888 0.64v4.768c0.512 0.416 1.184 0.64 1.888 0.64 1.024 0 1.952-0.512 2.496-1.312 1.568 0.768 2.784 2.112 3.392 3.776-0.672 0.544-1.12 1.408-1.12 2.336 0 0.96 0.448 1.824 1.152 2.368-0.608 1.664-1.856 3.040-3.424 3.84-0.544-0.8-1.472-1.312-2.496-1.312-0.704 0-1.376 0.256-1.888 0.64v4.768c0.512 0.416 1.184 0.64 1.888 0.64 1.664 0 3.040-1.344 3.040-3.040 0-0.128 0-0.256-0.032-0.384 1.92-0.928 3.456-2.56 4.224-4.576 0.192 0.032 0.384 0.064 0.576 0.064 1.664 0 3.040-1.344 3.040-3.040 0-1.632-1.344-2.976-3.040-2.976zM0 27.808l17.6 3.2v-30.016l-17.568 3.2-0.032 23.616zM6.592 10.496c1.248-0.768 2.752-0.544 4.128-0.352 0.032 0.832 0.032 1.664 0.064 2.496-1.152-0.352-2.592-1.088-3.52 0.064-0.64 1.696 1.408 2.336 2.4 3.232 1.952 1.248 2.112 4.48 0.288 5.92-1.44 1.056-3.328 0.608-4.832-0.032-0.032-0.864-0.032-1.76-0.064-2.656 0.96 0.704 2.4 1.76 3.552 0.8 0.896-1.504-0.864-2.464-1.888-3.2-2.144-1.248-2.24-4.864-0.128-6.272z"></path>
</svg>
