<!-- Generated by IcoMoon.io -->
<svg version="1.1" xmlns="http://www.w3.org/2000/svg" width="32" height="32" viewBox="0 0 32 32">
<title>smashcast</title>
<path d="M8.192 12.704c-0.224 0-0.48 0-0.704-0.128l-4.704-1.984c-0.96-0.352-1.312-1.408-0.96-2.368s1.408-1.312 2.368-0.96l4.736 2.016c0.96 0.352 1.312 1.408 0.96 2.368-0.256 0.576-0.96 1.056-1.696 1.056zM28.512 21.44c-0.224 0-0.48 0-0.704-0.128l-4.48-2.016c-0.96-0.352-1.312-1.408-0.96-2.368s1.408-1.312 2.368-0.96l4.48 2.016c0.96 0.352 1.312 1.408 0.96 2.368-0.352 0.736-0.96 1.088-1.664 1.088zM10.112 30.176c-0.224 0-0.48 0-0.704-0.128-0.96-0.352-1.312-1.408-0.96-2.368l2.72-6.24c0.352-0.96 1.408-1.312 2.368-0.96s1.312 1.408 0.96 2.368l-2.752 6.272c-0.352 0.576-1.056 1.056-1.632 1.056zM19.552 8.224c-0.224 0-0.48 0-0.704-0.128-0.96-0.352-1.312-1.408-0.96-2.368l1.184-2.848c0.352-0.96 1.408-1.312 2.368-0.96s1.312 1.408 0.96 2.368l-1.184 2.848c-0.384 0.608-0.96 1.088-1.664 1.088zM20.672 32c-0.704 0-1.408-0.48-1.664-1.056l-2.464-6.272c-0.352-0.96 0.128-1.888 0.96-2.368 0.96-0.352 1.888 0.128 2.368 0.96l2.464 6.272c0.352 0.96-0.128 1.888-0.96 2.368-0.224 0.096-0.48 0.096-0.704 0.096zM22.912 14.528c-0.704 0-1.408-0.48-1.664-1.056-0.352-0.96 0.128-1.888 0.96-2.368l6.272-2.464c0.96-0.352 1.888 0.128 2.368 0.96 0.352 0.96-0.128 1.888-0.96 2.368l-6.272 2.432c-0.224 0.128-0.48 0.128-0.704 0.128zM11.808 9.792c-0.704 0-1.408-0.48-1.664-1.056l-2.464-6.24c-0.352-0.96 0.128-1.888 0.96-2.368 0.96-0.352 1.888 0.128 2.368 0.96l2.464 6.272c0.352 0.96-0.128 1.888-0.96 2.368-0.224 0.064-0.48 0.064-0.704 0.064zM2.848 22.56c-0.704 0-1.408-0.48-1.664-1.056-0.352-0.96 0.128-1.888 0.96-2.368l4.128-1.664c0.96-0.352 2.016 0.128 2.368 0.96 0.352 0.96-0.128 1.888-0.96 2.368l-4.128 1.664c-0.256 0.096-0.48 0.096-0.704 0.096z"></path>
</svg>
