<!-- Generated by IcoMoon.io -->
<svg version="1.1" xmlns="http://www.w3.org/2000/svg" width="32" height="32" viewBox="0 0 32 32">
<title>snapchat</title>
<path d="M31.36 23.456c-4.256-0.704-6.208-5.12-6.272-5.312-0.256-0.448-0.32-0.8-0.192-1.12 0.256-0.512 1.12-0.8 1.76-0.992 0.128-0.064 0.32-0.128 0.448-0.192 0.576-0.192 0.992-0.448 1.312-0.736 0.32-0.32 0.384-0.64 0.384-0.864 0-0.512-0.448-0.928-1.056-1.184-0.192-0.064-0.448-0.128-0.704-0.128-0.192 0-0.448 0-0.64 0.128-0.512 0.256-0.928 0.384-1.376 0.384-0.192 0-0.32-0.064-0.448-0.064 0.064-0.256 0.064-0.448 0.064-0.64v-0.128c0.128-2.144 0.32-4.896-0.384-6.432-0.512-1.12-1.184-2.080-2.016-2.816-0.64-0.704-1.44-1.184-2.304-1.568-1.504-0.704-2.944-0.8-3.616-0.8-0.064 0-0.064 0-0.064 0-0.192 0-0.576 0-0.576 0-0.704 0-2.144 0.128-3.68 0.8-0.864 0.384-1.632 0.864-2.304 1.568-0.8 0.736-1.44 1.696-1.952 2.752-0.736 1.632-0.576 4.32-0.448 6.496 0 0.256 0.064 0.512 0.064 0.704-0.128 0.064-0.32 0.128-0.576 0.128-0.384 0-0.864-0.128-1.376-0.384-0.192-0.064-0.384-0.128-0.576-0.128-0.32 0-0.704 0.128-0.928 0.256-0.384 0.256-0.64 0.576-0.704 0.864-0.064 0.256-0.064 0.704 0.448 1.12 0.256 0.256 0.704 0.512 1.184 0.704 0.128 0.064 0.32 0.128 0.512 0.192 0.576 0.192 1.44 0.448 1.696 0.992 0.128 0.32 0.064 0.704-0.128 1.12-0.064 0-0.064 0-0.064 0-0.064 0.128-0.576 1.312-1.632 2.496-0.576 0.704-1.184 1.312-1.952 1.76-0.8 0.576-1.76 0.864-2.688 1.056-0.384 0.064-0.704 0.384-0.64 0.736 0 0.128 0 0.256 0.064 0.384 0.128 0.32 0.512 0.64 1.056 0.928 0.704 0.32 1.76 0.576 3.136 0.8 0.064 0.128 0.128 0.448 0.192 0.704s0.128 0.512 0.192 0.736c0.128 0.256 0.32 0.64 0.864 0.64 0.192 0 0.448-0.064 0.736-0.128 0.384-0.064 0.928-0.192 1.696-0.192 0.384 0 0.736 0.064 1.184 0.128 0.736 0.128 1.44 0.576 2.24 1.12 1.12 0.8 2.432 1.76 4.384 1.76 0.064 0 0.128 0 0.192 0s0.128 0 0.256 0c1.952 0 3.264-0.928 4.384-1.76 0.8-0.576 1.504-0.992 2.24-1.12 0.448-0.064 0.8-0.128 1.248-0.128 0.64 0 1.184 0.064 1.632 0.192 0.32 0.064 0.576 0.064 0.736 0.064h0.192c0.384 0 0.704-0.192 0.8-0.576 0.064-0.256 0.128-0.512 0.192-0.736 0.064-0.256 0.128-0.576 0.192-0.704 1.376-0.256 2.432-0.512 3.136-0.8 0.576-0.32 0.928-0.576 1.056-0.928 0.064-0.128 0.064-0.256 0.064-0.384 0.064-0.416-0.256-0.704-0.64-0.768z"></path>
</svg>
