<!-- Generated by IcoMoon.io -->
<svg version="1.1" xmlns="http://www.w3.org/2000/svg" width="32" height="32" viewBox="0 0 32 32">
<title>society6</title>
<path d="M28 13.056c-1.152-0.288-2.304-0.192-3.456 0-1.28 0.224-2.4 0.864-3.648 1.6 1.472-5.216 5.472-7.968 9.408-8.48 0.896-0.128 0.704-0.64 0.672-1.152-0.032-0.704-0.544-0.448-0.864-0.416-2.528 0.384-5.024 1.024-7.264 2.272-3.392 1.888-5.952 4.288-7.392 7.456 0-0.736-0.384-1.536-1.12-2.016-0.416-0.288-0.864-0.512-1.376-0.608-2.336-0.544-4.64-0.544-6.944 0.128-1.088 0.32-2.048 0.832-2.816 1.664-1.696 1.76-1.536 4.448 0.352 6.016 0.736 0.608 1.6 1.024 2.496 1.344 0.8 0.288 1.664 0.544 2.4 0.992 1.024 0.608 1.312 1.44 0.96 2.56s-1.216 1.568-2.304 1.824c-0.704 0.16-1.184 0.096-1.376-0.768-0.256-1.12-0.736-2.144-1.664-2.912-1.088-0.928-2.784-0.736-3.616 0.32s-0.512 2.464 0.704 3.36c0.544 0.384 1.152 0.64 1.792 0.8 2.272 0.544 4.544 0.576 6.816 0.064 2.432-0.544 4.256-1.824 4.704-4.672 0.096 0.352 0.224 0.704 0.352 1.056 0.256 0.64 0.608 1.184 1.024 1.664 0 0 0-0.032 0-0.032 0.736 0.832 1.664 1.472 2.816 1.888 1.568 0.544 3.2 0.576 4.832 0.384 4.16-0.512 7.776-3.84 8.416-7.84 0.512-3.136-1.088-5.792-3.904-6.496zM10.464 17.728c-0.8-0.288-1.6-0.544-2.336-0.928-1.28-0.64-1.568-2.144-0.64-3.264 0.384-0.448 0.864-0.736 1.44-0.96s0.928-0.16 1.12 0.576c0.256 1.088 0.704 2.112 1.632 2.816 0.992 0.768 2.496 0.608 3.296-0.256-0.448 1.376-0.704 2.88-0.736 4.544 0 0.064 0 0.128 0 0.192 0 0.032-0.032 0.032-0.032 0.064-0.992-1.44-1.856-2.080-3.744-2.784zM24.416 24.768c-0.288 0.416-0.64 0.768-1.088 1.024-1.216 0.704-2.4 0.416-3.072-0.832-0.608-1.088-0.64-2.304-0.608-3.68-0.064-1.312 0.224-2.72 0.544-4.16 0.192-0.928 1.568-1.952 2.816-2.112 1.664-0.224 2.88 0.576 3.136 2.24 0.384 2.72-0.128 5.248-1.728 7.52z"></path>
</svg>
