<!-- Generated by IcoMoon.io -->
<svg version="1.1" xmlns="http://www.w3.org/2000/svg" width="32" height="32" viewBox="0 0 32 32">
<title>soroush</title>
<path d="M31.52 13.856c-0.096-0.896-0.288-1.824-0.544-2.688-0.256-0.896-0.608-1.728-1.024-2.56-0.512-0.992-1.12-1.952-1.824-2.816-0.608-0.768-1.312-1.472-2.080-2.112s-1.568-1.216-2.432-1.696c-0.704-0.384-1.472-0.768-2.272-1.024-0.704-0.256-1.44-0.48-2.176-0.608-0.736-0.16-1.504-0.224-2.272-0.32h-1.76c-0.256 0.032-0.512 0.064-0.736 0.096-2.976 0.288-5.856 1.472-8.192 3.36-0.448 0.352-0.832 0.704-1.216 1.088-0.864 0.864-1.632 1.824-2.272 2.848-0.448 0.736-0.864 1.504-1.184 2.336-0.352 0.832-0.608 1.696-0.8 2.56-0.16 0.704-0.256 1.44-0.32 2.144-0.064 1.184-0.032 2.4 0.16 3.584 0.16 1.056 0.448 2.080 0.8 3.072 0.384 1.056 0.928 2.080 1.536 3.040 0.8 1.216 1.792 2.336 2.912 3.296 2.016 1.76 4.512 2.976 7.168 3.456 2.976 0.608 6.144 0.288 8.96-0.896 1.216 0.64 2.432 1.344 3.68 1.984h0.256c0.064-0.096 0.096-0.16 0.128-0.256 0.064-1.408 0.032-2.784 0.032-4.192 1.888-1.568 3.392-3.584 4.352-5.824 0.512-1.184 0.896-2.464 1.056-3.744 0.192-1.376 0.224-2.752 0.064-4.128zM9.856 24c-0.64-0.544-1.344-1.12-1.76-1.856 0.32 0.064 0.608 0.256 0.896 0.352 1.408 0.48 3.072 0.224 4.224-0.768 0.8-0.64 1.376-1.568 1.6-2.592 0.192-0.928 0.064-1.92-0.224-2.816-0.224-0.864-0.576-1.728-0.736-2.592-0.128-0.832-0.16-1.696 0.032-2.528 0.224-1.056 0.704-2.080 1.408-2.912 1.28-1.44 3.232-2.336 5.184-2.144 0.032 0 0.064 0.032 0.064 0.064-0.928 0.704-1.44 2.016-1.024 3.136 0.256 0.8 0.736 1.504 1.216 2.176 0.544 0.768 1.12 1.472 1.632 2.24 0.448 0.736 0.8 1.504 1.056 2.336 0.288 1.056 0.416 2.176 0.288 3.264-0.096 0.832-0.384 1.664-0.8 2.4-1.056 1.792-2.848 3.072-4.832 3.68-2.72 0.896-5.92 0.352-8.224-1.44z"></path>
</svg>
