<!-- Generated by IcoMoon.io -->
<svg version="1.1" xmlns="http://www.w3.org/2000/svg" width="32" height="32" viewBox="0 0 32 32">
<title>spip</title>
<path d="M25.216 25.276c-0.094 0-0.094 0 0 0-1.478-5.788-7.487-5.19-8.461-9.122-0.66-2.768 1.132-4.875 3.9-5.537 1.636-0.408 3.24 0 4.467 1.070 0.157 0.157 0.409 0.315 0.567 0.567v0 0c0 0.094 0.094 0.094 0.094 0.157l0.095 0.094 0.094 0.094c0.252 0.315 0.408 0.567 0.66 0.504 0.157-0.094 0.315-0.504 0.315-0.724 0.157-1.29 0.094-2.611-0.252-3.995-1.478-5.945-7.392-9.531-13.337-8.053s-9.531 7.392-8.052 13.337c1.95 7.958 9.437 9.28 13.432 11.292 0.881 0.409 1.541 1.227 1.793 2.202 0.409 1.793-0.66 3.587-2.453 3.995v0c-0.095 0-0.095 0-0.157 0-0.315 0.094-0.409 0-0.409 0.157 0 0.094 0.252 0.251 0.409 0.315 0.975 0.408 2.108 0.503 3.24 0.157 2.925-0.629 4.687-3.555 4.057-6.511v0 0 0z"></path>
</svg>
