<!-- Generated by IcoMoon.io -->
<svg version="1.1" xmlns="http://www.w3.org/2000/svg" width="32" height="32" viewBox="0 0 32 32">
<title>splice</title>
<path d="M12.26 20.326c0.174-0.034 0.288-0.202 0.254-0.376-0.010-0.053-0.034-0.102-0.068-0.144l-0.372-0.372c-0.894-0.894-0.895-2.343-0.001-3.237 0-0 0.001-0.001 0.001-0.001l8.378-8.378c1.788-1.791 1.785-4.692-0.006-6.48s-4.692-1.785-6.48 0.006l-7.288 7.316c-2.671 2.69-2.656 7.036 0.035 9.708 1.462 1.452 3.499 2.17 5.548 1.956zM20.452 10.662c-0.243 0.001-0.486 0.015-0.728 0.042-0.166 0.010-0.293 0.153-0.283 0.319 0.005 0.078 0.039 0.151 0.097 0.204l0.375 0.375c0.891 0.894 0.891 2.34 0 3.235l-9.154 9.164c-1.891 1.676-2.066 4.567-0.39 6.459s4.567 2.066 6.459 0.39c0.136-0.121 0.265-0.249 0.386-0.385l8.092-8.080c2.681-2.683 2.679-7.031-0.004-9.712-1.287-1.286-3.031-2.009-4.85-2.010z"></path>
</svg>
