<!-- Generated by IcoMoon.io -->
<svg version="1.1" xmlns="http://www.w3.org/2000/svg" width="32" height="32" viewBox="0 0 32 32">
<title>stage32</title>
<path d="M31.904 0.096c-10.624 0-21.248 0-31.84 0 0 10.624 0 21.28 0 31.904 0 0.096 0.032 0.096 0.096 0.096 10.624 0 21.28 0 31.904 0 0-10.624 0-21.248 0-31.84-0.032-0.16-0.032-0.16-0.16-0.16zM22.88 5.216c1.088 0 2.144 0 3.232 0 0.096 0 0.128 0 0.128 0.096 0 0.16 0 0.32 0 0.512 0 0.096-0.032 0.128-0.128 0.128-0.8 0-1.6 0-2.4 0-0.096 0-0.128 0.032-0.128 0.128 0 0.352 0 0.704 0 1.056 0 0.096 0.032 0.128 0.096 0.128 0.736 0 1.472 0 2.208 0 0.096 0 0.128 0.032 0.128 0.128 0 0.16 0 0.288 0 0.448 0 0.096-0.032 0.128-0.128 0.128-0.736 0-1.472 0-2.208 0-0.096 0-0.128 0.032-0.128 0.128 0 0.384 0 0.8 0 1.184 0 0.096 0.032 0.096 0.096 0.096 0.8 0 1.632 0 2.432 0 0.096 0 0.128 0.032 0.128 0.128 0 0.16 0 0.352 0 0.512 0 0.064 0 0.096-0.096 0.096-1.12 0-2.24 0-3.36 0-0.096 0-0.064-0.064-0.064-0.096 0-0.768 0-1.536 0-2.304s0-1.536 0-2.304c0.064-0.16 0.096-0.192 0.192-0.192zM17.792 6.176c0.48-0.8 1.216-1.088 2.112-1.024 0.448 0.032 0.864 0.16 1.248 0.448 0.352 0.288 0.544 0.672 0.608 1.088 0 0.064 0 0.064-0.064 0.064-0.224 0-0.448 0-0.672 0-0.032 0-0.064 0-0.064-0.064-0.064-0.512-0.544-0.864-1.152-0.896-0.672-0.032-1.152 0.288-1.376 0.928-0.224 0.608-0.224 1.248 0.032 1.856 0.288 0.672 0.832 0.96 1.536 0.864 0.64-0.064 1.024-0.48 1.088-1.184 0-0.128 0-0.128-0.128-0.128-0.352 0-0.704 0-1.056 0-0.096 0-0.128-0.032-0.128-0.096 0-0.16 0-0.32 0-0.448 0-0.064 0.032-0.064 0.064-0.064 0.64 0 1.28 0 1.92 0 0.064 0 0.064 0.032 0.064 0.064 0 0.8 0 1.6 0 2.4 0 0.064-0.032 0.064-0.064 0.064-0.128 0-0.256 0-0.384 0-0.064 0-0.096-0.032-0.128-0.096-0.032-0.16-0.064-0.32-0.096-0.48 0 0-0.032 0-0.032 0-0.064 0.096-0.16 0.16-0.224 0.256-0.288 0.256-0.608 0.384-0.992 0.416-0.704 0.032-1.312-0.128-1.824-0.672-0.352-0.352-0.544-0.8-0.64-1.28-0.096-0.704-0.032-1.376 0.352-2.016zM9.28 5.344c0-0.064 0.032-0.096 0.096-0.096 0.224 0 0.448 0 0.672 0 0.992 0 2.016 0 3.008 0 0.096 0 0.128 0 0.128 0.096 0 0.16 0 0.352 0 0.512 0 0.096-0.032 0.096-0.096 0.096-0.448 0-0.896 0-1.312 0-0.096 0-0.096 0.032-0.096 0.096 0 0.64 0 1.312 0 1.952s0 1.312 0 1.952c0 0.096-0.032 0.096-0.096 0.096-0.224 0-0.416 0-0.64 0-0.096 0-0.128-0.032-0.128-0.128 0-1.28 0-2.528 0-3.808 0-0.192 0-0.192-0.192-0.192-0.416 0-0.832 0-1.216 0-0.096 0-0.128 0-0.096-0.096-0.032-0.128-0.032-0.32-0.032-0.48zM5.152 8.448c0.224 0 0.448 0 0.672 0 0.032 0 0.064 0 0.096 0.064 0.032 0.512 0.32 0.832 0.896 0.928 0.288 0.032 0.544 0.032 0.8-0.032 0.416-0.128 0.608-0.448 0.512-0.864-0.064-0.224-0.192-0.32-0.384-0.416-0.32-0.128-0.672-0.192-0.992-0.288-0.256-0.064-0.48-0.128-0.704-0.224-0.416-0.192-0.736-0.48-0.768-0.96-0.064-0.512 0.128-0.96 0.576-1.248 0.416-0.288 0.896-0.352 1.376-0.32 0.416 0.032 0.8 0.128 1.12 0.384 0.352 0.256 0.512 0.608 0.544 1.056 0 0.064 0 0.096-0.096 0.096s-0.224 0-0.32 0c-0.128 0-0.224 0-0.352 0-0.064 0-0.064 0-0.096-0.064-0.064-0.512-0.416-0.736-0.896-0.768-0.256-0.032-0.48 0-0.704 0.096-0.192 0.096-0.32 0.256-0.32 0.48s0.096 0.416 0.288 0.544c0.192 0.128 0.384 0.16 0.608 0.192 0.352 0.096 0.704 0.192 1.024 0.288 0.544 0.16 0.896 0.512 0.992 1.056s-0.16 1.088-0.64 1.376c-0.448 0.288-0.96 0.352-1.472 0.32-0.352-0.032-0.704-0.096-1.024-0.288-0.512-0.288-0.736-0.768-0.768-1.344-0.064-0.032-0.032-0.064 0.032-0.064zM13.056 26.4c-0.672 0.352-1.408 0.576-2.144 0.64-1.056 0.096-2.048 0-3.040-0.384-1.472-0.608-2.368-1.728-2.688-3.296-0.096-0.416-0.128-0.832-0.128-1.248 0-0.096 0.032-0.096 0.096-0.096 0.416 0 0.832 0 1.248 0s0.8 0 1.216 0c0.096 0 0.128 0.032 0.128 0.128 0.032 0.576 0.16 1.088 0.448 1.568 0.384 0.608 0.96 0.96 1.696 1.024 0.576 0.064 1.12-0.032 1.6-0.352 0.608-0.384 0.928-0.96 0.96-1.696 0.032-0.352 0-0.704-0.16-1.024-0.192-0.512-0.608-0.832-1.12-0.992-0.416-0.128-0.832-0.16-1.28-0.192-0.224 0-0.416 0-0.64 0-0.064 0-0.096-0.032-0.096-0.096 0-0.608 0-1.216 0-1.824 0-0.064 0.032-0.096 0.096-0.096 0.608 0.032 1.216 0 1.824-0.224 0.512-0.192 0.896-0.512 1.024-1.056 0.224-0.96-0.224-1.984-1.376-2.24-0.672-0.16-1.312-0.064-1.888 0.384-0.416 0.32-0.64 0.8-0.736 1.312-0.032 0.224-0.064 0.448-0.064 0.672 0 0.064 0 0.064-0.064 0.064-0.832 0-1.696 0-2.528 0-0.032 0-0.064 0-0.064-0.064 0.096-1.696 0.704-3.104 2.176-4.064 0.608-0.384 1.28-0.608 2.016-0.672 1.184-0.128 2.336 0.096 3.36 0.672 0.768 0.448 1.376 1.024 1.696 1.888 0.416 1.088 0.352 2.112-0.288 3.104-0.32 0.512-0.8 0.832-1.344 0.992-0.032 0-0.096 0-0.064 0.064 0 0.032 0.064 0.032 0.096 0.032 1.216 0.288 2.144 1.28 2.336 2.496 0.32 1.952-0.576 3.68-2.304 4.576zM15.712 8.8c-0.576 0-1.152 0-1.76 0-0.064 0-0.096 0.032-0.128 0.096-0.128 0.384-0.256 0.736-0.384 1.12 0 0.032-0.032 0.064-0.096 0.064-0.256 0-0.512 0-0.8 0 0.16-0.416 0.32-0.832 0.48-1.248 0.448-1.152 0.896-2.336 1.344-3.488 0.032-0.064 0.064-0.096 0.128-0.096 0.224 0 0.48 0 0.704 0 0.064 0 0.096 0 0.128 0.064 0.608 1.568 1.184 3.136 1.792 4.672 0 0.032 0 0.032 0.032 0.064-0.288 0-0.576 0-0.864 0-0.064 0-0.064-0.032-0.064-0.096-0.128-0.384-0.256-0.736-0.384-1.12 0-0.032-0.032-0.032-0.128-0.032zM26.496 26.72c0 0.096-0.032 0.096-0.096 0.096-3.36 0-6.688 0-10.048 0-0.064 0-0.096 0-0.096-0.096 0.032-1.344 0.416-2.528 1.248-3.584 0.512-0.608 1.088-1.12 1.728-1.6 0.768-0.576 1.568-1.088 2.368-1.632 0.448-0.288 0.864-0.608 1.248-1.024 0.352-0.384 0.64-0.864 0.704-1.376 0.096-0.736-0.032-1.44-0.608-1.984-0.352-0.352-0.8-0.512-1.312-0.544-0.96-0.032-1.632 0.384-2.016 1.312-0.256 0.576-0.352 1.184-0.352 1.792 0 0.096-0.032 0.128-0.128 0.128-0.832 0-1.664 0-2.496 0-0.032 0-0.096 0.032-0.096-0.064-0.032-1.12 0.16-2.208 0.736-3.2 0.704-1.248 1.792-2.016 3.232-2.272 1.088-0.192 2.176-0.128 3.2 0.288 1.248 0.512 2.144 1.344 2.528 2.656 0.48 1.728 0.128 3.264-1.12 4.576-0.512 0.512-1.12 0.928-1.728 1.344-0.672 0.448-1.344 0.832-1.952 1.312-0.544 0.416-1.024 0.864-1.44 1.408-0.032 0.032-0.032 0.064-0.064 0.096 0.064 0 0.096 0 0.128 0 2.112 0 4.224 0 6.336 0 0.096 0 0.128 0.032 0.128 0.128-0.032 0.736-0.032 1.504-0.032 2.24zM14.496 7.104c-0.128 0.32-0.224 0.64-0.352 0.96-0.032 0.032-0.032 0.064 0.032 0.064 0.48 0 0.928 0 1.408 0-0.256-0.704-0.48-1.408-0.736-2.080-0.128 0.352-0.256 0.704-0.352 1.056z"></path>
</svg>
