<!-- Generated by IcoMoon.io -->
<svg version="1.1" xmlns="http://www.w3.org/2000/svg" width="32" height="32" viewBox="0 0 32 32">
<title>streamjar</title>
<path d="M26 3.688c-2.313 0.5-6 0.813-10.188 0.813s-7.938-0.313-10.188-0.813c-1.438 0.313-2.125 0.375-1.938 1.125 0.25 1 5.188 1.938 12.125 1.938s12.25-0.938 12.5-1.938c0.188-0.75-0.875-0.813-2.313-1.125zM26.063 3.313c-4.438 0.625-8 0.75-10.438 0.75-1.625 0-3.25 0-5.438-0.25-1.75-0.188-4.438-0.563-4.438-0.563 0.063-0.875 0.125-2 1.25-2.688 0.625-0.375 1.5-0.5 1.813-0.5 1.813-0.063 12.563-0.063 14.438 0 0.25 0 1.188 0.125 1.75 0.5 1.188 0.688 1.188 1.813 1.313 2.688 0 0-2.688 0.375-4.5 0.563-2.188 0.25-3.813 0.25-5.375 0.25-2.438 0-6.063-0.125-10.438-0.75M26.938 8.375c-0.125 0-0.313 0-0.563-0.063 0 0-1.688-0.188-3.438 0.625-0.125 0.063-0.313 0.125-0.438 0.25 0 0-0.25 0.25-0.438 0.563-0.125 0.25-1.75 6.938-2.313 7.875s-1.813 3.125-3.25 4.375c-2.125 1.688-5.313 3.063-6.813 3.25-0.75 0.125-1.5 0.25-2.313 0.313-0.25 0-0.875 0-1.625 0.188-0.188 0-0.563 0.563-0.625 0.813s-0.125 1.063 0.063 2.125c0.125 0.75 0.313 1.625 1 2.375 0.75 0.625 1.563 0.813 2.063 0.813 0.188 0.063 0.375 0.125 0.688 0.063h14.75c1.813 0 3.25-1.438 3.25-3.188z"></path>
</svg>
