<!-- Generated by IcoMoon.io -->
<svg version="1.1" xmlns="http://www.w3.org/2000/svg" width="32" height="32" viewBox="0 0 32 32">
<title>teamspeak</title>
<path d="M0.192 14.88c0.16-0.96 0.672-1.696 1.568-2.112 0.224-0.128 0.352-0.224 0.384-0.48 0.384-2.080 1.216-4 2.464-5.728 0.16-0.192 0.256-0.32 0.064-0.576-0.224-0.32-0.064-0.64 0.192-0.896 1.728-2.048 3.84-3.488 6.368-4.256 5.984-1.824 11.264-0.576 15.776 3.776 0.416 0.384 0.96 0.8 0.448 1.536-0.096 0.128 0.064 0.224 0.128 0.32 1.28 1.76 2.144 3.712 2.528 5.856 0.064 0.224 0.192 0.32 0.352 0.384 1.088 0.544 1.6 1.472 1.632 2.656 0 1.088 0.128 2.144-0.064 3.232-0.256 1.536-1.824 2.624-3.328 2.304-0.448-0.096-0.576-0.448-0.576-0.896 0-1.76 0.064-3.52 0-5.28-0.128-4.736-2.272-8.288-6.4-10.592-6.944-3.808-15.84 0.384-17.376 8.192-0.384 1.888-0.096 3.008-0.224 7.872-0.032 0.448-0.256 0.704-0.736 0.704-1.92 0.096-3.232-1.152-3.232-3.072v-1.312zM13.984 23.2c0.736-0.256 1.248-0.736 1.408-1.536 0.16-0.768-0.736-1.888-2.016-3.040-1.312-1.216-3.008-2.432-3.968-2.912-1.344-0.736-2.624-0.128-2.88 1.408-0.32 1.632 0 3.2 0.896 4.608 0.64 0.96 1.6 1.408 2.72 1.504 0.736 0.064 3.264 0.16 3.84-0.032zM22.112 23.552c2.272 0.16 3.712-1.792 3.648-3.776-0.128-2.816-4.128-1.024-5.472-0.512-4.576 1.76-2.816 3.424-1.376 3.808zM28.224 22.976c-0.192-0.16-0.448-0.064-0.512 0.16-0.512 1.6-2.784 7.040-10.752 7.584-9.344 0.64 5.024 2.72 9.088-0.384 1.408-1.088 2.976-2.176 2.912-5.344-0.064-0.64-0.32-1.664-0.736-2.016z"></path>
</svg>
