<!-- Generated by IcoMoon.io -->
<svg version="1.1" xmlns="http://www.w3.org/2000/svg" width="32" height="32" viewBox="0 0 32 32">
<title>threema</title>
<path d="M16.054 27.438c-1.307 0-2.265 0.959-2.265 2.267 0 1.288 0.992 2.294 2.262 2.295 1.261 0 2.296-1.027 2.295-2.28-0-1.299-0.988-2.282-2.293-2.281zM7.72 27.438c-1.305-0.001-2.285 0.968-2.287 2.259-0.002 1.275 1.009 2.3 2.27 2.303 1.266 0.003 2.283-1.015 2.285-2.285 0.002-1.3-0.97-2.276-2.268-2.276zM24.482 27.438c-1.309 0-2.268 0.959-2.268 2.268-0 1.289 0.996 2.296 2.269 2.293 1.262-0.003 2.285-1.029 2.286-2.294 0.002-1.284-0.991-2.267-2.287-2.267zM17.652 7.428c-0.689-0.649-1.52-0.884-2.442-0.57-0.914 0.311-1.467 0.964-1.615 1.915-0.13 0.831-0.032 1.674-0.055 2.511-0.007 0.254 0.084 0.348 0.343 0.343 0.693-0.013 1.386-0.004 2.079-0.004 0.676 0 1.352 0.001 2.028-0 0.355-0.001 0.373-0.020 0.373-0.383 0.001-0.71 0.002-1.42-0-2.13-0.002-0.659-0.243-1.24-0.711-1.681zM30.428 6.878c-1.449-2.27-3.482-3.866-5.885-5.005-3.252-1.542-6.689-2.086-10.267-1.799-2.352 0.188-4.606 0.751-6.74 1.762-2.192 1.037-4.104 2.44-5.535 4.424-1.818 2.521-2.474 5.29-1.639 8.332 0.574 2.091 1.772 3.802 3.372 5.237 0.304 0.273 0.438 0.572 0.42 0.965-0.016 0.356-0.113 0.691-0.242 1.019-0.313 0.799-0.728 1.548-1.141 2.297-0.31 0.562-0.632 1.117-0.947 1.676-0.035 0.063-0.103 0.133-0.036 0.209 0.054 0.061 0.13 0.023 0.194 0.010 0.218-0.044 0.438-0.084 0.652-0.14 1.846-0.484 3.672-1.044 5.475-1.666 1.376-0.475 2.759-0.542 4.174-0.331 1.237 0.185 2.478 0.303 3.916 0.325 0.386-0.023 0.958-0.049 1.529-0.092 2.352-0.181 4.606-0.749 6.74-1.759 2.192-1.037 4.092-2.448 5.538-4.422 1.231-1.681 1.945-3.556 1.989-5.648 0.041-1.952-0.519-3.749-1.568-5.392zM20.987 17.621c-0.001 0.522-0.37 0.887-0.889 0.888-1.078 0.003-2.156 0.001-3.235 0.001-0.95 0-1.9 0.016-2.85-0.005-0.752-0.016-1.504-0.042-2.256-0.047-0.508-0.004-0.848-0.363-0.849-0.867-0.003-1.694-0.004-3.389-0.004-5.083 0-0.476 0.262-0.799 0.73-0.872 0.199-0.031 0.255-0.122 0.254-0.305-0.004-0.702 0.008-1.404-0-2.105-0.024-1.974 1.244-3.692 3.184-4.089 1.249-0.256 2.474-0.042 3.492 0.846 0.963 0.84 1.48 1.879 1.455 3.175-0.014 0.71 0.004 1.42-0.001 2.131-0.002 0.211 0.047 0.322 0.29 0.351 0.428 0.052 0.68 0.365 0.68 0.796 0.002 1.728 0.002 3.457-0.002 5.186z"></path>
</svg>
