<!-- Generated by IcoMoon.io -->
<svg version="1.1" xmlns="http://www.w3.org/2000/svg" width="32" height="32" viewBox="0 0 32 32">
<title>tiktok</title>
<path d="M16.096 0v20.16c0 0.928-0.096 1.76-0.288 2.496-1.312 2.848-4.448 3.168-6.368 1.984 0-0.032-0.032-0.032-0.032-0.064s-0.032-0.064-0.032-0.096c-1.28-2.88 0.32-6.912 5.184-6.208 0-5.6 0 0 0-5.6-0.064 0-0.16-0.032-0.224-0.032-0.032 0-0.064 0-0.064 0-0.032 0-0.064 0-0.096 0-0.288-0.032-0.544-0.064-0.832-0.064 0 3.552 0-0.704 0 4.416-4.864-0.704-6.464 3.328-5.184 6.208 0.256 0.608 0.736 1.088 1.312 1.472 0.576 1.088 1.792 1.792 3.104 1.952 0 0 0 0 0 0 0.032 0 0.096 0 0.128 0 0 0 0 0 0 0 0.032 0 0.096 0 0.128 0 0 0 0 0 0.032 0s0.096 0 0.128 0c0 0 0.032 0 0.032 0 0.032 0 0.064 0 0.128 0 0 0 0.032 0 0.032 0 0.032 0 0.064 0 0.096 0 0 0 0.032 0 0.032 0 0.032 0 0.064 0 0.096 0 0 0 0.032 0 0.032 0 0.032 0 0.064 0 0.096 0s0.032 0 0.064 0 0.064 0 0.096 0c0.032 0 0.032 0 0.064 0s0.064 0 0.096 0c0.032 0 0.032 0 0.064 0s0.064 0 0.096 0c0.032 0 0.032 0 0.064 0s0.064 0 0.064-0.032c0.032 0 0.032 0 0.064-0.032 0.032 0 0.064 0 0.064-0.032 0.032 0 0.032 0 0.064-0.032 0.032 0 0.032 0 0.064-0.032 0.032 0 0.064 0 0.064-0.032 0.032 0 0.032 0 0.064-0.032 0.032 0 0.064-0.032 0.064-0.032 0.032 0 0.032 0 0.064-0.032 0.032 0 0.064-0.032 0.096-0.032s0.032 0 0.064-0.032c0.032 0 0.064-0.032 0.096-0.032s0.032-0.032 0.064-0.032c0.032 0 0.064-0.032 0.096-0.032s0.032-0.032 0.064-0.032c0.032 0 0.064-0.032 0.096-0.032 0 0 0.032-0.032 0.032-0.032 0.032-0.032 0.064-0.032 0.096-0.064 0 0 0.032-0.032 0.032-0.032 0.032-0.032 0.064-0.032 0.096-0.064 0 0 0.032-0.032 0.032-0.032 0.032-0.032 0.064-0.032 0.096-0.064 0 0 0.032-0.032 0.032-0.032 0.032-0.032 0.064-0.032 0.096-0.064 0 0 0.032-0.032 0.032-0.032 0.032-0.032 0.064-0.032 0.096-0.064 0 0 0.032-0.032 0.032-0.032 0.032-0.032 0.064-0.064 0.096-0.064 0 0 0.032-0.032 0.032-0.032 0.032-0.032 0.064-0.064 0.096-0.096 0 0 0.032-0.032 0.032-0.032 0.032-0.032 0.064-0.064 0.096-0.096 0 0 0.032-0.032 0.032-0.032 0.032-0.032 0.064-0.064 0.096-0.096 0 0 0.032-0.032 0.032-0.032 0.032-0.032 0.064-0.064 0.096-0.096 0 0 0-0.032 0.032-0.032 0.032-0.032 0.064-0.064 0.096-0.096 0 0 0-0.032 0.032-0.032 0.032-0.032 0.064-0.064 0.096-0.128 0 0 0-0.032 0.032-0.032 0.032-0.032 0.064-0.096 0.096-0.128 0 0 0 0 0.032-0.032s0.064-0.096 0.064-0.128c0 0 0 0 0-0.032 0.032-0.032 0.064-0.096 0.064-0.128 0 0 0 0 0-0.032 0.032-0.064 0.064-0.096 0.064-0.16 0 0 0 0 0 0 0.032-0.064 0.064-0.128 0.096-0.16 0.192-0.736 0.288-1.568 0.288-2.496v-20.16h4.064c-0.064-0.416-0.128-0.864-0.128-1.312h-5.344zM13.28 12.544v-1.184c-10.144-1.6-14.432 11.136-7.84 16.896-4.512-5.888-0.736-16.128 7.84-15.712zM29.696 8.992c-0.16 0-0.32-0.032-0.48-0.032 0 0-0.032 0-0.032 0-0.032 0-0.096 0-0.128 0-0.192-0.032-0.416-0.064-0.608-0.096v-1.184c-1.984-0.128-3.424-0.736-4.48-1.568-0.768-1.056-1.152-2.208-1.344-3.136 0 0 0 0 0 0 0-0.032 0-0.064 0-0.064s0 0 0 0c0-0.032 0-0.032 0-0.064 0 0 0 0 0 0 0-0.032 0-0.032 0-0.064s0-0.032 0-0.064c0 0 0 0 0 0-0.128-0.704-0.128-1.216-0.128-1.344v-0.064h-1.12c0.224 1.312 0.864 3.36 2.624 4.8 0.64 0.896 1.536 1.696 2.816 2.24 0 0 0 0 0 0 0.064 0.032 0.16 0.064 0.256 0.096s0.192 0.064 0.256 0.096c0 0 0 0 0 0 0.128 0.032 0.224 0.064 0.352 0.096 0 0 0 0 0.032 0 0.128 0.032 0.256 0.064 0.352 0.096 0 0 0 0 0.032 0 0.064 0 0.128 0.032 0.16 0.032 0 0 0.032 0 0.032 0 0.064 0 0.128 0.032 0.192 0.032 0 4.288 0-0.8 0 4.064-0.544 0.032-4.672-0.256-7.232-2.56v10.176c0.064 4.608-2.496 9.12-7.296 10.016-1.344 0.256-2.56 0.288-4.576-0.16-1.568-0.48-2.88-1.184-3.904-2.080 0.768 0.992 1.728 1.824 2.976 2.496 0 0 0 0 0.032 0 0.16 0.096 0.32 0.16 0.48 0.224 0 0.064 0 0.064 0.032 0.064 0.032 0.032 0.064 0.032 0.128 0.064 0.032 0 0.064 0.032 0.096 0.032s0.064 0.032 0.096 0.032c0.032 0.032 0.096 0.032 0.128 0.064 0.032 0 0.064 0.032 0.096 0.032 0.064 0.032 0.16 0.064 0.224 0.096 0.032 0 0.032 0.032 0.064 0.032 0.064 0.032 0.128 0.032 0.16 0.064 0.032 0 0.064 0.032 0.096 0.032 0.064 0.032 0.128 0.032 0.16 0.064 0.032 0 0.064 0.032 0.064 0.032 0.096 0.032 0.16 0.064 0.256 0.064 2.016 0.448 3.232 0.416 4.576 0.16 4.8-0.896 7.36-5.408 7.296-10.016v-10.176c2.56 2.304 6.72 2.592 7.232 2.56 0.032-5.184 0.032 1.088 0.032-5.184z"></path>
</svg>
