<!-- Generated by IcoMoon.io -->
<svg version="1.1" xmlns="http://www.w3.org/2000/svg" width="32" height="32" viewBox="0 0 32 32">
<title>torial</title>
<path d="M8.64 0c-0.16 0.832-0.352 1.632-0.512 2.464-0.416 2.016-0.8 4.064-1.216 6.080-0.416 1.824-0.8 3.68-1.152 5.536-0.032 0.16-0.096 0.448 0.16 0.416 0.896-0.064 1.792 0.256 2.656-0.224 1.664-0.928 2.944-2.24 3.808-3.872 1.76-3.296 2.848-6.88 4.16-10.368-2.624-0.032-5.28-0.032-7.904-0.032zM26.144 28.224c-0.32-0.192-0.608 0-0.8 0.32-0.224 0.352-0.512 0.64-0.864 0.864-1.184 0.736-2.464 0.192-2.752-1.152-0.096-0.48-0.16-0.928-0.16-1.408 0-3.68 0-7.328 0-11.008 0-0.544 0.192-0.672 0.704-0.64 0.992 0.032 2.016-0.032 3.008 0.032 0.64 0.032 0.544-0.384 0.544-0.768 0.032-0.416 0-0.672-0.576-0.672-0.992 0.032-2.016-0.032-3.008 0-0.48 0-0.704-0.096-0.672-0.64 0.064-0.832 0.032-1.632 0.032-2.464 0-0.768 0-1.536 0-2.336 0-0.192 0-0.384-0.224-0.448-0.256-0.096-0.384 0.064-0.48 0.288-0.064 0.128-0.128 0.288-0.192 0.416-0.608 1.568-1.44 2.976-2.656 4.16-0.608 0.608-1.28 1.152-2.080 1.536-0.256 0.128-0.576 0.32-0.512 0.64s0.416 0.256 0.704 0.256c0.448 0 0.864 0 1.312 0 0.864 0 0.864 0 0.864 0.896 0 1.952 0 3.936 0 6.496 0.128 1.856-0.256 4.352 0.224 6.816 0.256 1.44 1.536 2.56 2.976 2.624 1.888 0.064 3.648-1.12 4.512-3.136 0.096-0.192 0.416-0.48 0.096-0.672z"></path>
</svg>
