<!-- Generated by IcoMoon.io -->
<svg version="1.1" xmlns="http://www.w3.org/2000/svg" width="32" height="32" viewBox="0 0 32 32">
<title>traxsource</title>
<path d="M30.756 14.589c0.090-0.609 0.124-1.205 0.136-2.116 0.097-7.025-6.006-12.426-12.811-12.465-1.665-0.011-2.498-0.011-4.164 0-6.807 0.039-12.891 5.374-12.811 12.465 0.010 0.892 0.039 1.52 0.124 2.133-0.873 1.277-1.323 2.977-1.132 4.789l0.056 0.539c0.374 3.564 3.074 6.202 6.028 5.891l0.157-0.017c2.017 3.782 5.586 6.175 9.658 6.191v0.001h0.009c0.331 0 0.599-0.268 0.599-0.599v-2.131c0-0.33-0.268-0.597-0.597-0.599v-0.004c-4.138 0-7.868-5.060-7.868-10.152 0-5.033 3.73-10.178 7.852-10.178v0.001h0.008c0.331 0 0.599-0.268 0.599-0.6v-2.105c0-0.328-0.264-0.594-0.59-0.599v-0.005c-4.442 0.012-8.285 2.852-10.172 7.239l-1.068 0.113c-0.055 0.006-0.108 0.020-0.163 0.028-0.246-5.322 4.657-9.163 9.911-9.192 1.344-0.008 2.015-0.008 3.359 0 5.248 0.029 9.771 3.882 9.602 9.206-0.083-0.013-0.163-0.033-0.247-0.041l-1.71-0.178c-0.005-0.001-0.011-0.003-0.016-0.004-0.371-0.039-0.704 0.23-0.743 0.601l-1.271 12.102c-0.039 0.371 0.23 0.704 0.601 0.742 0.006 0.001 0.011-0.001 0.017 0v0.003l1.71 0.18c2.954 0.311 5.653-2.328 6.027-5.892l0.057-0.539c0.191-1.82-0.263-3.527-1.145-4.806z"></path>
</svg>
