<!-- Generated by IcoMoon.io -->
<svg version="1.1" xmlns="http://www.w3.org/2000/svg" width="32" height="32" viewBox="0 0 32 32">
<title>trulia</title>
<path d="M16 0c-5.088 0.032-8.352 3.424-8.352 8.608 0 4.256 2.784 7.904 4.384 13.472 0.896 3.168 1.408 7.072 1.664 9.952h4.672c0.256-2.88 0.736-6.752 1.664-9.952 1.6-5.536 4.384-9.184 4.384-13.472-0.064-5.184-3.328-8.576-8.416-8.608zM16.032 13.12c-2.112 0-3.84-1.728-3.84-3.84s1.728-3.84 3.84-3.84c2.112 0 3.84 1.728 3.84 3.84s-1.728 3.84-3.84 3.84z"></path>
</svg>
