<!-- Generated by IcoMoon.io -->
<svg version="1.1" xmlns="http://www.w3.org/2000/svg" width="32" height="32" viewBox="0 0 32 32">
<title>tunein</title>
<path d="M1.088 12.672c0-0.288 0.224-0.512 0.512-0.512h14.176c2.56 0 4.64 2.080 4.64 4.64v4.128c0 0.288-0.224 0.512-0.512 0.512 0 0-0.032 0-0.032 0h-14.176c-2.56 0-4.64-2.080-4.64-4.64v-4.128zM26.368 12.16h4.064c0.288 0 0.512 0.224 0.512 0.512v4.128c0 2.56-2.080 4.64-4.64 4.64h-4.064c-0.288 0-0.512-0.224-0.512-0.512v-4.128c0-2.56 2.080-4.64 4.64-4.64zM19.904 22.752h-8.192c-0.288 0-0.512 0.224-0.512 0.512v8.256c0 0.288 0.224 0.512 0.512 0.512h4.064c2.56 0 4.64-2.080 4.64-4.64v-4.128c0-0.288-0.224-0.512-0.512-0.512zM21.088 5.28c0 2.912-2.368 5.28-5.28 5.28s-5.28-2.368-5.28-5.28c0-2.912 2.368-5.28 5.28-5.28s5.28 2.368 5.28 5.28z"></path>
</svg>
