<!-- Generated by IcoMoon.io -->
<svg version="1.1" xmlns="http://www.w3.org/2000/svg" width="32" height="32" viewBox="0 0 32 32">
<title>unsplash</title>
<path d="M0 25.92c0-5.184 0-10.336 0-15.52 0.032-0.064 0-0.096 0.032-0.16 0.096-0.992 0.512-1.856 1.216-2.56 0.832-0.864 1.856-1.312 3.040-1.312 1.216 0 2.432 0 3.648 0 0.064 0 0.096-0.032 0.128-0.096 0.224-0.672 0.48-1.344 0.704-2.016 0.192-0.64 0.576-1.12 1.088-1.504 0.576-0.416 1.184-0.672 1.888-0.672 2.848 0 5.696 0 8.544 0 0.128 0 0.256 0 0.352 0.032 0.576 0.096 1.12 0.32 1.568 0.672 0.512 0.384 0.864 0.864 1.056 1.472 0.224 0.704 0.48 1.408 0.704 2.144 0.032 0.064 0.064 0.096 0.128 0.096 1.184 0 2.4 0 3.584 0 0.48 0 0.96 0.064 1.408 0.224 1.568 0.576 2.528 1.696 2.848 3.328 0.032 0.16 0.032 0.32 0.064 0.48 0 5.152 0 10.272 0 15.424-0.032 0.16-0.032 0.32-0.064 0.48-0.352 2.048-2.176 3.552-4.256 3.552-7.776 0-15.584 0-23.36 0-0.576 0-1.152-0.096-1.696-0.32-1.408-0.64-2.272-1.696-2.56-3.232-0.032-0.192-0.032-0.352-0.064-0.512zM8.384 18.24c0 4.128 3.36 7.52 7.488 7.488 4.16-0.032 7.52-3.328 7.52-7.488s-3.328-7.488-7.488-7.488c-4.096 0-7.52 3.392-7.52 7.488zM15.968 13.344c0.832 0.032 1.664 0.256 2.432 0.704 1.12 0.672 1.888 1.632 2.24 2.88 0.544 1.952-0.256 4.032-1.92 5.184-0.896 0.608-1.888 0.896-2.976 0.832-2.208-0.096-4.064-1.76-4.448-3.936-0.48-2.56 1.184-5.056 3.744-5.568 0.288-0.064 0.608-0.096 0.928-0.096z"></path>
</svg>
