<!-- Generated by IcoMoon.io -->
<svg version="1.1" xmlns="http://www.w3.org/2000/svg" width="32" height="32" viewBox="0 0 32 32">
<title>wechat</title>
<path d="M22.25 11.313c-3 0.125-5.563 1.063-7.688 3.063-2.063 2.063-3.063 4.625-2.813 7.75-1.125-0.125-2.188-0.313-3.25-0.375-0.375-0.063-0.813 0-1.125 0.188-1.063 0.563-2 1.25-3.188 1.938 0.188-0.938 0.313-1.813 0.563-2.625 0.188-0.625 0.125-0.938-0.438-1.375-3.563-2.5-5.063-6.25-3.938-10.125 1.063-3.625 3.563-5.813 7.063-6.938 4.75-1.563 10.125 0.063 13 3.813 1 1.313 1.625 2.875 1.813 4.688zM8.563 10.063c0.063-0.688-0.563-1.313-1.313-1.375-0.75 0-1.375 0.563-1.375 1.313s0.563 1.313 1.313 1.375c0.688 0 1.375-0.563 1.375-1.313zM15.688 8.688c-0.688 0-1.313 0.688-1.313 1.375 0 0.75 0.625 1.313 1.375 1.313s1.313-0.625 1.313-1.375c0-0.75-0.625-1.313-1.375-1.313zM28.938 29.813c-0.938-0.375-1.813-1.063-2.75-1.125-0.938-0.125-1.875 0.438-2.813 0.5-2.938 0.313-5.563-0.5-7.688-2.438-4.125-3.813-3.5-9.625 1.188-12.75 4.25-2.75 10.438-1.813 13.375 2 2.625 3.313 2.313 7.75-0.813 10.563-0.938 0.813-1.25 1.5-0.688 2.563 0.063 0.188 0.125 0.438 0.188 0.688zM18.188 19.438c0.625 0 1.125-0.438 1.125-1.063 0.063-0.625-0.438-1.125-1.125-1.125-0.563 0-1.125 0.563-1.125 1.125 0.063 0.625 0.563 1.063 1.125 1.063zM25.125 17.25c-0.563 0-1.063 0.5-1.063 1.063-0.063 0.625 0.438 1.125 1.063 1.125s1.063-0.438 1.063-1.063c0-0.625-0.438-1.125-1.063-1.125z"></path>
</svg>
