<!-- Generated by IcoMoon.io -->
<svg version="1.1" xmlns="http://www.w3.org/2000/svg" width="32" height="32" viewBox="0 0 32 32">
<title>wix</title>
<path d="M31.872 3.264c-0.128-0.128-0.288-0.192-0.48-0.256-0.16-0.032-0.352-0.032-0.544-0.032-0.16 0-0.32 0-0.416 0v0c-0.672 0-1.376 0-2.048 0-0.48 0-0.96 0-1.44 0v0 0c-0.608 0-1.184 0.224-1.696 0.544s-0.992 0.704-1.376 1.056c-0.704 0.608-1.312 1.344-1.888 2.048-0.224-0.544-0.48-1.056-0.736-1.536-0.448-0.832-1.248-1.632-2.24-1.856-0.256 0-0.512-0.032-0.768-0.032s-0.48 0-0.704 0c-0.128 0-0.352 0-0.576 0-0.448 0-0.96 0-0.96 0s-0.512 0-0.96 0c-0.224 0-0.448 0-0.576 0-0.224 0-0.448 0-0.704 0s-0.512 0-0.768 0.064c-0.992 0.192-1.792 1.024-2.24 1.856v0c-0.256 0.48-0.512 0.992-0.736 1.504-0.576-0.736-1.184-1.44-1.888-2.048-0.416-0.352-0.864-0.736-1.376-1.056s-1.088-0.544-1.696-0.544v0c-0.48 0-0.96 0-1.44 0-0.672 0-1.376 0-2.048 0v0c-0.096 0-0.256 0-0.416 0-0.224 0-0.48 0-0.704 0.096-0.128 0.064-0.224 0.096-0.32 0.192s-0.128 0.256-0.128 0.384c0 0.096 0.032 0.192 0.032 0.288 0.064 0.128 0.128 0.256 0.224 0.352s0.16 0.192 0.224 0.256c0.128 0.192 0.288 0.384 0.384 0.544v0c0.192 0.32 0.384 0.64 0.576 0.96 0.448 0.768 0.832 1.6 1.28 2.4 0.992 1.76 2.016 3.488 3.296 5.056 0.896 1.12 1.984 2.24 3.328 2.848-0.992 1.888-2.016 3.808-3.040 5.696-0.896 1.696-1.824 3.36-2.784 5.024v0c-0.032 0.064-0.096 0.16-0.128 0.256-0.064 0.128-0.128 0.256-0.192 0.416s-0.128 0.32-0.128 0.512v0 0c0 0.192 0.064 0.352 0.192 0.448 0.16 0.16 0.384 0.224 0.608 0.256s0.416 0.032 0.576 0.032c0.032 0 0.096 0 0.128 0 0.384 0 0.736 0 1.12 0 0.736 0 1.44-0.032 2.176-0.032 0.064 0 0.128 0 0.192 0 0.096 0 0.192 0 0.32 0 0.256 0 0.544 0 0.8-0.032 1.12-0.096 2.176-0.672 2.848-1.6 0.032-0.032 0.096-0.128 0.16-0.256 0.512-0.832 2.080-3.392 2.784-4.512 0.16-0.256 0.448-0.736 0.736-1.152 0.128-0.192 0.256-0.384 0.352-0.544 0.096 0.128 0.224 0.32 0.352 0.544 0.256 0.416 0.576 0.896 0.736 1.152 0.384 0.64 1.056 1.76 1.664 2.752 0.32 0.48 0.576 0.96 0.8 1.312 0.096 0.192 0.192 0.32 0.288 0.448 0.064 0.128 0.128 0.192 0.16 0.256 0.672 0.928 1.696 1.504 2.848 1.6 0.256 0.032 0.544 0.032 0.8 0.032 0.096 0 0.192 0 0.32 0 0.064 0 0.128 0 0.192 0 0.704 0 1.44 0.032 2.176 0.032 0.352 0 0.736 0 1.12 0 0.032 0 0.096 0 0.128 0 0.192 0 0.512 0 0.8-0.096 0.128-0.032 0.288-0.096 0.384-0.224 0.128-0.096 0.192-0.256 0.192-0.448v0c0-0.192-0.064-0.352-0.128-0.512s-0.16-0.32-0.224-0.416c-0.032-0.096-0.096-0.16-0.128-0.256v0c-0.96-1.664-1.856-3.36-2.784-5.024-1.088-1.856-2.112-3.776-3.136-5.664 1.344-0.608 2.432-1.728 3.328-2.848 1.28-1.568 2.336-3.296 3.296-5.056 0.448-0.8 0.832-1.632 1.28-2.4 0.192-0.32 0.384-0.64 0.576-0.96v0c0.128-0.192 0.256-0.384 0.384-0.544v0c0.064-0.064 0.128-0.16 0.224-0.256s0.16-0.192 0.224-0.352c0.032-0.096 0.064-0.192 0.064-0.288 0-0.128-0.032-0.288-0.128-0.384zM13.728 7.040c0.096 0 0.16 0.192 0.192 0.64 0 0.032-0.192 0-0.384 0-0.096 0-0.192-0.032-0.224-0.032-0.096-0.032-0.192-0.064-0.288-0.096-0.256-0.096-0.416-0.224-0.544-0.32-0.096-0.064-0.16-0.16-0.192-0.192 0.64 0.032 1.12 0.032 1.44 0zM13.952 10.208c0 0 0 0 0 0s0 0 0 0 0 0 0 0zM14.176 9.696c0 0.16-0.064 0.352-0.192 0.48-0.16 0.16-0.352 0.224-0.544 0.256s-0.416 0.064-0.608-0.032c-0.224-0.128-0.32-0.384-0.352-0.608-0.064-0.288-0.16-0.576-0.128-0.864 0-0.16 0.064-0.32 0.128-0.48s0.16-0.256 0.224-0.32c0.288-0.192 0.704-0.224 0.96 0.032 0.128 0.128 0.192 0.256 0.256 0.416 0.16 0.352 0.256 0.736 0.256 1.12zM16.736 10.688c-0.032 0.032-0.064 0.064-0.096 0.064-0.192 0.128-0.416 0.192-0.672 0.192s-0.48-0.064-0.672-0.192c-0.032-0.032-0.064-0.064-0.096-0.064 0 0-0.032-0.032-0.032-0.032s0-0.032 0-0.032c0.032-0.032 0.064-0.032 0.064 0 0.032 0.032 0.064 0.032 0.096 0.064 0 0 0 0 0 0 0.16 0.128 0.384 0.192 0.608 0.192 0.256 0 0.448-0.064 0.608-0.192v0c0.032-0.032 0.064-0.032 0.096-0.064s0.064-0.032 0.096 0c0.032 0.032 0.032 0.064 0 0.064zM17.952 10.208c0 0 0 0 0 0s0 0 0 0 0 0 0 0zM19.456 9.792c-0.064 0.224-0.16 0.48-0.352 0.608-0.192 0.096-0.416 0.064-0.608 0.032s-0.416-0.096-0.544-0.256c-0.128-0.128-0.192-0.288-0.192-0.48-0.032-0.384 0.096-0.768 0.224-1.12 0.064-0.16 0.16-0.288 0.256-0.416 0.256-0.256 0.672-0.256 0.96-0.032 0.096 0.064 0.16 0.16 0.256 0.32 0.064 0.16 0.128 0.32 0.128 0.48 0 0.288-0.064 0.576-0.128 0.864zM19.424 7.264c-0.128 0.096-0.288 0.224-0.544 0.32-0.096 0.032-0.192 0.064-0.288 0.096-0.032 0-0.128 0.032-0.224 0.032-0.16 0.032-0.384 0.032-0.384 0 0.032-0.448 0.096-0.672 0.192-0.64 0.32 0.032 0.768 0.032 1.408 0.032 0 0-0.064 0.096-0.16 0.16z"></path>
</svg>
