<!-- Generated by IcoMoon.io -->
<svg version="1.1" xmlns="http://www.w3.org/2000/svg" width="32" height="32" viewBox="0 0 32 32">
<title>yt-gaming</title>
<path d="M24 5.6l-8 4.128-8.032-4.16c-2.656 1.376-5.312 2.784-7.968 4.128v8.416c5.344 2.752 10.656 5.536 16 8.288 5.344-2.752 10.688-5.536 16-8.288 0-2.784 0-5.6 0-8.384-2.656-1.376-5.344-2.752-8-4.128zM0.384 10.176l7.36 3.808-7.36 3.808v-7.616zM7.776 21.728l-7.008-3.648 7.008-3.648v7.296zM7.776 13.312v0.224l-7.168-3.68 7.168-3.712v7.168zM24 13.504v-7.456c2.144 1.376 4.288 2.752 6.464 4.128l-6.464 3.392v-0.064zM8.192 13.312v-7.168l7.36 3.808-7.36 3.84h-0.032v-0.48zM8.192 14.336v-0.096h0.032l7.232 3.776-7.264 3.744v-7.424zM15.808 25.856l-7.36-3.808 7.36-3.808v7.616zM15.872 17.76l-7.232-3.744 7.36-3.808 7.264 3.744-7.392 3.808zM23.616 14.432v7.584l-7.424 3.84v-7.808l7.424-3.84v0.224zM23.616 13.472v0.192l-7.2-3.712 7.168-3.744v7.264zM24 21.824v-7.456l7.2 3.744-7.2 3.712zM31.584 17.824l-7.488-3.872 7.488-3.904v7.776z"></path>
</svg>
