<!-- Generated by IcoMoon.io -->
<svg version="1.1" xmlns="http://www.w3.org/2000/svg" width="32" height="32" viewBox="0 0 32 32">
<title>zapier</title>
<path d="M31.75 13.375h-9.313l6.625-6.625c-0.5-0.75-1.125-1.438-1.75-2.063s-1.313-1.25-2.063-1.75l-6.625 6.625v-9.313c-0.813-0.188-1.688-0.25-2.625-0.25-0.875 0-1.813 0.063-2.625 0.25v9.313l-6.625-6.625c-0.75 0.5-1.438 1.125-2.063 1.75s-1.25 1.313-1.75 2.063l6.625 6.563h-9.313c0 0-0.25 1.75-0.25 2.625 0 0.938 0.063 1.813 0.25 2.688h9.313l-6.625 6.625c1 1.5 2.313 2.75 3.813 3.813l6.563-6.625v9.375c0.875 0.125 1.75 0.25 2.625 0.25h0.063c0.875 0 1.813-0.125 2.625-0.25v-9.375l6.625 6.625c0.75-0.5 1.438-1.125 2.063-1.75s1.25-1.313 1.75-2.063l-6.625-6.625h9.313c0.188-0.813 0.25-1.75 0.25-2.625 0-0.938-0.063-1.813-0.25-2.625M20 16c0 1.188-0.25 2.313-0.625 3.375-1.063 0.375-2.188 0.625-3.375 0.625s-2.313-0.25-3.375-0.625c-0.375-1.063-0.625-2.188-0.625-3.375s0.25-2.313 0.625-3.375c1.063-0.375 2.188-0.625 3.375-0.625s2.313 0.25 3.375 0.625c0.375 1.063 0.625 2.188 0.625 3.375z"></path>
</svg>
