<!-- Generated by IcoMoon.io -->
<svg version="1.1" xmlns="http://www.w3.org/2000/svg" width="32" height="32" viewBox="0 0 32 32">
<title>zazzle</title>
<path d="M0 16c0-8.832 7.168-16 16-16s16 7.168 16 16-7.168 16-16 16c-8.832 0-16-7.168-16-16v0zM7.904 24.224c0.192 0.224 0.576 0.192 0.896-0.064 0.704-0.576 1.376-0.992 2.688-0.992 2.464 0 4.416 1.536 7.328 1.536 2.24 0.032 3.648-0.832 4.448-1.984 0.608-0.896 0.928-2.112 0.928-3.040 0-1.344-0.768-2.208-2.112-2.208-1.28 0-1.824 0.64-1.888 1.6-0.032 0.384-0.032 1.12-0.256 1.472-0.224 0.384-0.672 0.512-1.216 0.512-1.376 0-3.040-1.12-4.864-1.12h-0.256l11.904-9.632c0.192-0.16 0.288-0.512 0.064-0.672l-1.824-2.144c-0.32-0.288-0.576-0.256-0.896 0-0.608 0.512-1.216 0.992-2.496 0.992-2.080 0-4.288-1.312-7.168-1.312-2.080 0-3.232 0.768-4.032 1.6-0.768 0.832-1.312 2.144-1.312 3.424 0 1.312 0.768 2.112 2.048 2.112 1.152 0 1.824-0.64 1.824-1.568 0-0.544 0.032-0.992 0.256-1.344 0.192-0.352 0.736-0.672 1.472-0.672 1.152 0 3.328 0.8 4.704 0.8h0.096l-12.032 9.568c-0.224 0.192-0.224 0.576-0.096 0.8l1.792 2.336z"></path>
</svg>
