<!-- Generated by IcoMoon.io -->
<svg version="1.1" xmlns="http://www.w3.org/2000/svg" width="32" height="32" viewBox="0 0 32 32">
<title>alliance</title>
<path d="M4.375 6.5c0 0 0-0.063 0.063-0.063 0.375-0.313 0.75-0.5 1.313-0.438 0.375 0.063 0.688 0.188 1.125 0.313 0.438 0.188 0.813 0.375 1.313 0.5 0.25 0.125 0.563 0.188 0.813 0.188 0.875 0 1.438-0.625 1.375-1.438 0 0 0-0.063 0.063-0.063 0.125 0.188 0.375 0.313 0.625 0.375 0.375 0.063 0.688 0 1-0.125 0.5-0.188 0.75-0.563 0.625-1.125 0-0.188-0.063-0.375-0.125-0.563 0-0.188 0-0.25 0.125-0.25 0.313 0 0.625 0 0.938 0.063 0.625 0.125 1.188 0.438 1.75 0.75 0.125 0.063 0.25 0.125 0.438 0.25 0-0.188-0.063-0.313-0.063-0.5-0.063-0.438-0.063-0.813 0.125-1.188 0-0.188 0.063-0.313 0.188-0.313 0.063 0 0.063 0.125 0.125 0.25 0.125 0.375 0.063 0.813 0.063 1.25 0 0.125-0.063 0.25-0.063 0.375 0.125 0 0.188-0.063 0.188-0.125 0.375-0.188 0.75-0.438 1.188-0.563 0.563-0.25 1.188-0.375 1.75-0.313 0.188 0.063 0.188 0.063 0.125 0.25s-0.063 0.375-0.125 0.5c-0.063 0.625 0.188 1.063 0.75 1.188 0.563 0.188 1.125 0.125 1.625-0.25 0 0.063 0 0.125 0 0.125-0.063 0.625 0.438 1.25 1.063 1.313 0.313 0.063 0.625 0 0.875-0.063 0.5-0.125 0.938-0.313 1.375-0.5 0.438-0.125 0.813-0.25 1.188-0.313 0.563-0.063 1.063-0.063 1.438 0.375 0 0.063 0.063 0.125 0.188 0.063-0.188-0.375-0.5-0.563-0.938-0.688-0.438-0.063-0.938 0-1.375 0.063-0.563 0.063-1.063 0.188-1.625 0.188-0.375 0-0.75 0-1.125-0.25-0.125-0.063-0.25-0.125-0.25-0.25 0.063-0.125 0.25-0.188 0.375-0.188 0.25-0.063 0.5 0 0.75 0.063 0.188 0 0.438 0.063 0.688 0-0.938-0.625-1.938-0.75-2.938-0.813 0.5-0.188 1-0.375 1.563-0.688-0.125 0-0.188 0-0.313 0-0.563 0.063-1.188 0.063-1.813-0.063-0.188-0.063-0.188-0.063-0.063-0.25 0.188-0.313 0.5-0.438 0.875-0.563 0.25-0.125 0.5-0.125 0.75-0.188-0.188-0.125-0.438-0.188-0.688-0.188-0.688-0.063-1.375 0-2.063 0.188-0.563 0.063-1.063 0.188-1.625 0.25-0.125 0-0.188-0.063-0.188-0.188 0-0.438 0.125-0.75 0.438-0.938 0.25-0.188 0.563-0.313 0.875-0.375 0.063-0.063 0.188-0.063 0.313-0.125-0.063 0-0.125 0-0.188 0-0.688 0-1.313 0.188-1.875 0.563-0.125 0.063-0.188 0.063-0.313 0-0.438-0.313-0.688-0.75-0.813-1.25-0.063-0.25-0.063-0.438-0.063-0.75-0.125 0.125-0.063 0.25-0.188 0.375-0.063-0.125-0.063-0.25-0.188-0.438 0 0.25 0 0.5 0 0.688-0.125 0.563-0.375 1.063-0.875 1.375-0.125 0.063-0.188 0.063-0.313 0-0.375-0.25-0.813-0.438-1.25-0.5-0.25-0.063-0.5-0.063-0.75 0 0.063 0 0.125 0.063 0.188 0.063 0.375 0.063 0.688 0.188 1 0.375 0.25 0.313 0.438 0.625 0.375 1.063 0 0.125-0.063 0.188-0.188 0.125-0.438-0.063-0.938-0.125-1.375-0.25-0.813-0.125-1.563-0.25-2.313-0.188-0.25 0.063-0.438 0.063-0.688 0.188 0 0.063 0.063 0 0.125 0 0.313 0.063 0.625 0.125 1 0.25 0.188 0.125 0.438 0.25 0.563 0.5 0.063 0.125 0.063 0.188-0.125 0.188-0.625 0.125-1.25 0.125-1.875 0.063-0.063 0-0.125 0-0.188 0.063 0.563 0.25 1.063 0.438 1.625 0.688-1.063 0-2.125 0.125-3 0.813 0.063 0.063 0.125 0 0.188 0 0.375 0 0.688-0.125 1.063-0.125 0.125 0 0.25 0.063 0.438 0.125 0.125 0.063 0.125 0.125 0 0.25-0.25 0.188-0.563 0.313-0.875 0.313-0.438 0.063-0.875 0-1.375-0.063-0.563-0.125-1.063-0.188-1.625-0.188-0.313 0-0.5 0-0.75 0.125-0.25 0.063-0.375 0.25-0.5 0.5 0 0.063-0.063 0.063 0 0.125 0 0.063 0 0 0.063 0zM12.375 14.5c-0.25 0.25-0.5 0.375-0.688 0.563-0.188 0.25-0.375 0.5-0.375 0.813-0.063 1.5 0.563 2.625 1.688 3.5 0.125 0.125 0.25 0.188 0.438 0.25 0.688 0.313 1.5 0.125 2-0.5 0.563-0.563 0.625-1.375 0.25-2.063-0.188-0.25-0.375-0.5-0.563-0.688-0.25-0.313-0.5-0.563-0.688-0.875-0.375-0.563-0.438-1.125-0.25-1.75 0.125-0.313 0.25-0.625 0.438-0.875 0.25-0.5 0.438-1.063 0.438-1.563 0-0.188 0-0.188-0.188-0.188-0.313 0.063-0.5 0.188-0.75 0.313-0.25 0.063-0.438 0.188-0.625 0.25-0.563 0.063-0.875-0.125-1.063-0.563-0.063-0.188-0.125-0.313-0.125-0.5-0.063-0.438-0.125-0.813-0.188-1.188-0.063-0.125 0-0.125 0.063-0.188 0.375-0.063 0.688 0 1 0.25 0.188 0.125 0.313 0.25 0.5 0.375 0.5 0.375 1.125 0.5 1.75 0.563-0.063 0-0.063 0-0.063-0.063-0.75-0.438-1.313-0.938-1.875-1.625-0.125-0.188-0.313-0.313-0.5-0.5-0.5-0.375-1-0.375-1.438 0.125-0.063 0.063-0.125 0.188-0.188 0.25-0.375 0.5-0.563 1.188-0.625 1.813 0 0.688 0.25 1.125 0.813 1.375 0.188 0.063 0.313 0.125 0.563 0.25 0.188 0.063 0.313 0.125 0.5 0.25 0.688 0.375 0.813 1.063 0.375 1.688-0.25 0.188-0.438 0.375-0.625 0.5zM19.375 12.25c0.25-0.125 0.5-0.313 0.75-0.375 0.188-0.125 0.438-0.188 0.625-0.313 0.313-0.188 0.438-0.375 0.5-0.688 0.188-1.125-0.25-2-1-2.75 0-0.063-0.063-0.063-0.063-0.063-0.25-0.188-0.5-0.188-0.688-0.125-0.25 0.188-0.5 0.313-0.688 0.5-0.313 0.25-0.563 0.5-0.813 0.75-0.313 0.438-0.75 0.75-1.188 1-0.063 0.063-0.188 0.063-0.25 0.188 0.625-0.063 1.25-0.188 1.75-0.563 0.188-0.125 0.375-0.313 0.563-0.438 0.313-0.188 0.625-0.25 0.938-0.25 0.125 0.063 0.188 0.063 0.125 0.188-0.063 0.188-0.125 0.375-0.125 0.563-0.063 0.313-0.125 0.625-0.188 1-0.188 0.625-0.625 0.813-1.25 0.688-0.188-0.063-0.375-0.188-0.563-0.25-0.25-0.125-0.438-0.188-0.75-0.25-0.125-0.063-0.188 0-0.188 0.125 0.063 0.563 0.188 1.063 0.438 1.563 0.125 0.125 0.188 0.313 0.313 0.5 0.188 0.5 0.313 0.938 0.188 1.5-0.063 0.5-0.313 0.813-0.625 1.188-0.25 0.313-0.563 0.563-0.75 0.875-0.75 1.063-0.375 2.25 0.75 2.75 0.688 0.25 1.25 0.125 1.813-0.25 0.938-0.75 1.5-1.688 1.625-2.938 0.063-0.688-0.125-1.25-0.688-1.625-0.188-0.188-0.375-0.375-0.563-0.5-0.188-0.188-0.313-0.313-0.438-0.563-0.313-0.5-0.125-1.063 0.438-1.438zM5.938 20.313c0.125-0.188 0.25-0.375 0.375-0.563 0.125-0.313 0.25-0.625 0.438-0.875 0.125-0.375 0.313-0.75 0.5-1.063 0.313-0.563 0.75-0.75 1.375-0.563 0.125 0 0.313 0.125 0.438 0.188 0 0 0.063 0.063 0.125 0-0.125-0.375-0.313-0.625-0.688-0.75-0.25-0.125-0.563-0.125-0.813-0.125-0.625 0-1.188 0.188-1.75 0.5-0.063 0.063-0.125 0.125-0.125 0-0.125-1-0.188-2 0-3 0.125-0.938 0.625-1.688 1.438-2.188 0.188-0.063 0.375-0.188 0.625-0.313 0.25-0.188 0.5-0.313 0.688-0.5 0.125-0.125 0.313-0.25 0.375-0.438 0 0-0.063-0.063-0.063-0.063-0.063 0-0.063 0-0.125 0-0.813-0.063-1.563 0-2.375 0.25-0.125 0.063-0.125 0-0.188-0.063 0-0.25-0.125-0.438-0.313-0.5-0.125-0.063-0.188-0.125-0.313-0.125s-0.125-0.063-0.125-0.188c0-0.063 0-0.063 0.063-0.125 0.125-0.688 0.5-1.188 1.063-1.563 0.375-0.25 0.813-0.438 1.25-0.563 0.063-0.063 0.125-0.063 0.063-0.125-0.438-0.438-0.875-0.75-1.438-0.938-0.375-0.063-0.75-0.063-1.063 0.125-0.125 0-0.188 0.063-0.188 0.188 0 0.313 0.125 0.563 0.375 0.75 0.188 0.188 0.188 0.188 0 0.375-0.375 0.25-0.625 0.625-0.813 1-0.625 1-1 2.063-1 3.188 0 0.125 0.063 0.188 0.125 0.25 0.188 0.125 0.375 0.188 0.563 0.25 0.063 0 0.125 0 0.063 0.063-0.063 0.375 0.125 0.625 0.313 0.875 0.063 0.063 0.125 0.125 0.063 0.188-0.25 1.625-0.125 3.25 0.125 4.875 0.063 0.313 0.063 0.313-0.188 0.438-0.5 0.25-0.75 0.688-0.625 1.25 0.063 0.063 0.063 0.125 0.125 0.188 0.625 0.25 1.188 0.25 1.625-0.313zM27.125 19.125c-0.125-0.063-0.188-0.063-0.125-0.188 0.313-1.688 0.438-3.375 0.125-5 0-0.125 0-0.125 0.063-0.188 0.25-0.25 0.375-0.563 0.313-0.875 0-0.063 0-0.125 0.125-0.125s0.313-0.063 0.5-0.188c0.125-0.063 0.188-0.188 0.188-0.313-0.063-1.313-0.5-2.438-1.25-3.438-0.188-0.25-0.438-0.438-0.625-0.688s-0.188-0.25 0.063-0.438c0.125-0.125 0.25-0.25 0.313-0.375 0.063-0.438 0-0.5-0.438-0.563-0.688-0.188-1.75 0.313-2.25 1 0.063 0 0.125 0.063 0.188 0.063 0.5 0.188 0.938 0.375 1.375 0.688 0.5 0.438 0.813 0.938 0.875 1.563 0 0.125 0 0.188-0.125 0.188-0.375 0-0.625 0.188-0.688 0.625-0.063 0.125-0.063 0.125-0.188 0.063-0.813-0.25-1.625-0.313-2.375-0.25-0.063 0-0.125 0-0.188 0.063 0.063 0.063 0.125 0.188 0.188 0.25 0.25 0.25 0.5 0.375 0.75 0.563 0.375 0.188 0.625 0.313 0.938 0.563 0.625 0.375 1 0.875 1.188 1.563 0.313 1.188 0.25 2.313 0.125 3.438 0 0.063-0.063 0.125-0.125 0.063-0.563-0.438-1.313-0.563-2.125-0.5-0.313 0-0.563 0.125-0.813 0.313-0.188 0.125-0.25 0.313-0.313 0.563 0.188-0.063 0.313-0.125 0.438-0.125 0.563-0.25 1-0.125 1.375 0.313 0.125 0.125 0.188 0.25 0.25 0.375 0.188 0.313 0.313 0.688 0.5 1 0.188 0.375 0.313 0.75 0.5 1.125 0.438 0.625 1.125 0.813 1.813 0.5 0.063-0.063 0.125-0.063 0.125-0.188 0.125-0.375 0.063-0.688-0.188-1-0.188-0.25-0.313-0.375-0.5-0.438zM20.188 24.625c-0.313 0.063-0.438 0.188-0.563 0.438-0.125 0.313-0.125 0.563-0.188 0.813-0.125 0.625-0.375 1.188-0.813 1.688-0.5 0.625-1.063 1.188-1.75 1.688-0.063 0.125-0.188 0.188-0.313 0.25-0.313 0.188-0.688 0.188-1.063 0.063-0.188-0.125-0.438-0.25-0.625-0.438-0.688-0.5-1.25-1.188-1.813-1.875-0.25-0.375-0.438-0.813-0.5-1.313 0-0.25-0.063-0.563-0.188-0.875-0.063-0.188-0.25-0.375-0.563-0.375-0.25-0.063-0.438 0.063-0.625 0.313-0.125 0.188-0.188 0.5-0.25 0.75-0.063 0.438 0 0.875 0.188 1.313 0.125 0.188 0.313 0.375 0.563 0.375 0-0.063 0-0.063-0.063-0.125-0.188-0.313-0.313-0.75-0.25-1.188 0-0.125 0.063-0.25 0.125-0.375 0.125-0.063 0.188-0.063 0.25 0.063 0.063 0.063 0.063 0.188 0.063 0.313 0.063 0.625 0.375 1.125 0.688 1.563 0.25 0.438 0.563 0.813 0.875 1.188 0.063 0.125 0.125 0.188 0.063 0.313-0.063 0.5 0 0.938 0.188 1.375 0.063 0.125 0.188 0.25 0.313 0.375 0-0.125-0.063-0.188-0.063-0.313-0.063-0.25-0.125-0.5-0.063-0.75 0-0.125 0.125-0.25 0.313-0.25 0.375 0 0.75 0.188 1 0.438 0.25 0.188 0.188 0.188 0.063 0.375-0.188 0.188-0.375 0.5-0.5 0.75s-0.188 0.5-0.063 0.875c0.063-0.188 0.125-0.313 0.25-0.438 0.063-0.063 0.188-0.188 0.25-0.25 0.188-0.125 0.375-0.25 0.5-0.375 0.313-0.188 0.313-0.188 0.688 0 0.375 0.25 0.75 0.5 0.938 0.938 0 0 0.063 0 0.063 0 0.063-0.375-0.063-0.688-0.25-1-0.125-0.188-0.25-0.438-0.375-0.625-0.063-0.063-0.125-0.125-0.063-0.188 0.25-0.188 0.5-0.438 0.938-0.5 0.5-0.063 0.563 0 0.563 0.5 0 0.188-0.063 0.375-0.063 0.625 0 0.063-0.063 0.063-0.063 0.188 0.125-0.125 0.188-0.25 0.313-0.375 0.25-0.438 0.25-0.938 0.188-1.438-0.063-0.125 0-0.188 0.063-0.313 0.375-0.438 0.75-0.875 1-1.375 0.25-0.438 0.438-0.875 0.5-1.313 0-0.125 0.063-0.188 0.125-0.313 0-0.063 0.063-0.125 0.125-0.125s0.125 0.063 0.125 0.125c0.25 0.375 0.188 1-0.063 1.313-0.063 0.063-0.063 0.125-0.125 0.188s-0.063 0.063-0.063 0.125c0.063 0 0.063 0 0.125 0 0.188-0.063 0.313-0.188 0.438-0.313 0.313-0.688 0.375-1.375 0-2.063-0.063-0.313-0.25-0.438-0.563-0.438zM26.438 22c-0.188-0.125-0.438-0.25-0.688-0.438-0.188-0.063-0.313-0.188-0.438-0.438-0.063-0.063-0.125-0.125-0.063-0.25 0.125-0.063 0.188-0.125 0.313-0.063 0.125 0 0.25 0.063 0.375 0.063 0.063 0.063 0.125 0.063 0.25 0-0.188-0.063-0.313-0.188-0.438-0.313-0.125-0.063-0.25-0.125-0.438-0.063-0.125 0-0.125-0.063-0.125-0.125 0.063-0.25 0.063-0.563 0.063-0.813-0.063-0.563-0.313-1.063-0.75-1.375-0.563-0.375-1.188-0.313-1.625 0.063 0.375 0.125 0.375 0.125 0.75 0.5 0.125 0.125 0.25 0.25 0.5 0.188 0.125 0 0.188 0.063 0.188 0.188-0.063 0.5-0.125 1.063-0.25 1.625-0.313 1.438-1.063 2.75-1.938 4-0.063 0.063-0.125 0.063-0.125 0-0.25-0.25-0.438-0.5-0.688-0.688-0.25-0.313-0.5-0.5-0.813-0.688-0.313-0.125-0.625-0.125-0.938 0-0.188 0.125-0.375 0.188-0.625 0.188-0.063 0-0.063 0-0.063 0.063 0.063 0.5 0.438 0.75 0.875 0.625 0.188 0 0.375-0.125 0.5-0.125 0.563-0.25 0.875-0.063 1.063 0.563 0 0 0.063 0.063 0.063 0.125 0.063 0.375 0.063 0.75 0.063 1.125 0.063 0.375 0.063 0.875 0.25 1.25 0 0.125 0.063 0.188 0.188 0.313 0-0.063 0-0.125 0-0.188-0.063-0.75 0.125-1.438 0.438-2.063 0.313-0.563 0.75-1 1.25-1.438 0.188-0.125 0.188-0.125 0.313 0.063 0.188 0.188 0.25 0.375 0.375 0.5 0.063 0.125 0.188 0.25 0.375 0.313-0.25-0.625-0.313-1.313-0.25-1.938 0-0.438 0.125-0.875 0.375-1.25 0.063-0.125 0.125-0.125 0.25 0 0.125 0.063 0.188 0.188 0.188 0.313 0 0.25 0 0.5 0 0.688s0.063 0.375 0.188 0.5c0-0.125 0.063-0.25 0.063-0.375s0-0.25 0.063-0.313c0.063-0.313 0.313-0.375 0.563-0.313 0.313 0.063 0.5 0.25 0.688 0.5 0.125 0.313 0.063 0.563-0.188 0.75-0.063 0.063-0.188 0.125-0.25 0.188 0.188 0 0.313-0.063 0.438-0.063 0.5-0.25 0.625-0.813 0.25-1.188-0.188 0-0.375-0.125-0.563-0.188zM11.875 24.188c0.188 0.063 0.375 0.125 0.563 0.188 0.125 0 0.313-0.063 0.438-0.125 0.125-0.125 0.188-0.375 0.25-0.5 0.063-0.063 0-0.125-0.063-0.125-0.188 0-0.375-0.063-0.5-0.125-0.438-0.25-0.813-0.188-1.188 0.063-0.313 0.188-0.563 0.438-0.813 0.688-0.188 0.188-0.313 0.313-0.5 0.5-0.063 0.063-0.125 0.063-0.188 0-0.438-0.625-0.813-1.25-1.125-1.938-0.563-1.125-0.938-2.375-1-3.688 0-0.125 0-0.188 0.188-0.188 0.188 0.063 0.313 0 0.438-0.125 0.25-0.25 0.438-0.5 0.813-0.563-0.563-0.438-1.313-0.375-1.813 0.063-0.313 0.25-0.438 0.688-0.5 1.063-0.063 0.313-0.063 0.688 0 1 0 0.063 0.063 0.125-0.063 0.125-0.438-0.125-0.688 0.188-0.938 0.375 0.063 0 0.125 0 0.25 0 0.125-0.063 0.25-0.125 0.375-0.125s0.25 0.063 0.313 0.125c0.063 0.125 0 0.188-0.063 0.25-0.125 0.125-0.188 0.25-0.313 0.375-0.25 0.125-0.5 0.25-0.688 0.375-0.25 0.125-0.438 0.25-0.625 0.438-0.188 0.25-0.25 0.563-0.063 0.875 0.125 0.25 0.438 0.375 0.75 0.375-0.063-0.063-0.125-0.125-0.25-0.188-0.25-0.188-0.313-0.375-0.125-0.688 0.063-0.188 0.25-0.375 0.438-0.5 0.438-0.25 0.75-0.125 0.875 0.375 0 0.125 0 0.25 0.063 0.375 0 0 0 0.063 0.063 0.063 0.063-0.125 0.063-0.25 0.125-0.438 0-0.25 0-0.5 0-0.688 0.063-0.188 0.063-0.313 0.188-0.375 0.125-0.125 0.188-0.125 0.313 0.063 0.063 0.125 0.125 0.25 0.188 0.438 0.188 0.563 0.188 1.188 0.125 1.813-0.063 0.313-0.125 0.625-0.188 0.938 0.188-0.125 0.313-0.25 0.438-0.438 0.125-0.125 0.188-0.375 0.313-0.5 0.063-0.063 0.125-0.063 0.188 0 0.75 0.625 1.313 1.375 1.625 2.313 0.125 0.438 0.188 0.938 0.125 1.375 0.063 0 0.063-0.063 0.063-0.063 0.188-0.375 0.25-0.75 0.25-1.125 0.125-0.5 0.063-1 0.188-1.5 0.063-0.688 0.375-0.875 1.063-0.625zM18 21.938c0.188-0.313 0.25-0.625 0.25-1 0-0.25-0.063-0.313-0.313-0.375-0.063 0-0.125 0-0.25 0-0.188 0-0.375 0-0.625 0-0.438 0.063-0.563-0.063-0.75-0.5 0-0.188-0.063-0.313-0.188-0.375-0.125-0.125-0.188-0.125-0.313 0-0.063 0.125-0.125 0.313-0.188 0.438-0.125 0.313-0.313 0.438-0.625 0.438-0.125 0-0.313 0-0.5 0s-0.438-0.063-0.625 0.063c-0.125 0-0.125 0.063-0.188 0.188 0 0.438 0.125 0.875 0.375 1.25 0.188 0.188 0.313 0.438 0.5 0.688 0.25 0.313 0.313 0.625 0.313 1 0 0 0 0.063 0.063 0.063 0.125-0.063 0.125-0.25 0.188-0.375 0.063-0.188 0.063-0.375 0.125-0.5s0.188-0.125 0.313-0.063c0.063 0 0.188 0.063 0.125 0.25s0 0.438 0.063 0.688c0.125 0.375 0.375 0.75 0.438 1.125 0.063-0.125 0.063-0.313 0.063-0.438-0.063-0.25-0.125-0.563-0.188-0.813 0-0.188 0-0.375 0.063-0.625 0.125-0.188 0.25-0.25 0.375-0.25 0.188 0.063 0.25 0.188 0.313 0.313 0 0.188 0.063 0.313 0.063 0.5 0.063 0.063 0.063 0.188 0.188 0.188-0.125-0.5 0.063-0.813 0.375-1.188 0.25-0.25 0.375-0.5 0.563-0.688zM14.813 14.438c-0.188 0.063-0.25 0.125-0.188 0.25 0 0.5 0.188 0.938 0.5 1.313 0.25 0.313 0.5 0.563 0.75 0.875 0.063 0.063 0.125 0.063 0.188 0 0.25-0.25 0.563-0.5 0.813-0.813 0.313-0.438 0.5-0.875 0.5-1.375 0-0.125 0-0.188-0.188-0.25-0.375-0.063-0.75-0.125-1.188-0.125s-0.813 0.063-1.188 0.125zM15.125 7.688c-0.125 0.188-0.25 0.438-0.313 0.688-0.125 0.313-0.063 0.563 0.125 0.813 0.5 0.563 1.125 0.625 1.75 0.313 0.063 0 0.125-0.063 0.25-0.125 0.375-0.25 0.5-0.625 0.313-1.063-0.063-0.188-0.188-0.313-0.25-0.438-0.313-0.375-0.375-0.75-0.313-1.188 0-0.125 0-0.25-0.063-0.375-0.125 0.25-0.25 0.5-0.313 0.75-0.063 0.313-0.063 0.625-0.063 0.875 0 0.188 0 0.375-0.063 0.5-0.063 0.063-0.125 0.125-0.25 0.125-0.063 0-0.063-0.063-0.125-0.188-0.125-0.313-0.125-0.688-0.125-1 0-0.25 0-0.5-0.063-0.75-0.063-0.125-0.125-0.25-0.25-0.313 0.063 0.25 0.063 0.5 0 0.75s-0.188 0.438-0.25 0.625zM16.375 11.188c-0.063 0.063-0.063 0.188-0.063 0.25-0.063 0.313 0.063 0.625 0.125 0.875 0.125 0.25 0.188 0.5 0.188 0.75 0 0.063 0 0.125-0.125 0.188-0.25 0.125-0.563 0.188-0.875 0.125-0.25-0.125-0.313-0.188-0.25-0.438 0.063-0.313 0.188-0.563 0.25-0.875 0.063-0.25 0.125-0.5 0-0.813-0.125 0.438-0.438 0.875-0.625 1.25s-0.25 0.813-0.25 1.25c0 0.125 0 0.188 0.125 0.25 0.75 0.313 1.563 0.313 2.25 0 0.125-0.063 0.188-0.125 0.188-0.25 0-0.375-0.063-0.75-0.188-1.125-0.25-0.5-0.625-0.938-0.75-1.438zM4.375 14.625c0-0.188-0.063-0.313-0.313-0.25s-0.313 0.188-0.375 0.375c-0.125 0.438-0.063 0.813 0.125 1.188 0-0.313 0.125-0.563 0.313-0.813 0.125-0.188 0.188-0.313 0.25-0.5zM28.313 14.688c-0.063-0.188-0.188-0.313-0.438-0.375-0.125 0-0.188 0-0.25 0.188 0 0.25 0.063 0.375 0.188 0.563 0.125 0.25 0.375 0.5 0.375 0.813 0.188-0.375 0.25-0.75 0.125-1.188z"></path>
</svg>
