<!-- Generated by IcoMoon.io -->
<svg version="1.1" xmlns="http://www.w3.org/2000/svg" width="32" height="32" viewBox="0 0 32 32">
<title>angieslist</title>
<path d="M32 11.232c-0.128-3.84-3.328-6.88-7.168-6.912-5.888 0-11.808 0-17.696 0-0.672 0-1.344 0.064-1.984 0.256-3.36 0.96-5.44 4.16-5.12 7.904 0.256 3.008 3.040 6.016 6.048 6.208 1.44 0.096 2.048 0.672 2.464 1.952 0.8 2.336 1.728 4.64 2.656 7.040 0.512-0.384 0.576-0.832 0.704-1.184 0.768-2.016 1.568-4 2.24-6.048 0.384-1.184 0.96-1.664 2.272-1.632 2.912 0.096 5.856 0.064 8.8-0.064 4-0.192 6.912-3.52 6.784-7.52zM24.48 15.456c-3.552 0.032-7.104 0.032-10.688 0-0.8 0-1.216 0.16-1.376 1.024-0.256 1.344-0.672 2.656-1.088 4.288-0.384-1.6-0.768-2.912-1.024-4.256-0.16-0.8-0.512-1.12-1.344-1.056-0.928 0.064-1.856 0.096-2.752-0.16-1.76-0.512-2.912-2.048-2.816-3.904s1.344-3.296 3.168-3.616c0.416-0.064 0.8-0.128 1.216-0.128 5.44 0 10.912 0 16.352 0 1.728 0 3.2 0.576 4.032 2.24 1.28 2.624-0.608 5.536-3.68 5.568z"></path>
</svg>
