<!-- Generated by IcoMoon.io -->
<svg version="1.1" xmlns="http://www.w3.org/2000/svg" width="32" height="32" viewBox="0 0 32 32">
<title>ask</title>
<path d="M31.945 11.518c-0.040-0.040-0.12-0.040-0.24 0-0.24 0.040-1.64 0.16-2.28 0.24-0.24 0.040-0.36 0.12-0.48 0.32s-3.24 5.48-3.24 5.48 2.4-12.8 2.44-13.12c0.080-0.44 0-0.56-0.36-0.56s-2 0.16-2.24 0.2c-0.32 0.040-0.44 0.16-0.52 0.56-0.040 0.28-3.56 19.2-3.6 19.56-0.080 0.52-0.080 0.56 0.4 0.48 0.28-0.040 1.68-0.28 2.24-0.36 0.16-0.040 0.28-0.040 0.32-0.32s1.12-5.8 1.12-5.8 1.8 5.080 1.88 5.28c0.080 0.2 0.12 0.28 0.4 0.24 0.64-0.12 2.12-0.36 2.28-0.36 0.24-0.040 0.28-0.12 0.24-0.32-0.080-0.24-1.92-5.48-1.92-5.48s3.4-5.52 3.52-5.76c0.12-0.12 0.12-0.24 0.040-0.28zM20.945 12.998c-0.44-0.16-1.32-0.44-2.4-0.32-1.6 0.2-2.72 0.88-3.32 2s-0.48 2.36-0.28 3c0.2 0.64 0.72 1.36 1.4 1.96 1.56 1.36 1.52 2.44 1.28 2.88-0.28 0.56-1.040 1-2.080 0.76s-1.4-0.92-1.4-0.92-0.52 1.8-0.64 2.16c-0.12 0.48-0.080 0.6 0.36 0.8 0.6 0.24 1.72 0.52 3.56 0.16 1.24-0.24 2.4-1.24 2.92-2.28 0.56-1.080 0.92-3.2-0.84-4.8-1.44-1.28-1.6-1.52-1.72-1.8-0.28-0.52-0.040-1.12 0.2-1.44 0.24-0.28 0.56-0.44 1.040-0.4 0.52 0.040 1.4 0.72 1.4 0.72s0.64-1.84 0.68-1.96c0.12-0.24 0.080-0.4-0.16-0.52zM6.305 21.038l3.040-7.16 0.040 6.68-3.080 0.48zM11.025 6.638c-0.040-0.56-0.52-0.48-0.72-0.040-0.68 1.44-10.12 20.92-10.24 21.16-0.16 0.36-0.040 0.4 0.32 0.36 0.24-0.040 2.32-0.36 2.96-0.48 0.2-0.040 0.28-0.080 0.36-0.24 0.040-0.080 1.52-3.6 1.52-3.6l4.16-0.64c0 0 0.040 2.68 0.040 3.16 0 0.2 0.040 0.32 0.36 0.28 0.4-0.080 2.040-0.32 2.24-0.36 0.4-0.080 0.44-0.16 0.44-0.56-0.040-0.28-1.32-17.68-1.44-19.040z"></path>
</svg>
