<!-- Generated by IcoMoon.io -->
<svg version="1.1" xmlns="http://www.w3.org/2000/svg" width="32" height="32" viewBox="0 0 32 32">
<title>augment</title>
<path d="M28.864 7.008l-11.52-6.656c-0.832-0.48-1.856-0.48-2.72 0l-11.52 6.656c-0.832 0.48-1.344 1.376-1.344 2.336v13.28c0 0.96 0.512 1.856 1.344 2.336l11.52 6.656c0.416 0.256 0.896 0.352 1.344 0.352 0.48 0 0.928-0.128 1.344-0.352l11.52-6.656c0.832-0.48 1.344-1.376 1.344-2.336v-13.28c0.032-0.96-0.48-1.856-1.312-2.336zM16 16v10.176l-8.8-5.088v-10.176l8.8-5.088 8.8 5.088-8.8 5.088z"></path>
</svg>
