<!-- Generated by IcoMoon.io -->
<svg version="1.1" xmlns="http://www.w3.org/2000/svg" width="32" height="32" viewBox="0 0 32 32">
<title>bale</title>
<path d="M31.936 14.528c-0.032-0.672-0.16-1.376-0.32-2.048-0.384-1.824-1.12-3.552-2.112-5.12-2.272-3.52-5.984-6.112-10.080-6.976-0.608-0.128-1.216-0.224-1.824-0.288-0.8-0.096-1.632-0.096-2.432-0.064-0.672 0.032-1.344 0.096-1.984 0.224-0.608 0.096-1.184 0.256-1.76 0.416-0.544 0.16-1.088 0.352-1.6 0.576s-0.992 0.448-1.472 0.704c-0.48 0.256-0.928 0.544-1.376 0.832-0.096 0.064-0.224 0.16-0.352 0.224-1.088-0.832-2.208-1.632-3.328-2.368-0.32-0.192-0.64-0.416-0.992-0.544-0.576-0.192-1.28-0.032-1.728 0.352-0.448 0.416-0.608 0.992-0.576 1.568 0 0.768 0 1.536 0 2.272 0 0.768 0 1.536 0 2.304s0 1.536 0 2.304c0 0.896 0 1.792 0 2.688 0 0.864 0 1.728 0 2.624 0 1.088-0.064 2.176 0.064 3.264 0.096 1.12 0.32 2.208 0.64 3.296 1.536 4.96 5.632 9.056 10.624 10.528v0.032c1.024 0.32 2.112 0.544 3.168 0.608 1.184 0.128 2.4 0.096 3.584-0.064 0.64-0.064 1.248-0.192 1.888-0.352 0.704-0.192 1.408-0.416 2.112-0.704 0.64-0.288 1.28-0.576 1.888-0.928 0.544-0.288 1.056-0.64 1.536-1.024 0.576-0.416 1.12-0.896 1.632-1.408 0.416-0.384 0.768-0.8 1.12-1.216s0.672-0.832 0.96-1.28c0.288-0.416 0.544-0.832 0.768-1.28 0.256-0.48 0.512-0.96 0.704-1.472 0.224-0.608 0.48-1.216 0.64-1.824 0.128-0.512 0.288-1.024 0.352-1.536 0.128-0.544 0.192-1.152 0.224-1.696 0.128-0.896 0.128-1.76 0.032-2.624zM21.856 17.44c-0.384 0.384-0.8 0.8-1.184 1.184-0.448 0.448-0.896 0.896-1.344 1.344-0.416 0.416-0.864 0.832-1.28 1.28-0.416 0.416-0.864 0.864-1.28 1.28-0.384 0.384-0.768 0.8-1.184 1.12-0.544 0.352-1.216 0.512-1.856 0.512-0.768-0.064-1.504-0.352-2.048-0.864-1.664-1.696-3.36-3.36-5.024-5.024-0.416-0.416-0.672-0.928-0.832-1.472-0.16-0.768-0.064-1.6 0.32-2.272 0.288-0.544 0.768-0.96 1.28-1.248 0.576-0.256 1.216-0.384 1.856-0.32 0.672 0.096 1.344 0.416 1.824 0.928 0.896 0.896 1.824 1.824 2.72 2.72 0.288-0.256 0.544-0.544 0.8-0.8 0.384-0.384 0.768-0.736 1.12-1.12 0.352-0.352 0.704-0.704 1.056-1.056 0.256-0.224 0.48-0.48 0.704-0.704 0.384-0.384 0.768-0.768 1.12-1.152 0.352-0.352 0.704-0.704 1.056-1.056 0.384-0.352 0.736-0.736 1.12-1.12s0.832-0.672 1.344-0.832c0.64-0.192 1.344-0.16 1.984 0.032 0.832 0.32 1.472 0.96 1.856 1.76 0.256 0.736 0.288 1.536 0.032 2.272-0.192 0.512-0.544 0.96-0.928 1.344-0.352 0.352-0.704 0.704-1.056 1.056-0.384 0.384-0.768 0.768-1.12 1.12-0.352 0.384-0.704 0.736-1.056 1.088z"></path>
</svg>
