<!-- Generated by IcoMoon.io -->
<svg version="1.1" xmlns="http://www.w3.org/2000/svg" width="32" height="32" viewBox="0 0 32 32">
<title>battlenet</title>
<path d="M31.625 18.5c-0.188-0.438-0.438-0.813-0.688-1.188-0.875-1-1.875-1.813-2.875-2.5-0.125-0.063-0.188-0.188-0.313-0.125 0.688-0.063 1.25-0.188 1.875-0.5 0.438-0.25 0.625-0.625 0.563-1.188 0-0.438-0.188-0.813-0.375-1.25-0.5-0.75-1.188-1.313-1.875-1.813-0.375-0.25-0.75-0.438-1.188-0.688-0.125-0.063-0.188-0.125-0.063-0.25 0.125-0.188 0.188-0.313 0.25-0.5 0.563-1.063 1.188-2.125 1.688-3.25 0.125-0.313 0.313-0.625 0.375-1 0-0.125 0-0.313 0-0.438 0-0.063 0-0.063-0.063-0.125-0.063 0-0.125 0.063-0.125 0.063-0.063 0.125-0.125 0.313-0.25 0.438-0.438 0.688-0.875 1.5-1.375 2.188-0.438 0.75-0.875 1.5-1.375 2.25-0.063 0.125-0.125 0.125-0.25 0.063-0.813-0.313-1.563-0.563-2.313-0.813-1-0.313-2.063-0.563-3.063-0.688-0.125 0-0.25-0.063-0.313-0.188-0.063-0.188-0.188-0.375-0.313-0.563-1.063-1.875-2.313-3.688-3.875-5.188-0.688-0.625-1.5-1.188-2.563-1.313-0.063 0-0.125 0-0.25 0-0.313 0.063-0.563 0.125-0.813 0.313-0.5 0.313-0.813 0.75-1 1.313-0.5 1-0.75 2.063-0.875 3.188 0 0.375-0.063 0.75-0.063 1.125-0.125 0-0.125-0.125-0.188-0.188-0.313-0.375-0.688-0.75-1.125-1-0.313-0.25-0.688-0.25-1.125-0.063-0.563 0.25-0.938 0.75-1.25 1.313-0.313 0.813-0.5 1.625-0.5 2.5 0 0.375 0 0.75 0 1.125 0 0.125-0.063 0.188-0.188 0.188-0.188 0-0.375 0-0.563 0-0.75 0.063-1.563 0.063-2.313 0.125-0.688 0-1.375 0.063-2 0.188-0.188 0-0.375 0.063-0.563 0.188-0.063 0-0.188 0.063-0.125 0.125 0 0.063 0.125 0.063 0.188 0.063 1 0.063 1.938 0.063 3 0.063 0.75 0.063 1.438 0.063 2.188 0.063 0.063 0 0.125 0 0.188 0.063 0.313 0 0.313 0 0.313 0.313 0.25 1.813 0.688 3.563 1.375 5.25 0.063 0.125 0 0.25-0.063 0.313-0.188 0.375-0.375 0.688-0.625 1.063-0.875 1.5-1.563 3.063-2 4.75-0.25 0.938-0.438 1.813-0.313 2.75s0.688 1.5 1.5 1.75c0.563 0.125 1.188 0.125 1.75 0 1-0.188 2-0.5 2.938-0.938 0.313-0.125 0.5-0.25 0.813-0.375-0.063 0.188-0.125 0.313-0.188 0.5-0.125 0.313-0.25 0.625-0.25 1-0.125 0.688 0.063 1.125 0.75 1.438 0.188 0.063 0.438 0.125 0.625 0.188 0.5 0.063 1.063 0 1.5-0.063 1-0.25 1.813-0.688 2.688-1.188 0.125-0.125 0.188-0.125 0.313 0.063 0.5 0.813 1 1.625 1.563 2.438 0.375 0.625 0.813 1.25 1.25 1.75 0.188 0.188 0.375 0.313 0.625 0.313 0.063-0.125 0-0.188-0.063-0.25-0.188-0.25-0.313-0.5-0.438-0.688-0.188-0.438-0.438-0.75-0.625-1.125-0.5-1-1.063-1.938-1.563-2.875-0.125-0.25-0.125-0.25 0.125-0.438 0.625-0.5 1.25-1 1.875-1.625 0.688-0.625 1.375-1.313 2-2.125 0.125-0.188 0.25-0.188 0.438-0.188 0.813 0 1.625 0 2.5-0.063s1.625-0.125 2.438-0.25c1.188-0.188 2.313-0.438 3.375-1 0.688-0.375 1.313-0.875 1.375-1.75 0 0 0 0 0 0-0.063-0.125-0.063-0.25 0-0.375 0 0 0-0.063 0-0.063-0.063-0.188-0.063-0.438-0.125-0.625zM12.563 7.75c0.125-0.875 0.313-1.75 0.688-2.563 0.188-0.375 0.313-0.688 0.625-0.938 0.375-0.5 0.938-0.563 1.438-0.375 0.313 0.063 0.563 0.25 0.813 0.438 0.938 0.75 1.688 1.813 2.313 2.875-2.125 0-4.125 0.438-5.938 1.563-0.063-0.375 0-0.688 0.063-1zM7.563 9.688c0.063-0.688 0.125-1.375 0.375-2 0.125-0.313 0.313-0.625 0.563-0.813 0.5-0.438 1.375-0.313 1.625 0.313 0.063 0 0.063 0.063 0.063 0.125 0 0.75 0.063 1.5 0.188 2.313 0 0.125-0.063 0.063-0.125 0.063-0.438 0-0.813 0-1.25 0 0 0 0 0.063 0 0.063-0.438 0-0.813 0-1.25 0-0.125 0.063-0.188 0.063-0.188-0.063zM9.313 23.25c-0.375 0.063-0.688 0.063-1 0-0.813-0.125-1.25-0.625-1.313-1.438 0-0.563 0.125-1.063 0.25-1.563 0.25-0.813 0.563-1.625 1.063-2.438 1.063 1.813 2.375 3.313 4.188 4.375 0 0.063-0.063 0.063-0.063 0.063-1 0.438-2.063 0.813-3.125 1zM15.875 25.938c-0.688 0.375-1.375 0.625-2.125 0.688-0.125 0-0.188 0-0.25 0-1-0.125-1.25-0.875-0.938-1.688 0-0.063 0.063-0.125 0.125-0.125 0.313-0.188 0.625-0.438 0.938-0.625 0.313-0.25 0.625-0.438 0.938-0.625 0.125 0.188 0.25 0.375 0.375 0.625 0.313 0.5 0.625 1.063 1 1.625 0 0 0.125 0.063-0.063 0.125zM19.438 23.188c-0.813 0.75-1.625 1.5-2.5 2.125-0.125 0.125-0.188 0.125-0.25-0.063-0.313-0.625-0.625-1.313-1-1.938 0-0.063-0.063-0.125-0.063-0.25 1.313 0.063 2.5-0.25 3.625-0.875-1.125 0.313-2.313 0.438-3.5 0.375 0-0.125 0.063-0.125 0.125-0.188 2.5-2.125 4.75-4.5 6.75-7.125 0.125-0.188 0.125-0.25-0.063-0.313-0.25-0.125-0.5-0.313-0.75-0.438-0.063 0-0.125-0.063-0.188 0.063-0.75 1.063-1.688 1.938-2.625 2.813-1.813 1.563-3.75 2.938-5.75 4.313-0.125 0.063-0.188 0.063-0.313 0-1.375-0.813-2.313-1.938-3.063-3.25-0.938-1.5-1.438-3.188-1.813-5-0.25-0.813-0.375-1.688-0.438-2.563-0.063-0.188 0-0.25 0.188-0.25 0.75 0.125 1.563 0.125 2.25 0.188 0.188 0 0.188 0.063 0.125 0.188-0.625 1.063-0.938 2.125-0.938 3.313 0 0.063 0 0.125 0 0.125 0.313-1.063 0.688-2.125 1.375-3.125 0.125 0.688 0.25 1.313 0.375 1.875 0.625 2.625 1.438 5.125 2.438 7.563 0.063 0.188 0.125 0.188 0.25 0.125 0.25-0.188 0.5-0.313 0.75-0.438 0.063-0.063 0.125-0.125 0.063-0.188-0.563-1.188-0.813-2.375-1.063-3.625-0.5-2.313-0.75-4.625-0.875-6.938 0-0.188 0-0.25 0.188-0.375 1.125-0.688 2.375-1 3.688-1.063 2-0.125 4 0.25 5.875 0.813 0.938 0.313 1.813 0.625 2.625 1 0.063 0.063 0.125 0.063 0.063 0.188-0.438 0.688-0.813 1.313-1.313 2-0.563-1.125-1.438-2-2.5-2.563 0.375 0.375 0.813 0.813 1.125 1.313 0.313 0.438 0.625 0.938 0.875 1.5-0.25-0.063-0.563-0.188-0.813-0.25-0.75-0.313-1.5-0.5-2.25-0.75-2.125-0.563-4.25-1-6.375-1.25-0.438-0.063-0.438-0.063-0.438 0.375 0 0.25 0 0.438 0 0.625 0 0.125 0 0.125 0.125 0.125 1.5 0.125 2.938 0.625 4.375 1.125 2 0.688 3.938 1.563 5.813 2.5 0.063 0.063 0.063 0.125 0.063 0.25 0 1.438-0.438 2.75-1.125 4.063-0.813 1.5-1.875 2.75-3.125 3.875zM27 20.25c-0.375 0.313-0.813 0.5-1.25 0.625-1 0.25-2.063 0.375-3.125 0.375 1.063-1.813 1.75-3.75 1.75-5.875 0.063 0 0.125 0.063 0.188 0.063 0.938 0.75 1.813 1.438 2.563 2.438 0.188 0.25 0.313 0.5 0.438 0.813 0.125 0.625 0 1.125-0.563 1.563zM27.188 13.938c-0.25 0.125-0.5 0.125-0.75 0-0.563-0.375-1.25-0.625-1.875-0.938-0.063 0-0.125-0.063-0.063-0.188 0.375-0.688 0.813-1.438 1.188-2.188 0.063-0.063 0.063-0.125 0.188-0.063 0.563 0.438 1.188 0.813 1.625 1.438 0.188 0.313 0.375 0.625 0.375 1 0 0.438-0.25 0.813-0.688 0.938z"></path>
</svg>
