<!-- Generated by IcoMoon.io -->
<svg version="1.1" xmlns="http://www.w3.org/2000/svg" width="32" height="32" viewBox="0 0 32 32">
<title>bebee</title>
<path d="M10 16.625c1.313-0.563 1.875-2.875 6.938-4 0-0.813-2.625-9.5-8.063-12.188-5.625-2.563-6.5 6.813-4.125 10.875 0.188 0.75 3.938 5.813 5.25 5.313zM14.813 5.688c1.25 2.25 1.75 4.375 1.938 4.5s1.25 1.063 1.313 0.938c0.313-1.063 0.438-1.688 0.5-1.938-2.25-11.563-7.188-7.938-7.188-7.938s2.125 2.125 3.438 4.438zM25.063 8.875c-0.188-0.125-0.375-0.188-0.625-0.313l0.063-0.063 2.563 0.688c0 0 0.438 0.063 0.5-0.438 0.125-0.438-0.188-0.688-0.188-0.688s-2.375-0.625-2.625-0.688c-0.5-0.125-1.375 0.188-1.938 0.438-0.063-0.063-0.125-0.063-0.188-0.063-0.125-0.25-0.625-1.438-0.375-1.563 0.188-0.125 3.25-0.25 3.25-0.25s0.438-0.25 0.375-0.75c0-0.438-0.625-0.5-0.625-0.5s-3.625 0.25-3.813 0.25c-0.813 0.125-0.438 1.125-0.438 1.125l0.375 1.563c-0.688 0-1.313 0.375-1.75 1.125-1.125 1.813-0.688 5.438 1.5 6.75s6 1.688 7.063-0.125c1.063-1.813-0.938-5.125-3.125-6.5zM26.313 13.625c-0.688 0.563-2.125 0.063-3.063-1.125-1-1.188-1.25-2.625-0.5-3.25 0.688-0.563 2.125-0.063 3.063 1.125 1 1.188 1.25 2.625 0.5 3.25zM7.563 24.75c0 0-1.063 2.875 0.688 7.063 5.813 0.75 7.875-1.625 7.875-1.625s-3.438-1.313-5-2.375c-1.5-0.938-3.563-3.063-3.563-3.063zM10.625 17.375c0 0-2.75 1.688-2.813 5.063 0 0.313 2.813 4.25 10.125 6.625 1.875-0.813 2.25-5.188 2.25-5.188s-3.688-1.813-5.375-2.75c-1.688-0.875-4.188-3.75-4.188-3.75zM17.813 13.75c-3.938 0.563-5.313 2.75-5.313 2.75s2.75 3.688 7.313 5.188c0.063-0.063-0.063-4.125 0.125-4.563 0.25-0.375 0.875-0.625 0.875-0.625s-1-0.75-1.625-1.438c-0.75-0.688-0.375-1.375-1.375-1.313z"></path>
</svg>
