<!-- Generated by IcoMoon.io -->
<svg version="1.1" xmlns="http://www.w3.org/2000/svg" width="32" height="32" viewBox="0 0 32 32">
<title>bing</title>
<path d="M3.2 0c2.432 0.736 4.896 1.504 7.328 2.24 0 6.016 0 12.064 0 18.080-2.368 2.112-4.736 4.224-7.104 6.336 5.792-3.040 11.584-6.080 17.344-9.12-1.6-0.736-3.2-1.44-4.832-2.176-1.088-2.368-2.176-4.704-3.264-7.072 5.408 1.632 10.752 3.296 16.128 4.928 0 2.624 0 5.248 0 7.872-6.112 3.648-12.224 7.264-18.304 10.912-2.432-1.696-4.864-3.392-7.296-5.12 0-8.96 0-17.92 0-26.88z"></path>
</svg>
