<!-- Generated by IcoMoon.io -->
<svg version="1.1" xmlns="http://www.w3.org/2000/svg" width="32" height="32" viewBox="0 0 32 32">
<title>bitbucket</title>
<path d="M29.504 3.552c-0.192-0.288-0.448-0.544-0.736-0.736-0.608-0.48-1.312-0.832-2.016-1.12-1.536-0.608-3.136-0.992-4.736-1.248-1.984-0.32-3.968-0.448-6.080-0.448-1.888 0-3.84 0.128-5.792 0.448-1.376 0.224-2.752 0.512-4.064 0.96-0.864 0.288-1.728 0.672-2.496 1.184-0.384 0.224-0.736 0.512-0.992 0.864-0.352 0.448-0.512 0.928-0.416 1.504 0.192 1.12 0.32 2.208 0.512 3.296 0.256 1.632 0.544 3.264 0.8 4.864 0.32 1.792 0.64 3.616 0.928 5.408 0.064 0.416 0.256 0.768 0.544 1.088 0.192 0.192 0.384 0.384 0.576 0.544 0.736 0.608 1.568 1.024 2.464 1.376 2.112 0.832 4.288 1.216 6.56 1.344 1.632 0.096 3.264 0.032 4.896-0.192 1.376-0.192 2.72-0.48 4.064-0.96 0.992-0.352 1.92-0.8 2.752-1.408 0.352-0.256 0.704-0.544 0.96-0.896 0.192-0.256 0.32-0.512 0.352-0.8 0.416-2.368 0.832-4.736 1.216-7.072 0.352-2.208 0.704-4.384 1.056-6.592 0.064-0.512-0.064-0.992-0.352-1.408v0zM15.968 19.84c-2.432 0-4.384-1.984-4.384-4.416s1.984-4.384 4.416-4.384c2.432 0 4.416 1.984 4.384 4.448 0 2.4-1.984 4.352-4.416 4.352v0zM24.768 4.448c-0.128 0.128-0.288 0.256-0.448 0.352-0.448 0.256-0.96 0.416-1.472 0.544-0.96 0.256-1.952 0.384-2.944 0.48-1.28 0.128-2.592 0.192-3.84 0.192-1.504 0-2.944-0.064-4.384-0.256-1.088-0.128-2.144-0.288-3.168-0.64-0.32-0.096-0.608-0.224-0.896-0.384-0.16-0.064-0.288-0.192-0.384-0.32-0.192-0.224-0.192-0.448 0-0.672 0.128-0.128 0.256-0.224 0.416-0.32 0.416-0.256 0.896-0.384 1.376-0.512 0.992-0.256 2.016-0.416 3.040-0.512 1.696-0.128 3.36-0.192 5.024-0.128 1.536 0.032 3.072 0.16 4.608 0.448 0.704 0.128 1.408 0.288 2.080 0.544 0.224 0.096 0.48 0.224 0.672 0.352 0.128 0.064 0.224 0.16 0.288 0.256 0.192 0.192 0.192 0.384 0.032 0.576v0zM26.432 22.976c0 0.096 0 0.192-0.032 0.288-0.32 1.632-0.608 3.232-0.928 4.864-0.096 0.544-0.352 0.992-0.736 1.376-0.416 0.448-0.928 0.768-1.472 1.024-0.992 0.512-2.048 0.832-3.104 1.056-1.376 0.288-2.784 0.416-3.616 0.416-2.432 0-4.224-0.192-5.984-0.704-0.8-0.224-1.6-0.544-2.336-0.96-0.384-0.224-0.736-0.48-1.056-0.8-0.384-0.384-0.64-0.864-0.736-1.408-0.288-1.632-0.608-3.232-0.928-4.864 0-0.096-0.032-0.16-0.032-0.256 0.032-0.384 0.384-0.608 0.736-0.416 0.032 0.032 0.064 0.032 0.096 0.064 1.184 0.864 2.496 1.44 3.904 1.888 1.28 0.416 2.592 0.64 3.904 0.768 1.536 0.128 3.072 0.096 4.576-0.096 2.016-0.288 3.936-0.864 5.76-1.856 0.352-0.192 0.704-0.448 1.024-0.64 0.064-0.032 0.096-0.064 0.16-0.096 0.448-0.192 0.8 0 0.8 0.352v0zM18.208 15.424c0 1.216-0.992 2.208-2.208 2.208s-2.208-0.992-2.176-2.208c0-1.216 0.992-2.208 2.208-2.208 1.184 0 2.176 0.992 2.176 2.208v0z"></path>
</svg>
