<!-- Generated by IcoMoon.io -->
<svg version="1.1" xmlns="http://www.w3.org/2000/svg" width="32" height="32" viewBox="0 0 32 32">
<title>blackberry</title>
<path d="M10.374 7.306c0-1.023-0.731-2.484-3.36-2.484-1.023 0-4.237 0-4.237 0l-1.315 5.552c0 0 2.192 0 4.384 0 3.507 0 4.529-1.607 4.529-3.068zM21.625 7.306c0-1.023-0.731-2.484-3.36-2.484-1.023 0-4.238 0-4.238 0l-1.169 5.552c0 0 2.192 0 4.384 0 3.36-0 4.383-1.607 4.383-3.068zM8.913 15.488c0-1.023-0.731-2.484-3.36-2.484-1.023 0-4.237 0-4.237 0l-1.315 5.554c0 0 2.192 0 4.383 0 3.507 0 4.529-1.461 4.529-3.069zM20.164 15.488c0-1.023-0.731-2.484-3.36-2.484-1.023 0-4.238 0-4.238 0l-1.169 5.554c0 0 2.192 0 4.384 0 3.36 0 4.383-1.461 4.383-3.069zM32 12.128c0-1.023-0.731-2.484-3.361-2.484-1.022 0-4.237 0-4.237 0l-1.168 5.552c0 0 2.192 0 4.383 0 3.361 0 4.384-1.461 4.384-3.068zM30.246 20.749c0-1.023-0.731-2.484-3.361-2.484-1.023 0-4.237 0-4.237 0l-1.17 5.552c0 0 2.192 0 4.383 0 3.507 0 4.384-1.461 4.384-3.068zM18.41 24.11c0-1.023-0.73-2.484-3.36-2.484-1.023 0-4.237 0-4.237 0l-1.169 5.553c0 0 2.192 0 4.384 0 3.508 0 4.383-1.607 4.383-3.068z"></path>
</svg>
