<!-- Generated by IcoMoon.io -->
<svg version="1.1" xmlns="http://www.w3.org/2000/svg" width="32" height="32" viewBox="0 0 32 32">
<title>bloglovin</title>
<path d="M16.704 15.584c2.464-0.512 4.48-2.72 4.48-5.984 0-3.456-2.528-6.624-7.488-6.624h-13.696v26.016h14.144c4.992 0 7.584-3.136 7.584-7.040-0.032-3.232-2.208-5.92-5.024-6.368zM5.536 7.872h6.944c1.888 0 3.040 1.12 3.040 2.72 0 1.664-1.184 2.72-3.040 2.72h-6.944v-5.44zM12.736 24.128h-7.2v-5.92h7.168c2.144 0 3.328 1.312 3.328 2.976 0 1.856-1.248 2.944-3.296 2.944zM28.544 3.040c-1.664 0-3.072 1.408-3.072 3.072s1.184 2.816 2.656 2.816c0.32 0 0.608-0.032 0.736-0.128-0.32 1.408-1.76 3.040-3.008 3.712l2.144 1.76c2.4-1.696 4-4.32 4-7.264 0-2.528-1.632-3.968-3.456-3.968z"></path>
</svg>
