<!-- Generated by IcoMoon.io -->
<svg version="1.1" xmlns="http://www.w3.org/2000/svg" width="32" height="32" viewBox="0 0 32 32">
<title>bonanza</title>
<path d="M15.040 0c0 0.128-0.032 0.288-0.032 0.416 0 3.68 0 7.328 0 11.008 0 0.128 0 0.288 0.032 0.544 0.416-0.416 0.704-0.768 1.056-1.056 3.808-3.328 10.016-2.528 12.608 2.4 0.896 1.696 1.344 3.52 1.504 5.408 0.192 2.208 0.064 4.416-0.544 6.56-0.544 1.856-1.408 3.52-2.912 4.8-3.328 2.848-8.416 2.496-11.36-0.8-0.288-0.32-0.416-0.288-0.704 0-0.64 0.672-1.28 1.312-1.92 1.952-0.192 0.192-0.416 0.288-0.672 0.288-2.336 0-4.704 0-7.040 0-0.416 0-0.512-0.128-0.512-0.512 0-8.032 0-16.064 0-24.064 0-0.672 0-0.672-0.64-0.672-0.544 0-1.088-0.032-1.6 0-0.416 0.032-0.544-0.096-0.544-0.512 0.032-1.92 0-3.84 0-5.76 4.416 0 8.832 0 13.28 0zM15.008 20.448c0 1.088 0 2.144 0 3.232 0 0.512 0.128 0.96 0.352 1.408 0.384 0.768 0.992 1.088 1.824 1.088s1.376-0.416 1.696-1.12c0.256-0.576 0.352-1.152 0.352-1.792 0-1.856 0-3.744 0-5.6 0-0.512-0.064-1.024-0.256-1.536-0.32-0.896-0.96-1.344-1.856-1.344s-1.568 0.448-1.888 1.344c-0.128 0.352-0.224 0.736-0.224 1.152 0 1.056 0 2.112 0 3.168z"></path>
</svg>
