<!-- Generated by IcoMoon.io -->
<svg version="1.1" xmlns="http://www.w3.org/2000/svg" width="32" height="32" viewBox="0 0 32 32">
<title>calendly</title>
<path d="M31.264 4.832c0-1.984-1.344-3.328-3.328-3.328-1.184 0-2.4 0-3.584 0-0.544 0-0.544 0-0.576-0.576 0-0.704-0.672-1.152-1.28-0.832-0.384 0.192-0.512 0.576-0.48 0.96 0.032 0.32-0.064 0.448-0.416 0.448-3.68 0-7.392 0-11.072 0-0.512 0-0.512 0-0.544-0.512-0.032-0.544-0.32-0.896-0.736-0.96-0.608-0.064-1.024 0.288-1.024 0.928 0 0.544 0 0.544-0.544 0.544-1.248 0-2.464 0-3.712 0-1.856 0.032-3.232 1.408-3.232 3.232 0 8 0 16 0 24 0 1.856 1.376 3.232 3.232 3.232 4 0 8 0 12 0 3.968 0 7.968-0.032 11.936 0.032 1.664 0.032 3.328-1.248 3.328-3.328 0-7.936 0.032-15.904 0.032-23.84zM29.504 28.608c0 1.088-0.544 1.664-1.664 1.664-7.904 0-15.776 0-23.68 0-1.088 0-1.664-0.544-1.664-1.664 0-7.904 0-15.808 0-23.712 0-1.056 0.544-1.632 1.6-1.664 1.28 0 2.56 0 3.808 0 0.256 0 0.32 0.064 0.32 0.32-0.032 0.608 0 1.248 0 1.856 0 0.576 0.32 0.96 0.864 0.96 0.512 0 0.896-0.352 0.896-0.928 0-0.64 0-1.248 0-1.888 0-0.256 0.096-0.32 0.32-0.32 3.808 0 7.616 0 11.424 0 0.256 0 0.32 0.064 0.32 0.32-0.032 0.608 0 1.248 0 1.856 0 0.576 0.352 0.928 0.864 0.96 0.512 0 0.864-0.352 0.896-0.896 0-0.64 0-1.28 0-1.92 0-0.256 0.096-0.32 0.32-0.32 1.248 0 2.528 0 3.776 0 1.088 0 1.632 0.576 1.632 1.664 0 3.968 0 7.904 0 11.872-0.032 3.936-0.032 7.872-0.032 11.84zM16.832 11.872c1.28 0 2.432 0.288 3.424 1.024 0.16 0.128 0.384 0.256 0.192 0.512s-0.352 0.096-0.544-0.032c-2.88-1.984-6.784-0.672-7.68 2.592-0.768 2.784 1.216 5.696 4.096 6.016 1.344 0.16 2.528-0.16 3.616-0.96 0.192-0.128 0.352-0.192 0.512 0.032 0.128 0.192 0.032 0.352-0.128 0.448-1.888 1.312-3.936 1.472-5.952 0.384s-3.008-2.816-2.88-5.152c0.192-2.752 2.848-4.992 5.344-4.864z"></path>
</svg>
