<!-- Generated by IcoMoon.io -->
<svg version="1.1" xmlns="http://www.w3.org/2000/svg" width="32" height="32" viewBox="0 0 32 32">
<title>cdbaby</title>
<path d="M18.144 7.744l-0.096-0.064-13.792-7.52c-0.192-0.096-0.448-0.16-0.704-0.16-0.832 0-1.536 0.64-1.536 1.44 0 0 0 0.032 0 0.032s0 0.032 0 0.032v14.912c0 0 0 0.032 0 0.032s0 0.032 0 0.032c0.032 0.8 0.704 1.44 1.568 1.44 0.224 0 0.416-0.032 0.608-0.128l0.288-0.16 13.696-7.488c0.416-0.256 0.672-0.704 0.672-1.216-0.032-0.448-0.288-0.896-0.704-1.184v0zM24.16 23.456l-0.064-0.032-11.552-6.336c-0.192-0.096-0.384-0.128-0.608-0.128-0.704 0-1.28 0.544-1.312 1.216 0 0 0 0.032 0 0.032s0 0.032 0 0.032v12.48c0 0 0 0.032 0 0.032s0 0.032 0 0.032c0.032 0.672 0.608 1.216 1.312 1.216 0.192 0 0.352-0.032 0.512-0.096l0.256-0.128 11.36-6.208 0.096-0.064c0.352-0.224 0.576-0.608 0.576-1.024s-0.224-0.8-0.576-1.024v0zM29.632 13.664l-0.064-0.032-7.296-4-0.096-0.064c-0.128-0.064-0.256-0.096-0.384-0.096-0.448 0-0.832 0.352-0.832 0.768 0 0 0 0 0 0.032 0 0 0 0 0 0.032v8.032c0 0 0 0 0 0.032 0 0 0 0 0 0.032 0 0.416 0.384 0.768 0.832 0.768 0.128 0 0.224-0.032 0.32-0.064l0.16-0.096 7.36-4.032c0.224-0.128 0.352-0.384 0.352-0.672 0-0.256-0.128-0.512-0.352-0.64v0z"></path>
</svg>
