<!-- Generated by IcoMoon.io -->
<svg version="1.1" xmlns="http://www.w3.org/2000/svg" width="32" height="32" viewBox="0 0 32 32">
<title>chrome</title>
<path d="M22 16c0 3.313-2.688 6-6 6s-6-2.688-6-6c0-3.313 2.688-6 6-6s6 2.688 6 6zM16.063 8.938h14.438c-2.625-5.313-8.125-8.938-14.375-8.938-5.125 0-9.688 2.375-12.625 6.125l5.5 9.375c0.25-3.688 3.313-6.563 7.063-6.563zM30.875 10h-11c2 1.25 3.25 3.438 3.25 5.938 0 1.188-0.313 2.375-0.875 3.375l-7.25 12.625c0.375 0 0.688 0 1.063 0 8.813 0 15.938-7.125 15.938-16 0-2.063-0.438-4.125-1.125-5.938zM16.25 23.188c-3.125 0-5.813-2-6.75-4.75l-6.75-11.438c-1.75 2.563-2.75 5.625-2.75 8.938 0 8.188 6.063 14.938 13.875 16l5.625-9.563c-1 0.5-2.063 0.813-3.25 0.813z"></path>
</svg>
