<!-- Generated by IcoMoon.io -->
<svg version="1.1" xmlns="http://www.w3.org/2000/svg" width="32" height="32" viewBox="0 0 32 32">
<title>coderwall</title>
<path d="M27.938 9.5c2.25 0 4-1.813 4-4s-1.75-4-4-4c-2.188 0-3.938 1.813-3.938 4s1.75 4 3.938 4zM27.938 12c-2.188 0-3.938 1.813-3.938 4s1.75 4 3.938 4c2.25 0 4-1.813 4-4s-1.75-4-4-4zM27.938 22.5c-2.188 0-3.938 1.813-3.938 4s1.75 4 3.938 4c2.25 0 4-1.813 4-4s-1.75-4-4-4zM15.875 1.5c-2.188 0-4 1.813-4 4s1.813 4 4 4c2.188 0 4-1.813 4-4s-1.813-4-4-4zM15.875 12c-2.188 0-4 1.813-4 4s1.813 4 4 4c2.188 0 4-1.813 4-4s-1.813-4-4-4zM3.938 1.5c-2.188 0-4 1.813-4 4s1.813 4 4 4c2.188 0 4-1.813 4-4s-1.813-4-4-4z"></path>
</svg>
