<!-- Generated by IcoMoon.io -->
<svg version="1.1" xmlns="http://www.w3.org/2000/svg" width="32" height="32" viewBox="0 0 32 32">
<title>codepen</title>
<path d="M32 11.136c0-0.064-0.032-0.16-0.032-0.224 0-0.032 0-0.064 0-0.096-0.032-0.16-0.096-0.32-0.192-0.48 0 0 0-0.032-0.032-0.032 0-0.032-0.032-0.032-0.032-0.032-0.096-0.128-0.224-0.288-0.384-0.384v0c0 0 0 0 0 0l-14.464-9.6c-0.064-0.032-0.096-0.064-0.16-0.064-0.064-0.032-0.096-0.064-0.16-0.064-0.352-0.128-0.704-0.128-1.056 0-0.064 0.032-0.096 0.032-0.16 0.064s-0.096 0.032-0.16 0.064l-14.464 9.6c0 0 0 0 0 0v0c-0.16 0.096-0.256 0.224-0.384 0.384 0 0.032-0.032 0.032-0.032 0.032s0 0.032-0.032 0.032c-0.096 0.16-0.16 0.32-0.192 0.48 0 0.032 0 0.064 0 0.096 0 0.064-0.032 0.16-0.032 0.224v9.76c0 0.064 0.032 0.16 0.032 0.224 0 0.032 0 0.064 0 0.096 0.032 0.16 0.096 0.32 0.192 0.48 0 0 0 0.032 0.032 0.032 0 0.032 0.032 0.032 0.032 0.032 0.096 0.128 0.224 0.288 0.384 0.384v0c0 0 0 0 0 0l14.464 9.6c0.064 0.032 0.096 0.064 0.16 0.064 0.064 0.032 0.096 0.064 0.16 0.064 0.16 0.064 0.352 0.096 0.512 0.096s0.352-0.032 0.512-0.096c0.064-0.032 0.096-0.032 0.16-0.064s0.096-0.032 0.16-0.064l14.496-9.6c0.032-0.032 0.032-0.064 0.064-0.064 0.064-0.032 0.096-0.096 0.16-0.128 0.032-0.032 0.096-0.096 0.128-0.16 0.032-0.032 0.064-0.064 0.064-0.096 0 0 0-0.032 0.032-0.032 0.096-0.16 0.16-0.32 0.192-0.48 0-0.032 0-0.064 0-0.096 0-0.064 0.032-0.16 0.032-0.224v-9.728zM16 19.040l-4.544-3.040 4.544-3.040 4.544 3.040-4.544 3.040zM17.504 10.304v-5.984l10.24 6.784-4.512 3.040-5.728-3.84zM14.496 10.304l-5.728 3.84-4.512-3.040 10.24-6.784v5.984zM6.048 16l-3.008 2.016v-4.064l3.008 2.048zM8.768 17.824l5.728 3.84v5.984l-10.24-6.784 4.512-3.040zM17.504 21.664l5.728-3.84 4.512 3.040-10.24 6.784v-5.984zM25.952 16l3.008-2.016v4.064l-3.008-2.048z"></path>
</svg>
