<!-- Generated by IcoMoon.io -->
<svg version="1.1" xmlns="http://www.w3.org/2000/svg" width="32" height="32" viewBox="0 0 32 32">
<title>crunchbase</title>
<path d="M11.616 21.024c-0.992 2.208-3.584 3.168-5.792 2.176s-3.168-3.584-2.176-5.792 3.584-3.168 5.792-2.176c0.96 0.448 1.728 1.216 2.176 2.176h3.424c-0.992-4.096-5.12-6.624-9.248-5.6-4.064 0.992-6.592 5.12-5.6 9.216s5.12 6.624 9.248 5.6c2.784-0.672 4.928-2.848 5.6-5.6h-3.424zM24.384 11.584h-0.544c-1.344 0.096-2.624 0.544-3.712 1.312v-8.544h-3.104v21.888h3.136v-0.8c2.080 1.408 4.704 1.696 7.008 0.8 0.8-0.288 1.536-0.736 2.208-1.312 3.2-2.72 3.552-7.52 0.832-10.72-1.504-1.664-3.616-2.624-5.824-2.624zM28.736 19.872c0 0.032 0 0.096 0 0.16-0.032 0.192-0.064 0.352-0.128 0.544v0c-0.064 0.192-0.128 0.352-0.192 0.544v0c-0.416 0.928-1.152 1.632-2.080 2.080-0.256 0.128-0.544 0.224-0.864 0.32v0h-1.824c-0.384-0.064-0.768-0.192-1.12-0.352v0c-0.352-0.16-0.672-0.384-0.96-0.672v0c-0.288-0.256-0.544-0.576-0.768-0.928v0c0-0.192-0.192-0.352-0.288-0.544v0c-0.256-0.608-0.352-1.216-0.352-1.824 0-0.64 0.128-1.28 0.416-1.856v0c0.672-1.376 1.984-2.336 3.52-2.496h0.448c2.432 0 4.384 1.952 4.384 4.384v0c-0.064 0.16-0.128 0.32-0.192 0.512v0.128z"></path>
</svg>
