<!-- Generated by IcoMoon.io -->
<svg version="1.1" xmlns="http://www.w3.org/2000/svg" width="32" height="32" viewBox="0 0 32 32">
<title>diablo</title>
<path d="M25.813 12.375c-0.875-0.375-1.688-1.125-2.75-1.438 1 1.438 2.125 3 2 5.625-0.125 2-1.063 3.438-2.125 4.563s-2.438 1.938-4.188 2.5c-0.875 0.25-1.875 0.5-2.875 0.5-3.188 0-6.438-0.25-9.563 0.125 0-0.313-0.063-0.563-0.125-0.813 1.25-0.313 3-0.688 3.125-2.25 0.063-0.813 0.125-10-0.063-10.688-0.25-0.938-2-1.25-3-1.438 0-0.25 0.125-0.5 0.063-0.813 2.125-0.25 4.25-0.313 6.438-0.375 5.813-0.25 10.875 0.938 13.063 4.5zM13.625 10.063c-0.313 0.063-0.188 1-0.188 1.25 0 2.375-0.063 5.125-0.063 7.438 0 0.75-0.188 2.313 0.25 2.688s2.125 0.188 2.875 0.188c3.5-0.25 5.125-4.125 3.938-7.625-0.813-2.25-2.563-3.75-5.375-3.938-0.375-0.063-0.938-0.063-1.25 0-0.063 0-0.125 0-0.188 0zM15.313 25.063c0.25 3.938 0.75 6.938 1.25 6.938s0.938-3.063 1.188-7.188c-0.813 0.188-1.563 0.188-2.438 0.25zM11.75 28.75c0.313 0 0.625-1.75 0.813-3.75-0.563 0-1.125 0-1.625 0 0.188 2 0.5 3.75 0.813 3.75zM20.625 23.938c0.188 3.063 0.438 4.875 0.813 4.875s0.688-2.313 0.875-5.813c-0.563 0.313-1.125 0.688-1.688 0.938zM16.563 0c-0.5 0-1 2.875-1.25 6.813 0.875 0.063 1.625 0.125 2.438 0.25-0.25-4.063-0.688-7.063-1.188-7.063zM11.75 3.688c-0.313 0-0.625 1.25-0.813 3.313 0.5 0 1.063 0 1.625 0-0.188-2.063-0.5-3.313-0.813-3.313zM21.438 3.688c-0.313 0.063-0.625 1.375-0.813 3.875 0.5 0.125 1.188 0.375 1.688 0.688-0.125-2.813-0.438-4.625-0.875-4.563z"></path>
</svg>
