<!-- Generated by IcoMoon.io -->
<svg version="1.1" xmlns="http://www.w3.org/2000/svg" width="32" height="32" viewBox="0 0 32 32">
<title>discord</title>
<path d="M28.063 7.438c-3.938-2.938-7.688-2.813-7.688-2.813l-0.375 0.438c4.688 1.375 6.813 3.438 6.813 3.438-2.875-1.5-5.688-2.313-8.25-2.563-2-0.25-3.875-0.188-5.563 0.063-0.125 0-0.25 0-0.438 0.063-1 0.063-3.313 0.438-6.25 1.688-1.063 0.5-1.625 0.813-1.625 0.813s2.25-2.188 7.188-3.563l-0.313-0.313c0 0-3.75-0.125-7.688 2.813 0 0-3.938 7.125-3.938 15.875 0 0 2.313 3.938 8.375 4.125 0 0 1.063-1.25 1.813-2.25-3.5-1.063-4.75-3.188-4.75-3.188s0.25 0.188 0.75 0.438c0 0 0.063 0.063 0.063 0.063 0.125 0.063 0.188 0.125 0.25 0.188 0.688 0.375 1.375 0.625 2.063 0.875 1.125 0.5 2.438 0.875 4 1.188 2.063 0.375 4.5 0.563 7.125 0.063 1.25-0.25 2.563-0.625 3.938-1.188 1-0.375 2.063-0.875 3.188-1.625 0 0-1.375 2.188-4.938 3.188 0.813 1.063 1.813 2.25 1.813 2.25 6.063-0.188 8.313-4.125 8.313-4.125 0.063-8.813-3.875-15.938-3.875-15.938zM10.875 20.75c-1.5 0-2.75-1.375-2.75-3 0-1.688 1.25-3 2.75-3 1.563 0 2.813 1.313 2.813 3 0 1.625-1.25 3-2.813 3zM20.875 20.75c-1.5 0-2.75-1.375-2.75-3 0-1.688 1.25-3 2.75-3 1.563 0 2.813 1.313 2.813 3 0 1.625-1.25 3-2.813 3z"></path>
</svg>
