<!-- Generated by IcoMoon.io -->
<svg version="1.1" xmlns="http://www.w3.org/2000/svg" width="32" height="32" viewBox="0 0 32 32">
<title>eitaa</title>
<path d="M29.12 18.784c-1.568 2.112-3.040 4.32-4.864 6.208-1.824 1.92-3.808 3.488-6.4 4.16-3.136 0.8-6.112 0.416-8.864-1.248-3.040-1.824-4.224-4.704-4.288-8.128-0.128-6.784 4.896-14.176 11.2-16.608 2.176-0.832 4.384-0.928 6.56 0.032 2.464 1.12 3.808 3.072 4.032 5.76 0.096 1.184 0.064 2.368-0.288 3.552-0.512 1.824-1.568 3.232-3.232 4.192-1.344 0.768-2.816 1.376-4.192 2.048-0.992 0.48-1.952 1.024-2.816 1.728-1.184 0.992-1.952 2.24-2.144 3.808-0.064 0.576-0.256 0.448-0.576 0.192-1.984-1.504-2.464-4.224-1.024-6.304 0.32-0.48 0.384-0.736-0.032-1.216-1.568-1.856-0.096-4.288 1.312-4.928 0.192-0.096 0.288-0.064 0.32 0.16 0.064 0.352-0.032 0.736 0 1.088 0.096 0.864 0.736 1.248 1.44 1.472 0.8 0.288 1.664 0.256 2.528 0.192 1.632-0.16 3.136-0.608 4.576-1.376 0.352-0.192 0.704-0.448 0.992-0.704 0.8-0.704 0.832-1.248 0.192-2.080-1.44-1.824-3.456-2.272-5.632-2.016-3.040 0.352-5.632 1.696-7.808 3.84-0.544 0.544-0.992 1.152-1.344 1.824-1.184 2.176-0.864 4.256 0.928 5.92 0.352 0.32 0.48 0.64 0.512 1.12 0.128 2.080 1.792 4.128 3.776 4.704 0.448 0.128 0.672 0.128 0.704-0.48 0.032-0.832 0.256-1.632 0.544-2.4 0.128-0.288 0.256-0.416 0.608-0.32 2.4 0.704 4.608 0.16 6.688-1.12 1.6-0.992 2.944-2.272 4.256-3.584 1.024-1.056 2.048-2.144 3.104-3.2 0.448-0.48 1.344-1.184 2.080-1.664v-5.408c0-4.416-3.584-8-8-8h-15.968c-4.416 0-8 3.584-8 8v16c0 4.416 3.584 8 8 8h16c4.416 0 8-3.584 8-8v-8.32c-0.992 0.896-2.208 2.208-2.88 3.104z"></path>
</svg>
