<!-- Generated by IcoMoon.io -->
<svg version="1.1" xmlns="http://www.w3.org/2000/svg" width="32" height="32" viewBox="0 0 32 32">
<title>elementaryos</title>
<path d="M16 0c-8.832 0-16 7.168-16 16s7.168 16 16 16 16-7.168 16-16-7.168-16-16-16v0zM16 1.344c6.72 0 12.384 4.512 14.112 10.688-1.504 3.072-3.616 5.856-6.208 8.096-1.248 1.088-2.592 2.048-4.096 2.72s-3.168 1.056-4.8 0.96c-1.248-0.064-2.464-0.416-3.52-1.024 2.88-1.568 5.44-3.616 7.584-6.112 1.408-1.632 2.592-3.488 3.072-5.568 0.224-1.056 0.288-2.144 0.064-3.2s-0.704-2.048-1.44-2.816c-0.704-0.768-1.664-1.312-2.656-1.568-0.992-0.288-2.080-0.288-3.104-0.128-2.048 0.384-3.904 1.568-5.376 3.072-2.592 2.624-4.192 6.304-3.904 9.984 0.16 1.824 0.768 3.648 1.824 5.152 0.224 0.352 0.512 0.672 0.768 0.96-1.536 0.544-3.136 0.928-4.736 1.152-1.376-2.24-2.176-4.896-2.176-7.712-0.064-8.096 6.496-14.656 14.592-14.656v0zM16.096 4.288c1.024 0 2.080 0.32 2.88 0.928 0.736 0.576 1.28 1.344 1.6 2.24 0.32 0.864 0.384 1.824 0.288 2.752-0.224 1.856-1.152 3.552-2.272 5.024-1.984 2.624-4.64 4.704-7.584 6.176-0.288 0.16-0.608 0.288-0.928 0.416-0.64-0.544-1.184-1.216-1.6-1.952-0.864-1.536-1.152-3.392-0.992-5.152s0.768-3.488 1.6-5.056c0.96-1.824 2.24-3.552 4.032-4.576 0.928-0.512 1.952-0.8 2.976-0.8v0zM30.528 14.016c0.096 0.64 0.128 1.312 0.128 1.952 0 8.096-6.56 14.656-14.656 14.656-4.544 0-8.608-2.080-11.296-5.312 1.664-0.384 3.296-0.928 4.832-1.6 0.672 0.512 1.44 0.928 2.24 1.248 2.304 0.896 4.928 0.768 7.232-0.064 2.336-0.8 4.384-2.24 6.208-3.936 2.144-1.984 3.936-4.352 5.312-6.944v0z"></path>
</svg>
