<!-- Generated by IcoMoon.io -->
<svg version="1.1" xmlns="http://www.w3.org/2000/svg" width="32" height="32" viewBox="0 0 32 32">
<title>ello</title>
<path d="M16 0c-8.813 0-16 7.188-16 16s7.188 16 16 16c8.813 0 16-7.188 16-16s-7.188-16-16-16zM25.313 18.375c-1.125 4.25-4.938 7.25-9.313 7.25s-8.188-3-9.313-7.25c-0.125-0.438 0.188-0.938 0.688-1.063s1 0.125 1.125 0.625c0.875 3.438 3.938 5.813 7.5 5.813s6.625-2.375 7.5-5.813c0.125-0.5 0.625-0.75 1.125-0.625s0.813 0.625 0.688 1.063z"></path>
</svg>
