<!-- Generated by IcoMoon.io -->
<svg version="1.1" xmlns="http://www.w3.org/2000/svg" width="32" height="32" viewBox="0 0 32 32">
<title>firefox</title>
<path d="M28.125 4.188c0 0 0 0.063 0.063 0.063-0.063 0-0.063 0-0.063-0.063M10.25 15.5c0.063 0.063 0.063 0.125 0.125 0.125-0.063-0.063-0.063-0.063-0.125-0.125M5.563 5.688c0.063 0 0.063-0.063 0.125-0.063 0 0.063 0.063 0.063 0.063 0.063-0.063 0-0.125 0-0.188 0M2.688 4.313c0 0 0 0 0 0M2.625 4.438c0 0.063 0 0 0-0.063v-0.063 0.125M2.625 4.313c0 0 0 0 0 0s0 0 0 0M0.875 12.063c0 0 0 0 0 0 0 0.063-0.063 0.063-0.063 0.063l0.063-0.063c0-0.063 0.063-0.125 0.063-0.188-0.063 0-0.063 0.063-0.063 0.188M14.625 10.125c0.063 0 0.125-0.063 0.188-0.125 0.063 0 0.063 0 0.063-0.063-0.063 0.063-0.125 0.125-0.188 0.188 0 0-0.063 0-0.125 0.063 0.063 0 0.063-0.063 0.063-0.063M15.188 9.625c0 0 0-0.063 0-0.125s0.063-0.125 0.063-0.188l0.063-0.125c0 0 0.063 0 0.063 0-0.063 0.063-0.063 0.125-0.063 0.188s0 0.063 0 0.063c0 0.063-0.063 0.125-0.125 0.188M15.375 8.938c0 0 0 0 0 0.063 0 0 0 0 0 0.063v-0.063c0-0.063 0-0.125 0-0.063M15.438 9.063c0.063 0 0.063 0 0 0 0.063 0 0 0 0 0v0.063c0-0.063 0-0.063 0-0.063M30.438 19.688c0 0.063 0 0.063 0 0-0.063 0.063-0.063 0.125-0.125 0.188 0.063-0.063 0.063-0.125 0.125-0.188 0.938-1.813 2.063-5.313 1.188-8.375v-0.125c-0.063-0.063-0.063-0.125-0.063-0.188v-0.063c0 0-0.063-0.063-0.063-0.063 0 0.063-0.25 0.813-0.563 1.938 0.188-1.688 0.063-3.5-0.563-5.125-0.313-0.813-0.625-1.438-1-1.938-0.438-0.75-0.938-1.313-1.313-1.563l0.063 0.063c-0.063-0.063-0.063-0.063-0.063-0.063 0 0.063 0.063 0.188 0.125 0.5-0.813-1.25-2-1.875-2.188-1.938h-0.063c0 0 0.063 0.375 0.188 1.125-1.25-1-2.813-1.813-4.563-2.313 2.938 1.938 4 3.563 4.688 5.063-0.75-0.813-2.125-1.625-3-1.75 1.313 1 3.563 4 3.375 8.5-0.625-1.563-1.438-2.188-1.438-2.188s0 0.063 0 0.063l-0.063-0.063c0.25 1.625 0.25 2.813 0.25 3.688 0 0 0 0.063 0 0.063 0 0.063 0 0.125 0 0.25 0 0.063 0 0.125 0 0.188s0 0.125 0 0.188c0 0.063 0 0.125 0 0.188s0 0.125 0 0.188c-0.125 0.75-0.25 1.25-0.375 1.813-0.188-0.75-0.375-1.125-0.375-1.125v0.063c0 0 0-0.063 0-0.063s-0.063 1.438-1 3.438c-0.063 0.188-0.188 0.438-0.313 0.625 0 0 0 0.063-0.063 0.063 0 0.063 0 0.063-0.063 0.125l-0.063 0.125c0 0 0 0.063-0.063 0.063 0 0.063 0 0.063-0.063 0.125-0.375 0.438-0.625 0.688-0.875 0.75-0.063 0.063-0.125 0.063-0.188 0.063s-0.063-0.063-0.125-0.063c0.063-0.188 0.063-0.375 0-0.5 0 0-0.25 0.063-0.438 0.313-0.125 0.125-0.188 0.25-0.313 0.313 0 0 0.188-0.25 0.188-0.25-0.125 0.063-0.25 0.188-0.375 0.313-0.438 0.438-0.813 1-1.063 0.813 0.25-0.063 0.375-0.313 0.438-0.563-0.188 0.125-0.625 0.5-1.625 0.625-0.438 0.063-2.125 0.375-4.438-0.75 0.313-0.063 0.813-0.188 1.188 0.063-0.375-0.438-1.313-0.313-1.938-0.563-0.625-0.188-1.375-1-1.813-1.375 1.563 0.375 3.188 0.188 4.313-0.375 0.063-0.063 0.125-0.063 0.188-0.125 0.125-0.063 0.188-0.125 0.313-0.188 0.625-0.438 1.563-1.125 2.125-1.188 0.063 0 0.125 0 0.188 0.063 0.563 0.125 0.938-0.438 0.5-1-0.438-0.5-1.563-1.188-3-0.875-1.188 0.313-2.125 1.25-3.75 0.563-0.125 0-0.188-0.063-0.313-0.125-0.063-0.063 0.313 0.063 0.25 0-0.313-0.125-0.875-0.375-1.063-0.438 0-0.063 0.25 0 0.25 0-0.313-0.188-0.563-0.313-0.75-0.5 0 0-0.063 0-0.063-0.063 0 0-0.063-0.063-0.063-0.063-0.063-0.063-0.125-0.125-0.125-0.125v0c0 0-0.063-0.063-0.063-0.063-0.5-0.625-0.375-1.25-0.25-1.563 0.063-0.313 0.313-0.563 0.438-0.688 0.063 0 0.063 0 0.063 0 0.25 0.063 0.375 0.125 0.375 0.125s-0.125-0.125-0.188-0.188c0.063 0 0.063 0 0.063-0.063 0.188 0.063 0.563 0.25 0.75 0.313 0.313 0.125 0.438 0.313 0.438 0.313s0.063-0.063 0-0.188c-0.063-0.063-0.125-0.25-0.438-0.375 0.188 0.063 0.313 0.125 0.5 0.188 0.063-0.25 0.125-0.5 0.063-0.938-0.063-0.313 0-0.375-0.125-0.5-0.063-0.063 0.063-0.125 0.125-0.063 0-0.063-0.063-0.125-0.063-0.188-0.063-0.125-0.063-0.188-0.188-0.313 0-0.063 0-0.063-0.063-0.063l-0.125-0.188c-0.063-0.063-0.125-0.125-0.125-0.188 0.125 0.25 0.313 0.438 0.375 0.563 0.063 0.063 0.063 0.063 0.125 0.063 0.125-0.188 0.625-0.5 1.188-0.813 0.125-0.063 0.188-0.125 0.25-0.188-0.313 0.188-0.688 0.438-0.938 0.625s-0.438 0.375-0.5 0.5c0.5-0.563 2.375-1.5 2.813-1.938 0.063-0.063 0.125-0.063 0.125-0.125 0 0 0 0 0 0 0.25-0.188 0.375-0.375 0.438-0.625 0.125-0.25 0.25-0.875-0.125-1.063-0.25-0.063-0.5-0.125-0.938-0.125h-0.063c-0.375 0-0.875 0-1.563 0-0.938 0-1.438-0.875-1.625-1.25v0 0c0.313-1.063 0.938-2 1.813-2.75 0.063 0-0.25 0.063-0.188 0s0.5-0.313 0.563-0.313c0.063-0.063-0.438-0.188-0.875-0.125-0.438 0.125-0.5 0.125-0.75 0.313 0 0-0.063 0-0.063 0 0.125-0.125 0.438-0.25 0.375-0.25-0.5 0.125-1.063 0.438-1.563 0.813 0-0.063 0-0.125 0-0.188-0.25 0.125-0.75 0.563-0.938 0.875 0-0.063 0-0.125 0-0.188-0.125 0.125-0.313 0.313-0.438 0.5-0.438-0.063-0.875-0.188-1.25-0.188-0.125 0-0.188 0-0.188 0-0.063 0-0.063 0-0.125 0s-0.125 0-0.188 0c-0.063 0-0.125 0-0.188 0h-0.125c0 0-0.063 0-0.125 0-0.5 0-0.938 0.125-1.375 0.25-0.375-0.313-0.875-0.813-1.25-1.375 0 0 0 0-0.063 0 0 0 0 0 0 0 0 0.063 0 0.125 0 0.063-0.25-0.438-0.5-1.188-0.5-1.688 0 0 0 0 0 0.063 0 0 0 0 0-0.063 0 0-0.375 0.25-0.625 1.063-0.063 0.063-0.063 0.125-0.063 0.188 0 0 0 0.063 0 0.125 0-0.125 0-0.188 0.063-0.25 0 0 0-0.063 0-0.063 0 0.063 0 0.063 0 0.125 0 0 0 0 0 0v0.063c-0.063 0.063-0.063 0.125-0.063 0.188 0 0 0 0 0-0.063 0 0 0 0 0 0.063 0 0 0-0.063 0-0.125l-0.063 0.125c0 0 0-0.125 0-0.188 0 0.063-0.063 0.125-0.125 0.188 0 0 0 0 0.063-0.063 0-0.063 0.063-0.125 0.063-0.125 0-0.063 0-0.063 0-0.063 0 0.063-0.188 0.25-0.188 0.438-0.063 0.125-0.063 0.188-0.125 0.313 0-0.063 0-0.063 0-0.063v0c0 0 0 0 0 0-0.125 0.25-0.25 0.625-0.313 1-0.125 0.438-0.188 0.938-0.188 1.625-0.063 0.625 0 1.063 0 1.188 0.063-0.063 0.063-0.063 0.063-0.063s0 0 0 0-0.063 0.063-0.063 0.063c0 0 0 0 0-0.063-0.375 0.563-0.625 1-0.75 1.25-0.5 0.875-0.938 2.313-1.313 4.5v0c0 0 0 0 0 0s0 0 0.063-0.063c0 0 0 0.063-0.063 0.063 0 0 0.063-0.063 0.125-0.25 0-0.063 0-0.063 0-0.125 0.125-0.313 0.313-0.813 0.625-1.313-0.375 1.188-0.688 3-0.5 5.688 0 0 0 0 0 0s0 0 0 0.063c0 0 0-0.063 0-0.125 0 0 0 0 0 0s0 0.063 0 0.063c0 0 0.063-0.188 0.063-0.375 0-0.063 0-0.063 0-0.125 0.063-0.313 0.125-0.688 0.25-1.125 0.063 1.813 0.563 4 1.938 6.438 1.063 1.875 3.938 6.188 11.125 7.75-0.063 0-0.063 0-0.125 0 0.063 0 0.063 0 0.125 0-0.313-0.063-0.563-0.188-0.813-0.313 0 0 0 0-0.063-0.063-0.25-0.125-0.375-0.25-0.438-0.313 0.063 0 0.188 0.063 0.438 0.125 0.875 0.25 2.75 0.75 4.25 0.688h-0.063c0 0 0 0-0.063 0-0.125 0-0.25-0.063-0.313-0.125-0.25-0.125-0.313-0.25-0.313-0.25s0.063 0 0.188 0c1 0 5.688 0.063 8.313-2 0.625-0.5 1.063-1.063 1.188-1.5 0 0 0 0-0.063 0 0 0-0.125 0.063-0.25 0.125 0.125-0.063 0.188-0.125 0.25-0.125v-0.125h0.063c0 0 0 0.063-0.063 0.063v0.063c0.313-0.188 0.625-0.375 0.938-0.563 0.5-0.375 1.125-0.813 1.688-1.375 0.063-0.125 0.188-0.188 0.25-0.313v-0.063c0 0 0.063 0 0.063 0 0.063-0.063 0.063-0.125 0.125-0.188h0.063c0.063-0.063 0.125-0.188 0.188-0.25 0.25-0.313 0.5-0.625 0.625-0.938l0.063-0.063c0.375-0.625 0.625-1.313 0.625-2.125 0 0.188-0.063 0.375-0.125 0.563 0 0-0.063 0.063-0.063 0.063 0.063-0.063 0.063-0.063 0.125-0.125-0.063-0.875-0.125-1.375-0.313-1.813"></path>
</svg>
