<!-- Generated by IcoMoon.io -->
<svg version="1.1" xmlns="http://www.w3.org/2000/svg" width="32" height="32" viewBox="0 0 32 32">
<title>fyuse</title>
<path d="M13.536 20.352c-0.544-0.288-1.056-0.576-1.568-0.832-1.248-0.608-2.4-1.376-3.296-2.4-1.12-1.248-1.728-2.752-1.92-4.384-0.352-2.816 0.544-5.248 2.72-7.072 1.024-0.864 2.208-1.536 3.392-2.144 2.176-1.12 4.352-2.176 6.592-3.136 2.848-1.216 5.824 0.864 6.272 3.616 0.288 1.664-0.096 3.2-1.248 4.416-0.448 0.48-1.12 0.768-1.728 1.088-1.28 0.672-2.56 1.312-3.872 1.952-0.096 0.032-0.16 0.096-0.32 0.192 0.288 0.16 0.544 0.288 0.8 0.416 1.472 0.736 2.848 1.568 3.968 2.784 2.88 3.168 2.72 8.256-0.32 11.264-0.8 0.768-1.728 1.376-2.72 1.856-2.208 1.088-4.416 2.208-6.624 3.296-0.864 0.416-1.728 0.736-2.688 0.736-2.144 0-4.096-1.536-4.576-3.616-0.416-1.76-0.128-3.392 1.152-4.768 0.576-0.64 1.408-0.928 2.144-1.312 1.184-0.608 2.368-1.184 3.52-1.792 0.096-0.032 0.192-0.096 0.32-0.16zM20.8 15.104c-0.032-0.704-0.288-1.28-0.928-1.6-0.768-0.384-1.504-0.8-2.304-1.152-0.16-0.064-0.384-0.032-0.544 0.032-1.088 0.544-2.176 1.088-3.264 1.664-0.864 0.448-1.664 1.024-2.24 1.856-0.608 0.896-0.32 2.080 0.64 2.56 0.736 0.384 1.504 0.736 2.24 1.12 0.256 0.128 0.448 0.128 0.704 0 1.248-0.672 2.528-1.312 3.744-2.016 0.544-0.32 0.992-0.768 1.44-1.216 0.32-0.32 0.512-0.736 0.512-1.248z"></path>
</svg>
