<!-- Generated by IcoMoon.io -->
<svg version="1.1" xmlns="http://www.w3.org/2000/svg" width="32" height="32" viewBox="0 0 32 32">
<title>gamejolt</title>
<path d="M6.588 30.119h1.881v1.881h-1.881v-1.881zM8.472 0v3.766h-1.881v3.766h-1.881v3.766h-1.884v3.766h-1.884v3.766h11.294v3.766h-1.881v3.766h-1.881v3.766h1.881v-1.881h1.881v-1.881h1.881v-1.881h1.884v-1.881h1.881v-1.881h1.881v-1.881h1.881v-1.881h1.881v-1.881h1.881v-1.881h1.881v-1.881h1.881v-1.881h-5.641v-1.881h1.881v-1.881h1.881v-1.881h1.881v-1.906h1.881v-1.881h-22.581zM21.647 15.059h-1.881v-1.881h1.881v1.881zM23.528 5.647h-1.881v1.881h-1.881v1.881h-1.881v1.881h-1.884v1.881h1.881v1.881h-1.881v-1.881h-1.881v1.881h-1.881v-1.881h-1.881v1.881h-1.881v-1.881h-1.881v-1.881h1.881v-3.763h1.881v-3.763h13.175v1.881zM8.472 11.294h1.881v1.881h-1.881v-1.881zM12.234 11.294h1.881v1.881h-1.881v-1.881z"></path>
</svg>
