<!-- Generated by IcoMoon.io -->
<svg version="1.1" xmlns="http://www.w3.org/2000/svg" width="32" height="32" viewBox="0 0 32 32">
<title>googlehangouts</title>
<path d="M29.504 11.296c-0.48-2.656-1.632-4.96-3.488-6.944-0.768-0.832-1.632-1.568-2.592-2.176-1.76-1.152-3.712-1.856-5.824-2.080-0.256-0.032-0.512-0.032-0.768-0.096-0.608 0-1.216 0-1.824 0-0.032 0.032-0.064 0.032-0.096 0.032-0.48 0.032-0.928 0.096-1.408 0.192-3.36 0.64-6.144 2.304-8.288 4.96-1.76 2.208-2.72 4.736-2.944 7.52-0.096 1.376 0 2.72 0.288 4.032 0.224 0.992 0.544 1.952 0.992 2.88 0.032 0.064 0.064 0.16 0.128 0.224 0.736 1.44 1.664 2.72 2.848 3.84 0.608 0.576 1.28 1.12 2.016 1.568 2.208 1.408 4.608 2.144 7.232 2.176 0.16 0 0.192 0.032 0.192 0.192 0 1.408 0 2.784 0 4.192 0 0.064 0 0.096 0 0.16 0.032-0.032 0.064-0.032 0.096-0.032 2.656-1.216 5.088-2.784 7.232-4.736 0.416-0.384 0.832-0.8 1.216-1.216 0.16-0.192 0.32-0.352 0.512-0.544 0.256-0.288 0.48-0.576 0.736-0.896 0.288-0.352 0.544-0.704 0.8-1.056 0.544-0.8 1.056-1.632 1.472-2.528 0.224-0.448 0.416-0.896 0.576-1.344 0 0 0-0.032 0.032-0.032 0.48-1.248 0.8-2.56 0.96-3.904 0.064-0.48 0.096-0.928 0.128-1.408 0.032-0.992-0.032-1.984-0.224-2.976zM11.84 19.712c-0.224 0.064-0.48 0.096-0.704 0.128-0.192 0.032-0.32-0.064-0.384-0.256 0-0.512 0-1.024 0-1.536 0-0.16-0.064-0.32 0.064-0.448 0.064-0.064 0.128-0.096 0.224-0.128 0.256-0.064 0.544-0.128 0.8-0.256 0.448-0.256 0.736-0.672 0.864-1.184 0.032-0.096 0.032-0.16 0.064-0.256-1.088 0-2.176 0-3.264 0-0.096 0-0.192 0-0.288-0.032-0.288-0.064-0.48-0.32-0.48-0.608 0-1.632 0-3.296 0-4.928-0.032-0.256 0-0.512 0.224-0.704 0.128-0.096 0.256-0.16 0.416-0.16 1.6 0 3.2 0 4.8 0 0.416 0 0.768 0.416 0.64 0.832 0.032 0.064 0.032 0.16 0.032 0.256 0 1.792 0 3.584 0 5.376 0 1.184-0.48 2.208-1.344 3.008-0.032 0.032-0.096 0.096-0.128 0.128-0.512 0.32-0.992 0.608-1.536 0.768zM20.704 19.584c-0.032 0-0.032 0-0.064 0.032 0 0-0.032 0-0.032 0.032-0.32 0.096-0.608 0.16-0.928 0.192-0.256 0.032-0.416-0.096-0.416-0.352 0-0.16 0-0.352 0-0.512 0-0.32 0-0.608 0-0.928 0-0.064 0-0.128 0-0.192 0-0.224 0.096-0.352 0.384-0.416 0.384-0.096 0.736-0.192 1.024-0.48 0.352-0.32 0.512-0.736 0.608-1.184-0.992 0-2.016 0-3.008 0-0.096 0-0.224 0-0.32 0-0.416 0-0.704-0.288-0.704-0.704 0-1.632 0-3.264 0-4.864 0 0 0-0.032 0-0.032-0.032-0.32 0.064-0.544 0.32-0.736 0.096-0.064 0.224-0.096 0.352-0.096 1.6 0 3.168 0 4.768 0 0.416 0 0.768 0.416 0.64 0.832 0.032 0.064 0.032 0.16 0.032 0.256 0 1.792 0 3.584 0 5.376 0 1.6-0.992 3.104-2.496 3.712-0.096 0.032-0.128 0.064-0.16 0.064 0.032 0.032 0.064 0.032 0.096 0.032-0.064 0-0.096 0-0.096-0.032z"></path>
</svg>
