<!-- Generated by IcoMoon.io -->
<svg version="1.1" xmlns="http://www.w3.org/2000/svg" width="32" height="32" viewBox="0 0 32 32">
<title>googleplaymusic</title>
<path d="M3.904 16.032c-0.032-5.696 3.104-9.344 8.32-11.296-0.032-0.096-0.128-0.16-0.224-0.192-2.496-1.44-4.96-2.88-7.456-4.224-1.472-0.832-2.816 0.032-2.816 1.696 0 9.312 0 18.624 0 27.936 0 1.664 1.376 2.56 2.848 1.76 1.12-0.608 2.208-1.216 3.328-1.856 1.504-0.864 2.976-1.696 4.48-2.56-5.312-1.952-8.448-5.568-8.48-11.264zM15.52 8.704c-4.064 0-7.296 3.232-7.328 7.232 0 4 3.264 7.296 7.232 7.296 4 0 7.264-3.264 7.264-7.264 0-3.936-3.232-7.232-7.168-7.264zM16.8 13.984c-0.352 0-0.416 0.128-0.416 0.448 0.032 0.608 0 1.216 0 1.824 0 0 0 0 0 0 0 0.608 0 1.216 0 1.824-0.032 1.024-0.896 1.856-1.856 1.792-0.96-0.032-1.696-0.864-1.632-1.92 0.032-0.992 1.184-1.824 2.112-1.472 0.352 0.128 0.416 0.032 0.416-0.32-0.032-1.184 0-2.368 0-3.552 0-0.32 0.096-0.448 0.416-0.416 0.576 0.032 1.184 0.032 1.76 0 0.288 0 0.416 0.096 0.416 0.384 0 0.032 0 0.064 0 0.096 0.064 1.28 0.064 1.28-1.216 1.312zM29.632 14.688c-0.832-0.736-1.888-1.152-2.976-1.824 0.544 2.144 0.512 4.128 0.064 6.144 1.056-0.608 2.208-0.992 3.072-1.856 0.736-0.768 0.672-1.76-0.16-2.464z"></path>
</svg>
