<!-- Generated by IcoMoon.io -->
<svg version="1.1" xmlns="http://www.w3.org/2000/svg" width="32" height="32" viewBox="0 0 32 32">
<title>googlephotos</title>
<path d="M24 16c0-2.625 0-5.375 0-8v0.063c-2.563-2.625-5.188-5.25-7.75-7.813-0.063-0.063-0.125-0.188-0.25-0.188 0 2.625 0 5.313 0 7.938 0 1.125 0 2.25 0 3.438 0.438 1.063 0.875 2.188 1.313 3.25 1.063 0.438 2.188 0.875 3.25 1.313-0.938 0.375-1.813 0.75-2.688 1.063-0.188 0.125-0.375 0.125-0.625 0.313-0.375 1.063-0.813 2.125-1.25 3.188-0.438-1.063-0.875-2.188-1.313-3.25-1.063-0.438-2.188-0.875-3.25-1.313 0.938-0.438 1.875-0.75 2.813-1.125 0.125-0.063 0.313-0.125 0.5-0.25 0.375-1.063 0.813-2.125 1.313-3.188v-3.438c-2.688 0-5.375 0-8 0v0.063c-0.438 0.375-0.875 0.875-1.313 1.313-2.313 2.188-4.563 4.375-6.75 6.625 2.625 0.063 5.375 0 8 0 0 2.625 0 5.313 0 7.938 2.563 2.625 5.125 5.188 7.688 7.75 0.063 0.063 0.188 0.188 0.313 0.25 0.063-0.75 0-1.625 0-2.438 0-1.813 0-3.688 0-5.5 2.625 0 5.375 0 8 0 0.938-0.938 1.875-1.875 2.875-2.875 1.688-1.688 3.438-3.375 5.125-5.125-2.625 0-5.313 0-8 0z"></path>
</svg>
