<!-- Generated by IcoMoon.io -->
<svg version="1.1" xmlns="http://www.w3.org/2000/svg" width="32" height="32" viewBox="0 0 32 32">
<title>google-scholar</title>
<path d="M28.625 3.563c0.313 0 0.5 0.125 0.5 0.25 0.063 0.188 0.063 0.375 0.063 0.625v10.75c0 0.25-0.125 0.438-0.25 0.625-0.188 0.188-0.375 0.25-0.625 0.25h-0.375c-0.25 0-0.438-0.125-0.625-0.25-0.188-0.188-0.25-0.375-0.25-0.625v-10.75c0-0.25 0-0.438 0-0.625 0.063-0.125 0.188-0.25 0.5-0.25v-1.438l-4.688 3.875c0.063 0.063 0.063 0.125 0.125 0.125 0 0.063 0.063 0.063 0.063 0.125 0.188 0.375 0.375 0.813 0.5 1.25 0.063 0.438 0.125 1 0.125 1.563 0 0.438 0 0.813-0.063 1.188s-0.188 0.813-0.313 1.125c-0.188 0.313-0.313 0.625-0.5 0.938-0.188 0.25-0.375 0.5-0.563 0.688-0.188 0.25-0.438 0.438-0.625 0.625s-0.438 0.375-0.625 0.563c-0.188 0.188-0.375 0.375-0.563 0.563s-0.313 0.375-0.5 0.563c-0.125 0.188-0.25 0.375-0.313 0.563-0.063 0.25-0.063 0.438-0.063 0.625 0 0.25 0 0.438 0.125 0.625 0.063 0.188 0.188 0.438 0.438 0.625 0.188 0.188 0.375 0.438 0.625 0.625 0.188 0.188 0.438 0.438 0.75 0.625 0.25 0.188 0.563 0.375 0.813 0.625 0.25 0.188 0.563 0.438 0.813 0.688s0.5 0.5 0.75 0.813c0.25 0.375 0.438 0.688 0.625 1.063s0.313 0.813 0.375 1.188c0.125 0.438 0.188 0.875 0.188 1.313 0 0.625-0.063 1.188-0.25 1.75-0.125 0.563-0.375 1.063-0.688 1.5-0.313 0.5-0.688 0.938-1.063 1.313-0.438 0.438-0.875 0.75-1.313 1.063-0.563 0.25-1.063 0.563-1.563 0.75-0.563 0.188-1.063 0.375-1.688 0.5-0.5 0.125-1.063 0.25-1.688 0.313-0.563 0.063-1.125 0.125-1.688 0.125-0.313 0-0.688 0-1.063-0.063-0.313 0-0.688-0.063-1.063-0.125-0.313-0.063-0.688-0.125-1.063-0.188-0.375-0.125-0.75-0.25-1.063-0.375-0.375-0.125-0.75-0.25-1.063-0.438s-0.625-0.375-0.875-0.625c-0.313-0.188-0.563-0.438-0.75-0.688-0.25-0.25-0.438-0.563-0.625-0.875s-0.313-0.688-0.438-1.063c-0.063-0.313-0.125-0.688-0.125-1.125 0-0.5 0.063-0.938 0.188-1.375s0.313-0.875 0.625-1.313c0.25-0.375 0.563-0.75 0.938-1.125 0.313-0.313 0.75-0.625 1.188-0.875 0.375-0.25 0.813-0.438 1.313-0.688 0.438-0.188 1-0.313 1.625-0.5 0.625-0.125 1.25-0.25 1.938-0.313 0.688-0.125 1.5-0.188 2.313-0.25-0.375-0.5-0.625-0.938-0.813-1.375s-0.313-0.875-0.313-1.25c0-0.25 0.063-0.5 0.125-0.75s0.125-0.5 0.25-0.813c-0.188 0-0.375 0.063-0.625 0.063-0.188 0-0.375 0-0.563 0-0.938 0-1.688-0.125-2.438-0.375-0.75-0.313-1.438-0.688-2-1.313-0.625-0.563-1.063-1.25-1.375-1.938s-0.438-1.5-0.438-2.375c0-0.063 0-0.188 0-0.25 0-0.125 0-0.188 0-0.25h-7.25l10.813-9.375h17.813l-1.625 1.25v2.313zM19.688 22.125c0-0.063-0.125-0.125-0.25-0.188-0.125-0.125-0.25-0.188-0.438-0.375-0.188-0.125-0.375-0.25-0.5-0.375-0.063-0.063-0.125-0.125-0.188-0.125s-0.188 0-0.313 0c-0.125 0-0.313-0.063-0.5-0.063-0.438 0-0.813 0.063-1.188 0.063-0.438 0.063-0.813 0.125-1.188 0.188s-0.813 0.188-1.188 0.313c-0.375 0.125-0.75 0.25-1.125 0.375-0.375 0.188-0.688 0.375-1.063 0.625-0.25 0.25-0.563 0.5-0.75 0.813-0.25 0.313-0.438 0.688-0.563 1.063s-0.188 0.75-0.188 1.188c0 0.438 0.063 0.813 0.188 1.188 0.063 0.313 0.25 0.688 0.5 1 0.188 0.313 0.438 0.625 0.688 0.813 0.313 0.25 0.625 0.5 0.938 0.625 0.313 0.188 0.625 0.375 1 0.5s0.688 0.25 1.063 0.313c0.438 0.125 0.813 0.188 1.125 0.188 0.438 0.063 0.813 0.063 1.125 0.063 0.813 0 1.5-0.063 2.125-0.25 0.688-0.125 1.25-0.375 1.813-0.75s0.938-0.75 1.188-1.313c0.313-0.563 0.438-1.125 0.438-1.875 0-0.125 0-0.25-0.063-0.438 0-0.125 0-0.25-0.063-0.438s-0.125-0.313-0.125-0.438c-0.063-0.125-0.125-0.25-0.125-0.313-0.063-0.125-0.125-0.25-0.188-0.375s-0.188-0.25-0.313-0.375c-0.125-0.188-0.188-0.25-0.313-0.375s-0.188-0.188-0.25-0.25c-0.063-0.063-0.125-0.125-0.25-0.25-0.063-0.125-0.25-0.25-0.375-0.375-0.188-0.188-0.313-0.25-0.438-0.375-0.125 0.063-0.188 0-0.25 0zM19.438 13.688c0.25-0.313 0.5-0.75 0.688-1.25s0.25-1 0.25-1.5c0-0.5-0.063-1-0.125-1.5-0.125-0.5-0.188-1-0.375-1.563-0.188-0.5-0.375-1-0.688-1.5-0.25-0.438-0.563-0.875-0.938-1.313s-0.813-0.75-1.25-0.938c-0.375-0.25-0.875-0.313-1.375-0.313-0.563 0-1.063 0.063-1.5 0.313-0.375 0.188-0.75 0.5-1.063 0.875-0.313 0.438-0.5 0.813-0.688 1.313-0.125 0.5-0.188 1.063-0.188 1.625 0 0.5 0 1 0.125 1.5 0.063 0.438 0.188 0.938 0.313 1.5 0.188 0.5 0.375 0.938 0.688 1.438 0.25 0.438 0.563 0.813 0.938 1.25 0.375 0.375 0.813 0.688 1.25 0.875s0.875 0.313 1.375 0.313c0.563 0 1.063-0.125 1.5-0.313 0.375-0.125 0.75-0.438 1.063-0.813z"></path>
</svg>
