<!-- Generated by IcoMoon.io -->
<svg version="1.1" xmlns="http://www.w3.org/2000/svg" width="32" height="32" viewBox="0 0 32 32">
<title>googlegroups</title>
<path d="M30.875 0h-29.75c-0.188 0-0.313 0.188-0.313 0.313v21.75c0 0.188 0.125 0.313 0.313 0.313h17.313l12.438 9.625c0.188 0 0.313-0.188 0.313-0.313v-31.375c0-0.125-0.125-0.313-0.313-0.313zM12.438 4.938c1.563 0 2.813 1.25 2.813 2.813 0 1.625-1.25 2.813-2.813 2.813s-2.813-1.188-2.813-2.813c0-1.563 1.313-2.813 2.813-2.813zM18.5 17.375h-12.188v-1.563c0-2.688 2.688-3.563 6.125-3.563 0.188 0 0.375 0 0.5 0 0.063 0 0.125 0 0.188 0 0.125 0 0.25 0 0.375 0.063 0.063 0 0.125 0 0.188 0 0.125 0 0.313 0 0.438 0 0.063 0 0.125 0.063 0.188 0.063 0.125 0 0.188 0 0.313 0s0.188 0.063 0.25 0.063c0.063 0 0.125 0 0.188 0 0.313 0.063 0.625 0.188 0.938 0.25 0.063 0 0.063 0.063 0.125 0.063 0.438 0.125 0.813 0.313 1.125 0.563 0.25 0.188 0.5 0.375 0.688 0.625 0.375 0.5 0.563 1.125 0.563 1.813v1.625zM21.063 8.063c1.188 0 2.125 0.938 2.125 2.063 0 1.188-0.938 2.125-2.125 2.125-1.125 0-2.063-0.938-2.063-2.125 0-1.125 0.875-2.063 2.063-2.063zM25.688 17.375h-5.875v-1.563c0-0.813-0.188-1.563-0.563-2.188 0.563-0.125 1.188-0.125 1.813-0.125 2.5 0 4.625 0.625 4.625 2.688z"></path>
</svg>
