<!-- Generated by IcoMoon.io -->
<svg version="1.1" xmlns="http://www.w3.org/2000/svg" width="32" height="32" viewBox="0 0 32 32">
<title>gotomeeting</title>
<path d="M20.544 14.272c0.32 0 0.672 0.096 0.896 0.256 0.832 0.416 1.728 0.32 2.464-0.096 1.312-0.672 1.728-2.304 0.992-3.552-0.672-1.312-2.304-1.728-3.552-0.992-0.736 0.416-1.248 1.152-1.312 2.048 0 0.32-0.096 0.672-0.256 0.896-0.48 0.832-1.568 1.152-2.4 0.672s-1.152-1.568-0.672-2.4c0.16-0.256 0.416-0.48 0.672-0.672 0.736-0.48 1.152-1.248 1.152-2.144 0-1.472-1.248-2.624-2.624-2.624-1.472 0-2.624 1.248-2.624 2.624 0 0.832 0.416 1.664 1.152 2.144 0.256 0.16 0.48 0.416 0.672 0.672 0.416 0.832 0.16 1.888-0.672 2.4s-1.888 0.16-2.4-0.672c-0.16-0.256-0.256-0.576-0.256-0.896-0.096-0.832-0.576-1.664-1.312-2.048-1.248-0.672-2.816-0.256-3.552 0.992-0.672 1.248-0.256 2.816 0.992 3.552 0.736 0.416 1.728 0.48 2.464 0.096 0.256-0.16 0.576-0.256 0.896-0.256 0.896 0 1.728 0.736 1.728 1.728 0 0.896-0.736 1.728-1.728 1.728-0.32 0-0.672-0.096-0.896-0.256-0.832-0.416-1.728-0.32-2.464 0.096-1.312 0.672-1.728 2.304-0.992 3.552 0.672 1.312 2.304 1.728 3.552 0.992 0.736-0.416 1.248-1.152 1.312-2.048 0-0.32 0.096-0.672 0.256-0.896 0.48-0.832 1.568-1.152 2.4-0.672s1.152 1.568 0.672 2.4c-0.16 0.256-0.416 0.48-0.672 0.672-0.736 0.48-1.152 1.248-1.152 2.144 0 1.472 1.248 2.624 2.624 2.624 1.472 0 2.624-1.248 2.624-2.624 0-0.832-0.416-1.664-1.152-2.144-0.256-0.16-0.48-0.416-0.672-0.672-0.416-0.832-0.16-1.888 0.672-2.4 0.832-0.48 1.888-0.16 2.4 0.672 0.16 0.256 0.256 0.576 0.256 0.896 0.096 0.832 0.576 1.664 1.312 2.048 1.248 0.672 2.816 0.256 3.552-0.992 0.672-1.248 0.256-2.816-0.992-3.552-0.736-0.416-1.728-0.48-2.464-0.096-0.256 0.16-0.576 0.256-0.896 0.256-0.896 0-1.728-0.832-1.728-1.728s0.736-1.728 1.728-1.728zM30.016 16c1.312-2.464 1.312-5.44-0.16-8-1.408-2.464-4.032-4.032-6.848-4.128-1.472-2.4-4.128-3.872-7.008-3.872s-5.536 1.472-7.008 3.872c-2.816 0.096-5.44 1.664-6.848 4.128-1.472 2.464-1.472 5.536-0.16 8-0.32 0.576-0.48 1.152-0.672 1.728-0.576 2.144-0.224 4.384 0.832 6.272 1.408 2.464 4.032 4.032 6.848 4.128 1.472 2.4 4.128 3.872 7.008 3.872s5.536-1.472 7.008-3.872c2.816-0.096 5.44-1.664 6.848-4.128 1.088-1.888 1.408-4.128 0.832-6.272-0.16-0.576-0.416-1.152-0.672-1.728zM27.872 18.464c0.416 1.408 0.16 2.816-0.416 4.128-0.992 1.664-2.72 2.72-4.704 2.72-0.416 0-0.896 0-1.408-0.16-0.672 2.304-2.72 4.032-5.28 4.032s-4.704-1.728-5.28-4.032c-0.416 0.096-0.896 0.16-1.408 0.16-1.888 0-3.712-1.088-4.704-2.72-0.736-1.248-0.992-2.72-0.576-4.128 0.256-0.992 0.736-1.824 1.408-2.464-1.728-1.728-2.144-4.384-0.896-6.592 0.992-1.664 2.72-2.72 4.704-2.72 0.416 0 0.896 0 1.408 0.16 0.672-2.304 2.72-4.032 5.28-4.032s4.704 1.728 5.28 4.032c0.416-0.096 0.896-0.16 1.408-0.16 1.888 0 3.712 1.088 4.704 2.72 1.248 2.24 0.832 4.864-0.896 6.592 0.64 0.672 1.12 1.472 1.376 2.464z"></path>
</svg>
