<!-- Generated by IcoMoon.io -->
<svg version="1.1" xmlns="http://www.w3.org/2000/svg" width="32" height="32" viewBox="0 0 32 32">
<title>hackerone</title>
<path d="M11.19 0.403c-0.437-0.268-0.963-0.403-1.577-0.403-0.647 0-1.174 0.135-1.578 0.403-0.409 0.263-0.615 0.615-0.615 1.036v29.079c0 0.369 0.211 0.702 0.634 1.016 0.419 0.308 0.94 0.466 1.559 0.466 0.588 0 1.105-0.158 1.554-0.466 0.447-0.308 0.675-0.647 0.675-1.016v-29.074c0.001-0.427-0.218-0.771-0.652-1.042zM23.927 11.953c-0.432-0.273-0.974-0.403-1.62-0.403s-1.164 0.13-1.559 0.403l-5.916 3.707c-0.264 0.247-0.38 0.625-0.331 1.14 0.046 0.51 0.282 0.998 0.7 1.454 0.419 0.462 0.887 0.752 1.423 0.873 0.529 0.122 0.927 0.055 1.195-0.193l2.342-1.456v13.041c0 0.369 0.202 0.702 0.612 1.016 0.398 0.308 0.914 0.466 1.532 0.466s1.151-0.158 1.598-0.466c0.449-0.314 0.674-0.647 0.674-1.016v-17.533c0-0.427-0.221-0.77-0.652-1.032z"></path>
</svg>
