<!-- Generated by IcoMoon.io -->
<svg version="1.1" xmlns="http://www.w3.org/2000/svg" width="32" height="32" viewBox="0 0 32 32">
<title>hearthstone</title>
<path d="M25.688 19.75l6.313-3.75-6.313-3.75c-0.313-0.813-0.688-1.563-1.188-2.25l1.438-3.938-3.938 1.438c-0.688-0.5-1.438-0.938-2.25-1.188l-3.75-6.313-3.75 6.313c-0.813 0.313-1.563 0.688-2.25 1.188l-3.938-1.438 1.438 3.938c-0.5 0.688-0.938 1.438-1.188 2.25l-6.313 3.75 6.313 3.75c0.313 0.813 0.688 1.563 1.188 2.25l-1.438 3.938 3.938-1.438c0.688 0.5 1.438 0.938 2.25 1.188l3.75 6.313 3.75-6.313c0.813-0.313 1.563-0.688 2.25-1.188l3.938 1.438-1.438-3.938c0.5-0.688 0.938-1.438 1.188-2.25zM16 24.625c-4.75 0-8.625-3.875-8.625-8.625s3.875-8.625 8.625-8.625c4.75 0 8.625 3.875 8.625 8.625s-3.875 8.625-8.625 8.625zM21.75 15.75c0.063-0.375-0.313-0.813-0.313-1.25 0-0.25-0.125-0.375-0.188-0.625-0.063-0.188-0.063-0.375-0.125-0.625 0 0-0.063 0-0.063 0 0.25-0.563-0.5-1.188-0.875-1.563-0.438-0.438-0.688-1-1.313-1.25-0.375-0.125-0.688-0.313-1-0.438s-0.625-0.188-0.938-0.313c-0.313-0.125-0.563-0.438-0.875-0.313-0.438 0.125-0.563 0.313-1 0.188-0.813-0.313-1.375 0.125-2 0.563-0.313 0.25-0.625 0.438-0.875 0.688-0.125 0.063-0.25 0.25-0.313 0.375-0.125 0.125-0.25 0.25-0.375 0.375-0.188 0.25-0.375 0.375-0.688 0.625-0.125 0.125-0.25 0.25-0.375 0.375-0.188 0.125-0.313 0.063-0.25 0.313 0 0.313 0.188 0.625 0.188 1 0 0.188 0 0.313 0 0.5 0.063 0.188 0.125 0.313 0.188 0.5 0.063 0.25 0 0.625 0.188 0.938 0.125 0.25 0.375 0.563 0.563 0.813 0.25 0.25 0.438 0.563 0.625 0.875 0.188 0.188 0.625 0.438 0.625 0.688 0.375 0.063 0.438 0.5 0.813 0.438 0.188 0 0.313 0 0.5 0.063 0.125 0.063 0.313 0.125 0.438 0.125 0.313 0.063 0.563-0.313 0.875-0.375 0.375-0.063 0.688 0.063 1-0.125 0.625-0.375 0.938-1 0.938-1.688 0-0.375-0.063-0.625-0.313-1-0.125-0.25-0.063-0.625-0.313-0.813-0.313-0.25-0.75-0.25-1.063-0.313s-0.813-0.125-1.063 0.063c-0.563 0.375 0.688 1.313 0 1.625s-1.125-0.5-1.313-1.125c-0.125-0.313-0.063-0.813 0-1.125 0-0.125 0-0.313 0.063-0.438 0.063-0.188 0.313-0.25 0.438-0.313 0.25-0.188 0.438-0.438 0.688-0.625 0.313-0.188 0.625-0.313 1-0.375s0.813-0.063 1.188-0.063c0.188 0 0.313 0.063 0.5 0.063s0.313-0.063 0.563-0.063c0.25 0 0.188 0.063 0.188 0.313 0 0.125 0.063 0.25 0.188 0.375 0.188 0.25 0.375 0.563 0.625 0.813 0.438 0.5 0.375 1.375 0.313 2.063 0 0.375 0 0.688 0.125 1.063s-0.188 0.375-0.438 0.625c-0.25 0.188-0.313 0.5-0.5 0.75-0.25 0.25-0.438 0.438-0.75 0.688-0.25 0.188-0.438 0.375-0.688 0.563-0.313 0.125-0.625 0.313-0.938 0.438-0.375 0.188-0.75 0.25-1.125 0.375-0.188 0-0.375 0.063-0.563 0.188-0.125 0.063-0.188 0.25-0.375 0.313-0.438 0.313-0.938 0.188-1.375 0.438-0.313 0.125-1.188 0.188-1.188 0.5h-0.063c0.188 0.25 0.375 0.5 0.688 0.563 0.313 0 0.625 0.125 0.938 0.25 0.25 0.063 0.563 0.188 0.875 0.188 0.313 0.063 0.563 0.188 0.875 0.25 0.438 0.063 0.625-0.25 1-0.313 0.313-0.063 0.688 0 1.063-0.063 0.313-0.063 0.625-0.125 1-0.25 0.313-0.063 0.625-0.125 0.938-0.25 0.25-0.063 0.625-0.25 0.875-0.375 0.25-0.188 0.25-0.563 0.563-0.688 0.25-0.188 0.5-0.375 0.688-0.563s0.25-0.625 0.313-0.875c0.125-0.313 0.313-0.5 0.5-0.75 0.188-0.313 0.25-0.625 0.313-0.938 0.063-0.25 0.188-0.688 0.125-0.938 0-0.188-0.188-0.25-0.125-0.5 0.063-0.375 0.188-0.438 0.188-0.625z"></path>
</svg>
