<!-- Generated by IcoMoon.io -->
<svg version="1.1" xmlns="http://www.w3.org/2000/svg" width="32" height="32" viewBox="0 0 32 32">
<title>hellocoton</title>
<path d="M6.375 20.75c-0.438-0.063-0.813-0.188-1.188-0.25-1.063-0.313-2.063-0.813-2.938-1.5-1.063-0.938-1.75-2.125-2.063-3.5-0.625-2.5 0.5-5.25 2.813-6.625 0.75-0.438 1.563-0.75 2.438-0.938 1.063-0.125 2.125 0 3.188 0.438 0.188 0.063 0.375 0.188 0.563 0.25 0.063 0.063 0.125 0.063 0.188 0.125 0-0.25-0.063-0.5-0.063-0.813-0.125-1.313 0-2.688 0.563-3.875 0.813-1.688 2-2.938 3.813-3.438 2.5-0.75 4.688-0.125 6.563 1.75 0.875 1 1.438 2.188 1.563 3.5 0.063 0.563 0.063 1.188-0.063 1.75 0 0-0.063 0.063-0.063 0.125 0 0 0 0.063 0 0.125 0.063-0.063 0.125-0.063 0.188-0.125 0.75-0.375 1.563-0.625 2.438-0.813 2.5-0.5 5 0.5 6.438 2.438 0.438 0.563 0.813 1.25 1 2 0.125 0.563 0.313 1.25 0.25 1.875-0.125 2-0.938 3.625-2.563 4.875-0.563 0.375-1.125 0.75-1.75 0.938-0.375 0.063-0.75 0.125-1.125 0.188-0.063 0-0.125 0.063-0.188 0.063 0.125 0.063 0.188 0.125 0.25 0.188 0.625 0.75 1.25 1.438 1.625 2.313 0.813 1.75 0.875 3.563 0.188 5.313-0.938 2.063-2.5 3.313-4.75 3.75-2.438 0.375-4.438-0.5-6-2.438-0.188-0.25-0.375-0.563-0.563-0.875-0.063-0.063-0.125-0.188-0.188-0.375-0.063 0.125-0.125 0.25-0.125 0.313-0.5 0.875-1.063 1.688-1.813 2.375-0.938 0.875-2.063 1.438-3.313 1.625-2.875 0.563-5.438-1.125-6.563-3.188-0.375-0.75-0.625-1.5-0.688-2.375s0-1.75 0.313-2.625c0.25-0.875 0.75-1.625 1.375-2.25 0.063-0.063 0.125-0.188 0.25-0.313zM15.438 17.563c0 0 0 0 0 0-0.063 0.063-0.063 0.125-0.125 0.188-1.063 1-2.313 1.75-3.688 2.375-1.438 0.625-3 0.875-4.563 0.688-0.125 0-0.188 0-0.313 0 0.063 0.063 0.063 0.125 0.125 0.188 0.25 0.375 0.563 0.688 0.875 1 0.438 0.313 0.938 0.625 1.438 0.875 1.188 0.438 2.438 0.563 3.75 0.313 0.625-0.063 1.188-0.313 1.688-0.688 0.875-0.688 1.5-1.563 1.813-2.625 0.188-0.625 0.25-1.313 0.188-2 0-0.063 0-0.063 0.063-0.125 0 0.063 0.063 0.125 0.063 0.125 0.375 0.75 0.688 1.563 0.875 2.438 0.188 0.688 0.25 1.438 0.313 2.188 0.063 0.625 0.063 1.188-0.063 1.813-0.125 0.875-0.375 1.688-0.75 2.5 0 0.063 0 0.125-0.063 0.188 0 0 0.063 0.063 0.063 0.063 0.313-0.188 0.688-0.313 1-0.5 0.875-0.375 1.563-1.063 2.125-1.875 0.5-0.813 0.813-1.625 1-2.563 0.125-0.688 0.125-1.375-0.063-2-0.25-0.75-0.625-1.375-1.125-1.938-0.688-0.688-1.563-1.25-2.563-1.5-0.063 0-0.063-0.063-0.125-0.063 0.313-0.063 0.688-0.125 1.063-0.188 1.063-0.063 2.063 0.063 3.125 0.25 0.625 0.188 1.313 0.313 1.875 0.563 0.938 0.438 1.75 1 2.563 1.688 0.063 0.063 0.125 0.063 0.188 0.125 0 0 0.063 0 0.063 0-0.063-0.375-0.063-0.75-0.125-1.125-0.125-0.813-0.438-1.5-0.875-2.188-0.688-1-1.563-1.75-2.688-2.25-0.625-0.313-1.375-0.5-2.125-0.438-0.813 0.125-1.563 0.375-2.313 0.813-0.625 0.438-1.25 1-1.688 1.688 0 0.063-0.063 0.063-0.063 0.125 0 0-0.063-0.063-0.063-0.063 0.125-0.438 0.188-0.875 0.313-1.375 0.313-1.063 0.813-2 1.375-2.938 0.313-0.563 0.75-1.125 1.188-1.625 0.625-0.625 1.313-1.125 2.063-1.563 0.063 0 0.125-0.063 0.188-0.125 0 0 0-0.063 0-0.063-0.25-0.063-0.563-0.125-0.813-0.188-0.813-0.188-1.563-0.125-2.375 0.063-1.063 0.313-2 0.813-2.875 1.563s-1.375 1.688-1.5 2.875c-0.063 0.75 0.063 1.563 0.313 2.313 0.188 0.563 0.563 1.063 0.938 1.563 0.063 0.063 0.125 0.125 0.125 0.188 0 0 0 0-0.063 0s-0.063 0-0.125-0.063c-1-0.5-1.875-1.125-2.625-1.875-0.688-0.625-1.313-1.375-1.813-2.188-0.563-0.875-0.938-1.875-1.125-2.938 0-0.063-0.063-0.125-0.063-0.25-0.438 0.688-0.813 1.25-1 1.938-0.188 0.75-0.25 1.5-0.125 2.25 0.063 0.75 0.313 1.5 0.625 2.188 0.625 1.438 1.813 2.188 3.25 2.5 0.375 0.125 0.75 0.063 1.188 0.125 0.625 0 1.25-0.125 1.875-0.438 0.063 0 0.125 0 0.188 0z"></path>
</svg>
