<!-- Generated by IcoMoon.io -->
<svg version="1.1" xmlns="http://www.w3.org/2000/svg" width="32" height="32" viewBox="0 0 32 32">
<title>homeadvisor</title>
<path d="M5.216 17.824c0-0.96 0-1.92 0-2.848 0-0.448 0.128-0.8 0.448-1.12 2.048-2.048 4.096-4.096 6.144-6.176 0.416-0.416 0.608-0.096 0.864 0.128 2.464 2.464 4.96 4.928 7.392 7.424 0.416 0.416 0.832 0.64 1.44 0.608 1.472-0.032 2.976 0 4.448-0.032 0.576 0 0.768 0.192 0.768 0.768-0.032 1.344 0 2.688 0 4.064-0.032 1.472-0.736 2.144-2.176 2.144-0.768 0-1.568 0.032-2.336 0-0.64-0.032-0.768 0.224-0.768 0.832 0.032 1.568 0 3.136 0 4.704 0 0.192 0.096 0.448-0.128 0.512-0.192 0.064-0.288-0.16-0.416-0.288-1.76-1.696-3.488-3.424-5.216-5.184-0.384-0.384-0.736-0.544-1.28-0.544-2.336 0.032-4.64 0-6.976 0-1.472 0-2.176-0.672-2.208-2.144-0.032-0.928 0-1.888 0-2.848zM16 3.136c1.568 0 3.136 0 4.704 0 0.448 0 0.8 0.128 1.12 0.448 3.264 3.232 6.56 6.464 9.824 9.728 0.16 0.128 0.448 0.256 0.32 0.512-0.096 0.192-0.352 0.096-0.544 0.096-3.104 0-6.208 0-9.312 0-0.48 0-0.832-0.16-1.184-0.48-2.72-2.752-5.472-5.44-8.192-8.16-0.416-0.416-0.64-0.512-1.088-0.032-2.688 2.688-5.44 5.344-8.128 8.032-0.448 0.448-0.896 0.672-1.536 0.608-0.448-0.032-0.928 0-1.408 0-0.192 0-0.512 0.096-0.608-0.16-0.064-0.192 0.16-0.352 0.32-0.48 0.512-0.512 1.056-0.992 1.568-1.504 2.72-2.688 5.44-5.408 8.16-8.096 0.384-0.384 0.768-0.544 1.28-0.544 1.6 0.032 3.136 0.032 4.704 0.032z"></path>
</svg>
