<!-- Generated by IcoMoon.io -->
<svg version="1.1" xmlns="http://www.w3.org/2000/svg" width="32" height="32" viewBox="0 0 32 32">
<title>homes</title>
<path d="M3.232 19.2c0-2.016 0-4.032 0-6.048 0-0.32 0-0.32-0.288-0.48-0.384-0.224-0.8-0.416-1.184-0.64-0.128-0.032-0.16-0.096-0.16-0.224 0-1.056 0-2.144 0-3.2 0-0.192 0-0.192 0.192-0.096 0.352 0.192 0.736 0.352 1.088 0.544 0.96 0.48 1.92 0.96 2.88 1.472 2.048 1.024 4.064 2.048 6.112 3.104 0.544 0.256 1.056 0.544 1.6 0.832 0.192 0.096 0.192 0.096 0.32-0.064 1.28-1.408 2.56-2.848 3.872-4.256 1.152-1.28 2.336-2.56 3.488-3.84 0.032-0.032 0.064-0.064 0.096-0.096 0.128-0.128 0.128-0.128 0.288-0.032 0.48 0.256 0.992 0.48 1.472 0.736 1.248 0.64 2.496 1.248 3.744 1.888 1.152 0.576 2.336 1.184 3.488 1.76 0.128 0.064 0.192 0.16 0.192 0.32 0 1.024 0 2.048 0 3.072 0 0 0 0.032 0 0.032 0 0.16 0 0.192-0.192 0.096-0.352-0.192-0.704-0.352-1.088-0.544-0.064-0.032-0.128-0.064-0.192-0.096-0.128-0.032-0.16-0.032-0.16 0.096 0 0.064 0 0.16 0 0.224 0 3.84 0 7.68 0 11.52 0 0.064 0 0.128 0 0.192 0.032 0.16-0.064 0.224-0.192 0.288-0.896 0.448-1.792 0.896-2.688 1.344-2.464 1.248-4.928 2.496-7.392 3.744-0.768 0.384-1.536 0.768-2.272 1.152-0.16 0.096-0.288 0.096-0.48 0-2.080-1.056-4.192-2.112-6.272-3.168-2.016-1.024-4-2.016-6.016-3.040-0.064-0.032-0.096-0.064-0.16-0.064-0.064-0.032-0.096-0.096-0.096-0.16s0-0.128 0-0.192c0-2.144 0-4.16 0-6.176zM23.392 19.040c0.032 0.064 0.032 0.16 0.032 0.224 0 1.76 0 3.52 0 5.248 0 0.256 0.032 0.288 0.256 0.16 0.864-0.416 1.696-0.864 2.56-1.28 0.032 0 0.032-0.032 0.064-0.032 0.128-0.064 0.192-0.128 0.192-0.288 0-0.064 0-0.128 0-0.192 0-1.984 0-3.936 0-5.92 0-1.536 0-3.072 0-4.608 0-0.192-0.064-0.288-0.224-0.384-1.312-0.672-2.624-1.344-3.936-1.984-0.032 0-0.064-0.032-0.096-0.032-0.128-0.032-0.16-0.032-0.224 0-0.032 0.032-0.064 0.064-0.096 0.096-1.152 1.248-2.304 2.496-3.424 3.744-1.312 1.44-2.656 2.912-3.968 4.352-0.16 0.16-0.16 0.16-0.352 0.064-0.992-0.512-1.984-0.992-2.976-1.504-1.504-0.768-3.040-1.536-4.544-2.304-0.32-0.16-0.32-0.16-0.32 0.192 0 2.912 0 5.824 0 8.704 0 0.064 0 0.096 0 0.16 0 0.096 0.032 0.16 0.128 0.192 0.032 0.032 0.096 0.032 0.128 0.064 2.656 1.344 5.344 2.656 8 4 0.384 0.192 0.8 0.384 1.184 0.608 0.16 0.096 0.288 0.096 0.448 0 0.384-0.192 0.768-0.384 1.152-0.576 0.896-0.448 1.792-0.896 2.688-1.344 0.16-0.064 0.224-0.16 0.192-0.32 0-0.064 0-0.128 0-0.192 0-1.728 0-3.424 0-5.152 0-0.16 0.064-0.256 0.192-0.32 0.896-0.448 1.824-0.896 2.72-1.344 0.096 0 0.16-0.064 0.224-0.032zM7.136 4.16c0-0.544 0-1.088 0-1.664 0-0.128 0.032-0.256 0.128-0.352 0.608-0.672 1.216-1.344 1.856-2.048 0.128-0.128 0.128-0.128 0.288-0.064 1.024 0.512 2.016 1.024 3.040 1.536 0.128 0.064 0.16 0.128 0.16 0.256 0 0.992 0 1.952 0 2.944 0 0.128-0.064 0.224-0.128 0.32-0.64 0.704-1.28 1.44-1.92 2.144-0.064 0.064-0.128 0.16-0.192 0.224-0.128 0.128-0.128 0.128-0.288 0.064-0.416-0.192-0.8-0.416-1.216-0.608-0.512-0.256-0.992-0.512-1.504-0.736-0.16-0.064-0.192-0.16-0.192-0.32-0.032-0.576-0.032-1.152-0.032-1.696z"></path>
</svg>
