<!-- Generated by IcoMoon.io -->
<svg version="1.1" xmlns="http://www.w3.org/2000/svg" width="32" height="32" viewBox="0 0 32 32">
<title>horde</title>
<path d="M21.563 13.25c0.063-3.438 3.125-4 3.125-4.25 0-0.438-2.75-3.813-2.75-3.813 0-5.25-0.438-2.188-2.438-2.125-0.688-0.875-3.875-3.063-3.875-3.063s-2.813 2.188-3.563 3.063c-2.188 0.313-2.438-3.813-2.438 2.125 0 0-2.75 3.25-2.75 4 0 0.313 3.188 0.375 3.188 3.813-1.813 0.188-2.625-0.938-3.5-1.563 0.188 1.375 1.625 4.438 2.938 5.063 0.5-1 1.813-2.375 3.125 0.75 1.25 3.063 0.063 4.25-1.75 2.5-0.063 1.25 1.938 5.375 3.188 6.313 0.375-0.375 1.188-3.5 1.125-4.063-0.125-0.438-0.813-5.813-1.625-6.5-1.5-1.25-5-8.125 2.125-10.625 7.125 2.5 3.813 9.188 2.375 10.563-1.375 1.313-1.313 14.875-1 16.563 1-0.938 0.438-5.25 3.188-8.063-0.813 0.063-3.313-0.313-1.438-5.625 1.625-4.438 2.813-3 3.688-1.063 0.688-0.5 2.813-4.563 2.938-5.938-0.875 0.563-2 2.188-3.875 1.938zM17.875 10.313c-0.313-0.813-2.063-2.438-2.063-2.438l-0.25 0.188c-1 1.313-1.188 1.063-1.938 2.313-0.25 0.313 0.25 0.5 0.938 1.625 0.938 1.5 1.125 2.813 1.125 2.813l0.188-0.25c0.438-0.5 0.563-1.375 1.063-2.25 0.438-0.813 1.063-1.563 0.938-2z"></path>
</svg>
