<!-- Generated by IcoMoon.io -->
<svg version="1.1" xmlns="http://www.w3.org/2000/svg" width="32" height="32" viewBox="0 0 32 32">
<title>instagram</title>
<path d="M16 2.875c4.313 0 4.75 0.063 6.438 0.125 1.625 0.063 2.438 0.313 3 0.5 0.75 0.313 1.313 0.688 1.813 1.188 0.563 0.563 0.938 1.125 1.188 1.813 0.25 0.625 0.5 1.438 0.563 3 0.063 1.75 0.125 2.188 0.125 6.5s-0.063 4.75-0.125 6.438c-0.063 1.625-0.313 2.438-0.5 3-0.313 0.75-0.688 1.313-1.188 1.813-0.563 0.563-1.125 0.938-1.813 1.188-0.625 0.25-1.438 0.5-3 0.563-1.75 0.063-2.188 0.125-6.5 0.125s-4.75-0.063-6.438-0.125c-1.625-0.063-2.438-0.313-3-0.5-0.75-0.313-1.313-0.688-1.813-1.188-0.563-0.563-0.938-1.125-1.188-1.813-0.25-0.625-0.5-1.438-0.563-3-0.063-1.75-0.125-2.188-0.125-6.5s0.063-4.75 0.125-6.438c0.063-1.625 0.313-2.438 0.5-3 0.313-0.75 0.688-1.313 1.188-1.813 0.563-0.563 1.125-0.938 1.813-1.188 0.625-0.25 1.438-0.5 3-0.563 1.75-0.063 2.188-0.125 6.5-0.125M16 0c-4.375 0-4.875 0.063-6.563 0.125-1.75 0.063-2.938 0.313-3.875 0.688-1.063 0.438-2 1-2.875 1.875s-1.438 1.813-1.875 2.875c-0.375 1-0.625 2.125-0.688 3.875-0.063 1.688-0.125 2.188-0.125 6.563s0.063 4.875 0.125 6.563c0.063 1.75 0.313 2.938 0.688 3.875 0.438 1.063 1 2 1.875 2.875s1.813 1.438 2.875 1.875c1 0.375 2.125 0.625 3.875 0.688 1.688 0.063 2.188 0.125 6.563 0.125s4.875-0.063 6.563-0.125c1.75-0.063 2.938-0.313 3.875-0.688 1.063-0.438 2-1 2.875-1.875s1.438-1.813 1.875-2.875c0.375-1 0.625-2.125 0.688-3.875 0.063-1.688 0.125-2.188 0.125-6.563s-0.063-4.875-0.125-6.563c-0.063-1.75-0.313-2.938-0.688-3.875-0.438-1.063-1-2-1.875-2.875s-1.813-1.438-2.875-1.875c-1-0.375-2.125-0.625-3.875-0.688-1.688-0.063-2.188-0.125-6.563-0.125zM16 7.75c-4.563 0-8.25 3.688-8.25 8.25s3.688 8.25 8.25 8.25c4.563 0 8.25-3.688 8.25-8.25s-3.688-8.25-8.25-8.25zM16 21.375c-2.938 0-5.375-2.438-5.375-5.375s2.438-5.375 5.375-5.375c2.938 0 5.375 2.438 5.375 5.375s-2.438 5.375-5.375 5.375zM26.438 7.438c0 1.063-0.813 1.938-1.875 1.938s-1.938-0.875-1.938-1.938c0-1.063 0.875-1.875 1.938-1.875s1.875 0.813 1.875 1.875z"></path>
</svg>
