<!-- Generated by IcoMoon.io -->
<svg version="1.1" xmlns="http://www.w3.org/2000/svg" width="32" height="32" viewBox="0 0 32 32">
<title>internet</title>
<path d="M16 0c-8.836 0-16 7.164-16 16s7.164 16 16 16 16-7.164 16-16c-0.012-8.832-7.168-15.988-16-16zM26.938 5.889c-1.131 0.472-2.297 0.854-3.488 1.143-0.713-2.060-1.911-3.917-3.495-5.415 2.68 0.745 5.099 2.224 6.982 4.271v0zM16.539 8.967c2.095-0.027 4.183-0.253 6.235-0.676 0.726 2.329 1.109 4.752 1.136 7.191h-7.371v-6.515zM16.539 7.889v-6.76c2.416 0.309 4.53 2.653 5.875 6.134-1.935 0.389-3.902 0.599-5.875 0.626zM15.461 1.129v6.76c-1.973-0.024-3.94-0.231-5.875-0.619 1.345-3.495 3.459-5.832 5.875-6.141zM15.461 8.967v6.472h-7.371c0.028-2.439 0.41-4.862 1.136-7.191 2.051 0.437 4.138 0.678 6.235 0.719zM7.004 15.439h-5.897c0.111-3.174 1.237-6.229 3.214-8.716 1.248 0.565 2.543 1.022 3.869 1.366-0.751 2.387-1.15 4.869-1.187 7.371v-0.022zM7.004 16.518c0.034 2.509 0.434 4.999 1.187 7.392-1.324 0.326-2.619 0.764-3.869 1.309-1.977-2.486-3.104-5.541-3.214-8.716l5.897 0.014zM8.090 16.518h7.371v6.472c-2.095 0.027-4.183 0.253-6.235 0.676-0.72-2.308-1.102-4.708-1.136-7.126v-0.021zM15.461 24.111v6.76c-2.416-0.309-4.53-2.653-5.875-6.134 1.935-0.389 3.902-0.599 5.875-0.626zM16.539 30.871v-6.76c1.973 0.024 3.94 0.231 5.875 0.619-1.345 3.495-3.459 5.832-5.875 6.141zM16.539 23.033v-6.472h7.371c-0.028 2.439-0.41 4.862-1.136 7.191-2.051-0.437-4.138-0.678-6.235-0.719zM24.996 16.561h5.897c-0.111 3.174-1.237 6.229-3.214 8.716-1.248-0.565-2.543-1.022-3.869-1.366 0.751-2.387 1.15-4.869 1.187-7.371v0.022zM24.996 15.482c-0.033-2.514-0.432-5.009-1.187-7.407 1.324-0.326 2.619-0.764 3.869-1.309 1.977 2.486 3.104 5.541 3.214 8.716h-5.897zM12.045 1.618c-1.584 1.493-2.785 3.345-3.502 5.4-1.191-0.289-2.357-0.671-3.488-1.143 1.888-2.043 4.309-3.517 6.99-4.257zM5.055 26.068c1.131-0.472 2.297-0.854 3.488-1.143 0.708 2.076 1.91 3.949 3.502 5.458-2.683-0.744-5.104-2.223-6.99-4.271v-0.043zM19.955 30.382c1.585-1.495 2.786-3.35 3.502-5.408 1.191 0.289 2.357 0.671 3.488 1.143-1.887 2.046-4.308 3.523-6.99 4.264z"></path>
</svg>
