<!-- Generated by IcoMoon.io -->
<svg version="1.1" xmlns="http://www.w3.org/2000/svg" width="32" height="32" viewBox="0 0 32 32">
<title>lanyrd</title>
<path d="M11.968 32c0.704 0 1.216-0.16 1.728-0.32 4.128-1.344 8.224-2.656 12.352-4 1.152-0.384 2.336-0.736 3.456-1.152s1.504-1.184 1.344-2.368c-0.16-0.96-0.384-1.888-0.608-2.816-0.064-0.288-0.16-0.544-0.288-0.8-0.32-0.672-0.8-0.928-1.536-0.8-0.416 0.064-0.8 0.192-1.184 0.32-3.232 1.056-6.464 2.112-9.696 3.168-0.32 0.096-0.448 0.032-0.544-0.288-1.12-3.52-2.272-7.040-3.392-10.56-0.992-3.104-1.824-6.272-2.88-9.376-0.224-0.704-0.448-1.408-0.832-2.048-0.448-0.768-0.992-1.024-1.856-0.864-1.6 0.288-3.104 0.896-4.64 1.408-0.544 0.128-1.056 0.352-1.536 0.64-0.672 0.416-0.864 0.896-0.672 1.632 0.128 0.576 0.32 1.152 0.512 1.696 1.216 3.488 2.56 6.976 3.744 10.496 1.408 4.224 2.752 8.448 4.16 12.704 0.256 0.8 0.544 1.6 0.96 2.336 0.288 0.608 0.768 1.024 1.408 0.992z"></path>
</svg>
