<!-- Generated by IcoMoon.io -->
<svg version="1.1" xmlns="http://www.w3.org/2000/svg" width="32" height="32" viewBox="0 0 32 32">
<title>line</title>
<path d="M31.688 11.188c-0.625-2.688-2.188-4.813-4.313-6.563-3.313-2.688-7.125-3.813-11.375-3.875-1.438 0-2.875 0.125-4.25 0.438-3.5 0.813-6.563 2.438-8.875 5.125-1.75 2.063-2.75 4.438-2.875 7.125-0.063 2.75 0.813 5.188 2.563 7.375 2.438 3 5.625 4.688 9.313 5.5 0.75 0.125 1.438 0.25 2.125 0.438s0.875 0.5 0.875 1.188c0 0.375-0.063 0.625-0.063 0.938-0.063 0.5-0.25 1-0.25 1.5-0.063 0.75 0.25 1.063 1 0.813 0.5-0.188 1-0.375 1.438-0.688 2.438-1.375 4.813-3 7.125-4.75 2-1.5 3.938-3.188 5.438-5.25 2.125-2.75 2.938-5.875 2.125-9.313zM10.375 17.5c0 0.125-0.125 0.313-0.313 0.313h-4.438c-0.125 0-0.188-0.063-0.25-0.125s-0.125-0.125-0.125-0.188v-7c0-0.188 0.188-0.313 0.375-0.313h1.125c0.125 0 0.313 0.125 0.313 0.313v5.563h3c0.188 0 0.313 0.125 0.313 0.313zM13.125 17.5c0 0.125-0.125 0.313-0.313 0.313h-1.125c-0.188 0-0.313-0.125-0.313-0.313v-7c0-0.188 0.125-0.313 0.313-0.313h1.125c0.125 0 0.313 0.125 0.313 0.313zM20.813 17.5c0 0.125-0.125 0.313-0.313 0.313h-1.125c-0.063 0-0.063 0-0.063 0s0 0-0.063 0c0 0 0 0 0 0-0.063-0.063-0.063-0.063-0.063-0.063l-3.25-4.313v4.125c0 0.125-0.125 0.313-0.313 0.313h-1.125c-0.125 0-0.313-0.125-0.313-0.313v-7.063c0-0.188 0.125-0.313 0.313-0.313h1.125c0 0 0 0 0.063 0 0 0 0 0 0 0s0 0 0.063 0c0 0 0 0 0 0s0 0 0.063 0c0 0 0 0 0 0s0 0 0.063 0c0 0 0 0 0 0s0 0 0.063 0c0 0 0 0.063 0 0.063l3.25 4.25v-4c0-0.188 0.125-0.313 0.313-0.313h1.125c0.125 0 0.313 0.125 0.313 0.313v7zM27 11.625c0 0.125-0.125 0.313-0.313 0.313h-3.063v1.188h3.063c0.188 0 0.313 0.125 0.313 0.313v1.125c0 0.188-0.125 0.313-0.313 0.313h-3.063v1.188h3.063c0.188 0 0.313 0.125 0.313 0.313v1.125c0 0.188-0.125 0.313-0.313 0.313h-4.5c-0.063 0-0.125 0-0.188-0.063s-0.125-0.125-0.125-0.25v-7c0-0.063 0.063-0.125 0.125-0.188s0.125-0.125 0.188-0.125h4.5c0.188 0 0.313 0.125 0.313 0.313z"></path>
</svg>
