<!-- Generated by IcoMoon.io -->
<svg version="1.1" xmlns="http://www.w3.org/2000/svg" width="32" height="32" viewBox="0 0 32 32">
<title>livejournal</title>
<path d="M11 3.125c0 0 0 0 0 0s0 0 0 0 0 0 0 0zM16.938 1.875c-2.125 0-4.125 0.438-5.938 1.25 0.125 0.063 0.188 0.125 0.313 0.25 0.313 0.313 0.625 0.625 0.938 0.938 0.063 0.063 0.063 0.063 0.063 0.063l10.75 10.75c-3.313 1.938-5.875 4.563-7.75 8l-10.813-10.813c-0.063-0.063-0.063-0.063-0.125-0.125-0.313-0.375-0.688-0.688-1-1-0.063-0.063-0.125-0.125-0.188-0.25 1.625-3.563 4.188-6.188 7.875-7.75-0.063-0.063-0.063-0.063-0.063-0.063s0 0 0 0c-0.938-0.938-1.875-1.813-2.75-2.75-0.375-0.313-0.688-0.438-1.125-0.188-0.563 0.25-1.063 0.563-1.563 0.875-1.75 1.188-3.188 2.625-4.375 4.313-0.375 0.563-0.75 1.125-1.063 1.813-0.188 0.375-0.188 0.625 0.188 0.938 0.938 0.938 1.875 1.875 2.813 2.813-0.813 1.813-1.188 3.875-1.188 5.938 0 8.313 6.75 15.063 15 15.063 8.313 0 15.063-6.75 15.063-15.063 0-8.25-6.75-15-15.063-15zM18.5 24.313c1.25-2.875 3.25-4.813 6-6.125 0.5 2.563 1 5 1.5 7.688-2.625-0.563-5-1.063-7.5-1.563z"></path>
</svg>
