<!-- Generated by IcoMoon.io -->
<svg version="1.1" xmlns="http://www.w3.org/2000/svg" width="32" height="32" viewBox="0 0 32 32">
<title>loomly</title>
<path d="M30.048 10.784c-0.576-0.96-1.248-1.856-2.080-2.624-0.288-0.288-0.416-0.576-0.384-0.992 0.032-0.896 0-1.76 0-2.656 0-0.832 0-1.664 0-2.496 0-0.192 0-0.416-0.032-0.608-0.16-1.12-1.216-1.696-2.24-1.216-0.192 0.096-0.384 0.224-0.608 0.352-1.504 0.928-3.040 1.824-4.544 2.784-0.448 0.288-0.864 0.352-1.376 0.256-1.28-0.192-2.56-0.352-3.84-0.16-0.704 0.096-1.28-0.096-1.856-0.448-1.28-0.832-2.592-1.568-3.872-2.368-0.288-0.224-0.576-0.384-0.896-0.48-1.344-0.416-2.816 0.416-3.136 1.792-0.064 0.288-0.064 0.576-0.064 0.864 0 1.216-0.032 2.4 0 3.616 0 0.544-0.128 0.96-0.576 1.344-0.8 0.672-1.472 1.44-2.048 2.304-2.848 4.256-3.328 8.736-1.088 13.408 1.504 3.168 4 5.376 7.168 6.88 3.264 1.568 6.72 1.952 10.304 1.408 3.648-0.544 6.816-2.144 9.344-4.832 2.432-2.56 3.776-5.632 3.808-9.216 0-2.464-0.704-4.768-1.984-6.912zM27.776 23.328c-1.12 1.792-2.624 3.136-4.416 4.192-1.888 1.088-4.544 1.952-6.816 1.888-4 0-7.136-1.056-9.856-3.296-1.92-1.6-3.264-3.616-3.84-6.048-0.768-3.232-0.032-6.176 1.888-8.832 0.576-0.8 1.28-1.536 2.080-2.144 0.576-0.448 0.832-0.96 0.8-1.696-0.032-1.184 0-2.4 0-3.616 0-0.224 0-0.448 0-0.672 0.032-0.288 0.16-0.384 0.384-0.256s0.448 0.256 0.672 0.384c1.312 0.8 2.656 1.6 3.968 2.4 0.448 0.288 0.928 0.416 1.472 0.352 1.024-0.096 2.048-0.128 3.072-0.064 3.552 0.288 6.624 1.632 9.12 4.192 1.888 1.952 2.944 4.288 3.104 6.976 0.16 2.272-0.416 4.352-1.632 6.24z"></path>
</svg>
