<!-- Generated by IcoMoon.io -->
<svg version="1.1" xmlns="http://www.w3.org/2000/svg" width="32" height="32" viewBox="0 0 32 32">
<title>lyft</title>
<path d="M4 22.5c-0.688 0-1.625-0.125-2.5-0.875-0.938-0.813-1.5-2.125-1.5-3.563v-12.938h4.5v12.938c0 2.25 1 3.438 1.563 3.875-0.375 0.25-1.188 0.563-2.063 0.563zM18.125 22.125c-0.125 0-0.313 0-0.438 0v-11.125c0-3.5 2.813-6.313 6.25-6.313 2.938 0 5.563 2.125 6.125 4.938l0.063 0.125h1.625v4.5h-1.5v1.563c0 0.938 0.75 1.75 1.688 1.813v4.438c-3.313-0.125-6.063-2.875-6.063-6.25v-4.875c0-1-0.813-1.875-1.875-1.875-0.938 0-1.75 0.75-1.813 1.688v1.875h2.5v4.438h-2.5v0.625c0 1.5-0.5 2.813-1.438 3.563-0.813 0.625-1.625 0.875-2.625 0.875zM10.063 27.188c-0.938 0-1.938-0.125-2.938-0.438v-4c0.625 0.188 1.5 0.438 2.313 0.438 0.125 0 0.25 0 0.375 0 1.375-0.125 2.313-0.813 2.438-1.813l0.063-0.625-0.438 0.438c0 0-0.875 0.813-2.25 0.813-0.438 0-0.813-0.063-1.25-0.125-2.188-0.625-2.688-2.438-2.688-3.875v-8.25h4.5v7c0 0.563 0.375 0.938 0.938 0.938 0.5 0 0.938-0.438 0.938-0.938v-6.938h4.438v11c0 3.188-1.875 5.563-4.688 6.125-0.563 0.25-1.125 0.25-1.75 0.25z"></path>
</svg>
