<!-- Generated by IcoMoon.io -->
<svg version="1.1" xmlns="http://www.w3.org/2000/svg" width="32" height="32" viewBox="0 0 32 32">
<title>mailru</title>
<path d="M15.456 6.912c2.432 0.032 4.736 1.056 6.432 2.816v0c-0.064-0.736 0.48-1.376 1.248-1.44 0.032 0 0.064 0 0.064 0h0.192c0.8 0.032 1.44 0.672 1.44 1.504 0 0 0 0 0 0v12.768c-0.064 0.448 0.224 0.864 0.672 0.96 0.256 0.032 0.512-0.032 0.704-0.224 2.016-2.112 4.448-10.848-1.248-15.904-4.576-4-11.2-4.544-16.32-1.28-4.64 3.424-6.336 9.6-4.128 14.912 2.72 6.4 10.56 8.288 15.232 6.4 2.368-0.96 3.456 2.272 0.992 3.328-3.712 1.6-13.984 1.44-18.816-7.008-3.232-5.696-3.040-15.712 5.568-20.896 6.624-3.968 15.136-2.88 20.544 2.656 5.472 5.792 5.152 16.64-0.192 20.864-1.632 1.248-3.968 0.96-5.216-0.704-0.448-0.608-0.736-1.312-0.768-2.048l-0.032-0.896c-1.696 1.728-3.968 2.688-6.368 2.688-5.056-0.064-9.088-4.192-9.088-9.248s4.032-9.152 9.088-9.248c0 0 0 0 0 0zM21.536 15.84c-0.032-3.2-2.624-5.76-5.824-5.728-0.064 0-0.096 0-0.16 0h-0.128c-3.648 0-5.696 2.912-5.696 6.208 0 3.712 2.464 6.048 5.664 6.048 3.296 0.064 6.016-2.528 6.112-5.792 0.032 0 0.032-0.736 0.032-0.736z"></path>
</svg>
