<!-- Generated by IcoMoon.io -->
<svg version="1.1" xmlns="http://www.w3.org/2000/svg" width="32" height="32" viewBox="0 0 32 32">
<title>meetup</title>
<path d="M21.38 23.335c0.099 2.347 1.208 4.102 3.338 5.047 1.782 0.791 3.709 1.036 5.665 0.676 1.060-0.196 1.591-0.741 1.616-1.607 0.028-0.989-0.386-1.498-1.513-1.761-0.785-0.183-1.597-0.26-2.376-0.463-1.174-0.307-1.597-0.888-1.592-2.084 0.002-0.388 0.045-0.781 0.121-1.162 0.46-2.297 1.48-4.39 2.396-6.521 0.987-2.295 2.178-4.517 2.559-7.033 0.3-1.979-0.925-3.9-2.863-4.325-1.419-0.311-2.851-0.364-4.165 0.458-0.513 0.321-0.982 0.272-1.421-0.148-0.226-0.216-0.474-0.408-0.703-0.621-1.404-1.301-3.174-1.35-4.663-0.118-0.361 0.299-0.706 0.619-1.062 0.924-0.78 0.671-1.582 0.903-2.568 0.343-0.904-0.513-1.835-1.012-2.846-1.286-2.242-0.606-5.005 0.868-6.071 3.228-0.655 1.451-1.181 2.953-1.685 4.462-1.231 3.685-2.426 7.385-3.398 11.146-0.593 2.294 0.656 4.371 2.816 5.068 2.486 0.801 4.335 0 5.344-2.396 0.941-2.235 1.81-4.5 2.71-6.752 0.871-2.179 1.726-4.365 2.622-6.534 0.354-0.856 1.168-1.272 1.867-1.054 0.743 0.232 1.17 1.069 0.993 1.982-0.054 0.28-0.142 0.556-0.243 0.825-0.374 1.001-0.752 2.002-1.142 2.997-0.723 1.845-1.492 3.673-2.173 5.533-0.439 1.198-0.070 2.147 0.847 2.531 1.052 0.442 2.38 0.158 3.172-0.673 0.42-0.441 0.695-0.973 0.966-1.509 1.863-3.676 3.728-7.35 5.595-11.024 0.272-0.536 0.554-1.069 1.025-1.464 0.411-0.344 0.88-0.475 1.38-0.227 0.511 0.253 0.526 0.739 0.476 1.221-0.049 0.474-0.255 0.9-0.455 1.325-1.335 2.83-2.676 5.658-4.006 8.49-0.369 0.787-0.607 1.611-0.562 2.508z"></path>
</svg>
