<!-- Generated by IcoMoon.io -->
<svg version="1.1" xmlns="http://www.w3.org/2000/svg" width="32" height="32" viewBox="0 0 32 32">
<title>microsoft</title>
<path d="M0 0h15.232c0 5.088 0 10.144 0 15.232-5.088 0-10.144 0-15.232 0v-15.232zM16.768 0h15.232c0 5.088 0 10.144 0 15.232-5.088 0-10.144 0-15.232 0 0-5.088 0-10.144 0-15.232v0zM0 16.768c5.088 0 10.144 0 15.232 0 0 5.088 0 10.144 0 15.232h-15.232v-15.232zM16.768 16.768c5.088 0 10.144 0 15.232 0 0 5.088 0 10.144 0 15.232h-15.232c0-5.088 0-10.144 0-15.232v0z"></path>
</svg>
