<!-- Generated by IcoMoon.io -->
<svg version="1.1" xmlns="http://www.w3.org/2000/svg" width="32" height="32" viewBox="0 0 32 32">
<title>mixer</title>
<path d="M7.252 4.855c-0.985-1.331-2.92-1.538-4.182-0.397-1.089 1.003-1.175 2.696-0.294 3.888l5.685 7.62-5.719 7.689c-0.881 1.192-0.812 2.886 0.294 3.888 1.261 1.141 3.197 0.933 4.182-0.398l7.983-10.731c0.19-0.259 0.19-0.622 0-0.881l-7.949-10.679zM24.773 4.855c0.985-1.331 2.92-1.538 4.182-0.397 1.089 1.003 1.175 2.696 0.294 3.888l-5.685 7.62 5.719 7.689c0.881 1.192 0.812 2.886-0.294 3.888-1.261 1.141-3.197 0.933-4.182-0.398l-7.966-10.748c-0.19-0.259-0.19-0.622 0-0.881l7.931-10.661z"></path>
</svg>
