<!-- Generated by IcoMoon.io -->
<svg version="1.1" xmlns="http://www.w3.org/2000/svg" width="32" height="32" viewBox="0 0 32 32">
<title>mumble</title>
<path d="M19.008 30.432c0-0.864-1.216-1.568-2.72-1.568 0 0 0 0 0 0-0.736 0-1.408 0.16-1.92 0.48-0.512 0.288-0.8 0.672-0.8 1.088 0 0.864 1.216 1.568 2.72 1.568 0 0 0 0 0 0 0.736 0 1.408-0.16 1.92-0.48 0.512-0.288 0.8-0.672 0.8-1.088v0zM8.128 11.68c0 0 0 0 0 0-0.032-0.032-0.064-0.064-0.096-0.064 0 0 0 0 0 0-0.032 0-0.032 0-0.064-0.032 0 0 0 0 0 0-0.032 0-0.032 0-0.064 0h-0.544c-0.192 0-0.32 0.128-0.32 0.32v16.576c0 0.16 0.16 0.32 0.32 0.32h0.544c0.192 0 0.32-0.128 0.32-0.32v-16.576c0-0.096-0.032-0.16-0.096-0.224v0zM10.912 2.432h0.032v0.032c0 0.864 0 1.728 0 2.56 0 1.408 0 2.848 0.032 4.256 0.064 0.864 0.512 1.728 1.216 2.336s1.6 0.896 2.464 0.832c0.416 0 0.8 0 1.216 0 0.736 0 1.536 0.032 2.272-0.064 1.696-0.32 2.944-2.016 2.752-3.808v-6.176h0.032c0.672-0.064 1.28 0.192 1.824 0.64 0.64 0.576 1.056 1.472 1.12 2.304 0.032 1.408 0.032 2.848 0 4.256 0 0.576 0 1.184 0 1.792 0.064-0.032 0.096-0.032 0.16-0.032h0.544c0.256 0 0.448 0.192 0.448 0.416v0.288h0.032v-0.448h0.064c0.384 0.032 0.8 0.128 1.184 0.256v-6.528c-0.096-0.8-0.224-1.632-0.576-2.304-0.96-1.952-3.296-3.2-5.664-3.008v0 0c-0.64-0.096-1.312 0.352-1.504 0.96 0 2.592 0.032 5.312 0 8.064-0.032 0.544-0.32 1.056-0.736 1.408-0.448 0.384-1.024 0.544-1.6 0.48-0.832 0.032-1.696-0.032-2.24-0.704-0.576-0.608-0.544-1.408-0.544-2.176 0-0.224 0-0.448 0-0.672 0-0.608 0-1.216 0-1.824 0-1.536 0-3.136 0-4.736-0.32-0.608-0.992-0.96-1.728-0.864h-0.256c-2.56-0.064-4.96 1.664-5.568 4-0.128 0.544-0.192 1.088-0.224 1.728v6.272c0.384-0.128 0.736-0.224 1.12-0.256h0.064v0.128c0-0.224 0.192-0.416 0.416-0.416h0.544c0.096 0 0.16 0.032 0.256 0.064 0-0.64 0-1.28 0-1.92 0-1.376 0-2.816 0-4.224 0.16-1.408 1.28-2.944 2.848-2.912-0.032-0.032 0-0.032 0 0zM29.376 14.464c-0.96-1.344-2.24-2.272-3.616-2.592 0 0-0.032 0-0.032 0-0.096-0.032-0.16-0.032-0.256-0.064s-0.192-0.032-0.288-0.032v16.896c1.6-0.192 3.072-1.152 4.192-2.688 1.12-1.568 1.728-3.616 1.728-5.76s-0.608-4.192-1.728-5.76zM6.368 11.936c-0.032 0-0.064 0-0.096 0.032-0.064 0.032-0.128 0.032-0.224 0.064 0 0-0.032 0-0.032 0-0.064 0.032-0.16 0.032-0.224 0.064 0 0 0 0 0 0v0c-1.216 0.416-2.304 1.248-3.168 2.464-1.12 1.568-1.728 3.616-1.728 5.76s0.608 4.192 1.728 5.76c1.088 1.536 2.592 2.496 4.192 2.688v-16.928c-0.096 0-0.192 0.032-0.256 0.032-0.096 0.032-0.128 0.032-0.192 0.064zM24.608 11.488h-0.544c-0.032 0-0.032 0-0.064 0 0 0 0 0-0.032 0 0 0 0 0-0.032 0-0.128 0.032-0.224 0.16-0.224 0.288v16.576c0 0.16 0.16 0.32 0.352 0.32h0.544c0.192 0 0.352-0.128 0.352-0.32v-16.544c0-0.192-0.16-0.32-0.352-0.32zM25.152 28.768h-0.064v-0.544c0 0-0.032 0-0.032 0v0.128c0 0.224-0.192 0.416-0.448 0.416h-0.064c-0.032 0.032-0.032 0.032-0.064 0.064-0.32 0.224-0.608 0.448-0.928 0.672-0.288 0.192-0.608 0.384-0.896 0.544-0.224 0.096-0.416 0.128-0.416 0.128h-3.168c0.032 0.096 0.032 0.192 0.032 0.288v0c0 0.192-0.032 0.352-0.128 0.512 0.032 0 0.032 0 0.064 0h3.392c0.064 0 0.352-0.096 0.544-0.16 0.416-0.192 0.704-0.416 1.184-0.704 0.512-0.32 1.472-1.088 1.472-1.088 0.128-0.064 0.16-0.192 0.16-0.32-0.224 0.032-0.416 0.064-0.64 0.064zM12.352 20.864c-0.064-0.064-0.192-0.096-0.32-0.096s-0.32 0-0.512 0h-0.224v2.24h0.064c0.32 0 0.544 0 0.672 0s0.256-0.064 0.384-0.16c0.096-0.096 0.192-0.224 0.256-0.384s0.064-0.352 0.064-0.576l-0.096-0.64c-0.064-0.192-0.16-0.32-0.288-0.384zM11.872 19.232c0.096 0 0.16-0.064 0.256-0.128 0.096-0.096 0.16-0.192 0.192-0.352s0.064-0.32 0.064-0.512c0-0.128-0.032-0.288-0.064-0.448s-0.096-0.256-0.192-0.32c-0.096-0.064-0.192-0.096-0.288-0.096s-0.288 0-0.48 0h-0.096v1.888h0.16c0.224-0.032 0.384-0.032 0.448-0.032zM22.784 14.816h-13.504v10.72h13.472v-10.72zM13.856 23.072c-0.096 0.32-0.224 0.608-0.384 0.832-0.192 0.256-0.384 0.448-0.608 0.576-0.224 0.096-0.512 0.16-0.832 0.16h-1.952v-8.928h1.728c0.352 0 0.64 0.032 0.832 0.064 0.192 0.064 0.352 0.16 0.512 0.32s0.32 0.416 0.384 0.704c0.096 0.288 0.128 0.608 0.128 0.992 0 0.448-0.064 0.832-0.192 1.152-0.128 0.352-0.288 0.576-0.48 0.736v0.032c0.288 0.128 0.544 0.352 0.736 0.704s0.288 0.832 0.288 1.44c-0.032 0.48-0.064 0.864-0.16 1.216zM18.016 24.704h-3.392v-9.056h1.344v7.2h2.048v1.856zM21.888 17.504h-2.048v1.44h1.888v1.792h-1.888v2.144h2.048v1.856h-3.392v-9.088h3.392v1.856z"></path>
</svg>
