<!-- Generated by IcoMoon.io -->
<svg version="1.1" xmlns="http://www.w3.org/2000/svg" width="32" height="32" viewBox="0 0 32 32">
<title>openaigym</title>
<path d="M16 0c-8.832 0-16 7.168-16 16s7.168 16 16 16 16-7.168 16-16-7.168-16-16-16zM6.528 23.616c-2.048-2.528-2.976-5.696-2.624-8.928s1.92-6.112 4.448-8.16c1.824-1.472 4-2.368 6.336-2.624l0.16 1.568c-2.016 0.224-3.936 0.992-5.536 2.272-2.208 1.76-3.584 4.288-3.872 7.104s0.512 5.568 2.272 7.776l-1.184 0.992zM25.472 23.616l-1.216-0.992c1.28-1.6 2.080-3.488 2.272-5.504 0.32-3.008-0.672-5.824-2.464-7.968l-1.984 1.952c0.128 0.128 0.224 0.288 0.32 0.416 2.464 3.52 1.6 8.416-1.92 10.88-1.152 0.8-2.4 1.248-3.712 1.376v2.752c2.080-0.16 4.128-0.928 5.856-2.304l0.992 1.216c-2.176 1.792-4.896 2.688-7.616 2.688s-5.408-0.896-7.648-2.688l0.992-1.216c1.728 1.376 3.776 2.144 5.856 2.304v-2.752c-2.176-0.224-4.256-1.344-5.6-3.296-1.888-2.688-1.888-6.304 0-8.992l1.28 0.896c-1.504 2.144-1.504 5.024 0 7.168 1.984 2.816 5.888 3.52 8.704 1.536s3.52-5.888 1.536-8.704c-1.984-2.816-5.888-3.52-8.704-1.536l-0.896-1.248c2.944-2.048 6.816-1.792 9.44 0.384l1.952-1.952c-1.568-1.376-3.584-2.304-5.824-2.528l0.16-1.568c6.688 0.704 11.552 6.688 10.848 13.344-0.256 2.336-1.184 4.512-2.624 6.336zM17.792 15.424c-0.16-0.48-0.48-0.864-0.928-1.088s-0.96-0.256-1.44-0.128c-0.48 0.16-0.864 0.48-1.088 0.928-0.48 0.928-0.096 2.048 0.8 2.528l-0.704 1.408c-0.832-0.416-1.44-1.12-1.696-2.016-0.288-0.864-0.192-1.824 0.224-2.624 0.416-0.832 1.12-1.44 2.016-1.696 0.864-0.288 1.824-0.192 2.624 0.224 0.832 0.416 1.44 1.12 1.696 2.016 0.288 0.864 0.192 1.824-0.224 2.624-0.32 0.64-0.864 1.152-1.504 1.504l-0.704-1.408c0.352-0.192 0.64-0.448 0.8-0.8 0.224-0.512 0.256-0.992 0.128-1.472z"></path>
</svg>
