<!-- Generated by IcoMoon.io -->
<svg version="1.1" xmlns="http://www.w3.org/2000/svg" width="32" height="32" viewBox="0 0 32 32">
<title>pandora</title>
<path d="M2.496 16c0-5.184 0-10.368 0-15.52 0-0.48 0-0.48 0.448-0.48 4.736 0 9.472 0 14.208 0 1.984 0 3.936 0.352 5.76 1.12 2.624 1.088 4.544 2.848 5.664 5.472 0.512 1.184 0.768 2.432 0.864 3.712 0.128 1.472 0.032 2.944-0.256 4.384-0.512 2.464-1.696 4.544-3.584 6.208-1.28 1.12-2.752 1.856-4.32 2.4-1.696 0.544-3.424 0.832-5.216 0.928-1.024 0.064-2.016 0.032-3.040 0.032-0.384 0-0.384 0-0.384 0.384 0 1.92 0 3.808 0 5.728 0 0.48-0.128 0.896-0.48 1.216-0.256 0.256-0.576 0.384-0.96 0.384-2.784 0-5.536 0-8.32 0-0.384 0-0.384 0-0.384-0.384 0-5.184 0-10.4 0-15.584z"></path>
</svg>
