<!-- Generated by IcoMoon.io -->
<svg version="1.1" xmlns="http://www.w3.org/2000/svg" width="32" height="32" viewBox="0 0 32 32">
<title>px</title>
<path d="M7.904 21.024c0 0.032 0.16 0.48 0.256 0.704 0.512 1.248 1.28 2.368 2.24 3.328s2.080 1.728 3.328 2.24c1.28 0.544 2.656 0.832 4.064 0.832s2.784-0.288 4.064-0.832c1.248-0.512 2.368-1.28 3.328-2.24s1.728-2.080 2.24-3.328c0.544-1.28 0.832-2.656 0.832-4.064s-0.288-2.784-0.832-4.064c-0.512-1.248-1.28-2.368-2.24-3.328s-2.080-1.728-3.328-2.24c-1.28-0.544-2.656-0.832-4.064-0.832-1.44 0-2.848 0.288-4.128 0.832-1.024 0.416-2.752 1.536-3.744 2.592v0-8.672h14.496c0.512 0 0.512-0.736 0.512-0.992s0-0.992-0.544-0.992l-15.616 0.032c-0.416 0-0.704 0.352-0.704 0.672v12.128c0 0.384 0.48 0.672 0.928 0.768 0.896 0.192 1.088-0.096 1.312-0.384l0.032-0.032c0.32-0.48 1.376-1.536 1.376-1.536 1.6-1.6 3.776-2.496 6.080-2.496s4.448 0.896 6.048 2.496c1.632 1.632 2.496 3.776 2.496 6.048s-0.896 4.416-2.496 6.048c-1.6 1.6-3.808 2.496-6.080 2.496-1.536 0-3.040-0.416-4.32-1.184v-7.392c0-0.992 0.416-2.048 1.152-2.848 0.832-0.928 1.952-1.44 3.168-1.44 1.184 0 2.304 0.448 3.136 1.28 0.832 0.8 1.28 1.888 1.28 3.040 0 2.464-1.952 4.384-4.416 4.384-0.48 0-1.344-0.224-1.376-0.224-0.512-0.16-0.704 0.544-0.768 0.768-0.256 0.864 0.128 1.056 0.224 1.088 0.8 0.256 1.312 0.288 2.016 0.288 3.488 0 6.336-2.848 6.336-6.336 0-3.456-2.848-6.304-6.336-6.304-1.696 0-3.328 0.64-4.512 1.856-1.152 1.12-1.824 2.624-1.824 4.128v0.032c0 0.192 0 4.608 0 6.048v0c-0.672-0.736-1.312-1.856-1.728-2.976-0.16-0.448-0.544-0.352-1.056-0.192-0.288 0.096-0.992 0.288-0.832 0.8v0zM15.36 19.296c0 0.224 0.192 0.384 0.32 0.512v0.032c0.192 0.192 0.384 0.288 0.576 0.288 0.16 0 0.224-0.064 0.256-0.096 0.096-0.096 1.088-1.088 1.184-1.184l1.12 1.088c0.096 0.128 0.224 0.16 0.352 0.192 0.192 0 0.384-0.096 0.576-0.32 0.48-0.48 0.224-0.736 0.128-0.864l-1.12-1.12 1.152-1.184c0.256-0.288 0.032-0.576-0.192-0.8-0.32-0.32-0.64-0.416-0.832-0.224l-1.152 1.152-1.184-1.184c-0.064-0.064-0.128-0.096-0.224-0.096-0.16 0-0.352 0.096-0.544 0.32-0.352 0.352-0.448 0.608-0.256 0.8l1.184 1.184-1.152 1.184c-0.16 0.096-0.192 0.224-0.192 0.32zM17.92 3.424c-1.888 0-3.872 0.384-5.344 1.024-0.16 0.064-0.256 0.192-0.256 0.352-0.032 0.16 0.032 0.384 0.128 0.672 0.096 0.224 0.32 0.864 0.8 0.672 1.504-0.576 3.168-0.896 4.672-0.896 1.728 0 3.36 0.32 4.928 0.992 1.248 0.512 2.4 1.28 3.68 2.4 0.096 0.096 0.192 0.128 0.288 0.128 0.256 0 0.48-0.256 0.704-0.48 0.352-0.384 0.576-0.704 0.224-1.024-1.216-1.152-2.56-2.016-4.192-2.72-1.792-0.736-3.68-1.12-5.632-1.12zM28 26.592v0c-0.224-0.224-0.416-0.352-0.576-0.416s-0.32 0-0.448 0.096l-0.096 0.128c-1.152 1.152-2.528 2.080-4.032 2.72-1.568 0.672-3.232 0.992-4.928 0.992s-3.36-0.32-4.928-0.992c-1.504-0.64-2.848-1.536-4.032-2.72-1.216-1.216-2.112-2.56-2.72-4.032-0.576-1.408-0.768-2.496-0.832-2.848 0-0.032 0-0.064 0-0.064-0.064-0.416-0.448-0.448-0.992-0.352-0.224 0.032-0.928 0.128-0.864 0.64v0c0.192 1.152 0.512 2.272 0.96 3.36 0.736 1.728 1.792 3.296 3.104 4.608 1.344 1.344 2.88 2.4 4.608 3.104 1.792 0.768 3.712 1.152 5.664 1.152s3.872-0.384 5.664-1.152c1.728-0.736 3.296-1.792 4.608-3.104 0 0 0.064-0.064 0.128-0.128 0.192-0.128 0.32-0.416-0.288-0.992z"></path>
</svg>
