<!-- Generated by IcoMoon.io -->
<svg version="1.1" xmlns="http://www.w3.org/2000/svg" width="32" height="32" viewBox="0 0 32 32">
<title>redbubble</title>
<path d="M22.176 21.76h-4.256c-0.224 0-0.416-0.192-0.416-0.416v-10.72c0-0.224 0.192-0.416 0.416-0.416h3.968c2.976 0 3.584 1.76 3.584 3.2 0 0.864-0.224 1.504-0.672 2.016 1.088 0.448 1.664 1.472 1.664 2.944 0 2.112-1.6 3.392-4.288 3.392v0zM16 21.76h-8.864c-0.224 0-0.416-0.192-0.416-0.416v-10.72c0-0.224 0.192-0.416 0.416-0.416h4.128c2.592 0 4.128 1.408 4.128 3.712 0 1.568-0.768 2.784-2.048 3.264l2.944 3.872c0.256 0.288 0.064 0.704-0.288 0.704v0zM16 0c-8.832 0-16 7.168-16 16s7.168 16 16 16c8.832 0 16-7.168 16-16s-7.168-16-16-16v0z"></path>
</svg>
