<!-- Generated by IcoMoon.io -->
<svg version="1.1" xmlns="http://www.w3.org/2000/svg" width="32" height="32" viewBox="0 0 32 32">
<title>redfin</title>
<path d="M27.776 30.336c-0.448-0.224-0.992-0.544-2.304-2.752l-2.624-4.288-3.104-5.056-0.224-0.416c0.096 0 0.32-0.096 0.448-0.096 3.52-1.216 5.6-4.384 5.6-9.024 0-2.304-0.864-4.384-2.624-5.952-0.224-0.224-0.544-0.448-0.768-0.672-2.432-1.536-5.6-2.080-9.792-2.080h-8.032c-0.448 0-0.544 0.32-0.32 0.544s0.448 0.544 0.448 1.44v25.28c-0.096 0.992-0.32 1.312-0.448 1.536-0.224 0.224-0.096 0.544 0.448 0.544h5.824v-10.656h2.624l1.856 3.2 2.304 3.968 1.088 1.984c1.312 2.208 2.528 3.616 4.608 3.968 0.224 0 1.312 0.224 1.76 0.224h0.448c0.864 0 1.76-0.32 2.304-0.544 0 0 0.096-0.096 0.224-0.096 0.8-0.48 0.576-0.928 0.256-1.056zM14.048 14.528h-3.744v-10.336h3.744c1.856 0 3.296 0.224 4.288 1.216 0.448 0.32 0.672 0.768 0.864 1.312 0.224 0.672 0.448 1.44 0.448 2.432 0 1.28-0.128 5.376-5.6 5.376z"></path>
</svg>
