<!-- Generated by IcoMoon.io -->
<svg version="1.1" xmlns="http://www.w3.org/2000/svg" width="32" height="32" viewBox="0 0 32 32">
<title>researchgate</title>
<path d="M21 32c0.688 0 1.375-0.125 1.813-0.313v-1c-1.375 0-2.75-0.938-3.75-2-1.688-1.813-3.938-4.813-5.813-8.125 3.125-0.75 5.375-3.625 5.375-6.5 0-4.313-3.313-6.313-7.688-6.313-2.25 0-4.063 0.125-5.75 0.125-1.5 0-3.063 0-4 0v1.063l1.438 0.25c1 0.25 1.625 0.688 1.625 3.063v15c0 2.375-0.625 2.813-1.625 3l-1.438 0.25v1.188c1.063-0.063 2.875-0.125 4.625-0.125s3.938 0.063 4.938 0.125v-1.125l-2-0.25c-1.063-0.188-1.563-0.625-1.563-3v-6.375c0.938 0.063 1.688 0.063 2.938 0.063 2.313 4.125 4.5 7.313 5.75 8.75 1.188 1.375 2.938 2.25 5.125 2.25M9.938 19.25c-1.313 0-1.875 0-2.75-0.125v-9.563c0.875-0.063 2-0.063 3.063-0.063 3.25 0 5.125 1.688 5.125 4.688 0 3.063-2.063 5.063-5.438 5.063M21.563 9.625c0-0.188-0.063-0.438-0.063-0.688-0.063-0.25-0.063-0.625-0.063-1s-0.063-0.813-0.063-1.313c0-0.5 0-1 0.063-1.375 0-0.375 0-0.688 0.063-0.938 0-0.25 0.063-0.5 0.063-0.688 0.063-0.188 0.125-0.375 0.188-0.563 0.313-1 0.813-1.75 1.625-2.25 0.75-0.563 1.625-0.813 2.75-0.813 0.563 0 1.063 0.063 1.5 0.188 0.5 0.125 0.875 0.313 1.25 0.563 0.313 0.188 0.625 0.5 0.875 0.813s0.438 0.625 0.625 0.938c0.063 0.125 0 0.25-0.063 0.313l-1.375 0.563c-0.125 0.063-0.188 0-0.25-0.125-0.313-0.563-0.563-0.938-1.063-1.25-0.438-0.25-0.813-0.375-1.5-0.375-0.75 0-1.063 0.125-1.5 0.438s-0.813 0.75-1 1.375c-0.063 0.125-0.063 0.25-0.125 0.375-0.063 0.188-0.063 0.375-0.125 0.625 0 0.25 0 0.563 0 0.875 0 0.375-0.063 0.75-0.063 1.25s0 0.875 0.063 1.25c0 0.375 0 0.625 0 0.875 0.063 0.188 0.063 0.438 0.125 0.563 0 0.188 0.063 0.313 0.125 0.438 0.188 0.625 0.5 0.938 0.875 1.25 0.438 0.25 0.938 0.438 1.625 0.438 0.625 0 1.25-0.188 1.625-0.438 0.375-0.313 0.688-0.688 0.875-1.188 0.063-0.188 0.125-0.5 0.188-0.813s0.063-0.625 0.063-1.125c0-0.063-0.063-0.125-0.125-0.125h-2.25c-0.125 0-0.188-0.063-0.188-0.188v-1.313c0-0.125 0.063-0.188 0.188-0.188h4.125c0.125 0 0.188 0.063 0.188 0.188v1.188c0 0.563 0 1.125-0.063 1.563-0.063 0.5-0.125 0.938-0.25 1.25-0.313 1-0.75 1.688-1.563 2.25-0.75 0.5-1.688 0.75-2.813 0.75-1.063 0-2-0.25-2.75-0.75s-1.25-1.25-1.625-2.25c-0.063-0.125-0.125-0.375-0.188-0.563"></path>
</svg>
