<!-- Generated by IcoMoon.io -->
<svg version="1.1" xmlns="http://www.w3.org/2000/svg" width="32" height="32" viewBox="0 0 32 32">
<title>seedrs</title>
<path d="M27.36 4.736c-0.128 0.896-1.216 7.712-3.008 13.792-0.608 1.664-1.312 3.040-2.080 3.84-3.36 3.328-8.864 3.2-12.352-0.288s-3.616-8.992-0.288-12.32c0.768-0.768 2.176-1.472 3.84-2.080 6.080-1.792 12.896-2.88 13.792-3.008-6.24-6.24-16.352-6.208-22.592 0-5.664 5.664-6.176 14.528-1.568 20.8 0.416 0.672 0.928 1.312 1.504 1.888s1.216 1.088 1.888 1.504c0 0 0 0 0 0 6.272 4.64 15.136 4.128 20.8-1.568 6.24-6.208 6.272-16.32 0.064-22.56z"></path>
</svg>
