<!-- Generated by IcoMoon.io -->
<svg version="1.1" xmlns="http://www.w3.org/2000/svg" width="32" height="32" viewBox="0 0 32 32">
<title>seenthis</title>
<path d="M0 17.952c0-7.584 6.112-12.288 12.864-13.824 1.376 0.16 1.696 1.952 0.8 2.528-2.944 1.056-6.912 3.744-6.912 7.584 0 3.424 2.528 4.544 4.48 5.056 1.376 0.416 2.432 1.696 2.432 3.584 0 2.752-2.528 5.056-5.632 5.056-3.296-0.064-8.032-2.912-8.032-9.984zM17.824 17.952c0-7.584 6.112-12.288 12.864-13.824 1.376 0.16 1.696 1.952 0.8 2.528-2.944 1.056-6.912 3.744-6.912 7.584 0 3.424 2.528 4.544 4.48 5.056 1.376 0.416 2.432 1.696 2.432 3.584 0 2.752-2.528 5.056-5.632 5.056-3.296-0.064-8.032-2.912-8.032-9.984z"></path>
</svg>
