<!-- Generated by IcoMoon.io -->
<svg version="1.1" xmlns="http://www.w3.org/2000/svg" width="32" height="32" viewBox="0 0 32 32">
<title>shopify</title>
<path d="M20.448 32l9.632-2.112c0 0-3.456-23.52-3.52-23.648-0.032-0.16-0.16-0.256-0.288-0.256-0.096 0-2.592-0.192-2.592-0.192l-1.888-1.888c-0.032-0.032-0.096-0.064-0.16-0.096 0.032 0-1.184 28.192-1.184 28.192zM21.216 3.808c-0.032 0-0.064 0-0.096 0.032-0.032 0-0.384 0.096-0.96 0.288-0.544-1.664-1.6-3.136-3.36-3.136h-0.16c-0.48-0.704-1.088-0.992-1.632-0.992-4.128 0-6.112 5.152-6.688 7.776-1.6 0.48-2.72 0.864-2.88 0.896-0.896 0.288-0.928 0.288-1.024 1.152-0.128 0.672-2.496 18.784-2.496 18.784l18.080 3.392c0 0 1.216-28.192 1.216-28.192zM16.544 5.056v0.192c-0.992 0.288-2.112 0.672-3.2 0.992 0.64-2.368 1.76-3.52 2.784-3.936 0.256 0.608 0.416 1.536 0.416 2.752zM14.912 1.12c0.192 0 0.384 0.064 0.512 0.192-1.344 0.64-2.72 2.176-3.36 5.312-0.896 0.256-1.728 0.544-2.496 0.768 0.704-2.368 2.368-6.272 5.344-6.272zM15.616 15.104c0 0-1.056-0.544-2.368-0.544-1.92 0-2.016 1.216-2.016 1.504 0 1.664 4.32 2.304 4.32 6.176 0 3.072-1.952 5.024-4.544 5.024-3.136 0-4.736-1.952-4.736-1.952l0.864-2.784c0 0 1.664 1.408 3.040 1.408 0.928 0 1.28-0.704 1.28-1.248 0-2.176-3.552-2.24-3.552-5.824 0-2.976 2.144-5.92 6.496-5.92 1.664 0 2.496 0.48 2.496 0.48l-1.28 3.68zM17.28 2.080c0.928 0.096 1.504 1.152 1.92 2.368-0.448 0.16-0.992 0.288-1.536 0.48v-0.32c-0.032-1.056-0.16-1.888-0.384-2.528z"></path>
</svg>
