<!-- Generated by IcoMoon.io -->
<svg version="1.1" xmlns="http://www.w3.org/2000/svg" width="32" height="32" viewBox="0 0 32 32">
<title>slack</title>
<path d="M31.872 17.152c-0.512-1.504-2.112-2.304-3.584-1.824l-2.912 0.96c-0.64-1.952-1.312-4.032-1.952-5.984 0 0 0 0 0 0s0 0 0 0c1.728-0.576 2.88-0.928 2.88-0.928 1.504-0.512 2.304-2.112 1.824-3.584-0.512-1.504-2.112-2.304-3.584-1.824l-2.88 0.928c-0.576-1.728-0.928-2.848-0.928-2.848-0.512-1.504-2.112-2.304-3.584-1.824-1.504 0.416-2.304 2.016-1.856 3.52l0.928 2.848-5.984 1.952c-0.576-1.728-0.928-2.848-0.928-2.848-0.512-1.504-2.112-2.304-3.584-1.824-1.504 0.512-2.304 2.112-1.824 3.584l0.928 2.88-2.944 0.96c-1.408 0.448-2.208 1.984-1.76 3.424 0.448 1.536 2.048 2.432 3.52 1.952 0 0 1.184-0.384 2.944-0.96l1.952 6.016-2.976 0.96c-1.376 0.512-2.176 2.016-1.76 3.456 0.448 1.536 2.048 2.432 3.52 1.952 0 0 1.184-0.384 2.976-0.96v0c0 0 0 0 0 0l0.96 2.944c0.512 1.376 2.016 2.176 3.456 1.76 1.536-0.448 2.432-2.048 1.952-3.52 0 0-0.384-1.152-0.96-2.944 0 0 0 0 0 0s0 0 0-0.032c1.952-0.64 4.032-1.312 5.984-1.952l0.96 2.976c0.512 1.376 2.016 2.176 3.456 1.76 1.536-0.448 2.432-2.048 1.952-3.52 0 0-0.384-1.184-0.96-2.944 0 0 0.032 0 0.032 0s0 0 0 0c1.728-0.576 2.88-0.928 2.88-0.928 1.504-0.512 2.336-2.112 1.856-3.584zM13.952 19.968c-0.64-1.952-1.312-4.032-1.952-5.984 0 0 0 0 0 0s0 0 0 0c1.952-0.64 4.032-1.312 5.984-1.952l1.952 5.984-5.984 1.952z"></path>
</svg>
