<!-- Generated by IcoMoon.io -->
<svg version="1.1" xmlns="http://www.w3.org/2000/svg" width="32" height="32" viewBox="0 0 32 32">
<title>smashwords</title>
<path d="M20.896 0.096c0.192-0.064 0.384-0.128 0.576-0.096 0.224 0.064 0.288 0.288 0.288 0.48 0 0.448-0.352 0.768-0.416 1.184-0.16 0.704-0.288 1.376-0.48 2.080-0.096 0.32-0.544 0.384-0.736 0.16-0.224-0.256 0-0.608 0-0.928-0.096-0.64 0.096-1.248 0.128-1.888 0-0.416 0.224-0.864 0.64-0.992v0zM9.6 0.608c0.32-0.128 0.64 0.032 0.864 0.256 0.288 0.256 0.288 0.64 0.352 0.96 0.224 0.416 0.608 0.736 0.768 1.184 0.096 0.256 0.032 0.544-0.032 0.832-0.064 0.256-0.352 0.352-0.608 0.32-0.32-0.256-0.48-0.608-0.672-0.96-0.32-0.608-0.64-1.216-0.896-1.856-0.096-0.224-0.064-0.608 0.224-0.736v0zM28.448 5.696c0.352-0.288 0.736-0.576 1.184-0.672 0.48-0.128 0.672 0.672 0.288 0.896-0.544 0.48-1.216 0.832-1.792 1.28-0.224 0.128-0.448 0.384-0.736 0.384-0.256 0-0.48 0.16-0.704 0.288-0.096-0.064-0.16-0.128-0.256-0.192 0.224-0.224 0.448-0.448 0.64-0.704 0.064-0.128 0.192-0.192 0.32-0.288 0.352-0.288 0.64-0.704 1.056-0.992v0zM2.496 5.152c0.224-0.096 0.48-0.032 0.672 0.096 0.384 0.224 0.576 0.608 0.896 0.896 0.256 0.224 0.48 0.48 0.736 0.736 0.192 0.192 0.448 0.32 0.64 0.48 0.224 0.192 0.128 0.608-0.128 0.704s-0.48-0.096-0.704-0.16c-0.32-0.096-0.576-0.288-0.864-0.416-0.32-0.064-0.544-0.256-0.864-0.32-0.352-0.064-0.64-0.256-0.864-0.544-0.288-0.512-0.064-1.28 0.48-1.472v0zM27.456 9.888c-5.76-0.064-11.552-0.16-17.312-0.128-0.48-0.032-0.864 0.32-1.024 0.768-1.088-0.064-2.208-0.064-3.296-0.128 0 0.192 0.032 0.416 0.032 0.608-0.288 0-0.576-0.032-0.864 0.032-0.256 0.064-0.48 0.32-0.416 0.576 0.352 4.032 0.704 8.064 1.056 12.096 0.032 0.512 0.352 1.024 0.864 1.216 0.736 0.256 1.536 0.288 2.304 0.128 0.864-0.032 1.728-0.032 2.592-0.064 0.256 0.576 0.544 1.12 0.832 1.664 0.416 0.8 1.184 1.28 1.856 1.824 0.192 0.16 0.416 0.32 0.544 0.544 0.064 0.288 0.064 0.576 0 0.864-0.128 0.576-0.224 1.184-0.352 1.76 0.384 0.096 0.768 0.224 1.12 0.32 0.032-0.8 0.096-1.6 0.16-2.4 0-0.416 0-0.864-0.288-1.152-0.544-0.608-1.28-1.024-1.856-1.6-0.48-0.48-0.704-1.152-1.024-1.76 0.64-0.032 1.248-0.032 1.888 0-0.032 0.064-0.096 0.128-0.128 0.192 0.096 0.096 0.192 0.192 0.288 0.288 0.288-0.224 0.576-0.416 0.896-0.64s0.448-0.64 0.512-0.992c0.192-0.96 0.224-1.92 0.256-2.88 0.032-1.152-0.192-2.304-0.256-3.456 0-0.192 0-0.448 0.16-0.608 0.256-0.192 0.608-0.224 0.928-0.288 0.128 0.576 0.256 1.184 0.384 1.76 0.192 1.472 0.32 2.944 0.384 4.448 0.16 0 0.352 0 0.544-0.032 0.064-0.256 0.064-0.512 0.064-0.8-0.032-0.96-0.128-1.92-0.224-2.848-0.032-0.768-0.128-1.536-0.128-2.336 0-0.32-0.032-0.736 0.224-0.96 0.224-0.192 0.576-0.192 0.864-0.16 0.096 0.672 0.224 1.312 0.32 1.984 0.128 1.664 0.032 3.36 0 5.024 0.192 0 0.384 0 0.576 0 0.128-0.544 0.064-1.12 0.096-1.664 0-1.152 0.064-2.304-0.096-3.456-0.096-0.352-0.064-0.8 0.224-1.088 0.224-0.192 0.512-0.096 0.768-0.064 0.064 1.44 0.064 2.88 0.032 4.32 0 0.64-0.064 1.28-0.16 1.92 0.192 0.032 0.352 0.032 0.544 0.064 0.352-1.44 0.32-2.976 0.608-4.416 0.192-0.096 0.384-0.032 0.576-0.032 0 1.92-0.192 3.84-0.32 5.76-0.064 0.416-0.192 0.832-0.288 1.28-0.032 0.256-0.256 0.384-0.416 0.576-0.384 0.416-0.8 0.8-1.184 1.216-0.384 0.512-0.832 0.96-1.248 1.408 0.128 0.064 0.256 0.192 0.416 0.128-0.192 1.088-0.192 2.176-0.256 3.264 0.352-0.096 0.736-0.192 1.088-0.288-0.032-1.088-0.256-2.208 0.128-3.264 0.544-0.864 1.376-1.504 2.016-2.304 0.288-0.384 0.32-0.864 0.448-1.312 0.96 0 1.888-0.032 2.848-0.032 0.352 0 0.704-0.064 0.96-0.256 0.48-0.352 0.672-0.992 0.672-1.568 0.256-4.096 0.48-8.192 0.736-12.256 0.096-0.416-0.256-0.864-0.672-0.8zM8.576 22.784c-0.192 0.544-0.96 0.576-1.44 0.352-0.256-3.744-0.512-7.488-0.768-11.232 0.128 0 0.256 0 0.352 0 0.224 2.112 0.416 4.224 0.64 6.336 0.032 0.352 0.032 0.704 0.128 1.056 0.064-0.544 0-1.12 0-1.664 0-2.080-0.064-4.192-0.064-6.272 0.224 0 0.448 0.032 0.672 0.032 0.064 1.728 0.096 3.456 0.16 5.216 0 0.32 0 0.608 0.064 0.928 0.032-0.128 0.064-0.256 0.064-0.384 0.16-1.888 0.32-3.808 0.48-5.696 0.192 0 0.384 0 0.576 0.032-0.256 3.712-0.544 7.488-0.864 11.296z"></path>
</svg>
