<!-- Generated by IcoMoon.io -->
<svg version="1.1" xmlns="http://www.w3.org/2000/svg" width="32" height="32" viewBox="0 0 32 32">
<title>songkick</title>
<path d="M27.75 3.5c-2.188-1.563-4.563-2.688-7.625-3.188v14.5l4.375-6.063h4.75l-5.5 7.625c0 0 1.25 2 2 3.188 0.75 1.25 1.5 1.563 2.625 1.563 0.313 0 0.313 0 0.75 0v3.75h-1.125c-2.375 0-3.875-0.438-4.938-2.125-0.688-1.063-2.938-4.563-2.938-4.563v6.625h-3.938v-24.813c-0.063 0-0.125 0-0.188 0-5.125 0-8.688 1.25-11.75 3.5-4.438 3.375-4.25 7.75-4.25 12.5s-0.188 9.125 4.25 12.5c3.063 2.313 6.625 3.5 11.75 3.5s8.688-1.25 11.75-3.5c4.438-3.375 4.25-7.75 4.25-12.5s0.188-9.125-4.25-12.5zM8.75 25.063c-2.5 0-4.5-0.438-6.188-2.125l2.563-2.563c0.813 0.813 2.313 1.125 3.625 1.125 1.563 0 2.313-0.5 2.313-1.438 0-0.375-0.125-0.688-0.313-0.938-0.25-0.188-0.563-0.375-1.063-0.438l-2-0.25c-1.438-0.188-2.5-0.688-3.188-1.438-0.75-0.75-1.125-1.875-1.125-3.25 0-2.938 2.188-5.125 5.875-5.125 2.313 0 4.063 0.563 5.438 1.938l-2.5 2.5c-1-1-2.375-0.938-3.063-0.938-1.375 0-1.938 0.75-1.938 1.5 0 0.188 0.063 0.5 0.313 0.688 0.188 0.188 0.563 0.438 1.125 0.5l1.938 0.313c1.438 0.188 2.5 0.625 3.188 1.313 0.813 0.813 1.188 2.063 1.188 3.563 0.063 3.25-2.813 5.063-6.188 5.063z"></path>
</svg>
