<!-- Generated by IcoMoon.io -->
<svg version="1.1" xmlns="http://www.w3.org/2000/svg" width="32" height="32" viewBox="0 0 32 32">
<title>spreadshirt</title>
<path d="M10.446 2.805c1.851 1.852 3.711 3.711 5.585 5.586 1.855-1.875 3.702-3.741 5.54-5.598 3.486 3.487 6.963 6.963 10.429 10.43-5.318 5.318-10.647 10.647-15.984 15.984-5.336-5.316-10.682-10.642-16.016-15.956 3.484-3.484 6.961-6.961 10.446-10.445zM21.573 7.63c-1.838 1.857-3.685 3.724-5.561 5.619-1.878-1.879-3.744-3.744-5.612-5.613-1.836 1.855-3.676 3.716-5.49 5.549 3.729 3.729 7.446 7.445 11.157 11.157 3.693-3.693 7.405-7.405 11.108-11.108-1.862-1.862-3.729-3.729-5.604-5.604z"></path>
</svg>
