<!-- Generated by IcoMoon.io -->
<svg version="1.1" xmlns="http://www.w3.org/2000/svg" width="32" height="32" viewBox="0 0 32 32">
<title>squarespace</title>
<path d="M20.16 10.016c0.416-0.416 0.416-1.12 0-1.536s-1.12-0.416-1.536 0l-10.144 10.144c-1.44 1.44-3.776 1.44-5.216 0s-1.44-3.776 0-5.216l8.16-8.16c0.416-0.416 0.416-1.12 0-1.536s-1.12-0.416-1.536 0l-8.16 8.128c-2.272 2.272-2.272 6.016 0 8.288s6.016 2.272 8.288 0l10.144-10.112zM5.088 16.768c0.416 0.416 1.12 0.416 1.536 0l10.144-10.144c1.44-1.44 3.776-1.44 5.216 0 0.416 0.416 1.12 0.416 1.536 0s0.416-1.12 0-1.536c-2.272-2.272-6.016-2.272-8.288 0l-10.144 10.144c-0.416 0.416-0.416 1.12 0 1.536zM26.912 15.232c-0.416-0.416-1.12-0.416-1.536 0l-10.144 10.144c-1.44 1.44-3.776 1.44-5.216 0-0.416-0.416-1.12-0.416-1.536 0s-0.416 1.12 0 1.536c2.272 2.272 6.016 2.272 8.288 0l10.144-10.144c0.416-0.416 0.416-1.12 0-1.536zM21.984 11.84l-10.144 10.144c-0.416 0.416-0.416 1.12 0 1.536s1.12 0.416 1.536 0l10.144-10.144c1.44-1.44 3.776-1.44 5.216 0s1.44 3.776 0 5.216l-8.128 8.16c-0.416 0.416-0.416 1.12 0 1.536s1.12 0.416 1.536 0l8.128-8.128c2.272-2.272 2.272-6.016 0-8.288-2.272-2.304-5.984-2.304-8.288-0.032z"></path>
</svg>
