<!-- Generated by IcoMoon.io -->
<svg version="1.1" xmlns="http://www.w3.org/2000/svg" width="32" height="32" viewBox="0 0 32 32">
<title>starcraft</title>
<path d="M9.563 24.25c-0.063 1.625-0.063-0.188-0.063 0.25v0.063c0.625 1.75 2.813 4.438 5.5 5.938 0.063 0 0.063 0.063 0.125 0.063 0 0 0.063 0 0.063-0.063 0.063 0 0.125-0.063 0.125-0.125 0-1.125 0-1.563 0-6.063-0.313 0.188-5.75-0.063-5.75-0.063zM16.688 23.563c0 5.875 0 5.438 0 6.813 0 0.063 0 0.125 0.063 0.125s0.063 0.063 0.125 0.063c0 0 0.063 0 0.063-0.063 2.75-1.5 4.813-3.875 5.438-5.625 0 0-2.063 0.125-4.75-2.375-0.5 0.875-0.563 0.813-0.938 1.063zM15.188 3.563l-5.313-2.063h-0.125l-5.5 1c-0.063 0-0.125 0.063-0.125 0.125 0 0.125 0 0.188 0.063 0.188 0 0 0.875 0.375 1.875 0.875 1 0.563 2.125 1.313 2.5 2 0.188 0.313 0.063 0 0.188 0.5l6.5-0.063c0-2 0-2.438 0-2.438 0-0.063 0-0.125-0.063-0.125zM27.813 2.5l-5.5-1h-0.125l-5.438 2.063c-0.063 0-0.063 0.063-0.063 0.125 0 0 0 2.5 0 2.75l0.688 0.813c0.188-0.188 0.688-1.188 1.813-1.188 1.063 0 2.375 0 4.125 0 1.188-1.688 4.563-3.188 4.563-3.188 0.063-0.063 0.063-0.125 0.063-0.188 0-0.125-0.063-0.188-0.125-0.188zM2.438 10.25h8.875l1.188 1.125c0 0 0.063 0 0.125 0 0 0 0.063 0 0.125-0.063l3.063-3.438c0.063-0.063 0.063-0.125 0.063-0.188-0.063-0.063-0.125-0.063-0.188-0.063 0 0-11.063 0-11.438 0-0.5 0-0.938 0.063-1.313 0.375-0.438 0.313-0.625 0.813-0.625 1.688 0 0.375 0 0.375 0 0.375 0 0.063 0.063 0.188 0.125 0.188zM31.813 7.75h-12.75l-2.25 2.188c-0.063 0.063-0.063 0.125-0.063 0.188 0.063 0.063 0.125 0.125 0.188 0.125h10.125l0.5 0.688c0.063 0.063 0.125 0.063 0.125 0.063 0.063 0 0.063 0 0.125 0l4.125-2.938c0.063-0.063 0.125-0.188 0.063-0.25s-0.125-0.063-0.188-0.063zM27.625 21.188c-0.313 0.063-0.688 0.063-1.063 0.063-2.75 0-5.375-2.188-5.625-5.375-0.063-0.625-0.063-0.563-0.063-1.063 0-1.375 0.125-2.438 0.188-3 0-0.063 0-0.125 0-0.125-0.063-0.063-0.063-0.063-0.125-0.063h-4.5c-0.063 0-0.125 0-0.125 0.125-0.25 0.625-0.625 1.875-0.625 3.563 0 1 0.125 1.438 0.5 2.625 0.875 2.688 4.125 5.25 6.688 5.25 3.938 0 4.875-1.375 4.875-1.813 0-0.063 0-0.125-0.063-0.125 0-0.063 0-0.125-0.063-0.063zM8.688 11.688l-0.125-0.063h-5.125c-0.063 0-0.125 0.063-0.188 0.125 0 0.063 0 0.125 0.063 0.188 0 0 6.875 7.938 7.063 8.188 0 0.063 0 0.063 0 0.063s-0.063 0.063-0.063 0.063c-0.125 0-2.813 0-4.063 0-0.75 0-1.313-0.313-1.625-0.563s-0.438-0.5-0.438-0.5c-0.063-0.063-0.063-0.063-0.125-0.125-0.125 0-0.125 0-0.188 0.063l-3.75 3.5c-0.125 0.125-0.125 0.188-0.125 0.25 0.063 0.063 0.125 0.063 0.188 0.063 0 0 13.188 0 14.188 0 0.813 0 1.375-0.875 1.375-1.75 0-0.313-0.125-0.625-0.313-0.875-0.5-0.688-6.75-8.563-6.75-8.625zM12.063 13.188c0.125 0.063 0.188 0.063 0.313 0.063h0.063c0.5-0.063 0.938-0.25 1.313-0.625l0.375-0.438c-0.25 0.938-0.375 2-0.375 3.063 0 0.063 0 0.125 0 0.188-0.563-0.688-1.125-1.5-1.688-2.25z"></path>
</svg>
