<!-- Generated by IcoMoon.io -->
<svg version="1.1" xmlns="http://www.w3.org/2000/svg" width="32" height="32" viewBox="0 0 32 32">
<title>toneden</title>
<path d="M31.904 17.888c-0.096-0.864-0.256-1.728-0.48-2.56-0.608-2.080-1.568-3.968-2.912-5.632-0.768-0.96-1.632-1.824-2.624-2.592-1.216-0.96-2.56-1.696-3.968-2.304-1.888-0.768-3.872-1.12-6.112-1.12-0.64 0-1.472 0.064-2.304 0.192-1.6 0.224-3.104 0.736-4.544 1.44-2.816 1.408-5.056 3.456-6.688 6.144-1.28 2.144-2.048 4.48-2.208 7.008-0.096 1.28-0.032 2.592 0.16 3.872 0.192 1.184 0.544 2.336 0.992 3.424 0.192 0.48 0.416 0.96 0.672 1.44 0.128 0.224 0.256 0.416 0.416 0.576 0.64 0.576 1.376 0.672 2.176 0.512 0.704-0.16 1.248-0.576 1.6-1.184 0.32-0.576 0.384-1.184 0.16-1.824-0.096-0.288-0.256-0.576-0.384-0.864-0.576-1.28-0.896-2.592-0.992-3.968-0.064-0.96 0-1.92 0.16-2.848 0.288-1.536 0.896-2.944 1.792-4.224 0.8-1.152 1.76-2.112 2.912-2.912 1.568-1.088 3.296-1.696 5.184-1.888 0.96-0.096 1.888-0.064 2.848 0.064 0.928 0.128 1.824 0.384 2.688 0.768 1.728 0.736 3.136 1.856 4.32 3.296 0.672 0.832 1.216 1.728 1.664 2.72 0.48 1.088 0.736 2.24 0.832 3.456 0.064 0.896 0.032 1.792-0.128 2.688-0.16 0.928-0.416 1.824-0.8 2.656-0.128 0.256-0.192 0.544-0.352 0.768-0.224 0.384-0.288 0.8-0.224 1.216 0.16 0.896 0.672 1.536 1.504 1.888 0.672 0.256 1.344 0.192 2.016-0.096 0.384-0.192 0.64-0.512 0.896-0.832 0.064-0.096 0.096-0.192 0.128-0.32 0.864-1.76 1.408-3.584 1.6-5.536 0.128-1.184 0.128-2.304 0-3.424zM16.192 18.976c-2.208 0-4 1.792-4.032 3.968 0 2.176 1.792 4 4 3.968 2.112 0.032 3.968-1.76 3.968-3.936 0.032-2.208-1.792-4-3.936-4z"></path>
</svg>
