<!-- Generated by IcoMoon.io -->
<svg version="1.1" xmlns="http://www.w3.org/2000/svg" width="32" height="32" viewBox="0 0 32 32">
<title>trello</title>
<path d="M28 0h-24c-2.209 0-4 1.791-4 4v24c0 2.209 1.791 4 4 4h24c2.209 0 4-1.791 4-4v-24c0-2.209-1.791-4-4-4zM13.919 24.241c0 1.059-0.859 1.919-1.919 1.919h-5.922c-1.059 0-1.919-0.859-1.919-1.919v-18.163c0-1.059 0.859-1.919 1.919-1.919h5.922c1.059 0 1.919 0.859 1.919 1.919v18.163zM27.841 16.238c0 1.063-0.859 1.922-1.919 1.922h-5.922c-1.059 0-1.919-0.859-1.919-1.922v-10.156c0-1.063 0.859-1.922 1.919-1.922h5.922c1.059 0 1.919 0.859 1.919 1.922v10.156z"></path>
</svg>
