<!-- Generated by IcoMoon.io -->
<svg version="1.1" xmlns="http://www.w3.org/2000/svg" width="32" height="32" viewBox="0 0 32 32">
<title>uber</title>
<path d="M5 12.813v3.688c0 1.25-0.5 1.75-1.813 1.75-1.25 0-1.813-0.5-1.813-1.75v-3.813h-1.188c-0.125 0-0.188 0.063-0.188 0.125v3.75c0 2.063 1.313 2.813 3.188 2.813s3.188-0.75 3.188-2.813v-3.875h-1.188c-0.125 0-0.188 0-0.188 0.125zM22.875 13.75c0.063 0 0.125-0.063 0.188-0.125l0.313-0.875c0.063-0.063 0-0.125-0.063-0.125h-4.938c-0.438 0-0.625 0.125-0.625 0.438v5.75c0 0.25 0.125 0.375 0.5 0.375h4.625c0.063 0 0.125 0 0.188-0.063l0.313-0.938c0.063-0.063 0-0.063-0.063-0.063h-4.188v-1.188c0-0.375 0.188-0.563 0.813-0.563h1.813c0.125 0 0.188 0 0.188-0.063l0.375-0.875c0-0.063 0-0.063-0.063-0.063h-3.125v-1.625zM14.125 15.75c0.563-0.25 0.813-0.75 0.813-1.438 0-1.438-1.188-1.625-2.438-1.625h-2.75c-0.5 0-0.688 0.125-0.688 0.438v5.75c0 0.25 0.125 0.375 0.5 0.375h3.438c1.313 0 2.25-0.5 2.25-1.813 0-0.813-0.375-1.5-1.125-1.688zM10.438 13.75h2.188c0.75 0 0.938 0.25 0.938 0.813s-0.188 0.813-0.938 0.813h-2.188zM12.875 18.188h-2.438v-1.25c0-0.375 0.188-0.563 0.813-0.563h1.625c0.75 0 1 0.313 1 0.875 0 0.625-0.25 0.938-1 0.938zM32 19.125l-1.5-2.563c0.75-0.188 1.313-0.688 1.313-1.875 0-1.625-0.938-2-2.625-2h-2.813c-0.438 0-0.625 0.125-0.625 0.438v5.938c0 0.125 0.063 0.188 0.188 0.188h1.188v-1.938c0-0.438 0.25-0.563 0.813-0.563h1.25l1.313 2.375c0.063 0.063 0.125 0.125 0.25 0.125h1.188c0.063 0 0.063-0.125 0.063-0.125zM29.438 15.688h-2.313v-1.938h2.313c0.813 0 1 0.313 1 1 0 0.625-0.188 0.938-1 0.938z"></path>
</svg>
