<!-- Generated by IcoMoon.io -->
<svg version="1.1" xmlns="http://www.w3.org/2000/svg" width="32" height="32" viewBox="0 0 32 32">
<title>ubuntu</title>
<path d="M16 0c-8.832 0-16 7.168-16 16s7.168 16 16 16 16-7.168 16-16-7.168-16-16-16zM19.392 6.016c0.576-0.992 1.824-1.344 2.816-0.768s1.344 1.824 0.768 2.816c-0.576 0.96-1.856 1.312-2.816 0.768-0.992-0.576-1.344-1.824-0.768-2.816zM5.632 18.048c-1.152 0-2.048-0.928-2.048-2.048 0-1.152 0.928-2.048 2.048-2.048 1.152 0 2.048 0.896 2.048 2.048s-0.928 2.048-2.048 2.048zM7.456 18.24c0.672-0.512 1.088-1.312 1.088-2.24 0-0.896-0.416-1.696-1.088-2.24 0.544-2.144 1.888-3.936 3.648-5.12l1.536 2.56c-1.504 1.056-2.496 2.816-2.496 4.8s0.96 3.744 2.496 4.8l-1.536 2.56c-1.76-1.184-3.104-2.976-3.648-5.12zM22.208 26.784c-0.992 0.544-2.24 0.224-2.816-0.768s-0.224-2.24 0.768-2.816c0.96-0.576 2.24-0.224 2.816 0.768 0.544 0.992 0.224 2.24-0.768 2.816zM22.24 22.272c-0.8-0.32-1.696-0.256-2.496 0.192s-1.28 1.216-1.408 2.048c-0.768 0.224-1.536 0.32-2.336 0.32-1.376 0-2.72-0.352-3.904-0.928l1.44-2.592c0.736 0.352 1.568 0.544 2.464 0.544 3.072 0 5.568-2.336 5.856-5.312l2.976 0.032c-0.128 2.208-1.12 4.224-2.592 5.696zM21.856 15.488c-0.288-3.008-2.784-5.344-5.856-5.344-0.896 0-1.728 0.192-2.464 0.576l-1.44-2.592c1.152-0.608 2.496-0.928 3.904-0.928 0.832 0 1.6 0.128 2.336 0.32 0.128 0.832 0.608 1.6 1.408 2.048s1.696 0.512 2.496 0.192c1.472 1.472 2.464 3.456 2.592 5.696l-2.976 0.032z"></path>
</svg>
