<!-- Generated by IcoMoon.io -->
<svg version="1.1" xmlns="http://www.w3.org/2000/svg" width="32" height="32" viewBox="0 0 32 32">
<title>udemy</title>
<path d="M29.856 1.28c0-0.704-0.608-1.28-1.344-1.28-0.064 0-0.096 0-0.16 0-1.792 0.192-3.040 0.704-3.936 1.696-0.48 0.512-0.8 1.152-1.056 1.856-0.224 0.736-0.384 1.664-0.384 2.688v12.672c0 1.184-0.128 2.176-0.416 3.008s-0.672 1.504-1.248 2.016c-0.576 0.544-1.28 0.896-2.144 1.152s-1.92 0.384-3.2 0.384-2.336-0.128-3.2-0.384c-0.896-0.256-1.6-0.608-2.144-1.152-0.576-0.544-0.96-1.184-1.248-2.016s-0.416-1.792-0.416-3.008v-17.6c0-0.672-0.608-1.28-1.344-1.28-0.064 0-0.096 0-0.16 0-1.792 0.192-3.040 0.704-3.936 1.696-0.416 0.48-0.768 1.152-1.024 1.856-0.224 0.736-0.384 1.664-0.384 2.688v12.864c0.032 3.872 0.896 6.784 2.688 8.864 2.304 2.688 5.952 4 11.2 4 5.28 0 8.896-1.312 11.232-4 1.792-2.080 2.656-4.992 2.656-8.896v-17.824h-0.032z"></path>
</svg>
