<!-- Generated by IcoMoon.io -->
<svg version="1.1" xmlns="http://www.w3.org/2000/svg" width="32" height="32" viewBox="0 0 32 32">
<title>upwork</title>
<path d="M24.736 6.688c-3.392 0-6.016 2.208-7.072 5.824-1.632-2.432-2.88-5.376-3.584-7.872h-3.648v9.472c0 1.856-1.536 3.392-3.392 3.392s-3.392-1.536-3.392-3.392v-9.44h-3.648v9.472c0 3.872 3.168 7.072 7.040 7.072s7.040-3.2 7.040-7.072v-1.6c0.704 1.472 1.568 2.976 2.624 4.288l-2.24 10.496h3.744l1.632-7.584c1.408 0.896 3.040 1.472 4.928 1.472 4 0 7.264-3.264 7.264-7.264-0.032-4-3.296-7.264-7.296-7.264zM24.736 17.536c-1.472 0-2.848-0.608-4.096-1.632l0.32-1.44v-0.064c0.288-1.536 1.12-4.064 3.776-4.064 1.984 0 3.616 1.632 3.616 3.616s-1.6 3.584-3.616 3.584z"></path>
</svg>
