<!-- Generated by IcoMoon.io -->
<svg version="1.1" xmlns="http://www.w3.org/2000/svg" width="32" height="32" viewBox="0 0 32 32">
<title>viewbug</title>
<path d="M28.375 12.75c0 0 3-1.5 2-5.813-0.938-4.813-6.75-3.875-6.75-3.875l-11.813 2.063-2.313 16.75-7.813-14.875-1.688 0.25c-0.063 0 0 7 0 7l7.875 14.75 5.625-1 1-7.625 1.188 7.188c0 0 9.438-1.625 12.438-2.188 2.875-1 3.875-2.375 3.875-2.375s0-5.5 0-8.375c-1-1.5-3.625-1.875-3.625-1.875zM17.438 8.125c0-0.063 4.563-0.875 4.563-0.875s3.625-0.875 3.875 2.063c0.625 2.938-3.125 3.188-3.125 3.188l-4.438 0.875zM25.188 21.938l-5.188 0.938-1.063-6.125c-0.063 0 5.188-0.938 5.188-0.938s3.688-1 4.25 2.375c0.813 3.438-3.188 3.75-3.188 3.75z"></path>
</svg>
