<!-- Generated by IcoMoon.io -->
<svg version="1.1" xmlns="http://www.w3.org/2000/svg" width="32" height="32" viewBox="0 0 32 32">
<title>vsco</title>
<path d="M16 0c-8.832 0-16 7.168-16 16s7.168 16 16 16c8.832 0 16-7.168 16-16s-7.168-16-16-16v0zM25.024 22.272l-2.368-1.824c0.576-0.864 0.992-1.856 1.216-2.944l2.976 0.384c-0.32 1.632-0.928 3.104-1.824 4.384v0zM16 27.008c-0.32 0-0.64-0.032-0.928-0.032l0.384-2.976c0.192 0 0.352 0.032 0.544 0.032 0.896 0 1.792-0.16 2.592-0.448l1.152 2.784c-1.184 0.384-2.432 0.64-3.744 0.64v0zM9.696 24.992l1.824-2.368c0.864 0.576 1.856 0.992 2.944 1.216l-0.384 2.976c-1.6-0.288-3.104-0.896-4.384-1.824v0zM16 23.008c-3.872 0-7.008-3.136-7.008-7.008s3.136-7.008 7.008-7.008c3.872 0 7.008 3.136 7.008 7.008s-3.136 7.008-7.008 7.008v0zM7.008 9.696l2.368 1.824c-0.576 0.864-0.992 1.856-1.216 2.912l-2.976-0.384c0.288-1.6 0.928-3.072 1.824-4.352v0zM4.992 16c0-0.32 0.032-0.64 0.064-0.96l2.976 0.384c0 0.192-0.032 0.384-0.032 0.576 0 0.896 0.16 1.76 0.416 2.56l-2.784 1.152c-0.384-1.152-0.64-2.4-0.64-3.712v0zM16 4.992c0.32 0 0.64 0.032 0.928 0.032l-0.384 2.976c-0.192 0-0.352 0-0.544 0-0.896 0-1.76 0.16-2.592 0.448l-1.152-2.784c1.184-0.416 2.432-0.672 3.744-0.672v0zM22.272 6.976l-1.824 2.368c-0.864-0.576-1.856-0.992-2.912-1.216l0.384-2.976c1.6 0.32 3.072 0.928 4.352 1.824v0zM27.008 16c0 0.32-0.032 0.608-0.032 0.928l-2.976-0.384c0-0.16 0.032-0.352 0.032-0.512 0-0.928-0.16-1.792-0.448-2.592l2.784-1.152c0.384 1.12 0.64 2.4 0.64 3.712v0zM27.232 11.84c-0.32-0.864-0.736-1.696-1.248-2.464l2.432-1.76c0.704 1.024 1.248 2.112 1.664 3.296l-2.848 0.928zM25.952 11.328l-2.784 1.152c-0.48-0.96-1.12-1.792-1.92-2.496l1.824-2.368c1.216 0.992 2.176 2.272 2.88 3.712v0zM22.656 6.016c-0.768-0.512-1.6-0.928-2.464-1.248l0.928-2.848c1.184 0.416 2.272 0.992 3.296 1.664l-1.76 2.432zM19.232 4.448c-0.864-0.256-1.792-0.384-2.72-0.416v-3.008c1.28 0.032 2.496 0.224 3.648 0.576l-0.928 2.848zM15.488 4.032c-0.928 0.032-1.856 0.192-2.72 0.416l-0.928-2.848c1.152-0.352 2.4-0.544 3.648-0.576v3.008zM11.808 4.768c-0.864 0.32-1.696 0.736-2.464 1.248l-1.76-2.432c1.024-0.672 2.144-1.248 3.296-1.664l0.928 2.848zM11.36 6.048l1.152 2.784c-0.96 0.48-1.824 1.12-2.496 1.92l-2.368-1.824c0.96-1.216 2.24-2.208 3.712-2.88v0zM6.016 9.376c-0.512 0.768-0.928 1.6-1.248 2.464l-2.848-0.928c0.416-1.184 0.96-2.272 1.664-3.296l2.432 1.76zM4.448 12.8c-0.256 0.864-0.384 1.792-0.416 2.72h-3.008c0.032-1.248 0.224-2.496 0.576-3.648l2.848 0.928zM4.032 16.512c0.032 0.928 0.192 1.856 0.416 2.72l-2.848 0.928c-0.352-1.152-0.544-2.4-0.576-3.648h3.008zM4.768 20.192c0.32 0.864 0.736 1.696 1.248 2.464l-2.432 1.76c-0.672-1.024-1.248-2.112-1.664-3.296l2.848-0.928zM6.048 20.64l2.784-1.152c0.48 0.96 1.12 1.824 1.92 2.528l-1.824 2.368c-1.216-1.024-2.208-2.304-2.88-3.744v0zM9.376 25.984c0.768 0.512 1.6 0.928 2.464 1.248l-0.928 2.848c-1.184-0.416-2.272-0.992-3.296-1.664l1.76-2.432zM12.768 27.552c0.864 0.256 1.792 0.384 2.72 0.416v3.008c-1.248-0.032-2.496-0.224-3.648-0.576l0.928-2.848zM16.512 27.968c0.928-0.032 1.856-0.192 2.72-0.416l0.928 2.848c-1.152 0.32-2.4 0.544-3.648 0.576v-3.008zM20.16 27.232c0.864-0.32 1.696-0.736 2.464-1.248l1.76 2.432c-1.024 0.704-2.112 1.248-3.296 1.664l-0.928-2.848zM20.672 25.952l-1.152-2.784c0.96-0.48 1.824-1.12 2.528-1.92l2.368 1.824c-1.024 1.216-2.304 2.176-3.744 2.88v0zM25.984 22.656c0.512-0.768 0.928-1.6 1.248-2.464l2.848 0.928c-0.416 1.184-0.992 2.272-1.664 3.296l-2.432-1.76zM27.552 19.232c0.256-0.864 0.384-1.792 0.416-2.72h3.008c-0.032 1.248-0.224 2.496-0.576 3.648l-2.848-0.928zM27.968 15.52c-0.032-0.928-0.192-1.856-0.416-2.72l2.848-0.928c0.32 1.152 0.544 2.4 0.576 3.648h-3.008zM27.84 6.816l-2.432 1.76c-0.576-0.736-1.216-1.376-1.952-1.952l1.76-2.432c0.96 0.768 1.856 1.632 2.624 2.624v0zM6.784 4.192l1.76 2.432c-0.736 0.576-1.376 1.216-1.952 1.952l-2.432-1.76c0.768-0.992 1.664-1.856 2.624-2.624v0zM4.192 25.216l2.432-1.76c0.576 0.736 1.216 1.376 1.952 1.952l-1.76 2.432c-0.992-0.768-1.856-1.664-2.624-2.624v0zM25.184 27.808l-1.76-2.432c0.736-0.576 1.376-1.216 1.952-1.952l2.432 1.76c-0.768 0.992-1.632 1.888-2.624 2.624v0z"></path>
</svg>
