<!-- Generated by IcoMoon.io -->
<svg version="1.1" xmlns="http://www.w3.org/2000/svg" width="32" height="32" viewBox="0 0 32 32">
<title>warcraft</title>
<path d="M16 2.813c7.313 0 13.188 5.875 13.188 13.188s-5.875 13.188-13.188 13.188c-7.313 0-13.188-5.875-13.188-13.188s5.875-13.188 13.188-13.188M16 0c-8.813 0-16 7.188-16 16s7.188 16 16 16c8.813 0 16-7.188 16-16s-7.188-16-16-16zM29.188 8.875v-5.813c0-0.063-0.063-0.125-0.063-0.188-0.063 0-0.125-0.063-0.188-0.063h-5.875c0.375 2.063 4.25 5.625 6.125 6.063zM2.875 23.125v5.875c0 0.063 0 0.125 0.063 0.125 0 0.063 0.063 0.063 0.125 0.063h5.875c-0.313-2.063-4.188-5.563-6.063-6.063zM23.063 29.125h5.875c0.063 0 0.125 0 0.188-0.063 0 0 0.063-0.063 0.063-0.125v-5.875c-2.125 0.313-5.625 4.188-6.125 6.063zM8.938 2.813h-5.875c-0.063 0-0.125 0-0.125 0.063-0.063 0.063-0.063 0.063-0.063 0.125v5.875c2.063-0.313 5.563-4.188 6.063-6.063zM7.438 9.063h4.938c0 0-0.25 1.125-0.188 1.688 0.25 2.125 1.625 8.125 1.625 8.125l2.313-9.375 2.375 9.188c0 0 1.375-8.063 1.375-8.625 0-0.5-0.5-1.063-0.5-1.063h5.125c0 0-1.063 1-1.438 2.375-0.5 1.75-2.063 10.688-2.063 11.25 0 0.938 0.625 1.625 0.625 1.625h-4.813c0 0 0.125-0.5 0.125-1.313s-0.75-4.75-0.75-4.75c0 0-0.938 4.063-0.938 4.813 0 0.688 0.313 1.25 0.313 1.25h-5c0 0 0.938-0.688 0.938-1.313-0.125-1.875-2.688-11.375-2.875-12.125-0.313-1.25-1.188-1.75-1.188-1.75z"></path>
</svg>
