<!-- Generated by IcoMoon.io -->
<svg version="1.1" xmlns="http://www.w3.org/2000/svg" width="32" height="32" viewBox="0 0 32 32">
<title>zillow</title>
<path d="M17.44 3.232c-1.76 0.832-6.88 4.8-9.632 6.88 3.36-1.12 11.424-2.912 15.552-3.008-1.312-0.928-4.928-3.392-5.92-3.872zM1.344 28.768c1.152-0.512 11.904-4.096 21.824-4.672 0.224-0.832 1.312-3.648 1.504-4.384-10.272 0.704-18.624 3.776-21.984 5.312l-1.344 3.744zM24.096 7.648c0 0-9.984 10.048-11.552 11.488 3.040-1.088 9.28-2.4 13.216-2.656 0.448-1.408 0.96-2.432 0.96-2.432l5.28-0.544c0 0.032-4.032-3.232-7.904-5.856zM3.072 23.968c3.136-3.264 14.496-13.728 14.496-13.728-5.888 1.376-12.064 3.232-14.24 4.256l-3.328 3.392c2.752-0.576 3.648-0.704 5.664-0.992l-2.592 7.072z"></path>
</svg>
