<!-- Generated by IcoMoon.io -->
<svg version="1.1" xmlns="http://www.w3.org/2000/svg" width="32" height="32" viewBox="0 0 32 32">
<title>zoom</title>
<path d="M9.568 7.136c-2.784 0-5.568 0-8.32 0-0.864 0-1.216 0.32-1.216 1.216 0 3.68-0.032 7.328 0 11.008 0.032 3.328 2.336 5.536 5.664 5.536 5.344 0 10.688 0 16.064 0 1.088 0 1.376-0.256 1.376-1.312 0-3.584 0-7.136 0-10.72 0-3.456-2.24-5.696-5.696-5.696-2.656-0.064-5.248-0.032-7.872-0.032zM32 16.032c0 0 0 0 0 0 0-2.56 0-5.152 0-7.712 0-0.384-0.032-0.768-0.416-0.96-0.416-0.224-0.704 0.096-0.992 0.288-0.032 0.032-0.096 0.064-0.128 0.096-2.016 1.632-4 3.296-6.016 4.928-0.288 0.256-0.448 0.512-0.416 0.896 0 1.696 0 3.392 0 5.12 0 0.384 0.128 0.608 0.416 0.832 1.248 0.96 2.464 1.952 3.68 2.944 0.864 0.704 1.728 1.408 2.624 2.048 0.672 0.48 1.184 0.224 1.248-0.608 0-0.192 0-0.384 0-0.544 0-2.464 0-4.896 0-7.328z"></path>
</svg>
