<svg xmlns="http://www.w3.org/2000/svg" viewBox="0 0 24 24"><path d="M12 0C5.4 0 0 5.4 0 12s5.4 12 12 12 12-5.4 12-12S18.6 0 12 0zm0 22c-1.2 0-2.6-1.9-3.3-4.8 2.2-.3 4.5-.3 6.7 0-.8 2.9-2.2 4.8-3.4 4.8zm0-20c1.2 0 2.6 1.9 3.3 4.8-2.1.2-4.4.2-6.6 0C9.4 3.9 10.8 2 12 2zM8 12c0-1.2.1-2.3.2-3.3 1.3.2 2.5.3 3.8.3 1.3 0 2.5-.1 3.8-.3.2 1 .2 2.1.2 3.3 0 1.2-.1 2.3-.2 3.3-2.5-.3-5.1-.3-7.5 0-.2-1-.3-2.1-.3-3.3zm9.7-3.6c1.1-.2 2.1-.5 3.2-.9.7 1.4 1.1 2.9 1.1 4.5s-.4 3.1-1.1 4.5c-1.1-.4-2.1-.6-3.2-.9.2-1.1.3-2.3.3-3.6 0-1.3-.1-2.5-.3-3.6zm2.1-2.6c-.8.3-1.6.5-2.5.6-.3-1.4-.8-2.6-1.4-3.6 1.6.7 2.9 1.7 3.9 3zm-11.7-3C7.5 3.8 7 5 6.6 6.4c-.8-.1-1.6-.3-2.4-.6 1-1.3 2.3-2.3 3.9-3zm-5 4.7c1.1.4 2.1.6 3.2.9C6.1 9.5 6 10.7 6 12s.1 2.5.3 3.6c-1.1.2-2.1.5-3.2.9C2.4 15.1 2 13.6 2 12s.4-3.1 1.1-4.5zm1.1 10.7c.8-.3 1.6-.5 2.5-.6.3 1.4.8 2.6 1.4 3.6-1.6-.7-2.9-1.7-3.9-3zm11.7 3c.6-1 1.1-2.2 1.4-3.6.8.2 1.7.4 2.5.6-1 1.3-2.3 2.3-3.9 3z"/></svg>