<?xml version="1.0" encoding="utf-8"?>
<svg version="1.1" xmlns="http://www.w3.org/2000/svg" xmlns:xlink="http://www.w3.org/1999/xlink" x="0px" y="0px"
	 viewBox="0 0 256 256" style="enable-background:new 0 0 256 256;" xml:space="preserve">
<style type="text/css">
	.st0{fill:none;stroke:#777D74;stroke-width:16;stroke-miterlimit:10;}
</style>
<path class="st0" d="M242.92,128c0-1.16-2.34-2.26-6.64-3.29c-51.87-12.42-92.56-53.12-104.98-104.98c-1.03-4.3-2.14-6.64-3.29-6.64
	s-2.26,2.34-3.29,6.64c-12.42,51.87-53.12,92.56-104.98,104.98c-4.3,1.03-6.64,2.14-6.64,3.29s2.34,2.26,6.64,3.29
	c51.87,12.42,92.56,53.12,104.98,104.98c1.03,4.3,2.14,6.64,3.29,6.64s2.26-2.34,3.29-6.64c12.42-51.87,53.12-92.56,104.98-104.98
	C240.58,130.26,242.92,129.16,242.92,128z"/>
<path class="st0" d="M276.11,41.71"/>
<path class="st0" d="M204.89,41.71"/>
<line class="st0" x1="218" y1="11.08" x2="218" y2="64.3"/>
<line class="st0" x1="244.61" y1="37.69" x2="191.39" y2="37.69"/>

</svg>
