<svg xmlns="http://www.w3.org/2000/svg" viewBox="0 0 24 24"><path d="M12 0C5.4 0 0 5.4 0 12c0 1.6.3 2.8.8 3.6.5.9 1.3 1.4 2.2 1.4 1.6 0 3-1.4 3-3 0-1.1.9-2 2-2s2 .9 2 2-.9 2-2 2c-1.6 0-3 1.6-3 3.4 0 1.3.6 2.4 1.7 3.2 1.2.9 3 1.4 5.3 1.4 6.6 0 12-5.4 12-12S18.6 0 12 0zm0 22c-2.3 0-3.5-.5-4.1-1-.8-.5-.9-1.1-.9-1.6 0-.7.5-1.4 1-1.4 2.2 0 4-1.8 4-4s-1.8-4-4-4-4 1.8-4 4c0 .5-.5 1-1 1-.1 0-.3 0-.5-.4S2 13.5 2 12C2 6.5 6.5 2 12 2s10 4.5 10 10-4.5 10-10 10zm5-3.5c0 .8-.7 1.5-1.5 1.5s-1.5-.7-1.5-1.5.7-1.5 1.5-1.5 1.5.7 1.5 1.5zm-5-14c0 .8-.7 1.5-1.5 1.5S9 5.3 9 4.5 9.7 3 10.5 3s1.5.7 1.5 1.5zm2 1c0-.8.7-1.5 1.5-1.5s1.5.7 1.5 1.5S16.3 7 15.5 7 14 6.3 14 5.5zm3 4c0-.8.7-1.5 1.5-1.5s1.5.7 1.5 1.5-.7 1.5-1.5 1.5-1.5-.7-1.5-1.5zm3 5c0 .8-.7 1.5-1.5 1.5s-1.5-.7-1.5-1.5.7-1.5 1.5-1.5 1.5.7 1.5 1.5z"/></svg>