<svg xmlns="http://www.w3.org/2000/svg" viewBox="0 0 24 24"><path d="M13 2h-2V0h2v2zM1 12h2v-2H1v2zm20-2v2h2v-2h-2zM6.3 3.9L4.9 2.5 3.5 3.9l1.4 1.4 1.4-1.4zm11.4 14.2l1.4 1.4 1.4-1.4-1.4-1.4-1.4 1.4zm-14.2 0l1.4 1.4 1.4-1.4-1.4-1.4-1.4 1.4zM17.7 3.9l1.4 1.4 1.4-1.4-1.4-1.4-1.4 1.4zM19 11c0 2.3-1.1 4.4-3 5.7V20c0 2.2-1.8 4-4 4s-4-1.8-4-4v-3.3c-1.9-1.3-3-3.5-3-5.7 0-3.9 3.1-7 7-7s7 3.1 7 7zm-2 0c0-2.8-2.2-5-5-5s-5 2.2-5 5c0 1.8 1 3.4 2.5 4.3l.5.3V20c0 1.1.9 2 2 2s2-.9 2-2v-4.4l.5-.3C16 14.4 17 12.8 17 11z"/></svg>