<svg xmlns="http://www.w3.org/2000/svg" viewBox="0 0 24 24"><path d="M20 13c0-1.2.5-2.1 1.5-2.8l.6-.4-.2-.7c-.4-1.2-1.2-2.2-2.3-2.9C18.5 5.4 17.2 5 16 5c-.8 0-1.4.3-1.9.5-.6.3-1.2.5-2.1.5-.9 0-1.4-.2-1.8-.5C9.7 5.3 9.1 5 8 5c-1.7 0-3.2.7-4.3 2C2.6 8.4 2 10.5 2 13c0 2.4.8 5.1 2.1 7.4.6 1 1.2 1.9 1.9 2.5.7.7 1.4 1.1 2 1.1 1.1 0 1.7-.2 2.4-.5 0 0 1-.5 1.6-.5.6 0 1 .2 1.5.4 0 0 1.4.6 2.5.6.6 0 1.4-.5 1.7-.7.5-.4 1.1-1 1.7-1.7 1.2-1.4 2.1-3.1 2.5-4.7l.2-.7-.6-.4c-1-.6-1.5-1.6-1.5-2.8zm-2.2 7.4c-.9 1.2-1.5 1.6-1.9 1.6-.7 0-1.6-.4-1.6-.4-.6-.3-1.3-.6-2.3-.6-1 0-2.4.6-2.4.6-.5.2-.9.4-1.5.4-.7 0-1.8-1.7-2.3-2.6C4.7 17.5 4 15 4 13c0-2.1.4-3.7 1.3-4.7C6 7.4 6.9 7 8 7c.6 0 .8.1 1.3.3.5.3 1.3.7 2.7.7 1.3 0 2.2-.4 2.9-.7.4-.2.7-.3 1.1-.3.8 0 1.7.3 2.4.8.5.4.9.8 1.2 1.3-1.1 1-1.7 2.4-1.7 3.9 0 1.6.6 3 1.7 4-.3 1.2-1.1 2.3-1.8 3.4zM12.7 4.7l-1.4-1.4 3-3 1.4 1.4-3 3z"/></svg>