<svg xmlns="http://www.w3.org/2000/svg" viewBox="0 0 24 24"><path d="M12 0C5.4 0 0 5.4 0 12s5.4 12 12 12 12-5.4 12-12S18.6 0 12 0zM4.9 5H9c.6 0 1 .4 1 1s-.4 1-1 1H5.5C4.1 7 3 8.1 3 9.5S4.1 12 5.5 12H6c.6 0 1 .4 1 1s-.4 1-1 1H2.2c-.1-.6-.2-1.3-.2-2 0-2.7 1.1-5.2 2.9-7zM2.8 16H6c1.7 0 3-1.3 3-3s-1.3-3-3-3h-.5c-.3 0-.5-.2-.5-.5s.2-.5.5-.5H9c1.7 0 3-1.3 3-3s-1.3-3-3-3H7.7C9 2.4 10.4 2 12 2c4.1 0 7.6 2.5 9.2 6H17c-1.7 0-3 1.3-3 3s1.3 3 3 3h.5c.3 0 .5.2.5.5s-.2.5-.5.5H13c-1.7 0-3 1.3-3 3s1.3 3 3 3h3.3c-1.3.6-2.8 1-4.3 1-4.1 0-7.6-2.5-9.2-6zm16.3 3H13c-.6 0-1-.4-1-1s.4-1 1-1h4.5c1.4 0 2.5-1.1 2.5-2.5S18.9 12 17.5 12H17c-.6 0-1-.4-1-1s.4-1 1-1h4.8c.1.6.2 1.3.2 2 0 2.7-1.1 5.2-2.9 7z"/></svg>