<svg xmlns="http://www.w3.org/2000/svg" viewBox="0 0 24 24"><path d="M24 14.8V9.2l-2.9-.7-.2-.5 1.6-2.5-4-4L16 3.1l-.6-.2-.6-2.9H9.2l-.7 2.9-.5.2-2.5-1.6-4 4L3.1 8l-.2.5-2.9.7v5.6l2.9.7.2.5-1.6 2.5 4 4L8 20.9l.6.2.6 2.9h5.6l.7-2.9.6-.2 2.5 1.6 4-4-1.7-2.5.2-.6 2.9-.6zm-4.1 3.4l-1.7 1.7-2-1.3-2.5 1-.5 2.4h-2.4l-.5-2.3-2.5-1-2 1.3-1.7-1.7 1.3-2-1-2.5-2.4-.6v-2.4l2.3-.5 1-2.5-1.3-2 1.7-1.7 2 1.3 2.5-1 .6-2.4h2.4l.5 2.3 2.5 1 2-1.3 1.7 1.7-1.3 2 1 2.5 2.3.5v2.4l-2.3.5-1 2.5 1.3 2.1zM12 7c-2.8 0-5 2.2-5 5s2.2 5 5 5 5-2.2 5-5-2.2-5-5-5zm0 8c-1.7 0-3-1.3-3-3s1.3-3 3-3 3 1.3 3 3-1.3 3-3 3z"/></svg>