<!-- Generated by IcoMoon.io -->
<svg version="1.1" xmlns="http://www.w3.org/2000/svg" width="32" height="32" viewBox="0 0 32 32">
<title>mbri-sale</title>
<path d="M14 20c-1.096 0-2 0.904-2 2s0.904 2 2 2c1.096 0 2-0.904 2-2s-0.904-2-2-2zM14 21.333c0.381 0 0.667 0.286 0.667 0.667s-0.286 0.667-0.667 0.667c-0.381 0-0.667-0.286-0.667-0.667s0.286-0.667 0.667-0.667zM14 12c-1.096 0-2 0.904-2 2s0.904 2 2 2c1.096 0 2-0.904 2-2s-0.904-2-2-2zM14 13.333c0.381 0 0.667 0.286 0.667 0.667s-0.286 0.667-0.667 0.667c-0.381 0-0.667-0.286-0.667-0.667s0.286-0.667 0.667-0.667zM26.667 2.667c-1.465 0-2.667 1.202-2.667 2.667s1.202 2.667 2.667 2.667c1.465 0 2.667-1.202 2.667-2.667s-1.202-2.667-2.667-2.667zM26.667 4c0.744 0 1.333 0.589 1.333 1.333s-0.589 1.333-1.333 1.333c-0.744 0-1.333-0.589-1.333-1.333s0.589-1.333 1.333-1.333zM18.667 0c-0.73 0-1.887-0.127-2.711 0.698l-15.367 15.365c-0.785 0.785-0.785 2.080 0 2.865l12.484 12.484c0.785 0.785 2.080 0.785 2.865 0l15.365-15.367c0.824-0.824 0.69-1.976 0.69-2.706l0.008-12.672c-0-0.368-0.299-0.667-0.667-0.667zM18.667 1.333h12l-0.008 12.005c-0 0.775-0.060 1.523-0.299 1.763l-15.365 15.367c-0.279 0.279-0.7 0.279-0.979 0l-12.484-12.484c-0.279-0.279-0.279-0.7 0-0.979l15.367-15.365c0.24-0.24 1.003-0.307 1.768-0.307zM8.667 17.333h10.667c0.369 0 0.667 0.297 0.667 0.667s-0.297 0.667-0.667 0.667h-10.667c-0.369 0-0.667-0.297-0.667-0.667s0.297-0.667 0.667-0.667z"></path>
</svg>
