<!-- Generated by IcoMoon.io -->
<svg version="1.1" xmlns="http://www.w3.org/2000/svg" width="32" height="32" viewBox="0 0 32 32">
<title>mbri-mobile</title>
<path d="M17.333 28c0 0.736-0.597 1.333-1.333 1.333s-1.333-0.597-1.333-1.333c0-0.736 0.597-1.333 1.333-1.333s1.333 0.597 1.333 1.333zM14 4h4c0.369 0 0.667-0.297 0.667-0.667s-0.297-0.667-0.667-0.667h-4c-0.369 0-0.667 0.297-0.667 0.667s0.297 0.667 0.667 0.667zM8.667 0c-1.096 0-2 0.904-2 2v28c0 1.096 0.904 2 2 2h14.667c1.096 0 2-0.904 2-2v-28c0-1.096-0.904-2-2-2zM8.667 1.333h14.667c0.381 0 0.667 0.285 0.667 0.667v28c0 0.381-0.285 0.667-0.667 0.667h-14.667c-0.381 0-0.667-0.285-0.667-0.667v-28c0-0.381 0.285-0.667 0.667-0.667z"></path>
</svg>
