<!-- Generated by IcoMoon.io -->
<svg version="1.1" xmlns="http://www.w3.org/2000/svg" width="32" height="32" viewBox="0 0 32 32">
<title>mbri-apple</title>
<path d="M20.667 0c-3.689 0-6 3-6 6 0 0.368 0.299 0.667 0.667 0.667 3 0 6-2.311 6-6-0-0.368-0.299-0.667-0.667-0.667zM19.831 1.503c-0.339 1.966-1.774 3.022-3.424 3.424 0.403-1.65 1.459-3.086 3.424-3.424zM10.667 6.667c-2.174 0-4.228 0.874-5.685 2.667s-2.315 4.454-2.315 8c0 3.589 1.201 7.178 2.753 9.909 0.776 1.366 1.639 2.518 2.516 3.354s1.768 1.404 2.732 1.404c1.444 0 2.421-0.383 3.188-0.724s1.294-0.609 2.146-0.609c0.852 0 1.379 0.269 2.146 0.609s1.743 0.724 3.188 0.724c0.756 0 1.459-0.38 2.201-0.935s1.51-1.318 2.253-2.227c1.485-1.817 2.865-4.211 3.523-6.667 0.080-0.299-0.055-0.614-0.328-0.76-1.759-0.943-2.315-2.212-2.315-4.078 0-1.863 0.573-3.134 2.318-4.081 0.27-0.147 0.405-0.46 0.326-0.758-0.497-1.854-1.753-3.312-3.234-4.299s-3.193-1.529-4.742-1.529c-1.444 0-2.297 0.404-2.964 0.737s-1.148 0.596-2.37 0.596c-1.222 0-1.703-0.263-2.37-0.596s-1.519-0.737-2.964-0.737zM10.667 8c1.222 0 1.703 0.263 2.37 0.596s1.519 0.737 2.964 0.737c1.444 0 2.297-0.404 2.964-0.737s1.148-0.596 2.37-0.596c1.229 0 2.735 0.459 4.003 1.305 1.174 0.783 2.086 1.863 2.536 3.195-1.676 1.168-2.539 2.874-2.539 4.834 0 1.966 0.855 3.73 2.56 4.897-0.627 2.108-1.829 4.163-3.138 5.764-0.688 0.842-1.395 1.537-2.018 2.003s-1.173 0.669-1.404 0.669c-1.222 0-1.913-0.284-2.646-0.609s-1.539-0.724-2.688-0.724c-1.148 0-1.954 0.398-2.688 0.724s-1.424 0.609-2.646 0.609c-0.37 0-1.062-0.323-1.81-1.036s-1.552-1.772-2.276-3.047c-1.448-2.55-2.581-5.963-2.581-9.25 0-3.331 0.808-5.67 2.018-7.159s2.822-2.174 4.648-2.174z"></path>
</svg>
