<!-- Generated by IcoMoon.io -->
<svg version="1.1" xmlns="http://www.w3.org/2000/svg" width="32" height="32" viewBox="0 0 32 32">
<title>mbri-tablet</title>
<path d="M4 15.333c0 0.368-0.298 0.667-0.667 0.667s-0.667-0.298-0.667-0.667c0-0.368 0.298-0.667 0.667-0.667s0.667 0.298 0.667 0.667zM6 6.667c0.369 0 0.667 0.297 0.667 0.667v16c0 0.369-0.297 0.667-0.667 0.667s-0.667-0.297-0.667-0.667v-16c0-0.369 0.297-0.667 0.667-0.667zM2 4c-1.096 0-2 0.904-2 2v18.667c0 1.096 0.904 2 2 2h28c1.096 0 2-0.904 2-2v-18.667c0-1.096-0.904-2-2-2h-28zM2 5.333h28c0.381 0 0.667 0.286 0.667 0.667v18.667c0 0.381-0.286 0.667-0.667 0.667h-28c-0.381 0-0.667-0.286-0.667-0.667v-18.667c0-0.381 0.286-0.667 0.667-0.667z"></path>
</svg>
