<!-- Generated by IcoMoon.io -->
<svg version="1.1" xmlns="http://www.w3.org/2000/svg" width="32" height="32" viewBox="0 0 32 32">
<title>mbri-drag-n-drop2</title>
<path d="M5.124 18.835l-3.519-3.524 3.548-3.554c0.507-0.493-0.453-1.455-0.946-0.948l-4.022 4.027c-0.248 0.248-0.248 0.699 0 0.948l3.992 3.998c0.65 0.653 1.574-0.317 0.946-0.948zM25.543 18.835l3.519-3.524-3.548-3.554c-0.507-0.493 0.453-1.455 0.946-0.948l4.022 4.027c0.248 0.248 0.248 0.699 0 0.948l-3.992 3.998c-0.65 0.653-1.574-0.317-0.946-0.948zM11.831 25.543l3.524 3.519 3.554-3.548c0.494-0.507 1.455 0.453 0.948 0.946l-4.027 4.022c-0.248 0.248-0.7 0.248-0.948 0l-3.998-3.992c-0.653-0.65 0.317-1.574 0.948-0.946zM15.333 4c-0.369 0-0.667 0.297-0.667 0.667v10h-10c-0.369 0-0.667 0.297-0.667 0.667s0.297 0.667 0.667 0.667h10v10c0 0.369 0.297 0.667 0.667 0.667s0.667-0.297 0.667-0.667v-10h10c0.369 0 0.667-0.297 0.667-0.667s-0.297-0.667-0.667-0.667h-10v-10c0-0.369-0.297-0.667-0.667-0.667zM11.836 5.116l3.497-3.506 3.526 3.535c0.49 0.505 1.444-0.452 0.94-0.943l-3.996-4.007c-0.246-0.247-0.694-0.247-0.94 0l-3.967 3.978c-0.648 0.648 0.315 1.568 0.94 0.943z"></path>
</svg>
