<!-- Generated by IcoMoon.io -->
<svg version="1.1" xmlns="http://www.w3.org/2000/svg" width="32" height="32" viewBox="0 0 32 32">
<title>mbri-mobirise</title>
<path d="M25.657 26.303c-0.32 0.187-0.727 0.076-0.911-0.244l-1.333-2.309c-0.187-0.32-0.076-0.725 0.244-0.911 0.32-0.187 0.725-0.077 0.911 0.243l1.333 2.309c0.184 0.32 0.076 0.727-0.244 0.911zM30.293 21.667c-0.184 0.32-0.591 0.429-0.911 0.244l-2.309-1.333c-0.32-0.184-0.427-0.591-0.244-0.911 0.187-0.32 0.591-0.429 0.911-0.244l2.309 1.333c0.32 0.184 0.429 0.591 0.244 0.911zM30.293 9c0.187 0.32 0.076 0.727-0.244 0.911l-2.309 1.333c-0.32 0.187-0.725 0.076-0.911-0.244-0.184-0.32-0.076-0.727 0.244-0.911l2.309-1.333c0.32-0.187 0.727-0.076 0.911 0.244zM25.657 4.364c0.32 0.184 0.427 0.591 0.244 0.911l-1.333 2.309c-0.187 0.32-0.591 0.427-0.911 0.244-0.32-0.184-0.429-0.589-0.244-0.909l1.333-2.309c0.184-0.32 0.591-0.429 0.911-0.244zM32 15.333c0 0.369-0.297 0.667-0.667 0.667h-2.667c-0.369 0-0.667-0.297-0.667-0.667s0.297-0.667 0.667-0.667h2.667c0.369 0 0.667 0.297 0.667 0.667zM19.333 24c0.369 0 0.667 0.297 0.667 0.667v2.667c0 0.369-0.297 0.667-0.667 0.667s-0.667-0.297-0.667-0.667v-2.667c0-0.369 0.297-0.667 0.667-0.667zM19.333 2.667c0.369 0 0.667 0.297 0.667 0.667v2.667c0 0.369-0.297 0.667-0.667 0.667s-0.667-0.297-0.667-0.667v-2.667c0-0.369 0.297-0.667 0.667-0.667zM19.333 8c-0.849 0-0.896 1.333 0 1.333 3.316 0 6 2.677 6 6s-2.684 6-6 6c-0.86 0-0.896 1.333 0 1.333 4.037 0 7.333-3.293 7.333-7.333s-3.296-7.333-7.333-7.333zM9.333 25.333c0 0.736-0.597 1.333-1.333 1.333s-1.333-0.597-1.333-1.333 0.597-1.333 1.333-1.333 1.333 0.597 1.333 1.333zM6 6.667h4c0.369 0 0.667-0.297 0.667-0.667s-0.297-0.667-0.667-0.667h-4c-0.369 0-0.667 0.297-0.667 0.667s0.297 0.667 0.667 0.667zM2 2.667c-1.096 0-2 0.904-2 2v22.667c0 1.096 0.904 2 2 2h12c1.096 0 2-0.904 2-2v-22.667c0-1.096-0.904-2-2-2zM2 4h12c0.381 0 0.667 0.285 0.667 0.667v22.667c0 0.381-0.285 0.667-0.667 0.667h-12c-0.381 0-0.667-0.285-0.667-0.667v-22.667c0-0.381 0.285-0.667 0.667-0.667z"></path>
</svg>
