<!-- Generated by IcoMoon.io -->
<svg version="1.1" xmlns="http://www.w3.org/2000/svg" width="32" height="32" viewBox="0 0 32 32">
<title>mbri-save</title>
<path d="M6 14.667c-0.647 0-0.873 0.75-0.452 1.158l9.313 9.314c0.26 0.26 0.681 0.26 0.941 0l9.313-9.314c0.653-0.627-0.314-1.594-0.941-0.941l-8.842 8.849-8.844-8.849c-0.125-0.13-0.309-0.217-0.489-0.217zM15.333 2.667c0.369 0 0.667 0.297 0.667 0.667v17.333c0 0.369-0.297 0.667-0.667 0.667s-0.667-0.297-0.667-0.667v-17.333c0-0.369 0.297-0.667 0.667-0.667zM0.667 24c-0.368 0.006-0.672 0.298-0.667 0.667v2.667c0 1.096 0.904 2 2 2h28c1.096 0 2-0.904 2-2v-2.667c0.006-0.451-0.33-0.667-0.667-0.667s-0.673 0.216-0.667 0.667v2.667c0 0.381-0.286 0.667-0.667 0.667h-28c-0.381 0-0.667-0.286-0.667-0.667v-2.667c0.006-0.376-0.29-0.673-0.667-0.667z"></path>
</svg>
