<!-- Generated by IcoMoon.io -->
<svg version="1.1" xmlns="http://www.w3.org/2000/svg" width="32" height="32" viewBox="0 0 32 32">
<title>mbri-left-right</title>
<path d="M25.543 25.505l3.519-3.524-3.519-3.481c-0.618-0.602 0.313-1.6 0.947-0.947l3.992 3.954c0.248 0.248 0.248 0.7 0 0.948l-3.992 3.998c-0.65 0.653-1.575-0.317-0.947-0.948zM26 10.667h-21.333c-0.88 0-0.862-1.333 0-1.333h21.333c0.886 0 0.867 1.333 0 1.333zM5.124 6.5l-3.519 3.524 3.519 3.481c0.618 0.602-0.313 1.6-0.947 0.947l-3.991-3.954c-0.248-0.248-0.248-0.7 0-0.948l3.991-3.998c0.65-0.653 1.575 0.317 0.947 0.948zM4.667 21.333h21.333c0.893 0 0.86 1.333 0 1.333h-21.333c-0.901 0-0.862-1.333 0-1.333z"></path>
</svg>
