<!-- Generated by IcoMoon.io -->
<svg version="1.1" xmlns="http://www.w3.org/2000/svg" width="32" height="32" viewBox="0 0 32 32">
<title>mbri-close</title>
<path d="M31.797 0.191c-0.264-0.256-0.686-0.25-0.942 0.015l-13.328 13.326c-0.598 0.581 0.342 1.543 0.942 0.942l13.328-13.326c0.27-0.262 0.27-0.695 0-0.957zM14.472 17.515c-0.264-0.256-0.686-0.25-0.942 0.015l-13.328 13.326c-0.613 0.595 0.34 1.562 0.942 0.942l13.328-13.326c0.27-0.262 0.27-0.695 0-0.957zM1.144 0.205c-0.584-0.587-1.544 0.336-0.942 0.942l30.654 30.651c0.613 0.625 1.563-0.325 0.942-0.942z"></path>
</svg>
