<!-- Generated by IcoMoon.io -->
<svg version="1.1" xmlns="http://www.w3.org/2000/svg" width="32" height="32" viewBox="0 0 32 32">
<title>mbri-key</title>
<path d="M6 4c-1.097 0-2 0.903-2 2s0.903 2 2 2c1.097 0 2-0.903 2-2s-0.903-2-2-2zM6 5.333c0.376 0 0.667 0.291 0.667 0.667s-0.291 0.667-0.667 0.667c-0.376 0-0.667-0.291-0.667-0.667s0.291-0.667 0.667-0.667zM8.667 0c-4.779 0-8.667 3.888-8.667 8.667s3.888 8.667 8.667 8.667c1.045 0 2.134-0.276 3.104-0.62l15.091 15.091c0.121 0.121 0.287 0.195 0.471 0.195h4c0.368-0 0.667-0.299 0.667-0.667v-4c-0-0.184-0.075-0.351-0.195-0.471l-2.667-2.667c-0.121-0.121-0.287-0.195-0.471-0.195h-0.667v-0.667c-0-0.184-0.075-0.351-0.195-0.471l-2.667-2.667c-0.121-0.121-0.287-0.195-0.471-0.195h-2v-2c-0-0.184-0.075-0.351-0.195-0.471l-2.667-2.667c-0.121-0.121-0.287-0.195-0.471-0.195h-0.667v-0.667c-0-0.184-0.075-0.351-0.195-0.471l-1.758-1.758c0.343-0.97 0.62-2.059 0.62-3.104 0-4.779-3.888-8.667-8.667-8.667zM8.667 1.333c4.058 0 7.333 3.275 7.333 7.333 0 0.999-0.252 2.216-0.615 3.073-0.033 0.077-0.053 0.166-0.053 0.26 0 0.184 0.075 0.351 0.196 0.472l1.805 1.805v1.057c0 0.368 0.299 0.667 0.667 0.667h1.057l2.276 2.276v2.391c0 0.368 0.299 0.667 0.667 0.667h2.391l2.276 2.276v1.057c0 0.368 0.299 0.667 0.667 0.667h1.057l2.276 2.276v3.057h-3.057l-15.138-15.138c-0.121-0.121-0.288-0.196-0.472-0.196-0.094 0-0.183 0.019-0.264 0.054-0.853 0.361-2.069 0.613-3.069 0.613-4.058 0-7.333-3.275-7.333-7.333s3.275-7.333 7.333-7.333z"></path>
</svg>
