<!-- Generated by IcoMoon.io -->
<svg version="1.1" xmlns="http://www.w3.org/2000/svg" width="32" height="32" viewBox="0 0 32 32">
<title>mbri-refresh</title>
<path d="M15.333 0c-0.599 0-0.866 0.743-0.471 1.138l4.862 4.862-4.862 4.862c-0.589 0.589 0.363 1.547 0.943 0.943l5.333-5.333c0.26-0.26 0.26-0.682 0-0.943l-5.333-5.333c-0.126-0.13-0.291-0.195-0.471-0.195zM16 5.333c-7.356 0-13.333 5.977-13.333 13.333s5.977 13.333 13.333 13.333c7.356 0 13.333-5.977 13.333-13.333v-0.667c0.013-0.891-1.333-0.865-1.333 0v0.667c0 6.635-5.365 12-12 12s-12-5.365-12-12c0-6.635 5.365-12 12-12h0.667c0.886 0 0.881-1.333 0-1.333z"></path>
</svg>
