<!-- Generated by IcoMoon.io -->
<svg version="1.1" xmlns="http://www.w3.org/2000/svg" width="32" height="32" viewBox="0 0 32 32">
<title>mbri-target</title>
<path d="M15.333 10.667c-2.569 0-4.667 2.097-4.667 4.667s2.097 4.667 4.667 4.667c2.569 0 4.667-2.097 4.667-4.667s-2.097-4.667-4.667-4.667zM15.333 12c1.849 0 3.333 1.485 3.333 3.333s-1.485 3.333-3.333 3.333c-1.849 0-3.333-1.485-3.333-3.333s1.485-3.333 3.333-3.333zM15.333 0c-0.369 0-0.667 0.297-0.667 0.667v2.034c-6.455 0.338-11.628 5.511-11.966 11.966h-2.034c-0.369 0-0.667 0.297-0.667 0.667s0.297 0.667 0.667 0.667h2.034c0.338 6.455 5.511 11.628 11.966 11.966v2.034c0 0.369 0.297 0.667 0.667 0.667s0.667-0.297 0.667-0.667v-2.034c6.455-0.338 11.628-5.511 11.966-11.966h2.034c0.369 0 0.667-0.297 0.667-0.667s-0.297-0.667-0.667-0.667h-2.034c-0.338-6.455-5.511-11.628-11.966-11.966v-2.034c0-0.369-0.297-0.667-0.667-0.667zM14.667 4.034v1.966c0 0.369 0.297 0.667 0.667 0.667s0.667-0.297 0.667-0.667v-1.966c5.732 0.333 10.299 4.901 10.633 10.633h-1.966c-0.369 0-0.667 0.297-0.667 0.667s0.297 0.667 0.667 0.667h1.966c-0.334 5.732-4.901 10.299-10.633 10.633v-1.966c0-0.369-0.297-0.667-0.667-0.667s-0.667 0.297-0.667 0.667v1.966c-5.732-0.334-10.299-4.901-10.633-10.633h1.966c0.369 0 0.667-0.297 0.667-0.667s-0.297-0.667-0.667-0.667h-1.966c0.333-5.732 4.901-10.299 10.633-10.633z"></path>
</svg>
