<!-- Generated by IcoMoon.io -->
<svg version="1.1" xmlns="http://www.w3.org/2000/svg" width="32" height="32" viewBox="0 0 32 32">
<title>mbri-user2</title>
<path d="M16 5.333c-2.424 0-3.894 1.407-4.583 2.982s-0.75 3.319-0.75 4.352c0 1.92-0.216 2.904-2.438 4.831-0.467 0.407-0.174 1.176 0.445 1.169 1.113-0.014 2.859-0.114 4.458-0.896-0.082 0.553-0.106 1.262-0.281 1.542-0.3 0.48-0.666 0.688-1.518 0.688-1.148 0-2.559 0.356-3.766 1.099s-2.234 1.957-2.234 3.568c0 0.876 1.333 0.891 1.333 0 0-1.056 0.639-1.842 1.599-2.432s2.216-0.901 3.068-0.901c1.148 0 2.115-0.459 2.648-1.313s0.685-1.965 0.685-3.354c-0-0.594-0.718-0.891-1.138-0.471-0.945 0.945-2.208 1.066-3.445 1.091 1.317-1.539 1.917-2.974 1.917-4.62 0-0.967 0.087-2.557 0.638-3.815s1.412-2.185 3.362-2.185c1.95 0 2.811 0.927 3.362 2.185s0.638 2.848 0.638 3.815c0 1.646 0.6 3.081 1.917 4.62-1.238-0.025-2.5-0.146-3.445-1.091-0.42-0.42-1.138-0.122-1.138 0.471 0 1.389 0.152 2.501 0.685 3.354s1.5 1.313 2.648 1.313c0.852 0 2.108 0.31 3.068 0.901s1.599 1.377 1.599 2.432c0 0.865 1.333 0.909 1.333 0 0-1.611-1.028-2.825-2.234-3.568s-2.617-1.099-3.766-1.099c-0.852 0-1.218-0.207-1.518-0.688-0.175-0.28-0.199-0.988-0.281-1.542 1.6 0.782 3.345 0.882 4.458 0.896 0.62 0.007 0.913-0.762 0.445-1.169-2.221-1.926-2.438-2.911-2.438-4.831 0-1.033-0.061-2.777-0.75-4.352s-2.159-2.982-4.583-2.982zM16 0c-8.829 0-16 7.171-16 16s7.171 16 16 16c8.829 0 16-7.171 16-16s-7.171-16-16-16zM16 1.333c8.108 0 14.667 6.559 14.667 14.667s-6.559 14.667-14.667 14.667c-8.108 0-14.667-6.559-14.667-14.667s6.559-14.667 14.667-14.667z"></path>
</svg>
