<!-- Generated by IcoMoon.io -->
<svg version="1.1" xmlns="http://www.w3.org/2000/svg" width="32" height="32" viewBox="0 0 32 32">
<title>mbri-video</title>
<path d="M12.688 9.333c-0.378 0-0.688 0.29-0.688 0.667v12c0.001 0.576 0.683 0.879 1.112 0.495l6.667-6c0.293-0.265 0.293-0.725 0-0.99l-6.667-6c-0.117-0.106-0.267-0.172-0.424-0.172zM13.333 11.495l5.005 4.505-5.005 4.505zM2 4c-1.096 0-2 0.904-2 2v20c0 1.096 0.904 2 2 2h28c1.096 0 2-0.904 2-2v-20c0-1.096-0.904-2-2-2zM2 5.333h28c0.381 0 0.667 0.286 0.667 0.667v20c0 0.381-0.286 0.667-0.667 0.667h-28c-0.381 0-0.667-0.286-0.667-0.667v-20c0-0.381 0.286-0.667 0.667-0.667z"></path>
</svg>
