<!-- Generated by IcoMoon.io -->
<svg version="1.1" xmlns="http://www.w3.org/2000/svg" width="32" height="32" viewBox="0 0 32 32">
<title>mbri-rocket</title>
<path d="M3.333 28c-0.173 0.005-0.347 0.067-0.468 0.191l-1.335 1.335c-0.597 0.573 0.355 1.556 0.944 0.944l1.335-1.335c0.371-0.363 0.191-1.135-0.475-1.135zM8.667 26.667c-0.173 0.005-0.342 0.066-0.463 0.19l-1.335 1.335c-0.602 0.578 0.34 1.572 0.944 0.944l1.335-1.335c0.355-0.347 0.19-1.134-0.481-1.134zM3.333 24c-0.173 0.005-0.347 0.063-0.468 0.187l-1.335 1.335c-0.6 0.6 0.351 1.561 0.944 0.944l1.335-1.335c0.434-0.424 0.191-1.131-0.475-1.131zM19.855 6.475c-1.56 1.56-1.558 4.109 0.002 5.668s4.108 1.562 5.668 0.002c1.56-1.56 1.56-4.11 0-5.67s-4.11-1.56-5.67 0zM24.581 11.202c-1.050 1.050-2.731 1.048-3.781-0.002s-1.052-2.731-0.002-3.781c1.050-1.050 2.733-1.050 3.783 0s1.050 2.733 0 3.783zM7.333 20c-0.37 0.004-0.672 0.297-0.667 0.667 0 2.572 2.095 4.667 4.667 4.667 0.866 0 0.903-1.333 0-1.333-1.851 0-3.333-1.483-3.333-3.333 0.006-0.376-0.291-0.671-0.667-0.667zM28.441 0c-1.143 0.012-2.509 0.273-4.030 0.803-3.043 1.060-6.701 3.203-10.201 6.7-3.462 3.459-5.332 6.003-6.345 7.709-0.507 0.853-0.8 1.494-0.967 1.937-0.087 0.23-0.079 0.254-0.112 0.383-0.178 0.113-1.549 0.997-3.066 1.713-0.758 0.434-1.791 0.756-2.387 0.756 0.003-1 0.945-3.214 2.082-4.992 0.569-0.89 1.181-1.7 1.702-2.263 0.261-0.281 0.501-0.501 0.68-0.631 0.202-0.194 0.419 0.093 0.521 0.271 0.194 0.359 0.355 0.927 0.355 1.595 0 0.908 1.335 0.913 1.335 0 0-0.875-0.197-1.641-0.516-2.232s-0.778-1.083-1.492-1.083c-0.42 0-0.696 0.16-0.984 0.369s-0.578 0.479-0.879 0.803c-0.601 0.647-1.242 1.506-1.846 2.45-1.208 1.89-2.291 4.039-2.291 5.711 0 0.449 0.242 0.926 0.628 1.142s0.778 0.214 1.165 0.164c0.775-0.099 1.632-0.448 2.495-0.855 1.725-0.815 3.415-1.906 3.415-1.906 0.161-0.104 0.269-0.272 0.297-0.461 0 0 0.009-0.101 0.146-0.464s0.395-0.936 0.866-1.728c0.942-1.586 2.742-4.047 6.142-7.445 3.363-3.36 6.867-5.397 9.695-6.382 1.414-0.492 2.661-0.732 3.608-0.732 0.984 0 1.557 0.227 1.77 0.44s0.45 0.824 0.44 1.77c-0.010 0.946-0.239 2.194-0.732 3.608-0.985 2.828-3.021 6.332-6.382 9.695-3.398 3.4-5.86 5.2-7.445 6.142-0.793 0.471-1.366 0.729-1.728 0.866s-0.464 0.146-0.464 0.146c-0.189 0.028-0.357 0.137-0.461 0.297 0 0-1.091 1.69-1.906 3.415-0.407 0.863-0.756 1.72-0.855 2.495-0.050 0.388-0.052 0.779 0.164 1.165s0.706 0.628 1.155 0.628c1.672 0 3.809-1.083 5.699-2.291 0.945-0.604 1.803-1.245 2.45-1.846 0.324-0.3 0.594-0.59 0.803-0.879s0.369-0.564 0.369-0.984c0-0.715-0.493-1.173-1.083-1.492s-1.375-0.508-2.25-0.508c-0.871 0-0.876 1.333 0 1.333 0.668 0 1.256 0.154 1.614 0.348 0.386 0.223 0.339 0.403 0.271 0.521-0.13 0.18-0.35 0.42-0.631 0.68-0.562 0.522-1.372 1.133-2.263 1.702-1.778 1.137-3.972 2.075-4.971 2.078-0.003-0.023-0.028-0.091-0.003-0.289 0.061-0.476 0.357-1.287 0.738-2.093 0.716-1.517 1.599-2.888 1.713-3.066 0.129-0.033 0.153-0.025 0.383-0.112 0.443-0.167 1.084-0.461 1.937-0.967 1.705-1.013 4.249-2.884 7.709-6.345 3.497-3.499 5.64-7.158 6.7-10.201 0.53-1.521 0.791-2.887 0.803-4.030s-0.198-2.098-0.829-2.729c-0.631-0.631-1.587-0.841-2.729-0.829z"></path>
</svg>
