<!-- Generated by IcoMoon.io -->
<svg version="1.1" xmlns="http://www.w3.org/2000/svg" width="32" height="32" viewBox="0 0 32 32">
<title>mbri-android</title>
<path d="M26.294 1.415c-0.329-0.165-0.722-0.043-0.887 0.286l-2.67 5.334c-0.165 0.33-0.033 0.728 0.296 0.894s0.727 0.033 0.892-0.297l2.67-5.334c0.161-0.321 0.028-0.718-0.301-0.883zM5.706 1.415c0.329-0.165 0.722-0.043 0.887 0.286l2.67 5.334c0.165 0.33 0.033 0.728-0.296 0.894s-0.727 0.033-0.892-0.297l-2.67-5.334c-0.155-0.309-0.028-0.718 0.301-0.883zM16 8c-7.629 0-13.924 4.884-15.875 11.792-0.423 1.899 0.35 2.875 2.125 2.875h27.5c1.775 0 2.548-0.976 2.125-2.875-1.951-6.908-8.246-11.792-15.875-11.792zM16 9.333c7.005 0 12.847 4.481 14.625 10.833 0.209 0.782 0.049 1.167-0.875 1.167h-27.5c-0.924 0-1.084-0.385-0.875-1.167 1.778-6.352 7.62-10.833 14.625-10.833zM2 24c-1.096 0-2 0.904-2 2v2.667c0 1.096 0.904 2 2 2h28c1.096 0 2-0.904 2-2v-2.667c0-1.096-0.904-2-2-2zM2 25.333h28c0.381 0 0.667 0.286 0.667 0.667v2.667c0 0.381-0.286 0.667-0.667 0.667h-28c-0.381 0-0.667-0.286-0.667-0.667v-2.667c0-0.381 0.286-0.667 0.667-0.667zM22 13.333c-1.096 0-2 0.904-2 2v2.667c0 1.096 0.904 2 2 2s2-0.904 2-2v-2.667c0-1.096-0.904-2-2-2zM22 14.667c0.381 0 0.667 0.286 0.667 0.667v2.667c0 0.381-0.286 0.667-0.667 0.667s-0.667-0.286-0.667-0.667v-2.667c0-0.381 0.286-0.667 0.667-0.667zM10 13.333c-1.096 0-2 0.904-2 2v2.667c0 1.096 0.904 2 2 2s2-0.904 2-2v-2.667c0-1.096-0.904-2-2-2zM10 14.667c0.381 0 0.667 0.286 0.667 0.667v2.667c0 0.381-0.286 0.667-0.667 0.667s-0.667-0.286-0.667-0.667v-2.667c0-0.381 0.286-0.667 0.667-0.667z"></path>
</svg>
