<!-- Generated by IcoMoon.io -->
<svg version="1.1" xmlns="http://www.w3.org/2000/svg" width="32" height="32" viewBox="0 0 32 32">
<title>mbri-pages</title>
<path d="M6 4c-1.096 0-2 0.904-2 2v24c0 1.096 0.904 2 2 2h16c1.096 0 2-0.904 2-2 0.006-0.451-0.33-0.667-0.667-0.667s-0.673 0.216-0.667 0.667c0 0.381-0.286 0.667-0.667 0.667h-16c-0.381 0-0.667-0.286-0.667-0.667v-24c0-0.381 0.286-0.667 0.667-0.667 0.455 0.006 0.669-0.332 0.667-0.667s-0.222-0.667-0.667-0.667zM20.667 2.667c-0.375 0.003-0.667 0.293-0.667 0.667v2.667c0 1.096 0.904 2 2 2h2.667c0.451 0.006 0.667-0.33 0.667-0.667s-0.216-0.673-0.667-0.667h-2.667c-0.381 0-0.667-0.286-0.667-0.667v-2.667c0-0.376-0.291-0.67-0.667-0.667zM10 0c-1.096 0-2 0.904-2 2v24c0 1.096 0.904 2 2 2h16c1.096 0 2-0.904 2-2v-18.667c-0-0.177-0.070-0.346-0.195-0.471l-6.667-6.667c-0.125-0.125-0.295-0.195-0.471-0.195zM10 1.333h10.391l6.276 6.276v18.391c0 0.381-0.286 0.667-0.667 0.667h-16c-0.381 0-0.667-0.286-0.667-0.667v-24c0-0.381 0.286-0.667 0.667-0.667z"></path>
</svg>
