<!-- Generated by IcoMoon.io -->
<svg version="1.1" xmlns="http://www.w3.org/2000/svg" width="32" height="32" viewBox="0 0 32 32">
<title>mbri-play</title>
<path d="M29.336 15.989c-0.012-0.924-0.713-1.624-1.669-2.17l-23.963-13.704c-0.786-0.499-1.489 0.732-0.661 1.157l23.963 13.704c0.774 0.443 0.995 0.815 0.997 1.029 0.003 0.225-0.212 0.661-1.018 1.159-7.109 4.392-20.413 12.598-21.333 13.184-0.595 0.378-0.994 0.361-1.216 0.248s-0.438-0.386-0.438-1v-24.931c0-0.425-0.332-0.66-0.667-0.667s-0.673 0.216-0.667 0.667v24.945c0 0.957 0.418 1.792 1.164 2.174s1.678 0.237 2.537-0.31c0.751-0.478 14.213-8.78 21.323-13.173 1.010-0.624 1.66-1.398 1.648-2.311z"></path>
</svg>
