<!-- Generated by IcoMoon.io -->
<svg version="1.1" xmlns="http://www.w3.org/2000/svg" width="32" height="32" viewBox="0 0 32 32">
<title>mbri-help</title>
<path d="M0.667 6.667h2.667c0.369 0 0.667 0.297 0.667 0.667s-0.297 0.667-0.667 0.667h-2.667c-0.369 0-0.667-0.297-0.667-0.667s0.297-0.667 0.667-0.667zM0.667 12h2.667c0.369 0 0.667 0.297 0.667 0.667s-0.297 0.667-0.667 0.667h-2.667c-0.369 0-0.667-0.297-0.667-0.667s0.297-0.667 0.667-0.667zM0.667 17.333h2.667c0.369 0 0.667 0.297 0.667 0.667s-0.297 0.667-0.667 0.667h-2.667c-0.369 0-0.667-0.297-0.667-0.667s0.297-0.667 0.667-0.667zM7.333 2.667c-1.096 0-2 0.904-2 2v17.333c0 1.096 0.904 2 2 2h3.333v4.667c0 0.594 0.718 0.891 1.138 0.471l5.138-5.138h13.057c1.096 0 2-0.904 2-2v-17.333c0-1.096-0.904-2-2-2zM7.333 4h22.667c0.381 0 0.667 0.286 0.667 0.667v17.333c0 0.381-0.286 0.667-0.667 0.667h-13.333c-0.177 0-0.346 0.070-0.471 0.195l-4.195 4.195v-3.724c-0-0.368-0.299-0.667-0.667-0.667h-4c-0.381 0-0.667-0.286-0.667-0.667v-17.333c0-0.381 0.286-0.667 0.667-0.667z"></path>
</svg>
