<!-- Generated by IcoMoon.io -->
<svg version="1.1" xmlns="http://www.w3.org/2000/svg" width="32" height="32" viewBox="0 0 32 32">
<title>mbri-align-right</title>
<path d="M31.337 25.333h-17.333c-0.908 0-0.863 1.333 0 1.333h17.333c0.86 0 0.898-1.333 0-1.333zM31.337 18.667h-30.667c-0.897 0-0.872 1.333 0 1.333h30.667c0.868 0 0.892-1.333 0-1.333zM31.337 12h-17.333c-0.868 0-0.906 1.333 0 1.333h17.333c0.873 0 0.887-1.333 0-1.333zM31.337 5.333h-30.667c-0.878 0-0.879 1.333 0 1.333h30.667c0.871 0 0.887-1.333 0-1.333z"></path>
</svg>
