<!-- Generated by IcoMoon.io -->
<svg version="1.1" xmlns="http://www.w3.org/2000/svg" width="32" height="32" viewBox="0 0 32 32">
<title>mbri-cart-add</title>
<path d="M0.667 4c-0.451-0.006-0.667 0.33-0.667 0.667s0.216 0.673 0.667 0.667h3.469l3.214 14.148c0.002 0.009 0.005 0.017 0.008 0.026 0.114 0.423 0.29 0.847 0.607 1.203s0.814 0.622 1.37 0.622h16c0.551 0 1.051-0.248 1.385-0.607s0.528-0.811 0.607-1.284l0.667-4c0.146-0.879-1.172-1.097-1.318-0.219l-0.667 4c-0.087 0.52-0.339 0.776-0.674 0.776h-16c-0.501-0.015-0.585-0.452-0.688-0.833l-3.328-14.648c-0.069-0.304-0.34-0.519-0.651-0.518zM27.333 4c-2.569 0-4.667 2.097-4.667 4.667s2.097 4.667 4.667 4.667c2.569 0 4.667-2.097 4.667-4.667s-2.097-4.667-4.667-4.667zM27.333 5.333c1.849 0 3.333 1.484 3.333 3.333s-1.485 3.333-3.333 3.333c-1.849 0-3.333-1.485-3.333-3.333s1.485-3.333 3.333-3.333zM27.333 6.667c-0.369 0-0.667 0.297-0.667 0.667v0.667h-0.667c-0.369 0-0.667 0.297-0.667 0.667s0.297 0.667 0.667 0.667h0.667v0.667c0 0.369 0.297 0.667 0.667 0.667s0.667-0.297 0.667-0.667v-0.667h0.667c0.369 0 0.667-0.297 0.667-0.667s-0.297-0.667-0.667-0.667h-0.667v-0.667c0-0.369-0.297-0.667-0.667-0.667zM8.667 8c-0.369 0-0.667 0.297-0.667 0.667s0.297 0.667 0.667 0.667h12c0.369 0 0.667-0.297 0.667-0.667s-0.297-0.667-0.667-0.667zM10 12c-0.369 0-0.667 0.297-0.667 0.667s0.297 0.667 0.667 0.667h12c0.369 0 0.667-0.297 0.667-0.667s-0.297-0.667-0.667-0.667zM11.333 16c-0.369 0-0.667 0.297-0.667 0.667s0.297 0.667 0.667 0.667h12c0.369 0 0.667-0.297 0.667-0.667s-0.297-0.667-0.667-0.667zM10.667 22.667c-1.465 0-2.667 1.202-2.667 2.667s1.202 2.667 2.667 2.667c1.465 0 2.667-1.202 2.667-2.667s-1.202-2.667-2.667-2.667zM22.667 22.667c-1.465 0-2.667 1.202-2.667 2.667s1.202 2.667 2.667 2.667c1.465 0 2.667-1.202 2.667-2.667s-1.202-2.667-2.667-2.667zM10.667 24c0.744 0 1.333 0.589 1.333 1.333s-0.589 1.333-1.333 1.333c-0.744 0-1.333-0.589-1.333-1.333s0.589-1.333 1.333-1.333zM22.667 24c0.744 0 1.333 0.589 1.333 1.333s-0.589 1.333-1.333 1.333c-0.744 0-1.333-0.589-1.333-1.333s0.589-1.333 1.333-1.333z"></path>
</svg>
