<!-- Generated by IcoMoon.io -->
<svg version="1.1" xmlns="http://www.w3.org/2000/svg" width="32" height="32" viewBox="0 0 32 32">
<title>mbri-video-play</title>
<path d="M12.667 10.667c-0.389 0-0.667 0.295-0.667 0.667v9.333c-0.001 0.54 0.607 0.857 1.049 0.547l6.667-4.667c0.38-0.265 0.38-0.828 0-1.094l-6.667-4.667c-0.11-0.077-0.249-0.12-0.383-0.12zM13.333 12.615l4.836 3.385-4.836 3.385zM31.333 25.333h-1.333c-0.369 0-0.667 0.297-0.667 0.667s0.297 0.667 0.667 0.667h1.333c0.369 0 0.667-0.297 0.667-0.667s-0.297-0.667-0.667-0.667zM30 20c-0.369 0-0.667 0.297-0.667 0.667v2.667c0 0.369 0.297 0.667 0.667 0.667s0.667-0.297 0.667-0.667v-2.667c0-0.369-0.297-0.667-0.667-0.667zM30 13.333c-0.369 0-0.667 0.297-0.667 0.667v4c0 0.369 0.297 0.667 0.667 0.667s0.667-0.297 0.667-0.667v-4c0-0.369-0.297-0.667-0.667-0.667zM30 8c-0.369 0-0.667 0.297-0.667 0.667v2.667c0 0.369 0.297 0.667 0.667 0.667s0.667-0.297 0.667-0.667v-2.667c0-0.369-0.297-0.667-0.667-0.667zM31.333 5.333h-1.333c-0.369 0-0.667 0.297-0.667 0.667s0.297 0.667 0.667 0.667h1.333c0.369 0 0.667-0.297 0.667-0.667s-0.297-0.667-0.667-0.667zM0.667 25.333h1.333c0.369 0 0.667 0.297 0.667 0.667s-0.297 0.667-0.667 0.667h-1.333c-0.369 0-0.667-0.297-0.667-0.667s0.297-0.667 0.667-0.667zM2 20c0.369 0 0.667 0.297 0.667 0.667v2.667c0 0.369-0.297 0.667-0.667 0.667s-0.667-0.297-0.667-0.667v-2.667c0-0.369 0.297-0.667 0.667-0.667zM2 13.333c0.369 0 0.667 0.297 0.667 0.667v4c0 0.369-0.297 0.667-0.667 0.667s-0.667-0.297-0.667-0.667v-4c0-0.369 0.297-0.667 0.667-0.667zM2 8c0.369 0 0.667 0.297 0.667 0.667v2.667c0 0.369-0.297 0.667-0.667 0.667s-0.667-0.297-0.667-0.667v-2.667c0-0.369 0.297-0.667 0.667-0.667zM0.667 5.333h1.333c0.369 0 0.667 0.297 0.667 0.667s-0.297 0.667-0.667 0.667h-1.333c-0.369 0-0.667-0.297-0.667-0.667s0.297-0.667 0.667-0.667zM6 5.333c-1.096 0-2 0.904-2 2v17.333c0 1.096 0.904 2 2 2h20c1.096 0 2-0.904 2-2v-17.333c0-1.096-0.904-2-2-2zM6 6.667h20c0.381 0 0.667 0.286 0.667 0.667v17.333c0 0.381-0.286 0.667-0.667 0.667h-20c-0.381 0-0.667-0.286-0.667-0.667v-17.333c0-0.381 0.286-0.667 0.667-0.667z"></path>
</svg>
