<!-- Generated by IcoMoon.io -->
<svg version="1.1" xmlns="http://www.w3.org/2000/svg" width="32" height="32" viewBox="0 0 32 32">
<title>mbri-numbered-list</title>
<path d="M2.667 10.684c-1.465 0-2.667 1.202-2.667 2.667 0 0.934 1.333 0.893 1.333 0 0-0.744 0.589-1.333 1.333-1.333s1.333 0.589 1.333 1.333c0 0.375-0.143 0.675-0.458 1.042s-0.783 0.739-1.292 1.167c-1.018 0.856-2.25 2.001-2.25 3.792 0 0.349 0.318 0.65 0.667 0.65h4c0.916 0 0.865-1.333 0-1.333h-3.125c0.243-0.801 0.771-1.459 1.542-2.108 0.491-0.413 1.023-0.786 1.458-1.292s0.792-1.152 0.792-1.917c0-1.465-1.202-2.667-2.667-2.667zM1.557 0.191l-1.314 1.328c-0.29 0.227-0.326 0.716-0.073 0.984s0.739 0.253 0.976-0.029l0.187-0.207v6.393c0 0.884 1.333 0.891 1.333 0v-7.97c0-0.793-0.806-0.805-1.11-0.498zM2.667 21.333c-1.466 0-2.667 1.201-2.667 2.667 0 0.887 1.333 0.905 1.333 0 0-0.75 0.583-1.333 1.333-1.333s1.333 0.583 1.333 1.333c0 0.75-0.583 1.333-1.333 1.333-0.98 0-0.973 1.333 0 1.333 0.75 0 1.333 0.583 1.333 1.333s-0.583 1.333-1.333 1.333c-0.75 0-1.333-0.583-1.333-1.333 0-0.848-1.333-0.728-1.333 0 0 1.466 1.201 2.667 2.667 2.667s2.667-1.201 2.667-2.667c0-0.797-0.357-1.51-0.917-2 0.552-0.49 0.917-1.209 0.917-2 0-1.466-1.201-2.667-2.667-2.667zM31.323 26.667h-21.333c-0.881 0-0.868-1.333 0-1.333h21.333c0.878 0 0.876 1.333 0 1.333zM31.333 16h-21.333c-0.881 0-0.868-1.333 0-1.333h21.333c0.878 0 0.876 1.333 0 1.333zM31.333 5.333h-21.333c-0.881 0-0.868-1.333 0-1.333h21.333c0.878 0 0.876 1.333 0 1.333z"></path>
</svg>
