<!-- Generated by IcoMoon.io -->
<svg version="1.1" xmlns="http://www.w3.org/2000/svg" width="32" height="32" viewBox="0 0 32 32">
<title>mbri-watch</title>
<path d="M8.667 5.333c-1.835 0-3.333 1.498-3.333 3.333v0.813l-4.828 1.208c-0.297 0.074-0.505 0.34-0.505 0.646v9.333c0 0.306 0.209 0.572 0.505 0.646l4.828 1.208v0.813c0 1.835 1.498 3.333 3.333 3.333h14.667c1.835 0 3.333-1.498 3.333-3.333v-0.813l4.828-1.206c0.297-0.074 0.505-0.34 0.505-0.646v-9.333c-0-0.306-0.209-0.572-0.505-0.646l-4.828-1.206v-0.818c0-1.835-1.498-3.333-3.333-3.333zM8.667 6.667h14.667c1.12 0 2 0.88 2 2v14.667c0 1.12-0.88 2-2 2h-14.667c-1.12 0-2-0.88-2-2v-14.667c0-1.12 0.88-2 2-2zM5.333 10.854v10.292l-4-1v-8.292zM26.667 10.857l4 1v8.292l-4 1zM13.333 20c0 0.736-0.597 1.333-1.333 1.333s-1.333-0.597-1.333-1.333c0-0.736 0.597-1.333 1.333-1.333s1.333 0.597 1.333 1.333zM21.333 20c0 0.736-0.597 1.333-1.333 1.333s-1.333-0.597-1.333-1.333c0-0.736 0.597-1.333 1.333-1.333s1.333 0.597 1.333 1.333zM21.333 12c0 0.736-0.597 1.333-1.333 1.333s-1.333-0.597-1.333-1.333c0-0.736 0.597-1.333 1.333-1.333s1.333 0.597 1.333 1.333zM13.333 12c0 0.736-0.597 1.333-1.333 1.333s-1.333-0.597-1.333-1.333c0-0.736 0.597-1.333 1.333-1.333s1.333 0.597 1.333 1.333zM14 10c0 1.097 0.903 2 2 2s2-0.903 2-2c0-1.097-0.903-2-2-2s-2 0.903-2 2zM15.333 10c0-0.376 0.291-0.667 0.667-0.667s0.667 0.291 0.667 0.667c0 0.376-0.291 0.667-0.667 0.667s-0.667-0.291-0.667-0.667zM14 22c0 1.097 0.903 2 2 2s2-0.903 2-2c0-1.097-0.903-2-2-2s-2 0.903-2 2zM15.333 22c0-0.376 0.291-0.667 0.667-0.667s0.667 0.291 0.667 0.667c0 0.376-0.291 0.667-0.667 0.667s-0.667-0.291-0.667-0.667zM22 14c-1.097 0-2 0.903-2 2s0.903 2 2 2c1.097 0 2-0.903 2-2s-0.903-2-2-2zM22 15.333c0.376 0 0.667 0.291 0.667 0.667s-0.291 0.667-0.667 0.667c-0.376 0-0.667-0.291-0.667-0.667s0.291-0.667 0.667-0.667zM10 14c-1.097 0-2 0.903-2 2s0.903 2 2 2c1.097 0 2-0.903 2-2s-0.903-2-2-2zM10 15.333c0.376 0 0.667 0.291 0.667 0.667s-0.291 0.667-0.667 0.667c-0.376 0-0.667-0.291-0.667-0.667s0.291-0.667 0.667-0.667zM16 13.333c-1.465 0-2.667 1.202-2.667 2.667s1.202 2.667 2.667 2.667c1.465 0 2.667-1.202 2.667-2.667s-1.202-2.667-2.667-2.667zM16 14.667c0.744 0 1.333 0.589 1.333 1.333s-0.589 1.333-1.333 1.333c-0.744 0-1.333-0.589-1.333-1.333s0.589-1.333 1.333-1.333z"></path>
</svg>
