<!-- Generated by IcoMoon.io -->
<svg version="1.1" xmlns="http://www.w3.org/2000/svg" width="32" height="32" viewBox="0 0 32 32">
<title>mbri-shopping-bag</title>
<path d="M12.667 6.667h6.667c0.369 0 0.667 0.297 0.667 0.667s-0.297 0.667-0.667 0.667h-6.667c-0.369 0-0.667-0.297-0.667-0.667s0.297-0.667 0.667-0.667zM4.674 6.667c-1.1 0-1.872 0.93-1.995 1.917l-2.667 21.333c-0.148 1.184 0.895 2.083 1.995 2.083h27.984c1.1 0 2.143-0.9 1.995-2.083l-2.667-21.333c-0.123-0.986-0.895-1.917-1.995-1.917h-2.659c-0.876 0-0.881 1.333 0 1.333h2.659c0.377 0 0.612 0.27 0.672 0.75l2.667 21.333c0.035 0.282-0.295 0.583-0.672 0.583h-27.984c-0.377 0-0.707-0.301-0.672-0.583l2.667-21.333c0.060-0.48 0.295-0.75 0.672-0.75h2.659c0.87 0 0.902-1.333 0-1.333zM16 0c-3.674 0-6.667 2.993-6.667 6.667v4.667c0 0.87 1.333 0.902 1.333 0v-4.667c0-2.953 2.38-5.333 5.333-5.333s5.333 2.38 5.333 5.333v4.667c0 0.896 1.333 0.876 1.333 0v-4.667c0-3.674-2.993-6.667-6.667-6.667z"></path>
</svg>
