<!-- Generated by IcoMoon.io -->
<svg version="1.1" xmlns="http://www.w3.org/2000/svg" width="32" height="32" viewBox="0 0 32 32">
<title>mbri-trash</title>
<path d="M20.667 11.974c0.394 0.005 0.702 0.376 0.658 0.768l-1.331 13.323c-0.086 0.874-1.413 0.755-1.326-0.13l1.331-13.323c0.029-0.349 0.318-0.643 0.668-0.638zM11.337 12c-0.394 0.005-0.706 0.35-0.662 0.742l1.331 13.323c0.087 0.885 1.413 0.755 1.326-0.13l-1.331-13.323c-0.029-0.349-0.314-0.617-0.664-0.612zM12.667 0c-1.096 0-2 0.904-2 2v2h-4.667c-0.369 0-0.667 0.297-0.667 0.667s0.298 0.667 0.667 0.667h20c0.369 0 0.667-0.297 0.667-0.667s-0.298-0.667-0.667-0.667h-4.667v-2c0-1.096-0.904-2-2-2zM12.667 1.333h6.667c0.381 0 0.667 0.286 0.667 0.667v2h-8v-2c0-0.381 0.286-0.667 0.667-0.667zM7.333 6.667c-1.099 0-2.134 0.899-1.986 2.083l2.664 21.333c0.123 0.987 0.889 1.917 1.988 1.917h12c1.099 0 1.865-0.93 1.988-1.917l2.664-21.333c0.148-1.184-0.887-2.083-1.986-2.083zM7.333 8h17.333c0.377 0 0.699 0.301 0.664 0.583l-2.664 21.333c-0.060 0.479-0.289 0.75-0.666 0.75h-12c-0.377 0-0.606-0.271-0.666-0.75l-2.664-21.333c-0.035-0.282 0.287-0.583 0.664-0.583z"></path>
</svg>
