<!-- Generated by IcoMoon.io -->
<svg version="1.1" xmlns="http://www.w3.org/2000/svg" width="32" height="32" viewBox="0 0 32 32">
<title>mbri-gift</title>
<path d="M10.094 0.010c-0.508 0-1.003 0.188-1.448 0.432-0.592 0.325-1.079 0.807-1.419 1.38s-0.555 1.217-0.555 1.872c0 0.655 0.095 1.304 0.346 1.898 0.164 0.386 0.388 0.751 0.664 1.073h-5.682c-1.096 0-2 0.904-2 2v4c0 1.096 0.904 2 2 2h28c1.096 0 2-0.904 2-2v-4c0-1.096-0.904-2-2-2h-6.388c0.053-0.085 0.111-0.165 0.154-0.258 0.204-0.438 0.275-0.924 0.214-1.396s-0.254-0.912-0.542-1.281c-0.288-0.369-0.663-0.653-1.086-0.836s-0.878-0.232-1.331-0.232c-0.747 0-1.403 0.358-1.94 0.776-0.535 0.416-0.929 0.914-1.286 1.37l-1.083 1.383-1.786-2.729c-0.469-0.716-0.965-1.485-1.654-2.148-0.696-0.67-1.598-1.305-2.667-1.305zM10.505 1.341c0.648 0 1.301 0.414 1.839 0.932 0.545 0.525 0.997 1.203 1.466 1.919l1.62 2.474h-4.219c-0.363 0-0.697-0.006-0.997-0.052s-0.586-0.133-0.836-0.263c-0.493-0.257-0.901-0.729-1.133-1.276-0.177-0.417-0.242-0.874-0.242-1.318 0-0.458 0.148-0.885 0.37-1.258s0.543-0.684 0.914-0.888c0.37-0.203 0.791-0.271 1.219-0.271zM21.099 3.995c0.248 0 0.502 0.029 0.724 0.125s0.421 0.248 0.565 0.432c0.143 0.184 0.239 0.411 0.268 0.635s-0.007 0.461-0.099 0.659c-0.13 0.28-0.407 0.528-0.729 0.656-0.325 0.129-0.749 0.156-1.237 0.156l-2.591 0.008 0.844-1.034c0.351-0.447 0.684-0.852 1.055-1.141 0.368-0.287 0.795-0.497 1.201-0.497zM2 8h28c0.381 0 0.667 0.286 0.667 0.667v4c0 0.381-0.286 0.667-0.667 0.667h-28c-0.381 0-0.667-0.286-0.667-0.667v-4c0-0.381 0.286-0.667 0.667-0.667zM14 9.333c-0.369 0-0.667 0.297-0.667 0.667v1.333c0 0.369 0.297 0.667 0.667 0.667s0.667-0.297 0.667-0.667v-1.333c0-0.369-0.297-0.667-0.667-0.667zM18 9.333c-0.369 0-0.667 0.297-0.667 0.667v1.333c0 0.369 0.297 0.667 0.667 0.667s0.667-0.297 0.667-0.667v-1.333c0-0.369-0.297-0.667-0.667-0.667zM3.333 16c-0.368 0.006-0.672 0.299-0.667 0.667v13.333c0 1.096 0.904 2 2 2h22.667c1.096 0 2-0.904 2-2v-13.333c0.006-0.45-0.33-0.667-0.667-0.667s-0.673 0.216-0.667 0.667v13.333c0 0.381-0.286 0.667-0.667 0.667h-8.667v-14c0-0.369-0.297-0.667-0.667-0.667s-0.667 0.298-0.667 0.667v14h-2.667v-14c0-0.369-0.297-0.667-0.667-0.667s-0.667 0.298-0.667 0.667v14l-8.667 0.001c-0.381 0-0.667-0.287-0.667-0.668v-13.333c0.006-0.376-0.29-0.672-0.667-0.667z"></path>
</svg>
