<!-- Generated by IcoMoon.io -->
<svg version="1.1" xmlns="http://www.w3.org/2000/svg" width="32" height="32" viewBox="0 0 32 32">
<title>mbri-extension</title>
<path d="M24.756 0.586c-0.78-0.78-2.065-0.782-2.845-0.002l-6.66 6.66c-0.78 0.78-0.778 2.065 0.002 2.845l6.659 6.659c0.78 0.78 2.065 0.782 2.845 0.002l6.66-6.66c0.78-0.78 0.778-2.065-0.002-2.845l-6.659-6.659zM23.813 1.528l6.659 6.659c0.274 0.274 0.276 0.685 0.002 0.959l-6.66 6.66c-0.274 0.274-0.685 0.272-0.959-0.002l-6.659-6.659c-0.274-0.274-0.276-0.685-0.002-0.959l6.66-6.66c0.274-0.274 0.685-0.272 0.959 0.002zM2 2.667c-1.096 0-2 0.904-2 2v9.333c0 1.096 0.904 2 2 2h9.333c1.096 0 2-0.904 2-2v-9.333c0-1.096-0.904-2-2-2h-9.333zM2 4h9.333c0.381 0 0.667 0.286 0.667 0.667v9.333c0 0.381-0.286 0.667-0.667 0.667h-9.333c-0.381 0-0.667-0.286-0.667-0.667v-9.333c0-0.381 0.286-0.667 0.667-0.667zM18 18.667c-1.096 0-2 0.904-2 2v9.333c0 1.096 0.904 2 2 2h9.333c1.096 0 2-0.904 2-2v-9.333c0-1.096-0.904-2-2-2h-9.333zM18 20h9.333c0.381 0 0.667 0.286 0.667 0.667v9.333c0 0.381-0.286 0.667-0.667 0.667h-9.333c-0.381 0-0.667-0.286-0.667-0.667v-9.333c0-0.381 0.286-0.667 0.667-0.667zM2 18.667c-1.096 0-2 0.904-2 2v9.333c0 1.096 0.904 2 2 2h9.333c1.096 0 2-0.904 2-2v-9.333c0-1.096-0.904-2-2-2h-9.333zM2 20h9.333c0.381 0 0.667 0.286 0.667 0.667v9.333c0 0.381-0.286 0.667-0.667 0.667h-9.333c-0.381 0-0.667-0.286-0.667-0.667v-9.333c0-0.381 0.286-0.667 0.667-0.667z"></path>
</svg>
