<!-- Generated by IcoMoon.io -->
<svg version="1.1" xmlns="http://www.w3.org/2000/svg" width="32" height="32" viewBox="0 0 32 32">
<title>mbri-bulleted-list</title>
<path d="M31.323 26.667h-21.333c-0.881 0-0.868-1.333 0-1.333h21.333c0.878 0 0.876 1.333 0 1.333zM31.333 16h-21.333c-0.881 0-0.868-1.333 0-1.333h21.333c0.878 0 0.876 1.333 0 1.333zM3.333 22.667c-1.835 0-3.333 1.498-3.333 3.333s1.498 3.333 3.333 3.333c1.835 0 3.333-1.498 3.333-3.333s-1.498-3.333-3.333-3.333zM3.333 24c1.12 0 2 0.881 2 2s-0.88 2-2 2c-1.12 0-2-0.881-2-2s0.88-2 2-2zM3.333 12.017c-1.835 0-3.333 1.498-3.333 3.333s1.498 3.333 3.333 3.333c1.835 0 3.333-1.498 3.333-3.333s-1.498-3.333-3.333-3.333zM3.333 13.35c1.12 0 2 0.881 2 2s-0.88 2-2 2c-1.12 0-2-0.881-2-2s0.88-2 2-2zM3.333 1.333c-1.835 0-3.333 1.498-3.333 3.333s1.498 3.333 3.333 3.333c1.835 0 3.333-1.498 3.333-3.333s-1.498-3.333-3.333-3.333zM3.333 2.667c1.12 0 2 0.881 2 2s-0.88 2-2 2c-1.12 0-2-0.881-2-2s0.88-2 2-2zM31.333 5.333h-21.333c-0.881 0-0.868-1.333 0-1.333h21.333c0.878 0 0.876 1.333 0 1.333z"></path>
</svg>
