<!-- Generated by IcoMoon.io -->
<svg version="1.1" xmlns="http://www.w3.org/2000/svg" width="32" height="32" viewBox="0 0 32 32">
<title>mbri-quote-left</title>
<path d="M8 28c2.224 0 3.726-0.765 4.826-1.846 1.102-1.083 1.841-2.597 1.841-4.153 0-1.27-0.301-2.434-0.813-3.508-0.51-1.071-1.177-2.020-1.827-2.93s-1.292-1.788-1.788-2.713c-0.495-0.924-0.905-1.862-0.905-2.85 0-1.263 0.366-2.604 1.181-3.569 0.426-0.502-0.103-1.25-0.737-1.070-2.752 0.771-5.185 2.435-6.94 4.692s-2.837 5.088-2.837 7.947c0 2.453 0.586 4.944 2.127 6.912 1.608 1.877 3.65 3.088 5.873 3.088zM8 26.667c-1.999 0-3.498-1.21-4.824-2.578-1.308-1.67-1.842-3.893-1.842-6.089 0-2.567 0.98-5.1 2.556-7.127 1.182-1.521 2.806-2.612 4.556-3.424-0.311 0.828-0.444 1.66-0.444 2.551 0 1.264 0.507 2.442 1.064 3.48 0.555 1.036 1.235 1.958 1.88 2.859s1.261 1.788 1.708 2.726c0.446 0.936 0.682 1.963 0.682 2.935 0 1.214-0.583 2.358-1.442 3.203-0.861 0.847-1.892 1.463-3.891 1.463zM25.337 28c2.224 0 3.724-0.765 4.824-1.846 1.102-1.083 1.839-2.589 1.839-4.153 0-1.27-0.3-2.434-0.811-3.508-0.51-1.071-1.177-2.020-1.827-2.93s-1.292-1.788-1.788-2.713c-0.495-0.924-0.903-1.869-0.903-2.85 0-1.263 0.364-2.604 1.179-3.569 0.426-0.502-0.103-1.25-0.737-1.070-2.753 0.771-5.185 2.435-6.94 4.692s-2.835 5.088-2.835 7.947c0 2.453 0.584 4.944 2.125 6.912 1.608 1.877 3.652 3.088 5.875 3.088zM25.337 26.667c-1.999 0-3.5-1.21-4.826-2.578-1.308-1.67-1.84-3.891-1.84-6.088 0-2.567 0.978-5.101 2.553-7.128 1.182-1.521 2.806-2.612 4.556-3.424-0.311 0.828-0.442 1.66-0.442 2.551 0 1.242 0.505 2.442 1.062 3.48 0.555 1.036 1.235 1.958 1.88 2.859s1.261 1.788 1.708 2.726c0.446 0.936 0.68 1.963 0.68 2.935 0 1.208-0.581 2.358-1.441 3.203-0.861 0.847-1.89 1.463-3.889 1.463z"></path>
</svg>
