<!-- Generated by IcoMoon.io -->
<svg version="1.1" xmlns="http://www.w3.org/2000/svg" width="32" height="32" viewBox="0 0 32 32">
<title>mbri-update</title>
<path d="M1.165 18.457l3.525-3.519 3.482 3.519c0.602 0.618 1.6-0.313 0.947-0.947l-3.955-3.991c-0.248-0.248-0.7-0.248-0.948 0l-3.999 3.991c-0.653 0.65 0.317 1.575 0.948 0.947zM30.835 13.543l-3.525 3.519-3.482-3.519c-0.602-0.618-1.6 0.313-0.947 0.947l3.955 3.991c0.248 0.248 0.7 0.248 0.948 0l3.999-3.991c0.653-0.65-0.317-1.575-0.948-0.947zM16.5 4.017c-1.558-0.063-3.097 0.189-4.542 0.708-2.889 1.038-5.422 3.173-6.833 6.167-0.059 0.098-0.095 0.216-0.095 0.342 0 0.368 0.298 0.667 0.667 0.667 0.297 0 0.549-0.194 0.635-0.463 1.259-2.673 3.473-4.54 6.043-5.463s5.499-0.883 8.167 0.375c2.668 1.258 4.577 3.471 5.5 6.042 0.231 0.643 0.395 1.323 0.5 2 0.051 0.326 0.33 0.573 0.667 0.573 0.373 0 0.675-0.302 0.675-0.675 0-0.038-0.003-0.074-0.009-0.11-0.117-0.758-0.323-1.524-0.583-2.246-1.038-2.889-3.173-5.38-6.167-6.792-1.497-0.706-3.067-1.062-4.625-1.125zM4.625 17.059c-0.294 0.074-0.508 0.336-0.508 0.648 0 0.036 0.003 0.072 0.008 0.106 0.117 0.757 0.323 1.524 0.583 2.246 1.038 2.889 3.173 5.38 6.167 6.792s6.277 1.496 9.167 0.458c2.889-1.038 5.422-3.215 6.833-6.208 0.059-0.098 0.095-0.216 0.095-0.342 0-0.368-0.299-0.667-0.667-0.667-0.297 0-0.549 0.194-0.635 0.463-1.259 2.673-3.473 4.581-6.043 5.505s-5.499 0.841-8.167-0.417c-2.668-1.258-4.577-3.471-5.5-6.042-0.231-0.643-0.395-1.282-0.5-1.958-0.032-0.341-0.317-0.605-0.664-0.605-0.060 0-0.119 0.008-0.174 0.023z"></path>
</svg>
