<!-- Generated by IcoMoon.io -->
<svg version="1.1" xmlns="http://www.w3.org/2000/svg" width="32" height="32" viewBox="0 0 32 32">
<title>mbri-change-style</title>
<path d="M5.333 22.667c-0.953 0-1.84 0.28-2.576 0.862-0.737 0.583-1.424 1.524-1.424 2.471v2.667c0 0.84-0.48 1.61-1.109 2.167-0.419 0.419-0.224 1.167 0.443 1.167h1.333c1.558-0.048 3.24-0.268 4.695-1.109 0.73-0.422 1.391-0.996 1.875-1.724 0.485-0.731 0.763-1.593 0.763-2.5 0-1.048-0.449-2.071-1.19-2.81s-1.766-1.19-2.81-1.19zM5.333 24c0.692 0.016 1.378 0.315 1.867 0.802s0.799 1.198 0.799 1.865c0 0.601-0.192 1.237-0.542 1.763-0.351 0.529-0.853 0.974-1.43 1.307-1.149 0.664-2.574 0.883-4.021 0.93 0.347-0.597 0.659-1.303 0.659-2v-2.667c0-0.603 0.438-1.049 0.917-1.427 0.48-0.379 1.131-0.587 1.75-0.573zM31.333 0c-0.105-0.002-0.194 0.021-0.289 0.068-6.001 2.9-11.655 6.516-16.802 10.75-1.227 1.010-2.475 2.094-3.451 3.461-0.916 1.284-1.458 2.888-1.458 4.388 0 1.066 0.447 2.093 1.198 2.833 0.738 0.728 1.751 1.167 2.802 1.167 1.487 0 3.091-0.497 4.383-1.401 1.382-0.967 2.461-2.226 3.466-3.458 4.22-5.175 7.836-10.841 10.75-16.849 0.213-0.437-0.114-0.947-0.599-0.958zM29.607 2.393c-2.674 5.15-5.788 10.076-9.456 14.573-0.988 1.212-1.999 2.368-3.201 3.208-1.047 0.733-2.438 1.159-3.617 1.159-0.67 0-1.377-0.3-1.865-0.781-0.493-0.486-0.802-1.204-0.802-1.885 0-1.166 0.459-2.562 1.208-3.612 0.855-1.198 2.009-2.213 3.216-3.206 4.47-3.677 9.377-6.792 14.516-9.456z"></path>
</svg>
