<!-- Generated by IcoMoon.io -->
<svg version="1.1" xmlns="http://www.w3.org/2000/svg" width="32" height="32" viewBox="0 0 32 32">
<title>mbri-touch-swipe</title>
<path d="M22.594 10.672c-0.429 0-0.843 0.055-1.224 0.305-0.325 0.213-0.564 0.519-0.701 0.872-0.042 0.109-0.054 0.222-0.076 0.333-0.016-0.006-0.028-0.015-0.044-0.021-0.42-0.143-0.884-0.201-1.354-0.117-0.474 0.084-0.928 0.309-1.273 0.685-0.334 0.363-0.519 0.816-0.573 1.276-0.014 0.115 0.042 0.215 0.044 0.328-0.037-0.012-0.062-0.039-0.099-0.049-0.404-0.116-0.84-0.143-1.271-0.049-0.432 0.094-0.839 0.305-1.161 0.628-0.31 0.31-0.511 0.7-0.609 1.115l-2.583-2.581c-0.23-0.229-0.48-0.48-0.784-0.711s-0.658-0.437-1.063-0.56c-0.407-0.124-0.85-0.158-1.289-0.065-0.441 0.093-0.85 0.311-1.174 0.635s-0.542 0.733-0.635 1.174c-0.093 0.439-0.058 0.882 0.065 1.289 0.123 0.405 0.328 0.758 0.56 1.063s0.481 0.554 0.711 0.784l9.664 9.661h-2.391c-0.344 0-0.719-0.002-1.117 0.052-0.399 0.054-0.813 0.166-1.203 0.375-0.393 0.21-0.744 0.511-1 0.904-0.257 0.394-0.398 0.858-0.398 1.336s0.142 0.942 0.398 1.336c0.256 0.393 0.607 0.694 1 0.904 0.391 0.209 0.804 0.321 1.203 0.375 0.398 0.054 0.773 0.052 1.117 0.052h8c0.902 0.013 0.855-1.333 0-1.333h-8c-0.341 0-0.656-0.003-0.938-0.042-0.28-0.038-0.538-0.112-0.753-0.227-0.212-0.113-0.395-0.276-0.513-0.458-0.117-0.18-0.182-0.399-0.182-0.607s0.065-0.426 0.182-0.607c0.118-0.182 0.301-0.345 0.513-0.458 0.214-0.115 0.472-0.188 0.753-0.227 0.282-0.038 0.596-0.042 0.938-0.042h4c0.594-0 0.881-0.729 0.471-1.138l-10.802-10.799c-0.228-0.228-0.433-0.438-0.594-0.648s-0.279-0.427-0.344-0.641c-0.064-0.211-0.077-0.434-0.036-0.628 0.040-0.191 0.141-0.375 0.273-0.508s0.316-0.233 0.508-0.273c0.193-0.041 0.416-0.028 0.628 0.036 0.214 0.065 0.431 0.184 0.641 0.344s0.421 0.366 0.648 0.594l5.469 5.466c0.582 0.606 1.55-0.36 0.943-0.943l-0.667-0.667c-0.224-0.224-0.425-0.429-0.578-0.635s-0.268-0.422-0.328-0.633c-0.060-0.21-0.070-0.43-0.029-0.622 0.041-0.191 0.14-0.372 0.268-0.5s0.309-0.227 0.5-0.268c0.192-0.042 0.413-0.031 0.622 0.029 0.211 0.060 0.427 0.175 0.633 0.328s0.404 0.362 0.635 0.578l0.727 0.678c0.593 0.553 1.479-0.335 0.877-0.937-0.535-0.535-0.858-0.921-1.031-1.379-0.086-0.227-0.121-0.463-0.096-0.672 0.024-0.205 0.112-0.401 0.232-0.531 0.123-0.134 0.318-0.237 0.526-0.273 0.212-0.038 0.455-0.015 0.69 0.065 0.647 0.272 1.006 0.646 1.409 1.049 0.635 0.635 1.537-0.443 0.943-0.943-0.164-0.138-0.298-0.335-0.404-0.453-0.095-0.136-0.159-0.274-0.182-0.398-0.023-0.122-0.012-0.249 0.026-0.346 0.037-0.097 0.111-0.188 0.19-0.24 0.094-0.062 0.247-0.101 0.406-0.091 0.165 0.011 0.35 0.070 0.536 0.169 0.381 0.204 0.745 0.563 1.151 0.969l6.667 6.667c0.6 0.6 1.54-0.346 0.943-0.943l-6.667-6.667c-0.398-0.398-0.842-0.868-1.464-1.201-0.315-0.168-0.678-0.323-1.081-0.323zM11.333 8c-0.876 0-0.881 1.333 0 1.333h1.057l-1.529 1.529c-0.596 0.572 0.363 1.547 0.943 0.943l1.529-1.529v1.057c0 0.896 1.333 0.87 1.333 0v-2.667c-0-0.368-0.299-0.667-0.667-0.667zM3.333 16c-0.368 0.006-0.667 0.277-0.667 0.667v2.667c0 0.368 0.298 0.667 0.667 0.667h2.667c0.902 0.013 0.902-1.346 0-1.333h-1.057l1.529-1.529c0.402-0.393 0.146-1.142-0.471-1.138-0.173 0.001-0.35 0.072-0.471 0.195l-1.529 1.529v-1.057c0.006-0.387-0.29-0.673-0.667-0.667zM9.333 26c0 0.368-0.298 0.667-0.667 0.667s-0.667-0.298-0.667-0.667c0-0.368 0.298-0.667 0.667-0.667s0.667 0.298 0.667 0.667zM7.333 2.667h2.667c0.369 0 0.667 0.297 0.667 0.667s-0.297 0.667-0.667 0.667h-2.667c-0.369 0-0.667-0.297-0.667-0.667s0.297-0.667 0.667-0.667zM2 0c-1.096 0-2 0.904-2 2v25.333c0 1.096 0.904 2 2 2h6.667c0.902 0.013 0.902-1.346 0-1.333h-6.667c-0.381 0-0.667-0.286-0.667-0.667v-25.333c0-0.381 0.286-0.667 0.667-0.667h13.333c0.381 0 0.667 0.286 0.667 0.667v9.333c-0.013 0.902 1.346 0.902 1.333 0v-9.333c0-1.096-0.904-2-2-2z"></path>
</svg>
