<!-- Generated by IcoMoon.io -->
<svg version="1.1" xmlns="http://www.w3.org/2000/svg" width="32" height="32" viewBox="0 0 32 32">
<title>mbri-alert</title>
<path d="M13.333 30c0 1.193 1.196 2 2.667 2 1.47 0 2.667-0.806 2.667-2 0-0.887-1.333-0.865-1.333 0 0 0.142-0.384 0.667-1.333 0.667-0.948 0-1.333-0.531-1.333-0.667 0-0.885-1.333-0.865-1.333 0zM16 0c-2.284 0-4 1.601-4 3.333 0 0.915 1.333 0.841 1.333 0 0-0.84 1.002-2 2.667-2 1.666 0 2.667 1.152 2.667 2 0 0.871 1.333 0.893 1.333 0 0-1.736-1.717-3.333-4-3.333zM7.333 4h-0.667c-2.217 0-4 1.783-4 4v0.667c0.005 0.352-0.314 0.667-0.667 0.667s-0.672-0.314-0.667-0.667v-0.667c0-2.938 2.396-5.333 5.333-5.333h0.667c0.449 0 0.669 0.333 0.667 0.667s-0.227 0.667-0.667 0.667zM24.667 4h0.667c2.217 0 4 1.783 4 4v0.667c-0.005 0.352 0.314 0.667 0.667 0.667s0.672-0.314 0.667-0.667v-0.667c0-2.938-2.396-5.333-5.333-5.333h-0.667c-0.449 0-0.669 0.333-0.667 0.667s0.227 0.667 0.667 0.667zM16 5.333c-3.37 0-5.84 1.472-7.375 3.625s-1.958 4.936-1.958 7.708c0 5.23-1.39 7.621-3.833 10.208-0.347 0.366-0.093 1.125 0.5 1.125h25.333c0.614 0 0.854-0.751 0.5-1.125-2.443-2.587-3.833-4.978-3.833-10.208 0-2.772-0.424-5.555-1.958-7.708s-4.005-3.625-7.375-3.625zM16 6.667c2.998 0 4.974 1.194 6.292 3.042s1.708 4.396 1.708 6.958c0 4.761 1.416 7.523 3.417 10h-22.833c2.001-2.477 3.417-5.239 3.417-10 0-2.563 0.391-5.11 1.708-6.958s3.293-3.042 6.292-3.042z"></path>
</svg>
