<!-- Generated by IcoMoon.io -->
<svg version="1.1" xmlns="http://www.w3.org/2000/svg" width="32" height="32" viewBox="0 0 32 32">
<title>mbri-plus</title>
<path d="M17.333 15.333c0-0.369 0.297-0.667 0.667-0.667h12c0.369 0 0.667 0.297 0.667 0.667s-0.297 0.667-0.667 0.667h-12c-0.369 0-0.667-0.297-0.667-0.667zM0 15.333c0-0.369 0.297-0.667 0.667-0.667h12c0.369 0 0.667 0.297 0.667 0.667s-0.297 0.667-0.667 0.667h-12c-0.369 0-0.667-0.297-0.667-0.667zM15.333 0c0.369 0 0.667 0.297 0.667 0.667v29.333c0 0.369-0.297 0.667-0.667 0.667s-0.667-0.297-0.667-0.667v-29.333c0-0.369 0.297-0.667 0.667-0.667z"></path>
</svg>
