<!-- Generated by IcoMoon.io -->
<svg version="1.1" xmlns="http://www.w3.org/2000/svg" width="32" height="32" viewBox="0 0 32 32">
<title>mbri-bookmark</title>
<path d="M3.333 0c-1.097 0-2 0.903-2 2v28.667c0 0.278 0.063 0.59 0.25 0.833s0.503 0.393 0.792 0.458c0.578 0.131 1.153-0.059 1.917-0.375l11.703-4.833 11.714 4.833c0.81 0.295 1.339 0.506 1.917 0.375 0.289-0.066 0.605-0.215 0.792-0.458s0.25-0.555 0.25-0.833v-28.667c0-1.097-0.903-2-2-2zM3.333 1.333h25.333c0.381 0 0.667 0.285 0.667 0.667v28.667c-0.091 0.021-0.455-0.015-1.042-0.292l-12.005-4.958c-0.184-0.090-0.399-0.090-0.583 0l-11.995 4.958c-0.587 0.276-0.951 0.312-1.042 0.292v-28.667c0-0.381 0.286-0.667 0.667-0.667zM7.333 5.333c-0.369 0-0.667 0.297-0.667 0.667s0.297 0.667 0.667 0.667h17.333c0.369 0 0.667-0.297 0.667-0.667s-0.297-0.667-0.667-0.667zM7.333 9.333c-0.369 0-0.667 0.297-0.667 0.667s0.297 0.667 0.667 0.667h17.333c0.369 0 0.667-0.297 0.667-0.667s-0.297-0.667-0.667-0.667zM7.333 13.333c-0.369 0-0.667 0.297-0.667 0.667s0.297 0.667 0.667 0.667h17.333c0.369 0 0.667-0.297 0.667-0.667s-0.297-0.667-0.667-0.667z"></path>
</svg>
