<!-- Generated by IcoMoon.io -->
<svg version="1.1" xmlns="http://www.w3.org/2000/svg" width="32" height="32" viewBox="0 0 32 32">
<title>mbri-error</title>
<path d="M18.856 14.869l-2.19 2.19-2.19-2.19c-0.586-0.603-1.546 0.352-0.941 0.941l2.19 2.19-2.19 2.19c-0.611 0.594 0.326 1.556 0.941 0.941l2.19-2.19 2.192 2.192c0.61 0.61 1.557-0.342 0.941-0.941l-2.192-2.192 2.19-2.19c0.269-0.261 0.27-0.692 0.004-0.951s-0.688-0.254-0.945 0.011zM2 4c-1.096 0-2 0.904-2 2v20c0 1.096 0.904 2 2 2h28c1.096 0 2-0.904 2-2v-20c0-1.096-0.904-2-2-2zM2 5.333h28c0.381 0 0.667 0.286 0.667 0.667v20c0 0.381-0.286 0.667-0.667 0.667h-28c-0.381 0-0.667-0.286-0.667-0.667v-20c0-0.381 0.286-0.667 0.667-0.667zM3.333 6.667c-0.368 0-0.667 0.298-0.667 0.667s0.298 0.667 0.667 0.667c0.368 0 0.667-0.298 0.667-0.667s-0.298-0.667-0.667-0.667zM6 6.667c-0.368 0-0.667 0.298-0.667 0.667s0.298 0.667 0.667 0.667c0.368 0 0.667-0.298 0.667-0.667s-0.298-0.667-0.667-0.667zM8.667 6.667c-0.368 0-0.667 0.298-0.667 0.667s0.298 0.667 0.667 0.667c0.368 0 0.667-0.298 0.667-0.667s-0.298-0.667-0.667-0.667zM3.333 9.333c-0.369 0-0.667 0.297-0.667 0.667s0.297 0.667 0.667 0.667h25.333c0.369 0 0.667-0.297 0.667-0.667s-0.297-0.667-0.667-0.667z"></path>
</svg>
