<!-- Generated by IcoMoon.io -->
<svg version="1.1" xmlns="http://www.w3.org/2000/svg" width="32" height="32" viewBox="0 0 32 32">
<title>mbri-link</title>
<path d="M24 24c4.42 0 8-3.58 8-8s-3.58-8-8-8h-3.333c-0.451-0.006-0.667 0.33-0.667 0.667s0.216 0.673 0.667 0.667h3.333c3.705 0 6.667 2.962 6.667 6.667s-2.962 6.667-6.667 6.667h-4c-3.705 0-6.667-2.962-6.667-6.667v-0.667c0.006-0.451-0.33-0.667-0.667-0.667s-0.673 0.216-0.667 0.667v0.667c0 4.42 3.58 8 8 8zM8 8c-4.42 0-8 3.58-8 8s3.58 8 8 8h3.333c0.451 0.006 0.667-0.33 0.667-0.667s-0.216-0.673-0.667-0.667h-3.333c-3.705 0-6.667-2.962-6.667-6.667s2.962-6.667 6.667-6.667h4c3.705 0 6.667 2.962 6.667 6.667v0.667c-0.006 0.451 0.33 0.667 0.667 0.667s0.673-0.216 0.667-0.667v-0.667c0-4.42-3.58-8-8-8z"></path>
</svg>
