<!-- Generated by IcoMoon.io -->
<svg version="1.1" xmlns="http://www.w3.org/2000/svg" width="32" height="32" viewBox="0 0 32 32">
<title>mbri-flag</title>
<path d="M7.333 1.333c-0.881 0-0.87 1.333 0 1.333h21.542l-3.461 6.346c-0.109 0.2-0.109 0.441 0 0.641l3.461 6.346h-21.542c-0.88 0-0.865 1.333 0 1.333h22.667c0.507 0.001 0.829-0.542 0.586-0.987l-3.826-7.013 3.826-7.013c0.244-0.445-0.079-0.988-0.586-0.987zM3.333 0c-1.096 0-2 0.904-2 2v28c0 1.096 0.904 2 2 2s2-0.904 2-2v-28c0-1.096-0.904-2-2-2zM3.333 1.333c0.381 0 0.667 0.286 0.667 0.667v28c0 0.381-0.286 0.667-0.667 0.667s-0.667-0.286-0.667-0.667v-28c0-0.381 0.286-0.667 0.667-0.667z"></path>
</svg>
