<!-- Generated by IcoMoon.io -->
<svg version="1.1" xmlns="http://www.w3.org/2000/svg" width="32" height="32" viewBox="0 0 32 32">
<title>mbri-more-vertical</title>
<path d="M18.667 3.333c0-1.833-1.5-3.333-3.333-3.333s-3.333 1.5-3.333 3.333 1.5 3.333 3.333 3.333c1.833 0 3.333-1.5 3.333-3.333zM18.667 15.333c0-1.833-1.5-3.333-3.333-3.333s-3.333 1.5-3.333 3.333 1.5 3.333 3.333 3.333c1.833 0 3.333-1.5 3.333-3.333zM18.667 27.333c0-1.833-1.5-3.333-3.333-3.333s-3.333 1.5-3.333 3.333 1.5 3.333 3.333 3.333c1.833 0 3.333-1.5 3.333-3.333zM17.333 3.333c0 1.112-0.888 2-2 2s-2-0.887-2-2 0.887-2 2-2c1.112 0 2 0.888 2 2zM17.333 15.333c0 1.112-0.888 2-2 2s-2-0.887-2-2 0.887-2 2-2c1.112 0 2 0.888 2 2zM17.333 27.333c0 1.112-0.888 2-2 2s-2-0.887-2-2 0.887-2 2-2c1.112 0 2 0.888 2 2z"></path>
</svg>
