<!-- Generated by IcoMoon.io -->
<svg version="1.1" xmlns="http://www.w3.org/2000/svg" width="32" height="32" viewBox="0 0 32 32">
<title>mbri-image-gallery</title>
<path d="M11.333 6.667c-0.076 0.001-0.181 0.015-0.253 0.042l-9.807 3.741c-1.043 0.397-1.533 1.606-1.135 2.626l5.326 13.648c0.399 1.022 1.59 1.617 2.624 1.071l4.837-2.514c0.858-0.412 0.21-1.602-0.598-1.185l-4.835 2.511c-0.27 0.142-0.663-0.041-0.8-0.393l-0.387-0.99 2.637-1.318c0.642-0.307 0.436-1.245-0.275-1.238-0.104 0.001-0.206 0.027-0.299 0.075l-2.549 1.238-4.453-11.412c-0.138-0.354 0.019-0.741 0.353-0.868l9.812-3.736c0.73-0.278 0.534-1.297-0.199-1.297zM16.667 14.667c-0.105-0.001-0.203 0.023-0.297 0.070l-2.667 1.333c-0.798 0.357-0.128 1.591 0.625 1.177l2.042-1.021 1.034 2.070c0.164 0.329 0.564 0.463 0.893 0.299l4.74-2.37 1.008 2.034c0.378 0.846 1.64 0.218 1.193-0.594l-1.307-2.63c-0.164-0.329-0.564-0.463-0.893-0.299l-4.74 2.37-1.034-2.070c-0.112-0.225-0.34-0.368-0.596-0.37zM17.464 4.149c-0.987-0.418-2.135 0.073-2.542 1.088l-5.443 13.576c-0.407 1.015 0.071 2.196 1.058 2.615l12 5.089c0.987 0.419 2.135-0.073 2.542-1.088l5.443-13.576c0.407-1.015-0.071-2.196-1.058-2.615zM16.969 5.384l12 5.089c0.343 0.145 0.494 0.519 0.353 0.872l-4.701 11.725-13.2-5.598 4.701-11.725c0.141-0.353 0.505-0.508 0.847-0.363zM10.926 18.705l13.2 5.598-0.247 0.617c-0.141 0.353-0.505 0.508-0.847 0.363l-12-5.089c-0.343-0.145-0.494-0.519-0.353-0.872zM18.667 8c-1.465 0-2.667 1.202-2.667 2.667s1.202 2.667 2.667 2.667c1.465 0 2.667-1.202 2.667-2.667s-1.202-2.667-2.667-2.667zM18.667 9.333c0.744 0 1.333 0.589 1.333 1.333s-0.589 1.333-1.333 1.333c-0.744 0-1.333-0.589-1.333-1.333s0.589-1.333 1.333-1.333zM6 12c-1.097 0-2 0.903-2 2s0.903 2 2 2c1.097 0 2-0.903 2-2s-0.903-2-2-2zM6 13.333c0.376 0 0.667 0.291 0.667 0.667s-0.291 0.667-0.667 0.667c-0.376 0-0.667-0.291-0.667-0.667s0.291-0.667 0.667-0.667zM8.667 16c-0.292-0.002-0.544 0.178-0.633 0.456l-1.333 4c-0.101 0.304 0.063 0.878 0.633 0.878 0.133 0 0.481 0 0.633-0.456l1.333-4c0.15-0.431-0.176-0.874-0.633-0.878z"></path>
</svg>
