<!-- Generated by IcoMoon.io -->
<svg version="1.1" xmlns="http://www.w3.org/2000/svg" width="32" height="32" viewBox="0 0 32 32">
<title>mbri-menu</title>
<path d="M0.667 25.333h30.667c0.369 0 0.667 0.297 0.667 0.667s-0.297 0.667-0.667 0.667h-30.667c-0.369 0-0.667-0.297-0.667-0.667s0.297-0.667 0.667-0.667zM0.667 14.667h30.667c0.369 0 0.667 0.297 0.667 0.667s-0.297 0.667-0.667 0.667h-30.667c-0.369 0-0.667-0.297-0.667-0.667s0.297-0.667 0.667-0.667zM0.667 4h30.667c0.369 0 0.667 0.297 0.667 0.667s-0.297 0.667-0.667 0.667h-30.667c-0.369 0-0.667-0.297-0.667-0.667s0.297-0.667 0.667-0.667z"></path>
</svg>
