<!-- Generated by IcoMoon.io -->
<svg version="1.1" xmlns="http://www.w3.org/2000/svg" width="32" height="32" viewBox="0 0 32 32">
<title>mbri-github</title>
<path d="M16 0c-8.829 0-16 7.171-16 16 0 7.63 5.388 13.947 12.542 15.542 0.038 0.008 0.081 0.012 0.126 0.012 0.358 0 0.65-0.282 0.666-0.635l0-6.085c0-0.49 0.242-0.933 0.625-1.167 0.184-0.121 0.304-0.326 0.304-0.56 0-0.314-0.216-0.577-0.508-0.648-4.149-0.747-7.088-3.433-7.088-6.459 0-1.169 0.442-2.316 1.208-3.292 0.076-0.104 0.122-0.234 0.125-0.374v-4.001l3.458 1.583c0.088 0.045 0.191 0.072 0.301 0.072 0.071 0 0.139-0.011 0.203-0.032 1.209-0.419 2.574-0.624 4.037-0.624s2.828 0.204 4.042 0.625c0.059 0.019 0.128 0.030 0.199 0.030 0.11 0 0.214-0.027 0.305-0.074l3.455-1.582v4c0.003 0.141 0.049 0.271 0.126 0.377 0.765 0.974 1.207 2.121 1.207 3.29 0 3.026-2.939 5.713-7.083 6.458-0.296 0.072-0.513 0.335-0.513 0.649 0 0.234 0.12 0.439 0.302 0.558 0.386 0.235 0.628 0.678 0.628 1.168v6.083c0.016 0.355 0.308 0.637 0.666 0.637 0.044 0 0.088-0.004 0.13-0.013 7.149-1.594 12.537-7.911 12.537-15.541 0-8.829-7.171-16-16-16zM16 1.333c8.108 0 14.667 6.559 14.667 14.667 0 6.699-4.537 12.162-10.667 13.917v-5.083c0-0.522-0.156-1.004-0.417-1.417 4.032-1.096 7.083-3.877 7.083-7.417 0-1.412-0.499-2.739-1.333-3.875v-4.792c0-0.008 0-0.017 0-0.026 0-0.368-0.299-0.667-0.667-0.667-0.106 0-0.207 0.025-0.296 0.069l-4.204 1.915c-1.3-0.415-2.681-0.625-4.167-0.625s-2.866 0.21-4.167 0.625l-4.208-1.917c-0.085-0.043-0.186-0.067-0.292-0.067-0.368 0-0.667 0.298-0.667 0.667 0 0.009 0 0.018 0.001 0.027l-0 4.79c-0.835 1.136-1.333 2.463-1.333 3.875 0 3.54 3.051 6.32 7.083 7.417-0.261 0.413-0.417 0.895-0.417 1.417v0.667c-0.893 0.321-1.662 0.547-2.208 0.542-0.627 0-0.992-0.172-1.417-0.875-0.525-0.87-0.995-1.555-1.5-2.083s-1.075-0.901-1.75-1.042c-0.038-0.008-0.081-0.012-0.125-0.012s-0.087 0.004-0.129 0.012c-0.36 0.005-0.653 0.301-0.653 0.666s0.293 0.661 0.657 0.667c0.387 0.080 0.663 0.229 1.042 0.625s0.827 1.036 1.333 1.875c0.607 1.006 1.563 1.491 2.542 1.5 0.709 0.010 1.445-0.2 2.208-0.458v3c-6.13-1.755-10.667-7.218-10.667-13.917 0-8.108 6.559-14.667 14.667-14.667z"></path>
</svg>
