<!-- Generated by IcoMoon.io -->
<svg version="1.1" xmlns="http://www.w3.org/2000/svg" width="32" height="32" viewBox="0 0 32 32">
<title>mbri-laptop</title>
<path d="M6 6.667c-0.368 0-0.667 0.298-0.667 0.667v14.667c0 0.87 1.333 0.892 1.333 0v-14h18.667v14c0 0.897 1.333 0.875 1.333 0v-14.667c-0-0.368-0.299-0.667-0.667-0.667zM4.667 4c-1.096 0-2 0.904-2 2v16c0 0.892 1.346 0.88 1.333 0v-16c0-0.381 0.286-0.667 0.667-0.667h22.667c0.381 0 0.667 0.286 0.667 0.667v16c0 0.891 1.333 0.875 1.333 0v-16c0-1.096-0.904-2-2-2zM0.667 24c-0.368 0-0.667 0.299-0.667 0.667 0 1.835 1.498 3.333 3.333 3.333h25.333c1.835 0 3.333-1.498 3.333-3.333-0-0.368-0.299-0.667-0.667-0.667zM1.607 25.333h28.786c-0.289 0.743-0.87 1.333-1.727 1.333h-25.333c-0.857 0-1.437-0.59-1.727-1.333z"></path>
</svg>
