<!-- Generated by IcoMoon.io -->
<svg version="1.1" xmlns="http://www.w3.org/2000/svg" width="32" height="32" viewBox="0 0 32 32">
<title>mbri-contact-form</title>
<path d="M4.667 13.333c-1.096 0-2 0.904-2 2v5.333c0 1.096 0.904 2 2 2h4c1.096 0 2-0.904 2-2v-5.333c0-1.096-0.904-2-2-2h-4zM4.667 14.667h4c0.381 0 0.667 0.286 0.667 0.667v5.333c0 0.381-0.286 0.667-0.667 0.667h-4c-0.381 0-0.667-0.286-0.667-0.667v-5.333c0-0.381 0.286-0.667 0.667-0.667zM12.667 21.333h14.667c0.369 0 0.667 0.297 0.667 0.667s-0.297 0.667-0.667 0.667h-14.667c-0.369 0-0.667-0.297-0.667-0.667s0.297-0.667 0.667-0.667zM7.333 2.667c-0.369 0-0.667 0.297-0.667 0.667v5.333c0 0.369 0.297 0.667 0.667 0.667s0.667-0.297 0.667-0.667v-5.333c0-0.369-0.297-0.667-0.667-0.667zM24.667 2.667c-0.369 0-0.667 0.297-0.667 0.667v5.333c0 0.369 0.297 0.667 0.667 0.667s0.667-0.297 0.667-0.667v-5.333c0-0.369-0.297-0.667-0.667-0.667zM2 5.333c-1.096 0-2 0.904-2 2v20c0 1.096 0.904 2 2 2h28c1.096 0 2-0.904 2-2v-20c0-1.096-0.904-2-2-2h-2.667c-0.446 0-0.667 0.33-0.667 0.667s0.216 0.667 0.667 0.667h2.667c0.381 0 0.667 0.286 0.667 0.667v20c0 0.381-0.286 0.667-0.667 0.667h-28c-0.381 0-0.667-0.286-0.667-0.667v-20c0-0.381 0.286-0.667 0.667-0.667h2.667c0.448 0 0.67-0.333 0.667-0.667s-0.231-0.667-0.667-0.667zM10 5.333c-0.431 0-0.667 0.33-0.667 0.667s0.216 0.673 0.667 0.667h12c0.397 0 0.667-0.33 0.667-0.667s-0.199-0.667-0.667-0.667zM12.667 13.333c-0.369 0-0.667 0.297-0.667 0.667s0.297 0.667 0.667 0.667h14.667c0.369 0 0.667-0.297 0.667-0.667s-0.297-0.667-0.667-0.667zM12.667 17.333c-0.369 0-0.667 0.297-0.667 0.667s0.297 0.667 0.667 0.667h14.667c0.369 0 0.667-0.297 0.667-0.667s-0.297-0.667-0.667-0.667z"></path>
</svg>
