<!-- Generated by IcoMoon.io -->
<svg version="1.1" xmlns="http://www.w3.org/2000/svg" width="32" height="32" viewBox="0 0 32 32">
<title>mbri-zoom-out</title>
<path d="M10.875 17.534l-10.024 10.002c-1.192 1.19-1.033 2.844-0.138 3.745s2.55 1.062 3.747-0.135l9.987-9.987c0.654-0.628-0.336-1.575-0.943-0.943l-9.987 9.987c-0.772 0.772-1.425 0.575-1.859 0.138s-0.627-1.101 0.135-1.862l10.024-10.002c0.56-0.56-0.336-1.549-0.943-0.943zM16.667 9.333h9.333c0.891 0 0.863 1.333 0 1.333h-9.333c-0.868 0-0.871-1.333 0-1.333zM21.333 0c-5.883 0-10.667 4.783-10.667 10.667s4.784 10.667 10.667 10.667c5.883 0 10.667-4.783 10.667-10.667s-4.784-10.667-10.667-10.667zM21.333 1.333c5.163 0 9.333 4.171 9.333 9.333s-4.171 9.333-9.333 9.333c-5.163 0-9.333-4.171-9.333-9.333s4.171-9.333 9.333-9.333z"></path>
</svg>
