<!-- Generated by IcoMoon.io -->
<svg version="1.1" xmlns="http://www.w3.org/2000/svg" width="32" height="32" viewBox="0 0 32 32">
<title>mbri-to-ftp</title>
<path d="M14 9.333c-0.87 0-0.886 1.333 0 1.333h2v7.333c0 0.881 1.333 0.886 1.333 0v-7.333h2c0.886 0 0.871-1.333 0-1.333zM7.333 9.333c-0.368 0-0.667 0.299-0.667 0.667v8c0 0.891 1.333 0.881 1.333 0v-3.333h2c0.87 0 0.87-1.333 0-1.333h-2v-2.667h3.333c0.886 0 0.876-1.333 0-1.333zM21.333 18c0 0.891 1.333 0.876 1.333 0v-3.333h0.667c0.941 0 1.751-0.175 2.37-0.63s0.964-1.21 0.964-2.036c0-0.835-0.365-1.588-0.987-2.039s-1.429-0.628-2.346-0.628h-1.333c-0.368 0-0.667 0.299-0.667 0.667zM22.667 10.667h0.667c0.739 0 1.265 0.157 1.563 0.372s0.438 0.463 0.438 0.961c0 0.507-0.135 0.752-0.422 0.964s-0.811 0.37-1.578 0.37h-0.667zM16.667 21.333c-0.18 0.001-0.349 0.073-0.471 0.195l-2.667 2.667c-0.654 0.628 0.314 1.597 0.943 0.943l2.195-2.195 2.195 2.195c0.628 0.654 1.597-0.314 0.943-0.943l-2.667-2.667c-0.128-0.128-0.292-0.197-0.471-0.195zM16.667 24c0.369 0 0.667 0.297 0.667 0.667v6.667c0 0.369-0.297 0.667-0.667 0.667s-0.667-0.297-0.667-0.667v-6.667c0-0.369 0.297-0.667 0.667-0.667zM2 0c-1.096 0-2 0.904-2 2v22.667c0 1.096 0.904 2 2 2h8c0.902 0 0.864-1.333 0-1.333h-8c-0.381 0-0.667-0.286-0.667-0.667v-22.667c0-0.381 0.286-0.667 0.667-0.667h7.724l5.138 5.138c0.125 0.125 0.295 0.195 0.471 0.195h15.333v18c0 0.381-0.286 0.667-0.667 0.667h-6.667c-0.849 0-0.902 1.333 0 1.333h6.667c1.096 0 2-0.904 2-2v-18.667c-0-0.368-0.299-0.667-0.667-0.667h-15.724l-5.138-5.138c-0.125-0.125-0.295-0.195-0.471-0.195z"></path>
</svg>
