<!-- Generated by IcoMoon.io -->
<svg version="1.1" xmlns="http://www.w3.org/2000/svg" width="32" height="32" viewBox="0 0 32 32">
<title>mbri-sites</title>
<path d="M6 14.667c-1.096 0-2 0.904-2 2v4c0 1.096 0.904 2 2 2h2.667c1.096 0 2-0.904 2-2v-4c0-1.096-0.904-2-2-2h-2.667zM6 16h2.667c0.381 0 0.667 0.286 0.667 0.667v4c0 0.381-0.286 0.667-0.667 0.667h-2.667c-0.381 0-0.667-0.286-0.667-0.667v-4c0-0.381 0.286-0.667 0.667-0.667zM12.667 20h13.333c0.369 0 0.667 0.297 0.667 0.667s-0.297 0.667-0.667 0.667h-13.333c-0.369 0-0.667-0.297-0.667-0.667s0.297-0.667 0.667-0.667zM12.667 16h13.333c0.369 0 0.667 0.297 0.667 0.667s-0.297 0.667-0.667 0.667h-13.333c-0.369 0-0.667-0.297-0.667-0.667s0.297-0.667 0.667-0.667zM2 4c-1.096 0-2 0.904-2 2v20c0 1.096 0.904 2 2 2h28c1.096 0 2-0.904 2-2v-20c0-1.096-0.904-2-2-2zM2 5.333h28c0.381 0 0.667 0.286 0.667 0.667v20c0 0.381-0.286 0.667-0.667 0.667h-28c-0.381 0-0.667-0.286-0.667-0.667v-20c0-0.381 0.286-0.667 0.667-0.667zM3.333 6.667c-0.368 0-0.667 0.298-0.667 0.667s0.298 0.667 0.667 0.667c0.368 0 0.667-0.298 0.667-0.667s-0.298-0.667-0.667-0.667zM6 6.667c-0.368 0-0.667 0.298-0.667 0.667s0.298 0.667 0.667 0.667c0.368 0 0.667-0.298 0.667-0.667s-0.298-0.667-0.667-0.667zM8.667 6.667c-0.368 0-0.667 0.298-0.667 0.667s0.298 0.667 0.667 0.667c0.368 0 0.667-0.298 0.667-0.667s-0.298-0.667-0.667-0.667zM3.333 9.333c-0.369 0-0.667 0.297-0.667 0.667s0.297 0.667 0.667 0.667h25.333c0.369 0 0.667-0.297 0.667-0.667s-0.297-0.667-0.667-0.667z"></path>
</svg>
