<!-- Generated by IcoMoon.io -->
<svg version="1.1" xmlns="http://www.w3.org/2000/svg" width="32" height="32" viewBox="0 0 32 32">
<title>mbri-info</title>
<path d="M16 12c-1.466 0-2.667 1.201-2.667 2.667v9.333c0 1.466 1.201 2.667 2.667 2.667s2.667-1.201 2.667-2.667v-9.333c0-1.466-1.201-2.667-2.667-2.667zM16 13.333c0.75 0 1.333 0.583 1.333 1.333v9.333c0 0.75-0.583 1.333-1.333 1.333s-1.333-0.583-1.333-1.333v-9.333c0-0.75 0.583-1.333 1.333-1.333zM16 5.333c-1.465 0-2.667 1.202-2.667 2.667s1.202 2.667 2.667 2.667c1.465 0 2.667-1.202 2.667-2.667s-1.202-2.667-2.667-2.667zM16 6.667c0.744 0 1.333 0.589 1.333 1.333s-0.589 1.333-1.333 1.333c-0.744 0-1.333-0.589-1.333-1.333s0.589-1.333 1.333-1.333zM16 0c-8.829 0-16 7.171-16 16s7.171 16 16 16c8.829 0 16-7.171 16-16s-7.171-16-16-16zM16 1.333c8.108 0 14.667 6.559 14.667 14.667s-6.559 14.667-14.667 14.667c-8.108 0-14.667-6.559-14.667-14.667s6.559-14.667 14.667-14.667z"></path>
</svg>
