<!-- Generated by IcoMoon.io -->
<svg version="1.1" xmlns="http://www.w3.org/2000/svg" width="32" height="32" viewBox="0 0 32 32">
<title>mbri-chat</title>
<path d="M2 1.333c-1.096 0-2 0.904-2 2v20c0 1.096 0.904 2 2 2h3.333v4.667c0 0.368 0.299 0.666 0.667 0.666 0.184 0 0.351-0.075 0.471-0.195l5.138-5.138h18.391c1.096 0 2-0.904 2-2v-20c0-1.096-0.904-2-2-2h-28zM2 2.667h28c0.381 0 0.667 0.286 0.667 0.667v20c0 0.381-0.286 0.667-0.667 0.667h-18.667c-0.184 0-0.351 0.075-0.471 0.195l-4.195 4.195v-3.724c-0-0.368-0.298-0.667-0.667-0.667h-4c-0.381 0-0.667-0.286-0.667-0.667v-20c0-0.381 0.286-0.667 0.667-0.667zM4.667 6.667c-0.369 0-0.667 0.297-0.667 0.667s0.297 0.667 0.667 0.667h22.667c0.369 0 0.667-0.297 0.667-0.667s-0.297-0.667-0.667-0.667h-22.667zM4.667 10.667c-0.369 0-0.667 0.297-0.667 0.667s0.297 0.667 0.667 0.667h22.667c0.369 0 0.667-0.297 0.667-0.667s-0.297-0.667-0.667-0.667h-22.667zM4.667 14.667c-0.369 0-0.667 0.297-0.667 0.667s0.297 0.667 0.667 0.667h22.667c0.369 0 0.667-0.297 0.667-0.667s-0.297-0.667-0.667-0.667h-22.667z"></path>
</svg>
