<!-- Generated by IcoMoon.io -->
<svg version="1.1" xmlns="http://www.w3.org/2000/svg" width="32" height="32" viewBox="0 0 32 32">
<title>mbri-wifi</title>
<path d="M16 5.333c-5.668 0-11.303 1.959-15.747 5.477-0.662 0.523 0.176 1.563 0.828 1.047 4.203-3.326 9.559-5.19 14.919-5.19s10.716 1.864 14.919 5.19c0.651 0.515 1.508-0.509 0.828-1.047-4.444-3.517-10.079-5.477-15.747-5.477zM16 12c-3.855 0-7.669 1.526-10.461 4.185-0.605 0.579 0.298 1.56 0.922 0.964 2.535-2.415 6.038-3.815 9.539-3.815s7.004 1.4 9.539 3.815c0.61 0.584 1.538-0.374 0.922-0.964-2.792-2.659-6.606-4.185-10.461-4.185zM16 18.667c-1.055 0-2.102 0.279-3.018 0.802s-1.688 1.284-2.224 2.193c-0.393 0.681 0.702 1.441 1.151 0.677 0.416-0.706 1.023-1.307 1.734-1.714s1.537-0.625 2.357-0.625c0.819 0 1.645 0.218 2.357 0.625s1.318 1.008 1.734 1.714c0.459 0.78 1.555 0.010 1.151-0.677-0.536-0.909-1.308-1.669-2.224-2.193s-1.963-0.802-3.018-0.802zM17.333 25.333c0 0.736-0.597 1.333-1.333 1.333s-1.333-0.597-1.333-1.333c0-0.736 0.597-1.333 1.333-1.333s1.333 0.597 1.333 1.333z"></path>
</svg>
