<!-- Generated by IcoMoon.io -->
<svg version="1.1" xmlns="http://www.w3.org/2000/svg" width="32" height="32" viewBox="0 0 32 32">
<title>mbri-camera</title>
<path d="M4.667 2.667c-1.096 0-2 0.904-2 2v1.333c-0.006 0.451 0.33 0.667 0.667 0.667s0.673-0.216 0.667-0.667v-1.333c0-0.381 0.286-0.667 0.667-0.667h5.333c0.381 0 0.667 0.286 0.667 0.667v1.333c-0.006 0.451 0.33 0.667 0.667 0.667s0.673-0.216 0.667-0.667v-1.333c0-1.096-0.904-2-2-2h-5.333zM2 8c-1.096 0-2 0.904-2 2v17.333c0 1.096 0.904 2 2 2h28c1.096 0 2-0.904 2-2v-17.333c0-1.096-0.904-2-2-2h-28zM2 9.333h28c0.381 0 0.667 0.286 0.667 0.667v17.333c0 0.381-0.286 0.667-0.667 0.667h-28c-0.381 0-0.667-0.286-0.667-0.667v-17.333c0-0.381 0.286-0.667 0.667-0.667zM24.667 10.667c-1.096 0-2 0.904-2 2s0.904 2 2 2h2.667c1.096 0 2-0.904 2-2s-0.904-2-2-2h-2.667zM16 12c-3.674 0-6.667 2.993-6.667 6.667s2.993 6.667 6.667 6.667c3.674 0 6.667-2.993 6.667-6.667s-2.993-6.667-6.667-6.667zM24.667 12h2.667c0.381 0 0.667 0.286 0.667 0.667s-0.286 0.667-0.667 0.667h-2.667c-0.381 0-0.667-0.286-0.667-0.667s0.286-0.667 0.667-0.667zM16 13.333c2.953 0 5.333 2.38 5.333 5.333s-2.38 5.333-5.333 5.333c-2.953 0-5.333-2.38-5.333-5.333s2.38-5.333 5.333-5.333z"></path>
</svg>
