<!-- Generated by IcoMoon.io -->
<svg version="1.1" xmlns="http://www.w3.org/2000/svg" width="32" height="32" viewBox="0 0 32 32">
<title>mbri-idea</title>
<path d="M15.333 0c-0.369 0-0.667 0.297-0.667 0.667v2.667c0 0.369 0.297 0.667 0.667 0.667s0.667-0.297 0.667-0.667v-2.667c0-0.369-0.297-0.667-0.667-0.667zM6 4c-0.598 0-0.893 0.721-0.464 1.138l1.328 1.336c0.606 0.608 1.54-0.365 0.94-0.943l-1.328-1.336c-0.125-0.13-0.296-0.195-0.477-0.195zM24.666 4c-0.18 0-0.351 0.065-0.477 0.195l-1.331 1.336c-0.599 0.578 0.334 1.551 0.94 0.943l1.331-1.336c0.43-0.417 0.134-1.138-0.464-1.138zM15.333 6.667c-2.093 0-3.958 1.194-5.258 3.013s-2.076 4.281-2.076 6.987c0 2.706 0.776 5.167 2.076 6.987s3.165 3.013 5.258 3.013c2.093 0 3.958-1.194 5.258-3.013s2.076-4.281 2.076-6.987c0-2.706-0.776-5.167-2.076-6.987s-3.165-3.013-5.258-3.013zM15.333 8c1.589 0 3.059 0.897 4.172 2.456s1.828 3.762 1.828 6.211c0 2.449-0.715 4.652-1.828 6.211-0.622 0.871-1.358 1.526-2.161 1.943 0.026-1.708 0.228-3.133 0.531-4 0.374-1.069 0.913-1.735 1.781-2.237 0.616-0.34 0.346-1.25-0.349-1.25-0.111 0.004-0.22 0.039-0.315 0.096-1.126 0.651-1.916 1.646-2.372 2.951-0.443 1.266-0.611 2.826-0.62 4.776-0.503 0.184-0.903 0.148-1.333 0-0.009-1.95-0.177-3.51-0.62-4.776-0.457-1.304-1.246-2.3-2.372-2.951-0.095-0.057-0.204-0.092-0.315-0.096-0.694 0-0.965 0.91-0.349 1.25 0.868 0.502 1.407 1.168 1.781 2.237 0.303 0.867 0.505 2.314 0.531 4-0.803-0.417-1.54-1.072-2.161-1.943-1.113-1.558-1.828-3.762-1.828-6.211s0.715-4.652 1.828-6.211c1.113-1.559 2.583-2.456 4.172-2.456zM2 16c-0.369 0-0.667 0.297-0.667 0.667s0.297 0.667 0.667 0.667h2.667c0.369 0 0.667-0.297 0.667-0.667s-0.297-0.667-0.667-0.667zM26 16c-0.369 0-0.667 0.297-0.667 0.667s0.297 0.667 0.667 0.667h2.667c0.369 0 0.667-0.297 0.667-0.667s-0.297-0.667-0.667-0.667zM11.333 28c-0.369 0-0.667 0.297-0.667 0.667s0.297 0.667 0.667 0.667h8c0.369 0 0.667-0.297 0.667-0.667s-0.297-0.667-0.667-0.667zM11.333 30.667c-0.369 0-0.667 0.297-0.667 0.667s0.297 0.667 0.667 0.667h8c0.369 0 0.667-0.297 0.667-0.667s-0.297-0.667-0.667-0.667z"></path>
</svg>
