<!-- Generated by IcoMoon.io -->
<svg version="1.1" xmlns="http://www.w3.org/2000/svg" width="32" height="32" viewBox="0 0 32 32">
<title>mbri-align-center</title>
<path d="M0.667 25.333h30.667c0.908 0 0.863 1.333 0 1.333h-30.667c-0.86 0-0.898-1.333 0-1.333zM8.667 18.667h14.667c0.897 0 0.872 1.333 0 1.333h-14.667c-0.868 0-0.892-1.333 0-1.333zM0.667 12h30.667c0.868 0 0.906 1.333 0 1.333h-30.667c-0.873 0-0.887-1.333 0-1.333zM8.667 5.333h14.667c0.878 0 0.879 1.333 0 1.333h-14.667c-0.871 0-0.887-1.333 0-1.333z"></path>
</svg>
