<!-- Generated by IcoMoon.io -->
<svg version="1.1" xmlns="http://www.w3.org/2000/svg" width="32" height="32" viewBox="0 0 32 32">
<title>mbri-clock</title>
<path d="M4 15.333c0 0.368-0.298 0.667-0.667 0.667s-0.667-0.298-0.667-0.667c0-0.368 0.298-0.667 0.667-0.667s0.667 0.298 0.667 0.667zM16 27.333c0 0.368-0.298 0.667-0.667 0.667s-0.667-0.298-0.667-0.667c0-0.368 0.298-0.667 0.667-0.667s0.667 0.298 0.667 0.667zM28 15.333c0 0.368-0.298 0.667-0.667 0.667s-0.667-0.298-0.667-0.667c0-0.368 0.298-0.667 0.667-0.667s0.667 0.298 0.667 0.667zM16 3.333c0 0.368-0.298 0.667-0.667 0.667s-0.667-0.298-0.667-0.667c0-0.368 0.298-0.667 0.667-0.667s0.667 0.298 0.667 0.667zM15.333 5.333c-0.369 0-0.667 0.297-0.667 0.667v7.458c-0.772 0.278-1.333 1.013-1.333 1.875 0 1.097 0.903 2 2 2 0.862 0 1.597-0.561 1.875-1.333h4.792c0.369 0 0.667-0.297 0.667-0.667s-0.297-0.667-0.667-0.667h-4.792c-0.203-0.562-0.646-1.006-1.208-1.208v-7.458c0-0.369-0.297-0.667-0.667-0.667zM15.333 14.667c0.376 0 0.667 0.291 0.667 0.667s-0.291 0.667-0.667 0.667c-0.376 0-0.667-0.291-0.667-0.667s0.291-0.667 0.667-0.667zM15.333 0c-8.46 0-15.333 6.873-15.333 15.333s6.873 15.333 15.333 15.333c8.46 0 15.333-6.873 15.333-15.333s-6.873-15.333-15.333-15.333zM15.333 1.333c7.74 0 14 6.26 14 14s-6.26 14-14 14c-7.74 0-14-6.26-14-14s6.26-14 14-14z"></path>
</svg>
