<!-- Generated by IcoMoon.io -->
<svg version="1.1" xmlns="http://www.w3.org/2000/svg" width="32" height="32" viewBox="0 0 32 32">
<title>mbri-shopping-basket</title>
<path d="M22 14.667c0.369 0 0.667 0.297 0.667 0.667v9.333c0 0.369-0.297 0.667-0.667 0.667s-0.667-0.297-0.667-0.667v-9.333c0-0.369 0.297-0.667 0.667-0.667zM15.333 14.667c0.369 0 0.667 0.297 0.667 0.667v9.333c0 0.369-0.297 0.667-0.667 0.667s-0.667-0.297-0.667-0.667v-9.333c0-0.369 0.297-0.667 0.667-0.667zM8.667 14.667c0.369 0 0.667 0.297 0.667 0.667v9.333c0 0.369-0.297 0.667-0.667 0.667s-0.667-0.297-0.667-0.667v-9.333c0-0.369 0.297-0.667 0.667-0.667zM20.684 1.333c0.173 0.005 0.337 0.075 0.457 0.199l5.321 5.321c0.624 0.599-0.339 1.567-0.941 0.941l-5.321-5.321c-0.399-0.399-0.132-1.139 0.483-1.139zM9.983 1.334c-0.173 0.005-0.337 0.077-0.457 0.2l-5.321 5.321c-0.621 0.596 0.337 1.57 0.941 0.941l5.321-5.321c0.422-0.413 0.113-1.141-0.483-1.141zM2.711 9.333c-0.919 0-1.72 0.412-2.19 1.068s-0.619 1.512-0.461 2.385l2.659 14.667c0.15 0.829 0.487 1.61 1.042 2.211s1.354 1.003 2.273 1.003h18.599c0.919 0 1.719-0.402 2.273-1.003s0.891-1.382 1.042-2.211l2.659-14.667c0.158-0.873 0.009-1.729-0.461-2.385s-1.271-1.068-2.19-1.068zM2.711 10.667h25.245c0.553 0 0.882 0.196 1.107 0.51s0.337 0.789 0.232 1.37l-2.659 14.667c-0.113 0.624-0.368 1.178-0.708 1.547s-0.741 0.573-1.294 0.573h-18.599c-0.553 0-0.954-0.204-1.294-0.573s-0.595-0.922-0.708-1.547l-2.659-14.667c-0.105-0.581 0.007-1.056 0.232-1.37s0.554-0.51 1.107-0.51z"></path>
</svg>
