<!-- Generated by IcoMoon.io -->
<svg version="1.1" xmlns="http://www.w3.org/2000/svg" width="32" height="32" viewBox="0 0 32 32">
<title>mbri-paperclip</title>
<path d="M25.43 0.002c-1.463-0.045-2.839 0.542-3.935 1.57l-19.249 18.070c-2.995 2.811-2.995 7.428 0 10.239s7.815 2.84 10.789-0.005l16.090-15.399c0.626-0.599-0.34-1.52-0.922-0.963l-16.090 15.399c-2.446 2.341-6.481 2.32-8.955-0.003s-2.474-5.974 0-8.297l19.252-18.070c0.879-0.825 1.89-1.241 2.979-1.208s2.287 0.523 3.51 1.671c1.223 1.148 1.73 2.26 1.766 3.246s-0.396 1.901-1.268 2.731c0 0-12.646 12.028-18.969 18.042-1.359 1.292-3.945 1.299-5.296 0.030-1.382-1.298-1.546-3.254-0.23-4.454 5.405-4.927 16.214-14.78 16.214-14.78 0.634-0.581-0.307-1.527-0.901-0.984 0 0-10.809 9.853-16.214 14.78-1.903 1.735-1.679 4.626 0.22 6.409 1.93 1.812 5.329 1.669 7.113-0.028l18.971-18.042c1.101-1.025 1.743-2.341 1.693-3.751s-0.78-2.852-2.185-4.171c-1.405-1.319-2.92-1.988-4.383-2.033z"></path>
</svg>
