<!-- Generated by IcoMoon.io -->
<svg version="1.1" xmlns="http://www.w3.org/2000/svg" width="32" height="32" viewBox="0 0 32 32">
<title>mbri-photo</title>
<path d="M8.667 5.333c-1.833 0-3.333 1.5-3.333 3.333s1.5 3.333 3.333 3.333c1.833 0 3.333-1.5 3.333-3.333s-1.5-3.333-3.333-3.333zM8.667 6.667c1.112 0 2 0.888 2 2s-0.888 2-2 2c-1.112 0-2-0.888-2-2s0.888-2 2-2zM22 12c-0.156 0.002-0.326 0.059-0.444 0.161l-8.889 7.58-3.517-3.555c-0.26-0.26-0.681-0.26-0.941 0l-5.324 5.322c-0.653 0.627 0.314 1.594 0.941 0.941l4.841-4.844 3.535 3.514c0.246 0.246 0.641 0.261 0.905 0.034l8.894-7.58 6.175 6.216c0.627 0.653 1.594-0.314 0.941-0.941l-6.655-6.653c-0.127-0.127-0.28-0.198-0.46-0.195zM3.333 25.333h25.333c0.369 0 0.667 0.297 0.667 0.667s-0.297 0.667-0.667 0.667h-25.333c-0.369 0-0.667-0.297-0.667-0.667s0.297-0.667 0.667-0.667zM2 0c-1.096 0-2 0.904-2 2v28c0 1.096 0.904 2 2 2h28c1.096 0 2-0.904 2-2v-28c0-1.096-0.904-2-2-2h-28zM2 1.333h28c0.381 0 0.667 0.286 0.667 0.667v28c0 0.381-0.286 0.667-0.667 0.667h-28c-0.381 0-0.667-0.286-0.667-0.667v-28c0-0.381 0.286-0.667 0.667-0.667z"></path>
</svg>
