<!-- Generated by IcoMoon.io -->
<svg version="1.1" xmlns="http://www.w3.org/2000/svg" width="32" height="32" viewBox="0 0 32 32">
<title>mbri-italic</title>
<path d="M20 0.017c-1.465 0-2.667 1.202-2.667 2.667s1.202 2.667 2.667 2.667 2.667-1.202 2.667-2.667c0-1.465-1.202-2.667-2.667-2.667zM20 1.35c0.744 0 1.333 0.589 1.333 1.333s-0.589 1.333-1.333 1.333c-0.744 0-1.333-0.589-1.333-1.333s0.589-1.333 1.333-1.333zM17.583 6.667c-0.457 0-0.89 0.084-1.292 0.208-1.205 0.371-2.154 1.201-2.833 2-0.905 1.065-1.375 2.125-1.375 2.125-0.381 0.802 0.72 1.46 1.167 0.542 0 0 0.432-0.921 1.208-1.833 0.534-0.629 1.212-1.199 2-1.5 0.314-0.12 0.43 0.221 0.458 0.458 0.052 0.432-0.124 1.301-0.5 2.375-0.752 2.147-2.261 5.142-3.708 8.125s-2.824 5.951-3.25 8.333c-0.213 1.191-0.219 2.255 0.292 3.125s1.561 1.375 2.875 1.375c1.832 0 3.312-1.142 4.333-2.208s1.625-2.167 1.625-2.167c0.393-0.681-0.731-1.379-1.167-0.625 0 0-0.518 0.937-1.417 1.875-0.428 0.447-0.91 0.893-1.458 1.208-0.313 0.18-0.553-0.063-0.583-0.417-0.036-0.426 0.146-1.315 0.542-2.375 0.79-2.12 2.329-5.016 3.75-7.958s2.743-5.918 3.042-8.292c0.15-1.187 0.035-2.284-0.583-3.125s-1.704-1.25-3.125-1.25zM18.042 8c0.84 0.076 1.309 0.336 1.583 0.708 0.323 0.44 0.46 1.158 0.333 2.167-0.254 2.018-1.51 4.962-2.917 7.875s-2.945 5.812-3.792 8.083c-0.423 1.136-0.711 2.103-0.625 2.958 0.029 0.288 0.138 0.581 0.292 0.833-0.888 0.135-1.675-0.087-2-0.667-0.244-0.436-0.352-1.212-0.167-2.25 0.371-2.076 1.688-5.038 3.125-8s2.982-5.938 3.792-8.25c0.405-1.156 0.669-2.13 0.542-3-0.023-0.161-0.104-0.304-0.167-0.458z"></path>
</svg>
