<!-- Generated by IcoMoon.io -->
<svg version="1.1" xmlns="http://www.w3.org/2000/svg" width="32" height="32" viewBox="0 0 32 32">
<title>mbri-devices</title>
<path d="M8.667 24c-0.9 0-1.67 0.592-1.917 1.417l-3.542 0.583c-0.319 0.061-0.547 0.342-0.542 0.667v2.667c-0.006 0.324 0.223 0.606 0.542 0.667l3.542 0.583c0.247 0.825 1.017 1.417 1.917 1.417h4c0.9 0 1.67-0.592 1.917-1.417l3.542-0.583c0.319-0.061 0.547-0.342 0.542-0.667v-2.667c0.006-0.324-0.223-0.606-0.542-0.667l-3.542-0.583c-0.247-0.825-1.017-1.417-1.917-1.417zM8.667 25.333h4c0.381 0 0.667 0.286 0.667 0.667v4c0 0.381-0.286 0.667-0.667 0.667h-4c-0.381 0-0.667-0.286-0.667-0.667v-4c0-0.381 0.286-0.667 0.667-0.667zM6.667 26.792v2.417l-2.667-0.458v-1.5zM14.667 26.792l2.667 0.458v1.5l-2.667 0.458zM2 1.333c-1.096 0-2 0.904-2 2v16c0 1.096 0.904 2 2 2h15.991c0.352 0.005 0.676-0.314 0.676-0.667s-0.324-0.672-0.676-0.667h-15.991c-0.381 0-0.667-0.286-0.667-0.667v-16c0-0.381 0.286-0.667 0.667-0.667h25.333c0.381 0 0.667 0.286 0.667 0.667v6.667c-0.005 0.352 0.314 0.662 0.667 0.662s0.672-0.31 0.667-0.662v-6.667c0-1.096-0.904-2-2-2zM5.333 5.333v12c0 0.768 0.54 1.333 1.333 1.333h11.333c0.352 0.005 0.676-0.314 0.676-0.667s-0.324-0.672-0.676-0.667h-11.333v-12h18.667v4.667c-0.005 0.352 0.314 0.671 0.667 0.671s0.672-0.319 0.667-0.671v-4.667c0-0.827-0.593-1.333-1.333-1.333h-18.667c-0.753 0-1.333 0.562-1.333 1.333zM26 28c0.369 0 0.667 0.297 0.667 0.667s-0.297 0.667-0.667 0.667c-0.369 0-0.667-0.297-0.667-0.667s0.297-0.667 0.667-0.667zM24.667 14.667h2.667c0.369 0 0.667 0.297 0.667 0.667s-0.297 0.667-0.667 0.667h-2.667c-0.369 0-0.667-0.297-0.667-0.667s0.297-0.667 0.667-0.667zM22 12c-1.096 0-2 0.904-2 2v16c0 1.096 0.904 2 2 2h8c1.096 0 2-0.904 2-2v-16c0-1.096-0.904-2-2-2zM22 13.333h8c0.381 0 0.667 0.286 0.667 0.667v16c0 0.381-0.286 0.667-0.667 0.667h-8c-0.381 0-0.667-0.286-0.667-0.667v-16c0-0.381 0.286-0.667 0.667-0.667zM3.333 10.667c0.369 0 0.667 0.297 0.667 0.667s-0.297 0.667-0.667 0.667c-0.369 0-0.667-0.297-0.667-0.667s0.297-0.667 0.667-0.667z"></path>
</svg>
