<!-- Generated by IcoMoon.io -->
<svg version="1.1" xmlns="http://www.w3.org/2000/svg" width="32" height="32" viewBox="0 0 32 32">
<title>mbri-magic-stick</title>
<path d="M23.869 4.014c-0.005-0-0.011-0-0.017-0-0.12 0-0.233 0.030-0.331 0.082l-4.989 2.603-5.076-2.455c-0.090-0.044-0.196-0.070-0.308-0.070-0.377 0-0.682 0.292-0.682 0.652 0 0.043 0.004 0.085 0.012 0.125l1.048 5.34-4.009 3.857c-0.122 0.118-0.197 0.28-0.197 0.459 0 0.33 0.256 0.602 0.589 0.646l5.645 0.698 2.597 4.837c0.115 0.213 0.344 0.356 0.607 0.356 0.271 0 0.505-0.151 0.615-0.369l2.439-4.916 5.615-0.867c0.328-0.051 0.574-0.32 0.574-0.644 0-0.186-0.082-0.355-0.213-0.473l-4.135-3.735 0.873-5.372c0.005-0.030 0.008-0.065 0.008-0.101 0-0.354-0.296-0.642-0.664-0.652zM22.966 5.872l-0.719 4.407c-0.005 0.029-0.008 0.063-0.008 0.098 0 0.187 0.082 0.355 0.214 0.474l3.392 3.063-4.605 0.712c-0.225 0.035-0.411 0.172-0.506 0.359l-2.002 4.036-2.129-3.97c-0.102-0.188-0.292-0.321-0.517-0.35l-4.63-0.57 3.29-3.162c0.122-0.118 0.198-0.28 0.198-0.459 0-0.043-0.004-0.085-0.013-0.125l-0.86-4.378 4.163 2.012c0.090 0.044 0.196 0.070 0.308 0.070 0.12 0 0.233-0.030 0.331-0.082l4.092-2.136zM32 10c0 0.369-0.297 0.667-0.667 0.667h-2.667c-0.369 0-0.667-0.297-0.667-0.667s0.297-0.667 0.667-0.667h2.667c0.369 0 0.667 0.297 0.667 0.667zM5.977 6.661c-0.643 0-0.923 0.958-0.273 1.268l2.667 1.333c0.731 0.403 1.403-0.831 0.594-1.193l-2.667-1.333c-0.099-0.052-0.209-0.077-0.32-0.076zM23.333 18.667c-0.516-0.004-0.82 0.514-0.589 0.964l1.333 2.667c0.383 0.857 1.533 0.025 1.193-0.594l-1.333-2.667c-0.109-0.226-0.353-0.368-0.603-0.37zM18 0c0.369 0 0.667 0.297 0.667 0.667v2.667c0 0.369-0.297 0.667-0.667 0.667s-0.667-0.297-0.667-0.667v-2.667c0-0.369 0.297-0.667 0.667-0.667zM12.654 17.334c-0.173 0.001-0.337 0.072-0.458 0.195l-11.628 11.625c-0.363 0.363-0.567 0.806-0.567 1.254 0 0.437 0.137 0.857 0.426 1.153s0.71 0.44 1.15 0.44c0.445 0 0.899-0.203 1.267-0.57l11.628-11.625c0.604-0.58-0.351-1.535-0.943-0.943l-11.628 11.625c-0.439 0.439-0.792 0.010-0.391-0.391l11.628-11.625c0.402-0.393 0.134-1.142-0.484-1.138z"></path>
</svg>
