<!-- Generated by IcoMoon.io -->
<svg version="1.1" xmlns="http://www.w3.org/2000/svg" width="32" height="32" viewBox="0 0 32 32">
<title>mbri-cart-full</title>
<path d="M19.333 2.667c-0.173 0.003-0.349 0.073-0.471 0.195l-3.526 3.521-2.193-2.19c-0.26-0.259-0.68-0.259-0.94 0l-2.664 2.661c-0.632 0.564 0.371 1.576 0.94 0.94l2.193-2.19 2.195 2.19c0.26 0.259 0.68 0.259 0.94 0l3.526-3.521 3.526 3.521c0.26 0.259 0.68 0.259 0.94 0l2.201-2.19 2.188 2.19c0.573 0.64 1.575-0.374 0.94-0.94l-2.664-2.661c-0.26-0.259-0.68-0.259-0.94 0l-2.19 2.19-3.529-3.521c-0.127-0.128-0.291-0.198-0.471-0.195zM0.667 5.333c-0.451-0.006-0.667 0.33-0.667 0.667s0.216 0.673 0.667 0.667h3.469l3.214 14.148c0.002 0.009 0.005 0.017 0.008 0.026 0.114 0.423 0.29 0.847 0.607 1.203s0.814 0.622 1.37 0.622h17.951c0.557 0 1.054-0.272 1.367-0.628s0.488-0.774 0.607-1.188l2.688-9.333c0.18-0.627-0.105-1.244-0.503-1.609s-0.886-0.576-1.443-0.576h-21.333c-0.451-0.006-0.667 0.33-0.667 0.667s0.216 0.673 0.667 0.667h21.305c0.472 0 0.759 0.233 0.693 0.482l-2.688 9.333c-0.166 0.619-0.381 0.852-0.693 0.852h-17.951c-0.469 0-0.564-0.373-0.688-0.833l-3.328-14.648c-0.069-0.304-0.34-0.519-0.651-0.518zM10 13.333c-0.369 0-0.667 0.297-0.667 0.667s0.297 0.667 0.667 0.667h17.333c0.369 0 0.667-0.297 0.667-0.667s-0.297-0.667-0.667-0.667zM11.333 17.333c-0.369 0-0.667 0.297-0.667 0.667s0.297 0.667 0.667 0.667h14.667c0.369 0 0.667-0.297 0.667-0.667s-0.297-0.667-0.667-0.667zM10.667 24c-1.465 0-2.667 1.202-2.667 2.667s1.202 2.667 2.667 2.667c1.465 0 2.667-1.202 2.667-2.667s-1.202-2.667-2.667-2.667zM25.333 24c-1.465 0-2.667 1.202-2.667 2.667s1.202 2.667 2.667 2.667c1.465 0 2.667-1.202 2.667-2.667s-1.202-2.667-2.667-2.667zM10.667 25.333c0.744 0 1.333 0.589 1.333 1.333s-0.589 1.333-1.333 1.333c-0.744 0-1.333-0.589-1.333-1.333s0.589-1.333 1.333-1.333zM25.333 25.333c0.744 0 1.333 0.589 1.333 1.333s-0.589 1.333-1.333 1.333c-0.744 0-1.333-0.589-1.333-1.333s0.589-1.333 1.333-1.333z"></path>
</svg>
