<!-- Generated by IcoMoon.io -->
<svg version="1.1" xmlns="http://www.w3.org/2000/svg" width="32" height="32" viewBox="0 0 32 32">
<title>mbri-folder</title>
<path d="M2 2.667c-1.096 0-2 0.904-2 2v22.667c0 1.096 0.904 2 2 2h28c1.096 0 2-0.904 2-2v-18.667c-0-0.368-0.299-0.667-0.667-0.667h-15.724l-5.138-5.138c-0.121-0.121-0.287-0.195-0.471-0.195h-8zM2 4h7.724l5.138 5.138c0.121 0.121 0.287 0.195 0.471 0.195h15.333v18c0 0.381-0.286 0.667-0.667 0.667h-28c-0.381 0-0.667-0.286-0.667-0.667v-22.667c0-0.381 0.286-0.667 0.667-0.667z"></path>
</svg>
