<!-- Generated by IcoMoon.io -->
<svg version="1.1" xmlns="http://www.w3.org/2000/svg" width="32" height="32" viewBox="0 0 32 32">
<title>mbri-growing-chart</title>
<path d="M27.333 10.667c-0.451-0.006-0.667 0.33-0.667 0.667s0.216 0.673 0.667 0.667h3.333v3.333c-0.006 0.451 0.33 0.667 0.667 0.667s0.673-0.216 0.667-0.667v-4c-0-0.368-0.299-0.667-0.667-0.667zM19.333 22.376l-4.847-4.856c-0.26-0.26-0.682-0.26-0.942 0l-10.659 10.654c-0.635 0.61 0.314 1.595 0.942 0.942l10.174-10.183 4.874 4.856c0.26 0.26 0.682 0.26 0.942 0l9.327-9.322c0.273-0.273 0.238-0.703-0.011-0.952s-0.693-0.212-0.874-0.009zM0.667 0c-0.368 0.006-0.672 0.298-0.667 0.667v30.667c0 0.368 0.298 0.667 0.667 0.667h30.667c0.451 0.006 0.667-0.33 0.667-0.667s-0.216-0.673-0.667-0.667h-30v-30c0.006-0.376-0.29-0.673-0.667-0.667z"></path>
</svg>
