<!-- Generated by IcoMoon.io -->
<svg version="1.1" xmlns="http://www.w3.org/2000/svg" width="32" height="32" viewBox="0 0 32 32">
<title>mbri-opened-folder</title>
<path d="M4.682 11.995c-0.552 0-1.052 0.254-1.38 0.612s-0.515 0.801-0.607 1.258l-2.661 13.333c-0.122 0.611 0.143 1.191 0.531 1.555s0.901 0.581 1.453 0.581h25.305c0.552 0 1.052-0.259 1.38-0.617s0.515-0.801 0.607-1.258l2.664-13.333c0.113-0.565-0.146-1.191-0.534-1.555s-0.901-0.576-1.453-0.576zM4.682 13.328h25.305c0.186 0 0.412 0.092 0.542 0.214s0.161 0.21 0.138 0.323l-2.664 13.333c-0.164 0.611-0.335 0.802-0.68 0.802h-25.305c-0.54 0-0.759-0.238-0.677-0.542l2.661-13.333c0.053-0.267 0.164-0.49 0.281-0.617s0.213-0.18 0.398-0.18zM2 2.667c-1.096 0-2 0.904-2 2v14.667c0 0.881 1.333 0.886 1.333 0v-14.667c0-0.381 0.286-0.667 0.667-0.667h6.391l5.138 5.138c0.125 0.125 0.295 0.195 0.471 0.195h14v0.667c0 0.907 1.333 0.865 1.333 0v-1.333c-0-0.368-0.299-0.667-0.667-0.667h-14.391l-5.138-5.138c-0.125-0.125-0.295-0.195-0.471-0.195z"></path>
</svg>
