<!-- Generated by IcoMoon.io -->
<svg version="1.1" xmlns="http://www.w3.org/2000/svg" width="32" height="32" viewBox="0 0 32 32">
<title>mbri-globe</title>
<path d="M20.667 2.667c-0.599 0-0.875 0.734-0.471 1.138 0 0 0.288 0.289 0.583 0.732s0.555 1.019 0.555 1.464c0 0.111-0.113 0.51-0.344 0.961s-0.555 0.974-0.885 1.495c-0.331 0.52-0.669 1.037-0.935 1.505s-0.503 0.822-0.503 1.372c0 0.556 0.333 1.145 0.906 1.49s1.353 0.51 2.427 0.51c0.926 0 1.48 0.167 1.74 0.323s0.26 0.233 0.26 0.344c0 0.208 0.099 0.429 0.219 0.56s0.242 0.197 0.352 0.245c0.218 0.096 0.415 0.129 0.63 0.159 0.431 0.060 0.93 0.072 1.411 0.117 0.606 0.056 1.366 0.21 1.365 0.362-0.002 0.334-0.309 0.755-0.93 1.169-0.636 0.424-1.528 0.721-2.38 0.721-1.074 0-1.854 0.166-2.427 0.51s-0.906 0.934-0.906 1.49c0 0.549-0.256 0.667-0.667 0.667-0.556 0-1.033 0.257-1.388 0.612s-0.612 0.832-0.612 1.388c0 0.556 0.204 1.411 0.841 2.503s1.72 2.346 3.482 3.404c0.732 0.439 1.419-0.707 0.688-1.146-1.571-0.943-2.488-2.021-3.018-2.93s-0.659-1.72-0.659-1.831c-0.035-0.398 0.286-0.667 0.667-0.667 0.556 0 1.033-0.257 1.388-0.612s0.612-0.832 0.612-1.388c0-0.111 0.001-0.188 0.26-0.344s0.814-0.323 1.74-0.323c1.148 0 2.256-0.369 3.12-0.945s1.547-1.388 1.547-2.388c0-0.333-0.153-0.666-0.365-0.88s-0.455-0.336-0.701-0.424c-0.491-0.177-1.029-0.233-1.547-0.276s-1.156-0.047-1.309-0.266c-0.242-0.348-0.412-0.632-0.986-0.977s-1.353-0.51-2.427-0.51c-0.926 0-1.48-0.167-1.74-0.323-0.353-0.204-0.156-0.666 0.070-1.057 0.234-0.412 0.563-0.92 0.898-1.448s0.679-1.078 0.948-1.604c0.269-0.527 0.49-1.012 0.49-1.568 0-0.889-0.407-1.646-0.779-2.203s-0.75-0.935-0.75-0.935c-0.126-0.13-0.291-0.195-0.471-0.195zM3.333 12c-0.451-0.006-0.667 0.33-0.667 0.667s0.216 0.673 0.667 0.667h1.133c0.504 0 0.68 1.333 1.534 1.333h1.333c0.432 0.007 0.667 0.302 0.667 0.667v2c0 0.573 0.084 1.17 0.378 1.698s0.9 0.969 1.622 0.969h1.333c0.422 0.007 0.667 0.312 0.667 0.667v6.667c0 0.889 0.544 1.517 1.036 1.763s0.964 0.237 0.964 0.237c0.451 0.006 0.667-0.33 0.667-0.667s-0.216-0.673-0.667-0.667c0 0-0.195-0.009-0.37-0.096s-0.297-0.126-0.297-0.57v-6.667c0-0.563-0.273-1.023-0.625-1.375s-0.812-0.625-1.375-0.625h-1.333c-0.547 0-0.667-0.667-0.667-1.333v-2c0-0.563-0.273-1.023-0.625-1.375s-0.812-0.625-1.375-0.625h-0.667c-0.667 0-0.758-0.426-1.104-0.888-0.163-0.218-0.503-0.445-0.896-0.445zM16 0c-8.829 0-16 7.171-16 16s7.171 16 16 16c8.829 0 16-7.171 16-16s-7.171-16-16-16zM16 1.333c8.108 0 14.667 6.559 14.667 14.667s-6.559 14.667-14.667 14.667c-8.108 0-14.667-6.559-14.667-14.667s6.559-14.667 14.667-14.667z"></path>
</svg>
