<!-- Generated by IcoMoon.io -->
<svg version="1.1" xmlns="http://www.w3.org/2000/svg" width="32" height="32" viewBox="0 0 32 32">
<title>mbri-unlink</title>
<path d="M19.966 29.773l-1.334-3.897c-0.252-0.924-1.565-0.588-1.251 0.406l1.334 3.897c0.226 0.832 1.507 0.535 1.251-0.406zM12.034 29.773l1.334-3.897c0.252-0.924 1.565-0.588 1.251 0.406l-1.334 3.897c-0.226 0.832-1.507 0.535-1.251-0.406zM19.966 2.227l-1.334 3.897c-0.252 0.924-1.565 0.588-1.251-0.406l1.334-3.897c0.226-0.832 1.507-0.535 1.251 0.406zM24 8c4.42 0 8 3.579 8 8s-3.58 8-8 8h-3.333c-0.881 0-0.888-1.333 0-1.333h3.333c3.705 0 6.667-2.962 6.667-6.667s-2.962-6.667-6.667-6.667h-3.333c-0.907 0-0.873-1.333 0-1.333zM12.034 2.227l1.334 3.897c0.252 0.924 1.565 0.588 1.251-0.406l-1.334-3.897c-0.226-0.832-1.507-0.535-1.251 0.406zM8 8c-4.42 0-8 3.579-8 8s3.58 8 8 8h3.333c0.881 0 0.888-1.333 0-1.333h-3.333c-3.705 0-6.667-2.962-6.667-6.667s2.962-6.667 6.667-6.667h3.333c0.908 0 0.873-1.333 0-1.333z"></path>
</svg>
