<!-- Generated by IcoMoon.io -->
<svg version="1.1" xmlns="http://www.w3.org/2000/svg" width="32" height="32" viewBox="0 0 32 32">
<title>mbri-photos</title>
<path d="M6.667 4c-1.465 0-2.667 1.202-2.667 2.667s1.202 2.667 2.667 2.667c1.465 0 2.667-1.202 2.667-2.667s-1.202-2.667-2.667-2.667zM6.667 5.333c0.744 0 1.333 0.589 1.333 1.333s-0.589 1.333-1.333 1.333c-0.744 0-1.333-0.589-1.333-1.333s0.589-1.333 1.333-1.333zM18 9.333c-0.148 0.002-0.318 0.065-0.433 0.157l-6.233 4.961-2.203-2.247c-0.234-0.235-0.606-0.262-0.871-0.062l-5.327 3.995c-0.704 0.529 0.143 1.561 0.801 1.067l4.933-3.67 2.186 2.276c0.24 0.24 0.622 0.261 0.887 0.049l6.26-4.955 3.507 3.574c0.628 0.654 1.595-0.314 0.942-0.942l-3.995-3.995c-0.127-0.127-0.273-0.209-0.454-0.206zM3.333 20h18.667c0.369 0 0.667 0.297 0.667 0.667s-0.297 0.667-0.667 0.667h-18.667c-0.369 0-0.667-0.297-0.667-0.667s0.297-0.667 0.667-0.667zM2 0c-1.096 0-2 0.904-2 2v21.333c0 1.096 0.904 2 2 2h21.333c1.096 0 2-0.904 2-2v-21.333c0-1.096-0.904-2-2-2h-21.333zM2 1.333h21.333c0.381 0 0.667 0.286 0.667 0.667v21.333c0 0.381-0.286 0.667-0.667 0.667h-21.333c-0.381 0-0.667-0.286-0.667-0.667v-21.333c0-0.381 0.286-0.667 0.667-0.667zM27.333 6.667c-0.457 0-0.667 0.33-0.667 0.667s0.221 0.667 0.667 0.667h2.667c0.381 0 0.667 0.286 0.667 0.667v21.333c0 0.381-0.286 0.667-0.667 0.667h-21.333c-0.381 0-0.667-0.286-0.667-0.667v-2.667c0.006-0.451-0.33-0.667-0.667-0.667-0.342 0-0.673 0.216-0.667 0.667v2.667c0 1.096 0.904 2 2 2h21.333c1.096 0 2-0.904 2-2v-21.333c0-1.096-0.904-2-2-2z"></path>
</svg>
