<!-- Generated by IcoMoon.io -->
<svg version="1.1" xmlns="http://www.w3.org/2000/svg" width="32" height="32" viewBox="0 0 32 32">
<title>mbri-star</title>
<path d="M16 0c-0.255-0.002-0.483 0.142-0.596 0.37l-4.529 9.057-10.37 2.594c-0.477 0.119-0.665 0.695-0.352 1.073l6.482 7.779-1.297 10.378c-0.067 0.536 0.497 0.925 0.974 0.672l9.688-5.167 9.688 5.167c0.477 0.253 1.041-0.136 0.974-0.672l-1.297-10.378 6.482-7.779c0.314-0.378 0.125-0.954-0.352-1.073l-10.37-2.594-4.529-9.057c-0.112-0.225-0.345-0.368-0.596-0.37zM16 2.156l4.070 8.141c0.087 0.174 0.246 0.302 0.435 0.349l9.635 2.409-5.987 7.185c-0.118 0.142-0.172 0.327-0.148 0.51l1.174 9.391-8.867-4.729c-0.195-0.104-0.43-0.104-0.625 0l-8.867 4.729 1.174-9.391c0.023-0.183-0.030-0.368-0.148-0.51l-5.987-7.185 9.635-2.409c0.189-0.047 0.348-0.175 0.435-0.349z"></path>
</svg>
