<!-- Generated by IcoMoon.io -->
<svg version="1.1" xmlns="http://www.w3.org/2000/svg" width="32" height="32" viewBox="0 0 32 32">
<title>mbri-to-local-drive</title>
<path d="M16.667 18.667c-0.18 0.001-0.349 0.073-0.471 0.195l-2.667 2.667c-0.654 0.628 0.314 1.597 0.943 0.943l2.195-2.195 2.195 2.195c0.628 0.654 1.597-0.314 0.943-0.943l-2.667-2.667c-0.128-0.128-0.292-0.197-0.471-0.195zM16.667 21.333c0.369 0 0.667 0.297 0.667 0.667v9.333c0 0.369-0.297 0.667-0.667 0.667s-0.667-0.297-0.667-0.667v-9.333c0-0.369 0.297-0.667 0.667-0.667zM2 0c-1.096 0-2 0.904-2 2v22.667c0 1.096 0.904 2 2 2h8c0.902 0 0.864-1.333 0-1.333h-8c-0.381 0-0.667-0.286-0.667-0.667v-22.667c0-0.381 0.286-0.667 0.667-0.667h7.724l5.138 5.138c0.125 0.125 0.295 0.195 0.471 0.195h15.333v18c0 0.381-0.286 0.667-0.667 0.667h-6.667c-0.849 0-0.902 1.333 0 1.333h6.667c1.096 0 2-0.904 2-2v-18.667c-0-0.368-0.299-0.667-0.667-0.667h-15.724l-5.138-5.138c-0.125-0.125-0.295-0.195-0.471-0.195z"></path>
</svg>
