<!-- Generated by IcoMoon.io -->
<svg version="1.1" xmlns="http://www.w3.org/2000/svg" width="32" height="32" viewBox="0 0 32 32">
<title>mbri-layers</title>
<path d="M27.333 6.667c-0.451 0-0.667 0.33-0.667 0.667s0.216 0.667 0.667 0.667h2.667c0.381 0 0.667 0.286 0.667 0.667v21.333c0 0.381-0.286 0.667-0.667 0.667h-21.333c-0.381 0-0.667-0.286-0.667-0.667v-2.667c0.006-0.451-0.33-0.667-0.667-0.667s-0.673 0.216-0.667 0.667v2.667c0 1.096 0.904 2 2 2h21.333c1.096 0 2-0.904 2-2v-21.333c0-1.096-0.904-2-2-2zM2 0c-1.096 0-2 0.904-2 2v21.333c0 1.096 0.904 2 2 2h21.333c1.096 0 2-0.904 2-2v-21.333c0-1.096-0.904-2-2-2zM2 1.333h21.333c0.381 0 0.667 0.286 0.667 0.667v21.333c0 0.381-0.286 0.667-0.667 0.667h-21.333c-0.381 0-0.667-0.286-0.667-0.667v-21.333c0-0.381 0.286-0.667 0.667-0.667z"></path>
</svg>
