<!-- Generated by IcoMoon.io -->
<svg version="1.1" xmlns="http://www.w3.org/2000/svg" width="32" height="32" viewBox="0 0 32 32">
<title>mbri-shopping-cart</title>
<path d="M0.607 4.135c-0.451-0.006-0.667 0.33-0.667 0.667s0.216 0.673 0.667 0.667h3.469l3.214 14.148c0.002 0.009 0.005 0.017 0.008 0.026 0.114 0.423 0.29 0.847 0.607 1.203s0.814 0.622 1.37 0.622h17.951c0.557 0 1.054-0.272 1.367-0.628s0.488-0.774 0.607-1.188l2.688-9.333c0.18-0.627-0.105-1.244-0.503-1.609s-0.914-0.576-1.471-0.576h-21.305c-0.451-0.006-0.667 0.33-0.667 0.667s0.216 0.673 0.667 0.667h21.305c0.472 0 0.759 0.233 0.693 0.482l-2.688 9.333c-0.166 0.619-0.381 0.852-0.693 0.852h-17.951c-0.183 0-0.255-0.042-0.372-0.174-0.116-0.131-0.237-0.373-0.315-0.659l-3.328-14.648c-0.069-0.304-0.34-0.519-0.651-0.518zM9.94 12.135c-0.369 0-0.667 0.297-0.667 0.667s0.297 0.667 0.667 0.667h17.333c0.369 0 0.667-0.297 0.667-0.667s-0.297-0.667-0.667-0.667zM11.273 16.135c-0.369 0-0.667 0.297-0.667 0.667s0.297 0.667 0.667 0.667h14.667c0.369 0 0.667-0.297 0.667-0.667s-0.297-0.667-0.667-0.667zM10.607 22.802c-1.465 0-2.667 1.202-2.667 2.667s1.202 2.667 2.667 2.667c1.465 0 2.667-1.202 2.667-2.667s-1.202-2.667-2.667-2.667zM25.273 22.802c-1.465 0-2.667 1.202-2.667 2.667s1.202 2.667 2.667 2.667c1.465 0 2.667-1.202 2.667-2.667s-1.202-2.667-2.667-2.667zM10.607 24.135c0.744 0 1.333 0.589 1.333 1.333s-0.589 1.333-1.333 1.333c-0.744 0-1.333-0.589-1.333-1.333s0.589-1.333 1.333-1.333zM25.273 24.135c0.744 0 1.333 0.589 1.333 1.333s-0.589 1.333-1.333 1.333c-0.744 0-1.333-0.589-1.333-1.333s0.589-1.333 1.333-1.333z"></path>
</svg>
