<!-- Generated by IcoMoon.io -->
<svg version="1.1" xmlns="http://www.w3.org/2000/svg" width="32" height="32" viewBox="0 0 32 32">
<title>mbri-features</title>
<path d="M24.021 0c-0.266-0.009-0.512 0.142-0.625 0.383l-2.115 4.508-4.716 0.465c-0.536 0.083-0.754 0.737-0.375 1.125l3.432 3.77-0.934 4.977c-0.090 0.55 0.495 0.961 0.982 0.69l4.33-2.483 4.335 2.483c0.487 0.27 1.071-0.14 0.982-0.69l-0.94-4.977 3.432-3.759c0.379-0.388 0.161-1.042-0.375-1.125l-4.716-0.475-2.115-4.508c-0.107-0.227-0.332-0.375-0.583-0.383zM24 2.237l1.661 3.542c0.095 0.201 0.283 0.341 0.503 0.375l3.786 0.334-2.76 3.072c-0.148 0.151-0.216 0.364-0.182 0.573l0.77 3.953-3.455-1.998c-0.201-0.111-0.445-0.111-0.646 0l-3.45 1.998 0.765-3.953c0.034-0.209-0.034-0.422-0.182-0.573l-2.76-3.082 3.786-0.324c0.22-0.034 0.408-0.174 0.503-0.375zM2.013 2.667c-1.103 0-2.013 0.91-2.013 2.013v9.307c0 1.103 0.91 2.013 2.013 2.013h9.307c1.103 0 2.013-0.91 2.013-2.013v-9.307c0-1.103-0.91-2.013-2.013-2.013zM2.013 4h9.307c0.387 0 0.68 0.292 0.68 0.68v9.307c0 0.387-0.292 0.68-0.68 0.68h-9.307c-0.387 0-0.68-0.292-0.68-0.68v-9.307c0-0.388 0.292-0.68 0.68-0.68zM18.013 18.667c-1.103 0-2.013 0.91-2.013 2.013v9.307c0 1.103 0.91 2.013 2.013 2.013h9.307c1.103 0 2.013-0.91 2.013-2.013v-9.307c0-1.103-0.91-2.013-2.013-2.013zM18.013 20h9.307c0.387 0 0.68 0.292 0.68 0.68v9.307c0 0.387-0.292 0.68-0.68 0.68h-9.307c-0.387 0-0.68-0.292-0.68-0.68v-9.307c0-0.387 0.292-0.68 0.68-0.68zM2.013 18.667c-1.103 0-2.013 0.91-2.013 2.013v9.307c0 1.103 0.91 2.013 2.013 2.013h9.307c1.103 0 2.013-0.91 2.013-2.013v-9.307c0-1.103-0.91-2.013-2.013-2.013zM2.013 20h9.307c0.387 0 0.68 0.292 0.68 0.68v9.307c0 0.387-0.292 0.68-0.68 0.68h-9.307c-0.387 0-0.68-0.292-0.68-0.68v-9.307c0-0.387 0.292-0.68 0.68-0.68z"></path>
</svg>
