<!-- Generated by IcoMoon.io -->
<svg version="1.1" xmlns="http://www.w3.org/2000/svg" width="32" height="32" viewBox="0 0 32 32">
<title>mbri-add-submenu</title>
<path d="M2.667 2.667c-1.466 0-2.667 1.201-2.667 2.667v1.333c0 1.466 1.201 2.667 2.667 2.667h21.333c1.466 0 2.667-1.201 2.667-2.667v-1.333c0-1.466-1.201-2.667-2.667-2.667h-21.333zM2.667 4h21.333c0.75 0 1.333 0.583 1.333 1.333v1.333c0 0.75-0.583 1.333-1.333 1.333h-21.333c-0.75 0-1.333-0.583-1.333-1.333v-1.333c0-0.75 0.583-1.333 1.333-1.333zM2.667 21.983v2.667c0 0.349 0.318 0.667 0.667 0.667h6.417l-1.542 1.5c-0.617 0.617 0.347 1.528 0.917 0.958l2.667-2.667c0.256-0.248 0.256-0.711 0-0.958l-2.667-2.667c-0.547-0.547-1.53 0.345-0.917 0.958l1.542 1.542h-5.75v-2c0-0.905-1.333-0.873-1.333 0zM17.333 21.333c-1.466 0-2.667 1.201-2.667 2.667v1.333c0 1.466 1.201 2.667 2.667 2.667h12c1.466 0 2.667-1.201 2.667-2.667v-1.333c0-1.466-1.201-2.667-2.667-2.667h-12zM17.333 22.667h12c0.75 0 1.333 0.583 1.333 1.333v1.333c0 0.75-0.583 1.333-1.333 1.333h-12c-0.75 0-1.333-0.583-1.333-1.333v-1.333c0-0.75 0.583-1.333 1.333-1.333zM2.667 12c-1.466 0-2.667 1.201-2.667 2.667v1.333c0 1.466 1.201 2.667 2.667 2.667h21.333c1.466 0 2.667-1.201 2.667-2.667v-1.333c0-1.466-1.201-2.667-2.667-2.667h-21.333zM2.667 13.333h21.333c0.75 0 1.333 0.583 1.333 1.333v1.333c0 0.75-0.583 1.333-1.333 1.333h-21.333c-0.75 0-1.333-0.583-1.333-1.333v-1.333c0-0.75 0.583-1.333 1.333-1.333z"></path>
</svg>
