<!-- Generated by IcoMoon.io -->
<svg version="1.1" xmlns="http://www.w3.org/2000/svg" width="32" height="32" viewBox="0 0 32 32">
<title>mbri-database</title>
<path d="M2 0c-1.096 0-2 0.904-2 2v25.333c0 1.096 0.904 2 2 2h0.667v2c0 0.368 0.298 0.667 0.667 0.667h4c0.368-0 0.667-0.299 0.667-0.667v-2h16v2c0 0.368 0.299 0.667 0.667 0.667h4c0.368-0 0.667-0.299 0.667-0.667v-2h0.667c1.096 0 2-0.904 2-2v-25.333c0-1.096-0.904-2-2-2h-28zM2 1.333h28c0.381 0 0.667 0.286 0.667 0.667v25.333c0 0.381-0.286 0.667-0.667 0.667h-28c-0.381 0-0.667-0.286-0.667-0.667v-25.333c0-0.381 0.286-0.667 0.667-0.667zM4.667 5.333c-0.368 0-0.667 0.298-0.667 0.667s0.298 0.667 0.667 0.667c0.368 0 0.667-0.298 0.667-0.667s-0.298-0.667-0.667-0.667zM8.667 5.333c-0.368 0-0.667 0.298-0.667 0.667s0.298 0.667 0.667 0.667c0.368 0 0.667-0.298 0.667-0.667s-0.298-0.667-0.667-0.667zM12.667 5.333c-0.368 0-0.667 0.298-0.667 0.667s0.298 0.667 0.667 0.667c0.368 0 0.667-0.298 0.667-0.667s-0.298-0.667-0.667-0.667zM3.333 9.333c-0.369 0-0.667 0.297-0.667 0.667s0.297 0.667 0.667 0.667h25.333c0.369 0 0.667-0.297 0.667-0.667s-0.297-0.667-0.667-0.667h-25.333zM8.667 14.667c-0.368 0-0.667 0.298-0.667 0.667s0.298 0.667 0.667 0.667c0.368 0 0.667-0.298 0.667-0.667s-0.298-0.667-0.667-0.667zM12.667 14.667c-0.368 0-0.667 0.298-0.667 0.667s0.298 0.667 0.667 0.667c0.368 0 0.667-0.298 0.667-0.667s-0.298-0.667-0.667-0.667zM16.667 14.667c-0.368 0-0.667 0.298-0.667 0.667s0.298 0.667 0.667 0.667c0.368 0 0.667-0.298 0.667-0.667s-0.298-0.667-0.667-0.667zM3.333 18.667c-0.369 0-0.667 0.297-0.667 0.667s0.297 0.667 0.667 0.667h25.333c0.369 0 0.667-0.297 0.667-0.667s-0.297-0.667-0.667-0.667h-25.333zM4.667 24c-0.368 0-0.667 0.298-0.667 0.667s0.298 0.667 0.667 0.667c0.368 0 0.667-0.298 0.667-0.667s-0.298-0.667-0.667-0.667zM8.667 24c-0.368 0-0.667 0.298-0.667 0.667s0.298 0.667 0.667 0.667c0.368 0 0.667-0.298 0.667-0.667s-0.298-0.667-0.667-0.667zM12.667 24c-0.368 0-0.667 0.298-0.667 0.667s0.298 0.667 0.667 0.667c0.368 0 0.667-0.298 0.667-0.667s-0.298-0.667-0.667-0.667zM4 29.333h2.667v1.333h-2.667v-1.333zM25.333 29.333h2.667v1.333h-2.667v-1.333z"></path>
</svg>
