<!-- Generated by IcoMoon.io -->
<svg version="1.1" xmlns="http://www.w3.org/2000/svg" width="32" height="32" viewBox="0 0 32 32">
<title>mbri-preview</title>
<path d="M15.333 10.667c-0.004-0-0.008-0-0.012-0-0.037 0-0.072 0.003-0.107 0.009-2.343 0.343-4.193 2.196-4.54 4.55-0.005 0.030-0.007 0.064-0.007 0.099 0 0.373 0.301 0.675 0.673 0.675 0.337 0 0.616-0.249 0.665-0.573 0.262-1.774 1.642-3.158 3.407-3.416 0.333-0.044 0.588-0.327 0.588-0.669 0-0.37-0.298-0.671-0.666-0.675zM16 8c-4.41 0-8 3.59-8 8s3.59 8 8 8c4.41 0 8-3.59 8-8s-3.59-8-8-8zM16 9.333c3.69 0 6.667 2.977 6.667 6.667s-2.977 6.667-6.667 6.667c-3.69 0-6.667-2.977-6.667-6.667s2.977-6.667 6.667-6.667zM16 5.333c-3.36 0-6.704 0.993-9.518 2.828s-5.070 4.496-6.424 7.57l-0.12 0.268 0.12 0.268c1.355 3.074 3.61 5.735 6.424 7.57s6.159 2.828 9.518 2.828c3.36 0 6.704-0.993 9.518-2.828s5.070-4.496 6.424-7.57l0.12-0.268-0.12-0.268c-1.355-3.074-3.61-5.735-6.424-7.57s-6.159-2.828-9.518-2.828zM16 6.667c3.096 0 6.196 0.921 8.789 2.612 2.504 1.633 4.505 4.010 5.766 6.721-1.261 2.711-3.261 5.088-5.766 6.721-2.593 1.691-5.693 2.612-8.789 2.612s-6.196-0.921-8.789-2.612c-2.504-1.633-4.505-4.010-5.766-6.721 1.261-2.711 3.261-5.088 5.766-6.721 2.593-1.691 5.693-2.612 8.789-2.612z"></path>
</svg>
