<!-- Generated by IcoMoon.io -->
<svg version="1.1" xmlns="http://www.w3.org/2000/svg" width="32" height="32" viewBox="0 0 32 32">
<title>mbri-bold</title>
<path d="M6.668 0.675l-0.001 30.659c0 0.349 0.318 0.667 0.667 0.667h8.667c5.874 0 10.668-4.446 10.668-10 0-3.015-1.521-5.625-3.75-7.45 1.405-1.56 2.416-3.628 2.416-5.883 0-4.79-3.877-8.667-8.667-8.667h-9.333c-0.464 0-0.666 0.296-0.666 0.675zM8 1.333h8.667c4.074 0 7.333 3.259 7.333 7.333 0 2.053-0.992 4.085-2.374 5.425-0.293 0.273-0.249 0.819 0.083 1.042 2.222 1.589 3.625 4.063 3.625 6.867 0 4.787-4.128 8.661-9.334 8.667h-8zM10.667 16.667v10.667c0 0.349 0.318 0.667 0.667 0.667h5.333c3.312 0 6-2.688 6-6s-2.688-6-6-6h-5.333c-0.439 0-0.667 0.307-0.667 0.667zM12 17.333h4.667c2.597 0 4.667 2.070 4.667 4.667s-2.070 4.667-4.667 4.667h-4.667zM10.668 4.667l-0.001 8c0 0.349 0.318 0.667 0.667 0.667h5.001c2.731 0 4.999-2.063 4.999-4.667s-2.268-4.667-4.999-4.667h-5.001c-0.414 0-0.666 0.317-0.666 0.667zM12.001 5.333h4.333c2.070 0 3.666 1.505 3.666 3.333s-1.595 3.333-3.666 3.333h-4.334z"></path>
</svg>
