<!-- Generated by IcoMoon.io -->
<svg version="1.1" xmlns="http://www.w3.org/2000/svg" width="32" height="32" viewBox="0 0 32 32">
<title>mbri-home</title>
<path d="M3.333 12c-0.368 0.006-0.672 0.298-0.667 0.667v14.667c0 1.096 0.903 2 2 2h6.667c0.368-0 0.667-0.299 0.667-0.667v-7.333c0-2.228 1.771-4 3.999-4s4.001 1.772 4.001 4v7.333c0 0.368 0.298 0.667 0.667 0.667h6.667c1.097 0 2-0.904 2-2l0.006-14.667c0.006-0.451-0.336-0.667-0.673-0.667s-0.668 0.216-0.661 0.667l-0.005 14.667c-0 0.381-0.286 0.667-0.667 0.667h-6v-6.667c0-2.943-2.389-5.333-5.334-5.333s-5.331 2.39-5.333 5.333v6.667h-6c-0.381 0-0.667-0.286-0.667-0.667v-14.667c0.006-0.376-0.29-0.673-0.667-0.667zM15.999 2.667c-0.613 0-1.167 0.203-1.597 0.388s-0.745 0.375-0.745 0.375l-13.311 7.315c-0.746 0.431-0.077 1.566 0.644 1.169l13.332-7.328c0.008-0.005 0.016-0.010 0.023-0.016 0 0 0.238-0.143 0.584-0.292s0.791-0.279 1.071-0.279c0.28 0 0.727 0.13 1.073 0.279s0.584 0.294 0.584 0.294c0.008 0.005 0.016 0.009 0.023 0.013l13.329 7.328c0.781 0.431 1.402-0.755 0.644-1.169l-13.309-7.315c0 0-0.317-0.19-0.748-0.375s-0.985-0.388-1.597-0.388z"></path>
</svg>
