<!-- Generated by IcoMoon.io -->
<svg version="1.1" xmlns="http://www.w3.org/2000/svg" width="32" height="32" viewBox="0 0 32 32">
<title>mbri-unlock</title>
<path d="M11.333 16c-1.833 0-3.333 1.5-3.333 3.333 0.001 1.026 0.541 1.926 1.333 2.552v2.781c0 1.096 0.904 2 2 2s2-0.904 2-2v-2.784c0.791-0.625 1.332-1.524 1.333-2.549 0-1.833-1.5-3.333-3.333-3.333zM11.333 17.333c1.112 0 2 0.888 2 2-0.001 0.714-0.381 1.369-1 1.727-0.201 0.117-0.333 0.332-0.333 0.577 0 0 0 0.001 0 0.001v3.029c0 0.381-0.286 0.667-0.667 0.667s-0.667-0.286-0.667-0.667v-3.026c0-0 0-0 0-0.001 0-0.245-0.133-0.46-0.33-0.576-0.622-0.359-1.003-1.016-1.003-1.731 0-1.112 0.888-2 2-2zM24 1.333c-4.41 0-8 3.59-8 8v0.667c-0.006 0.451 0.33 0.667 0.667 0.667s0.673-0.216 0.667-0.667v-0.667c0-3.69 2.977-6.667 6.667-6.667s6.667 2.977 6.667 6.667v0.667c-0.006 0.451 0.33 0.667 0.667 0.667s0.673-0.216 0.667-0.667v-0.667c0-4.41-3.59-8-8-8zM2 12c-1.096 0-2 0.904-2 2v14.667c0 1.096 0.904 2 2 2h18.667c1.096 0 2-0.904 2-2v-14.667c0-1.096-0.904-2-2-2h-18.667zM2 13.333h18.667c0.381 0 0.667 0.286 0.667 0.667v14.667c0 0.381-0.286 0.667-0.667 0.667h-18.667c-0.381 0-0.667-0.286-0.667-0.667v-14.667c0-0.381 0.286-0.667 0.667-0.667z"></path>
</svg>
