<!-- Generated by IcoMoon.io -->
<svg version="1.1" xmlns="http://www.w3.org/2000/svg" width="32" height="32" viewBox="0 0 32 32">
<title>mbri-drag-n-drop</title>
<path d="M22.667 18c-0.003 0.172-0.073 0.347-0.195 0.469l-1.329 1.327c-0.594 0.617-1.55-0.352-0.939-0.938l0.859-0.858-0.859-0.858c-0.618-0.593 0.349-1.552 0.939-0.938l1.329 1.327c0.127 0.127 0.197 0.29 0.195 0.469zM10.667 18c0.003 0.172 0.073 0.347 0.195 0.469l1.329 1.327c0.593 0.617 1.56-0.343 0.939-0.938l-0.859-0.858 0.859-0.858c0.623-0.598-0.334-1.543-0.939-0.938l-1.329 1.327c-0.127 0.127-0.197 0.29-0.195 0.469zM16.667 24c-0.172-0.003-0.347-0.073-0.469-0.195l-1.327-1.329c-0.614-0.59 0.322-1.556 0.938-0.939l0.858 0.859 0.858-0.859c0.575-0.6 1.563 0.338 0.938 0.939l-1.327 1.329c-0.127 0.127-0.29 0.197-0.469 0.195zM16.667 12c-0.172 0.003-0.347 0.073-0.469 0.195l-1.327 1.329c-0.617 0.594 0.318 1.56 0.938 0.939l0.858-0.859 0.858 0.859c0.589 0.614 1.548-0.353 0.938-0.939l-1.327-1.329c-0.127-0.127-0.29-0.197-0.469-0.195zM16.667 14.667c-0.369 0-0.667 0.297-0.667 0.667v2h-2c-0.369 0-0.667 0.297-0.667 0.667s0.297 0.667 0.667 0.667h2v2c0 0.369 0.297 0.667 0.667 0.667s0.667-0.297 0.667-0.667v-2h2c0.369 0 0.667-0.297 0.667-0.667s-0.297-0.667-0.667-0.667h-2v-2c0-0.369-0.297-0.667-0.667-0.667zM2 4c-1.096 0-2 0.904-2 2v20c0 1.096 0.904 2 2 2h28c1.096 0 2-0.904 2-2v-20c0-1.096-0.904-2-2-2zM2 5.333h28c0.381 0 0.667 0.286 0.667 0.667v20c0 0.381-0.286 0.667-0.667 0.667h-28c-0.381 0-0.667-0.286-0.667-0.667v-20c0-0.381 0.286-0.667 0.667-0.667zM3.333 6.667c-0.368 0-0.667 0.298-0.667 0.667s0.298 0.667 0.667 0.667c0.368 0 0.667-0.298 0.667-0.667s-0.298-0.667-0.667-0.667zM6 6.667c-0.368 0-0.667 0.298-0.667 0.667s0.298 0.667 0.667 0.667c0.368 0 0.667-0.298 0.667-0.667s-0.298-0.667-0.667-0.667zM8.667 6.667c-0.368 0-0.667 0.298-0.667 0.667s0.298 0.667 0.667 0.667c0.368 0 0.667-0.298 0.667-0.667s-0.298-0.667-0.667-0.667zM3.333 9.333c-0.369 0-0.667 0.297-0.667 0.667s0.297 0.667 0.667 0.667h25.333c0.369 0 0.667-0.297 0.667-0.667s-0.297-0.667-0.667-0.667z"></path>
</svg>
