<!-- Generated by IcoMoon.io -->
<svg version="1.1" xmlns="http://www.w3.org/2000/svg" width="32" height="32" viewBox="0 0 32 32">
<title>mbri-edit</title>
<path d="M27.323 5.333c-0.173 0.003-0.338 0.073-0.461 0.195l-2.667 2.667c-0.26 0.26-0.26 0.682 0 0.943l4 4c0.26 0.26 0.682 0.26 0.943 0l2.667-2.667c0.26-0.26 0.26-0.682 0-0.943l-4-4c-0.128-0.128-0.301-0.198-0.482-0.195zM27.333 6.943l3.057 3.057-1.724 1.724-3.057-3.057zM23.323 9.333c-0.173 0.003-0.338 0.073-0.461 0.195l-10.667 10.667c-0.125 0.125-0.195 0.295-0.195 0.471v4c0 0.368 0.299 0.667 0.667 0.667h4c0.177-0 0.346-0.070 0.471-0.195l10.667-10.667c0.26-0.26 0.26-0.682 0-0.943l-4-4c-0.128-0.128-0.301-0.198-0.482-0.195zM23.333 10.943l3.057 3.057-10 10h-3.057v-3.057zM4.667 13.333h10.667c0.369 0 0.667 0.297 0.667 0.667s-0.297 0.667-0.667 0.667h-10.667c-0.369 0-0.667-0.297-0.667-0.667s0.297-0.667 0.667-0.667zM4.667 9.333h13.333c0.369 0 0.667 0.297 0.667 0.667s-0.297 0.667-0.667 0.667h-13.333c-0.369 0-0.667-0.297-0.667-0.667s0.297-0.667 0.667-0.667zM4.667 5.333h13.333c0.369 0 0.667 0.297 0.667 0.667s-0.297 0.667-0.667 0.667h-13.333c-0.369 0-0.667-0.297-0.667-0.667s0.297-0.667 0.667-0.667zM2 0c-1.096 0-2 0.904-2 2v28c0 1.096 0.904 2 2 2h18.667c1.096 0 2-0.904 2-2v-6.667c0-0.879-1.333-0.864-1.333 0v6.667c0 0.381-0.286 0.667-0.667 0.667h-18.667c-0.381 0-0.667-0.286-0.667-0.667v-28c0-0.381 0.286-0.667 0.667-0.667h18.667c0.381 0 0.667 0.286 0.667 0.667v5.333c0 0.896 1.333 0.875 1.333 0v-5.333c0-1.096-0.904-2-2-2z"></path>
</svg>
