<!-- Generated by IcoMoon.io -->
<svg version="1.1" xmlns="http://www.w3.org/2000/svg" width="32" height="32" viewBox="0 0 32 32">
<title>mbri-protect</title>
<path d="M21.992 10.667c-0.173 0.005-0.35 0.072-0.471 0.195l-6.189 6.195-2.193-2.195c-0.597-0.597-1.553 0.355-0.942 0.943l2.664 2.667c0.26 0.26 0.682 0.26 0.942 0l6.66-6.667c0.433-0.424 0.131-1.138-0.471-1.138zM16 0c-0.193 0.004-0.39 0.094-0.513 0.242-1.486 1.782-3.768 2.446-6.154 2.424s-4.863-0.781-5.667-1.245c-0.445-0.257-1 0.065-1 0.578v14c0 7.697 6.228 13.899 13.141 15.977 0.125 0.037 0.258 0.037 0.383 0 6.913-2.070 13.143-8.28 13.143-15.977v-13.992c0-0.514-0.555-0.835-1-0.578-0.804 0.464-3.282 1.216-5.667 1.237s-4.667-0.636-6.154-2.422c-0.13-0.157-0.309-0.249-0.513-0.245zM16 1.438c1.846 1.836 4.25 2.584 6.667 2.563 2.102-0.018 4.035-0.527 5.333-1.049v13.049c0 6.897-5.658 12.627-11.997 14.609-6.341-1.989-12.003-7.712-12.003-14.609v-13.057c1.298 0.522 3.232 1.038 5.333 1.057 2.417 0.022 4.82-0.73 6.667-2.563z"></path>
</svg>
