<!-- Generated by IcoMoon.io -->
<svg version="1.1" xmlns="http://www.w3.org/2000/svg" width="32" height="32" viewBox="0 0 32 32">
<title>mbri-tablet-vertical</title>
<path d="M15.333 28c0.368 0 0.667 0.298 0.667 0.667s-0.298 0.667-0.667 0.667c-0.368 0-0.667-0.298-0.667-0.667s0.298-0.667 0.667-0.667zM6.667 26c0-0.369 0.297-0.667 0.667-0.667h16c0.369 0 0.667 0.297 0.667 0.667s-0.297 0.667-0.667 0.667h-16c-0.369 0-0.667-0.297-0.667-0.667zM4 30c0 1.097 0.904 2 2 2h18.667c1.096 0 2-0.903 2-2v-28c0-1.097-0.904-2-2-2h-18.667c-1.096 0-2 0.903-2 2v28zM5.333 30v-28c0-0.381 0.286-0.667 0.667-0.667h18.667c0.381 0 0.667 0.286 0.667 0.667v28c0 0.381-0.286 0.667-0.667 0.667h-18.667c-0.381 0-0.667-0.286-0.667-0.667z"></path>
</svg>
