<!-- Generated by IcoMoon.io -->
<svg version="1.1" xmlns="http://www.w3.org/2000/svg" width="32" height="32" viewBox="0 0 32 32">
<title>mbri-edit2</title>
<path d="M26 0c-0.173 0.003-0.349 0.073-0.471 0.195l-2.667 2.667c-0.26 0.26-0.26 0.682 0 0.943l5.333 5.333c0.26 0.26 0.682 0.26 0.943 0l2.667-2.667c0.26-0.26 0.26-0.682 0-0.943l-5.333-5.333c-0.128-0.128-0.291-0.198-0.471-0.195zM26 1.609l4.391 4.391-1.724 1.724-4.391-4.391zM20.667 5.333c-0.173 0.003-0.349 0.073-0.471 0.195l-20 20c-0.125 0.125-0.195 0.295-0.195 0.471v5.333c0 0.368 0.298 0.667 0.667 0.667h5.333c0.177-0 0.346-0.070 0.471-0.195l20-20c0.26-0.26 0.26-0.682 0-0.943l-5.333-5.333c-0.128-0.128-0.291-0.198-0.471-0.195zM20.667 6.943l4.391 4.391-19.333 19.333h-4.391v-4.391z"></path>
</svg>
