<!-- Generated by IcoMoon.io -->
<svg version="1.1" xmlns="http://www.w3.org/2000/svg" width="32" height="32" viewBox="0 0 32 32">
<title>mbri-responsive</title>
<path d="M14.667 19.333c0 0.368-0.298 0.667-0.667 0.667s-0.667-0.298-0.667-0.667c0-0.368 0.298-0.667 0.667-0.667s0.667 0.298 0.667 0.667zM24.667 13.333h2.667c0.369 0 0.667 0.297 0.667 0.667s-0.297 0.667-0.667 0.667h-2.667c-0.369 0-0.667-0.297-0.667-0.667s0.297-0.667 0.667-0.667zM26.667 26c0 0.368-0.298 0.667-0.667 0.667s-0.667-0.298-0.667-0.667c0-0.368 0.298-0.667 0.667-0.667s0.667 0.298 0.667 0.667zM22 10.667c-1.096 0-2 0.904-2 2v14.667c0 1.096 0.904 2 2 2h8c1.096 0 2-0.904 2-2v-14.667c0-1.096-0.904-2-2-2zM22 12h8c0.381 0 0.667 0.286 0.667 0.667v14.667c0 0.381-0.286 0.667-0.667 0.667h-8c-0.381 0-0.667-0.286-0.667-0.667v-14.667c0-0.381 0.286-0.667 0.667-0.667zM2 2.667c-1.096 0-2 0.904-2 2v16c0 1.096 0.904 2 2 2h10v2.667h-2c-0.369 0-0.667 0.29-0.667 0.667s0.297 0.667 0.667 0.667h8c0.369 0 0.667-0.29 0.667-0.667s-0.297-0.667-0.667-0.667h-2v-2.667h2c0.902 0.013 0.902-1.346 0-1.333h-16c-0.381 0-0.667-0.286-0.667-0.667v-3.333h16.667c0.369 0 0.667-0.297 0.667-0.667s-0.297-0.667-0.667-0.667h-16.667v-11.333c0-0.381 0.286-0.667 0.667-0.667h24c0.381 0 0.667 0.286 0.667 0.667v4c-0.013 0.902 1.346 0.902 1.333 0v-4c0-1.096-0.904-2-2-2zM13.333 22.667h1.333v2.667h-1.333z"></path>
</svg>
