<!-- Generated by IcoMoon.io -->
<svg version="1.1" xmlns="http://www.w3.org/2000/svg" width="32" height="32" viewBox="0 0 32 32">
<title>mbri-cust-feedback</title>
<path d="M20.191 8.201l-7.521 7.524-2.193-2.193c-0.585-0.585-1.55 0.334-0.942 0.942l2.664 2.664c0.26 0.26 0.682 0.26 0.942 0l7.992-7.995c0.268-0.262 0.267-0.694 0.001-0.952s-0.687-0.252-0.943 0.010zM2 1.333c-1.096 0-2 0.904-2 2v20c0 1.096 0.904 2 2 2h3.333v4.667c0 0.594 0.718 0.891 1.138 0.471l5.138-5.138h18.391c1.096 0 2-0.904 2-2v-20c0-1.096-0.904-2-2-2zM2 2.667h28c0.381 0 0.667 0.286 0.667 0.667v20c0 0.381-0.286 0.667-0.667 0.667h-18.667c-0.177 0-0.346 0.070-0.471 0.195l-4.195 4.195v-3.724c-0-0.368-0.298-0.667-0.667-0.667h-4c-0.381 0-0.667-0.286-0.667-0.667v-20c0-0.381 0.286-0.667 0.667-0.667z"></path>
</svg>
