<!-- Generated by IcoMoon.io -->
<svg version="1.1" xmlns="http://www.w3.org/2000/svg" width="32" height="32" viewBox="0 0 32 32">
<title>mbri-cloud</title>
<path d="M17.766 5.333c-1.708 0-3.411 0.337-4.94 1.096-1.922 0.955-3.482 2.355-4.51 4.237-2.194-0.089-4.399 0.85-5.961 2.401-1.667 1.656-2.537 4.043-2.323 6.383 0.17 1.852 1.004 3.62 2.323 4.93s3.098 2.129 4.951 2.285c0.019 0.002 0.038 0.003 0.057 0.003l18.638-0.001c0.626-0 1.286-0.004 1.974-0.135s1.367-0.387 1.966-0.799c0.6-0.413 1.095-0.965 1.443-1.602 0.346-0.634 0.541-1.336 0.599-2.042 0.113-1.374-0.292-2.763-1.122-3.862-0.724-0.959-1.712-1.601-2.859-1.943 0.094-2.412-0.639-4.842-2.096-6.771-1.563-2.070-3.897-3.519-6.445-4-0.558-0.106-1.124-0.18-1.693-0.18zM17.734 6.667c0.506 0 0.992 0.067 1.479 0.159 2.213 0.418 4.27 1.693 5.628 3.49s2.021 4.109 1.818 6.352c-0.030 0.339 0.2 0.6 0.534 0.667 1.020 0.201 1.977 0.865 2.604 1.695s0.942 1.915 0.857 2.951c-0.044 0.533-0.194 1.054-0.443 1.51-0.248 0.454-0.603 0.852-1.026 1.143s-0.929 0.49-1.461 0.591c-0.532 0.101-1.107 0.109-1.724 0.109h-18.602c-1.528-0.132-3.019-0.82-4.107-1.901-1.091-1.083-1.792-2.571-1.932-4.102-0.176-1.927 0.559-3.952 1.932-5.315s3.402-2.205 5.328-2.016c0.275 0.027 0.538-0.084 0.661-0.332 0.883-1.771 2.366-3.165 4.138-4.045 1.329-0.66 2.828-0.956 4.315-0.956z"></path>
</svg>
