<!-- Generated by IcoMoon.io -->
<svg version="1.1" xmlns="http://www.w3.org/2000/svg" width="32" height="32" viewBox="0 0 32 32">
<title>mbri-setting3</title>
<path d="M16 10.667c-2.938 0-5.333 2.396-5.333 5.333s2.396 5.333 5.333 5.333c2.938 0 5.333-2.396 5.333-5.333s-2.396-5.333-5.333-5.333zM16 12c2.217 0 4 1.783 4 4s-1.783 4-4 4c-2.217 0-4-1.783-4-4s1.783-4 4-4zM15.333 0c-1.096 0-2 0.904-2 2v2.422c-1.313 0.308-2.555 0.831-3.693 1.555l-1.638-1.745c-0.768-0.818-2.068-0.791-2.844-0.016l-0.943 0.943c-0.775 0.775-0.802 2.076 0.016 2.844l1.742 1.638c-0.72 1.139-1.243 2.38-1.547 3.693h-2.427c-1.096 0-2 0.904-2 2v1.333c0 1.096 0.904 2 2 2h2.419c0.302 1.288 0.81 2.509 1.513 3.63l-1.716 1.716c-0.775 0.775-0.775 2.053 0 2.828l0.943 0.943c0.775 0.775 2.053 0.775 2.828 0l1.711-1.711c1.123 0.699 2.346 1.205 3.635 1.503v2.424c0 1.096 0.904 2 2 2h1.333c1.096 0 2-0.904 2-2v-2.419c1.288-0.302 2.509-0.81 3.63-1.513l1.716 1.716c0.775 0.775 2.053 0.775 2.828 0l0.943-0.943c0.775-0.775 0.775-2.053 0-2.828l-1.711-1.711c0.699-1.123 1.205-2.346 1.503-3.635h2.424c1.096 0 2-0.904 2-2v-1.333c0-1.096-0.904-2-2-2h-2.419c-0.302-1.288-0.81-2.509-1.513-3.63l1.716-1.716c0.775-0.775 0.775-2.053 0-2.828l-0.943-0.943c-0.775-0.775-2.053-0.775-2.828 0l-1.711 1.711c-1.123-0.699-2.346-1.205-3.635-1.503v-2.424c0-1.096-0.904-2-2-2h-1.333zM15.333 1.333h1.333c0.381 0 0.667 0.286 0.667 0.667v2.854c0 0.327 0.235 0.599 0.545 0.656 1.516 0.27 2.951 0.862 4.212 1.738 0.106 0.075 0.238 0.119 0.381 0.119 0.184 0 0.35-0.074 0.471-0.195l2.013-2.013c0.269-0.269 0.673-0.269 0.943 0l0.943 0.943c0.269 0.269 0.269 0.673 0 0.943l-2.021 2.021c-0.121 0.121-0.196 0.288-0.196 0.472 0 0.143 0.045 0.276 0.122 0.384 0.878 1.256 1.476 2.688 1.751 4.198 0.059 0.313 0.33 0.547 0.656 0.547 0 0 0 0 0 0h2.846c0.381 0 0.667 0.286 0.667 0.667v1.333c0 0.381-0.286 0.667-0.667 0.667h-2.854c-0.327 0-0.599 0.235-0.656 0.545-0.27 1.516-0.862 2.951-1.738 4.212-0.075 0.106-0.119 0.238-0.119 0.381 0 0.184 0.074 0.35 0.195 0.471l2.013 2.013c0.269 0.269 0.269 0.673 0 0.943l-0.943 0.943c-0.269 0.269-0.673 0.269-0.943 0l-2.021-2.021c-0.121-0.121-0.288-0.196-0.472-0.196-0.143 0-0.276 0.045-0.384 0.122-1.256 0.878-2.688 1.476-4.198 1.751-0.313 0.059-0.547 0.33-0.547 0.656 0 0 0 0 0 0v2.846c0 0.381-0.286 0.667-0.667 0.667h-1.333c-0.381 0-0.667-0.286-0.667-0.667v-2.854c-0-0.327-0.235-0.599-0.545-0.656-1.516-0.27-2.951-0.862-4.212-1.738-0.106-0.075-0.238-0.119-0.381-0.119-0.184 0-0.35 0.074-0.471 0.195l-2.013 2.013c-0.269 0.269-0.673 0.269-0.943 0l-0.943-0.943c-0.269-0.269-0.269-0.673 0-0.943l2.021-2.021c0.121-0.121 0.196-0.288 0.196-0.472 0-0.143-0.045-0.276-0.122-0.384-0.878-1.256-1.476-2.688-1.751-4.198-0.059-0.313-0.33-0.547-0.656-0.547-0 0-0 0-0 0h-2.846c-0.381 0-0.667-0.286-0.667-0.667v-1.333c0-0.381 0.286-0.667 0.667-0.667h2.854c0.327-0 0.599-0.235 0.656-0.545 0.277-1.543 0.887-3.001 1.79-4.278 0.077-0.107 0.123-0.241 0.123-0.385 0-0.192-0.081-0.365-0.211-0.487l-2.068-1.943c-0.259-0.244-0.254-0.658 0.016-0.927l0.943-0.943c0.269-0.269 0.684-0.275 0.927-0.016l1.945 2.073c0.122 0.13 0.295 0.211 0.487 0.211 0.145 0 0.278-0.046 0.387-0.124 1.273-0.905 2.733-1.521 4.271-1.801 0.313-0.059 0.547-0.33 0.547-0.656 0-0 0-0 0-0v-2.846c0-0.381 0.286-0.667 0.667-0.667z"></path>
</svg>
