<!-- Generated by IcoMoon.io -->
<svg version="1.1" xmlns="http://www.w3.org/2000/svg" width="32" height="32" viewBox="0 0 32 32">
<title>mbri-code</title>
<path d="M21.006 6.76c-0.317-0.188-0.725-0.083-0.913 0.233l-10.661 17.316c-0.435 0.708 0.667 1.461 1.136 0.698l10.661-17.316c0.202-0.317 0.101-0.739-0.223-0.931zM24.178 9.544c0.25-0.269 0.671-0.284 0.94-0.035l6.662 5.995c0.294 0.265 0.294 0.725 0 0.99l-6.66 5.994c-0.631 0.568-1.526-0.421-0.892-0.992l6.11-5.496-6.11-5.501c-0.283-0.247-0.305-0.679-0.050-0.955zM7.822 9.544c-0.25-0.269-0.671-0.284-0.94-0.035l-6.662 5.995c-0.294 0.265-0.294 0.725 0 0.99l6.66 5.994c0.631 0.569 1.54-0.41 0.892-0.992l-6.11-5.496 6.11-5.501c0.283-0.247 0.305-0.679 0.050-0.955z"></path>
</svg>
