<!-- Generated by IcoMoon.io -->
<svg version="1.1" xmlns="http://www.w3.org/2000/svg" width="32" height="32" viewBox="0 0 32 32">
<title>mbri-letter</title>
<path d="M3.333 8c-0.667 0-0.911 0.861-0.371 1.221l10.663 7.329c0.653 0.449 1.442 0.783 2.374 0.783s1.727-0.335 2.38-0.783l10.663-7.329c0.736-0.498-0.082-1.568-0.755-1.098l-10.663 7.329c-0.505 0.347-0.999 0.548-1.625 0.548s-1.114-0.201-1.619-0.548l-10.663-7.329c-0.11-0.078-0.25-0.12-0.384-0.122zM2 5.333c-1.096 0-2 0.904-2 2v17.333c0 1.096 0.904 2 2 2h28c1.096 0 2-0.904 2-2v-17.333c0-1.096-0.904-2-2-2zM2 6.667h28c0.381 0 0.667 0.286 0.667 0.667v17.333c0 0.381-0.286 0.667-0.667 0.667h-28c-0.381 0-0.667-0.286-0.667-0.667v-17.333c0-0.381 0.286-0.667 0.667-0.667z"></path>
</svg>
