<!-- Generated by IcoMoon.io -->
<svg version="1.1" xmlns="http://www.w3.org/2000/svg" width="32" height="32" viewBox="0 0 32 32">
<title>mbri-left</title>
<path d="M16 30c-0.005-0.173-0.077-0.358-0.2-0.479l-14.191-14.188 14.183-14.188c0.625-0.6-0.342-1.568-0.942-0.943l-14.654 14.655c-0.26 0.26-0.26 0.682 0 0.943l14.662 14.663c0.398 0.407 1.143 0.164 1.143-0.464zM32 15.333c0 0.369-0.297 0.667-0.667 0.667h-26.667c-0.369 0-0.667-0.297-0.667-0.667s0.297-0.667 0.667-0.667h26.667c0.369 0 0.667 0.297 0.667 0.667z"></path>
</svg>
