<!-- Generated by IcoMoon.io -->
<svg version="1.1" xmlns="http://www.w3.org/2000/svg" width="32" height="32" viewBox="0 0 32 32">
<title>mbri-down</title>
<path d="M30 16c-0.173 0.005-0.355 0.077-0.476 0.2l-14.19 14.191-14.186-14.183c-0.6-0.625-1.568 0.342-0.943 0.942l14.655 14.654c0.26 0.26 0.682 0.26 0.943 0l14.663-14.662c0.407-0.398 0.161-1.143-0.466-1.143zM15.333 0c0.369 0 0.667 0.297 0.667 0.667v26.667c0 0.369-0.297 0.667-0.667 0.667s-0.667-0.297-0.667-0.667v-26.667c0-0.369 0.297-0.667 0.667-0.667z"></path>
</svg>
