<!-- Generated by IcoMoon.io -->
<svg version="1.1" xmlns="http://www.w3.org/2000/svg" width="32" height="32" viewBox="0 0 32 32">
<title>mbri-users</title>
<path d="M10 9.333c-1.705 0-2.95 0.993-3.667 2.201s-1 2.63-1 3.799c0 1.056-0.013 1.669-0.141 2.104s-0.363 0.791-0.997 1.424c-0.42 0.42-0.122 1.138 0.471 1.138 1.105 0 2.256-0.213 3.214-0.667-0.076 0.388-0.193 0.825-0.341 1.102-0.316 0.588-0.692 0.898-1.539 0.898-0.86 0-0.891 1.333 0 1.333 1.267 0 2.224-0.69 2.714-1.602s0.62-2.004 0.62-3.065c-0-0.594-0.718-0.891-1.138-0.471-0.614 0.614-1.359 0.857-2.195 0.99 0.173-0.173 0.401-0.456 0.474-0.706 0.206-0.704 0.193-1.423 0.193-2.479 0-0.942 0.259-2.186 0.813-3.117s1.307-1.549 2.521-1.549c1.214 0 1.968 0.618 2.521 1.549s0.813 2.175 0.813 3.117c0 1.079 0.050 1.869 0.281 2.581 0.081 0.249 0.202 0.478 0.385 0.661-0.789-0.083-1.431-0.283-2.195-1.047-0.42-0.42-1.138-0.122-1.138 0.471 0 1.061 0.131 2.154 0.62 3.065s1.446 1.602 2.714 1.602c0.865 0.012 0.896-1.333 0-1.333-0.847 0-1.223-0.31-1.539-0.898-0.147-0.274-0.291-0.717-0.367-1.102 0.988 0.479 2.15 0.667 3.24 0.667 0.594-0 0.891-0.718 0.471-1.138-0.518-0.517-0.765-0.878-0.922-1.359s-0.216-1.136-0.216-2.169c0-1.17-0.283-2.592-1-3.799s-1.962-2.201-3.667-2.201zM16 0c-8.829 0-16 7.171-16 16s7.171 16 16 16c8.829 0 16-7.171 16-16s-7.171-16-16-16zM16 1.333c8.108 0 14.667 6.559 14.667 14.667s-6.559 14.667-14.667 14.667c-8.108 0-14.667-6.559-14.667-14.667s6.559-14.667 14.667-14.667zM27.756 21.465c-0.709-0.709-1.090-1.176-1.090-1.176v-2.086l1.221-1.833c0.073-0.11 0.112-0.238 0.112-0.37v-2.667c0-3.033-2.506-5.333-5.333-5.333s-5.333 2.3-5.333 5.333v2.667c0 0.132 0.039 0.26 0.112 0.37l1.221 1.833v2.086l-6.344 3.805c-0.201 0.121-0.323 0.338-0.323 0.573v1.333c0 0.875 1.333 0.891 1.333 0v-0.956l6.344-3.805c0.201-0.121 0.323-0.338 0.323-0.573v-2.667c0-0.132-0.039-0.26-0.112-0.37l-1.221-1.833v-2.464c0-2.3 1.894-4 4-4s4 1.7 4 4v2.464l-1.221 1.833c-0.073 0.11-0.112 0.238-0.112 0.37v2.667c-0.001 0.234 0.139 0.389 0.323 0.573 0 0 0.384 0.47 1.090 1.176s1.72-0.241 1.010-0.951z"></path>
</svg>
