<!-- Generated by IcoMoon.io -->
<svg version="1.1" xmlns="http://www.w3.org/2000/svg" width="32" height="32" viewBox="0 0 32 32">
<title>mbri-delivery</title>
<path d="M0.667 18.667h2.667c0.369 0 0.667 0.297 0.667 0.667s-0.297 0.667-0.667 0.667h-2.667c-0.369 0-0.667-0.297-0.667-0.667s0.297-0.667 0.667-0.667zM0.667 13.333h2.667c0.369 0 0.667 0.297 0.667 0.667s-0.297 0.667-0.667 0.667h-2.667c-0.369 0-0.667-0.297-0.667-0.667s0.297-0.667 0.667-0.667zM0.667 8h2.667c0.369 0 0.667 0.297 0.667 0.667s-0.297 0.667-0.667 0.667h-2.667c-0.369 0-0.667-0.297-0.667-0.667s0.297-0.667 0.667-0.667zM17.133 12.19c-0.263-0.257-0.684-0.252-0.941 0.011l-3.525 3.525-2.19-2.192c-0.599-0.599-1.545 0.355-0.941 0.942l2.662 2.663c0.26 0.26 0.681 0.26 0.941 0l3.995-3.996c0.267-0.261 0.267-0.691 0-0.953zM26.641 20c-1.465 0-2.667 1.202-2.667 2.667s1.202 2.667 2.667 2.667c1.465 0 2.667-1.202 2.667-2.667s-1.202-2.667-2.667-2.667zM26.641 21.333c0.744 0 1.333 0.589 1.333 1.333s-0.589 1.333-1.333 1.333c-0.744 0-1.333-0.589-1.333-1.333s0.589-1.333 1.333-1.333zM12 20c-1.465 0-2.667 1.202-2.667 2.667s1.202 2.667 2.667 2.667c1.465 0 2.667-1.202 2.667-2.667s-1.202-2.667-2.667-2.667zM12 21.333c0.744 0 1.333 0.589 1.333 1.333s-0.589 1.333-1.333 1.333c-0.744 0-1.333-0.589-1.333-1.333s0.589-1.333 1.333-1.333zM23.333 21.333c0.864 0 0.896-1.333 0-1.333h-0.667v-9.333h3.674l4.326 5.563v3.771h-0.667c-0.875 0-0.886 1.333 0 1.333h0.667c0.727 0 1.333-0.606 1.333-1.333v-4c-0-0.148-0.050-0.292-0.141-0.409l-4.667-6c-0.126-0.162-0.32-0.258-0.526-0.258h-4v-1.333c0-0.727-0.606-1.333-1.333-1.333h-14.667c-0.727 0-1.333 0.606-1.333 1.333v12c0 0.727 0.606 1.333 1.333 1.333h2c0.864 0.012 0.895-1.333 0-1.333h-2v-12h14.667v12h-6c-0.864 0-0.879 1.346 0 1.333z"></path>
</svg>
