<!-- Generated by IcoMoon.io -->
<svg version="1.1" xmlns="http://www.w3.org/2000/svg" width="32" height="32" viewBox="0 0 32 32">
<title>mbri-bootstrap</title>
<path d="M2 0c-1.096 0-2 0.904-2 2v28c0 1.096 0.904 2 2 2h28c1.096 0 2-0.904 2-2v-28c0-1.096-0.904-2-2-2zM2 1.333h28c0.381 0 0.667 0.286 0.667 0.667v28c0 0.381-0.286 0.667-0.667 0.667h-28c-0.381 0-0.667-0.286-0.667-0.667v-28c0-0.381 0.286-0.667 0.667-0.667zM10.667 7.333v16c0 0.349 0.318 0.667 0.667 0.667h4c1.447 0 2.933-0.341 4.083-1.208s1.917-2.293 1.917-4.125c0-1.869-0.793-2.901-1.208-3.375 0.394-0.507 1.208-1.5 1.208-3.292 0-1.824-0.878-3.212-2-4.083s-2.553-1.25-4-1.25h-4c-0.486 0-0.667 0.288-0.667 0.667zM12 8c0.371 0.002 1.11 0 3.333 0 1.22 0 2.389 0.322 3.208 0.958s1.458 1.561 1.458 3.042c0 1.864-1.125 2.875-1.125 2.875-0.256 0.248-0.256 0.71 0 0.958 0 0 1.125 0.994 1.125 2.833 0 1.473-0.567 2.401-1.417 3.042s-2.030 0.958-3.25 0.958c-2.224 0-2.962-0.002-3.333 0zM13.333 10v4c0 0.349 0.318 0.667 0.667 0.667h2c0.6 0 1.223-0.183 1.75-0.625s0.917-1.166 0.917-2.042c0-0.871-0.391-1.6-0.917-2.042s-1.15-0.625-1.75-0.625h-2c-0.416 0-0.667 0.229-0.667 0.667zM14.667 10.667h1.333c0.297 0 0.666 0.123 0.917 0.333s0.417 0.482 0.417 1c0 0.532-0.171 0.794-0.417 1s-0.606 0.333-0.917 0.333h-1.333zM13.333 16.667v4c0 0.349 0.318 0.667 0.667 0.667h2c0.6 0 1.225-0.183 1.75-0.625s0.917-1.171 0.917-2.042c0-0.876-0.39-1.6-0.917-2.042s-1.15-0.625-1.75-0.625h-2c-0.401 0-0.667 0.292-0.667 0.667zM14.667 17.333h1.333c0.311 0 0.671 0.127 0.917 0.333s0.417 0.468 0.417 1c0 0.518-0.166 0.789-0.417 1s-0.619 0.333-0.917 0.333h-1.333z"></path>
</svg>
