<!-- Generated by IcoMoon.io -->
<svg version="1.1" xmlns="http://www.w3.org/2000/svg" width="32" height="32" viewBox="0 0 32 32">
<title>mbri-new-file</title>
<path d="M20.667 2.667c-0.368 0.006-0.672 0.298-0.667 0.667v2.654c0 1.103 0.91 2.013 2.013 2.013h2.654c0.886 0 0.87-1.333 0-1.333h-2.654c-0.387 0-0.68-0.292-0.68-0.68v-2.654c0.006-0.376-0.29-0.673-0.667-0.667zM6.013 0c-1.103 0-2.013 0.91-2.013 2.013v27.974c0 1.103 0.91 2.013 2.013 2.013h19.974c1.103 0 2.013-0.91 2.013-2.013v-22.654c-0-0.177-0.070-0.346-0.195-0.471l-6.667-6.667c-0.125-0.125-0.295-0.195-0.471-0.195zM6.013 1.333h14.378l6.276 6.276v22.378c0 0.387-0.292 0.68-0.68 0.68h-19.974c-0.388 0-0.68-0.292-0.68-0.68v-27.974c0-0.387 0.292-0.68 0.68-0.68z"></path>
</svg>
