<!-- Generated by IcoMoon.io -->
<svg version="1.1" xmlns="http://www.w3.org/2000/svg" width="32" height="32" viewBox="0 0 32 32">
<title>mbri-credit-card</title>
<path d="M24 20c-1.465-0.001-2.667 1.202-2.667 2.667s1.201 2.668 2.667 2.667c0.493-0 0.919-0.259 1.333-0.513 0.415 0.254 0.84 0.513 1.333 0.513 1.465 0.001 2.667-1.202 2.667-2.667s-1.201-2.668-2.667-2.667c-0.493 0-0.919 0.259-1.333 0.513-0.415-0.254-0.84-0.513-1.333-0.513zM24 21.333c0.327 0 0.643 0.121 0.888 0.341 0.253 0.227 0.637 0.227 0.891 0 0.245-0.22 0.561-0.341 0.888-0.341 0.744-0 1.333 0.589 1.333 1.333s-0.59 1.334-1.333 1.333c-0.327-0-0.643-0.121-0.888-0.341-0.253-0.227-0.637-0.227-0.891 0-0.245 0.22-0.561 0.341-0.888 0.341-0.744 0-1.333-0.589-1.333-1.333s0.59-1.334 1.333-1.333zM2 4c-1.096 0-2 0.904-2 2v13.333c0 1.096 0.904 2 2 2h1.333c0.917 0 0.849-1.333 0-1.333h-1.333c-0.381 0-0.667-0.286-0.667-0.667v-6h2c0.369 0 0.667-0.297 0.667-0.667s-0.297-0.667-0.667-0.667h-2v-4h24v0.667c0 0.891 1.333 0.871 1.333 0v-2.667c0-1.096-0.904-2-2-2zM2 5.333h22.667c0.381 0 0.667 0.286 0.667 0.667v0.667h-24v-0.667c0-0.381 0.286-0.667 0.667-0.667zM16.667 22.667h1.333c0.369 0 0.667 0.297 0.667 0.667s-0.297 0.667-0.667 0.667h-1.333c-0.369 0-0.667-0.297-0.667-0.667s0.297-0.667 0.667-0.667zM12.667 22.667h1.333c0.369 0 0.667 0.297 0.667 0.667s-0.297 0.667-0.667 0.667h-1.333c-0.369 0-0.667-0.297-0.667-0.667s0.297-0.667 0.667-0.667zM8.667 22.667h1.333c0.369 0 0.667 0.297 0.667 0.667s-0.297 0.667-0.667 0.667h-1.333c-0.369 0-0.667-0.297-0.667-0.667s0.297-0.667 0.667-0.667zM15.333 16h13.333c0.369 0 0.667 0.297 0.667 0.667s-0.297 0.667-0.667 0.667h-13.333c-0.369 0-0.667-0.297-0.667-0.667s0.297-0.667 0.667-0.667zM22 13.333h6.667c0.369 0 0.667 0.297 0.667 0.667s-0.297 0.667-0.667 0.667h-6.667c-0.369 0-0.667-0.297-0.667-0.667s0.297-0.667 0.667-0.667zM15.333 13.333h4c0.369 0 0.667 0.297 0.667 0.667s-0.297 0.667-0.667 0.667h-4c-0.369 0-0.667-0.297-0.667-0.667s0.297-0.667 0.667-0.667zM8.667 13.333c-0.368 0-0.667 0.299-0.667 0.667v5.333c0 0.368 0.299 0.667 0.667 0.667h4c0.368-0 0.667-0.299 0.667-0.667v-5.333c-0-0.368-0.299-0.667-0.667-0.667zM9.333 14.667h2.667v4h-2.667zM7.333 10.667c-1.096 0-2 0.904-2 2v13.333c0 1.096 0.904 2 2 2h22.667c1.096 0 2-0.904 2-2v-13.333c0-1.096-0.904-2-2-2zM7.333 12h22.667c0.381 0 0.667 0.286 0.667 0.667v13.333c0 0.381-0.286 0.667-0.667 0.667h-22.667c-0.381 0-0.667-0.286-0.667-0.667v-13.333c0-0.381 0.286-0.667 0.667-0.667z"></path>
</svg>
