<!-- Generated by IcoMoon.io -->
<svg version="1.1" xmlns="http://www.w3.org/2000/svg" width="32" height="32" viewBox="0 0 32 32">
<title>mbri-globe-2</title>
<path d="M8.667 14.667h13.333c0.369 0 0.667 0.297 0.667 0.667s-0.297 0.667-0.667 0.667h-13.333c-0.369 0-0.667-0.297-0.667-0.667s0.297-0.667 0.667-0.667zM28 15.333c0 0.368-0.298 0.667-0.667 0.667s-0.667-0.298-0.667-0.667c0-0.368 0.298-0.667 0.667-0.667s0.667 0.298 0.667 0.667zM4 15.333c0 0.368-0.298 0.667-0.667 0.667s-0.667-0.298-0.667-0.667c0-0.368 0.298-0.667 0.667-0.667s0.667 0.298 0.667 0.667zM15.333 0c-8.46 0-15.333 6.873-15.333 15.333s6.873 15.333 15.333 15.333c8.46 0 15.333-6.873 15.333-15.333s-6.873-15.333-15.333-15.333zM15.333 1.333c2.288 0 4.418 1.455 6.023 3.966-3.799 1.814-8.232 1.813-12.042-0.005 1.605-2.508 3.732-3.961 6.018-3.961zM9.958 2.404c-0.741 0.723-1.316 1.549-1.82 2.258-0.344-0.207-0.681-0.428-1.010-0.667 0.874-0.633 1.82-1.171 2.831-1.591zM20.708 2.404c1.010 0.42 1.957 0.958 2.831 1.591-0.329 0.239-0.666 0.462-1.010 0.669-0.518-0.861-1.244-1.616-1.82-2.26zM24.609 4.859c2.894 2.563 4.724 6.298 4.724 10.474s-1.83 7.911-4.724 10.474c-0.46-0.351-0.934-0.674-1.422-0.966 1.35-2.625 2.146-5.922 2.146-9.508s-0.795-6.885-2.146-9.51c0.488-0.291 0.962-0.613 1.422-0.964zM6.052 4.862c0.462 0.351 0.94 0.666 1.43 0.958-1.352 2.626-2.148 5.925-2.148 9.513 0 3.586 0.795 6.885 2.146 9.51-0.489 0.292-0.966 0.607-1.427 0.958-2.891-2.563-4.719-6.296-4.719-10.469s1.827-7.909 4.719-10.471zM8.654 6.456c4.219 2.043 9.152 2.040 13.359 0.003 1.23 2.406 1.987 5.497 1.987 8.875 0 3.377-0.755 6.467-1.984 8.872-2.046-0.991-4.263-1.539-6.49-1.539-2.351 0-4.705 0.492-6.872 1.542-1.23-2.406-1.987-5.497-1.987-8.875s0.756-6.471 1.987-8.878zM15.508 24c2.004 0.025 4.001 0.483 5.849 1.365-1.605 2.513-3.735 3.969-6.023 3.969-2.287 0-4.416-1.454-6.021-3.964 1.958-0.934 4.078-1.396 6.195-1.37zM8.138 26.003c0.518 0.861 1.244 1.616 1.82 2.26-1.011-0.42-1.959-0.958-2.833-1.591 0.33-0.239 0.668-0.462 1.013-0.669zM22.531 26.003c0.344 0.207 0.681 0.428 1.010 0.667-0.875 0.634-1.822 1.174-2.833 1.594 0.742-0.724 1.317-1.55 1.823-2.26z"></path>
</svg>
