<!-- Generated by IcoMoon.io -->
<svg version="1.1" xmlns="http://www.w3.org/2000/svg" width="32" height="32" viewBox="0 0 32 32">
<title>mbri-image-slider</title>
<path d="M20.666 9.333c-0.173 0.003-0.349 0.073-0.471 0.195l-4.861 4.866-2.196-2.197c-0.26-0.26-0.682-0.26-0.943 0l-4 4.004c-0.607 0.583 0.348 1.539 0.943 0.944l3.53-3.532 2.195 2.197c0.26 0.261 0.682 0.261 0.943 0l4.862-4.866 2.195 2.197c0.598 0.623 1.552-0.358 0.943-0.944l-2.667-2.669c-0.128-0.128-0.291-0.198-0.471-0.195zM12 5.333c-1.465 0-2.667 1.202-2.667 2.667s1.202 2.667 2.667 2.667c1.465 0 2.667-1.202 2.667-2.667s-1.202-2.667-2.667-2.667zM12 6.667c0.744 0 1.333 0.589 1.333 1.333s-0.589 1.333-1.333 1.333c-0.744 0-1.333-0.589-1.333-1.333s0.589-1.333 1.333-1.333zM8.667 18.667h14.667c0.369 0 0.667 0.297 0.667 0.667s-0.297 0.667-0.667 0.667h-14.667c-0.369 0-0.667-0.297-0.667-0.667s0.297-0.667 0.667-0.667zM26.667 27.333c0 0.368-0.298 0.667-0.667 0.667s-0.667-0.298-0.667-0.667c0-0.368 0.298-0.667 0.667-0.667s0.667 0.298 0.667 0.667zM6.667 27.333c0 0.368-0.298 0.667-0.667 0.667s-0.667-0.298-0.667-0.667c0-0.368 0.298-0.667 0.667-0.667s0.667 0.298 0.667 0.667zM16 25.333c-1.465 0-2.667 1.202-2.667 2.667s1.202 2.667 2.667 2.667c1.465 0 2.667-1.202 2.667-2.667s-1.202-2.667-2.667-2.667zM16 26.667c0.744 0 1.333 0.589 1.333 1.333s-0.589 1.333-1.333 1.333c-0.744 0-1.333-0.589-1.333-1.333s0.589-1.333 1.333-1.333zM3.333 4c0.451 0 0.667 0.333 0.667 0.667s-0.218 0.667-0.667 0.667h-1.333c-0.381 0-0.667 0.286-0.667 0.667v13.333c0 0.381 0.286 0.667 0.667 0.667h1.333c0.457 0 0.667 0.33 0.667 0.667s-0.231 0.667-0.667 0.667h-1.333c-1.096 0-2-0.904-2-2v-13.333c0-1.096 0.904-2 2-2zM28.667 4c-0.451 0-0.667 0.333-0.667 0.667s0.218 0.667 0.667 0.667h1.333c0.381 0 0.667 0.286 0.667 0.667v13.333c0 0.381-0.286 0.667-0.667 0.667h-1.333c-0.457 0-0.667 0.33-0.667 0.667s0.231 0.667 0.667 0.667h1.333c1.096 0 2-0.904 2-2v-13.333c0-1.096-0.904-2-2-2zM7.333 1.333c-1.096 0-2 0.904-2 2v17.333c0 1.096 0.904 2 2 2h17.333c1.096 0 2-0.904 2-2v-17.333c0-1.096-0.904-2-2-2h-17.333zM7.333 2.667h17.333c0.381 0 0.667 0.286 0.667 0.667v17.333c0 0.381-0.286 0.667-0.667 0.667h-17.333c-0.381 0-0.667-0.286-0.667-0.667v-17.333c0-0.381 0.286-0.667 0.667-0.667z"></path>
</svg>
