<!-- Generated by IcoMoon.io -->
<svg version="1.1" xmlns="http://www.w3.org/2000/svg" width="32" height="32" viewBox="0 0 32 32">
<title>mbri-user</title>
<path d="M16 6.667c-2.827 0-5.333 2.3-5.333 5.333v2.667c0 0.132 0.039 0.26 0.112 0.37l1.221 1.833v2.086l-6.344 3.805c-0.201 0.121-0.324 0.338-0.323 0.573v1.333c0 0.875 1.333 0.891 1.333 0v-0.956l6.344-3.805c0.201-0.121 0.323-0.338 0.323-0.573v-2.667c0-0.132-0.039-0.26-0.112-0.37l-1.221-1.833v-2.464c0-2.3 1.894-4 4-4s4 1.7 4 4v2.464l-1.221 1.833c-0.073 0.11-0.112 0.238-0.112 0.37v2.667c-0.001 0.234 0.122 0.452 0.323 0.573l6.344 3.805v0.956c0 0.907 1.333 0.854 1.333 0v-1.333c0.001-0.234-0.122-0.452-0.323-0.573l-6.344-3.805v-2.086l1.221-1.833c0.073-0.11 0.112-0.238 0.112-0.37v-2.667c0-3.033-2.506-5.333-5.333-5.333zM16 0c-8.829 0-16 7.171-16 16s7.171 16 16 16c8.829 0 16-7.171 16-16s-7.171-16-16-16zM16 1.333c8.108 0 14.667 6.559 14.667 14.667s-6.559 14.667-14.667 14.667c-8.108 0-14.667-6.559-14.667-14.667s6.559-14.667 14.667-14.667z"></path>
</svg>
