<!-- Generated by IcoMoon.io -->
<svg version="1.1" xmlns="http://www.w3.org/2000/svg" width="32" height="32" viewBox="0 0 32 32">
<title>mbri-map-pin</title>
<path d="M16 5.333c-2.201 0-4 1.799-4 4s1.799 4 4 4c2.201 0 4-1.799 4-4s-1.799-4-4-4zM16 6.667c1.481 0 2.667 1.186 2.667 2.667s-1.186 2.667-2.667 2.667c-1.481 0-2.667-1.186-2.667-2.667s1.186-2.667 2.667-2.667zM16 0c-5.147 0-9.333 4.187-9.333 9.333 0 3.271 1.909 6.829 3.951 9.641 1.021 1.406 2.084 2.617 2.995 3.495 0.456 0.439 0.872 0.794 1.245 1.055s0.646 0.477 1.143 0.477c0.497 0 0.77-0.216 1.143-0.477s0.789-0.616 1.245-1.055c0.911-0.878 1.974-2.089 2.995-3.495 2.041-2.811 3.951-6.37 3.951-9.641 0-5.147-4.187-9.333-9.333-9.333zM16 1.333c4.426 0 8 3.574 8 8 0 2.729-1.745 6.171-3.698 8.859-0.976 1.344-1.997 2.508-2.839 3.318-0.421 0.405-0.813 0.701-1.083 0.922-0.264 0.215-0.506 0.212-0.76 0-0.268-0.224-0.663-0.517-1.083-0.922-0.841-0.81-1.862-1.973-2.839-3.318-1.953-2.689-3.698-6.13-3.698-8.859 0-4.426 3.574-8 8-8zM4.667 12c-0.317 0-0.615 0.251-0.659 0.565l-2.667 17.333c-0.092 0.6 0.164 1.163 0.547 1.526s0.894 0.576 1.445 0.576h25.333c0.551 0 1.062-0.212 1.445-0.576s0.639-0.926 0.547-1.526l-2.659-17.232c-0.066-0.482-0.345-0.667-0.667-0.667-0.593 0-0.694 0.538-0.651 0.789l2.659 17.313c0.086 0.448-0.096 0.565-0.674 0.565h-25.333c-0.532 0-0.736-0.116-0.674-0.565l2.667-17.333c0.037-0.22-0.075-0.768-0.659-0.768z"></path>
</svg>
