<!-- Generated by IcoMoon.io -->
<svg version="1.1" xmlns="http://www.w3.org/2000/svg" width="32" height="32" viewBox="0 0 32 32">
<title>mbri-sun2</title>
<path d="M11.252 6.919l-2.667-4.619c-0.431-0.747-1.606-0.115-1.155 0.667l2.667 4.619c0.47 0.815 1.562 0.039 1.155-0.667zM23.252 27.704l-2.667-4.619c-0.444-0.769-1.59-0.088-1.155 0.667l2.667 4.619c0.449 0.778 1.588 0.084 1.155-0.667zM7.591 10.089l-4.619-2.667c-0.747-0.432-1.448 0.703-0.667 1.155l4.619 2.667c0.815 0.47 1.371-0.748 0.667-1.155zM28.376 22.089l-4.619-2.667c-0.77-0.444-1.421 0.719-0.667 1.155l4.619 2.667c0.778 0.449 1.418-0.721 0.667-1.155zM19.422 6.919l2.667-4.619c0.431-0.747 1.606-0.115 1.155 0.667l-2.667 4.619c-0.47 0.815-1.562 0.039-1.155-0.667zM7.422 27.704l2.667-4.619c0.444-0.769 1.59-0.088 1.155 0.667l-2.667 4.619c-0.449 0.778-1.588 0.084-1.155-0.667zM23.083 10.089l4.619-2.667c0.747-0.432 1.448 0.703 0.667 1.155l-4.619 2.667c-0.815 0.47-1.372-0.748-0.667-1.155zM2.298 22.089l4.619-2.667c0.769-0.444 1.421 0.719 0.667 1.155l-4.619 2.667c-0.778 0.449-1.418-0.721-0.667-1.155zM24.667 14.667h5.333c0.863 0 0.902 1.333 0 1.333h-5.333c-0.941 0-0.814-1.333 0-1.333zM0.667 14.667h5.333c0.889 0 0.871 1.333 0 1.333h-5.333c-0.899 0-0.867-1.333 0-1.333zM16 24.667v5.333c0 0.863-1.333 0.902-1.333 0v-5.333c0-0.941 1.333-0.814 1.333 0zM16 0.667v5.333c0 0.889-1.333 0.871-1.333 0v-5.333c0-0.899 1.333-0.867 1.333 0zM15.333 8.017c-4.042 0-7.333 3.291-7.333 7.333s3.291 7.333 7.333 7.333 7.333-3.291 7.333-7.333c0-4.042-3.291-7.333-7.333-7.333zM15.333 9.35c3.322 0 6 2.678 6 6s-2.678 6-6 6c-3.322 0-6-2.678-6-6s2.678-6 6-6z"></path>
</svg>
