<!-- Generated by IcoMoon.io -->
<svg version="1.1" xmlns="http://www.w3.org/2000/svg" width="32" height="32" viewBox="0 0 32 32">
<title>mbri-like</title>
<path d="M18.667 1.333c-0.574 0-1.076 0.094-1.497 0.344s-0.714 0.653-0.878 1.089c-0.327 0.872-0.292 1.901-0.292 3.234 0 1.222-0.278 2.049-0.888 2.964s-1.583 1.898-2.917 3.232c-0.585 0.562 0.33 1.555 0.943 0.943 1.333-1.333 2.36-2.35 3.083-3.435s1.112-2.259 1.112-3.703c0-1.333 0.035-2.304 0.208-2.766 0.087-0.231 0.168-0.328 0.31-0.411s0.389-0.156 0.815-0.156c0.389 0 0.596 0.085 0.747 0.203s0.273 0.3 0.37 0.591c0.194 0.581 0.216 1.539 0.216 2.539 0 3.852-1.263 6.37-1.263 6.37-0.22 0.443 0.102 0.963 0.596 0.964h10.568c0.493 0 0.766 0.753 0.766 1.333 0 0.889-0.964 1.404-0.964 1.404-0.491 0.246-0.491 0.947 0 1.193 0 0 0.964 0.515 0.964 1.404s-0.964 1.404-0.964 1.404c-0.491 0.246-0.491 0.947 0 1.193 0 0 0.964 0.515 0.964 1.404s-0.964 1.404-0.964 1.404c-0.491 0.246-0.491 0.947 0 1.193 0 0 0.964 0.515 0.964 1.404 0 0.444-0.179 0.707-0.536 0.945s-0.908 0.388-1.464 0.388h-16c-0.88 0-0.872 1.333 0 1.333h16c0.778 0 1.561-0.184 2.203-0.612s1.13-1.166 1.13-2.055c0-0.94-0.452-1.576-0.901-2 0.449-0.424 0.901-1.060 0.901-2s-0.452-1.576-0.901-2c0.449-0.424 0.901-1.060 0.901-2s-0.452-1.576-0.901-2c0.449-0.424 0.901-1.060 0.901-2 0-0.778-0.193-1.425-0.549-1.901s-0.895-0.766-1.451-0.766h-9.719c0.395-0.988 1.052-2.891 1.052-6 0-1 0.022-2.042-0.284-2.961-0.153-0.459-0.407-0.902-0.818-1.221s-0.954-0.484-1.565-0.484zM2 12c-1.096 0-2 0.904-2 2v14.667c0 1.096 0.904 2 2 2h6.667c1.096 0 2-0.904 2-2v-14.667c0-1.096-0.904-2-2-2zM2 13.333h6.667c0.381 0 0.667 0.286 0.667 0.667v14.667c0 0.381-0.286 0.667-0.667 0.667h-6.667c-0.381 0-0.667-0.286-0.667-0.667v-14.667c0-0.381 0.286-0.667 0.667-0.667z"></path>
</svg>
