<!-- Generated by IcoMoon.io -->
<svg version="1.1" xmlns="http://www.w3.org/2000/svg" width="32" height="32" viewBox="0 0 32 32">
<title>mbri-underline</title>
<path d="M5.333 0.667v12.667c0 5.898 4.769 10.667 10.667 10.667s10.667-4.769 10.667-10.667v-12.667c-0-0.349-0.318-0.667-0.667-0.667h-4c-0.349 0-0.667 0.318-0.667 0.667v12.667c0 2.992-2.367 5.333-5.333 5.333-2.969 0-5.333-2.342-5.333-5.333v-12.667c-0-0.349-0.318-0.667-0.667-0.667h-4c-0.481 0-0.667 0.319-0.667 0.667zM6.667 1.333h2.667v12c0 3.702 2.988 6.667 6.667 6.667 3.681 0 6.667-2.964 6.667-6.667v-12h2.667v12c0 5.182-4.151 9.333-9.333 9.333s-9.333-4.151-9.333-9.333zM5.333 27.333v4c0 0.349 0.318 0.667 0.667 0.667h20c0.349 0 0.667-0.318 0.667-0.667v-4c-0-0.349-0.318-0.667-0.667-0.667h-20c-0.433 0-0.667 0.294-0.667 0.667zM6.667 28h18.667v2.667h-18.667z"></path>
</svg>
