<!-- Generated by IcoMoon.io -->
<svg version="1.1" xmlns="http://www.w3.org/2000/svg" width="32" height="32" viewBox="0 0 32 32">
<title>mbri-print</title>
<path d="M7.333 1.333c-1.096 0-2 0.904-2 2v4c-0 0.003-0 0.006-0 0.009 0 0.368 0.298 0.667 0.667 0.667s0.667-0.298 0.667-0.667c0-0.003-0-0.007-0-0.010v-3.999c0-0.381 0.286-0.667 0.667-0.667h17.333c0.381 0 0.667 0.286 0.667 0.667v4c-0 0.003-0 0.006-0 0.009 0 0.368 0.299 0.667 0.667 0.667s0.667-0.298 0.667-0.667c0-0.003-0-0.007-0-0.010v-3.999c0-1.096-0.904-2-2-2h-17.333zM23.333 12h1.333c0.369 0 0.667 0.297 0.667 0.667s-0.297 0.667-0.667 0.667h-1.333c-0.369 0-0.667-0.297-0.667-0.667s0.297-0.667 0.667-0.667zM27.333 12h1.333c0.369 0 0.667 0.297 0.667 0.667s-0.297 0.667-0.667 0.667h-1.333c-0.369 0-0.667-0.297-0.667-0.667s0.297-0.667 0.667-0.667zM4.667 18.667h22.667c0.369 0 0.667 0.297 0.667 0.667s-0.297 0.667-0.667 0.667h-22.667c-0.369 0-0.667-0.297-0.667-0.667s0.297-0.667 0.667-0.667zM8.667 24h14.667c0.369 0 0.667 0.297 0.667 0.667s-0.297 0.667-0.667 0.667h-14.667c-0.369 0-0.667-0.297-0.667-0.667s0.297-0.667 0.667-0.667zM8.667 21.333h14.667c0.369 0 0.667 0.297 0.667 0.667s-0.297 0.667-0.667 0.667h-14.667c-0.369 0-0.667-0.297-0.667-0.667s0.297-0.667 0.667-0.667zM2 9.333c-1.096 0-2 0.904-2 2v12c0 1.096 0.904 2 2 2h3.333v3.333c0 1.096 0.904 2 2 2h17.333c1.096 0 2-0.904 2-2v-3.333h3.333c1.096 0 2-0.904 2-2v-12c0-1.096-0.904-2-2-2zM2 10.667h28c0.381 0 0.667 0.286 0.667 0.667v12c0 0.381-0.286 0.667-0.667 0.667h-3.333v-2c0.006-0.456-0.33-0.667-0.667-0.667s-0.667 0.214-0.667 0.667v6.667c0 0.381-0.286 0.667-0.667 0.667h-17.333c-0.381 0-0.667-0.286-0.667-0.667v-6.667c0.006-0.376-0.29-0.673-0.667-0.667-0.368 0.006-0.667 0.291-0.667 0.667v2h-3.333c-0.381 0-0.667-0.286-0.667-0.667v-12c0-0.381 0.286-0.667 0.667-0.667z"></path>
</svg>
