<!-- Generated by IcoMoon.io -->
<svg version="1.1" xmlns="http://www.w3.org/2000/svg" width="32" height="32" viewBox="0 0 32 32">
<title>mbri-pin</title>
<path d="M16 6.667c-2.938 0-5.333 2.396-5.333 5.333s2.396 5.333 5.333 5.333c2.938 0 5.333-2.396 5.333-5.333s-2.396-5.333-5.333-5.333zM16 8c2.217 0 4 1.783 4 4s-1.783 4-4 4c-2.217 0-4-1.783-4-4s1.783-4 4-4zM16 0c-7.356 0-13.333 5.977-13.333 13.333 0 4.297 2.776 8.865 5.747 12.427 1.486 1.781 3.031 3.305 4.349 4.398 0.659 0.547 1.26 0.985 1.784 1.299s0.925 0.542 1.453 0.542c0.528 0 0.929-0.227 1.453-0.542s1.125-0.753 1.784-1.299c1.317-1.094 2.863-2.617 4.349-4.398 2.972-3.562 5.747-8.13 5.747-12.427 0-7.356-5.977-13.333-13.333-13.333zM16 1.333c6.635 0 12 5.365 12 12 0 3.703-2.569 8.135-5.438 11.573-1.434 1.719-2.935 3.195-4.177 4.227-0.621 0.516-1.179 0.922-1.617 1.185s-0.803 0.349-0.768 0.349c0.035 0-0.33-0.086-0.768-0.349s-0.996-0.669-1.617-1.185c-1.243-1.031-2.743-2.508-4.177-4.227-2.868-3.438-5.438-7.87-5.438-11.573 0-6.635 5.365-12 12-12z"></path>
</svg>
