<!-- Generated by IcoMoon.io -->
<svg version="1.1" xmlns="http://www.w3.org/2000/svg" width="32" height="32" viewBox="0 0 32 32">
<title>mbri-undo</title>
<path d="M0.583 9.309c-0.331 0.042-0.585 0.322-0.585 0.662 0 0.016 0.001 0.033 0.002 0.049l-0 5.331c0 0.368 0.298 0.667 0.667 0.667h5.333c0.003 0 0.006 0 0.009 0 0.368 0 0.667-0.299 0.667-0.667s-0.298-0.667-0.667-0.667c-0.003 0-0.007 0-0.010 0h-4.666v-4.667c0.001-0.014 0.002-0.030 0.002-0.047 0-0.368-0.298-0.667-0.667-0.667-0.030 0-0.059 0.002-0.088 0.006zM17.958 6.892c-2.171-0.369-4.379-0.285-6.5 0.167s-4.137 1.28-5.958 2.5c-0.911 0.61-1.796 1.333-2.583 2.125-0.145 0.123-0.236 0.305-0.236 0.509 0 0.368 0.299 0.667 0.667 0.667 0.214 0 0.404-0.101 0.526-0.257 0.726-0.73 1.496-1.356 2.334-1.918 1.677-1.123 3.583-1.917 5.542-2.333 3.917-0.834 8.126-0.211 11.75 2.083 4.462 2.824 7.167 7.705 7.167 12.917-0 0.003-0 0.006-0 0.009 0 0.368 0.299 0.667 0.667 0.667s0.667-0.299 0.667-0.667c0-0.003-0-0.007-0-0.010 0-5.671-2.951-10.977-7.792-14.041-1.964-1.243-4.079-2.047-6.25-2.417z"></path>
</svg>
