<!-- Generated by IcoMoon.io -->
<svg version="1.1" xmlns="http://www.w3.org/2000/svg" width="32" height="32" viewBox="0 0 32 32">
<title>mbri-more-horizontal</title>
<path d="M3.333 12c-1.833 0-3.333 1.5-3.333 3.333s1.5 3.333 3.333 3.333 3.333-1.5 3.333-3.333c0-1.833-1.5-3.333-3.333-3.333zM15.333 12c-1.833 0-3.333 1.5-3.333 3.333s1.5 3.333 3.333 3.333 3.333-1.5 3.333-3.333c0-1.833-1.5-3.333-3.333-3.333zM27.333 12c-1.833 0-3.333 1.5-3.333 3.333s1.5 3.333 3.333 3.333 3.333-1.5 3.333-3.333c0-1.833-1.5-3.333-3.333-3.333zM3.333 13.333c1.112 0 2 0.888 2 2s-0.888 2-2 2-2-0.887-2-2c0-1.112 0.888-2 2-2zM15.333 13.333c1.112 0 2 0.888 2 2s-0.888 2-2 2-2-0.887-2-2c0-1.112 0.888-2 2-2zM27.333 13.333c1.112 0 2 0.888 2 2s-0.888 2-2 2-2-0.887-2-2c0-1.112 0.888-2 2-2z"></path>
</svg>
