<!-- Generated by IcoMoon.io -->
<svg version="1.1" xmlns="http://www.w3.org/2000/svg" width="32" height="32" viewBox="0 0 32 32">
<title>mbri-question</title>
<path d="M16.667 22.667c-1.097 0-2 0.903-2 2s0.903 2 2 2c1.097 0 2-0.903 2-2s-0.903-2-2-2zM16.667 24c0.376 0 0.667 0.291 0.667 0.667s-0.291 0.667-0.667 0.667c-0.376 0-0.667-0.291-0.667-0.667s0.291-0.667 0.667-0.667zM16.667 5.333c-1.87-0.024-3.709 0.592-5.193 1.745-0.489 0.373-0.807 0.907-0.807 1.427 0 0.509 0.168 0.999 0.466 1.372s0.807 0.789 1.534 0.789c0.499 0 0.869-0.141 1.227-0.422l0.005-0.003c0.75-0.582 1.816-0.909 2.768-0.909 0.683 0 1.189 0.153 1.523 0.375s0.477 0.545 0.477 0.958c0 0.481-0.262 0.613-0.659 1.010-0.429 0.423-1.044 0.933-1.648 1.654-0.619 0.738-1.129 1.621-1.414 2.628-0.287 1.014-0.279 1.961-0.279 2.708v0.667c0 0.617 0.25 1.165 0.641 1.51s0.877 0.498 1.359 0.49c0.483-0.008 0.979-0.175 1.362-0.518s0.638-0.879 0.638-1.482v-0.667c0-0.706 0.001-1.285 0.094-1.612 0.107-0.377 0.329-0.784 0.633-1.146 0.306-0.365 0.817-0.807 1.398-1.38 0.595-0.587 1.363-1.426 1.708-2.661 0.122-0.435 0.167-0.762 0.167-1.201 0-0.574-0.109-1.144-0.268-1.604-0.3-0.868-0.819-1.6-1.453-2.169-1.257-1.127-2.838-1.541-4.279-1.56zM16.667 6.667c1.2 0.015 2.422 0.352 3.388 1.219 0.481 0.432 0.863 0.974 1.083 1.612 0.103 0.298 0.195 0.78 0.195 1.169 0 0.374-0.014 0.462-0.12 0.841-0.25 0.893-0.809 1.527-1.359 2.070-0.541 0.535-1.064 0.973-1.484 1.474-0.411 0.49-0.723 1.047-0.891 1.638-0.18 0.636-0.146 1.292-0.146 1.977v0.667c0 0.26-0.078 0.385-0.195 0.49s-0.287 0.174-0.471 0.177c-0.184 0.003-0.365-0.057-0.474-0.154s-0.193-0.222-0.193-0.513v-0.667c0-0.751 0.003-1.547 0.229-2.346 0.227-0.801 0.639-1.519 1.154-2.133 0.516-0.615 1.072-1.078 1.565-1.565h0.003v-0.003c0.366-0.366 1.049-0.919 1.049-1.953 0-0.829-0.438-1.645-1.073-2.068s-1.387-0.599-2.26-0.599c-1.253 0-2.581 0.407-3.591 1.193l-0.003 0.003h-0.003c-0.188 0.148-0.313 0.159-0.461 0.13s-0.317-0.134-0.435-0.281c-0.118-0.148-0.175-0.323-0.167-0.464s0.050-0.27 0.276-0.443l0.003-0.003v-0.003c1.241-0.966 2.814-1.486 4.38-1.466zM16 0c-8.829 0-16 7.171-16 16s7.171 16 16 16c8.829 0 16-7.171 16-16s-7.171-16-16-16zM16 1.333c8.108 0 14.667 6.559 14.667 14.667s-6.559 14.667-14.667 14.667c-8.108 0-14.667-6.559-14.667-14.667s6.559-14.667 14.667-14.667z"></path>
</svg>
