<!-- Generated by IcoMoon.io -->
<svg version="1.1" xmlns="http://www.w3.org/2000/svg" width="32" height="32" viewBox="0 0 32 32">
<title>mbri-setting2</title>
<path d="M23.333 16c0.369 0 0.667 0.297 0.667 0.667v8c0 0.369-0.297 0.667-0.667 0.667s-0.667-0.297-0.667-0.667v-8c0-0.369 0.297-0.667 0.667-0.667zM7.333 16c0.369 0 0.667 0.297 0.667 0.667v8c0 0.369-0.297 0.667-0.667 0.667s-0.667-0.297-0.667-0.667v-8c0-0.369 0.297-0.667 0.667-0.667zM15.333 8c0.369 0 0.667 0.297 0.667 0.667v8c0 0.369-0.297 0.667-0.667 0.667s-0.667-0.297-0.667-0.667v-8c0-0.369 0.297-0.667 0.667-0.667zM21.333 14c0-0.369 0.297-0.667 0.667-0.667h2.667c0.369 0 0.667 0.297 0.667 0.667s-0.297 0.667-0.667 0.667h-2.667c-0.369 0-0.667-0.297-0.667-0.667zM13.333 19.333c0-0.369 0.297-0.667 0.667-0.667h2.667c0.369 0 0.667 0.297 0.667 0.667s-0.297 0.667-0.667 0.667h-2.667c-0.369 0-0.667-0.297-0.667-0.667zM5.333 14c0-0.369 0.297-0.667 0.667-0.667h2.667c0.369 0 0.667 0.297 0.667 0.667s-0.297 0.667-0.667 0.667h-2.667c-0.369 0-0.667-0.297-0.667-0.667zM15.333 21.333c0.369 0 0.667 0.297 0.667 0.667v2.667c0 0.369-0.297 0.667-0.667 0.667s-0.667-0.297-0.667-0.667v-2.667c0-0.369 0.297-0.667 0.667-0.667zM23.333 8c0.369 0 0.667 0.297 0.667 0.667v2.667c0 0.369-0.297 0.667-0.667 0.667s-0.667-0.297-0.667-0.667v-2.667c0-0.369 0.297-0.667 0.667-0.667zM7.333 8c0.369 0 0.667 0.297 0.667 0.667v2.667c0 0.369-0.297 0.667-0.667 0.667s-0.667-0.297-0.667-0.667v-2.667c0-0.369 0.297-0.667 0.667-0.667zM2 0c-1.096 0-2 0.904-2 2v28c0 1.096 0.904 2 2 2h26.667c1.096 0 2-0.904 2-2v-28c0-1.096-0.904-2-2-2h-26.667zM2 1.333h26.667c0.381 0 0.667 0.286 0.667 0.667v28c0 0.381-0.286 0.667-0.667 0.667h-26.667c-0.381 0-0.667-0.286-0.667-0.667v-28c0-0.381 0.286-0.667 0.667-0.667z"></path>
</svg>
