<!-- Generated by IcoMoon.io -->
<svg version="1.1" xmlns="http://www.w3.org/2000/svg" width="32" height="32" viewBox="0 0 32 32">
<title>mbri-windows</title>
<path d="M16.667 17.333c-0.368 0-0.667 0.299-0.667 0.667v10.667c-0 0.322 0.23 0.598 0.547 0.656l14.667 2.667c0.41 0.075 0.787-0.24 0.786-0.656v-13.333c-0-0.368-0.299-0.667-0.667-0.667zM17.333 18.667h13.333v11.867l-13.333-2.424zM0.667 17.333c-0.368 0-0.667 0.299-0.667 0.667v8.086c-0.001 0.326 0.235 0.605 0.557 0.659l12 2c0.407 0.068 0.777-0.247 0.776-0.659v-10.086c-0-0.368-0.299-0.667-0.667-0.667zM1.333 18.667h10.667v8.633l-10.667-1.776zM31.313 0c-0.033 0.001-0.066 0.004-0.099 0.010l-14.667 2.667c-0.317 0.058-0.547 0.334-0.547 0.656v10.667c0 0.368 0.299 0.667 0.667 0.667h14.667c0.368-0 0.667-0.299 0.667-0.667v-13.333c0-0.376-0.305-0.667-0.688-0.667zM30.667 1.466v11.867h-13.333v-9.443zM12.646 3.333c-0.042 0.001-0.084 0.006-0.125 0.016l-12 2.667c-0.305 0.068-0.521 0.339-0.521 0.651v7.333c0 0.368 0.298 0.667 0.667 0.667h12c0.368-0 0.667-0.299 0.667-0.667v-10c0-0.376-0.311-0.678-0.688-0.667zM12 4.831v8.503h-10.667v-6.13z"></path>
</svg>
