<!-- Generated by IcoMoon.io -->
<svg version="1.1" xmlns="http://www.w3.org/2000/svg" width="32" height="32" viewBox="0 0 32 32">
<title>mbri-timer</title>
<path d="M10 10.667c-0.407 0-0.667 0.253-0.667 0.667v2.667c0 0.902 1.333 0.87 1.333 0v-1.057l4.195 4.195c0.602 0.602 1.544-0.365 0.943-0.943l-4.195-4.195h1.057c0.891 0 0.866-1.333 0-1.333zM15.333 12c-0.865 0-0.886 1.333 0 1.333h0.667c2.217 0 4 1.783 4 4s-1.783 4-4 4c-2.217 0-4-1.783-4-4v-0.667c0-0.881-1.333-0.876-1.333 0v0.667c0 2.938 2.396 5.333 5.333 5.333s5.333-2.396 5.333-5.333c0-2.938-2.396-5.333-5.333-5.333zM12.667 0c-0.369 0-0.667 0.297-0.667 0.667s0.297 0.667 0.667 0.667h2v3.333c0 0.369 0.297 0.667 0.667 0.667s0.667-0.297 0.667-0.667v-0.667c7.372 0 13.333 5.962 13.333 13.333s-5.962 13.333-13.333 13.333c-7.372 0-13.333-5.962-13.333-13.333 0-3.697 1.404-7.128 3.805-9.529 0.61-0.585-0.365-1.544-0.943-0.943-2.666 2.666-4.195 6.437-4.195 10.471 0 8.092 6.574 14.667 14.667 14.667s14.667-6.574 14.667-14.667c0-8.092-6.574-14.667-14.667-14.667v-1.333h2c0.369 0 0.667-0.297 0.667-0.667s-0.297-0.667-0.667-0.667z"></path>
</svg>
