<!-- Generated by IcoMoon.io -->
<svg version="1.1" xmlns="http://www.w3.org/2000/svg" width="32" height="32" viewBox="0 0 32 32">
<title>mbri-sun</title>
<path d="M26.003 26.667c0.595-0 0.888-0.721 0.46-1.133l-1.325-1.318c-0.627-0.65-1.538 0.33-0.936 0.932l1.325 1.318c0.125 0.128 0.297 0.201 0.476 0.201zM4.664 26.667c-0.595-0-0.888-0.721-0.46-1.133l1.325-1.318c0.611-0.634 1.555 0.341 0.936 0.932l-1.325 1.318c-0.125 0.128-0.297 0.201-0.476 0.201zM15.333 5.333c-5.528 0-10 4.472-10 10s4.472 10 10 10c5.528 0 10-4.472 10-10s-4.472-10-10-10zM15.333 6.667c4.813 0 8.667 3.854 8.667 8.667s-3.854 8.667-8.667 8.667c-4.813 0-8.667-3.854-8.667-8.667s3.854-8.667 8.667-8.667zM26.005 4c0.595 0 0.888 0.724 0.461 1.138l-1.325 1.325c-0.624 0.65-1.587-0.312-0.937-0.937l1.325-1.325c0.125-0.129 0.297-0.202 0.476-0.202zM4.662 4c-0.595 0-0.888 0.724-0.461 1.138l1.325 1.325c0.624 0.65 1.587-0.312 0.937-0.937l-1.325-1.325c-0.125-0.129-0.297-0.202-0.476-0.202zM28 15.333c0-0.369 0.297-0.667 0.667-0.667h1.333c0.369 0 0.667 0.297 0.667 0.667s-0.667 0.667-0.667 0.667h-1.333c0 0-0.667-0.297-0.667-0.667zM0 15.333c0-0.369 0.297-0.667 0.667-0.667h1.333c0.369 0 0.667 0.297 0.667 0.667s-0.297 0.667-0.667 0.667h-1.333c-0.369 0-0.667-0.297-0.667-0.667zM15.333 28c0.369 0 0.667 0.297 0.667 0.667v1.333c0 0.369-0.297 0.667-0.667 0.667s-0.667-0.297-0.667-0.667v-1.333c0-0.369 0.297-0.667 0.667-0.667zM15.333 0c0.369 0 0.667 0.297 0.667 0.667v1.333c0 0.369-0.297 0.667-0.667 0.667s-0.667-0.297-0.667-0.667v-1.333c0-0.369 0.297-0.667 0.667-0.667z"></path>
</svg>
