<!-- Generated by IcoMoon.io -->
<svg version="1.1" xmlns="http://www.w3.org/2000/svg" width="32" height="32" viewBox="0 0 32 32">
<title>mbri-setting</title>
<path d="M23.333 20c-1.833 0-3.333 1.5-3.333 3.333s1.5 3.333 3.333 3.333c1.833 0 3.333-1.5 3.333-3.333s-1.5-3.333-3.333-3.333zM23.333 21.333c1.112 0 2 0.888 2 2s-0.888 2-2 2c-1.112 0-2-0.888-2-2s0.888-2 2-2zM22 14.667c-0.368 0-0.667 0.299-0.667 0.667v2.404c-0.185 0.066-0.364 0.142-0.542 0.227l-1.768-1.768c-0.26-0.26-0.682-0.26-0.943 0l-1.885 1.885c-0.26 0.26-0.26 0.682 0 0.943l1.768 1.768c-0.084 0.177-0.16 0.357-0.227 0.542h-2.404c-0.368 0-0.667 0.299-0.667 0.667v2.667c0 0.368 0.299 0.667 0.667 0.667h2.404c0.066 0.185 0.142 0.364 0.227 0.542l-1.768 1.768c-0.26 0.26-0.26 0.682 0 0.943l1.885 1.885c0.26 0.26 0.682 0.26 0.943 0l1.768-1.768c0.177 0.084 0.357 0.16 0.542 0.227v2.404c0 0.368 0.299 0.667 0.667 0.667h2.667c0.368-0 0.667-0.299 0.667-0.667v-2.404c0.185-0.066 0.364-0.142 0.542-0.227l1.768 1.768c0.26 0.26 0.682 0.26 0.943 0l1.885-1.885c0.26-0.26 0.26-0.682 0-0.943l-1.768-1.768c0.084-0.177 0.16-0.357 0.227-0.542h2.404c0.368-0 0.667-0.299 0.667-0.667v-2.667c-0-0.368-0.299-0.667-0.667-0.667h-2.404c-0.066-0.185-0.142-0.364-0.227-0.542l1.768-1.768c0.26-0.26 0.26-0.682 0-0.943l-1.885-1.885c-0.26-0.26-0.682-0.26-0.943 0l-1.768 1.768c-0.177-0.084-0.357-0.16-0.542-0.227v-2.404c-0-0.368-0.299-0.667-0.667-0.667zM22.667 16h1.333v2.177c-0 0.304 0.206 0.57 0.5 0.646 0.421 0.109 0.823 0.277 1.198 0.497 0.262 0.154 0.595 0.111 0.81-0.104l1.607-1.607 0.943 0.943-1.607 1.607c-0.214 0.215-0.256 0.548-0.102 0.81 0.221 0.374 0.388 0.78 0.497 1.201 0.077 0.293 0.342 0.498 0.646 0.497h2.174v1.333h-2.177c-0.304-0-0.57 0.206-0.646 0.5-0.109 0.421-0.277 0.823-0.497 1.198-0.154 0.262-0.111 0.595 0.104 0.81l1.607 1.607-0.943 0.943-1.607-1.607c-0.215-0.214-0.548-0.256-0.81-0.102-0.374 0.221-0.78 0.388-1.201 0.497-0.293 0.077-0.498 0.342-0.497 0.646v2.174h-1.333v-2.177c0-0.304-0.206-0.57-0.5-0.646-0.421-0.109-0.823-0.277-1.198-0.497-0.262-0.154-0.595-0.111-0.81 0.104l-1.607 1.607-0.943-0.943 1.607-1.607c0.214-0.215 0.256-0.548 0.102-0.81-0.221-0.374-0.388-0.78-0.497-1.201-0.077-0.293-0.342-0.498-0.646-0.497h-2.174v-1.333h2.177c0.304 0 0.57-0.206 0.646-0.5 0.109-0.421 0.277-0.823 0.497-1.198 0.154-0.262 0.111-0.595-0.104-0.81l-1.607-1.607 0.943-0.943 1.607 1.607c0.215 0.214 0.548 0.256 0.81 0.102 0.374-0.221 0.78-0.388 1.201-0.497 0.293-0.077 0.498-0.342 0.497-0.646zM13.333 9.333c-2.201 0-4 1.799-4 4s1.799 4 4 4c2.201 0 4-1.799 4-4s-1.799-4-4-4zM13.333 10.667c1.481 0 2.667 1.186 2.667 2.667s-1.186 2.667-2.667 2.667c-1.481 0-2.667-1.186-2.667-2.667s1.186-2.667 2.667-2.667zM12 0c-0.727 0-1.333 0.606-1.333 1.333v1.781c-0.941 0.245-1.837 0.615-2.677 1.104l-1.167-1.167c-0.514-0.514-1.371-0.514-1.885 0l-1.885 1.885c-0.514 0.514-0.514 1.371 0 1.885l1.167 1.167c-0.493 0.839-0.866 1.736-1.115 2.677h-1.771c-0.727 0-1.333 0.606-1.333 1.333v2.667c0 0.727 0.606 1.333 1.333 1.333h1.781c0.245 0.941 0.615 1.837 1.104 2.677l-1.167 1.167c-0.514 0.514-0.514 1.371 0 1.885l1.885 1.885c0.514 0.514 1.371 0.514 1.885 0l1.167-1.167c0.839 0.493 1.736 0.866 2.677 1.115v1.771c0 0.727 0.606 1.333 1.333 1.333h0.667c0.881 0 0.871-1.333 0-1.333h-0.667v-2.203c0-0.316-0.222-0.589-0.531-0.654-1.168-0.241-2.279-0.702-3.273-1.362-0.264-0.176-0.616-0.141-0.841 0.083l-1.474 1.474-1.885-1.885 1.471-1.471c0.224-0.224 0.26-0.574 0.086-0.839-0.656-0.996-1.114-2.108-1.352-3.276-0.063-0.311-0.337-0.534-0.654-0.534h-2.214v-2.667h2.203c0.316 0 0.589-0.222 0.654-0.531 0.241-1.168 0.702-2.279 1.362-3.273 0.176-0.264 0.141-0.616-0.083-0.841l-1.474-1.474 1.885-1.885 1.471 1.471c0.224 0.224 0.574 0.26 0.839 0.086 0.996-0.656 2.108-1.114 3.276-1.352 0.311-0.063 0.534-0.337 0.534-0.654v-2.214h2.667v2.203c-0 0.316 0.222 0.589 0.531 0.654 1.168 0.241 2.279 0.702 3.273 1.362 0.264 0.176 0.616 0.141 0.841-0.083l1.474-1.474 1.885 1.885-1.471 1.471c-0.224 0.224-0.26 0.574-0.086 0.839 0.656 0.996 1.114 2.108 1.352 3.276 0.063 0.311 0.337 0.534 0.654 0.534h2.214v0.667c0 0.891 1.333 0.87 1.333 0v-0.667c0-0.727-0.606-1.333-1.333-1.333h-1.781c-0.245-0.941-0.615-1.837-1.104-2.677l1.167-1.167c0.514-0.514 0.514-1.371 0-1.885l-1.885-1.885c-0.514-0.514-1.371-0.514-1.885 0l-1.167 1.167c-0.839-0.493-1.736-0.866-2.677-1.115v-1.771c0-0.727-0.606-1.333-1.333-1.333z"></path>
</svg>
