<!-- Generated by IcoMoon.io -->
<svg version="1.1" xmlns="http://www.w3.org/2000/svg" width="32" height="32" viewBox="0 0 32 32">
<title>mbri-lock</title>
<path d="M15.333 0c-4.042 0-7.333 3.291-7.333 7.333v2.667c0 0.896 1.333 0.865 1.333 0v-2.667c0-3.322 2.678-6 6-6s6 2.678 6 6v2.667c0 0.891 1.333 0.875 1.333 0v-2.667c0-4.042-3.291-7.333-7.333-7.333zM15.333 17.333c-1.833 0-3.333 1.5-3.333 3.333 0.001 1.026 0.541 1.926 1.333 2.552v1.448c0 1.096 0.904 2 2 2s2-0.904 2-2v-1.451c0.791-0.625 1.332-1.524 1.333-2.549 0-1.833-1.5-3.333-3.333-3.333zM15.333 18.667c1.112 0 2 0.888 2 2-0.001 0.714-0.381 1.369-1 1.727-0.206 0.119-0.334 0.34-0.333 0.578v1.695c0 0.381-0.286 0.667-0.667 0.667s-0.667-0.286-0.667-0.667v-1.693c0-0.238-0.127-0.459-0.333-0.578-0.619-0.358-0.999-1.014-1-1.729 0-1.112 0.888-2 2-2zM6 12c-1.096 0-2 0.904-2 2v16c0 1.096 0.904 2 2 2h18.667c1.096 0 2-0.904 2-2v-16c0-1.096-0.904-2-2-2zM6 13.333h18.667c0.381 0 0.667 0.286 0.667 0.667v16c0 0.381-0.286 0.667-0.667 0.667h-18.667c-0.381 0-0.667-0.286-0.667-0.667v-16c0-0.381 0.286-0.667 0.667-0.667z"></path>
</svg>
