<!-- Generated by IcoMoon.io -->
<svg version="1.1" xmlns="http://www.w3.org/2000/svg" width="32" height="32" viewBox="0 0 32 32">
<title>mbri-hearth</title>
<path d="M8.667 2.667c-2.279 0-4.448 1.065-6.018 2.646-1.573 1.584-2.648 3.799-2.648 6.021 0 2.582 0.82 5.118 2.289 7.232 1.453 2.091 3.358 3.77 5.299 5.292 2.552 2.001 5.265 3.805 8.086 5.391 0.101 0.057 0.213 0.086 0.326 0.086s0.224-0.029 0.326-0.086c2.821-1.586 5.522-3.39 8.073-5.391 1.941-1.522 3.846-3.2 5.299-5.292 1.468-2.112 2.302-4.648 2.302-7.232 0-2.225-1.090-4.438-2.661-6.021-1.576-1.587-3.789-2.646-6.018-2.646-1.55 0-3.135 0.305-4.539 1.070-1.153 0.629-2.018 1.641-2.781 2.703-0.767-1.064-1.642-2.075-2.794-2.703-1.4-0.764-2.96-1.070-4.539-1.070zM8.667 4c1.406 0 2.732 0.272 3.898 0.909 1.177 0.642 2.187 1.61 2.859 2.76 0.257 0.44 0.894 0.44 1.151 0 0.674-1.153 1.671-2.119 2.846-2.76 1.163-0.634 2.525-0.909 3.898-0.909 1.797 0 3.731 0.901 5.070 2.25 1.344 1.353 2.276 3.308 2.276 5.083 0 2.296-0.746 4.576-2.063 6.471-1.331 1.916-3.13 3.516-5.029 5.005-2.395 1.878-4.937 3.555-7.576 5.060-2.64-1.506-5.194-3.182-7.589-5.060-1.899-1.489-3.697-3.089-5.029-5.005-1.316-1.894-2.049-4.173-2.049-6.471 0-1.778 0.921-3.731 2.263-5.083 1.345-1.355 3.212-2.25 5.070-2.25z"></path>
</svg>
