<!-- Generated by IcoMoon.io -->
<svg version="1.1" xmlns="http://www.w3.org/2000/svg" width="32" height="32" viewBox="0 0 32 32">
<title>mbri-up-down</title>
<path d="M6.498 5.124l3.524-3.519 3.481 3.519c0.602 0.618 1.6-0.313 0.947-0.947l-3.954-3.992c-0.248-0.248-0.7-0.248-0.948 0l-3.998 3.992c-0.653 0.65 0.317 1.575 0.948 0.947zM21.336 4.667v21.333c0 0.88 1.333 0.862 1.333 0v-21.333c0-0.886-1.333-0.867-1.333 0zM25.502 25.543l-3.524 3.519-3.481-3.519c-0.602-0.618-1.6 0.313-0.947 0.947l3.954 3.991c0.248 0.248 0.7 0.248 0.948 0l3.998-3.991c0.653-0.65-0.317-1.575-0.948-0.947zM10.669 26v-21.333c0-0.893-1.333-0.86-1.333 0v21.333c0 0.901 1.333 0.862 1.333 0z"></path>
</svg>
