<!-- Generated by IcoMoon.io -->
<svg version="1.1" xmlns="http://www.w3.org/2000/svg" width="32" height="32" viewBox="0 0 32 32">
<title>mbri-logout</title>
<path d="M6 21.333c0.594 0 0.874-0.735 0.471-1.138l-4.862-4.862 4.862-4.862c0.596-0.572-0.381-1.528-0.943-0.943l-5.333 5.333c-0.26 0.26-0.26 0.682 0 0.943l5.333 5.333c0.126 0.13 0.291 0.195 0.471 0.195zM18 16h-13.333c-0.369 0-0.667-0.297-0.667-0.667s0.297-0.667 0.667-0.667h13.333c0.369 0 0.667 0.297 0.667 0.667s-0.297 0.667-0.667 0.667zM10 0c-1.096 0-2 0.904-2 2v6.667c0 0.886 1.333 0.876 1.333 0v-6.667c0-0.381 0.286-0.667 0.667-0.667h20c0.381 0 0.667 0.286 0.667 0.667v28c0 0.381-0.286 0.667-0.667 0.667h-20c-0.381 0-0.667-0.286-0.667-0.667v-8c0-0.891-1.333-0.87-1.333 0v8c0 1.096 0.904 2 2 2h20c1.096 0 2-0.904 2-2v-28c0-1.096-0.904-2-2-2z"></path>
</svg>
