<!-- Generated by IcoMoon.io -->
<svg version="1.1" xmlns="http://www.w3.org/2000/svg" width="32" height="32" viewBox="0 0 32 32">
<title>mbri-briefcase</title>
<path d="M2.859 10.831c-0.242 0.242-0.287 0.682 0.042 1.010l5.309 5.286c0.749 0.75 1.533 1.277 2.456 1.457v0.749c0 0.369 0.297 0.666 0.667 0.666s0.667-0.297 0.667-0.666v-0.667h8v0.667c0 0.369 0.297 0.666 0.667 0.666s0.663-0.297 0.667-0.666l0.007-0.749c0.923-0.18 1.71-0.707 2.459-1.457l5.293-5.287c0.3-0.299 0.326-0.715 0.042-0.999s-0.677-0.198-0.959 0.083l-5.294 5.287c-0.58 0.58-1.038 0.902-1.549 1.041l0.007-0.586c0.004-0.369-0.304-0.667-0.674-0.667s-0.667 0.298-0.667 0.667v0.667h-8v-0.667c0-0.369-0.297-0.667-0.667-0.667s-0.667 0.298-0.667 0.667v0.586c-0.511-0.139-0.959-0.46-1.539-1.041l-5.309-5.286c-0.282-0.281-0.717-0.336-0.959-0.094zM11.333 2.667c-1.096 0-2 0.904-2 2v1.333c-0.005 0.352 0.314 0.667 0.667 0.667s0.672-0.314 0.667-0.667v-1.333c0-0.381 0.286-0.667 0.667-0.667h9.333c0.381 0 0.667 0.286 0.667 0.667v1.333c-0.005 0.352 0.314 0.667 0.667 0.667s0.672-0.314 0.667-0.667v-1.333c0-1.096-0.904-2-2-2zM2 8c-1.096 0-2 0.904-2 2v17.333c0 1.096 0.904 2 2 2h28c1.096 0 2-0.904 2-2v-17.333c0-1.096-0.904-2-2-2zM2 9.333h28c0.381 0 0.667 0.286 0.667 0.667v17.333c0 0.381-0.286 0.667-0.667 0.667h-28c-0.381 0-0.667-0.286-0.667-0.667v-17.333c0-0.381 0.286-0.667 0.667-0.667z"></path>
</svg>
