<!-- Generated by IcoMoon.io -->
<svg version="1.1" xmlns="http://www.w3.org/2000/svg" width="32" height="32" viewBox="0 0 32 32">
<title>mbrib-underline</title>
<path d="M4 1v12c0 6.076 4.924 11 11 11s11-4.924 11-11v-12c0-0.524-0.476-1-1-1h-4c-0.524 0-1 0.476-1 1v11.812c0 2.9-2.228 5.188-5 5.188s-5-2.29-5-5.188v-11.812c0-0.524-0.476-1-1-1h-4c-0.55 0-1 0.532-1 1zM6 2h2v10.812c0 3.94 3.124 7.188 7 7.188s7-3.246 7-7.188v-10.812h2v11c0 5.004-3.996 9-9 9s-9-3.996-9-9zM6 26c-1.090 0-2 0.91-2 2v2c0 1.090 0.91 2 2 2h18c1.090 0 2-0.91 2-2v-2c0-1.090-0.91-2-2-2zM6 28h18v2h-18z"></path>
</svg>
