<!-- Generated by IcoMoon.io -->
<svg version="1.1" xmlns="http://www.w3.org/2000/svg" width="32" height="32" viewBox="0 0 32 32">
<title>mbrib-sad-face</title>
<path d="M12 11v2c0 1.332-2 1.328-2 0v-2c0-1.3 2-1.36 2 0zM22 11v2c0 1.332-2 1.328-2 0v-2c0-1.3 2-1.36 2 0zM15.996 20c-2.2 0-4.416 0.716-5.78 2.38-0.79 0.966 0.786 2.132 1.508 1.254 0.814-0.988 2.526-1.628 4.272-1.628 1.748 0 3.45 0.646 4.272 1.628 0.852 1.016 2.286-0.31 1.508-1.254-1.37-1.66-3.58-2.38-5.78-2.38zM16 0c-8.824 0-16 7.176-16 16s7.176 16 16 16 16-7.176 16-16-7.176-16-16-16zM16 2c7.744 0 14 6.256 14 14s-6.256 14-14 14-14-6.256-14-14 6.256-14 14-14z"></path>
</svg>
