<!-- Generated by IcoMoon.io -->
<svg version="1.1" xmlns="http://www.w3.org/2000/svg" width="32" height="32" viewBox="0 0 32 32">
<title>mbrib-chat</title>
<path d="M5 10h22c1.348 0 1.312 2 0 2h-22c-1.36 0-1.28-2 0-2zM5 6h22c1.348 0 1.312 2 0 2h-22c-1.36 0-1.28-2 0-2zM3 0c-1.644 0-3 1.356-3 3v18c0 1.644 1.356 3 3 3h1v5c0 0.906 1.052 1.32 1.688 0.688l5.688-5.688h17.624c1.644 0 3-1.356 3-3v-18c0-1.644-1.356-3-3-3zM3 2h26c0.572 0 1 0.428 1 1v18c0 0.572-0.428 1-1 1h-18c-0.25 0-0.5 0.084-0.688 0.25l-4.312 4.31v-3.56c0-0.524-0.476-1-1-1h-2c-0.572 0-1-0.428-1-1v-18c0-0.572 0.428-1 1-1z"></path>
</svg>
