<!-- Generated by IcoMoon.io -->
<svg version="1.1" xmlns="http://www.w3.org/2000/svg" width="32" height="32" viewBox="0 0 32 32">
<title>mbrib-star</title>
<path d="M13.672 1.686c-1.156 1.86-2.020 3.72-2.936 5.62-0.66 1.376-1.18 1.55-2.372 1.808-2.080 0.45-4.080 0.76-6.060 1.248-1.12 0.28-2.076 1.174-2.214 1.688-0.14 0.512-0.126 1.16 0.094 1.56 1.276 2.35 3.152 4.090 4.932 5.93 1.030 1.060 1.006 1.76 0.874 2.932-0.246 2.192-0.568 4.28-0.748 6.368-0.1 1.186 0.174 2.132 0.876 2.746 0.756 0.66 1.91 0.412 2.81 0.060 2-0.776 3.78-1.794 5.62-2.744 1.070-0.55 1.614-0.594 2.872 0 1.944 0.92 3.734 1.9 5.62 2.748 1.064 0.48 2.15 0.424 2.92-0.152 0.772-0.576 0.78-1.666 0.764-2.66-0.034-2.21-0.43-4.24-0.75-6.364-0.224-1.488 0.094-2.068 0.874-2.934 1.466-1.628 2.924-3.13 4.246-4.746 0.72-0.88 1.092-1.64 0.812-2.684-0.28-1.040-1.33-1.446-2.248-1.748-2.026-0.664-4.030-0.888-6.060-1.246-1.49-0.264-1.812-0.734-2.372-1.81-1.008-1.94-1.88-3.912-2.934-5.62-0.618-1-1.238-1.686-2.312-1.686-1.068 0-1.808 0.88-2.308 1.686zM16.358 2.934c1.114 1.79 2.010 3.612 2.87 5.432 0.934 1.98 2.1 2.62 3.934 2.996 1.994 0.41 3.816 0.684 5.746 1.188 0.68 0.18 0.632 0.504 0.312 0.936-1.236 1.67-2.668 3.074-4.060 4.494-1.516 1.552-1.744 2.98-1.496 4.804 0.29 2.146 0.58 3.916 0.812 6.12 0.068 0.65-0.184 0.78-0.688 0.56-1.812-0.804-3.754-1.74-5.37-2.62-1.726-0.94-2.834-0.992-4.874 0-1.88 0.912-3.432 1.72-5.37 2.62-0.5 0.232-0.74 0.070-0.686-0.56 0.174-2.040 0.48-4.254 0.812-6.12 0.384-2.134-0.26-3.416-1.5-4.806-1.392-1.568-2.686-2.974-4.056-4.496-0.692-0.768 0.11-0.866 0.312-0.936 1.896-0.656 3.844-0.886 5.744-1.186 2.16-0.34 3.064-1.344 3.936-2.994 0.994-1.886 1.792-3.62 2.872-5.432 0.3-0.5 0.496-0.406 0.75 0z"></path>
</svg>
