<!-- Generated by IcoMoon.io -->
<svg version="1.1" xmlns="http://www.w3.org/2000/svg" width="32" height="32" viewBox="0 0 32 32">
<title>mbrib-sun</title>
<path d="M4.312 5.724l1.414 1.414c0.964 0.96 2.32-0.51 1.414-1.416l-1.414-1.414c-0.94-0.94-2.36 0.47-1.414 1.414zM22.872 5.724l1.416-1.414c0.964-0.964 2.32 0.51 1.414 1.414l-1.412 1.414c-0.94 0.94-2.36-0.47-1.414-1.416zM4.312 24.27l1.414-1.414c0.964-0.96 2.32 0.51 1.414 1.414l-1.414 1.416c-0.94 0.94-2.36-0.47-1.414-1.416zM27 14h2c1.36 0 1.28 2 0 2h-2c-1.332 0-1.336-2 0-2zM1 14h2c1.36 0 1.28 2 0 2h-2c-1.332 0-1.336-2 0-2zM16 27v2c0 1.36-2 1.28-2 0v-2c0-1.332 2-1.336 2 0zM16 1v2c0 1.36-2 1.28-2 0v-2c0-1.332 2-1.336 2 0zM15 6c-4.96 0-9 4.040-9 9s4.040 9 9 9 9-4.040 9-9-4.040-9-9-9zM15 8c3.88 0 7 3.12 7 7s-3.12 7-7 7-7-3.12-7-7 3.12-7 7-7zM22.874 24.266l1.414 1.416c0.964 0.964 2.32-0.508 1.414-1.414l-1.412-1.414c-0.94-0.94-2.36 0.47-1.414 1.414z"></path>
</svg>
