<!-- Generated by IcoMoon.io -->
<svg version="1.1" xmlns="http://www.w3.org/2000/svg" width="32" height="32" viewBox="0 0 32 32">
<title>mbrib-left-right</title>
<path d="M24.996 24h-20c-1.364 0-1.29-2 0-2h20c1.316 0 1.326 2 0 2zM31.73 22.31l-4-4.004c-0.928-0.93-2.34 0.472-1.44 1.376l3.314 3.32-3.312 3.316c-0.92 0.92 0.508 2.306 1.44 1.376l4-4.006c0.352-0.354 0.354-1.020 0-1.376zM7 10h20c1.364 0 1.29-2 0-2h-20c-1.316 0-1.326 2 0 2zM0.266 8.31l4-4.004c0.928-0.93 2.34 0.472 1.44 1.376l-3.316 3.318 3.312 3.314c0.92 0.92-0.508 2.308-1.44 1.38l-4-4.008c-0.352-0.354-0.354-1.020 0-1.376z"></path>
</svg>
