<!-- Generated by IcoMoon.io -->
<svg version="1.1" xmlns="http://www.w3.org/2000/svg" width="32" height="32" viewBox="0 0 32 32">
<title>mbrib-user</title>
<path d="M16 0c-8.824 0-16 7.176-16 16s7.176 16 16 16 16-7.176 16-16-7.176-16-16-16zM16 2c7.744 0 14 6.256 14 14s-6.256 14-14 14-14-6.256-14-14 6.256-14 14-14zM16 4c-3.69 0-6 2.066-6 6 0 3.266 0.668 4.004 2 5.312v1.126l-5.56 3.682c-0.284 0.194-0.456 0.536-0.44 0.876v2c0 1.34 2 1.28 2 0v-1.5l5.56-3.688c0.268-0.176 0.44-0.488 0.44-0.808v-2c0.006-0.28-0.11-0.56-0.312-0.75-1.532-1.22-1.684-2.45-1.688-4.25-0.008-2.934 1.45-4.046 4-4s4 1.174 4 4c0 2.68-0.612 3.052-1.626 4.188-0.24 0.194-0.384 0.5-0.374 0.812v2c0.004 0.32 0.174 0.632 0.44 0.812l5.56 3.688v1.5c0 1.324 2 1.326 2 0v-2c0.016-0.34-0.156-0.684-0.44-0.876l-5.56-3.684v-1.19c1.75-1.44 2-2.39 2-5.25 0-4.010-2.31-6-6-6z"></path>
</svg>
