<!-- Generated by IcoMoon.io -->
<svg version="1.1" xmlns="http://www.w3.org/2000/svg" width="32" height="32" viewBox="0 0 32 32">
<title>mbrib-italic</title>
<path d="M17.166 8c-1.284 0-2.548 0.12-3.728 0.814-1.184 0.694-2.334 1.796-3.296 3.636-0.674 1.28 1.21 1.99 1.74 1.064 0.75-1.312 1.404-2.12 2.050-2.632-0.284 3.134-1.84 7.86-2.92 11.908-0.6 2.234-1.056 4.226-1.014 5.89 0.002 2.18 1.162 3.32 2.818 3.32 1.514 0 2.776-0.164 3.916-0.88 1.14-0.71 2.116-1.85 3.106-3.632 0.72-1.3-1.176-1.97-1.74-1-0.804 1.372-1.448 2.2-2.052 2.692 0.28-3.132 1.84-7.914 2.92-11.968 0.6-2.234 1.050-4.288 1.032-5.954-0.022-2.15-0.928-3.258-2.832-3.258zM18 11.32c0.016 1.22-0.376 3.214-0.96 5.39-1.148 4.306-3.004 9.46-3.044 13.22-1.604 0.22-1.98-0.172-1.996-1.314-0.016-1.216 0.36-3.15 0.94-5.326 1.146-4.286 2.988-9.4 3.046-13.16 1.748-0.334 2 0.16 2.014 1.192zM19 0c-1.646 0-3 1.354-3 3 0 1.644 1.354 3 3 3s3-1.356 3-3c0-1.646-1.354-3-3-3zM19 2c0.564 0 1 0.436 1 1s-0.436 1-1 1c-0.564 0-1-0.436-1-1s0.436-1 1-1z"></path>
</svg>
