<!-- Generated by IcoMoon.io -->
<svg version="1.1" xmlns="http://www.w3.org/2000/svg" width="32" height="32" viewBox="0 0 32 32">
<title>mbrib-tablet-vertical</title>
<path d="M15 26h2c1.352 0 1.31 2 0 2h-2c-1.34 0-1.334-2 0-2zM9 22h14c1.352 0 1.31 2 0 2h-14c-1.304 0-1.344-2 0-2zM4 29c0 1.644 1.356 3 3 3h18c1.644 0 3-1.356 3-3v-26c0-1.644-1.356-3-3-3h-18c-1.644 0-3 1.356-3 3v26zM6 29v-26c0-0.572 0.428-1 1-1h18c0.572 0 1 0.428 1 1v26c0 0.572-0.428 1-1 1h-18c-0.572 0-1-0.428-1-1z"></path>
</svg>
