<!-- Generated by IcoMoon.io -->
<svg version="1.1" xmlns="http://www.w3.org/2000/svg" width="32" height="32" viewBox="0 0 32 32">
<title>mbrib-cloud</title>
<path d="M17 4c-5.124 0.092-8.2 3.084-9.75 6.126-4.040 0.4-7.25 3.73-7.25 7.874 0 4.414 3.586 8 8 8h18c3.3 0 6-2.7 6-6 0-2.6-1.796-4.66-4.126-5.5-0.324-6.136-5.46-10.6-10.874-10.5zM17 6c4.43-0.080 9 3.748 9 9.060 0.020 0.448 0.374 0.856 0.812 0.94 1.808 0.37 3.188 2.060 3.188 4 0 2.22-1.78 4-4 4h-18c-3.34 0-6-2.66-6-6 0-3.288 2.55-5.916 5.812-6 0.4 0 0.788-0.256 0.94-0.626 1.218-2.694 3.622-5.29 8.248-5.374z"></path>
</svg>
