<!-- Generated by IcoMoon.io -->
<svg version="1.1" xmlns="http://www.w3.org/2000/svg" width="32" height="32" viewBox="0 0 32 32">
<title>mbrib-rocket</title>
<path d="M22.5 0.688c-3.132 0.952-6.5 3.252-9.56 6.312-1.596 1.594-2.93 3.26-4 4.94-5.36 0-8.754 4.37-8.754 4.37-0.296 0.376-0.268 0.968 0.060 1.312l2 2c1 1 2.36-0.45 1.376-1.436l-1.25-1.25c0.7-0.744 2.512-2.454 5.314-2.88-0.408 0.82-0.734 1.65-1 2.44-1.044 3.1-0.984 6.080 0.874 7.94 1.86 1.856 4.84 1.916 7.94 0.872 0.79-0.266 1.62-0.592 2.44-1-0.43 2.82-2.214 4.634-2.94 5.312l-1.312-1.312c-0.874-0.872-2.34 0.472-1.376 1.44l2 2c0.346 0.328 0.94 0.36 1.314 0.060 0 0 4.374-3.394 4.374-8.75 1.694-1.074 3.39-2.388 5-4 3.060-3.058 5.268-6.458 6.312-9.558s1.016-6.324-0.874-7.94c-2.54-2.16-5.13-1.728-7.94-0.872zM29.060 2.938c1.090 1.086 1.292 3.218 0.38 5.936-0.92 2.72-2.94 5.876-5.816 8.75-2.872 2.872-6.032 4.896-8.748 5.812-2.72 0.912-4.85 0.71-5.94-0.38-1.086-1.086-1.288-3.216-0.374-5.934 0.92-2.72 2.94-5.88 5.814-8.752s6.044-4.86 8.75-5.812c2.28-0.8 4.708-0.852 5.94 0.38zM22 6c-2.2 0-4.026 1.83-4.026 4.026 0 2.2 1.828 3.966 4.026 3.966 2.2 0 3.966-1.768 3.966-3.966 0-2.196-1.766-4.026-3.966-4.026zM22 8.014c1.116 0 2.014 0.896 2.014 2.012 0 1.12-0.9 2.014-2.014 2.014-1.116 0-2.014-0.896-2.014-2.014 0-1.116 0.9-2.012 2.014-2.012zM3.112 30.308l-1.414 1.414c-0.88 0.88-2.312-0.516-1.42-1.412l1.42-1.414c0.944-0.946 2.316 0.51 1.412 1.414zM9.112 28.308l-1.414 1.414c-0.88 0.88-2.312-0.516-1.42-1.412l1.42-1.414c0.944-0.946 2.316 0.51 1.412 1.414zM5.112 24.308l-1.414 1.414c-0.88 0.88-2.312-0.516-1.42-1.412l1.42-1.414c0.944-0.946 2.316 0.51 1.412 1.414z"></path>
</svg>
