<!-- Generated by IcoMoon.io -->
<svg version="1.1" xmlns="http://www.w3.org/2000/svg" width="32" height="32" viewBox="0 0 32 32">
<title>mbrib-to-ftp</title>
<path d="M6 17c0 1.336 2 1.324 2 0v-3h1c1.314 0 1.34-2 0-2h-1v-2h3c1.352 0 1.31-2 0-2h-4c-0.554 0-1 0.446-1 1zM15 8c-1.33 0-1.31 2 0 2h1v7c0 1.32 1.996 1.334 2 0v-7h1c1.33 0 1.324-2 0-2zM22 17c0 1.308 2 1.348 2 0v-3h1c1.644 0 3-1.356 3-3s-1.356-3-3-3h-2c-0.644 0-1 0.394-1 1zM24 10h1c0.572 0 1 0.428 1 1s-0.428 1-1 1h-1zM3 0c-1.644 0-3 1.356-3 3v20c0 1.644 1.356 3 3 3h6c1.326 0 1.34-2 0-2h-6c-0.572 0-1-0.428-1-1v-20c0-0.572 0.428-1 1-1h7.626l3.686 3.688c0.18 0.188 0.43 0.3 0.688 0.312h15v17c0 0.572-0.428 1-1 1h-4c-1.3 0-1.336 2 0 2h4c1.644 0 3-1.356 3-3v-18c0-0.524-0.476-1-1-1h-15.56l-3.754-3.75c-0.186-0.166-0.438-0.256-0.686-0.25zM16.31 20.272l-4.010 4.008c-0.92 0.92 0.5 2.32 1.38 1.44l3.32-3.32 3.32 3.32c0.88 0.88 2.306-0.512 1.38-1.44l-4.012-4.008c-0.34-0.34-0.992-0.386-1.38 0zM18 31v-4c0-1.3-2-1.336-2 0v4c0 1.344 2 1.316 2 0z"></path>
</svg>
