<!-- Generated by IcoMoon.io -->
<svg version="1.1" xmlns="http://www.w3.org/2000/svg" width="32" height="32" viewBox="0 0 32 32">
<title>mbrib-flag</title>
<path d="M9 4h18.25l-3.126 5.5c-0.174 0.3-0.174 0.7 0 1l3.128 5.5h-18.252c-1.292 0-1.334 2 0 2h20c0.7 0 1.226-0.892 0.876-1.5l-3.752-6.56 3.688-6.5c0.292-0.6-0.208-1.424-0.874-1.44h-19.938c-1.328 0-1.3 2 0 2zM3 0c-1.644 0-3 1.356-3 3v26c0 1.644 1.356 3 3 3s3-1.356 3-3v-26c0-1.644-1.356-3-3-3zM3 2c0.572 0 1 0.428 1 1v26c0 0.572-0.428 1-1 1s-1-0.428-1-1v-26c0-0.572 0.428-1 1-1z"></path>
</svg>
