<!-- Generated by IcoMoon.io -->
<svg version="1.1" xmlns="http://www.w3.org/2000/svg" width="32" height="32" viewBox="0 0 32 32">
<title>mbrib-add-submenu</title>
<path d="M2 23v2c0 0.524 0.476 1 1 1h5.56l-0.248 0.25c-0.972 0.972 0.448 2.366 1.376 1.44l2-2c0.384-0.374 0.384-1.068 0-1.44l-2-2c-0.808-0.808-2.28 0.53-1.376 1.44l0.314 0.31h-4.626v-1c0-1.32-2-1.292-2 0zM18 22c-2.2 0-4 1.8-4 4s1.8 4 4 4h10c2.2 0 4-1.8 4-4s-1.8-4-4-4zM18 24h10c1.126 0 2 0.874 2 2s-0.874 2-2 2h-10c-1.126 0-2-0.874-2-2s0.874-2 2-2zM4 12c-2.2 0-4 1.8-4 4s1.8 4 4 4h20c2.2 0 4-1.8 4-4s-1.8-4-4-4zM4 14h20c1.126 0 2 0.874 2 2s-0.874 2-2 2h-20c-1.126 0-2-0.874-2-2s0.874-2 2-2zM4 2c-2.2 0-4 1.8-4 4s1.8 4 4 4h20c2.2 0 4-1.8 4-4s-1.8-4-4-4zM4 4h20c1.126 0 2 0.874 2 2s-0.874 2-2 2h-20c-1.126 0-2-0.874-2-2s0.874-2 2-2z"></path>
</svg>
