<!-- Generated by IcoMoon.io -->
<svg version="1.1" xmlns="http://www.w3.org/2000/svg" width="32" height="32" viewBox="0 0 32 32">
<title>mbrib-magic-stick</title>
<path d="M31.006 12h-2c-1.32 0-1.332-2 0-2h2c1.316 0 1.336 2 0 2zM20 1v2c0 1.32-2 1.332-2 0v-2c0-1.316 2-1.336 2 0zM27.14 21.72l-1.416-1.412c-0.934-0.934-2.356 0.472-1.414 1.414l1.414 1.416c0.93 0.93 2.36-0.47 1.414-1.414zM7.504 6.152l1.732 1c1.14 0.66 0.152 2.4-1 1.732l-1.734-1c-1.14-0.656-0.156-2.4 1-1.73zM14.076 5.092l0.472 5.308-4.082 3.020c-0.796 0.586-0.46 1.62 0.3 1.786l5.12 1.132 1.6 4.96c0.25 0.686 1.34 0.82 1.746 0.212l2.614-4.534 5.17-0.036c0.72-0.054 1.152-1.080 0.692-1.648l-3.428-3.88 1.596-5.074c0.014-0.040 0.024-0.080 0.032-0.124 0.086-0.71-0.764-1.34-1.404-1.040l-4.612 2.094-4.286-3.072c-0.564-0.404-1.62-0.174-1.528 0.896zM16.248 7.128l2.852 2.152c0.28 0.18 0.654 0.204 0.954 0.060l3.228-1.48-1.1 3.44c-0.092 0.34 0.008 0.736 0.26 0.986l2.28 2.59-3.43 0.048c-0.37-0.020-0.74 0.204-0.914 0.54l-1.76 2.994-1.060-3.308c-0.092-0.344-0.374-0.63-0.714-0.72l-3.48-0.75 2.88-2.1c0.27-0.194 0.434-0.532 0.42-0.868l-0.408-3.586zM12.316 18.27l-12.012 12.016c-0.936 0.936 0.508 2.308 1.376 1.44l12.012-12.014c0.95-0.948-0.524-2.29-1.376-1.44z"></path>
</svg>
