<!-- Generated by IcoMoon.io -->
<svg version="1.1" xmlns="http://www.w3.org/2000/svg" width="32" height="32" viewBox="0 0 32 32">
<title>mbrib-logout</title>
<path d="M4.314 10.252l-4.024 4.008c-0.386 0.376-0.386 1.072 0 1.444l4.024 4.010c0.904 0.9 2.308-0.54 1.384-1.44l-3.338-3.262 3.334-3.32c0.946-0.946-0.576-2.248-1.386-1.44zM7 14h10c1.33 0 1.34 2 0 2h-10c-1.334 0-1.32-2 0-2zM12 0c-2.2 0-4 1.8-4 4v5c0 1.33 2 1.332 2 0v-5c0-1.126 0.874-2 2-2h16c1.126 0 2 0.874 2 2v22c0 1.126-0.874 2-2 2h-16c-1.126 0-2-0.874-2-2v-5c0-1.332-2-1.312-2 0v5c0 2.2 1.8 4 4 4h16c2.2 0 4-1.8 4-4v-22c0-2.2-1.8-4-4-4z"></path>
</svg>
