<!-- Generated by IcoMoon.io -->
<svg version="1.1" xmlns="http://www.w3.org/2000/svg" width="32" height="32" viewBox="0 0 32 32">
<title>mbrib-paper-plane</title>
<path d="M30.312 0.276l-17.5 17.5-9.504-4.688 22.068-9.188c1.286-0.536 0.364-2.276-0.752-1.812l-24.066 10c-0.7 0.296-0.74 1.47-0.064 1.812l12.066 6c0.368 0.172 0.84 0.094 1.128-0.188l14.56-14.56-9.248 23.122-3.040-7.648c-0.488-1.232-2.332-0.404-1.874 0.75l3.974 10.024c0.284 0.76 1.596 0.76 1.88 0l12-30c0.36-0.9-0.87-1.88-1.628-1.124z"></path>
</svg>
