<!-- Generated by IcoMoon.io -->
<svg version="1.1" xmlns="http://www.w3.org/2000/svg" width="32" height="32" viewBox="0 0 32 32">
<title>mbrib-database</title>
<path d="M5 16h22c1.314 0 1.36 2 0 2h-22c-1.36 0-1.292-2 0-2zM14 21c0 0.552-0.448 1-1 1s-1-0.448-1-1 0.448-1 1-1 1 0.448 1 1zM10 21c0 0.552-0.448 1-1 1s-1-0.448-1-1 0.448-1 1-1 1 0.448 1 1zM6 21c0 0.552-0.448 1-1 1s-1-0.448-1-1 0.448-1 1-1 1 0.448 1 1zM18 13c0 0.552-0.448 1-1 1s-1-0.448-1-1 0.448-1 1-1 1 0.448 1 1zM14 13c0 0.552-0.448 1-1 1s-1-0.448-1-1 0.448-1 1-1 1 0.448 1 1zM10 13c0 0.552-0.448 1-1 1s-1-0.448-1-1 0.448-1 1-1 1 0.448 1 1zM14 5c0 0.552-0.448 1-1 1s-1-0.448-1-1 0.448-1 1-1 1 0.448 1 1zM10 5c0 0.552-0.448 1-1 1s-1-0.448-1-1 0.448-1 1-1 1 0.448 1 1zM6 5c0 0.552-0.448 1-1 1s-1-0.448-1-1 0.448-1 1-1 1 0.448 1 1zM5 8h22c1.314 0 1.36 2 0 2h-22c-1.36 0-1.292-2 0-2zM3 0c-1.644 0-3 1.356-3 3v20c0 1.3 0.83 2.4 2 2.812v2.188c0 1.090 0.91 2 2 2h4c1.090 0 2-0.91 2-2v-2h12v2c0 1.090 0.91 2 2 2h4c1.090 0 1.864-0.92 2-2v-2.188c1.17-0.41 2-1.51 2-2.812v-20c0-1.644-1.356-3-3-3h-26zM3 2h26c0.572 0 1 0.428 1 1v20c0 0.572-0.428 1-1 1h-26c-0.572 0-1-0.428-1-1v-20c0-0.572 0.428-1 1-1zM4 26h4v2h-4v-2zM24 26h4v2h-4v-2z"></path>
</svg>
