<!-- Generated by IcoMoon.io -->
<svg version="1.1" xmlns="http://www.w3.org/2000/svg" width="32" height="32" viewBox="0 0 32 32">
<title>mbrib-website-theme</title>
<path d="M14 9.020c0 0.554-0.448 1-1 1s-1-0.446-1-1c0-0.552 0.448-1 1-1s1 0.448 1 1zM10 9.020c0 0.554-0.448 1-1 1s-1-0.446-1-1c0-0.552 0.448-1 1-1s1 0.448 1 1zM6 9.020c0 0.554-0.448 1-1 1s-1-0.446-1-1c0-0.552 0.448-1 1-1s1 0.448 1 1zM3 4c-1.644 0-3 1.356-3 3v18c0 1.644 1.356 3 3 3h26c1.644 0 3-1.356 3-3v-12c0-1.312-2-1.32-2 0v12c0 0.572-0.428 1-1 1h-26c-0.572 0-1-0.428-1-1v-18c0-0.572 0.428-1 1-1h18c1.32 0 1.33-2 0-2zM30.534 4.114c-4.16 2.234-7.606 4.42-11.076 7.586-1.874 1.708-1.812 4.254-0.56 5.472 1.1 1.070 3.48 1.354 5.35-0.684 3.144-3.43 5.468-6.932 7.654-11.006 0.392-0.732-0.484-1.84-1.37-1.366zM28.108 7.908c-1.48 2.568-3.020 4.76-5.228 7.15-1.354 1.46-2.56 0.806-2.612 0.744-0.568-0.666-0.224-1.906 0.62-2.736 2.344-2.3 4.69-3.748 7.22-5.16zM15.44 18c-1.814 0-2.56 1.4-2.56 3.026 0 0.47-0.176 0.974-0.452 1.124-0.772 0.42-0.426 1.85 0.45 1.85 3.002 0 5.122-0.396 5.122-3-0.016-1.92-0.75-3-2.56-3zM15.44 20c0.336 0 0.56 0.32 0.56 1 0 0.906-0.72 1-1.33 1 0.18-0.176 0.33-0.666 0.33-1 0-0.692 0.1-1 0.44-1zM5 12h10c1.31 0 1.312 2 0 2h-10c-1.3 0-1.334-2 0-2z"></path>
</svg>
