<!-- Generated by IcoMoon.io -->
<svg version="1.1" xmlns="http://www.w3.org/2000/svg" width="32" height="32" viewBox="0 0 32 32">
<title>mbrib-camera</title>
<path d="M25 12h2c1.348 0 1.32 2 0 2h-2c-1.348 0-1.312-2 0-2zM5 2c-1.644 0-3 1.356-3 3 0 1.348 2 1.268 2 0 0-0.572 0.428-1 1-1h4c0.572 0 1 0.428 1 1 0 1.316 2 1.326 2 0 0-1.644-1.356-3-3-3zM15 12c-3.854 0-7 3.146-7 7s3.146 7 7 7 7-3.146 7-7-3.146-7-7-7zM15 14c2.774 0 5 2.226 5 5s-2.226 5-5 5-5-2.226-5-5 2.226-5 5-5zM3 8c-1.644 0-3 1.356-3 3v16c0 1.644 1.356 3 3 3h26c1.644 0 3-1.356 3-3v-16c0-1.644-1.356-3-3-3zM3 10h26c0.572 0 1 0.428 1 1v16c0 0.572-0.428 1-1 1h-26c-0.572 0-1-0.428-1-1v-16c0-0.572 0.428-1 1-1z"></path>
</svg>
