<!-- Generated by IcoMoon.io -->
<svg version="1.1" xmlns="http://www.w3.org/2000/svg" width="32" height="32" viewBox="0 0 32 32">
<title>mbrib-refresh</title>
<path d="M16.3 1.712l3.334 3.32-3.336 3.26c-0.928 0.9 0.52 2.3 1.38 1.44l4.030-4.012c0.386-0.372 0.386-1.068 0-1.44l-4.028-4.010c-0.88-0.88-2.232 0.594-1.38 1.44zM15 4c-5.176 0-13 4.986-13 14 0 7.72 6.28 14 14 14s14-6.28 14-14v-1c0-1.308-2-1.314-2 0v1c0 6.64-5.36 12-12 12s-12-5.36-12-12c0-8.444 7.356-12 11-12 1.33 0 1.32-2 0-2z"></path>
</svg>
