<!-- Generated by IcoMoon.io -->
<svg version="1.1" xmlns="http://www.w3.org/2000/svg" width="32" height="32" viewBox="0 0 32 32">
<title>mbrib-edit2</title>
<path d="M24.3 0.276l-2.010 2.004c-0.386 0.374-0.386 1.070 0 1.44l6.028 6.020c0.368 0.346 1.012 0.346 1.38 0l2.010-2.006c0.386-0.374 0.386-1.070 0-1.44l-6.028-6.022c-0.406-0.406-1.054-0.324-1.38 0zM24.99 2.406l4.648 4.64-0.63 0.56-4.648-4.574zM20.32 4.25l-20.008 20c-0.2 0.192-0.32 0.472-0.312 0.75v6c0 0.524 0.476 1 1 1h6c0.26-0.020 0.512-0.124 0.69-0.312l20.008-20c0.38-0.372 0.42-1.016 0-1.44l-6.004-6c-0.34-0.34-1.048-0.326-1.376 0zM21.008 6.376l4.626 4.624-19.070 19h-4.564v-4.624z"></path>
</svg>
