<!-- Generated by IcoMoon.io -->
<svg version="1.1" xmlns="http://www.w3.org/2000/svg" width="32" height="32" viewBox="0 0 32 32">
<title>mbrib-unlock</title>
<path d="M16 9c0 1.314 2 1.3 2 0.026 0-4.574 2.652-7.026 6-7.026s6 2.426 6 7c0 1.324 2 1.26 2 0 0-5.41-3.616-9-8-9s-8 3.588-8 9zM11 18c-1.644 0-3 1.356-3 3v4c0 1.644 1.356 3 3 3s3-1.356 3-3v-4c0-1.644-1.356-3-3-3zM11 20c0.572 0 1 0.428 1 1v4c0 0.572-0.428 1-1 1s-1-0.428-1-1v-4c0-0.572 0.428-1 1-1zM5 12c-2.752 0-5 2.248-5 5v10c0 2.752 2.248 5 5 5h12c2.752 0 5-2.248 5-5v-10c0-2.752-2.248-5-5-5zM5 14h12c1.68 0 3 1.32 3 3v10c0 1.68-1.32 3-3 3h-12c-1.68 0-3-1.32-3-3v-10c0-1.68 1.32-3 3-3z"></path>
</svg>
