<!-- Generated by IcoMoon.io -->
<svg version="1.1" xmlns="http://www.w3.org/2000/svg" width="32" height="32" viewBox="0 0 32 32">
<title>mbrib-letter</title>
<path d="M4.49 11.8l9.13 5.524c1.612 0.974 3.4 0.82 4.754 0l9.132-5.524c1.172-0.71 0.026-2.276-1-1.66l-9.196 5.528c-0.864 0.52-1.814 0.488-2.628 0l-9.192-5.528c-1.004-0.604-2.17 0.95-1 1.66zM3 6c-1.644 0-3 1.356-3 3v14c0 1.644 1.356 3 3 3h26c1.644 0 3-1.356 3-3v-14c0-1.644-1.356-3-3-3zM3 8h26c0.572 0 1 0.428 1 1v14c0 0.572-0.428 1-1 1h-26c-0.572 0-1-0.428-1-1v-14c0-0.572 0.428-1 1-1z"></path>
</svg>
