<!-- Generated by IcoMoon.io -->
<svg version="1.1" xmlns="http://www.w3.org/2000/svg" width="32" height="32" viewBox="0 0 32 32">
<title>mbrib-image-gallery</title>
<path d="M21.96 14.232l-4.008 3.468-2.38-1.576c-0.39-0.284-0.984-0.226-1.314 0.124l-2.006 2.016c-0.82 0.826 0.532 2.364 1.44 1.45l1.44-1.45 2.32 1.576c0.352 0.236 0.86 0.208 1.186-0.060l4.008-3.468 1.69 1.448c0.948 0.804 2.304-0.736 1.314-1.574l-2.38-2.020c-0.312-0.26-1.010-0.2-1.314 0.064zM17 8c-1.646 0-3 1.354-3 3s1.354 3 3 3 3-1.354 3-3-1.354-3-3-3zM17 10c0.564 0 1 0.436 1 1s-0.436 1-1 1c-0.564 0-1-0.436-1-1s0.436-1 1-1zM6.624 10.060l-5 1.744c-1.306 0.504-1.946 1.988-1.5 3.244l4.066 11.352c0.496 1.396 2.048 1.84 3.312 1.44l2.812-0.876c1.254-0.39 0.586-2.336-0.624-1.934l-2.814 0.936c-0.42 0.134-0.736-0.040-0.812-0.25l-4-11.292c-0.12-0.348-0.088-0.616 0.252-0.748l5-1.684c1.336-0.36 0.486-2.344-0.688-1.934zM15.852 2.21c-1.488-0.604-3.22 0.13-3.824 1.62l-5.82 14.366c-0.604 1.49 0.154 3.164 1.644 3.768l14.364 5.82c1.49 0.6 3.14-0.1 3.744-1.586l5.82-14.368c0.604-1.49-0.072-3.2-1.56-3.8l-14.368-5.82zM15.102 4.064l14.368 5.82c0.494 0.2 0.66 0.7 0.46 1.196l-5.82 14.366c-0.2 0.496-0.646 0.684-1.14 0.48l-14.37-5.814c-0.492-0.2-0.74-0.668-0.54-1.164l5.82-14.368c0.2-0.494 0.728-0.716 1.22-0.516z"></path>
</svg>
