<!-- Generated by IcoMoon.io -->
<svg version="1.1" xmlns="http://www.w3.org/2000/svg" width="32" height="32" viewBox="0 0 32 32">
<title>mbrib-setting2</title>
<path d="M22 9v-2c0-1.348 2-1.314 2 0v2c0 1.306-2 1.326-2 0zM21 12h4c1.332 0 1.334 2 0 2h-4c-1.354 0-1.3-2 0-2zM24 17v8c0 1.354-2 1.3-2 0v-8c0-1.354 2-1.28 2 0zM16 23v2c0 1.348-2 1.314-2 0v-2c0-1.306 2-1.326 2 0zM17 20h-4c-1.332 0-1.334-2 0-2h4c1.354 0 1.3 2 0 2zM14 15v-8c0-1.354 2-1.3 2 0v8c0 1.354-2 1.28-2 0zM6 9v-2c0-1.348 2-1.314 2 0v2c0 1.306-2 1.326-2 0zM5 12h4c1.332 0 1.334 2 0 2h-4c-1.354 0-1.3-2 0-2zM8 17v8c0 1.354-2 1.3-2 0v-8c0-1.354 2-1.28 2 0zM3 0c-1.644 0-3 1.356-3 3v26c0 1.644 1.356 3 3 3h24c1.644 0 3-1.356 3-3v-26c0-1.644-1.356-3-3-3zM3 2h24c0.572 0 1 0.428 1 1v26c0 0.572-0.428 1-1 1h-24c-0.572 0-1-0.428-1-1v-26c0-0.572 0.428-1 1-1z"></path>
</svg>
