<!-- Generated by IcoMoon.io -->
<svg version="1.1" xmlns="http://www.w3.org/2000/svg" width="32" height="32" viewBox="0 0 32 32">
<title>mbrib-more-vertical</title>
<path d="M20 28c0-2.2-1.8-4-4-4s-4 1.8-4 4 1.8 4 4 4 4-1.8 4-4zM18 28c0 1.116-0.884 2-2 2s-2-0.884-2-2 0.884-2 2-2 2 0.884 2 2zM20 4c0-2.2-1.8-4-4-4s-4 1.8-4 4 1.8 4 4 4 4-1.8 4-4zM18 4c0 1.116-0.884 2-2 2s-2-0.884-2-2 0.884-2 2-2 2 0.884 2 2zM20 16c0-2.2-1.8-4-4-4s-4 1.8-4 4 1.8 4 4 4 4-1.8 4-4zM18 16c0 1.116-0.884 2-2 2s-2-0.884-2-2 0.884-2 2-2 2 0.884 2 2z"></path>
</svg>
