<!-- Generated by IcoMoon.io -->
<svg version="1.1" xmlns="http://www.w3.org/2000/svg" width="32" height="32" viewBox="0 0 32 32">
<title>mbrib-share</title>
<path d="M22 3v3.188c-2.72 0.192-4.854 0.92-6.126 2.374-1.372 1.574-1.832 4.25-1.874 6.44 0 1.346 2 1.292 2 0 0-0.288 0.62-1.080 1.126-1.376 0.85-0.684 2.456-1.314 4.874-1.5v2.874c-0.024 0.76 1.032 1.288 1.626 0.812l8-6c0.512-0.368 0.512-1.256 0-1.624l-8-6c-0.592-0.444-1.626 0.020-1.626 0.812zM24 5l5.312 4-5.312 4v-2c0-0.524-0.476-1-1-1-2.88 0-5.090 1.072-6.472 1.91 0-0.8 0.5-1.64 0.848-2.034 0.992-1.142 2.676-1.876 5.624-1.876 0.524 0 1-0.476 1-1zM3 8c-1.644 0-3 1.356-3 3v16c0 1.644 1.356 3 3 3h26c1.644 0 3-1.356 3-3v-12c0-1.332-2-1.326-2 0v12c0 0.572-0.428 1-1 1h-26c-0.572 0-1-0.428-1-1v-16c0-0.572 0.428-1 1-1h8c1.334 0 1.316-2 0-2z"></path>
</svg>
