<!-- Generated by IcoMoon.io -->
<svg version="1.1" xmlns="http://www.w3.org/2000/svg" width="32" height="32" viewBox="0 0 32 32">
<title>mbrib-music</title>
<path d="M24.756 6.034l-8.020 2c-0.66 0.164-0.832 0.72-0.69 1.2 0.144 0.48 0.6 0.88 1.194 0.734l8.016-2c1.306-0.324 0.734-2.24-0.5-1.934zM28.75 0l-16 4c-0.436 0.112-0.764 0.55-0.75 1v18.312c-1.080-0.804-2.49-1.312-4-1.312-3.194 0-6 2.116-6 5s2.806 5 6 5 6-2.116 6-5v-21.25l14-3.5v17.060c-1.080-0.8-2.49-1.31-4-1.31-3.194 0-6 2.116-6 5s2.806 5 6 5 6-2.116 6-5v-22c0.020-0.62-0.652-1.154-1.25-1zM24 20c2.33 0 4 1.466 4 3s-1.67 3-4 3-4-1.466-4-3 1.67-3 4-3zM8 24c2.33 0 4 1.466 4 3s-1.67 3-4 3-4-1.466-4-3 1.67-3 4-3z"></path>
</svg>
