<!-- Generated by IcoMoon.io -->
<svg version="1.1" xmlns="http://www.w3.org/2000/svg" width="32" height="32" viewBox="0 0 32 32">
<title>mbrib-contact-form</title>
<path d="M15 20h12c1.324 0 1.336 2 0 2h-12c-1.316 0-1.344-2 0-2zM15 16h12c1.324 0 1.336 2 0 2h-12c-1.316 0-1.344-2 0-2zM15 12h12c1.324 0 1.336 2 0 2h-12c-1.316 0-1.344-2 0-2zM26 3v4c0 1.294-2 1.36-2 0v-4c0-1.34 2-1.308 2 0zM6 12c-1.090 0-2 0.91-2 2v6c0 1.090 0.91 2 2 2h4c1.090 0 2-0.91 2-2v-6c0-1.090-0.91-2-2-2zM6 14h4v6h-4zM8 3v4c0 1.294-2 1.36-2 0v-4c0-1.34 2-1.308 2 0zM3 4c-1.644 0-3 1.356-3 3v18c0 1.644 1.356 3 3 3h26c1.644 0 3-1.356 3-3v-18c0-1.644-1.356-3-3-3-1.34 0-1.3 2 0 2 0.572 0 1 0.428 1 1v18c0 0.572-0.428 1-1 1h-26c-0.572 0-1-0.428-1-1v-18c0-0.572 0.428-1 1-1 1.324 0 1.326-2 0-2zM11 6h10c1.324 0 1.34-2 0-2h-10c-1.332 0-1.32 2 0 2z"></path>
</svg>
