<!-- Generated by IcoMoon.io -->
<svg version="1.1" xmlns="http://www.w3.org/2000/svg" width="32" height="32" viewBox="0 0 32 32">
<title>mbrib-image-slider</title>
<path d="M32 9v14c0 1.286-2 1.36-2 0v-14c0-1.328 2-1.316 2 0zM11 8c-1.646 0-3 1.354-3 3s1.354 3 3 3 3-1.354 3-3-1.354-3-3-3zM11 10c0.564 0 1 0.436 1 1s-0.436 1-1 1c-0.564 0-1-0.436-1-1s0.436-1 1-1zM22.312 14.276l-5.312 5.312-3.312-3.312c-0.368-0.348-1.008-0.348-1.376 0l-4 4c-0.96 0.96 0.504 2.308 1.376 1.44l3.312-3.316 3.312 3.314c0.368 0.346 1.008 0.346 1.376 0l6-6c0.94-0.94-0.54-2.274-1.376-1.44zM2 9v14c0 1.286-2 1.36-2 0v-14c0-1.328 2-1.316 2 0zM8 4c-2.2 0-4 1.826-4 4.026v16c0 2.2 1.8 3.974 4 3.974h16c2.2 0 4-1.8 4-4v-16c0-2.2-1.8-4-4-4zM8 6h16c1.126 0 2 0.874 2 2v16c0 1.126-0.874 2-2 2h-16c-1.126 0-2-0.874-2-2v-16c0-1.126 0.874-2 2-2z"></path>
</svg>
