<!-- Generated by IcoMoon.io -->
<svg version="1.1" xmlns="http://www.w3.org/2000/svg" width="32" height="32" viewBox="0 0 32 32">
<title>mbrib-speed</title>
<path d="M13 2h6.188c1.024 0 0.876 1.020 0.688 1.75l-1.814 7c-0.148 0.58 0.34 1.232 0.94 1.25h3.812c1.83 0 1.116 1.3 0.25 2.374l-10.564 13.126 1.5-10.376c0.070-0.56-0.432-1.128-1-1.124h-4c-1.2 0-1.1-1.224-0.94-2.126l1.916-10.75c0.228-1.28-1.786-1.546-2-0.312l-1.85 10.688c-0.53 3.048 1.040 4.5 2.874 4.5h2.812l-1.812 12.812c-0.174 1.032 1.080 1.608 1.75 0.812l12.812-15.936c2.674-3.324 1.372-5.688-1.748-5.688h-2.5l1.5-5.75c0.662-2.54-0.626-4.25-2.626-4.25h-6.188c-1.26 0-1.364 2 0 2z"></path>
</svg>
