<!-- Generated by IcoMoon.io -->
<svg version="1.1" xmlns="http://www.w3.org/2000/svg" width="32" height="32" viewBox="0 0 32 32">
<title>mbrib-idea</title>
<path d="M25.726 4.86l-1.414 1.42c-0.948 0.944 0.48 2.346 1.414 1.412l1.414-1.414c0.926-0.928-0.466-2.364-1.414-1.42zM29 16h-2c-1.34 0-1.32 2 0 2h2c1.308 0 1.34-2 0-2zM3 16h-2c-1.34 0-1.32 2 0 2h2c1.308 0 1.34-2 0-2zM11 30h8c1.314 0 1.348 2 0 2h-8c-1.31 0-1.35-2 0-2zM16 1v2c0 1.34-2 1.32-2 0v-2c0-1.308 2-1.34 2 0zM15 6c-5.094 0-9 5.044-9 11s3.906 11 9 11c5.094 0 9-5.044 9-11s-3.906-11-9-11zM15 8c3.74 0 7 3.91 7 9 0 3.62-1.64 6.62-3.94 8.060 0.040-2.126 0.126-3.784 0.38-4.872 0.288-1.26 0.656-1.91 1.248-2.5 0.986-0.986-0.634-2.18-1.376-1.44-0.846 0.848-1.46 1.98-1.812 3.5-0.344 1.496-0.494 3.448-0.5 6.126-0.564 0.186-1.414 0.16-2 0-0.006-2.68-0.156-4.63-0.5-6.124-0.35-1.52-0.966-2.654-1.812-3.5-0.794-0.794-2.32 0.492-1.376 1.44 0.592 0.588 0.96 1.24 1.25 2.5 0.254 1.086 0.34 2.744 0.38 4.872-2.302-1.442-3.942-4.442-3.942-8.062 0-5.090 3.26-9 7-9zM4.274 4.86l1.414 1.42c0.948 0.944-0.48 2.346-1.414 1.412l-1.414-1.412c-0.926-0.928 0.466-2.364 1.414-1.42z"></path>
</svg>
