<!-- Generated by IcoMoon.io -->
<svg version="1.1" xmlns="http://www.w3.org/2000/svg" width="32" height="32" viewBox="0 0 32 32">
<title>mbrib-wifi</title>
<path d="M8.866 20.92c-1.116 1.092 0.46 2.36 1.42 1.406 3.164-3.14 8.266-3.14 11.428 0 0.98 0.972 2.404-0.47 1.42-1.408-4.094-3.9-10.16-4.020-14.268 0zM4.586 16.668c-1.068 1.060 0.4 2.416 1.42 1.406 5.526-5.48 14.46-5.48 19.99 0 0.964 0.954 2.38-0.448 1.42-1.406-6.22-6.214-16.616-6.176-22.832 0zM0.31 12.428c-0.96 0.956 0.554 2.292 1.4 1.456 7.894-7.824 20.664-7.808 28.58 0 0.914 0.906 2.324-0.532 1.396-1.46-8.646-8.644-22.89-8.484-31.374 0.002zM18 26c0 1.106-0.896 2.004-2 2.004s-2-0.9-2-2.004c0-1.1 0.896-2 2-2s2 0.9 2 2.004z"></path>
</svg>
