<!-- Generated by IcoMoon.io -->
<svg version="1.1" xmlns="http://www.w3.org/2000/svg" width="32" height="32" viewBox="0 0 32 32">
<title>mbrib-error</title>
<path d="M12.312 17.688l2.314 2.312-2.314 2.25c-0.93 0.904 0.48 2.332 1.376 1.44l2.312-2.318 2.312 2.314c0.88 0.88 2.288-0.55 1.376-1.44l-2.312-2.246 2.312-2.312c0.9-0.9-0.586-2.228-1.376-1.44l-2.312 2.316-2.312-2.312c-0.78-0.78-2.296 0.516-1.376 1.44zM5 12h22c1.348 0 1.304 2 0 2h-22c-1.304 0-1.36-2 0-2zM14 9c0 0.552-0.448 1-1 1s-1-0.448-1-1 0.448-1 1-1 1 0.448 1 1zM10 9c0 0.552-0.448 1-1 1s-1-0.448-1-1 0.448-1 1-1 1 0.448 1 1zM6 9c0 0.552-0.448 1-1 1s-1-0.448-1-1 0.448-1 1-1 1 0.448 1 1zM3 4c-1.644 0-3 1.356-3 3v18c0 1.644 1.356 3 3 3h26c1.644 0 3-1.356 3-3v-18c0-1.644-1.356-3-3-3zM3 6h26c0.572 0 1 0.428 1 1v18c0 0.572-0.428 1-1 1h-26c-0.572 0-1-0.428-1-1v-18c0-0.572 0.428-1 1-1z"></path>
</svg>
