<!-- Generated by IcoMoon.io -->
<svg version="1.1" xmlns="http://www.w3.org/2000/svg" width="32" height="32" viewBox="0 0 32 32">
<title>mbrib-android</title>
<path d="M7.86 2.54l1.97 3.91c0.732 1.452-1.106 2.144-1.726 0.916l-1.972-3.91c-0.626-1.24 1.156-2.046 1.726-0.916zM24 16c0 1.104-0.896 2-2 2s-2-0.896-2-2 0.896-2 2-2 2 0.896 2 2zM12 16c0 1.104-0.896 2-2 2s-2-0.896-2-2 0.896-2 2-2 2 0.896 2 2zM16 8c-7.88 0-14.486 5.48-15.984 12.812-0.112 0.58 0.406 1.2 1 1.188h29.97c0.592 0.020 1.11-0.606 1-1.188-1.502-7.332-8.11-12.812-15.986-12.812zM16 10c6.496 0 11.792 4.24 13.55 10h-27.1c1.76-5.76 7.054-10 13.55-10zM2 24c-1.090 0-2 0.91-2 2v2c0 1.090 0.91 2 2 2h28c1.090 0 2-0.91 2-2v-2c0-1.090-0.91-2-2-2zM2 26h28v2h-28zM24.14 2.54l-1.97 3.91c-0.732 1.452 1.106 2.144 1.726 0.916l1.972-3.91c0.626-1.24-1.156-2.046-1.726-0.916z"></path>
</svg>
