<!-- Generated by IcoMoon.io -->
<svg version="1.1" xmlns="http://www.w3.org/2000/svg" width="32" height="32" viewBox="0 0 32 32">
<title>mbrib-photo</title>
<path d="M22.3 14.28l-7.284 7.35-3.3-3.376c-0.366-0.346-1.006-0.346-1.372 0l-3.984 3.972c-1.032 1.028 0.384 2.412 1.37 1.43l3.3-3.292 3.3 3.38c0.366 0.34 1.004 0.34 1.37 0l7.286-7.354 3.3 3.292c0.944 0.944 2.38-0.42 1.37-1.426l-3.986-3.976c-0.388-0.388-1.008-0.36-1.37 0zM11 4c-2.75 0-5 2.25-5 5s2.25 5 5 5 5-2.25 5-5-2.25-5-5-5zM11 6c1.668 0 3 1.332 3 3s-1.332 3-3 3-3-1.332-3-3 1.332-3 3-3zM5 26h22c1.34 0 1.328 2 0 2h-22c-1.34 0-1.304-2 0-2zM3 0c-1.644 0-3 1.356-3 3v26c0 1.644 1.356 3 3 3h26c1.644 0 3-1.356 3-3v-26c0-1.644-1.356-3-3-3zM3 2h26c0.572 0 1 0.428 1 1v26c0 0.572-0.428 1-1 1h-26c-0.572 0-1-0.428-1-1v-26c0-0.572 0.428-1 1-1z"></path>
</svg>
