<!-- Generated by IcoMoon.io -->
<svg version="1.1" xmlns="http://www.w3.org/2000/svg" width="32" height="32" viewBox="0 0 32 32">
<title>mbrib-users</title>
<path d="M5.626 13.9c-0.452 1.828-0.536 3.6-1.314 4.376-0.612 0.54-0.126 1.746 0.688 1.724l1.812 0.026c0 0.968-0.52 0.974-0.812 0.974-1.24 0-1.388 2 0 2 2.726 0 3-2.42 3-4 0-0.524-0.476-1-1-1h-1.44c0.528-1.272 0.786-2.572 1-3.66 0.354-1.756 0.92-2.34 2.44-2.34s2.156 1.048 2.626 2.4c0.36 1.050 0.646 2.36 1.186 3.6h-1.812c-0.524 0-1 0.476-1 1 0 1.314 0.408 2.14 0.812 2.65 0.654 0.82 2.22-0.43 1.564-1.248-0.088-0.108-0.076-0.328-0.126-0.4h2.19c0.812 0.020 1.296-1.184 0.686-1.724-0.8-0.8-1.076-2.59-1.564-4.44-0.694-2.634-2.036-3.838-4.562-3.838-2.524 0-3.74 1.316-4.376 3.9zM26 21v-1.75c1.752-1.44 2-2.39 2-5.25 0-4.010-2.308-6-6-6-3.688 0-6 2.066-6 6 0 3.266 0.67 4.004 2 5.312v1.126l-5.56 3.682c-0.284 0.194-0.456 0.536-0.44 0.876v2c0 1.34 2 1.28 2 0v-1.5l5.564-3.688c0.264-0.18 0.432-0.492 0.44-0.812v-2c0.004-0.28-0.112-0.56-0.316-0.75-1.528-1.216-1.68-2.446-1.688-4.246-0.006-2.934 1.452-4.046 4-4 2.55 0.046 4 1.174 4 4 0 2.68-0.612 3.052-1.624 4.188-0.24 0.194-0.384 0.504-0.374 0.812v2c0 1.36 2 1.316 2 0zM16 0c-8.824 0-16 7.176-16 16s7.176 16 16 16 16-7.176 16-16-7.176-16-16-16zM16 2c7.744 0 14 6.256 14 14s-6.256 14-14 14-14-6.256-14-14 6.256-14 14-14z"></path>
</svg>
