<!-- Generated by IcoMoon.io -->
<svg version="1.1" xmlns="http://www.w3.org/2000/svg" width="32" height="32" viewBox="0 0 32 32">
<title>mbrib-bookmark</title>
<path d="M7 14h18c1.292 0 1.36 2 0 2h-18c-1.32 0-1.324-2 0-2zM7 10h18c1.292 0 1.36 2 0 2h-18c-1.32 0-1.324-2 0-2zM7 6h18c1.292 0 1.36 2 0 2h-18c-1.32 0-1.324-2 0-2zM2 2.94v26.020c0 2.092 1.94 3.42 3.312 2.94l10.75-3.83 10.628 3.868c1.256 0.334 3.312-0.828 3.312-2.94v-26.058c-0.002-1.648-1.362-2.94-3.002-2.94h-22c-1.768 0-3 1.296-3 2.94zM5 2h22c0.574 0 1 0.374 1 0.94v26.060c0 0.53-0.486 1.1-0.94 0.94l-10.68-3.872c-0.196-0.086-0.42-0.108-0.626-0.060l-11.060 4.014c-0.424 0.154-0.69-0.464-0.69-1.060v-26.026c0-0.566 0.426-0.94 1-0.94z"></path>
</svg>
