<!-- Generated by IcoMoon.io -->
<svg version="1.1" xmlns="http://www.w3.org/2000/svg" width="32" height="32" viewBox="0 0 32 32">
<title>mbrib-search</title>
<path d="M10.296 20.28l-10.012 10c-0.876 0.876 0.476 2.34 1.376 1.44l10.012-10c0.996-0.996-0.514-2.3-1.376-1.44zM20.98 4c-1.72 0-3.54 0.636-4.74 2.224-0.806 1.070 0.62 2.2 1.326 1.53 1.904-2.196 4.886-2.164 6.83 0 0.696 0.774 2.232-0.428 1.326-1.53-1.262-1.54-3.022-2.224-4.742-2.224zM21 0c-6.064 0-11 4.936-11 11s4.936 11 11 11 11-4.936 11-11-4.936-11-11-11zM21 2c4.98 0 9 4.020 9 9s-4.020 9-9 9-9-4.020-9-9 4.020-9 9-9z"></path>
</svg>
