<!-- Generated by IcoMoon.io -->
<svg version="1.1" xmlns="http://www.w3.org/2000/svg" width="32" height="32" viewBox="0 0 32 32">
<title>mbrib-pages</title>
<path d="M11 0c-1.644 0-3 1.356-3 3v22c0 1.644 1.356 3 3 3h14c1.644 0 3-1.356 3-3v-18c0.006-0.28-0.11-0.56-0.312-0.75l-6-6c-0.188-0.166-0.44-0.256-0.688-0.25h-10zM11 2h9v5c0 0.524 0.476 1 1 1h5v17c0 0.572-0.428 1-1 1h-14c-0.572 0-1-0.428-1-1v-22c0-0.572 0.428-1 1-1zM22 3.376l2.626 2.624h-2.626v-2.626zM4 5v24c0 1.644 1.356 3 3 3h16c1.336 0 1.308-2 0-2h-16c-0.572 0-1-0.428-1-1v-24c0-1.34-2-1.29-2 0z"></path>
</svg>
