<!-- Generated by IcoMoon.io -->
<svg version="1.1" xmlns="http://www.w3.org/2000/svg" width="32" height="32" viewBox="0 0 32 32">
<title>mbrib-setting3</title>
<path d="M10 0c-1.040 0-2.012 0.18-2.876 0.44-0.66 0.208-0.886 1.212-0.374 1.686l4.31 4.312c1.286 1.28 1.286 3.276 0 4.56-1.28 1.284-3.34 1.284-4.62 0l-4.32-4.31c-0.492-0.448-1.42-0.2-1.624 0.436-0.256 0.864-0.496 1.836-0.496 2.876 0 5.51 4.49 10 10 10 0.826 0 1.584-0.188 2.312-0.376l11.188 11.188c1.488 1.488 3.888 1.488 5.376 0l2-2c1.486-1.488 1.486-3.95 0-5.44l-11.19-11.182c0.168-0.722 0.314-1.422 0.314-2.19 0-5.51-4.49-10-10-10zM18 10c0 0.796-0.096 1.52-0.312 2.25-0.106 0.346-0.006 0.744 0.25 1l11.56 11.56c0.732 0.734 0.73 1.834 0 2.566l-2 2c-0.732 0.73-1.894 0.73-2.626 0l-11.56-11.564c-0.256-0.256-0.656-0.356-1-0.25-0.776 0.238-1.528 0.438-2.312 0.438-4.51 0-8.34-3.784-7.94-8.56l3 3c2.044 2.040 5.336 2.040 7.38 0 2.040-2.044 2.040-5.4 0-7.44l-2.94-2.94c4.634-0.53 8.5 3.492 8.5 7.94z"></path>
</svg>
