<!-- Generated by IcoMoon.io -->
<svg version="1.1" xmlns="http://www.w3.org/2000/svg" width="32" height="32" viewBox="0 0 32 32">
<title>mbrib-key</title>
<path d="M10 8c0 1.104-0.896 2-2 2s-2-0.896-2-2 0.896-2 2-2 2 0.896 2 2zM10 0c-5.512 0-10 4.488-10 10 0 5.51 4.488 10 10 10 1.35 0 2.54-0.456 3.688-0.94l10.624 10.628c0.18 0.188 0.43 0.3 0.688 0.312h4c0.524 0 1-0.476 1-1v-4c0.006-0.28-0.11-0.56-0.312-0.75l-2-2c-0.188-0.166-0.44-0.256-0.688-0.25h-1v-1c0.006-0.28-0.11-0.56-0.312-0.75l-2-2c-0.188-0.166-0.44-0.256-0.688-0.25h-1v-1c0.006-0.28-0.11-0.56-0.312-0.75l-2.628-2.626c0.476-1.132 0.94-2.29 0.94-3.624 0-5.512-4.488-10-10-10zM10 2c4.43 0 8 3.57 8 8 0 1.276-0.32 2.394-0.876 3.5-0.2 0.38-0.12 0.888 0.188 1.188l2.688 2.686v1.626c0 0.524 0.476 1 1 1h1.626l1.374 1.374v1.626c0 0.524 0.476 1 1 1h1.626l1.374 1.374v2.626h-2.56l-10.754-10.75c-0.29-0.28-0.76-0.36-1.126-0.188-1.094 0.548-2.3 0.938-3.56 0.938-4.43 0-8-3.57-8-8s3.57-8 8-8z"></path>
</svg>
