<!-- Generated by IcoMoon.io -->
<svg version="1.1" xmlns="http://www.w3.org/2000/svg" width="32" height="32" viewBox="0 0 32 32">
<title>mbrib-map-pin</title>
<path d="M16 4c-2.2 0-4 1.8-4 4s1.8 4 4 4 4-1.8 4-4-1.8-4-4-4zM16 6c1.116 0 2 0.884 2 2s-0.884 2-2 2-2-0.884-2-2 0.884-2 2-2zM11.624 18.354c1.79 3.040 3.626 5.324 3.626 5.324 0.392 0.452 1.208 0.42 1.56-0.064 0 0 1.78-2.26 3.566-5.324 1.784-3.062 3.624-6.85 3.624-10.27 0-4.42-3.594-8.020-8-8.020s-8 3.532-8 8c0 3.54 1.836 7.312 3.624 10.354zM16 2.004c3.326 0 6 2.68 6 6.014 0 2.646-1.66 6.332-3.376 9.27-1.312 2.252-2.084 3.222-2.624 3.948-0.536-0.704-1.308-1.646-2.626-3.884-1.71-2.912-3.374-6.58-3.374-9.332 0-3.34 2.674-6.020 6-6.020zM4.046 12.844l-1.986 13.996c-0.406 2.88 2.232 5.186 4.94 5.186h18c2.63 0 5.354-2.234 4.94-5.186l-1.98-13.994c-0.19-1.344-2.11-0.914-1.936 0.314l1.976 13.992c0.254 1.796-1.686 2.874-3 2.874h-18c-1.744 0-3.194-1.5-3-2.874l1.984-13.992c0.194-1.36-1.754-1.6-1.94-0.314z"></path>
</svg>
