<!-- Generated by IcoMoon.io -->
<svg version="1.1" xmlns="http://www.w3.org/2000/svg" width="32" height="32" viewBox="0 0 32 32">
<title>mbrib-paperclip</title>
<path d="M18.38 2.196l-16 16.032c-3.164 3.17-3.172 8.232 0 11.4 3.168 3.16 8.28 3.168 11.44 0l13.88-13.904c0.96-0.96-0.5-2.316-1.374-1.44l-13.94 13.964c-2.416 2.42-6.14 2.42-8.566 0-2.42-2.416-2.42-6.22 0-8.64l16-16.036c2.036-2.040 4.86-2.13 7.004-0.616 2.146 1.51 1.12 3.68-0.44 5.248l-17.13 17.22c-0.88 0.884-1.828 0.8-2.626 0-0.8-0.796-0.77-1.856 0-2.628l15.068-15.092c0.96-0.96-0.504-2.316-1.376-1.44l-15.068 15.156c-1.692 1.7-1.626 3.76 0 5.388 1.626 1.624 3.716 1.664 5.38 0l17.192-17.22c3-3.008 2.816-6.35-0.048-8.388-2.866-2.040-7.072-1.328-9.394 0.996z"></path>
</svg>
