<!-- Generated by IcoMoon.io -->
<svg version="1.1" xmlns="http://www.w3.org/2000/svg" width="32" height="32" viewBox="0 0 32 32">
<title>mbrib-opened-folder</title>
<path d="M3 2c-1.644 0-3 1.356-3 3v6c0 1.276 2 1.326 2 0v-6c0-0.572 0.428-0.996 1-1h5.56l4.69 5.626c0.18 0.224 0.46 0.366 0.75 0.374h15c1.324 0 1.34-2 0-2h-14.5l-4.75-5.688c-0.19-0.2-0.47-0.32-0.75-0.312zM4.98 12c-1.76 0-2.804 1.588-3 2.812l-1.94 12c-0.312 1.9 1.41 3.188 2.936 3.188h24.046c1.784 0 2.8-1.612 3.006-2.876l1.94-12c0.324-1.992-1.354-3.124-2.94-3.124zM4.98 14h24.044c0.654 0 1.054 0.506 1 0.812l-2 12c-0.132 0.788-0.608 1.188-1 1.188h-24.048c-0.66 0-1.080-0.42-1.004-0.876l2.004-12c0.134-0.8 0.588-1.124 1-1.124z"></path>
</svg>
