<!-- Generated by IcoMoon.io -->
<svg version="1.1" xmlns="http://www.w3.org/2000/svg" width="32" height="32" viewBox="0 0 32 32">
<title>mbrib-cust-feedback</title>
<path d="M22.316 6.268l-7.326 7.34-3.32-3.326c-0.854-0.854-2.29 0.532-1.38 1.444l4.010 4.014c0.368 0.348 1.010 0.348 1.38 0l8.012-8.028c0.952-0.952-0.532-2.29-1.376-1.444zM3 0c-1.644 0-3 1.356-3 3v18c0 1.644 1.356 2.96 3 3h1v5c0 0.776 0.996 1.38 1.688 0.688l5.688-5.688h17.624c1.644 0 3-1.356 3-3v-18c0-1.644-1.356-3-3-3zM3 2h26c0.572 0 1 0.428 1 1v18c0 0.572-0.428 1-1 1h-18c-0.25 0-0.5 0.084-0.688 0.25l-4.312 4.31v-3.56c0-0.524-0.476-1-1-1h-2c-0.572 0-1-0.428-1-1v-18c0-0.572 0.428-1 1-1z"></path>
</svg>
