<!-- Generated by IcoMoon.io -->
<svg version="1.1" xmlns="http://www.w3.org/2000/svg" width="32" height="32" viewBox="0 0 32 32">
<title>mbrib-github</title>
<path d="M16 0c-8.824 0-16 7.176-16 16 0 7.724 5.52 14.132 12.812 15.626 0.56 0.106 1.16-0.368 1.188-0.94v-8.124c0.014-0.448-0.314-0.886-0.75-1-3.17-0.874-5.25-3.068-5.25-5.562 0-1.336 0.616-2.64 1.688-3.688 0.188-0.176 0.3-0.43 0.312-0.686v-3.066l3.126 1.564c0.194 0.088 0.416 0.11 0.624 0.064 1.4-0.206 3.034-0.216 4.5 0 0.208 0.046 0.43 0.024 0.626-0.064l3.124-1.56v3.060c0.010 0.26 0.124 0.512 0.312 0.688 1.072 1.048 1.688 2.352 1.688 3.688 0 2.492-2.080 4.686-5.25 5.56-0.436 0.114-0.764 0.552-0.75 1v8.128c0.026 0.57 0.626 1.044 1.188 0.94 7.292-1.498 12.812-7.908 12.812-15.632 0-8.824-7.176-16-16-16zM16 2c7.744 0 14 6.256 14 14 0 6.324-4.25 11.51-10 13.25v-6.19c3.37-1.224 6-3.746 6-7.060 0-1.78-0.83-3.394-2-4.688v-4.312c0.026-0.688-0.82-1.24-1.44-0.94l-4.37 2.13c-1.3-0.26-3.12-0.22-4.376 0l-4.374-2.13c-0.62-0.3-1.466 0.252-1.44 0.94v4.312c-1.17 1.294-2 2.908-2 4.688 0 3.314 2.63 5.836 6 7.060v1.19c-0.612 0.314-0.904 0.376-1.188 0.376-1.152 0-0.98-2.626-3.812-2.626-1.304 0-1.308 2 0 2 1.54 0 1.488 2.612 3.5 2.634 0.48 0.004 0.97-0.028 1.5-0.196v2.81c-5.75-1.738-10-6.924-10-13.248 0-7.744 6.256-14 14-14z"></path>
</svg>
