<!-- Generated by IcoMoon.io -->
<svg version="1.1" xmlns="http://www.w3.org/2000/svg" width="32" height="32" viewBox="0 0 32 32">
<title>mbrib-features</title>
<path d="M23.14 0.624l-1.84 4.216-4.426 0.484c-0.76 0.080-1.108 1.3-0.516 1.806l3.272 3.134-0.92 4.52c-0.14 0.76 0.794 1.466 1.44 1.084l3.85-2.288 3.85 2.288c0.644 0.38 1.58-0.324 1.436-1.086l-0.92-4.516 3.276-3.134c0.594-0.508 0.246-1.724-0.514-1.808l-4.426-0.48-1.84-4.22c-0.36-0.834-1.38-0.788-1.72 0zM24 3.516l1.15 2.71c0.14 0.332 0.46 0.572 0.804 0.604l2.76 0.3-2.070 1.988c-0.246 0.24-0.36 0.62-0.288 0.964l0.574 2.832-2.47-1.448c-0.28-0.16-0.64-0.16-0.92 0l-2.47 1.448 0.574-2.832c0.072-0.346-0.040-0.724-0.288-0.966l-2.068-1.99 2.76-0.3c0.34-0.032 0.66-0.272 0.8-0.604zM19 18c-1.644 0-3 1.356-3 3v8c0 1.644 1.356 3 3 3h8c1.644 0 3-1.356 3-3v-8c0-1.644-1.356-3-3-3zM19 20h8c0.572 0 1 0.428 1 1v8c0 0.572-0.428 1-1 1h-8c-0.572 0-1-0.428-1-1v-8c0-0.572 0.428-1 1-1zM3 18c-1.644 0-3 1.356-3 3v8c0 1.644 1.356 3 3 3h8c1.644 0 3-1.356 3-3v-8c0-1.644-1.356-3-3-3zM3 20h8c0.572 0 1 0.428 1 1v8c0 0.572-0.428 1-1 1h-8c-0.572 0-1-0.428-1-1v-8c0-0.572 0.428-1 1-1zM3 2c-1.644 0-3 1.356-3 3v8c0 1.644 1.356 3 3 3h8c1.644 0 3-1.356 3-3v-8c0-1.644-1.356-3-3-3zM3 4h8c0.572 0 1 0.428 1 1v8c0 0.572-0.428 1-1 1h-8c-0.572 0-1-0.428-1-1v-8c0-0.572 0.428-1 1-1z"></path>
</svg>
