<!-- Generated by IcoMoon.io -->
<svg version="1.1" xmlns="http://www.w3.org/2000/svg" width="32" height="32" viewBox="0 0 32 32">
<title>mbrib-layers</title>
<path d="M29 8c0.572 0 1 0.428 1 1v20c0 0.572-0.428 1-1 1h-20c-0.572 0-1-0.428-1-1 0-1.312-2-1.328-2 0 0 1.644 1.356 3 3 3h20c1.644 0 3-1.356 3-3v-20c0-1.644-1.356-3-3-3-1.34 0-1.28 2 0 2zM3 0c-1.644 0-3 1.356-3 3v20c0 1.644 1.356 3 3 3h20c1.644 0 3-1.356 3-3v-20c0-1.644-1.356-3-3-3zM3 2h20c0.572 0 1 0.428 1 1v20c0 0.572-0.428 1-1 1h-20c-0.572 0-1-0.428-1-1v-20c0-0.572 0.428-1 1-1z"></path>
</svg>
