<!-- Generated by IcoMoon.io -->
<svg version="1.1" xmlns="http://www.w3.org/2000/svg" width="32" height="32" viewBox="0 0 32 32">
<title>mbrib-change-style</title>
<path d="M30.56 0.124c-6.654 3.532-14.832 8.896-18.434 12.5-2.96 2.96-2.44 6.68-0.876 8.25 1.564 1.568 4.84 2 8.060-1.126 3.29-3.188 8.77-11.14 12.57-18.312 0.464-0.912-0.526-1.704-1.314-1.312zM28.060 3.874c-2.72 5.060-6.84 11.236-10.12 14.376-2.696 2.576-4.872 1.692-5.316 1.25-1.24-1.24-0.84-3.656 1-5.5 3.71-3.708 9.684-7.476 14.44-10.126zM6 22c-3.11 0-3.68 2.468-4 5 0.028 1.388-0.83 2.572-1.626 3.188-0.694 0.496-0.228 1.848 0.626 1.812 4.43 0.020 9-0.86 9-5 0-3.056-1.42-5-4-5zM6 24c1.84 0 2 1.7 2 3 0 2.028-2.494 2.624-4.688 2.624 0.386-0.766 0.692-1.628 0.688-2.624-0.010-1.86 0.744-3 2-3z"></path>
</svg>
