<!-- Generated by IcoMoon.io -->
<svg version="1.1" xmlns="http://www.w3.org/2000/svg" width="32" height="32" viewBox="0 0 32 32">
<title>mbrib-protect</title>
<path d="M14.91 17.488l-1.24-1.188c-0.948-0.904-2.276 0.546-1.364 1.44l2.046 2c0.404 0.394 1.152 0.332 1.486-0.126l5.94-8.006c0.812-1.096-0.814-2.254-1.6-1.196zM15.624 31.928c-6.808-2.588-11.624-9.196-11.624-16.948v-10.72c0-1.254 0.012-3.26 0.966-3.888 0.956-0.626 1.86-0.24 2.972 0.28 1.866 0.866 4.11 1.616 7.56-0.494 0.32-0.2 0.66-0.208 1 0 3.45 2.108 5.694 1.36 7.56 0.49 1.114-0.52 2.020-0.904 2.974-0.28 0.954 0.62 0.966 2.628 0.966 3.884v10.716c0 7.752-4.81 14.37-11.626 16.948-0.32 0.12-0.524 0.092-0.748 0zM26 14.972v-10.72c0-0.956-0.050-1.6-0.126-1.992-0.114-0.43-0.714 0.090-0.936 0.186-1.72 0.734-4.904 1.86-8.94-0.36-4.036 2.23-7.22 1.104-8.94 0.37-0.22-0.096-0.82-0.616-0.934-0.186-0.076 0.39-0.126 1.036-0.126 1.994v10.716c0 6.78 4.15 12.506 10 14.888 5.85-2.39 10-8.12 10-14.896z"></path>
</svg>
