<!-- Generated by IcoMoon.io -->
<svg version="1.1" xmlns="http://www.w3.org/2000/svg" width="32" height="32" viewBox="0 0 32 32">
<title>mbrib-preview</title>
<path d="M16 10c-3.3 0-6 2.7-6 6s2.7 6 6 6 6-2.7 6-6-2.7-6-6-6zM16 12c2.22 0 4 1.78 4 4s-1.78 4-4 4c-2.22 0-4-1.78-4-4s1.78-4 4-4zM0.124 15.464c-0.18 0.332-0.096 0.77 0.064 1.060 3.076 5.596 8.98 9.476 15.812 9.476 6.86 0 12.808-3.904 15.876-9.54 0.16-0.294 0.13-0.756 0-1-3.070-5.634-9.020-9.46-15.876-9.46s-12.84 3.806-15.876 9.464zM16 8c5.92 0 11.020 3.2 13.812 7.964-2.792 4.764-7.9 8.036-13.812 8.036-5.914 0-11.020-3.272-13.812-8.036 2.792-4.76 7.892-7.964 13.812-7.964z"></path>
</svg>
