<!-- Generated by IcoMoon.io -->
<svg version="1.1" xmlns="http://www.w3.org/2000/svg" width="32" height="32" viewBox="0 0 32 32">
<title>mbrib-hot-cup</title>
<path d="M18 1v2c0 1.31-2 1.368-2 0v-2c0-1.354 2-1.304 2 0zM12 1v2c0 1.31-2 1.368-2 0v-2c0-1.354 2-1.304 2 0zM25 12h1c2.22 0 4 1.78 4 4s-1.78 4-4 4h-1c-1.314 0-1.294 2 0 2h1c3.3 0 6-2.7 6-6s-2.7-6-6-6h-1c-1.32 0-1.296 2 0 2zM5 10h12c1.34 0 1.336 2 0 2h-12c-1.348 0-1.32-2 0-2zM6 1v2c0 1.31-2 1.368-2 0v-2c0-1.354 2-1.256 2 0zM21 32c1.356 0 1.32-2 0-2h-3.688c2.824-1.99 4.688-5.28 4.688-9v-14c0-1.39-2-1.246-2 0v14c0 5.004-3.996 9-9 9s-9-3.996-9-9v-14c0-1.326-2-1.306-2 0v14c0 3.72 1.864 7.010 4.688 9h-3.688c-1.316 0-1.328 2 0 2z"></path>
</svg>
