<!-- Generated by IcoMoon.io -->
<svg version="1.1" xmlns="http://www.w3.org/2000/svg" width="32" height="32" viewBox="0 0 32 32">
<title>mbrib-calendar</title>
<path d="M22 7v-4c0-1.288 2-1.384 2 0v4c0 1.328-2 1.31-2 0zM6 7v-4c0-1.288 2-1.384 2 0v4c0 1.328-2 1.31-2 0zM25 20h-4c-1.288 0-1.384-2 0-2h4c1.33 0 1.31 2 0 2zM17 20h-4c-1.288 0-1.384-2 0-2h4c1.33 0 1.31 2 0 2zM9 20h-4c-1.288 0-1.384-2 0-2h4c1.33 0 1.31 2 0 2zM25 14h-4c-1.288 0-1.384-2 0-2h4c1.33 0 1.31 2 0 2zM17 14h-4c-1.288 0-1.384-2 0-2h4c1.33 0 1.31 2 0 2zM9 14h-4c-1.288 0-1.384-2 0-2h4c1.33 0 1.31 2 0 2zM3 4c-1.644 0-3 1.356-3 3v18c0 1.644 1.356 3 3 3h24c1.644 0 3-1.356 3-3v-18c0-1.644-1.356-3-3-3-1.346 0-1.29 2 0 2 0.572 0 1 0.428 1 1v18c0 0.572-0.428 1-1 1h-24c-0.572 0-1-0.428-1-1v-18c0-0.572 0.428-1 1-1 1.29 0 1.37-2 0-2zM11 6h8c1.36 0 1.284-2 0-2h-8c-1.32 0-1.3 2 0 2z"></path>
</svg>
