<!-- Generated by IcoMoon.io -->
<svg version="1.1" xmlns="http://www.w3.org/2000/svg" width="32" height="32" viewBox="0 0 32 32">
<title>mbrib-print</title>
<path d="M8 0c-1.090 0-2 0.91-2 2v3c0 1.332 2 1.32 2 0v-3h16v3c0 1.3 2 1.348 2 0v-3c0-1.090-0.91-2-2-2zM3 8c-1.644 0-3 1.356-3 3v10c0 1.644 1.356 3 3 3h3v6c0 1.090 0.91 2 2 2h16c1.090 0 2-0.91 2-2v-6h3c1.644 0 3-1.356 3-3v-10c0-1.644-1.356-3-3-3zM3 10h26c0.572 0 1 0.428 1 1v10c0 0.572-0.428 1-1 1h-3v-1c0-1.304-2-1.332-2 0v9h-16v-9c0-1.332-2-1.326-2 0v1h-3c-0.572 0-1-0.428-1-1v-10c0-0.572 0.428-1 1-1zM23 12c-0.552 0-1 0.448-1 1s0.448 1 1 1 1-0.448 1-1-0.448-1-1-1zM27 12c-0.552 0-1 0.448-1 1s0.448 1 1 1 1-0.448 1-1-0.448-1-1-1zM5 16c-1.332 0-1.288 2 0 2h22c1.316 0 1.346-2 0-2zM11 20c-1.32 0-1.3 2 0 2h10c1.344 0 1.32-2 0-2zM11 24c-1.33 0-1.294 2 0 2h10c1.344 0 1.31-2 0-2z"></path>
</svg>
