<!-- Generated by IcoMoon.io -->
<svg version="1.1" xmlns="http://www.w3.org/2000/svg" width="32" height="32" viewBox="0 0 32 32">
<title>mbrib-alert</title>
<path d="M25 6c2.774 0 5 2.226 5 5 0 1.268 2 1.306 2 0 0-3.854-3.146-7-7-7-1.38 0-1.268 2 0 2zM7 4c-3.854 0-7 3.146-7 7 0 1.354 2 1.32 2 0 0-2.774 2.226-5 5-5 1.3 0 1.286-2 0-2zM16 0c-2.14 0-4 1.25-4 3 0 1.286 2 1.284 2 0 0-0.56 1.052-1 2-1s2 0.37 2 1c0 1.33 2 1.308 2 0 0-1.7-1.86-3-4-3zM16 6.026c-3.82 0-6.16 1.94-7.312 4.25s-1.314 4.896-1.314 6.624c0 2.848-0.756 4.64-1.5 5.75-0.74 1.114-1.374 1.5-1.374 1.5-0.774 0.428-0.384 1.89 0.5 1.876h22c0.964 0.1 1.352-1.616 0.44-1.94 0 0-0.592-0.216-1.316-1.248-0.72-1.034-1.5-2.836-1.5-5.94 0-1.728-0.16-4.314-1.312-6.624-1.152-2.308-3.492-4.248-7.312-4.248zM21.56 11.15c0.904 1.806 1.066 4.14 1.066 5.75 0 2.554 0.374 5.1 1.936 7.126h-17.31c1.748-2.026 2.098-5.046 2.124-7.126 0-1.61 0.16-3.944 1.060-5.75s2.37-3.124 5.564-3.124 4.66 1.32 5.56 3.124zM16 32c-2.14 0-4-1.25-4-3 0-1.286 2-1.284 2 0 0 0.56 1.052 1 2 1s2-0.37 2-1c0-1.33 2-1.308 2 0 0 1.7-1.86 3-4 3z"></path>
</svg>
