<!-- Generated by IcoMoon.io -->
<svg version="1.1" xmlns="http://www.w3.org/2000/svg" width="32" height="32" viewBox="0 0 32 32">
<title>mbrib-file</title>
<path d="M9 20h14c1.4 0 1.26 2 0 2h-14c-1.326 0-1.332-2 0-2zM9 16h14c1.4 0 1.26 2 0 2h-14c-1.326 0-1.332-2 0-2zM9 12h14c1.4 0 1.26 2 0 2h-14c-1.326 0-1.332-2 0-2zM7 0c-1.644 0-3 1.356-3 3v26c0 1.644 1.356 3 3 3h18c1.644 0 3-1.356 3-3v-22c0.006-0.28-0.11-0.56-0.312-0.75l-6-6c-0.188-0.166-0.44-0.256-0.688-0.25zM7 2h13.626l5.374 5.376v21.624c0 0.572-0.428 1-1 1h-18c-0.572 0-1-0.428-1-1v-26c0-0.572 0.428-1 1-1z"></path>
</svg>
