<!-- Generated by IcoMoon.io -->
<svg version="1.1" xmlns="http://www.w3.org/2000/svg" width="32" height="32" viewBox="0 0 32 32">
<title>mbrib-sale</title>
<path d="M9 18h10c1.326 0 1.34 2 0 2h-10c-1.32 0-1.336-2 0-2zM16 23c0 0.552-0.45 1-1 1-0.554 0-1-0.448-1-1s0.446-1 1-1c0.55 0 1 0.448 1 1zM14 15c0 0.552-0.45 1-1 1-0.554 0-1-0.448-1-1s0.446-1 1-1c0.55 0 1 0.448 1 1zM28 6c0 1.104-0.9 2-2 2-1.108 0-2-0.896-2-2s0.892-2 2-2c1.1 0 2 0.896 2 2zM19 0c-1.43 0-2.766 0.394-3.688 1.25l-14.464 14.714c-1.12 1.14-1.14 3.046 0 4.186l11 11c1.14 1.14 2.98 1.124 4.126 0l14.714-14.46c0.76-0.77 1.312-2.010 1.312-3.69v-10c0-1.648-1.352-3-3-3zM19 2h10c0.504 0 1 0.496 1 1v10c0 1.246-0.404 1.968-0.688 2.25l-14.712 14.464c-0.394 0.386-0.994 0.38-1.376 0l-11-11c-0.38-0.38-0.324-0.92 0.060-1.312l14.404-14.712c0.4-0.374 1.304-0.69 2.312-0.69z"></path>
</svg>
