<!-- Generated by IcoMoon.io -->
<svg version="1.1" xmlns="http://www.w3.org/2000/svg" width="32" height="32" viewBox="0 0 32 32">
<title>mbrib-shopping-bag</title>
<path d="M13 8h6c1.352 0 1.31 2 0 2h-6c-1.32 0-1.324-2 0-2zM5 8c-1.652-0.006-2.834 1.376-3 2.874l-2 18c-0.196 1.766 1.352 3.126 3 3.126h26c1.648 0 3.196-1.36 3-3.126l-2-18c-0.166-1.5-1.356-2.868-3-2.874-1.286 0-1.334 2 0 2 0.572 0 0.92 0.36 1 1.060l2 18c0.048 0.44-0.432 0.94-1 0.94h-26c-0.568 0-1.048-0.5-1-0.94l2-18c0.080-0.7 0.436-1.060 1-1.060 1.284 0 1.366-2 0-2zM16 0c-4.414 0-8 3.586-8 8v3c0 1.326 2 1.25 2 0v-3c0-3.34 2.66-6 6-6s6 2.66 6 6v3c0 1.38 2 1.216 2 0v-3c0-4.414-3.586-8-8-8z"></path>
</svg>
