<!-- Generated by IcoMoon.io -->
<svg version="1.1" xmlns="http://www.w3.org/2000/svg" width="32" height="32" viewBox="0 0 32 32">
<title>mbrib-more-horizontal</title>
<path d="M28 12c-2.2 0-4 1.8-4 4s1.8 4 4 4 4-1.8 4-4-1.8-4-4-4zM28 14c1.116 0 2 0.884 2 2s-0.884 2-2 2-2-0.884-2-2 0.884-2 2-2zM4 12c-2.2 0-4 1.8-4 4s1.8 4 4 4 4-1.8 4-4-1.8-4-4-4zM4 14c1.116 0 2 0.884 2 2s-0.884 2-2 2-2-0.884-2-2 0.884-2 2-2zM16 12c-2.2 0-4 1.8-4 4s1.8 4 4 4 4-1.8 4-4-1.8-4-4-4zM16 14c1.116 0 2 0.884 2 2s-0.884 2-2 2-2-0.884-2-2 0.884-2 2-2z"></path>
</svg>
