<!-- Generated by IcoMoon.io -->
<svg version="1.1" xmlns="http://www.w3.org/2000/svg" width="32" height="32" viewBox="0 0 32 32">
<title>mbrib-drag-n-drop2</title>
<path d="M29.75 15.688l-4.020 4.008c-0.94 0.932-2.334-0.494-1.446-1.38l3.33-3.316-3.33-3.32c-0.874-0.868 0.5-2.314 1.444-1.374l4.020 4.006c0.34 0.34 0.332 1.048 0 1.376zM0.25 15.688l4.020 4.008c0.94 0.932 2.334-0.494 1.446-1.38l-3.33-3.316 3.33-3.32c0.874-0.868-0.5-2.314-1.444-1.374l-4.020 4.006c-0.34 0.34-0.332 1.048 0 1.376zM14.31 29.748l-4.006-4.020c-0.932-0.936 0.494-2.332 1.38-1.444l3.316 3.33 3.32-3.33c0.868-0.874 2.314 0.5 1.374 1.444l-4.006 4.020c-0.34 0.34-1.048 0.332-1.38 0zM14.31 0.248l-4.006 4.026c-0.932 0.936 0.494 2.332 1.38 1.444l3.316-3.332 3.32 3.33c0.868 0.874 2.314-0.5 1.374-1.444l-4.006-4.020c-0.34-0.34-1.048-0.332-1.38 0zM14 7v7h-7c-1.326 0-1.292 2 0 2h7v7c0 1.326 2 1.34 2 0v-7h7c1.348 0 1.28-2 0-2h-7v-7c0-1.37-2-1.28-2 0z"></path>
</svg>
