<!-- Generated by IcoMoon.io -->
<svg version="1.1" xmlns="http://www.w3.org/2000/svg" width="32" height="32" viewBox="0 0 32 32">
<title>mbrib-devices</title>
<path d="M6 13v2c0 1.332-2 1.344-2 0v-2c0-1.308 2-1.336 2 0zM10 7v14c0 1.308-2 1.328-2 0v-14c0-1.376 2-1.28 2 0zM26 25c0 0.552-0.448 1-1 1s-1-0.448-1-1 0.448-1 1-1 1 0.448 1 1zM21 8c-1.644 0-3 1.356-3 3v16c0 1.644 1.356 3 3 3h8c1.644 0 3-1.356 3-3v-16c0-1.644-1.356-3-3-3zM21 10h8c0.572 0 1 0.428 1 1v16c0 0.572-0.428 1-1 1h-8c-0.572 0-1-0.428-1-1v-16c0-0.572 0.428-1 1-1zM3 2c-1.644 0-3 1.356-3 3v18c0 1.644 1.356 3 3 3h12c1.372 0 1.296-2 0-2h-12c-0.572 0-1-0.428-1-1v-18c0-0.572 0.428-1 1-1h24c0.572 0 1 0.428 1 1 0 1.32 2 1.324 2 0 0-1.644-1.356-3-3-3z"></path>
</svg>
