<!-- Generated by IcoMoon.io -->
<svg version="1.1" xmlns="http://www.w3.org/2000/svg" width="32" height="32" viewBox="0 0 32 32">
<title>mbrib-update</title>
<path d="M22.3 13.716l4.004 4.020c0.368 0.352 1.010 0.352 1.376 0l4.004-4.020c0.986-0.992-0.572-2.254-1.376-1.446l-3.316 3.33-3.312-3.328c-0.852-0.854-2.314 0.504-1.38 1.446zM14.712 2.064c-3.2 0.288-6.294 1.78-8.496 4.31-0.766 0.89 0.71 2.248 1.584 1.232 3.7-4.256 10.28-4.886 14.76-1.368 1.634 1.284 2.82 3.040 3.38 4.992 0.404 1.4 2.374 0.684 2.020-0.548-0.676-2.326-2.15-4.414-4.106-5.952-2.666-2.090-5.948-2.954-9.144-2.666zM9.7 16.284l-4.004-4.020c-0.368-0.352-1.010-0.352-1.376 0l-4.004 4.016c-0.986 0.992 0.572 2.254 1.376 1.446l3.316-3.326 3.312 3.328c0.852 0.854 2.314-0.504 1.38-1.446zM17.29 27.936c3.2-0.288 6.294-1.78 8.496-4.31 0.766-0.89-0.71-2.248-1.584-1.232-3.7 4.256-10.28 4.886-14.76 1.368-1.634-1.284-2.82-3.044-3.38-4.992-0.404-1.4-2.374-0.684-2.020 0.548 0.676 2.326 2.15 4.414 4.106 5.952 2.666 2.092 5.948 2.956 9.144 2.668z"></path>
</svg>
