<!-- Generated by IcoMoon.io -->
<svg version="1.1" xmlns="http://www.w3.org/2000/svg" width="32" height="32" viewBox="0 0 32 32">
<title>mbrib-save</title>
<path d="M0 25v2c0 1.644 1.356 3 3 3h24c1.644 0 3-1.356 3-3v-2c0-1.332-2-1.312-2 0v2c0 0.572-0.428 1-1 1h-24c-0.572 0-1-0.428-1-1v-2c0-1.27-2-1.36-2 0zM4.272 15.72l10.040 10.020c0.368 0.348 1.012 0.348 1.38 0l10.040-10.020c0.808-0.95-0.376-2.216-1.38-1.44l-9.352 9.328-9.346-9.328c-0.9-0.9-2.23 0.59-1.38 1.44zM16 1v18c0 1.3-2 1.348-2 0v-18c0-1.336 2-1.31 2 0z"></path>
</svg>
