<!-- Generated by IcoMoon.io -->
<svg version="1.1" xmlns="http://www.w3.org/2000/svg" width="32" height="32" viewBox="0 0 32 32">
<title>mbrib-extension</title>
<path d="M22 0.812l-5.188 5.188c-1.096 1.096-1.026 2.896 0.060 4l5.128 5.188c1.084 1.1 2.91 1.1 4 0l5.126-5.188c1.088-1.104 1.16-2.904 0.060-4l-5.186-5.188c-1.132-1.132-3.004-0.994-4 0zM24.626 2.188l5.186 5.186c0.34 0.34 0.274 0.852-0.060 1.188l-5.192 5.19c-0.334 0.336-0.792 0.332-1.12 0l-5.192-5.192c-0.336-0.334-0.4-0.85-0.060-1.186l5.184-5.124c0.32-0.314 0.986-0.326 1.252-0.060zM19 18c-1.644 0-3 1.356-3 3v8c0 1.644 1.356 3 3 3h8c1.644 0 3-1.356 3-3v-8c0-1.644-1.356-3-3-3zM19 20h8c0.572 0 1 0.428 1 1v8c0 0.572-0.428 1-1 1h-8c-0.572 0-1-0.428-1-1v-8c0-0.572 0.428-1 1-1zM3 18c-1.644 0-3 1.356-3 3v8c0 1.644 1.356 3 3 3h8c1.644 0 3-1.356 3-3v-8c0-1.644-1.356-3-3-3zM3 20h8c0.572 0 1 0.428 1 1v8c0 0.572-0.428 1-1 1h-8c-0.572 0-1-0.428-1-1v-8c0-0.572 0.428-1 1-1zM3 2c-1.644 0-3 1.356-3 3v8c0 1.644 1.356 3 3 3h8c1.644 0 3-1.356 3-3v-8c0-1.644-1.356-3-3-3zM3 4h8c0.572 0 1 0.428 1 1v8c0 0.572-0.428 1-1 1h-8c-0.572 0-1-0.428-1-1v-8c0-0.572 0.428-1 1-1z"></path>
</svg>
