<!-- Generated by IcoMoon.io -->
<svg version="1.1" xmlns="http://www.w3.org/2000/svg" width="32" height="32" viewBox="0 0 32 32">
<title>mbrib-sites</title>
<path d="M13 20h14c1.36 0 1.28 2 0 2h-14c-1.3 0-1.348-2 0-2zM13 16h14c1.36 0 1.28 2 0 2h-14c-1.3 0-1.348-2 0-2zM6 16c-1.090 0-2 0.91-2 2v2c0 1.090 0.91 2 2 2h2c1.090 0 2-0.91 2-2v-2c0-1.090-0.91-2-2-2zM6 18h2v2h-2zM5 12h22c1.36 0 1.28 2 0 2h-22c-1.3 0-1.348-2 0-2zM14 9c0 0.552-0.448 1-1 1s-1-0.448-1-1 0.448-1 1-1 1 0.448 1 1zM10 9c0 0.552-0.448 1-1 1s-1-0.448-1-1 0.448-1 1-1 1 0.448 1 1zM6 9c0 0.552-0.448 1-1 1s-1-0.448-1-1 0.448-1 1-1 1 0.448 1 1zM3 4c-1.644 0-3 1.356-3 3v18c0 1.644 1.356 3 3 3h26c1.644 0 3-1.356 3-3v-18c0-1.644-1.356-3-3-3zM3 6h26c0.572 0 1 0.428 1 1v18c0 0.572-0.428 1-1 1h-26c-0.572 0-1-0.428-1-1v-18c0-0.572 0.428-1 1-1z"></path>
</svg>
