<!-- Generated by IcoMoon.io -->
<svg version="1.1" xmlns="http://www.w3.org/2000/svg" width="32" height="32" viewBox="0 0 32 32">
<title>mbrib-video</title>
<path d="M12 9v12c-0.024 0.76 1.032 1.288 1.626 0.812l8-6c0.512-0.368 0.512-1.256 0-1.624l-8-6c-0.636-0.476-1.626 0.072-1.626 0.812zM14 11l5.312 4-5.312 4zM3 4c-1.644 0-3 1.356-3 3v16c0 1.644 1.356 3 3 3h26c1.644 0 3-1.356 3-3v-16c0-1.644-1.356-3-3-3zM3 6h26c0.572 0 1 0.428 1 1v16c0 0.572-0.428 1-1 1h-26c-0.572 0-1-0.428-1-1v-16c0-0.572 0.428-1 1-1z"></path>
</svg>
