<!-- Generated by IcoMoon.io -->
<svg version="1.1" xmlns="http://www.w3.org/2000/svg" width="32" height="32" viewBox="0 0 32 32">
<title>mbrib-windows</title>
<path d="M14 17v9c0.020 0.446 0.374 0.854 0.812 0.94l14 3c0.56 0.106 1.16-0.368 1.188-0.94v-12c0-0.524-0.476-1-1-1h-14c-0.566 0-1 0.396-1 1zM16 18h12v9.75l-12-2.56zM0 17v6c0.020 0.446 0.374 0.854 0.812 0.94l10 2c0.56 0.106 1.16-0.368 1.188-0.94v-8c0-0.524-0.476-1-1-1h-10c-0.64 0-1 0.354-1 1zM2 18h8v5.75l-8-1.56zM28.812 0l-14 3c-0.46 0.088-0.82 0.534-0.812 1v9c0 0.524 0.476 1 1 1h14c0.524 0 1-0.476 1-1v-12c0.010-0.592-0.606-1.112-1.188-1zM28 2.188v9.812h-12v-7.25zM10.812 4l-10 2c-0.46 0.088-0.82 0.534-0.812 1v6c0 0.524 0.476 1 1 1h10c0.524 0 1-0.476 1-1v-8c0.010-0.592-0.606-1.112-1.188-1zM10 6.188v5.812h-8v-4.25z"></path>
</svg>
