<!-- Generated by IcoMoon.io -->
<svg version="1.1" xmlns="http://www.w3.org/2000/svg" width="32" height="32" viewBox="0 0 32 32">
<title>mbrib-edit</title>
<path d="M5 8h12c1.34 0 1.328 2 0 2h-12c-1.37 0-1.296-2 0-2zM26.312 4.26l-16 16.010c-0.2 0.192-0.32 0.452-0.312 0.73v4c0 0.524 0.476 1 1 1h4c0.26-0.020 0.51-0.1 0.688-0.286l16-16.014c0.384-0.372 0.384-1.066 0-1.44l-4-4c-0.344-0.346-1.032-0.346-1.376 0zM27 6.38l2.626 2.628-15.066 14.992h-2.56v-2.604zM5 12h8c1.304 0 1.36 2 0 2h-8c-1.344 0-1.316-2 0-2zM5 4h12c1.34 0 1.328 2 0 2h-12c-1.37 0-1.296-2 0-2zM3 0c-1.644 0-3 1.356-3 3v26c0 1.644 1.356 3 3 3h16c1.644 0 3-1.356 3-3v-4c0-1.326-2-1.294-2 0v4c0 0.572-0.428 1-1 1h-16c-0.572 0-1-0.428-1-1v-26c0-0.572 0.428-1 1-1h16c0.572 0 1 0.428 1 1v2c0 1.326 2 1.328 2 0v-2c0-1.644-1.356-3-3-3z"></path>
</svg>
