<!-- Generated by IcoMoon.io -->
<svg version="1.1" xmlns="http://www.w3.org/2000/svg" width="32" height="32" viewBox="0 0 32 32">
<title>mbrib-hearth</title>
<path d="M8.75 2c-5.054 0-8.75 4.368-8.75 10 0 5.78 4.010 10.24 7.876 13.25 3.864 3.012 7.748 4.626 7.748 4.626 0.24 0.094 0.514 0.094 0.75 0 0 0 3.886-1.614 7.752-4.626 3.864-3.010 7.874-7.47 7.874-13.25 0-5.632-3.696-10-8.75-10-4.124 0-6.366 2.468-7.25 3.56-0.884-1.088-3.126-3.56-7.25-3.56zM8.75 4c3.9 0 6.44 3.5 6.44 3.5 0.366 0.514 1.254 0.514 1.62 0 0 0 2.54-3.5 6.44-3.5 3.93 0 6.75 3.206 6.75 8 0 4.84-3.49 8.856-7.126 11.688-3.44 2.68-6.52 3.968-6.874 4.124-0.356-0.156-3.434-1.444-6.876-4.124-3.634-2.832-7.124-6.848-7.124-11.688 0-4.794 2.82-8 6.75-8z"></path>
</svg>
