<!-- Generated by IcoMoon.io -->
<svg version="1.1" xmlns="http://www.w3.org/2000/svg" width="32" height="32" viewBox="0 0 32 32">
<title>mbrib-user2</title>
<path d="M16 0c-8.824 0-16 7.176-16 16s7.176 16 16 16 16-7.176 16-16-7.176-16-16-16zM16 2c7.744 0 14 6.256 14 14s-6.256 14-14 14-14-6.256-14-14 6.256-14 14-14zM16 6c-3.044 0-4.716 1.368-5.606 4.586-0.626 2.268-0.914 4.514-2.054 5.66-0.61 0.536-0.152 1.776 0.66 1.754h2.932c-0.060 1.42-0.904 2.072-1.912 2.492-2.216 0.92-3.38 1.666-3.984 4.272-0.334 1.434 1.78 1.648 1.992 0.412 0.368-2.112 1.444-2.284 2.74-2.874 2.452-1.112 3.24-2.652 3.24-5.306-0.002-0.526-0.488-0.996-1.008-0.996h-2.356c0.83-1.62 1.28-3.372 1.68-4.852 0.624-2.292 1.652-3.148 3.676-3.148s2.776 0.76 3.672 3.148c0.428 1.472 0.852 3.23 1.68 4.852h-2.362c-0.52 0-0.996 0.476-0.996 1 0 2.748 0.996 4.246 3.24 5.304 1.6 0.754 2.2 0.868 2.74 2.872 0.38 1.51 2.32 0.692 1.99-0.436-0.716-2.8-1.98-3.34-3.984-4.248-1.29-0.586-1.576-1.266-1.854-2.492h2.88c0.812 0.020 1.268-1.21 0.66-1.748-1.14-1.144-1.4-3.4-2.056-5.66-0.886-3.092-2.566-4.592-5.61-4.592z"></path>
</svg>
