<!-- Generated by IcoMoon.io -->
<svg version="1.1" xmlns="http://www.w3.org/2000/svg" width="32" height="32" viewBox="0 0 32 32">
<title>mbrib-browse</title>
<path d="M5 12h22c1.326 0 1.34 2 0 2h-22c-1.326 0-1.326-2 0-2zM14 9c0 0.552-0.448 1-1 1s-1-0.448-1-1 0.448-1 1-1 1 0.448 1 1zM10 9c0 0.552-0.448 1-1 1s-1-0.448-1-1 0.448-1 1-1 1 0.448 1 1zM6 9c0 0.552-0.448 1-1 1s-1-0.448-1-1 0.448-1 1-1 1 0.448 1 1zM3 4c-1.644 0-3 1.356-3 3v18c0 1.644 1.356 3 3 3h26c1.644 0 3-1.356 3-3v-18c0-1.644-1.356-3-3-3zM3 6h26c0.572 0 1 0.428 1 1v18c0 0.572-0.428 1-1 1h-26c-0.572 0-1-0.428-1-1v-18c0-0.572 0.428-1 1-1z"></path>
</svg>
