<!-- Generated by IcoMoon.io -->
<svg version="1.1" xmlns="http://www.w3.org/2000/svg" width="32" height="32" viewBox="0 0 32 32">
<title>mbrib-upload</title>
<path d="M16.312 14.276l-4 4c-0.916 0.916 0.492 2.32 1.376 1.44l3.312-3.316 3.312 3.314c0.876 0.876 2.316-0.5 1.376-1.44l-4-4c-0.384-0.38-1.060-0.316-1.376 0zM18 21v6c0 1.32-2 1.346-2 0v-6c0-1.33 2-1.32 2 0zM17 2c-5.124 0-8.2 3.084-9.75 6.126-4.040 0.4-7.25 3.73-7.25 7.874 0 4.414 3.586 8 8 8h3c1.36 0 1.284-2 0-2h-3c-3.34 0-6-2.66-6-6 0-3.288 2.55-5.916 5.812-6 0.4 0 0.788-0.256 0.94-0.624 1.218-2.696 3.598-5.376 8.248-5.376 4.43 0 9 3.748 9 9.060 0.020 0.448 0.374 0.856 0.812 0.94 1.808 0.37 3.188 2.060 3.188 4 0 2.22-1.78 4-4 4h-3c-1.34 0-1.284 2 0 2h3c3.3 0 6-2.7 6-6 0-2.6-1.796-4.66-4.126-5.5-0.324-6.136-5.48-10.5-10.874-10.5z"></path>
</svg>
