<!-- Generated by IcoMoon.io -->
<svg version="1.1" xmlns="http://www.w3.org/2000/svg" width="32" height="32" viewBox="0 0 32 32">
<title>mbrib-drag-n-drop</title>
<path d="M2 15v-2c0-0.572 0.428-1 1-1h2c1.33 0 1.31-2 0-2h-2c-1.648 0-3 1.352-3 3v2c0 1.334 2 1.314 2 0zM2 27v2c0 0.572 0.428 1 1 1h2c1.33 0 1.31 2 0 2h-2c-1.648 0-3-1.352-3-3v-2c0-1.334 2-1.314 2 0zM0 23v-4c0-1.3 2-1.356 2 0v4c0 1.344-2 1.3-2 0zM13 0c-1.644 0-3 1.356-3 3v16c0 1.644 1.356 3 3 3h16c1.644 0 3-1.356 3-3v-16c0-1.644-1.356-3-3-3zM13 2h16c0.572 0 1 0.428 1 1v16c0 0.572-0.428 1-1 1h-16c-0.572 0-1-0.428-1-1v-16c0-0.572 0.428-1 1-1zM9 30h4c1.3 0 1.356 2 0 2h-4c-1.344 0-1.3-2 0-2zM20 27v2c0 0.572-0.428 1-1 1h-2c-1.33 0-1.31 2 0 2h2c1.648 0 2.996-1.352 3-3l0.004-2c0-1.334-2.004-1.314-2.004 0z"></path>
</svg>
