<!-- Generated by IcoMoon.io -->
<svg version="1.1" xmlns="http://www.w3.org/2000/svg" width="32" height="32" viewBox="0 0 32 32">
<title>mbrib-bold</title>
<path d="M10 5v8c0 0.524 0.476 1 1 1h4c2.752 0 5-2.246 5-5s-2.248-5-5-5h-4c-0.552 0-1 0.42-1 1zM12 6h3c1.68 0 3 1.32 3 3s-1.32 3-3 3h-3zM10 17v10c0 0.524 0.476 1 1 1h5c3.306 0 6-2.69 6-6s-2.694-6-6-6h-5c-0.54 0-1 0.51-1 1zM12 18h4c2.234 0 4 1.76 4 4s-1.766 4.020-4 4h-4zM6 1v30c0 0.524 0.476 1 1 1h9c5.5 0 10-4.486 10-10 0-3.168-1.58-5.912-3.876-7.75 1.112-1.48 1.876-3.24 1.876-5.25 0-4.966-4.032-9-9-9h-8c-0.54 0-1 0.44-1 1zM8 2h7c3.896 0 7 3.108 7 7 0 1.84-0.712 3.43-1.876 4.688-0.38 0.424-0.286 1.18 0.188 1.5 2.204 1.412 3.688 3.96 3.688 6.812 0 4.45-3.576 8-8 8h-8z"></path>
</svg>
