<!-- Generated by IcoMoon.io -->
<svg version="1.1" xmlns="http://www.w3.org/2000/svg" width="32" height="32" viewBox="0 0 32 32">
<title>mbrib-sun2</title>
<path d="M9.688 21.72l-3.972 3.966c-0.966 0.96-2.326-0.51-1.416-1.412l3.97-3.964c0.944-0.94 2.364 0.47 1.42 1.412zM20.312 21.72l3.972 3.966c0.966 0.96 2.326-0.51 1.416-1.412l-3.97-3.964c-0.944-0.94-2.364 0.47-1.42 1.412zM9.688 8.28l-3.972-3.968c-0.966-0.96-2.326 0.51-1.416 1.412l3.97 3.964c0.944 0.94 2.364-0.47 1.42-1.412zM20.312 8.28l3.972-3.966c0.966-0.96 2.326 0.51 1.416 1.412l-3.97 3.964c-0.944 0.94-2.364-0.47-1.42-1.412zM15 10c-2.75 0-5 2.25-5 5s2.25 5 5 5 5-2.25 5-5-2.25-5-5-5zM15 12c1.668 0 3 1.332 3 3s-1.332 3-3 3-3-1.332-3-3 1.332-3 3-3zM23 14h6c1.36 0 1.28 2 0 2h-6c-1.332 0-1.336-2 0-2zM1 14h6c1.36 0 1.28 2 0 2h-6c-1.332 0-1.336-2 0-2zM16 23v6c0 1.36-2 1.28-2 0v-6c0-1.332 2-1.336 2 0zM16 1v6c0 1.36-2 1.28-2 0v-6c0-1.332 2-1.336 2 0z"></path>
</svg>
