<!-- Generated by IcoMoon.io -->
<svg version="1.1" xmlns="http://www.w3.org/2000/svg" width="32" height="32" viewBox="0 0 32 32">
<title>mbrib-cart-full</title>
<path d="M13 16h12c1.364 0 1.292 2 0 2h-12c-1.368 0-1.3-2 0-2zM1 6h3c0.768 0 0.98 1.232 1.166 2.212l2 10.5c0.734 2.74 2.494 3.288 4.834 3.288h12c2.94 0 5.068-0.368 5.84-2.974l1.876-6.312c0.928-3.060-0.36-4.714-3.248-4.714h-17.468c-1.32 0-1.32 2 0 2h17.468c1.87 0 1.72 0.776 1.312 2.15l-1.812 6.188c-0.5 1.704-2.4 1.66-3.968 1.66h-12c-1.8 0.096-2.45-0.286-2.836-1.724l-2-10.44c-0.438-2.282-0.898-3.834-3.164-3.834h-3c-1.32 0-1.344 2 0 2zM18.32 0.29l-3.288 3.344-1.3-1.372c-0.366-0.34-1-0.34-1.366 0l-1.984 1.974c-1.060 1.054 0.396 2.38 1.364 1.42l1.3-1.296 1.304 1.37c0.364 0.34 1 0.34 1.364 0l3.286-3.346 3.286 3.346c0.364 0.34 1 0.34 1.36 0l1.304-1.372 1.3 1.292c0.968 0.96 2.452-0.34 1.366-1.42l-1.984-1.97c-0.364-0.34-1-0.34-1.364 0l-1.3 1.376-3.288-3.346c-0.4-0.4-1.016-0.344-1.36 0zM11 12h16c1.33 0 1.324 2 0 2h-16c-1.3 0-1.33-2 0-2zM23 24c-1.648 0-3 1.352-3 3s1.352 3 3 3 3-1.352 3-3-1.352-3-3-3zM23 26c0.566 0 1 0.434 1 1s-0.434 1-1 1c-0.566 0-1-0.434-1-1s0.434-1 1-1zM11 24c-1.648 0-3 1.352-3 3s1.352 3 3 3 3-1.352 3-3-1.352-3-3-3zM11 26c0.566 0 1 0.434 1 1s-0.434 1-1 1c-0.566 0-1-0.434-1-1s0.434-1 1-1z"></path>
</svg>
