<!-- Generated by IcoMoon.io -->
<svg version="1.1" xmlns="http://www.w3.org/2000/svg" width="32" height="32" viewBox="0 0 32 32">
<title>mbrib-quote-left</title>
<path d="M7.376 28c3.672 0 6.624-3.18 6.624-7 0-2.99-1.396-4.816-2.44-6.626-1.040-1.808-2.12-3.646-1.56-7.226 0.106-0.656-0.608-1.3-1.25-1.124-5.67 1.624-8.42 7.066-8.75 12.040-0.164 2.486 0.348 4.932 1.56 6.81 1.22 1.88 3.232 3.126 5.82 3.126zM7.376 26c-1.96 0-3.22-0.842-4.126-2.25-0.91-1.41-1.39-3.42-1.25-5.56 0.256-3.86 2.16-7.84 6-9.604-0.074 2.9 0.886 5.18 1.812 6.788 1.124 1.952 2.188 3.25 2.188 5.626 0 2.808-2.106 5-4.626 5zM25.376 28c3.672 0 6.624-3.18 6.624-7 0-2.99-1.396-4.816-2.44-6.626-1.040-1.808-2.12-3.646-1.56-7.226 0.106-0.656-0.608-1.3-1.25-1.124-5.668 1.624-8.42 7.066-8.75 12.040-0.164 2.486 0.348 4.932 1.56 6.81 1.216 1.88 3.23 3.126 5.816 3.126zM25.376 26c-1.96 0-3.22-0.842-4.126-2.25-0.908-1.408-1.392-3.42-1.25-5.56 0.256-3.86 2.134-7.84 5.974-9.604-0.074 2.9 0.912 5.18 1.84 6.788 1.118 1.952 2.186 3.25 2.186 5.626 0 2.808-2.106 5-4.626 5z"></path>
</svg>
