<!-- Generated by IcoMoon.io -->
<svg version="1.1" xmlns="http://www.w3.org/2000/svg" width="32" height="32" viewBox="0 0 32 32">
<title>mbrib-code</title>
<path d="M25.748 8.32l6.016 7.008c0.314 0.36 0.314 0.954 0 1.314l-6.016 7.010c-0.852 0.994-2.334-0.35-1.504-1.314l5.452-6.32-5.452-6.38c-0.83-0.974 0.712-2.24 1.504-1.316zM20.122 6.526l-9.976 18.024c-0.66 1.196 1.14 2.040 1.746 0.94l9.98-18.024c0.614-1.114-1.1-2.114-1.748-0.94zM6.254 8.32l-6.018 7.008c-0.314 0.36-0.314 0.954 0 1.314l6.016 7.010c0.852 0.994 2.334-0.35 1.504-1.314l-5.452-6.32 5.452-6.38c0.83-0.974-0.712-2.24-1.504-1.316z"></path>
</svg>
