<!-- Generated by IcoMoon.io -->
<svg version="1.1" xmlns="http://www.w3.org/2000/svg" width="32" height="32" viewBox="0 0 32 32">
<title>mbrib-delivery</title>
<path d="M1 18h2c1.32 0 1.34 2 0 2h-2c-1.32 0-1.336-2 0-2zM1 12h2c1.32 0 1.34 2 0 2h-2c-1.32 0-1.336-2 0-2zM1 6h2c1.32 0 1.34 2 0 2h-2c-1.32 0-1.336-2 0-2zM16.32 12.256l-3.32 3.34-1.324-1.324c-0.834-0.834-2.288 0.54-1.38 1.45l2.008 2.020c0.37 0.348 1.014 0.348 1.38 0l4.020-4.034c0.932-0.936-0.56-2.272-1.38-1.45zM9 6c-1.644 0-3 1.356-3 3v10c0 1.296 2 1.3 2 0v-10c0-0.572 0.428-1 1-1h10c0.572 0 1 0.428 1 1v10c0 0.572-0.428 1-1 1h-2c-1.312 0-1.308 2 0 2h2c1.644 0 3-1.356 3-3v-9h4.5l3.5 5.25v3.75c0 1.36 2 1.3 2 0v-4c0-0.2-0.070-0.4-0.188-0.56l-4-6c-0.18-0.268-0.492-0.44-0.812-0.44h-5.188c-0.412-1.17-1.512-2-2.812-2h-10zM11 20c-1.65 0-3 1.364-3 3s1.35 3 3 3 3-1.364 3-3-1.35-3-3-3zM11 22c0.566 0 1 0.44 1 1s-0.434 1-1 1c-0.566 0-1-0.44-1-1s0.434-1 1-1zM27 20c-1.65 0-3 1.364-3 3s1.35 3 3 3 3-1.364 3-3-1.35-3-3-3zM27 22c0.566 0 1 0.44 1 1s-0.434 1-1 1c-0.566 0-1-0.44-1-1s0.434-1 1-1z"></path>
</svg>
