<!-- Generated by IcoMoon.io -->
<svg version="1.1" xmlns="http://www.w3.org/2000/svg" width="32" height="32" viewBox="0 0 32 32">
<title>mbrib-target</title>
<path d="M15 10c-2.75 0-5 2.25-5 5s2.25 5 5 5 5-2.25 5-5-2.25-5-5-5zM15 12c1.668 0 3 1.332 3 3s-1.332 3-3 3-3-1.332-3-3 1.332-3 3-3zM14 1v1.060c-6.354 0.5-11.44 5.586-11.94 11.94h-1.060c-1.27 0-1.348 2 0 2h1.060c0.466 6.388 5.56 11.444 11.94 11.94v1.060c0 1.304 2 1.326 2 0v-1.060c6.38-0.496 11.474-5.552 11.94-11.94h1.060c1.304 0 1.326-2 0-2h-1.060c-0.5-6.356-5.588-11.44-11.94-11.94v-1.060c0-1.296-2-1.34-2 0zM14 4.060v0.94c0 1.304 2 1.326 2 0v-0.94c5.266 0.48 9.434 4.682 9.94 9.94h-0.94c-1.27 0-1.348 2 0 2h0.94c-0.452 5.31-4.634 9.464-9.94 9.94v-0.94c0-1.27-2-1.348-2 0v0.94c-5.306-0.48-9.488-4.632-9.94-9.94h0.94c1.304 0 1.326-2 0-2h-0.94c0.49-5.28 4.948-9.54 9.94-9.94z"></path>
</svg>
