<!-- Generated by IcoMoon.io -->
<svg version="1.1" xmlns="http://www.w3.org/2000/svg" width="32" height="32" viewBox="0 0 32 32">
<title>mbrib-numbered-list</title>
<path d="M2.312 0.266l-2 2c-0.96 0.96 0.546 2.272 1.376 1.44l0.312-0.312v3.606c0 1.364 2 1.272 2 0v-5.984c0-1.128-1.22-1.22-1.688-0.75zM11 2h20c1.354 0 1.31 2 0 2h-20c-1.31 0-1.356-2 0-2zM11 14h20c1.354 0 1.31 2 0 2h-20c-1.31 0-1.356-2 0-2zM11 26h20c1.354 0 1.31 2 0 2h-20c-1.31 0-1.356-2 0-2zM3 10.026c-1.644 0-3 1.354-3 3 0 1.328 2 1.252 2 0 0-0.572 0.428-1 1-1s1 0.428 1 1c0 2.254-4 2.4-4 5.974 0 0.524 0.476 1 1 1h4c1.32 0 1.348-2 0-2h-2.626c0.002-0.752 3.626-1.88 3.626-4.974 0-1.646-1.356-3-3-3zM3 22c-1.644 0-3 1.354-3 3 0 1.4 2 1.288 2 0 0-0.564 0.436-1 1-1s1 0.436 1 1c0 0.564-0.436 1-1 1-1.366 0-1.26 2 0 2 0.564 0 1 0.436 1 1s-0.436 1-1 1c-0.564 0-1-0.436-1-1 0-1.404-2-1.314-2 0 0 1.644 1.356 3 3 3s3-1.356 3-3c0-0.772-0.326-1.466-0.812-2 0.486-0.534 0.812-1.228 0.812-2 0-1.646-1.356-3-3-3z"></path>
</svg>
