<!-- Generated by IcoMoon.io -->
<svg version="1.1" xmlns="http://www.w3.org/2000/svg" width="32" height="32" viewBox="0 0 32 32">
<title>mbrib-trash</title>
<path d="M21.988 13.132l-1.988 14.020c-0.192 1.354-2.17 0.964-1.988-0.312l1.988-14.020c0.176-1.25 2.176-1.012 1.988 0.312zM10.012 13.132l1.988 14.020c0.192 1.354 2.17 0.964 1.988-0.312l-1.988-14.020c-0.176-1.25-2.176-1.012-1.988 0.312zM7.040 8c-2.214 0-3.274 1.46-2.996 3.124l2.996 18c0.316 1.904 1.436 2.876 2.996 2.876h11.984c1.91 0 2.672-1.308 2.934-2.876l2.996-18c0.356-2.136-1.226-3.124-2.934-3.124zM7.040 10h17.976c0.652 0 1.040 0.55 1 0.812l-3 18c-0.13 0.792-0.6 1.188-0.996 1.188h-11.984c-0.74 0-0.986-0.728-1.060-1.188l-3-18c-0.104-0.646 0.688-0.812 1.064-0.812zM12 0c-1.090 0-2 0.91-2 2v2h-5c-1.348 0-1.312 2 0 2h22c1.348 0 1.312-2 0-2h-5v-2c0-1.090-0.91-2-2-2zM12 2h8v2h-8z"></path>
</svg>
