<!-- Generated by IcoMoon.io -->
<svg version="1.1" xmlns="http://www.w3.org/2000/svg" width="32" height="32" viewBox="0 0 32 32">
<title>mbrib-growing-chart</title>
<path d="M27 14h3v3c0 1.34 2 1.314 2 0v-4c0-0.524-0.476-1-1-1h-4c-1.35 0-1.314 2 0 2zM14.32 16.288c-0.32 0.32-6.64 6.72-9.94 9.99-1.060 1.048 0.32 2.38 1.36 1.346 3.080-3.044 9.26-9.312 9.26-9.312l5.32 5.43c0.36 0.34 1 0.34 1.36 0l6.034-6.134c0.934-0.95-0.626-2.1-1.36-1.35l-5.354 5.46-5.316-5.428c-0.384-0.392-1.010-0.35-1.36 0zM0 1v30c0 0.554 0.446 1 1 1h30c1.324 0 1.346-2 0-2h-29v-29c0-1.354-2-1.3-2 0z"></path>
</svg>
