<!-- Generated by IcoMoon.io -->
<svg version="1.1" xmlns="http://www.w3.org/2000/svg" width="32" height="32" viewBox="0 0 32 32">
<title>mbrib-info</title>
<path d="M15 12c-1.644 0-3 1.356-3 3v8c0 1.644 1.356 3 3 3s3-1.356 3-3v-8c0-1.644-1.356-3-3-3zM15 14c0.572 0 1 0.428 1 1v8c0 0.572-0.428 1-1 1s-1-0.428-1-1v-8c0-0.572 0.428-1 1-1zM15 4c-1.646 0-3 1.354-3 3s1.354 3 3 3 3-1.354 3-3-1.354-3-3-3zM15 6c0.564 0 1 0.436 1 1s-0.436 1-1 1c-0.564 0-1-0.436-1-1s0.436-1 1-1zM15 0c-8.272 0-15 6.728-15 15s6.728 15 15 15 15-6.728 15-15-6.728-15-15-15zM15 2c7.192 0 13 5.808 13 13s-5.808 13-13 13-13-5.808-13-13 5.808-13 13-13z"></path>
</svg>
