<!-- Generated by IcoMoon.io -->
<svg version="1.1" xmlns="http://www.w3.org/2000/svg" width="32" height="32" viewBox="0 0 32 32">
<title>mbrib-responsive</title>
<path d="M26 25c0 0.552-0.448 1-1 1s-1-0.448-1-1 0.448-1 1-1 1 0.448 1 1zM22 6c-2.2 0-4 1.8-4 4v16c0 2.2 1.8 4 4 4h6c2.2 0 4-1.8 4-4v-16c0-2.2-1.8-4-4-4zM22 8h6c1.126 0 2 0.874 2 2v16c0 1.126-0.874 2-2 2h-6c-1.126 0-2-0.874-2-2v-16c0-1.126 0.874-2 2-2zM5 16h10c1.344 0 1.32 2 0 2h-10c-1.332 0-1.328-2 0-2zM3 0c-1.644 0-3 1.356-3 3v18c0 1.644 1.356 3 3 3h9v4h-3c-1.328 0-1.3 2 0 2h6c1.306 0 1.34-2 0-2h-1v-4h1c1.33 0 1.316-2 0-2h-12c-0.572 0-1-0.428-1-1v-18c0-0.572 0.428-1 1-1h26c0.572 0 1 0.428 1 1 0 1.284 2 1.346 2 0 0-1.644-1.356-3-3-3z"></path>
</svg>
