<!-- Generated by IcoMoon.io -->
<svg version="1.1" xmlns="http://www.w3.org/2000/svg" width="32" height="32" viewBox="0 0 32 32">
<title>mbrib-download</title>
<path d="M12.32 25.734l4.004 4.006c0.368 0.346 1.008 0.346 1.376 0l4-4.006c0.936-0.934-0.548-2.25-1.374-1.43l-3.314 3.296-3.312-3.296c-0.932-0.926-2.34 0.468-1.38 1.43zM18 12.974v10c0 1.308-2 1.384-2 0v-10c0-1.3 2-1.264 2 0zM17 0c-5.22 0-8.28 3.076-9.812 6.126-4.012 0.43-7.188 3.754-7.188 7.874 0 4.414 3.586 8 8 8h3c1.34 0 1.32-2 0-2h-3c-3.34 0-6-2.66-6-6 0-3.288 2.55-5.916 5.812-6 0.4 0 0.788-0.256 0.94-0.624 1.228-2.716 3.574-5.376 8.248-5.376 4.52 0 9 3.74 9 9.060 0.020 0.448 0.374 0.856 0.812 0.94 1.808 0.37 3.188 2.060 3.188 4 0 2.22-1.78 4-4 4h-3c-1.316 0-1.32 2 0 2h3c3.3 0 6-2.7 6-6 0-2.6-1.796-4.66-4.126-5.5-0.32-6.124-5.428-10.5-10.874-10.5z"></path>
</svg>
