<!-- Generated by IcoMoon.io -->
<svg version="1.1" xmlns="http://www.w3.org/2000/svg" width="32" height="32" viewBox="0 0 32 32">
<title>mbrib-question</title>
<path d="M16 25c0 0.552-0.448 1-1 1s-1-0.448-1-1 0.448-1 1-1 1 0.448 1 1zM16 6.026c-3.3 0-6 2.7-6 6-0.008 0.528 0.472 1.014 1 1.014s1.008-0.486 1-1.014c0-2.22 1.78-4 4-4s4 1.78 4 4c0 3.336-5.994 3.52-6 9 0 0.528 0.472 1.014 1 1.014s1-0.486 1-1.014c-0.006-4.194 6-4.306 6-9 0-3.3-2.7-6-6-6zM16 0c-8.846 0-16 7.154-16 16s7.154 16 16 16 16-7.154 16-16-7.154-16-16-16zM16 2c7.774 0 14 6.226 14 14s-6.226 14-14 14-14-6.226-14-14 6.226-14 14-14z"></path>
</svg>
