<!-- Generated by IcoMoon.io -->
<svg version="1.1" xmlns="http://www.w3.org/2000/svg" width="32" height="32" viewBox="0 0 32 32">
<title>mbrib-shopping-basket</title>
<path d="M22 15v8c0 1.314-2 1.314-2 0v-8c0-1.28 2-1.37 2 0zM16 15v8c0 1.314-2 1.314-2 0v-8c0-1.28 2-1.37 2 0zM21.684 0.268l4.040 4.012c0.86 0.852-0.48 2.34-1.388 1.44l-4.040-4.010c-0.92-0.914 0.528-2.296 1.388-1.44zM10 15v8c0 1.314-2 1.314-2 0v-8c0-1.28 2-1.37 2 0zM8.316 0.268l-4.040 4.012c-0.86 0.852 0.48 2.34 1.388 1.44l4.040-4.010c0.92-0.914-0.528-2.296-1.388-1.44zM3 8c-2.208 0-3.256 1.536-2.946 3.188l2.994 16c0.344 1.836 1.46 2.812 2.952 2.812h18c1.912 0 2.65-1.252 2.94-2.812l2.996-16c0.41-2.188-1.16-3.188-2.936-3.188zM3 10h24c0.684 0 1.054 0.54 1 0.812l-2.992 16c-0.144 0.768-0.608 1.188-1.008 1.188h-18c-0.688 0-0.934-0.744-1.020-1.188l-2.992-16c-0.128-0.672 0.64-0.812 1.012-0.812z"></path>
</svg>
