<!-- Generated by IcoMoon.io -->
<svg version="1.1" xmlns="http://www.w3.org/2000/svg" width="32" height="32" viewBox="0 0 32 32">
<title>mbrib-cash</title>
<path d="M7 20h-1v-1c0-1.316-2-1.34-2 0v2c0 0.524 0.476 1 1 1h2c1.316 0 1.34-2 0-2zM23 20h1v-1c0-1.316 2-1.34 2 0v2c0 0.524-0.476 1-1 1h-2c-1.316 0-1.34-2 0-2zM7 10h-1v1c0 1.316-2 1.34-2 0v-2c0-0.524 0.476-1 1-1h2c1.316 0 1.34 2 0 2zM14 9v1.188c-1.17 0.408-2 1.506-2 2.812 0 2.060 1.34 2.968 3 3 0.55 0.020 1 0.472 1 1 0 0.548-0.46 1-1 1h-2c-1.324 0-1.32 2 0 2h1v1c0 1.334 2 1.33 2 0v-1.126c1.172-0.408 2-1.566 2-2.874 0-1.652-1.194-2.984-3-2.984-0.564 0-1-0.472-1-1.016 0-0.548 0.46-1 1-1h2c1.408 0 1.226-2 0-2h-1v-1c0-1.332-2-1.312-2 0zM23 10h1v1c0 1.316 2 1.34 2 0v-2c0-0.524-0.476-1-1-1h-2c-1.316 0-1.34 2 0 2zM3 4c-1.644 0-3 1.356-3 3v16c0 1.644 1.356 3 3 3h24c1.644 0 3-1.356 3-3v-16c0-1.644-1.356-3-3-3zM3 6h24c0.572 0 1 0.428 1 1v16c0 0.572-0.428 1-1 1h-24c-0.572 0-1-0.428-1-1v-16c0-0.572 0.428-1 1-1z"></path>
</svg>
