<!-- Generated by IcoMoon.io -->
<svg version="1.1" xmlns="http://www.w3.org/2000/svg" width="32" height="32" viewBox="0 0 32 32">
<title>mbrib-timer</title>
<path d="M16 11v6c0 1.354-2 1.32-2 0v-6c0-1.314 2-1.34 2 0zM13 0c-1.304 0-1.33 2 0 2h1v3c0.006 0.5 0.348 1 1 1 6.086 0 11 4.914 11 11s-4.914 11-11 11-11-4.914-11-11c0-3.13 1.324-6.128 3.626-8.25 1.006-0.93-0.296-2.412-1.314-1.5-2.752 2.47-4.312 6.050-4.312 9.75 0 7.168 5.832 13 13 13s13-5.832 13-13c0-6.826-5.3-12.416-12-12.94v-2.060h1c1.28 0 1.37-2 0-2z"></path>
</svg>
