<!-- Generated by IcoMoon.io -->
<svg version="1.1" xmlns="http://www.w3.org/2000/svg" width="32" height="32" viewBox="0 0 32 32">
<title>mbrib-help</title>
<path d="M1 18h2c1.34 0 1.336 2 0 2h-2c-1.324 0-1.344-2 0-2zM1 12h2c1.34 0 1.336 2 0 2h-2c-1.324 0-1.344-2 0-2zM1 6h2c1.34 0 1.336 2 0 2h-2c-1.324 0-1.344-2 0-2zM6 5v16c0 2.35 1.8 3 4 3v5c0.030 0.764 1.134 1.214 1.688 0.688l5.686-5.688h11.626c1.644 0 3-1.354 3-3v-16c0-1.644-1.356-3-3-3h-20c-1.784 0-3 1.356-3 3zM9 4h20c0.572 0 1 0.428 1 1v16c0 0.572-0.428 1-1 1h-12c-0.25 0-0.5 0.084-0.688 0.25l-4.312 4.31v-3.56c0-0.524-0.476-1-1-1-1.748 0-3-0.020-3-1v-16c0-0.572 0.428-1 1-1z"></path>
</svg>
