<!-- Generated by IcoMoon.io -->
<svg version="1.1" xmlns="http://www.w3.org/2000/svg" width="32" height="32" viewBox="0 0 32 32">
<title>mbrib-bootstrap</title>
<path d="M8 5v20c0 0.524 0.476 1 1 1h8c3.86 0 7-3.14 7-7 0-1.546-0.72-2.854-1.56-4 0.84-1.146 1.56-2.452 1.56-4 0-3.86-3.14-7-7-7h-8c-0.674 0-1 0.506-1 1zM10 6h7c2.788 0 5 2.214 5 5 0 1.296-0.5 2.416-1.312 3.312-0.348 0.368-0.348 1.008 0 1.376 0.808 0.896 1.312 2.020 1.312 3.312 0 2.788-2.212 5-5 5h-7v-18zM12 17v4c0 0.524 0.476 1 1 1h4.060c1.628 0 2.94-1.372 2.94-3s-1.312-3-2.94-3h-4.060c-0.552 0-1 0.42-1 1zM14 18h3.060c0.536 0 0.94 0.4 0.94 1s-0.404 1.012-0.94 1h-3.060zM12 9v4c0 0.524 0.476 1 1 1h4.060c1.63 0 2.94-1.372 2.94-3s-1.312-3-2.94-3h-4.060c-0.596 0-1 0.48-1 1zM14 10h3.060c0.536 0 0.94 0.4 0.94 1s-0.404 1-0.94 1h-3.060zM3 0c-1.644 0-3 1.356-3 3v24c0 1.644 1.356 3 3 3h26c1.644 0 3-1.356 3-3v-24c0-1.644-1.356-3-3-3zM3 2h26c0.572 0 1 0.428 1 1v24c0 0.572-0.428 1-1 1h-26c-0.572 0-1-0.428-1-1v-24c0-0.572 0.428-1 1-1z"></path>
</svg>
