<!-- Generated by IcoMoon.io -->
<svg version="1.1" xmlns="http://www.w3.org/2000/svg" width="32" height="32" viewBox="0 0 32 32">
<title>mbrib-briefcase</title>
<path d="M4.34 13.736l4.008 3.97c1.344 1.334 1.932 2.294 4.652 2.294h6c2.516 0 3.206-0.73 4.754-2.294l3.97-4.010c0.844-0.852-0.56-2.252-1.38-1.426l-3.964 4.010c-1.224 1.234-2.18 1.72-3.38 1.72h-6c-1.676 0-2.434-0.888-3.274-1.72l-4.006-3.97c-0.936-0.924-2.34 0.48-1.38 1.426zM11 0c-1.644 0-3 1.356-3 3v2c0 1.324 2 1.32 2 0v-2c0-0.572 0.428-1 1-1h10c0.572 0 1 0.428 1 1v2c0 1.314 2 1.3 2 0v-2c0-1.644-1.356-3-3-3zM3 8c-1.644 0-3 1.356-3 3v16c0 1.644 1.356 3 3 3h26c1.644 0 3-1.356 3-3v-16c0-1.644-1.356-3-3-3zM3 10h26c0.572 0 1 0.428 1 1v16c0 0.572-0.428 1-1 1h-26c-0.572 0-1-0.428-1-1v-16c0-0.572 0.428-1 1-1z"></path>
</svg>
