<!-- Generated by IcoMoon.io -->
<svg version="1.1" xmlns="http://www.w3.org/2000/svg" width="32" height="32" viewBox="0 0 32 32">
<title>mbrib-mobirise</title>
<path d="M18.744 7.986c3.012 0.808 5.256 3.588 5.256 7.014 0 3.43-2.244 6.21-5.256 7.020-1.294 0.346-0.754 2.28 0.5 1.94 3.884-1.040 6.756-4.648 6.756-8.96 0-4.308-2.872-7.914-6.756-8.956-1.346-0.36-1.688 1.624-0.5 1.94zM26.308 6.282l1.414-1.412c0.96-0.956 2.348 0.484 1.42 1.414l-1.416 1.42c-0.924 0.924-2.352-0.476-1.412-1.416zM18 1v2c0 1.352 2 1.316 2 0v-2c0-1.31-2-1.328-2 0zM29 16h2c1.354 0 1.32-2 0-2h-2c-1.308 0-1.326 2 0 2zM26.308 23.72l1.414 1.412c0.96 0.956 2.348-0.48 1.42-1.414l-1.416-1.414c-0.924-0.926-2.352 0.476-1.412 1.414zM18 27v2c0 1.352 2 1.316 2 0v-2c0-1.31-2-1.328-2 0zM7 24h2c1.352 0 1.32 2 0 2h-2c-1.31 0-1.328-2 0-2zM3 2c-1.644 0-3 1.356-3 3v22c0 1.646 1.356 3 3 3h10c1.644 0 3-1.354 3-3v-22c0-1.644-1.356-3-3-3zM3 4h10c0.572 0 1 0.43 1 1v22c0 0.572-0.428 1-1 1h-10c-0.572 0-1-0.428-1-1v-22c0-0.57 0.428-1 1-1z"></path>
</svg>
