<!-- Generated by IcoMoon.io -->
<svg version="1.1" xmlns="http://www.w3.org/2000/svg" width="32" height="32" viewBox="0 0 32 32">
<title>mbrib-credit-card</title>
<path d="M23 20h2c1.36 0 1.304 2 0 2h-2c-1.336 0-1.3-2 0-2zM17 20h2c1.36 0 1.304 2 0 2h-2c-1.336 0-1.308-2 0-2zM11 20h2c1.36 0 1.304 2 0 2h-2c-1.336 0-1.308-2 0-2zM5 20h2c1.36 0 1.304 2 0 2h-2c-1.336 0-1.34-2 0-2zM20 8c-2.2 0-4 1.8-4 4s1.8 4 4 4c0.784 0 1.404-0.432 2-0.812 0.596 0.38 1.216 0.812 2 0.812 2.2 0 4-1.8 4-4s-1.8-4-4-4c-0.75 0-1.39 0.384-2 0.75-0.61-0.366-1.25-0.75-2-0.75zM20 10c0.52 0 0.966 0.192 1.312 0.5 0.368 0.348 1.008 0.348 1.376 0 0.346-0.308 0.79-0.5 1.312-0.5 1.116 0 2 0.884 2 2s-0.884 2-2 2c-0.492 0-0.932-0.22-1.312-0.56-0.368-0.35-1.008-0.35-1.376 0-0.38 0.34-0.82 0.56-1.312 0.56-1.116 0-2-0.884-2-2s0.884-2 2-2zM3 4c-1.644 0-3 1.356-3 3v16c0 1.644 1.356 3 3 3h26c1.644 0 3-1.356 3-3v-16c0-1.644-1.356-3-3-3zM3 6h26c0.572 0 1 0.428 1 1v16c0 0.572-0.428 1-1 1h-26c-0.572 0-1-0.428-1-1v-16c0-0.572 0.428-1 1-1z"></path>
</svg>
