<!-- Generated by IcoMoon.io -->
<svg version="1.1" xmlns="http://www.w3.org/2000/svg" width="32" height="32" viewBox="0 0 32 32">
<title>mbrib-like</title>
<path d="M19 0c-1.63 0-3 1.356-3 3 0 1.626-0.42 3.24-1.132 4.56-0.608 1.14-1.22 2.004-2.408 2.69-1.060 0.61-0.088 2.196 1.046 1.644 1.192-0.584 2.32-1.82 3.16-3.394 0.844-1.572 1.334-3.46 1.334-5.5 0-0.572 0.434-1 1-1s1 0.428 1 1c0 3.486-0.706 5.654-1.84 7.44-0.4 0.592 0.096 1.55 0.808 1.56h10.032c0.566 0 1 0.428 1 1s-0.434 1-1 1c-1.32 0-1.32 2 0 2 0.566 0 1 0.428 1 1s-0.434 1-1 1c-1.308 0-1.34 2 0 2 0.566 0 1 0.428 1 1s-0.434 1-1 1c-1.3 0-1.34 2 0 2 0.566 0 1 0.428 1 1s-0.434 1-1 1h-15.866c-1.476 0-1.508 2 0 2h15.866c1.63 0 3-1.356 3-3 0-0.772-0.348-1.466-0.83-2 0.504-0.54 0.83-1.208 0.83-2 0-0.772-0.348-1.466-0.83-2 0.504-0.54 0.83-1.208 0.83-2 0-0.772-0.348-1.466-0.83-2 0.504-0.54 0.83-1.208 0.83-2 0-1.644-1.37-3-3-3h-8.606c0.866-1.888 1.606-4.030 1.606-7 0-1.644-1.37-3-3-3zM3 10c-1.644 0-3 1.356-3 3v14c0 1.644 1.356 3 3 3h4c1.644 0 3-1.356 3-3v-14c0-1.644-1.356-3-3-3zM3 12h4c0.572 0 1 0.428 1 1v14c0 0.572-0.428 1-1 1h-4c-0.572 0-1-0.428-1-1v-14c0-0.572 0.428-1 1-1z"></path>
</svg>
