<!-- Generated by IcoMoon.io -->
<svg version="1.1" xmlns="http://www.w3.org/2000/svg" width="32" height="32" viewBox="0 0 32 32">
<title>mbrib-gift</title>
<path d="M2 17v12c0 1.644 1.356 3 3 3h22c1.644 0 3-1.356 3-3v-12c0-1.34-2-1.29-2 0v12c0 0.572-0.428 1-1 1h-7v-13c0-1.348-2-1.27-2 0v13h-4v-13c0-1.36-2-1.27-2 0v13h-7c-0.572 0-1-0.428-1-1v-12c0-1.294-2-1.34-2 0zM9.812 0c-1.592 0-2.888 1.408-3.372 2.312-0.62 1.14-0.626 2.546 0 3.688h-3.44c-1.644 0-3 1.356-3 3v2c0 1.644 1.356 3 3 3h26c1.644 0 3-1.356 3-3v-2c0-1.644-1.356-3-3-3h-3.44c0.626-1.14 0.592-2.532 0-3.688-0.548-1.086-1.5-1.808-2.56-2.124-1.056-0.32-2.22-0.26-3.188 0.436-1.6 1.148-2.732 2.812-3.812 4.128-1.106-1.438-2.428-3.156-3.812-4.128-0.734-0.512-1.56-0.624-2.376-0.624zM9.876 2c0.406-0.006 1.012 0.126 1.372 0.424 1.472 1.22 2.386 2.492 3.192 3.576h-4.38c-1.894 0-2.306-1.78-1.816-2.75 0.444-0.88 1.156-1.24 1.632-1.25zM22.126 2c0.86 0 1.43 0.69 1.686 1.25 0.66 1.444-0.36 2.75-1.874 2.75h-4.378c0.896-1.254 2.1-2.64 3.204-3.554 0.36-0.296 0.954-0.446 1.36-0.446zM3 8h26c0.572 0 1 0.428 1 1v2c0 0.572-0.428 1-1 1h-26c-0.572 0-1-0.428-1-1v-2c0-0.572 0.428-1 1-1z"></path>
</svg>
