<!-- Generated by IcoMoon.io -->
<svg version="1.1" xmlns="http://www.w3.org/2000/svg" width="32" height="32" viewBox="0 0 32 32">
<title>mbrib-photos</title>
<path d="M18.28 14.28c-1.756 1.76-5.28 5.348-5.28 5.348l-3.288-3.368c-0.364-0.34-1-0.34-1.366 0l-3.976 3.972c-1.050 1.050 0.38 2.414 1.368 1.426l3.29-3.288 3.292 3.37c0.364 0.34 1 0.34 1.364 0l5.28-5.354 3.292 3.288c0.928 0.926 2.46-0.336 1.366-1.428l-3.972-3.966c-0.38-0.38-1.008-0.36-1.368 0zM8 4c-2.2 0-4 1.8-4 4s1.8 4 4 4 4-1.8 4-4-1.8-4-4-4zM8 6c1.116 0 2 0.884 2 2s-0.884 2-2 2-2-0.884-2-2 0.884-2 2-2zM4 0c-2.2 0-4 1.8-4 4v20c0 2.2 1.8 4 4 4h20c2.2 0 4-1.8 4-4v-20c0-2.2-1.8-4-4-4zM4 2h20c1.126 0 2 0.874 2 2v20c0 1.126-0.874 2-2 2h-20c-1.126 0-2-0.874-2-2v-20c0-1.126 0.874-2 2-2zM30 7v21c0 1.126-0.874 2-2 2h-21c-1.316 0-1.334 2 0 2h21c2.2 0 4-1.8 4-4v-21c0-1.37-2-1.276-2 0z"></path>
</svg>
