<!-- Generated by IcoMoon.io -->
<svg version="1.1" xmlns="http://www.w3.org/2000/svg" width="32" height="32" viewBox="0 0 32 32">
<title>mbrib-bulleted-list</title>
<path d="M11 26h20c1.36 0 1.314 2 0 2h-20c-1.34 0-1.316-2 0-2zM11 14h20c1.36 0 1.314 2 0 2h-20c-1.34 0-1.316-2 0-2zM4 24c-2.2 0-4 1.8-4 4s1.8 4 4 4 4-1.8 4-4-1.8-4-4-4zM4 26c1.116 0 2 0.884 2 2s-0.884 2-2 2-2-0.884-2-2 0.884-2 2-2zM4 12c-2.2 0-4 1.8-4 4s1.8 4 4 4 4-1.8 4-4-1.8-4-4-4zM4 14c1.116 0 2 0.884 2 2s-0.884 2-2 2-2-0.884-2-2 0.884-2 2-2zM4 0c-2.2 0-4 1.8-4 4s1.8 4 4 4 4-1.8 4-4-1.8-4-4-4zM4 2c1.116 0 2 0.884 2 2s-0.884 2-2 2-2-0.884-2-2 0.884-2 2-2zM11 2h20c1.36 0 1.314 2 0 2h-20c-1.34 0-1.316-2 0-2z"></path>
</svg>
