<!-- Generated by IcoMoon.io -->
<svg version="1.1" xmlns="http://www.w3.org/2000/svg" width="32" height="32" viewBox="0 0 32 32">
<title>mbrib-setting</title>
<path d="M12 3v1.75c-0.372 0.124-0.76 0.272-1.126 0.44l-1.25-1.252c-1.228-1.232-3.004-1.134-4.186 0l-1.438 1.372c-1.18 1.126-1.088 3.224-0.060 4.25l1.248 1.314c-0.168 0.376-0.312 0.74-0.44 1.126h-1.748c-1.644 0-3 1.354-3 3v2c0 1.644 1.356 3 3 3h1.812c0.12 0.34 0.224 0.67 0.376 1l-1.25 1.312c-0.89 0.932-1.216 2.972 0.060 4.248l1.44 1.44c1.156 1.156 3.026 1.156 4.184 0 0.4-0.4 0.86-0.84 1.25-1.252 0.36 0.172 0.746 0.3 1.126 0.44v1.81c0 1.644 1.356 3 3 3h2c1.644 0 3-1.356 3-3v-1.814c0.38-0.14 0.766-0.264 1.126-0.44 0.3 0.366 0.844 0.848 1.248 1.252 1.16 1.156 3.030 1.156 4.188 0l1.44-1.44c1.144-1.14 1.16-3.148 0.066-4.244-0.59-0.59-1.254-1.316-1.254-1.316 0.152-0.328 0.256-0.66 0.376-1h1.812c1.644 0 3-1.356 3-3v-2c0-1.644-1.356-3-3-3h-1.75c-0.126-0.384-0.27-0.75-0.44-1.124l1.252-1.314c1.040-1.086 1.072-3.116-0.060-4.248l-1.44-1.374c-1.36-1.306-3.17-1.016-4.184 0l-1.252 1.248c-0.366-0.164-0.752-0.314-1.124-0.44v-1.744c-0.002-1.644-1.358-3-3.002-3h-2c-1.65 0-3 1.354-3 3zM17 2c0.572 0 1 0.428 1 1v2.44c0.014 0.426 0.334 0.828 0.75 0.934 0.78 0.224 1.494 0.52 2.126 0.876 0.38 0.2 0.888 0.12 1.186-0.188l1.69-1.686c0.45-0.45 1.056-0.38 1.44 0l1.434 1.376c0.514 0.49 0.28 1.020-0.060 1.374l-1.69 1.75c-0.288 0.314-0.34 0.82-0.124 1.188 0.368 0.66 0.652 1.392 0.876 2.19 0.106 0.414 0.508 0.736 0.936 0.75h2.44c0.572 0 1 0.428 1 1v2c0 0.57-0.428 1-1 1h-2.44c-0.412 0-0.806 0.294-0.934 0.686-0.22 0.768-0.512 1.474-0.876 2.126-0.22 0.366-0.164 0.874 0.126 1.188l1.748 1.75c0.41 0.408 0.41 0.966 0 1.374l-1.436 1.44c-0.392 0.388-0.97 0.354-1.376 0l-1.688-1.752c-0.32-0.32-0.87-0.372-1.248-0.124-0.672 0.376-1.386 0.664-2.126 0.874-0.436 0.114-0.764 0.552-0.75 1v2.44c0 0.572-0.428 1-1 1h-2c-0.572 0-1-0.428-1-1v-2.44c0.014-0.448-0.314-0.886-0.75-1-0.74-0.208-1.454-0.496-2.126-0.872-0.38-0.248-0.926-0.194-1.25 0.124l-1.686 1.75c-0.406 0.36-0.984 0.392-1.376 0l-1.44-1.436c-0.406-0.408-0.406-0.966 0.004-1.374l1.744-1.758c0.29-0.314 0.344-0.82 0.126-1.188-0.364-0.652-0.656-1.36-0.876-2.126-0.128-0.392-0.52-0.68-0.936-0.686h-2.438c-0.572 0-1-0.43-1-1v-2c0-0.572 0.428-1 1-1h2.44c0.426-0.020 0.828-0.334 0.934-0.75 0.224-0.8 0.508-1.532 0.876-2.188 0.22-0.364 0.164-0.872-0.126-1.186l-1.686-1.75c-0.5-0.5-0.336-1.104-0.066-1.374l1.44-1.376c0.46-0.44 1.090-0.346 1.436 0l1.688 1.688c0.296 0.31 0.806 0.392 1.186 0.19 0.63-0.354 1.34-0.652 2.124-0.876 0.416-0.108 0.736-0.508 0.75-0.936v-2.442c0-0.572 0.44-1 1-1zM16 10c-3.3 0-6 2.7-6 6s2.7 6 6 6 6-2.7 6-6-2.7-6-6-6zM16 12c2.22 0 4 1.78 4 4s-1.78 4-4 4c-2.22 0-4-1.78-4-4s1.78-4 4-4z"></path>
</svg>
