<!-- Generated by IcoMoon.io -->
<svg version="1.1" xmlns="http://www.w3.org/2000/svg" width="32" height="32" viewBox="0 0 32 32">
<title>mbrib-link</title>
<path d="M21 10h3c3.34 0 6 2.66 6 6s-2.66 6-6 6h-4c-3.34 0-6-2.66-6-6v-1c0-1.34-2-1.3-2 0v1c0 4.414 3.586 8 8 8h4c4.414 0 8-3.586 8-8s-3.586-8-8-8h-3c-1.308 0-1.326 2 0 2zM8 8c-4.414 0-8 3.586-8 8s3.586 8 8 8h3c1.34 0 1.3-2 0-2h-3c-3.34 0-6-2.66-6-6s2.66-6 6-6h4c3.34 0 6 2.66 6 6v1c0 1.346 2 1.308 2 0v-1c0-4.414-3.586-8-8-8z"></path>
</svg>
