<!-- Generated by IcoMoon.io -->
<svg version="1.1" xmlns="http://www.w3.org/2000/svg" width="32" height="32" viewBox="0 0 32 32">
<title>mbrib-globe-2</title>
<path d="M15 0c-8.272 0-15 6.728-15 15s6.728 15 15 15 15-6.728 15-15-6.728-15-15-15zM15 2c1.96 0.008 3.596 1.648 4.5 3.188-2.89 1.056-6.1 1.006-9-0.060 1.004-1.516 2.54-3.14 4.5-3.132zM9.44 3.312c-0.254 0.32-0.52 0.646-0.752 1-0.168-0.094-0.336-0.21-0.5-0.312 0.408-0.252 0.812-0.48 1.25-0.688zM20.56 3.312c0.466 0.22 0.884 0.48 1.316 0.75-0.184 0.116-0.376 0.212-0.564 0.316-0.24-0.374-0.488-0.732-0.75-1.064zM6.44 5.312c0.42 0.296 0.864 0.566 1.31 0.812-0.99 2.244-1.63 4.942-1.75 7.876h-1c-1.32 0-1.306 2 0 2h1c0.12 2.934 0.76 5.632 1.75 7.876-0.464 0.254-0.934 0.504-1.376 0.812-2.688-2.374-4.374-5.808-4.374-9.688 0-3.892 1.728-7.324 4.44-9.688zM23.56 5.312c2.714 2.364 4.44 5.796 4.44 9.688 0 3.91-1.706 7.376-4.44 9.75-0.434-0.306-0.852-0.62-1.31-0.876 0.992-2.24 1.632-4.94 1.75-7.874h1c1.308 0 1.328-2 0-2h-1c-0.116-2.91-0.772-5.58-1.75-7.812 0.46-0.252 0.88-0.574 1.312-0.876zM9.56 6.938c3.532 1.38 7.43 1.436 10.94 0.060 0.84 1.948 1.388 4.354 1.5 7h-14c0.114-2.68 0.704-5.1 1.56-7.060zM8 16h14c-0.114 2.68-0.704 5.1-1.56 7.060-1.826-0.712-3.752-1.094-5.69-1.060-1.76 0.032-3.52 0.364-5.188 1-0.842-1.952-1.446-4.34-1.562-7zM19.5 24.876c-1.146 1.724-2.548 3.134-4.5 3.124s-3.812-1.72-4.5-3.126c2.9-1.16 6.236-1.12 9 0zM8.75 25.688c0.246 0.366 0.486 0.732 0.75 1.060-0.466-0.216-0.88-0.48-1.312-0.748 0.186-0.116 0.37-0.206 0.56-0.312zM21.31 25.688c0.168 0.092 0.34 0.212 0.5 0.312-0.432 0.27-0.844 0.532-1.31 0.75 0.27-0.34 0.56-0.684 0.812-1.060z"></path>
</svg>
