<!-- Generated by IcoMoon.io -->
<svg version="1.1" xmlns="http://www.w3.org/2000/svg" width="32" height="32" viewBox="0 0 32 32">
<title>mbrib-touch</title>
<path d="M14 7c0 0.552-0.448 1-1 1s-1-0.448-1-1 0.448-1 1-1 1 0.448 1 1zM10 5c0 0.552-0.448 1-1 1s-1-0.448-1-1 0.448-1 1-1 1 0.448 1 1zM4 7c0 0.552-0.448 1-1 1s-1-0.448-1-1 0.448-1 1-1 1 0.448 1 1zM2 13c0 0.552-0.448 1-1 1s-1-0.448-1-1 0.448-1 1-1 1 0.448 1 1zM4 17c0 0.552-0.448 1-1 1s-1-0.448-1-1 0.448-1 1-1 1 0.448 1 1zM20.070 8.15c-2.004-0.65-3.73 0.73-3.93 2.006-1.374-0.434-2.972 0.22-3.652 1.526l-2.86-2.802c-1.292-1.232-3.348-1.22-4.628 0.060-1.296 1.3-1.296 3.392 0 4.688l10.56 10.372h-2.56c-1.644 0-3 1.354-3 3 0 1.644 1.356 3 3 3h12c1.36 0 1.304-2 0-2h-12c-0.572 0-1-0.43-1-1 0-0.572 0.428-1 1-1h5c0.764-0.030 1.212-1.134 0.688-1.688l-12.312-12.060c-0.52-0.52-0.52-1.42 0-1.94 0.532-0.534 1.312-0.48 1.874 0.060l4.126 3.996c0.568 0.54 1.64 0.068 1.624-0.716-0.034-1.7 1.488-1.924 2.5-1.214 0.626 0.436 1.69-0.186 1.56-0.94-0.316-1.894 1.464-1.844 2.38-0.94 0.714 0.714 1.864-0.164 1.54-1.21-0.36-1.17 1.428-1.78 2.208-0.976l6.124 6.314c0.924 0.952 2.31-0.414 1.376-1.376l-6.128-6.31c-0.608-0.63-1.36-0.992-2.306-1-1.484-0.020-2.9 0.776-3.184 2.15z"></path>
</svg>
