<!-- Generated by IcoMoon.io -->
<svg version="1.1" xmlns="http://www.w3.org/2000/svg" width="32" height="32" viewBox="0 0 32 32">
<title>mbrib-unlink</title>
<path d="M19.97 28.794l-0.98-4.036c-0.32-1.32-2.25-0.752-1.96 0.44l0.98 4.036c0.324 1.332 2.25 0.752 1.96-0.44zM12.030 28.794l0.98-4.036c0.32-1.32 2.25-0.752 1.96 0.44l-0.98 4.036c-0.324 1.332-2.25 0.752-1.96-0.44zM19.97 1.206l-0.98 4.036c-0.32 1.32-2.25 0.752-1.96-0.44l0.98-4.036c0.324-1.332 2.25-0.752 1.96 0.44zM12.030 1.206l0.98 4.036c0.32 1.32 2.25 0.752 1.96-0.44l-0.98-4.036c-0.324-1.332-2.25-0.752-1.96 0.44zM23 6c4.968 0 9 4.032 9 9s-4.032 9-9 9h-2c-1.326 0-1.328-2 0-2h2c3.896 0 7-3.104 7-7s-3.104-7-7-7h-2c-1.314 0-1.294-2 0-2zM9 6c-4.968 0-9 4.032-9 9s4.032 9 9 9h2c1.326 0 1.328-2 0-2h-2c-3.896 0-7-3.104-7-7s3.104-7 7-7h2c1.314 0 1.294-2 0-2z"></path>
</svg>
