<!-- Generated by IcoMoon.io -->
<svg version="1.1" xmlns="http://www.w3.org/2000/svg" width="32" height="32" viewBox="0 0 32 32">
<title>mbrib-watch</title>
<path d="M9 6c-1.624 0-2.968 1.32-3 2.94l-4.25 1.060c-0.966 0.24-1.75 0.71-1.75 2v8c0 1.016 0.56 1.652 1.75 1.94l4.25 1.060c0 1.644 1.356 3 3 3h14c1.644 0 3-1.356 3-3l4.25-1.060c1.192-0.288 1.75-0.924 1.75-1.94v-8c0-1.29-0.784-1.76-1.75-2l-4.25-1.060c-0.032-1.62-1.376-2.94-3-2.94h-14zM9 8h14c0.572 0 1 0.428 1 1v14c0 0.572-0.428 1-1 1h-14c-0.572 0-1-0.428-1-1v-14c0-0.572 0.428-1 1-1zM6 11v9.94l-3.75-0.94c-0.13-0.032-0.25-0.092-0.25-0.312v-7.376c0-0.18 0.024-0.32 0.25-0.374l3.75-0.938zM26 11l3.75 0.94c0.226 0.054 0.25 0.192 0.25 0.372v7.376c0 0.22-0.12 0.28-0.25 0.312l-3.75 0.94v-9.94z"></path>
</svg>
