<!-- Generated by IcoMoon.io -->
<svg version="1.1" xmlns="http://www.w3.org/2000/svg" width="32" height="32" viewBox="0 0 32 32">
<title>mbrib-cart-add</title>
<path d="M26 5v3h-3c-1.332 0-1.32 2 0 2h3v3c0 1.344 2 1.312 2 0v-3h3c1.36 0 1.31-2 0-2h-3v-3c0-1.32-2-1.336-2 0zM11 8h8c1.332 0 1.336 2 0 2h-8c-1.34 0-1.304-2 0-2zM11 12h10c1.34 0 1.33 2 0 2h-10c-1.33 0-1.316-2 0-2zM13 16h10c1.324 0 1.34 2 0 2h-10c-1.324 0-1.328-2 0-2zM23 24c-1.646 0-3 1.356-3 3s1.354 3 3 3 3-1.356 3-3-1.354-3-3-3zM23 26c0.564 0 1 0.436 1 1s-0.436 1-1 1c-0.564 0-1-0.436-1-1s0.436-1 1-1zM11 24c-1.646 0-3 1.356-3 3s1.354 3 3 3 3-1.356 3-3-1.354-3-3-3zM11 26c0.564 0 1 0.436 1 1s-0.436 1-1 1c-0.564 0-1-0.436-1-1s0.436-1 1-1zM4 6c0.512 0 0.81 1.416 1 2.188l2.060 10.060c0.8 2.972 2.514 3.752 4.94 3.752h12c1.36 0 3.752-0.824 5.876-4.5 0.686-1.188-1.116-2.1-1.752-1-1.876 3.252-3.48 3.5-4.124 3.5h-12c-1.972 0-2.646-0.7-3.060-2.25l-1.94-9.94c-0.356-1.982-1.2-3.81-3-3.81h-3c-1.32 0-1.344 2 0 2z"></path>
</svg>
