<!-- Generated by IcoMoon.io -->
<svg version="1.1" xmlns="http://www.w3.org/2000/svg" width="32" height="32" viewBox="0 0 32 32">
<title>mbrib-globe</title>
<path d="M5 14c0.666 0 0.58 0.846 0.812 1.214 0.234 0.366 0.594 0.786 1.5 0.786 0.66 0 0.688 0.634 0.688 1 0 1 0.296 1.87 0.94 2.4 0.64 0.53 1.374 0.6 2.060 0.6 0.54 0 1 0.49 1 1v6c0 1.368 2 1.268 2 0v-6c0-1-0.296-1.884-0.94-2.412-0.64-0.528-1.372-0.588-2.060-0.588-0.564 0-1-0.468-1-1 0-0.93-0.060-1.68-0.626-2.286-0.508-0.48-1.444-0.35-1.812-0.714-0.364-0.364-0.42-1.020-0.81-1.412-0.392-0.392-1.072-0.588-1.752-0.588-1.34 0-1.312 2 0 2zM20.126 5.526c0.414 0.72 0.436 1.13 0.436 1.44 0 0.59-2.56 2.232-2.56 4 0 2.264 2.14 2.486 7.312 4.5 1.040 0.356 0.646 0.844 0.312 0.934-4.34 1.164-5.626 1.42-5.626 3.6 0 1.034-2 0.574-2 3.026 0 1.93 1.348 3.61 2.312 4.688 0.82 0.912 2.356-0.44 1.376-1.44s-1.592-2.028-1.688-3.248c-0.036-0.454 0.29-0.486 0.44-0.564 1.208-0.634 1.554-1.428 1.56-2.434 0-1.328 6-0.888 6-4 0-1.264-0.776-1.846-1.78-2.236-2-0.772-3.66-1.32-5.532-2.080-1.026-0.35-0.556-1.128-0.312-1.372 1.406-1.408 2.124-2.288 2.124-3.346 0-0.952-0.054-1.476-0.626-2.468-0.72-1.26-2.3 0.040-1.748 1zM16 0c-8.824 0-16 7.176-16 16s7.176 16 16 16 16-7.176 16-16-7.176-16-16-16zM16 2c7.744 0 14 6.256 14 14s-6.256 14-14 14-14-6.256-14-14 6.256-14 14-14z"></path>
</svg>
