<!-- Generated by IcoMoon.io -->
<svg version="1.1" xmlns="http://www.w3.org/2000/svg" width="32" height="32" viewBox="0 0 32 32">
<title>mbrib-apple</title>
<path d="M21.060 0c-3.746 0-7.060 2.912-7.060 6.588 0 1.226 1.692 1.412 2.94 1.412 3.752 0 7.060-2.984 7.060-6.66 0-1.312-1.72-1.34-2.94-1.34zM21.626 2c0 2.016-2.206 4-5.252 4 0-2.020 2.072-4 5.252-4zM10.25 8c-5.74 0-8.25 4.828-8.25 10 0 8.052 4.76 14 9.25 14 3.554 0 3.548-2 5.188-2s1.76 2 5.184 2c3 0 6.586-2.752 8.314-7.85 0.128-0.4-0.032-0.88-0.38-1.124-1.7-1.080-2.56-2.924-2.56-5.026 0-1.94 0.7-3.62 2.188-4.724 0.408-0.28 0.552-0.88 0.312-1.312-1.436-2.576-3.972-3.964-6.808-3.964-3.548 0-4.034 2-6.248 2-2.22 0-2.6-2-6.19-2zM10.25 10c3 0 3.126 1.992 6.188 2 3.060 0 3.106-2 6.248-2 2.052 0 3.514 0.88 4.624 2.464-1.494 1.446-2.31 3.32-2.31 5.536 0 2.43 0.988 4.506 2.75 5.964-1.594 4.056-4.5 6.036-6.126 6.036-2.24 0-2.744-2-5.186-2-2.444 0-2.74 2-5.19 2-2.842 0-7.248-4.35-7.248-12 0-4.324 1.872-8 6.25-8z"></path>
</svg>
