<!-- Generated by IcoMoon.io -->
<svg version="1.1" xmlns="http://www.w3.org/2000/svg" width="32" height="32" viewBox="0 0 32 32">
<title>mbrib-home</title>
<path d="M2 13v16c0 0.524 0.476 1 1 1h8c0.524 0 1-0.476 1-1v-7c0-2.232 1.766-4 4-4s4 1.768 4 4v7c0 0.524 0.476 1 1 1h8c0.524 0 1-0.476 1-1v-16c0-1.32-2-1.328-2 0v15h-6v-6c0-3.304-2.694-6-6-6s-6 2.696-6 6v6h-6v-15c0-1.34-2-1.24-2 0zM12.504 3.004l-11.99 7.086c-1.146 0.68-0.084 2.412 1 1.772l11.986-7.082c1.956-1.154 3.084-1.13 5 0l11.986 7.086c1.056 0.626 2.168-1.080 1-1.77l-11.99-7.092c-2.3-1.36-4.806-1.292-6.992 0z"></path>
</svg>
