<!-- Generated by IcoMoon.io -->
<svg version="1.1" xmlns="http://www.w3.org/2000/svg" width="32" height="32" viewBox="0 0 32 32">
<title>mbrib-up-down</title>
<path d="M24 24.996v-20c0-1.364-2-1.29-2 0v20c0 1.314 2 1.326 2 0zM22.31 31.73l-4.004-4c-0.928-0.928 0.472-2.34 1.376-1.44l3.32 3.314 3.314-3.312c0.92-0.92 2.308 0.508 1.38 1.44l-4.008 4c-0.354 0.352-1.020 0.354-1.376 0zM10 7v20c0 1.364-2 1.29-2 0v-20c0-1.316 2-1.326 2 0zM8.31 0.266l-4.004 4c-0.928 0.928 0.472 2.34 1.376 1.44l3.318-3.316 3.314 3.312c0.92 0.92 2.308-0.508 1.38-1.44l-4.008-4c-0.354-0.352-1.020-0.354-1.376 0z"></path>
</svg>
